<?xml version="1.0" standalone="no"?>
<!DOCTYPE svg PUBLIC "-//W3C//DTD SVG 20010904//EN"
 "http://www.w3.org/TR/2001/REC-SVG-20010904/DTD/svg10.dtd">
<svg version="1.0"
    xmlns="http://www.w3.org/2000/svg" width="648.000000pt" height="639.000000pt" viewBox="0 0 648.000000 639.000000" preserveAspectRatio="xMidYMid meet">
    <metadata>
Created by potrace 1.10, written by Peter Selinger 2001-2011
    </metadata>
    <g transform="translate(0.000000,639.000000) scale(0.100000,-0.100000)" fill="#000000" stroke="none">
        <path d="M702 960c-54.2 52.6-114 44.4-171 19.6-60.6-25.3-116-26.9
-180 0-79.7 34.4-122 24.4-170-19.6-271-279-231-704 77-720 74.7 4
 127 41.3 171 44.4 65.4-13.3 128-51.4 198-46.4 84.1 6.8 147 40 189
  99.7-173 104-132 332 26.9 396-31.8 83.5-72.6 166-141 227zM423
   237C414.9 113 515.4 11 631 1c15.9 143-130 250-208 236z"/>
    </g>
</svg>
