<?xml version="1.0" standalone="no"?>
<!DOCTYPE svg PUBLIC "-//W3C//DTD SVG 20010904//EN"
 "http://www.w3.org/TR/2001/REC-SVG-20010904/DTD/svg10.dtd">
<svg version="1.0" xmlns="http://www.w3.org/2000/svg"
 width="978.000000pt" height="591.000000pt" viewBox="0 0 978.000000 591.000000"
 preserveAspectRatio="xMidYMid meet">
<metadata>
Created by potrace 1.10, written by Peter Selinger 2001-2011
</metadata>
<g transform="translate(0.000000,591.000000) scale(0.100000,-0.100000)"
fill="#000000" stroke="none">
<path d="M330 5406 c0 -11 15 -16 53 -18 l52 -3 3 -148 c2 -134 4 -148 20
-145 15 3 17 19 18 148 l0 145 52 3 c37 2 52 7 52 18 0 11 -23 14 -125 14
-102 0 -125 -3 -125 -14z"/>
<path d="M624 5407 c-2 -7 -3 -80 -2 -162 3 -125 5 -150 18 -150 11 0 16 18
21 75 8 97 16 119 47 127 47 11 57 -6 62 -108 4 -75 8 -94 20 -94 12 0 16 18
18 91 2 79 0 94 -18 117 -17 22 -30 27 -64 27 -23 0 -48 -6 -55 -12 -10 -11
-12 -4 -10 32 3 47 -5 70 -22 70 -5 0 -12 -6 -15 -13z"/>
<path d="M1850 5255 c0 -153 1 -166 18 -163 14 3 17 16 20 82 3 88 21 126 57
126 44 0 55 -24 55 -121 0 -81 2 -90 18 -87 15 3 17 16 17 100 0 117 -13 138
-81 138 -24 0 -46 -6 -51 -12 -5 -8 -10 9 -13 42 -4 42 -9 56 -22 58 -17 3
-18 -10 -18 -163z"/>
<path d="M2901 5383 c-30 -36 -31 -42 -31 -128 0 -86 1 -92 31 -128 26 -31 37
-37 70 -37 66 0 109 62 109 158 0 106 -42 172 -109 172 -33 0 -44 -6 -70 -37z
m94 1 c41 -16 59 -147 30 -218 -35 -83 -113 -43 -117 59 -4 131 24 183 87 159z"/>
<path d="M3117 5413 c-15 -14 -3 -103 14 -103 13 0 27 83 16 98 -11 13 -20 15
-30 5z"/>
<path d="M4737 5413 c-4 -3 -7 -24 -7 -45 l0 -38 -48 0 c-40 0 -53 -5 -76 -29
-24 -26 -28 -37 -28 -91 0 -54 3 -65 28 -91 26 -27 34 -30 84 -28 97 4 90 -9
90 164 0 130 -2 154 -16 159 -19 7 -19 7 -27 -1z m-17 -132 c5 -11 10 -43 10
-71 0 -65 -13 -90 -48 -90 -62 0 -95 98 -51 154 25 32 73 36 89 7z"/>
<path d="M4997 5413 c-4 -3 -7 -29 -7 -57 0 -39 -3 -47 -12 -38 -7 7 -29 12
-49 12 -72 0 -126 -85 -100 -157 20 -54 54 -83 100 -83 20 0 42 5 48 11 8 8
13 8 17 0 4 -6 14 -11 22 -11 12 0 14 28 14 165 0 131 -3 165 -13 165 -8 0
-17 -3 -20 -7z m-23 -138 c33 -50 10 -155 -34 -155 -32 0 -50 12 -65 41 -20
38 -19 68 5 107 25 41 69 45 94 7z"/>
<path d="M5487 5413 c-4 -3 -7 -24 -7 -45 l0 -38 -48 0 c-40 0 -53 -5 -76 -29
-23 -24 -27 -37 -28 -90 -1 -55 2 -65 27 -91 30 -32 59 -36 138 -24 l37 7 0
152 c0 130 -2 154 -16 159 -19 7 -19 7 -27 -1z m-17 -132 c16 -31 13 -127 -6
-145 -62 -63 -140 66 -83 138 25 32 73 36 89 7z"/>
<path d="M1737 5383 c-4 -3 -7 -14 -7 -23 0 -10 -7 -23 -15 -30 -14 -12 -14
-15 0 -30 11 -12 15 -39 15 -97 0 -86 14 -113 58 -113 32 0 36 18 8 32 -25 11
-26 15 -26 89 0 69 2 78 20 84 11 3 20 12 20 20 0 8 -9 17 -20 20 -13 4 -20
15 -20 31 0 23 -18 32 -33 17z"/>
<path d="M893 5293 c-28 -30 -33 -44 -33 -83 0 -40 5 -53 33 -84 30 -32 39
-36 83 -36 33 1 56 7 72 19 40 34 19 57 -22 26 -31 -24 -74 -18 -102 12 -42
46 -30 58 64 61 55 2 82 7 83 15 3 32 -5 54 -29 80 -21 22 -34 27 -71 26 -40
0 -50 -5 -78 -36z m127 -15 c10 -13 16 -26 13 -30 -5 -10 -95 -11 -118 -2 -14
6 -13 9 6 30 29 31 75 32 99 2z"/>
<path d="M1140 5305 c-20 -21 -22 -29 -14 -57 7 -24 17 -34 39 -39 17 -4 47
-15 67 -26 36 -18 37 -20 22 -41 -18 -26 -81 -31 -90 -7 -8 19 -44 20 -44 2 0
-48 119 -67 157 -24 11 12 23 29 26 38 7 20 -18 59 -37 59 -8 0 -19 6 -26 14
-6 8 -26 16 -43 18 -27 2 -32 7 -32 28 0 21 5 25 35 28 23 3 38 -2 47 -13 7
-11 19 -15 29 -11 15 6 15 9 -6 31 -33 35 -97 35 -130 0z"/>
<path d="M1372 5297 c-28 -28 -32 -40 -32 -85 0 -43 5 -57 31 -87 28 -32 36
-35 83 -35 51 1 96 24 96 49 0 16 -36 13 -50 -4 -32 -39 -120 0 -120 53 0 21
4 22 85 22 l85 0 0 34 c0 27 -7 39 -34 60 -51 38 -103 36 -144 -7z m124 -14
c26 -34 17 -43 -44 -43 -32 0 -61 3 -65 6 -3 4 1 17 10 30 19 30 79 34 99 7z"/>
<path d="M2128 5323 l-28 -4 0 -109 c0 -89 3 -109 16 -114 29 -11 34 4 34 99
0 98 3 105 51 105 10 0 19 7 19 15 0 15 -29 18 -92 8z"/>
<path d="M2272 5297 c-28 -29 -32 -40 -32 -88 0 -49 4 -59 33 -87 28 -27 40
-32 82 -32 50 1 95 24 95 49 0 16 -36 13 -50 -4 -32 -39 -120 0 -120 53 0 21
4 22 85 22 l85 0 0 34 c0 27 -7 39 -34 60 -51 38 -103 36 -144 -7z m124 -14
c26 -34 17 -43 -44 -43 -32 0 -61 3 -65 6 -3 4 1 17 10 30 19 30 79 34 99 7z"/>
<path d="M2533 5308 c-30 -34 -43 -63 -43 -98 0 -35 13 -64 43 -97 30 -33 108
-32 144 2 23 21 25 25 10 31 -9 3 -23 -1 -32 -10 -22 -22 -78 -20 -98 2 -9 10
-18 29 -19 43 -3 23 -1 24 77 29 l80 5 -1 33 c-3 50 -39 82 -95 82 -35 0 -50
-5 -66 -22z m112 -24 c26 -26 12 -39 -48 -42 -45 -2 -57 0 -57 12 0 41 73 62
105 30z"/>
<path d="M3230 5316 c0 -8 -7 -16 -15 -20 -38 -14 -3 -86 42 -86 11 0 26 -7
33 -15 7 -8 21 -15 32 -15 27 0 35 -30 13 -46 -25 -18 -66 -18 -91 1 -40 31
-60 11 -24 -25 15 -15 33 -20 70 -20 51 0 79 16 93 53 10 26 -10 67 -32 67
-10 0 -24 7 -31 15 -7 8 -21 15 -30 15 -31 0 -50 11 -50 30 0 32 55 40 95 14
35 -23 51 -8 23 22 -19 19 -33 24 -75 24 -39 0 -53 -4 -53 -14z"/>
<path d="M3577 5304 c-24 -33 -14 -42 22 -21 51 30 117 18 109 -19 -2 -13 -13
-20 -38 -22 -19 -2 -39 -10 -43 -18 -4 -8 -17 -14 -27 -14 -25 0 -52 -41 -44
-66 14 -39 36 -54 79 -54 22 0 46 5 52 11 8 8 17 8 31 0 11 -6 25 -11 30 -11
15 0 2 191 -14 218 -13 19 -23 22 -77 22 -55 -1 -64 -4 -80 -26z m131 -116 c2
-10 -5 -29 -15 -42 -21 -29 -73 -35 -93 -11 -16 19 -6 45 19 45 10 0 22 7 25
16 8 21 60 15 64 -8z"/>
<path d="M3838 5323 l-28 -4 0 -109 c0 -89 3 -109 16 -114 29 -11 34 4 34 99
l0 94 32 9 c44 11 49 32 6 31 -18 -1 -45 -4 -60 -6z"/>
<path d="M3982 5297 c-28 -29 -32 -40 -32 -88 0 -49 4 -59 33 -87 28 -27 40
-32 82 -32 50 1 95 24 95 49 0 16 -36 13 -50 -4 -32 -39 -120 0 -120 53 0 21
4 22 85 22 l85 0 0 34 c0 27 -7 39 -34 60 -51 38 -103 36 -144 -7z m124 -14
c26 -34 17 -43 -44 -43 -32 0 -61 3 -65 6 -3 4 1 17 10 30 19 30 79 34 99 7z"/>
<path d="M4358 5311 c-10 -10 -18 -23 -18 -29 0 -17 25 -15 40 3 13 15 56 20
84 9 9 -3 16 -17 16 -30 0 -21 -5 -24 -34 -24 -18 0 -39 -7 -46 -15 -7 -8 -21
-15 -31 -15 -28 0 -44 -42 -33 -82 9 -32 12 -33 67 -36 46 -2 57 0 57 13 0 20
17 19 28 -1 5 -9 15 -15 23 -12 21 7 13 196 -9 221 -21 24 -120 23 -144 -2z
m125 -114 c3 -8 -4 -28 -15 -46 -18 -28 -25 -32 -57 -29 -28 2 -37 8 -39 24
-6 39 97 86 111 51z"/>
<path d="M5111 5302 c-18 -19 -26 -41 -29 -79 -4 -46 -1 -59 23 -93 26 -38 31
-40 77 -40 51 0 114 31 103 51 -10 14 -42 10 -49 -6 -3 -9 -18 -15 -39 -15
-39 0 -81 37 -75 67 3 15 15 18 83 21 44 2 84 7 88 11 11 11 -12 61 -41 89
-34 33 -108 30 -141 -6z m123 -24 c22 -30 12 -38 -49 -38 -61 0 -76 13 -49 40
27 27 79 26 98 -2z"/>
<path d="M350 4865 c0 -10 7 -15 18 -13 21 4 19 22 -2 26 -10 2 -16 -3 -16
-13z"/>
<path d="M1214 4867 c-2 -7 -3 -80 -2 -162 3 -125 5 -150 18 -150 12 0 16 21
20 110 3 62 11 122 19 137 12 23 11 29 -5 52 -21 28 -42 33 -50 13z"/>
<path d="M1452 4851 c-26 -36 -27 -49 -5 -73 13 -15 17 -40 17 -121 1 -95 2
-102 21 -102 19 0 20 7 20 160 0 136 -2 160 -15 163 -9 1 -26 -11 -38 -27z"/>
<path d="M1612 4852 c-47 -39 -45 -80 7 -121 29 -23 49 -31 78 -31 65 0 103
-57 69 -102 -9 -13 -27 -18 -64 -18 -44 0 -53 4 -76 31 -16 19 -32 29 -41 25
-23 -8 -18 -24 17 -57 28 -25 40 -29 93 -29 56 0 64 3 93 33 38 39 41 75 10
117 -16 22 -30 30 -54 30 -17 0 -37 6 -44 14 -6 8 -23 16 -37 18 -37 4 -51 30
-33 62 11 22 20 26 61 26 40 0 51 -4 64 -24 19 -28 44 -41 57 -28 5 5 -7 25
-26 45 -32 34 -39 37 -88 37 -43 0 -59 -6 -86 -28z"/>
<path d="M1884 4867 c-2 -7 -3 -80 -2 -162 l3 -150 86 -3 87 -3 31 38 c33 41
40 83 16 103 -11 9 -14 30 -12 79 2 57 -1 69 -20 89 -20 19 -33 22 -103 22
-57 0 -82 -4 -86 -13z m157 -27 c14 -8 19 -21 19 -50 0 -48 -21 -62 -88 -58
l-47 3 -3 44 c-2 24 -1 50 2 57 6 17 88 19 117 4z m27 -172 c16 -26 16 -30 0
-55 -15 -26 -22 -28 -80 -28 l-63 0 -3 44 c-5 68 -1 72 69 69 54 -3 62 -6 77
-30z"/>
<path d="M3913 4873 c-19 -7 -18 -309 0 -316 29 -11 34 10 33 162 -1 151 -4
166 -33 154z"/>
<path d="M6307 4862 c-10 -10 -17 -28 -17 -41 0 -12 -7 -24 -15 -27 -8 -4 -15
-12 -15 -19 0 -7 7 -15 15 -19 12 -4 15 -26 15 -106 0 -91 2 -101 18 -98 15 3
17 17 20 101 3 94 4 98 27 107 32 12 31 18 -1 30 -33 13 -30 53 4 58 12 2 22
10 22 18 0 21 -54 18 -73 -4z"/>
<path d="M6628 4837 c-15 -23 -45 -69 -68 -102 -22 -33 -39 -67 -38 -75 2 -11
21 -16 63 -20 l60 -5 3 -43 c3 -34 7 -43 20 -40 12 2 18 15 20 42 2 28 9 40
23 43 25 7 25 29 -1 36 -17 4 -20 15 -22 103 -3 116 -17 129 -60 61z m20 -113
c-3 -45 -5 -49 -31 -52 -16 -2 -36 -1 -44 2 -14 6 -14 8 1 24 9 10 16 22 16
26 0 16 45 65 53 57 4 -4 7 -30 5 -57z"/>
<path d="M6915 4870 c-8 -13 -7 -301 1 -309 3 -3 33 -7 67 -9 58 -4 64 -2 91
27 26 27 29 36 28 95 -1 54 -5 69 -26 91 -22 23 -31 26 -73 23 l-48 -3 -5 44
c-5 44 -21 63 -35 41z m134 -136 c58 -73 -20 -202 -83 -138 -22 22 -22 121 1
146 23 26 58 22 82 -8z"/>
<path d="M7157 4874 c-9 -10 2 -24 19 -24 8 0 14 7 14 15 0 15 -21 21 -33 9z"/>
<path d="M710 4825 c0 -14 -7 -28 -15 -31 -8 -4 -15 -12 -15 -19 0 -7 7 -15
15 -19 12 -4 15 -24 15 -94 0 -93 8 -112 46 -112 31 0 41 20 15 27 -12 3 -21
8 -21 12 -7 93 -2 155 13 166 21 15 22 35 2 35 -8 0 -16 6 -16 13 -1 6 -2 19
-3 27 0 8 -9 16 -18 18 -14 3 -18 -3 -18 -23z"/>
<path d="M2307 4843 c-4 -3 -7 -17 -7 -30 0 -12 -4 -23 -10 -23 -14 0 -13 -27
2 -32 7 -3 10 -30 9 -81 -2 -91 14 -127 60 -127 34 0 40 25 9 33 -18 5 -20 14
-20 86 0 73 2 81 22 92 l22 12 -22 15 c-12 8 -22 25 -22 38 0 17 -6 24 -18 24
-10 0 -22 -3 -25 -7z"/>
<path d="M4257 4843 c-4 -3 -7 -17 -7 -30 0 -12 -4 -23 -10 -23 -14 0 -12 -28
2 -32 9 -3 12 -27 10 -81 -4 -91 13 -127 59 -127 34 0 40 25 9 33 -18 5 -20
14 -20 86 0 73 2 81 22 92 l22 12 -22 15 c-12 8 -22 25 -22 38 0 17 -6 24 -18
24 -10 0 -22 -3 -25 -7z"/>
<path d="M7267 4844 c-4 -4 -7 -15 -7 -24 0 -10 -7 -23 -15 -30 -14 -12 -14
-15 0 -30 10 -12 15 -38 15 -88 0 -90 13 -122 52 -122 31 0 37 16 11 35 -12 9
-16 29 -16 85 0 56 4 76 16 85 22 16 21 25 0 41 -10 7 -18 20 -18 30 0 19 -25
30 -38 18z"/>
<path d="M350 4670 c0 -110 2 -121 18 -118 15 3 17 17 17 118 0 101 -2 115
-17 118 -16 3 -18 -8 -18 -118z"/>
<path d="M488 4783 l-38 -4 0 -109 c0 -89 3 -109 16 -114 28 -11 34 4 34 89 0
106 4 115 46 115 44 0 54 -24 54 -125 0 -57 3 -74 16 -79 31 -12 37 5 31 92
-8 130 -30 149 -159 135z"/>
<path d="M847 4759 c-23 -26 -27 -40 -27 -89 0 -49 4 -63 27 -89 23 -26 35
-31 73 -31 48 0 73 17 99 67 23 46 11 103 -32 151 -16 17 -32 22 -67 22 -38 0
-50 -5 -73 -31z m115 -16 c24 -22 25 -118 1 -145 -21 -24 -58 -23 -83 2 -26
26 -28 114 -3 142 20 22 61 23 85 1z"/>
<path d="M2451 4759 c-28 -27 -31 -37 -31 -89 0 -52 3 -62 31 -89 24 -25 39
-31 73 -31 34 0 48 6 74 33 28 29 32 40 32 88 0 49 -4 59 -33 87 -46 45 -102
45 -146 1z m119 -21 c28 -31 28 -104 -2 -135 -48 -51 -108 -14 -108 67 0 81
62 119 110 68z"/>
<path d="M2834 4768 c-57 -65 -58 -133 -1 -195 27 -30 101 -31 135 -4 40 34
19 57 -22 26 -11 -8 -32 -15 -47 -15 -44 0 -59 24 -59 90 0 40 5 64 16 74 20
20 68 21 84 1 14 -17 40 -20 40 -5 0 50 -109 70 -146 28z"/>
<path d="M3051 4759 c-28 -27 -31 -37 -31 -89 0 -52 3 -61 32 -89 25 -25 40
-31 74 -31 35 0 47 5 73 35 26 30 31 44 31 85 0 41 -5 55 -31 85 -27 30 -37
35 -74 35 -35 0 -49 -6 -74 -31z m116 -21 c31 -29 32 -104 3 -136 -48 -51
-113 -10 -112 69 1 79 59 114 109 67z"/>
<path d="M3290 4780 c-13 -8 -15 -209 -2 -222 22 -22 32 5 32 86 0 96 11 119
55 114 l30 -3 3 -95 c3 -96 12 -124 34 -102 7 7 10 37 9 77 -3 82 14 125 49
125 44 0 49 -11 52 -110 3 -81 6 -95 21 -98 15 -3 17 7 17 95 -1 119 -14 143
-79 143 -30 0 -41 -4 -41 -15 0 -20 -24 -19 -40 0 -10 12 -28 15 -72 13 -33
-2 -64 -5 -68 -8z"/>
<path d="M3650 4624 c0 -152 1 -165 18 -162 13 2 18 15 20 48 l3 45 49 -3 c43
-3 52 0 74 23 54 59 55 131 1 189 -18 20 -34 26 -64 26 -22 0 -41 -5 -44 -12
-4 -10 -7 -10 -18 0 -35 33 -39 17 -39 -154z m132 124 c29 -25 42 -74 28 -110
-37 -94 -120 -69 -120 35 0 68 50 108 92 75z"/>
<path d="M4035 4772 c-59 -50 -60 -136 -2 -199 30 -33 108 -32 144 2 24 21 25
25 10 31 -11 4 -25 0 -36 -10 -40 -36 -107 -10 -113 45 -3 23 -1 24 77 29 l80
5 -1 33 c-3 50 -39 82 -94 81 -28 0 -53 -6 -65 -17z m110 -28 c26 -26 12 -39
-48 -42 -45 -2 -57 0 -57 12 0 41 73 62 105 30z"/>
<path d="M4401 4759 c-28 -27 -31 -37 -31 -89 0 -52 3 -62 31 -89 26 -26 38
-31 79 -31 38 0 55 6 74 23 14 13 23 27 19 30 -12 13 -44 7 -49 -8 -4 -10 -19
-15 -43 -15 -30 0 -42 6 -60 31 -36 49 -24 59 74 59 l85 0 0 29 c0 19 -11 39
-32 60 -45 44 -104 44 -147 0z m122 -23 c9 -13 13 -26 10 -30 -10 -10 -123 -7
-123 4 0 5 8 19 17 30 25 29 76 27 96 -4z"/>
<path d="M4777 4769 c-9 -11 -25 -37 -33 -60 -16 -38 -15 -43 2 -82 11 -23 27
-50 37 -59 20 -21 87 -24 105 -6 18 18 16 -23 -4 -50 -18 -26 -81 -31 -90 -7
-8 19 -44 20 -44 2 0 -28 36 -47 85 -47 39 0 54 5 77 27 l28 27 0 138 c0 107
-3 138 -13 138 -7 0 -18 -5 -24 -11 -8 -8 -13 -8 -17 0 -12 19 -89 12 -109
-10z m111 -39 c29 -65 7 -150 -39 -150 -48 0 -64 22 -64 90 0 49 4 64 19 76
34 24 69 18 84 -16z"/>
<path d="M5003 4774 c-2 -6 -2 -57 -1 -115 2 -84 6 -104 18 -104 12 0 16 18
20 80 7 94 21 125 55 125 16 0 25 6 25 15 0 12 -12 14 -56 12 -31 -1 -58 -7
-61 -13z"/>
<path d="M5175 4760 c-25 -26 -28 -37 -28 -90 0 -53 3 -64 28 -90 23 -24 37
-30 73 -30 37 0 48 5 78 36 52 55 47 125 -13 182 -37 34 -101 31 -138 -8z
m100 -6 c20 -8 45 -56 45 -86 0 -40 -36 -88 -66 -88 -41 0 -74 38 -74 86 0 68
43 108 95 88z"/>
<path d="M5411 4781 c-20 -13 -11 -170 13 -205 16 -26 20 -27 93 -23 l77 4 3
110 c4 112 0 129 -31 117 -12 -5 -16 -22 -17 -78 -1 -106 -8 -120 -52 -124
-46 -4 -48 1 -50 114 -2 86 -9 102 -36 85z"/>
<path d="M5658 4783 c-2 -5 -4 -78 -4 -163 1 -139 3 -155 19 -158 13 -3 17 4
17 31 0 59 6 65 56 59 41 -4 48 -2 75 27 25 28 29 40 29 91 0 48 -4 64 -26 89
-20 25 -34 31 -64 31 -22 0 -40 -5 -43 -12 -4 -10 -7 -10 -18 0 -15 13 -36 16
-41 5z m134 -40 c24 -22 25 -118 1 -145 -22 -25 -61 -23 -84 5 -23 27 -25 99
-4 121 8 8 15 19 15 25 0 17 51 13 72 -6z"/>
<path d="M6051 4759 c-28 -27 -31 -37 -31 -89 0 -52 3 -62 31 -89 24 -25 39
-31 73 -31 34 0 48 6 74 33 28 29 32 40 32 88 0 49 -4 59 -33 87 -46 45 -102
45 -146 1z m119 -21 c28 -31 28 -104 -2 -135 -48 -51 -108 -14 -108 67 0 81
62 119 110 68z"/>
<path d="M7156 4782 c-6 -10 -6 -192 0 -214 3 -10 12 -18 20 -18 11 0 14 23
14 120 0 98 -3 120 -14 120 -8 0 -17 -3 -20 -8z"/>
<path d="M7388 4769 c-35 -38 -10 -99 40 -99 11 0 25 -6 29 -14 4 -8 19 -16
32 -18 31 -4 37 -21 16 -42 -20 -20 -65 -21 -91 -1 -24 18 -44 19 -44 2 0 -48
119 -66 159 -23 29 31 26 89 -4 94 -11 2 -27 10 -35 17 -8 7 -28 15 -45 17
-24 2 -30 8 -30 28 0 20 6 26 28 28 17 2 37 -4 48 -13 10 -10 25 -15 34 -11
14 5 14 8 -1 31 -14 22 -23 25 -68 24 -37 0 -56 -6 -68 -20z"/>
<path d="M1280 4753 c1 -15 7 -39 15 -53 8 -14 15 -36 15 -50 0 -14 7 -34 15
-44 8 -11 15 -28 15 -38 0 -10 7 -18 15 -18 17 0 45 61 45 100 0 15 7 33 15
40 18 15 21 74 3 68 -7 -3 -15 -18 -16 -34 -2 -16 -9 -36 -16 -44 -7 -8 -16
-23 -19 -33 -9 -24 -27 -12 -27 17 0 13 -6 29 -14 36 -8 6 -16 25 -18 42 -4
41 -28 50 -28 11z"/>
<path d="M1301 4508 c7 -13 15 -25 18 -28 4 -3 25 -27 46 -55 22 -27 42 -52
45 -55 3 -3 23 -27 45 -55 22 -27 46 -57 55 -66 8 -9 40 -47 70 -84 30 -38 63
-77 73 -87 9 -10 17 -20 17 -22 0 -2 11 -17 24 -32 127 -150 168 -201 167
-211 -1 -4 -124 -10 -273 -13 l-273 -5 0 -460 0 -460 665 -3 c423 -1 668 -6
674 -12 7 -7 6 -14 -2 -22 -7 -7 -12 -17 -12 -24 0 -15 46 -6 61 12 6 8 20 14
30 14 18 0 19 -22 21 -607 2 -397 6 -608 13 -608 7 0 11 211 13 608 2 585 3
607 21 607 10 0 24 -6 30 -14 15 -18 61 -27 61 -12 0 7 -5 17 -11 23 -6 6 -8
16 -5 22 5 8 679 11 2370 11 2089 0 2365 -2 2376 -15 16 -19 35 -19 66 1 16
11 29 13 34 8 6 -6 11 -252 12 -609 2 -392 6 -600 13 -600 7 0 11 209 13 603
2 530 4 603 17 609 9 3 24 -2 34 -11 20 -18 48 -21 53 -5 2 6 19 14 38 18 l35
7 0 459 0 460 -3006 3 -3007 2 -48 57 c-27 31 -58 69 -70 85 -11 15 -38 49
-60 74 -96 115 -111 133 -149 179 -22 27 -56 68 -75 90 -19 23 -60 73 -90 110
-30 38 -63 77 -72 87 -10 10 -18 22 -18 27 0 9 -24 21 -41 21 -6 0 -5 -10 2
-22z m636 -775 c18 -21 32 -45 31 -53 -2 -8 -22 -19 -45 -25 -70 -17 -69 -18
77 -81 19 -9 48 -22 63 -30 16 -8 37 -14 47 -14 16 0 18 6 13 38 -2 20 -11 58
-20 84 -8 26 -13 62 -11 80 l3 33 430 0 430 0 0 -430 0 -430 -53 0 -53 0 -34
60 c-19 33 -34 68 -35 78 0 20 -30 24 -30 3 0 -7 -15 -42 -34 -77 l-34 -64
-669 0 -668 0 -3 420 c-1 231 0 426 3 432 3 10 69 13 281 13 l277 0 34 -37z
m91 10 c-4 -34 -19 -39 -48 -15 -29 23 -19 42 21 42 27 0 30 -3 27 -27z m2577
-408 l0 -430 -805 0 -805 0 -3 420 c-1 231 0 426 3 433 3 10 170 12 807 10
l803 -3 0 -430z m1650 0 l0 -430 -805 0 -805 0 -3 420 c-1 231 0 426 3 433 3
10 170 12 807 10 l803 -3 0 -430z m1650 0 l0 -430 -23 -3 c-13 -2 -29 1 -36 7
-16 13 -84 148 -88 174 -5 27 -22 25 -28 -3 -7 -34 -67 -155 -84 -169 -9 -8
-203 -10 -682 -9 l-669 3 -3 420 c-1 231 0 426 3 433 3 10 170 12 807 10 l803
-3 0 -430z"/>
<path d="M1505 3453 c-84 -84 -39 -271 61 -251 61 11 87 160 41 229 -27 40
-74 51 -102 22z m73 -109 c2 -72 0 -94 -13 -104 -8 -7 -22 -10 -30 -6 -12 4
-15 25 -15 99 0 52 3 97 7 101 4 4 16 6 28 4 18 -3 20 -11 23 -94z"/>
<path d="M1900 3449 c-23 -20 -25 -28 -25 -109 0 -80 2 -91 24 -114 17 -18 35
-26 57 -26 48 0 74 47 74 135 0 88 -26 135 -73 135 -18 -1 -43 -10 -57 -21z
m74 -25 c8 -20 8 -142 0 -171 -7 -24 -20 -28 -44 -13 -18 11 -26 133 -11 173
12 30 45 37 55 11z"/>
<path d="M2291 3436 c-16 -25 -21 -50 -21 -101 0 -88 26 -135 74 -135 22 0 40
8 57 26 21 23 24 35 24 109 0 74 -3 86 -24 109 -37 39 -83 36 -110 -8z m90
-23 c15 -40 7 -162 -11 -173 -24 -15 -37 -11 -44 13 -8 29 -8 151 0 171 10 26
43 19 55 -11z"/>
<path d="M2737 3440 c-14 -16 -30 -30 -36 -30 -6 0 -11 -7 -11 -15 0 -17 25
-20 35 -5 16 26 25 -9 25 -96 0 -86 2 -95 18 -92 15 3 17 17 17 132 0 142 -6
156 -48 106z"/>
<path d="M3151 3444 c-25 -32 -35 -81 -28 -141 13 -117 109 -139 153 -34 49
117 -56 263 -125 175z m84 -40 c19 -46 19 -92 0 -138 -21 -49 -55 -47 -68 4
-9 36 -4 140 8 159 14 24 45 11 60 -25z"/>
<path d="M3594 3442 c-16 -15 -37 -31 -47 -35 -26 -10 -11 -27 24 -27 l29 0 0
-84 c0 -69 3 -85 17 -90 9 -4 20 -3 25 2 14 14 6 254 -8 259 -7 2 -25 -9 -40
-25z"/>
<path d="M3945 3430 c-35 -55 -35 -135 0 -190 20 -32 31 -40 55 -40 18 0 39 9
53 23 20 20 22 32 22 112 0 80 -2 93 -22 113 -14 13 -35 22 -53 22 -24 0 -35
-8 -55 -40z m83 -2 c16 -16 16 -170 0 -186 -35 -35 -68 10 -68 93 0 83 33 128
68 93z"/>
<path d="M4387 3440 c-14 -16 -30 -30 -36 -30 -6 0 -11 -7 -11 -15 0 -17 25
-20 35 -5 16 26 25 -9 25 -96 0 -86 2 -95 18 -92 15 3 17 17 17 132 0 142 -6
156 -48 106z"/>
<path d="M4807 3452 c-67 -74 -37 -252 43 -252 45 0 90 68 90 135 0 96 -84
171 -133 117z m78 -48 c19 -46 19 -92 0 -138 -21 -49 -55 -47 -68 4 -9 36 -4
140 8 159 14 24 45 11 60 -25z"/>
<path d="M5259 3454 c-15 -7 -29 -20 -33 -29 -3 -8 -12 -15 -21 -15 -8 0 -15
-7 -15 -15 0 -10 10 -15 30 -15 l30 0 0 -84 c0 -67 3 -85 16 -90 9 -3 20 -3
25 0 11 6 10 252 0 258 -3 2 -18 -2 -32 -10z"/>
<path d="M5627 3429 c-31 -32 -36 -40 -23 -45 9 -3 23 -1 31 6 8 7 15 9 16 4
0 -5 1 -49 2 -99 2 -77 5 -90 20 -93 15 -3 17 8 17 132 0 154 -2 157 -63 95z"/>
<path d="M6007 3452 c-67 -74 -37 -252 43 -252 45 0 90 68 90 135 0 96 -84
171 -133 117z m78 -48 c19 -46 19 -92 0 -138 -21 -49 -55 -47 -68 4 -9 36 -4
140 8 159 14 24 45 11 60 -25z"/>
<path d="M6487 3440 c-14 -16 -30 -30 -36 -30 -6 0 -11 -7 -11 -15 0 -17 25
-20 35 -5 16 26 25 -9 25 -96 0 -86 2 -95 18 -92 15 3 17 17 17 132 0 142 -6
156 -48 106z"/>
<path d="M6860 3455 c0 -7 -8 -18 -17 -24 -26 -14 -25 -178 0 -193 9 -5 17
-16 17 -23 0 -11 11 -15 38 -15 59 0 82 38 82 135 0 97 -23 135 -82 135 -27 0
-38 -4 -38 -15z m77 -45 c28 -55 9 -171 -29 -178 -33 -6 -48 26 -48 103 0 55
4 78 16 90 22 21 46 15 61 -15z"/>
<path d="M7245 3430 c-19 -30 -25 -53 -25 -95 0 -75 36 -135 80 -135 18 0 39
9 53 23 20 20 22 32 22 112 0 80 -2 93 -22 113 -14 13 -35 22 -53 22 -24 0
-35 -8 -55 -40z m84 -4 c8 -9 11 -44 9 -96 -2 -67 -6 -85 -21 -94 -29 -18 -57
27 -57 95 0 88 35 136 69 95z"/>
<path d="M7687 3440 c-14 -16 -30 -30 -36 -30 -6 0 -11 -7 -11 -15 0 -17 25
-20 35 -5 16 26 25 -9 25 -96 0 -86 2 -95 18 -92 15 3 17 17 17 132 0 142 -6
156 -48 106z"/>
<path d="M2266 1491 c-17 -18 -26 -36 -23 -45 10 -24 26 -19 45 14 13 23 24
30 47 30 47 0 60 -14 60 -65 0 -43 -3 -49 -77 -121 -45 -43 -78 -84 -78 -95 0
-18 7 -20 103 -17 118 3 139 21 30 26 -86 3 -90 12 -29 62 47 37 93 100 103
138 4 17 -3 34 -24 60 -26 32 -36 37 -79 40 -44 3 -53 -1 -78 -27z"/>
<path d="M2630 1355 c0 -153 1 -166 18 -163 14 3 17 16 19 77 3 93 19 131 53
131 49 0 55 -12 58 -115 3 -83 6 -96 20 -93 15 3 17 18 15 100 -1 83 -4 99
-22 117 -24 24 -89 29 -109 9 -12 -12 -14 -5 -16 67 -1 20 -7 31 -18 33 -17 3
-18 -10 -18 -163z"/>
<path d="M3730 1505 c0 -8 9 -15 20 -15 11 0 20 7 20 15 0 8 -9 15 -20 15 -11
0 -20 -7 -20 -15z"/>
<path d="M3950 1505 c0 -10 7 -15 18 -13 21 4 19 22 -2 26 -10 2 -16 -3 -16
-13z"/>
<path d="M6974 1483 c-26 -34 -28 -43 -28 -129 0 -85 2 -95 28 -128 23 -31 32
-36 69 -36 56 0 86 32 102 108 9 45 9 69 -2 116 -17 76 -45 106 -99 106 -36 0
-45 -5 -70 -37z m112 -14 c16 -18 19 -37 19 -114 0 -77 -3 -96 -19 -114 -51
-57 -106 2 -106 114 0 112 55 171 106 114z"/>
<path d="M7335 1508 c-3 -8 -4 -81 -3 -163 3 -125 5 -150 18 -150 12 0 16 17
18 85 3 91 17 120 57 120 36 0 54 -39 57 -126 2 -62 6 -79 18 -79 25 0 26 150
1 195 -18 33 -21 35 -72 35 l-54 0 -5 44 c-5 44 -25 66 -35 39z"/>
<path d="M8425 1510 c-8 -12 20 -24 35 -15 6 3 8 11 5 16 -8 12 -32 12 -40 -1z"/>
<path d="M8657 1514 c-9 -10 2 -24 19 -24 8 0 14 7 14 15 0 15 -21 21 -33 9z"/>
<path d="M2093 1491 c-10 -10 -28 -23 -39 -29 -12 -6 -24 -20 -27 -31 -6 -25
19 -36 31 -14 5 8 15 14 23 11 11 -4 13 -27 10 -113 -3 -110 3 -130 36 -118
20 8 19 313 -2 313 -8 0 -22 -8 -32 -19z"/>
<path d="M7222 1488 c-7 -7 -12 -20 -12 -29 0 -9 -7 -22 -15 -29 -14 -12 -14
-15 0 -30 11 -12 15 -39 15 -94 0 -89 11 -116 45 -116 32 0 40 16 15 30 -17 9
-20 21 -20 91 0 62 3 81 15 85 8 4 15 12 15 19 0 7 -7 15 -15 19 -8 3 -15 16
-15 30 0 29 -12 40 -28 24z"/>
<path d="M2510 1465 c0 -14 -7 -28 -15 -31 -19 -8 -19 -30 0 -37 11 -5 15 -29
17 -104 l3 -98 29 -3 c37 -5 60 16 28 24 -12 4 -22 9 -22 13 -1 13 -2 146 -1
159 1 6 8 12 16 12 8 0 15 7 15 15 0 8 -7 15 -15 15 -8 0 -16 6 -16 13 -1 6
-2 19 -3 27 0 8 -9 16 -18 18 -14 3 -18 -3 -18 -23z"/>
<path d="M3837 1483 c-4 -3 -7 -14 -7 -23 0 -10 -7 -23 -15 -30 -14 -12 -14
-15 0 -30 11 -12 15 -39 15 -97 0 -86 14 -113 58 -113 32 0 36 18 8 32 -25 11
-26 15 -26 89 0 69 2 78 20 84 11 3 20 12 20 20 0 8 -9 17 -20 20 -13 4 -20
15 -20 31 0 23 -18 32 -33 17z"/>
<path d="M8536 1481 c-4 -5 -3 -16 0 -25 4 -10 0 -18 -10 -22 -19 -7 -21 -31
-4 -36 9 -3 12 -27 10 -79 -4 -92 8 -129 42 -129 33 0 42 16 16 30 -17 9 -20
21 -20 89 0 70 2 80 22 93 l22 15 -22 12 c-14 7 -22 21 -22 36 0 25 -23 35
-34 16z"/>
<path d="M3033 1423 l-33 -4 0 -154 c0 -130 2 -154 16 -159 21 -8 35 2 33 22
-5 56 -1 62 45 62 36 0 50 6 75 31 28 27 31 37 31 92 0 52 -4 65 -27 89 -27
29 -50 32 -140 21z m116 -57 c12 -18 21 -44 21 -56 0 -12 -9 -38 -21 -56 -23
-38 -57 -45 -83 -18 -22 22 -22 121 1 146 26 29 59 23 82 -16z"/>
<path d="M3267 1388 c-41 -63 -35 -119 16 -175 31 -34 103 -32 137 4 22 22 25
35 25 93 0 58 -3 71 -25 93 -20 22 -34 27 -75 27 -48 0 -52 -2 -78 -42z m118
-4 c22 -14 25 -24 25 -75 0 -48 -4 -60 -22 -73 -29 -21 -57 -20 -80 1 -13 12
-18 31 -18 74 0 83 36 111 95 73z"/>
<path d="M3511 1406 c-17 -18 -21 -30 -16 -48 11 -34 25 -48 50 -48 12 0 28
-7 35 -15 7 -8 21 -15 31 -15 24 0 32 -16 19 -40 -13 -25 -87 -29 -96 -5 -7
18 -30 20 -40 4 -12 -21 38 -49 88 -49 36 0 53 6 72 24 55 50 15 107 -89 126
-24 4 -30 10 -30 30 0 22 5 25 38 28 26 2 39 -1 43 -12 3 -9 12 -16 19 -16 23
0 28 20 9 41 -26 29 -103 26 -133 -5z"/>
<path d="M3735 1418 c-3 -8 -4 -61 -3 -119 2 -84 6 -104 18 -104 12 0 15 19
15 114 0 83 -3 115 -12 118 -7 3 -15 -2 -18 -9z"/>
<path d="M3950 1310 c0 -110 2 -121 18 -118 15 3 17 17 17 118 0 101 -2 115
-17 118 -16 3 -18 -8 -18 -118z"/>
<path d="M4071 1395 c-26 -30 -31 -44 -31 -85 0 -41 5 -55 31 -85 27 -30 37
-35 74 -35 35 0 49 6 74 31 28 27 31 37 31 89 0 52 -3 62 -31 89 -25 25 -39
31 -74 31 -37 0 -47 -5 -74 -35z m123 -20 c36 -55 9 -155 -42 -155 -42 0 -72
36 -72 87 0 60 23 93 65 93 24 0 37 -7 49 -25z"/>
<path d="M4306 1418 c-2 -7 -3 -60 -2 -118 1 -91 3 -105 19 -108 15 -3 17 6
17 73 0 95 18 135 59 135 45 0 55 -22 55 -118 1 -74 3 -87 19 -90 15 -3 17 6
17 95 -1 81 -4 102 -19 121 -25 28 -95 32 -106 5 -6 -17 -7 -17 -16 0 -12 20
-38 23 -43 5z"/>
<path d="M7700 1264 c0 -152 1 -165 18 -162 13 2 18 15 20 48 l3 45 49 -3 c55
-4 81 14 106 74 18 44 4 108 -33 141 -27 26 -98 32 -106 11 -4 -10 -7 -10 -18
0 -35 33 -39 17 -39 -154z m129 127 c10 -6 23 -27 30 -48 27 -83 -53 -164
-101 -101 -25 33 -24 108 2 136 22 24 41 27 69 13z"/>
<path d="M7971 1395 c-26 -30 -31 -44 -31 -85 0 -41 5 -55 31 -85 27 -30 37
-35 74 -35 35 0 49 6 74 31 28 27 31 37 31 89 0 52 -3 62 -31 89 -25 25 -39
31 -74 31 -37 0 -47 -5 -74 -35z m123 -21 c22 -33 23 -94 1 -128 -22 -33 -66
-35 -95 -4 -25 27 -27 98 -4 133 23 35 75 35 98 -1z"/>
<path d="M8218 1413 c-27 -32 -29 -42 -13 -73 11 -20 23 -30 39 -30 13 0 29
-7 36 -15 7 -8 21 -15 31 -15 24 0 32 -16 19 -40 -13 -25 -66 -27 -91 -4 -10
9 -25 14 -34 10 -14 -5 -14 -8 2 -31 15 -20 26 -24 69 -25 41 0 56 5 78 25 53
49 19 102 -84 125 -18 4 -25 12 -25 30 0 21 5 26 31 28 19 2 36 -3 44 -12 15
-20 40 -21 40 -3 0 44 -110 66 -142 30z"/>
<path d="M8425 1420 c-8 -14 -3 -220 6 -225 4 -3 14 -2 23 1 24 9 24 219 0
228 -21 8 -22 8 -29 -4z"/>
<path d="M8656 1414 c-3 -9 -6 -55 -6 -104 0 -97 5 -120 26 -120 11 0 14 24
14 120 0 96 -3 120 -14 120 -8 0 -17 -7 -20 -16z"/>
<path d="M8770 1401 c-21 -22 -25 -35 -25 -93 0 -60 3 -69 28 -92 21 -20 38
-26 73 -26 50 0 77 20 100 76 18 43 6 99 -31 138 -20 21 -32 26 -72 25 -38 -1
-53 -7 -73 -28z m106 -9 c19 -12 34 -49 34 -82 0 -79 -57 -115 -107 -68 -47
44 -21 157 37 158 14 0 30 -4 36 -8z"/>
<path d="M9038 1423 l-38 -4 0 -109 c0 -89 3 -109 16 -114 28 -11 34 4 34 89
0 106 4 115 46 115 44 0 54 -24 54 -125 0 -57 3 -74 16 -79 31 -12 37 5 31 92
-8 130 -30 149 -159 135z"/>
<path d="M2060 958 c-6 -13 -14 -30 -18 -38 -35 -63 -42 -87 -42 -150 0 -63 7
-87 42 -150 4 -8 12 -25 18 -37 5 -13 14 -23 19 -23 20 0 20 18 1 43 -11 14
-20 37 -20 50 0 14 -4 29 -10 32 -5 3 -10 39 -10 78 0 72 17 137 45 181 14 22
12 36 -7 36 -5 0 -13 -10 -18 -22z"/>
<path d="M2154 967 c-2 -7 -3 -80 -2 -162 3 -125 5 -150 18 -150 12 0 16 24
20 130 3 72 7 119 8 107 1 -14 10 -26 22 -29 16 -4 20 -14 20 -43 0 -21 7 -43
15 -50 8 -7 15 -23 15 -37 0 -32 28 -85 43 -80 6 2 15 19 20 38 5 19 13 38 18
44 5 5 9 23 9 41 0 17 7 37 15 44 18 15 21 74 3 68 -7 -3 -14 -18 -16 -36 -2
-17 -10 -36 -18 -42 -8 -7 -14 -28 -14 -46 0 -19 -5 -34 -10 -34 -15 0 -50 61
-50 86 0 12 -7 27 -15 34 -8 7 -15 25 -15 41 0 15 -5 31 -11 34 -5 4 -14 18
-19 31 -10 26 -47 33 -56 11z"/>
<path d="M2405 954 c-16 -25 -16 -29 -1 -55 12 -21 16 -54 16 -139 0 -101 2
-111 18 -108 15 3 17 19 17 163 0 139 -2 160 -16 163 -9 2 -24 -9 -34 -24z"/>
<path d="M2557 949 c-15 -17 -27 -42 -27 -56 0 -31 17 -63 34 -63 8 0 19 -7
26 -15 7 -9 29 -15 52 -15 28 0 46 -7 63 -25 29 -28 31 -42 9 -73 -12 -17 -25
-22 -63 -22 -40 0 -53 5 -79 30 -18 17 -36 30 -41 30 -23 0 -18 -20 13 -54 33
-34 38 -36 100 -36 52 0 70 4 85 19 48 48 52 86 15 130 -17 21 -35 31 -54 31
-15 0 -33 7 -40 15 -7 8 -22 15 -34 15 -43 0 -61 44 -30 74 22 23 96 21 117
-2 10 -10 17 -24 17 -31 0 -15 32 -11 37 5 2 6 -9 25 -24 43 -25 28 -33 31
-88 31 -55 0 -63 -3 -88 -31z"/>
<path d="M2834 967 c-2 -7 -3 -80 -2 -162 l3 -150 87 -3 c77 -2 90 0 108 18
29 29 39 110 16 129 -18 15 -21 47 -6 56 19 12 11 73 -14 99 -21 24 -30 26
-105 26 -58 0 -83 -4 -87 -13z m170 -48 c18 -30 18 -32 -1 -58 -18 -22 -27
-26 -74 -26 l-54 0 -3 44 c-5 65 0 71 61 71 48 0 54 -3 71 -31z m4 -131 c7 -7
12 -29 12 -50 0 -47 -22 -60 -93 -56 l-52 3 -3 44 c-2 24 -1 50 2 57 7 18 117
19 134 2z"/>
<path d="M7010 957 c-6 -12 -14 -29 -18 -37 -35 -63 -42 -87 -42 -150 0 -63 7
-87 42 -150 4 -8 12 -25 18 -37 5 -13 14 -23 19 -23 19 0 19 17 0 46 -10 16
-19 39 -19 51 0 12 -4 25 -10 28 -5 3 -10 39 -10 78 0 72 17 137 46 181 13 21
13 24 -1 30 -10 4 -19 -2 -25 -17z"/>
<path d="M7105 968 c-3 -8 -4 -81 -3 -163 l3 -150 98 0 c105 0 138 18 40 23
-110 4 -102 -8 -105 154 -2 102 -6 143 -15 146 -7 2 -15 -3 -18 -10z"/>
<path d="M7387 959 c-29 -32 -38 -66 -25 -94 14 -32 70 -65 111 -65 43 -1 77
-31 77 -67 0 -41 -17 -53 -71 -53 -39 0 -54 6 -81 30 -36 33 -43 36 -54 19 -4
-6 10 -26 30 -45 34 -31 42 -34 102 -34 48 0 66 4 70 15 4 8 11 15 18 15 6 0
17 14 23 31 20 52 -17 119 -66 119 -15 0 -36 6 -47 14 -11 8 -31 16 -44 18
-19 2 -26 10 -28 33 -5 37 19 55 72 55 34 0 44 -5 61 -30 22 -33 52 -36 47 -5
-2 11 -15 30 -28 42 -34 31 -139 32 -167 2z"/>
<path d="M7665 970 c-3 -5 -6 -75 -6 -155 0 -80 3 -150 6 -155 3 -6 46 -10 96
-10 69 0 89 3 89 14 0 8 7 16 14 19 33 13 29 90 -6 139 -10 14 -9 20 5 36 24
26 21 62 -8 95 -22 25 -29 27 -104 27 -44 0 -83 -4 -86 -10z m157 -37 c22 -20
23 -51 2 -81 -14 -20 -23 -23 -67 -20 l-52 3 -3 44 c-2 24 -1 50 2 57 8 20 95
18 118 -3z m12 -149 c21 -20 20 -68 0 -89 -12 -12 -31 -15 -73 -13 l-56 3 -3
44 c-2 24 -1 50 2 57 8 20 110 19 130 -2z"/>
<path d="M3130 961 c0 -4 8 -19 18 -32 51 -66 50 -252 -1 -321 -15 -21 -18
-31 -10 -39 13 -13 33 -4 33 15 0 8 7 19 15 26 8 7 15 20 15 29 0 9 7 29 15
45 20 37 19 144 0 170 -8 11 -15 28 -15 38 0 24 -40 78 -57 78 -7 0 -13 -4
-13 -9z"/>
<path d="M7963 948 c7 -13 17 -30 22 -38 5 -8 15 -40 22 -70 13 -59 1 -180
-21 -210 -6 -8 -17 -25 -24 -37 -11 -21 -10 -23 8 -23 12 0 25 10 30 23 6 12
14 29 19 37 54 95 48 219 -17 308 -29 38 -58 46 -39 10z"/>
</g>
</svg>
