<?xml version="1.0" standalone="no"?>
<!DOCTYPE svg PUBLIC "-//W3C//DTD SVG 20010904//EN"
 "http://www.w3.org/TR/2001/REC-SVG-20010904/DTD/svg10.dtd">
<svg version="1.0" xmlns="http://www.w3.org/2000/svg"
 width="1350.000000pt" height="522.000000pt" viewBox="0 0 1350.000000 522.000000"
 preserveAspectRatio="xMidYMid meet">
<metadata>
Created by potrace 1.10, written by Peter Selinger 2001-2011
</metadata>
<g transform="translate(0.000000,522.000000) scale(0.100000,-0.100000)"
fill="#000000" stroke="none">
<path d="M4213 4610 c-22 -9 -23 -14 -23 -138 0 -157 3 -162 102 -162 54 0 68
4 86 23 30 32 38 79 18 117 -11 23 -13 37 -6 50 16 30 12 69 -10 92 -16 17
-34 23 -83 25 -34 2 -72 -2 -84 -7z m129 -53 c16 -26 9 -56 -16 -63 -49 -12
-71 -2 -74 35 -2 20 2 37 10 43 17 11 70 2 80 -15z m6 -119 c38 -38 -6 -85
-65 -69 -28 7 -41 36 -29 67 7 17 77 19 94 2z"/>
<path d="M4457 4613 c-12 -12 -7 -31 10 -37 19 -8 48 17 39 33 -8 12 -39 15
-49 4z"/>
<path d="M6700 4610 c-24 -15 8 -40 51 -40 l38 0 3 -127 c3 -120 4 -128 23
-128 19 0 20 8 23 128 l3 127 27 0 c38 0 73 26 53 39 -18 11 -203 12 -221 1z"/>
<path d="M8611 4604 c-64 -45 -70 -200 -11 -264 79 -84 178 22 155 163 -7 39
-36 93 -60 109 -18 13 -60 9 -84 -8z m84 -64 c31 -60 8 -170 -35 -170 -43 0
-64 97 -36 165 19 45 49 47 71 5z"/>
<path d="M10777 4607 c-10 -7 -16 -22 -15 -37 3 -21 -2 -25 -42 -32 -61 -11
-79 -37 -80 -111 0 -51 4 -62 29 -88 29 -29 83 -40 95 -20 3 4 16 6 30 4 l24
-5 4 139 c5 157 -2 182 -45 150z m-13 -149 c14 -40 -3 -82 -34 -86 -42 -6 -65
51 -39 99 16 30 61 22 73 -13z"/>
<path d="M6950 4608 c-1 -2 -1 -65 -2 -141 -2 -151 7 -182 41 -140 14 17 17
33 13 71 -5 60 10 94 41 90 20 -3 22 -10 27 -83 5 -77 6 -80 30 -80 22 0 25 5
28 43 2 24 -2 68 -8 98 -13 59 -30 74 -91 74 -27 0 -29 3 -29 35 0 31 -3 35
-25 35 -14 0 -25 -1 -25 -2z"/>
<path d="M7902 4590 c-27 -23 -47 -79 -32 -94 6 -6 10 -42 10 -81 0 -78 15
-105 58 -105 26 0 30 34 7 64 -20 26 -19 100 0 116 13 10 18 6 35 -31 11 -24
20 -54 20 -66 0 -64 54 -100 66 -45 10 45 31 96 41 99 6 2 13 -20 16 -49 12
-100 57 -104 77 -6 7 34 19 73 27 86 19 31 10 54 -19 50 -19 -2 -24 -11 -28
-47 -8 -74 -35 -58 -55 32 -10 46 -37 30 -56 -33 -9 -30 -21 -56 -26 -57 -6
-2 -14 16 -17 41 -8 49 -19 62 -56 68 -19 2 -26 10 -28 33 -5 41 -13 47 -40
25z"/>
<path d="M8773 4569 c3 -23 11 -47 17 -53 16 -16 40 20 40 61 0 30 -3 33 -31
33 -31 0 -32 -1 -26 -41z"/>
<path d="M10128 4573 c-3 -36 -5 -38 -35 -35 -24 2 -39 -3 -58 -22 -21 -21
-25 -34 -25 -85 0 -50 4 -65 27 -91 23 -28 31 -31 62 -26 20 4 45 7 56 8 11 1
23 7 27 12 4 6 8 71 8 144 l0 132 -29 0 c-27 0 -30 -3 -33 -37z m3 -110 c12
-33 3 -80 -19 -92 -10 -5 -25 -5 -39 2 -19 8 -23 18 -23 52 0 46 13 65 47 65
16 0 27 -8 34 -27z"/>
<path d="M10338 4573 c-3 -36 -4 -37 -42 -39 -54 -1 -75 -32 -76 -106 0 -47 5
-62 27 -88 23 -28 30 -31 62 -26 20 4 46 7 58 7 29 1 31 11 35 159 l3 125 -32
3 c-30 3 -32 1 -35 -35z m2 -109 c15 -37 12 -59 -9 -85 -18 -22 -19 -22 -45
-6 -20 14 -26 25 -26 55 0 44 14 62 47 62 16 0 27 -8 33 -26z"/>
<path d="M5204 4532 c-12 -10 -24 -34 -27 -56 -4 -21 -8 -41 -11 -44 -11 -10
-34 20 -40 53 -8 42 -30 55 -88 55 -69 0 -77 -11 -79 -113 -2 -91 6 -115 37
-103 14 5 16 16 12 64 -7 77 4 104 39 100 22 -2 31 -12 46 -53 11 -27 22 -67
24 -89 5 -33 1 -41 -22 -61 -33 -26 -26 -45 15 -45 34 0 64 36 75 90 10 49 46
150 56 156 13 7 11 28 -3 47 -12 15 -14 15 -34 -1z"/>
<path d="M7224 4535 c-46 -19 -64 -51 -64 -111 0 -43 5 -57 29 -83 35 -38 92
-42 130 -11 32 27 21 55 -17 45 -63 -16 -112 4 -99 39 5 12 21 16 72 16 65 0
70 3 65 40 -3 20 -29 49 -60 65 -21 11 -31 11 -56 0z m71 -55 c7 -11 -35 -23
-61 -18 -9 1 -19 9 -22 16 -5 15 74 17 83 2z"/>
<path d="M7609 4533 c-35 -21 -51 -49 -59 -101 -7 -41 -5 -46 31 -83 31 -32
44 -39 76 -39 47 0 89 30 79 55 -5 14 -13 16 -39 10 -48 -11 -70 -8 -84 12
-22 29 -9 38 60 39 37 0 70 4 74 7 12 13 -12 70 -37 87 -37 27 -72 31 -101 13z
m79 -55 c-3 -7 -20 -13 -38 -13 -18 0 -35 6 -37 13 -3 8 8 12 37 12 29 0 40
-4 38 -12z"/>
<path d="M8308 4535 c-96 -53 -66 -224 40 -225 35 0 62 21 86 69 24 45 20 75
-17 123 -37 48 -66 57 -109 33z m72 -64 c14 -26 13 -74 -2 -89 -17 -17 -65
-15 -72 4 -10 26 -7 79 6 92 18 18 56 14 68 -7z"/>
<path d="M8908 4542 c-17 -2 -36 -15 -49 -33 -19 -27 -20 -34 -9 -54 7 -13 25
-27 39 -30 14 -3 37 -15 51 -25 21 -17 23 -21 10 -30 -8 -6 -24 -8 -35 -4 -54
16 -65 16 -71 0 -9 -24 34 -55 78 -56 48 0 98 40 98 80 0 23 -7 32 -42 48 -24
11 -51 22 -60 25 -10 4 -18 12 -18 18 0 8 15 10 51 5 48 -7 50 -6 47 15 -4 26
-49 47 -90 41z"/>
<path d="M9200 4543 c-26 -10 -50 -36 -50 -56 0 -16 4 -18 23 -12 44 14 85 17
91 6 4 -6 -1 -14 -11 -17 -40 -14 -108 -48 -116 -58 -11 -17 2 -57 26 -77 24
-20 82 -25 92 -9 4 6 19 9 33 8 27 -3 27 -3 30 72 4 88 -2 116 -26 128 -24 13
-74 21 -92 15z m68 -137 c4 -19 -21 -46 -42 -46 -6 0 -18 4 -26 10 -12 7 -10
13 10 34 29 28 53 29 58 2z"/>
<path d="M9825 4528 c-14 -11 -25 -29 -25 -40 0 -17 4 -19 23 -13 12 4 39 9
60 12 29 4 37 2 37 -11 0 -10 -9 -16 -24 -16 -13 0 -29 -7 -36 -15 -7 -8 -20
-15 -29 -15 -45 0 -55 -63 -17 -99 20 -19 31 -22 58 -16 18 3 49 7 68 9 l35 2
-2 89 c-3 103 -13 120 -80 128 -33 4 -49 0 -68 -15z m97 -123 c-8 -41 -39 -56
-72 -35 -13 8 -10 14 15 35 35 29 62 28 57 0z"/>
<path d="M4464 4528 c-12 -19 -13 -180 -2 -201 7 -15 12 -16 24 -6 20 16 20
192 0 208 -11 9 -16 9 -22 -1z"/>
<path d="M4585 4533 c-16 -3 -34 -8 -39 -13 -5 -5 -10 -47 -11 -94 -1 -71 1
-89 16 -102 16 -14 18 -14 28 4 6 10 8 35 4 55 -9 55 4 107 27 107 45 0 50 -9
50 -86 0 -59 3 -76 16 -81 26 -10 33 17 31 105 -4 108 -17 120 -122 105z"/>
<path d="M4768 4529 c-10 -5 -18 -19 -18 -31 0 -18 4 -20 33 -13 42 10 68 8
80 -4 7 -7 4 -12 -9 -17 -33 -10 -88 -38 -106 -53 -24 -19 -23 -36 4 -71 16
-23 30 -30 54 -30 18 0 36 5 39 11 4 6 19 7 36 4 33 -7 31 -14 29 105 -1 63
-4 78 -21 93 -23 19 -93 23 -121 6z m99 -114 c7 -19 -24 -55 -47 -55 -9 0 -21
5 -28 12 -9 9 -6 17 15 35 33 26 51 29 60 8z"/>
<path d="M7392 4524 c-28 -19 -31 -82 -4 -90 38 -12 102 -46 102 -54 0 -16
-40 -21 -76 -10 -30 10 -38 10 -45 -1 -6 -10 -1 -21 17 -36 53 -48 144 -16
144 50 0 20 -9 33 -38 51 -21 13 -46 25 -56 27 -33 7 -10 24 33 24 29 0 46 5
49 14 12 37 -83 56 -126 25z"/>
<path d="M9378 4530 c-23 -14 -24 -183 -1 -205 24 -25 33 -7 33 68 0 79 5 93
35 98 12 3 20 12 20 24 0 16 -8 21 -35 22 -19 2 -43 -2 -52 -7z"/>
<path d="M9517 4516 c-14 -13 -31 -41 -37 -63 -10 -34 -10 -45 4 -72 39 -74
98 -93 157 -50 44 31 32 44 -42 44 -62 0 -64 1 -64 25 0 24 3 25 63 26 78 1
88 10 66 57 -28 60 -101 76 -147 33z m98 -41 c0 -12 -50 -19 -71 -11 -9 3 -12
11 -9 16 8 14 80 9 80 -5z"/>
<path d="M10460 4511 c-26 -25 -30 -35 -30 -84 0 -47 4 -59 29 -86 23 -24 37
-31 68 -31 53 1 104 46 73 65 -5 3 -28 0 -50 -6 -39 -12 -43 -11 -67 13 -14
14 -22 31 -19 37 4 6 37 11 77 11 69 0 69 0 69 28 -1 75 -93 108 -150 53z m97
-35 c-5 -15 -52 -20 -74 -7 -16 9 -16 10 6 19 30 11 73 3 68 -12z"/>
<path d="M448 4470 c-29 -25 -38 -40 -38 -65 0 -27 7 -37 40 -59 22 -14 48
-26 59 -26 37 0 71 -22 71 -46 0 -51 -74 -59 -119 -13 -34 34 -54 34 -59 1 -2
-15 9 -30 40 -52 37 -27 49 -31 87 -27 60 7 96 43 95 97 -2 52 -14 65 -82 86
-70 21 -76 26 -68 58 9 36 60 36 88 0 13 -15 28 -24 41 -22 31 5 31 23 0 58
-22 24 -39 33 -73 37 -40 4 -49 1 -82 -27z"/>
<path d="M671 4491 c-21 -14 -5 -43 21 -39 15 2 23 10 23 23 0 22 -22 30 -44
16z"/>
<path d="M1630 4493 c-29 -11 -53 -46 -63 -92 -12 -57 -12 -65 0 -122 11 -53
41 -87 83 -95 56 -12 110 71 110 168 0 20 -4 40 -10 43 -5 3 -10 15 -10 26 0
11 -13 34 -29 50 -28 28 -49 34 -81 22z m66 -101 c11 -55 -1 -131 -22 -147
-17 -12 -21 -11 -39 6 -28 27 -29 147 -1 177 15 17 21 19 37 9 10 -6 22 -27
25 -45z"/>
<path d="M2684 4490 c-28 -11 -64 -58 -64 -83 0 -31 63 -83 109 -91 51 -8 71
-38 45 -67 -24 -26 -64 -24 -97 7 -27 25 -57 29 -64 9 -2 -6 10 -25 27 -43 23
-26 40 -34 79 -39 47 -5 51 -4 85 32 63 65 42 120 -59 154 -71 23 -89 43 -60
65 29 22 58 19 85 -9 38 -41 78 -32 55 12 -27 51 -88 75 -141 53z"/>
<path d="M2940 4493 c-24 -3 -50 -9 -56 -14 -17 -14 -15 -266 1 -279 7 -6 44
-11 82 -12 65 -2 72 0 96 26 32 34 37 95 11 121 -13 12 -14 19 -5 28 20 20 13
81 -11 105 -27 24 -56 30 -118 25z m79 -67 c21 -38 -1 -68 -47 -64 -32 3 -37
7 -40 31 -5 44 4 57 41 57 25 0 37 -6 46 -24z m2 -116 c45 -24 5 -84 -53 -78
-28 3 -33 7 -36 31 -2 16 -1 35 2 43 6 16 59 19 87 4z"/>
<path d="M1167 4483 c-3 -5 -2 -70 0 -145 5 -107 9 -138 20 -142 28 -11 32 5
32 115 0 60 3 114 6 120 4 5 4 21 1 35 -5 17 -13 24 -31 24 -13 0 -26 -3 -28
-7z"/>
<path d="M2307 4483 c-4 -3 -7 -71 -7 -150 l0 -144 28 3 c27 3 27 4 30 86 3
102 19 104 42 6 23 -98 33 -110 64 -78 9 8 16 32 16 52 1 20 7 48 15 62 8 14
14 35 15 48 0 12 5 22 10 22 11 0 12 -8 14 -120 1 -68 3 -75 21 -75 19 0 20 7
21 143 2 115 -1 144 -12 149 -8 3 -21 0 -29 -7 -16 -13 -55 -90 -55 -109 0
-21 -33 -71 -47 -71 -8 0 -13 12 -13 29 0 16 -6 42 -14 58 -8 15 -22 45 -32
66 -18 35 -48 49 -67 30z"/>
<path d="M2113 4458 c-19 -23 -26 -78 -13 -94 9 -9 11 -33 7 -70 -7 -66 3 -99
33 -107 44 -11 63 11 36 42 -7 9 -16 42 -20 73 -5 48 -3 59 11 67 14 8 15 13
6 33 -7 12 -13 32 -15 43 -4 23 -31 31 -45 13z"/>
<path d="M680 4400 c-10 -6 -13 -32 -12 -99 1 -97 5 -111 28 -111 11 0 14 20
14 104 0 106 -5 122 -30 106z"/>
<path d="M765 4400 c-13 -5 -17 -22 -18 -96 -1 -98 4 -114 34 -114 17 0 19 8
19 78 0 91 8 107 44 98 28 -7 28 -7 30 -106 1 -58 3 -65 21 -65 18 0 20 8 23
84 4 113 -8 132 -83 129 -29 -1 -61 -5 -70 -8z"/>
<path d="M994 4402 c-26 -18 -44 -60 -44 -102 0 -39 5 -51 33 -78 21 -20 43
-32 60 -32 17 0 27 -5 27 -15 0 -18 -31 -19 -77 -3 -39 14 -50 6 -35 -27 10
-23 17 -25 70 -25 50 0 62 4 81 25 20 24 21 34 19 142 l-3 117 -60 3 c-33 1
-65 0 -71 -5z m80 -54 c32 -45 10 -118 -34 -118 -21 0 -50 41 -50 70 0 30 29
70 51 70 10 0 25 -10 33 -22z"/>
<path d="M1294 4402 c-49 -34 -59 -125 -19 -178 35 -46 83 -54 130 -23 58 39
35 73 -29 43 -31 -15 -35 -15 -60 1 -14 10 -26 26 -26 36 0 16 10 19 73 21
l72 3 -1 33 c-2 43 -37 71 -89 72 -22 0 -45 -4 -51 -8z m81 -47 c0 -5 -15 -11
-32 -13 -25 -3 -33 1 -33 13 0 12 8 16 33 13 17 -2 32 -7 32 -13z"/>
<path d="M1895 4384 c-23 -36 -6 -53 29 -30 14 9 37 16 51 16 43 0 28 -26 -27
-47 -34 -13 -58 -30 -68 -46 -13 -24 -13 -28 6 -54 16 -22 31 -29 63 -31 23
-2 48 2 56 8 9 8 15 8 20 0 3 -5 13 -10 21 -10 11 0 14 17 14 81 0 77 -10 115
-34 131 -6 4 -34 8 -62 8 -45 0 -54 -4 -69 -26z m101 -128 c-18 -28 -47 -32
-62 -11 -11 15 -9 21 19 40 29 20 33 21 44 7 10 -13 10 -20 -1 -36z"/>
<path d="M4614 4155 c-8 -21 4 -35 31 -35 24 0 35 16 28 38 -6 17 -52 15 -59
-3z"/>
<path d="M6714 4155 c-9 -22 9 -37 37 -33 16 2 24 10 24 23 0 26 -52 35 -61
10z"/>
<path d="M7453 4159 c-22 -8 -23 -13 -23 -137 0 -87 4 -133 13 -144 12 -15
136 -31 165 -21 16 6 15 28 -2 46 -11 11 -26 13 -56 7 -57 -10 -64 6 -56 135
7 112 0 130 -41 114z"/>
<path d="M7697 4152 c-35 -24 -56 -52 -57 -75 0 -28 56 -75 98 -83 45 -8 82
-30 82 -48 0 -40 -77 -52 -113 -18 -24 23 -61 29 -72 12 -3 -5 10 -25 30 -45
33 -31 42 -35 91 -35 47 0 59 4 80 27 58 62 37 118 -58 153 -70 25 -81 36 -67
62 14 27 61 23 92 -8 27 -27 57 -27 57 -1 0 8 -12 27 -26 42 -34 36 -97 44
-137 17z"/>
<path d="M7950 4163 c-19 -3 -38 -9 -42 -15 -5 -9 -5 -72 2 -275 0 -9 23 -13
79 -13 79 0 80 0 105 33 29 37 33 72 11 100 -9 13 -12 35 -8 71 5 47 3 55 -21
79 -27 27 -42 30 -126 20z m95 -59 c9 -9 15 -26 13 -38 -3 -18 -11 -21 -55
-24 l-53 -3 0 40 c0 41 0 41 39 41 23 0 46 -7 56 -16z m3 -120 c8 -2 12 -16
10 -36 -2 -27 -8 -33 -36 -40 -46 -12 -72 4 -72 47 0 42 29 51 98 29z"/>
<path d="M11637 4158 c-25 -20 -49 -99 -34 -117 7 -9 12 -47 12 -95 0 -80 0
-81 25 -81 25 0 25 1 25 82 0 68 3 85 18 96 17 12 17 14 3 26 -24 20 -19 46
11 60 27 12 27 13 8 27 -23 17 -46 18 -68 2z"/>
<path d="M11831 4138 c-34 -36 -39 -63 -15 -72 10 -4 26 5 44 24 32 35 56 38
65 10 9 -29 -4 -60 -25 -60 -43 0 -34 -45 11 -54 22 -4 29 -11 29 -29 0 -50
-43 -62 -80 -22 -26 27 -40 31 -57 14 -30 -30 40 -94 100 -93 31 1 44 8 67 35
34 40 38 77 10 112 -17 22 -18 26 -5 37 25 20 17 56 -20 94 -46 47 -82 48
-124 4z"/>
<path d="M12335 4160 c-8 -13 13 -40 30 -40 15 0 28 27 19 41 -7 12 -41 11
-49 -1z"/>
<path d="M9595 4151 c-3 -6 -1 -45 4 -87 6 -41 8 -99 5 -128 -5 -41 -3 -54 10
-65 10 -9 20 -10 25 -5 5 5 11 72 12 149 l4 140 -27 3 c-14 2 -29 -2 -33 -7z"/>
<path d="M12119 4143 c-3 -97 4 -260 11 -267 5 -5 34 -11 64 -14 58 -5 80 7
105 55 25 48 4 142 -34 157 -9 3 -32 6 -51 6 -33 0 -34 1 -34 40 0 38 -2 40
-30 40 -22 0 -30 -5 -31 -17z m129 -115 c17 -17 15 -93 -3 -108 -22 -19 -64
-4 -71 25 -16 65 35 122 74 83z"/>
<path d="M4932 4133 c-25 -20 -27 -44 -14 -168 10 -96 14 -105 52 -105 36 0
49 19 25 36 -28 21 -34 118 -9 146 14 15 16 22 7 25 -7 3 -13 15 -13 27 0 12
-6 30 -13 40 -12 17 -14 17 -35 -1z"/>
<path d="M7028 4128 c-21 -17 -29 -67 -15 -93 5 -11 9 -45 8 -77 -3 -72 10
-98 49 -98 33 0 38 14 15 44 -18 23 -21 136 -4 136 10 0 7 31 -7 83 -6 20 -24
22 -46 5z"/>
<path d="M8267 4133 c-4 -3 -7 -15 -7 -25 0 -10 -6 -27 -12 -38 -11 -17 -10
-22 2 -30 11 -7 14 -25 12 -74 -4 -80 8 -106 48 -106 33 0 37 12 15 50 -17 29
-20 111 -5 126 6 6 7 30 4 57 -6 40 -10 47 -29 47 -12 0 -25 -3 -28 -7z"/>
<path d="M9906 4125 c-18 -18 -22 -80 -6 -90 7 -4 8 -29 4 -66 -8 -75 6 -109
48 -109 31 0 36 16 13 46 -20 27 -19 113 1 136 12 12 14 21 6 30 -5 7 -12 24
-14 38 -4 30 -29 37 -52 15z"/>
<path d="M12434 4123 c-3 -10 -10 -29 -15 -42 -7 -16 -6 -28 3 -38 8 -10 11
-39 10 -79 -4 -74 9 -104 43 -104 31 0 37 11 21 41 -7 14 -16 49 -20 77 -5 42
-4 53 9 58 17 7 19 26 6 52 -5 9 -12 25 -15 35 -3 9 -12 17 -21 17 -9 0 -18
-8 -21 -17z"/>
<path d="M4197 4073 c-4 -3 -7 -66 -7 -140 0 -114 2 -135 16 -140 24 -9 49 10
49 38 0 20 6 25 35 27 55 5 80 41 80 116 0 91 -14 106 -99 106 -37 0 -71 -3
-74 -7z m132 -65 c18 -32 7 -73 -25 -95 -19 -12 -24 -12 -38 2 -19 20 -22 95
-4 113 19 19 51 10 67 -20z"/>
<path d="M4425 4053 c-27 -30 -41 -79 -31 -110 3 -10 19 -33 35 -50 23 -27 36
-33 68 -33 26 0 46 6 57 19 39 43 42 140 4 180 -30 33 -100 29 -133 -6z m96
-23 c14 -8 19 -21 19 -56 0 -37 -4 -46 -24 -56 -53 -23 -90 31 -62 89 16 34
34 40 67 23z"/>
<path d="M4629 4070 c-11 -6 -14 -29 -13 -98 1 -93 6 -112 29 -112 20 0 25 24
25 120 0 90 -8 108 -41 90z"/>
<path d="M4705 4071 c-3 -2 -5 -49 -5 -103 0 -82 3 -100 16 -105 27 -10 44 23
37 76 -7 62 10 103 40 99 20 -3 22 -9 27 -88 5 -83 6 -85 30 -85 24 0 25 3 28
70 2 51 -2 79 -15 105 -18 35 -18 35 -86 35 -37 1 -70 -1 -72 -4z"/>
<path d="M6722 4072 c-9 -6 -12 -35 -10 -108 3 -98 3 -99 28 -99 l25 0 0 105
c0 85 -3 105 -15 107 -8 2 -21 -1 -28 -5z"/>
<path d="M6813 4073 c-15 -5 -18 -179 -4 -201 5 -8 17 -12 27 -10 16 3 20 15
24 88 4 71 8 85 23 88 37 7 50 -18 44 -85 -5 -68 8 -101 37 -90 26 10 23 155
-5 191 -18 23 -27 26 -77 25 -31 0 -63 -3 -69 -6z"/>
<path d="M7146 4061 c-22 -25 -39 -86 -31 -114 4 -12 17 -37 29 -54 18 -28 27
-33 63 -33 36 0 46 5 72 37 40 49 42 102 5 150 -22 29 -30 33 -73 33 -34 0
-53 -5 -65 -19z m88 -37 c19 -18 21 -85 4 -102 -17 -17 -44 -15 -62 4 -32 32
-11 114 29 114 7 0 21 -7 29 -16z"/>
<path d="M8380 4055 c-35 -37 -35 -119 0 -162 21 -26 32 -32 66 -32 36 -1 47
4 73 34 41 47 43 109 5 154 -22 27 -33 31 -73 31 -38 0 -52 -5 -71 -25z m94
-31 c16 -16 21 -71 8 -89 -4 -5 -15 -16 -24 -23 -14 -11 -20 -10 -37 7 -39 39
-24 121 24 121 7 0 21 -7 29 -16z"/>
<path d="M8686 4047 c-19 -24 -26 -46 -26 -77 0 -37 6 -49 39 -81 34 -34 43
-38 73 -33 37 7 68 30 68 50 0 21 -14 24 -53 12 -49 -15 -67 0 -67 58 0 56 23
71 75 50 30 -13 37 -13 41 -1 3 7 1 23 -6 34 -9 17 -20 21 -65 21 -49 0 -56
-3 -79 -33z"/>
<path d="M8882 4053 c-33 -41 -31 -121 4 -162 20 -24 34 -31 62 -31 88 1 133
112 76 187 -22 29 -30 33 -73 33 -39 0 -51 -4 -69 -27z m96 -21 c7 -5 15 -25
19 -45 4 -30 1 -40 -22 -63 l-28 -28 -23 28 c-28 32 -30 62 -8 94 16 23 39 28
62 14z"/>
<path d="M9086 4073 c-3 -3 -6 -53 -6 -110 0 -103 0 -104 23 -101 20 3 22 8
23 75 1 75 13 103 45 103 24 0 30 -23 27 -102 -3 -70 2 -84 27 -75 11 5 15 22
15 75 0 78 15 108 48 98 19 -6 22 -15 24 -89 2 -65 6 -82 18 -82 21 0 27 176
7 197 -11 10 -46 15 -129 16 -64 1 -118 -2 -122 -5z"/>
<path d="M9403 4069 c-7 -7 -9 -37 -6 -83 3 -39 0 -96 -6 -126 -13 -58 -5 -73
34 -68 15 2 20 11 20 33 1 28 4 30 40 33 32 2 45 9 63 36 30 44 31 122 1 160
-18 23 -28 26 -78 26 -31 0 -62 -5 -68 -11z m111 -45 c9 -9 16 -32 16 -54 0
-30 -6 -41 -26 -55 -24 -16 -27 -16 -45 1 -36 33 -18 124 26 124 7 0 21 -7 29
-16z"/>
<path d="M9724 4072 c-50 -34 -59 -125 -18 -179 22 -29 31 -33 70 -33 47 0 90
29 80 55 -5 14 -41 10 -63 -7 -15 -12 -49 6 -64 33 -15 29 -6 34 64 34 61 0
62 1 65 29 5 43 -31 76 -82 76 -23 0 -46 -4 -52 -8z m91 -47 c0 -12 -50 -19
-71 -11 -9 3 -12 11 -9 16 8 14 80 9 80 -5z"/>
<path d="M10025 4060 c-12 -14 -20 -41 -23 -78 -4 -52 -1 -62 23 -90 22 -26
34 -32 67 -32 38 0 98 30 98 50 0 18 -41 21 -68 4 -27 -16 -30 -15 -56 1 -18
12 -26 25 -24 39 3 19 9 21 73 21 64 0 70 2 73 21 2 12 -9 35 -23 53 -23 27
-33 31 -74 31 -35 0 -53 -5 -66 -20z m100 -35 c0 -5 -17 -11 -37 -13 -30 -3
-38 0 -38 13 0 13 8 16 38 13 20 -2 37 -7 37 -13z"/>
<path d="M10333 4058 c-26 -28 -38 -84 -24 -120 15 -39 62 -78 93 -78 16 0 28
-5 28 -10 0 -20 -33 -23 -65 -5 -34 18 -55 14 -55 -9 0 -48 110 -64 155 -22
25 23 26 26 23 142 l-3 119 -65 3 c-58 2 -68 0 -87 -20z m101 -40 c9 -12 16
-34 16 -48 0 -30 -25 -70 -44 -70 -21 0 -47 36 -48 67 -2 65 45 96 76 51z"/>
<path d="M10543 4073 c-9 -3 -13 -34 -13 -104 0 -99 0 -99 25 -99 24 0 24 2
27 83 3 81 3 82 31 85 19 2 27 9 27 23 0 16 -7 19 -42 18 -24 0 -49 -3 -55 -6z"/>
<path d="M10680 4060 c-49 -49 -52 -111 -9 -163 26 -32 36 -37 72 -37 45 0 56
10 88 80 14 30 14 39 2 68 -23 56 -43 72 -90 72 -30 0 -49 -6 -63 -20z m94
-36 c9 -9 16 -32 16 -55 0 -33 -4 -41 -26 -51 -37 -17 -58 0 -62 51 -5 64 34
94 72 55z"/>
<path d="M10867 4074 c-12 -12 4 -167 20 -193 14 -21 20 -23 70 -18 80 8 84
14 81 121 -3 83 -5 91 -23 91 -18 0 -20 -8 -23 -71 -2 -53 -7 -76 -20 -88 -17
-14 -20 -14 -41 0 -20 15 -22 23 -19 88 3 65 1 71 -17 74 -12 2 -24 0 -28 -4z"/>
<path d="M11087 4072 c-11 -17 -11 -262 0 -273 18 -18 45 -2 43 23 -4 44 -1
47 35 41 30 -5 40 -1 65 25 37 39 46 75 30 121 -21 61 -36 71 -106 71 -35 0
-65 -3 -67 -8z m107 -48 c16 -16 21 -71 8 -89 -4 -5 -15 -16 -24 -23 -14 -11
-20 -10 -37 7 -25 25 -27 68 -5 99 18 26 37 28 58 6z"/>
<path d="M11403 4050 c-34 -42 -31 -114 5 -158 23 -28 35 -34 67 -34 31 0 45
6 67 31 37 41 39 116 6 161 -19 27 -28 30 -72 29 -44 0 -54 -4 -73 -29z m111
-35 c23 -35 20 -62 -10 -92 l-25 -25 -25 23 c-28 27 -32 74 -7 101 22 25 48
23 67 -7z"/>
<path d="M12345 4068 c-3 -8 -4 -57 -3 -109 3 -81 5 -94 21 -97 16 -3 17 5 15
104 -2 75 -7 109 -15 112 -7 2 -15 -3 -18 -10z"/>
<path d="M12548 4068 c-17 -13 -21 -28 -19 -63 1 -14 16 -26 53 -41 59 -24 69
-38 39 -54 -16 -8 -28 -7 -50 4 -26 14 -30 14 -42 0 -11 -13 -9 -19 11 -35 36
-27 101 -25 128 4 22 23 29 63 14 82 -9 13 -79 45 -97 45 -8 0 -15 7 -15 16 0
17 10 16 83 -2 22 -5 27 -3 27 13 0 10 -5 24 -12 31 -16 16 -100 15 -120 0z"/>
<path d="M1656 4037 c-25 -19 -10 -49 23 -45 29 3 42 35 19 49 -17 12 -21 11
-42 -4z"/>
<path d="M1129 4033 c-4 -22 -6 -260 -2 -274 2 -12 20 -19 59 -24 50 -6 59 -4
81 17 39 37 55 75 48 116 -9 54 -39 85 -83 88 -20 1 -41 2 -46 3 -4 1 -6 11
-3 23 8 29 -9 58 -33 58 -11 0 -21 -3 -21 -7z m125 -138 c9 -13 16 -34 16 -45
0 -30 -29 -70 -51 -70 -24 0 -53 55 -45 85 7 28 32 55 51 55 7 0 20 -11 29
-25z"/>
<path d="M2837 4034 c-4 -4 -7 -25 -7 -46 0 -39 0 -39 -33 -33 -25 5 -39 1
-60 -15 -15 -12 -27 -28 -27 -36 0 -8 -4 -14 -10 -14 -16 0 -11 -69 7 -98 31
-48 55 -64 87 -58 16 3 42 6 58 6 l29 0 -3 147 c-3 124 -5 148 -18 151 -9 1
-19 0 -23 -4z m-23 -130 c20 -19 21 -90 2 -110 -35 -35 -66 -8 -66 58 0 34 5
50 18 57 23 14 28 14 46 -5z"/>
<path d="M5137 4003 c-18 -17 1 -45 111 -161 64 -69 142 -153 172 -186 59 -64
234 -249 313 -330 48 -50 57 -66 35 -66 -7 0 -575 0 -1262 0 -914 0 -1252 -3
-1262 -11 -11 -9 -14 -84 -14 -400 l0 -389 28 -11 c16 -6 89 -9 177 -7 160 3
152 6 138 -44 -8 -26 19 -22 51 7 45 42 56 34 56 -42 0 -62 11 -123 56 -323 8
-36 19 -89 25 -119 5 -30 13 -59 17 -65 7 -12 26 -102 42 -201 28 -177 45
-217 85 -201 19 7 18 24 -10 136 -24 95 -44 187 -56 250 -5 30 -14 59 -18 65
-5 5 -11 35 -15 65 -4 30 -11 69 -16 85 -5 17 -13 57 -19 90 -21 119 -37 190
-49 212 -14 26 -16 83 -3 83 5 0 22 -5 37 -10 19 -7 30 -7 40 1 11 9 264 12
965 13 l950 1 -5 -28 c-5 -27 -5 -27 18 -11 14 8 27 22 30 30 4 9 15 14 28 12
17 -2 24 -11 26 -33 1 -16 8 -41 13 -55 6 -14 17 -38 24 -55 7 -16 27 -70 45
-120 18 -49 41 -110 52 -135 10 -25 24 -56 30 -70 5 -14 16 -38 23 -55 26 -57
43 -100 60 -150 18 -50 34 -91 62 -155 8 -19 21 -48 27 -65 42 -103 64 -127
87 -99 10 13 10 22 -2 47 -41 86 -51 109 -84 197 -19 52 -40 104 -45 115 -5
11 -18 43 -30 70 -12 28 -25 59 -30 70 -5 11 -26 63 -45 115 -19 52 -39 104
-44 115 -6 11 -17 38 -26 60 -9 22 -34 74 -55 117 -29 57 -36 79 -27 85 7 6
83 7 186 2 260 -11 2264 -8 2278 3 26 21 49 -5 101 -109 60 -123 131 -256 141
-263 3 -3 25 -43 49 -90 94 -188 114 -220 138 -220 19 0 28 38 13 57 -15 17
-21 28 -78 138 -23 44 -50 94 -60 110 -11 17 -42 75 -70 130 -28 55 -70 130
-94 167 -25 37 -43 69 -41 71 2 2 174 1 382 -1 277 -3 384 -1 400 7 l22 12 0
384 c0 211 -3 391 -6 399 -6 15 -47 17 -393 17 -424 0 -395 0 -468 -7 -59 -7
-65 -4 -125 51 -24 22 -73 65 -108 95 -36 30 -67 57 -70 60 -3 3 -34 30 -70
60 -36 30 -67 57 -70 60 -3 3 -27 24 -55 45 -27 22 -70 59 -95 83 -44 41 -84
54 -93 30 -7 -20 11 -46 41 -62 15 -8 59 -44 97 -80 39 -36 73 -65 76 -66 4 0
22 -14 40 -30 58 -52 121 -106 194 -165 39 -31 70 -61 70 -66 0 -5 -471 -9
-1159 -9 l-1159 0 -36 42 c-20 23 -47 54 -61 68 -14 15 -47 51 -75 81 -66 72
-283 306 -315 339 -14 14 -65 70 -114 123 -83 91 -103 106 -119 90z m3243
-798 c10 -12 10 -19 2 -27 -16 -16 -42 -2 -42 22 0 24 22 26 40 5z m-2447 -88
c47 -47 83 -87 80 -91 -4 -3 -21 -6 -40 -6 -21 0 -36 -6 -40 -16 -8 -21 8 -35
48 -43 l33 -7 -2 -219 c-1 -121 -2 -226 -2 -232 0 -8 -15 -13 -41 -13 -48 0
-107 38 -183 120 -26 27 -51 50 -56 50 -5 0 -11 -39 -12 -87 l-3 -88 -55 5
c-30 3 -263 5 -518 5 -254 0 -463 2 -463 5 -6 23 -4 687 2 695 5 7 210 9 586
8 l580 -2 86 -84z m81 77 c9 -23 7 -87 -3 -103 -7 -11 -12 -7 -24 15 -8 16
-24 38 -36 48 -12 11 -21 27 -21 38 0 14 8 18 39 18 26 0 41 -5 45 -16z m349
3 c17 -2 18 -21 18 -346 0 -189 -3 -346 -6 -349 -3 -3 -75 -6 -159 -7 l-154
-1 -4 216 c-3 118 -1 219 3 224 4 4 24 -4 45 -18 21 -14 44 -26 51 -26 15 0
17 31 5 45 -15 17 -42 99 -48 148 -8 58 -20 68 -35 30 l-12 -28 -9 38 c-6 20
-8 48 -4 60 5 22 7 22 148 19 79 -1 151 -4 161 -5z m1417 -350 l0 -352 -667 2
-668 2 -3 347 c-1 203 2 350 7 353 5 3 307 5 670 3 l661 -2 0 -353z m518 338
c52 -31 53 -59 2 -70 -58 -13 -25 -55 43 -55 19 0 60 -9 93 -20 32 -11 62 -20
67 -20 15 0 6 33 -28 97 -20 36 -34 70 -33 75 3 7 128 10 358 9 l355 -1 3
-353 2 -352 -312 0 c-172 0 -351 -2 -398 -5 -71 -4 -85 -3 -85 10 0 10 13 16
43 18 63 5 54 23 -41 87 -32 21 -71 51 -85 66 -40 42 -54 23 -35 -47 8 -31 13
-72 11 -92 l-3 -37 -212 0 c-164 0 -213 3 -213 13 -1 16 -1 680 0 690 0 4 98
7 218 6 194 0 221 -2 250 -19z m-3677 -333 c0 -189 -2 -346 -4 -349 -3 -2
-200 -5 -438 -5 l-434 -1 -46 64 c-61 85 -79 89 -79 15 0 -62 -27 -104 -58
-91 -9 4 -73 8 -140 10 -68 2 -126 5 -128 8 -3 3 -7 636 -4 690 0 4 300 6 666
5 l665 -3 0 -343z"/>
<path d="M4951 2944 c-17 -21 -21 -41 -21 -95 0 -58 4 -72 26 -98 41 -49 84
-39 117 28 23 45 21 98 -3 149 -19 39 -24 42 -60 42 -30 0 -43 -6 -59 -26z
m79 -88 c0 -67 -10 -86 -35 -66 -10 8 -15 31 -15 65 0 56 4 65 32 65 16 0 18
-9 18 -64z"/>
<path d="M5320 2951 c-6 -12 -17 -21 -25 -21 -8 0 -15 -9 -15 -20 0 -13 7 -20
19 -20 25 0 34 -30 26 -88 -8 -61 10 -91 44 -73 21 11 22 17 19 124 l-3 112
-27 3 c-19 2 -30 -3 -38 -17z"/>
<path d="M5640 2939 c-34 -29 -34 -31 -16 -45 11 -8 23 -14 27 -14 5 0 9 -33
11 -72 3 -71 4 -73 31 -76 20 -3 27 1 28 15 1 16 1 198 -1 216 -1 17 -48 4
-80 -24z"/>
<path d="M6202 2781 c-8 -4 -12 -19 -10 -32 4 -34 53 -40 63 -8 5 16 2 26 -11
36 -21 15 -24 16 -42 4z"/>
<path d="M7081 2969 c-40 -16 -50 -39 -51 -116 0 -63 3 -75 26 -102 39 -47 78
-40 117 21 37 58 13 179 -40 199 -13 5 -25 9 -26 8 -1 0 -13 -5 -26 -10z m47
-109 c3 -68 -7 -91 -33 -70 -18 15 -21 91 -4 121 19 36 34 15 37 -51z"/>
<path d="M6755 2950 c-10 -11 -24 -20 -32 -20 -9 0 -13 -8 -11 -22 2 -15 10
-23 23 -23 17 0 20 -8 23 -60 1 -33 4 -70 7 -82 6 -27 31 -30 43 -5 6 13 8
145 2 225 -1 15 -37 6 -55 -13z"/>
<path d="M7413 2941 c-39 -33 -41 -43 -10 -56 19 -9 22 -19 25 -77 2 -52 7
-70 20 -77 37 -20 44 1 44 115 -1 60 -1 112 -2 117 -1 17 -47 4 -77 -22z"/>
<path d="M8818 2973 c-45 -7 -68 -50 -68 -126 0 -60 3 -68 31 -96 38 -38 61
-39 94 -4 47 52 48 165 1 208 -15 14 -28 24 -29 24 -1 -1 -14 -4 -29 -6z m30
-111 c3 -52 -11 -88 -29 -76 -5 3 -9 34 -9 70 0 57 2 65 18 62 13 -2 18 -15
20 -56z"/>
<path d="M8144 2956 c-3 -8 -14 -18 -25 -21 -19 -6 -27 -45 -10 -45 25 0 41
-32 35 -70 -4 -22 -3 -51 0 -65 5 -21 12 -26 34 -23 l27 3 0 115 0 115 -28 3
c-17 2 -29 -2 -33 -12z"/>
<path d="M8439 2944 c-21 -22 -24 -35 -24 -96 0 -66 2 -71 33 -99 39 -35 64
-32 99 9 19 22 23 39 23 98 0 61 -3 73 -23 92 -32 30 -77 29 -108 -4z m71 -89
c0 -63 -14 -91 -31 -64 -13 20 -11 113 3 127 20 20 28 2 28 -63z"/>
<path d="M3610 2961 c0 -6 -13 -17 -29 -26 -22 -11 -28 -20 -24 -35 4 -14 12
-20 27 -18 20 3 21 -3 26 -77 4 -65 8 -80 22 -83 24 -5 29 25 26 143 -3 95 -4
100 -25 103 -13 2 -23 -1 -23 -7z"/>
<path d="M3935 2950 c-10 -11 -24 -20 -32 -20 -7 0 -13 -11 -13 -25 0 -22 3
-25 25 -19 25 6 25 6 25 -64 0 -79 6 -102 26 -102 26 0 35 39 32 142 -3 95 -5
103 -24 106 -11 2 -28 -6 -39 -18z"/>
<path d="M4232 2940 c-51 -69 -11 -220 59 -220 21 0 35 10 56 37 24 31 28 45
27 98 0 49 -5 66 -24 88 -34 39 -88 38 -118 -3z m82 -84 c1 -62 -14 -87 -39
-66 -22 19 -21 116 3 129 26 15 36 -2 36 -63z"/>
<path d="M430 3930 c-26 -26 -30 -38 -30 -83 1 -41 6 -58 25 -80 35 -39 87
-47 125 -18 36 26 45 26 71 0 17 -17 27 -20 57 -13 21 4 51 8 67 8 17 1 30 6
29 14 -1 6 -2 46 -2 87 -2 60 -6 79 -22 95 -36 36 -140 21 -140 -21 0 -17 -27
-9 -48 16 -33 37 -93 35 -132 -5z m285 -30 c0 -8 -21 -22 -50 -33 -27 -10 -59
-29 -70 -42 -12 -14 -30 -25 -42 -25 -12 0 -25 -4 -28 -10 -9 -15 -36 -12 -57
7 -21 19 -23 70 -4 96 13 17 66 24 66 8 0 -13 108 -7 122 7 17 17 63 11 63 -8z
m8 -74 c7 -19 -38 -60 -57 -53 -9 4 -16 15 -16 26 0 34 62 57 73 27z"/>
<path d="M856 3951 l-39 -6 -1 -100 -1 -100 25 0 c24 0 25 3 23 50 -5 101 14
138 58 115 16 -9 19 -22 19 -89 0 -63 3 -80 16 -85 28 -11 34 4 34 90 0 77 -2
87 -25 109 -24 25 -38 27 -109 16z"/>
<path d="M1368 3936 c-38 -45 -41 -125 -6 -174 25 -36 88 -41 133 -11 19 13
35 30 35 37 0 14 -56 17 -65 2 -17 -28 -85 -1 -85 34 0 13 12 16 63 16 90 0
112 30 61 85 -18 19 -38 29 -69 33 -37 4 -46 1 -67 -22z m87 -36 c0 -18 -43
-26 -59 -10 -8 8 -7 13 4 20 21 14 55 8 55 -10z"/>
<path d="M1780 3953 c-33 -14 -49 -48 -50 -102 0 -46 4 -59 27 -83 19 -20 37
-28 60 -28 24 0 33 -5 33 -16 0 -13 -8 -15 -37 -12 -21 3 -46 8 -55 12 -26 12
-35 -20 -13 -44 27 -30 95 -27 134 6 l31 26 0 119 c0 117 0 119 -22 119 -13 0
-39 2 -58 5 -19 2 -42 2 -50 -2z m64 -49 c37 -36 26 -116 -17 -130 -45 -14
-74 71 -41 121 19 29 36 31 58 9z"/>
<path d="M1987 3953 l-38 -4 3 -102 c3 -97 4 -102 26 -105 21 -3 22 0 22 68 0
101 24 135 65 93 13 -13 16 -31 13 -87 -3 -70 -3 -71 22 -71 17 0 25 5 24 18
0 9 -1 48 -2 85 -2 53 -6 73 -22 90 -21 22 -31 23 -113 15z"/>
<path d="M2179 3928 c-23 -26 -29 -41 -29 -80 0 -40 5 -52 35 -84 31 -33 39
-36 71 -31 59 10 89 63 79 139 -12 89 -98 119 -156 56z m89 -24 c26 -18 31
-86 8 -110 -49 -48 -96 23 -66 100 11 30 26 32 58 10z"/>
<path d="M2398 3953 c-16 -2 -28 -7 -28 -11 0 -4 -1 -50 -3 -102 l-2 -95 28
-3 27 -3 0 78 c0 82 9 103 43 103 12 0 17 6 15 18 -3 18 -31 23 -80 15z"/>
<path d="M2532 3945 c-30 -22 -52 -67 -52 -109 0 -47 58 -106 105 -106 42 0
96 43 77 62 -10 10 -17 10 -32 0 -41 -25 -90 -9 -90 30 0 15 9 18 53 18 57 0
77 12 77 45 -1 56 -90 95 -138 60z m77 -34 c20 -13 4 -31 -29 -31 -16 0 -32 5
-36 11 -7 12 13 29 36 29 8 0 21 -4 29 -9z"/>
<path d="M1648 3943 c-2 -4 -3 -51 -3 -103 l0 -95 28 -3 27 -3 2 90 c0 50 1
97 2 104 1 13 -50 23 -56 10z"/>
<path d="M1831 3587 c-14 -18 1 -33 143 -145 209 -166 236 -187 328 -263 51
-41 114 -90 141 -108 47 -32 53 -51 18 -51 -23 0 -73 -39 -66 -51 4 -5 31 -9
61 -9 30 0 71 -7 91 -15 19 -8 43 -15 53 -15 10 0 23 -7 30 -15 37 -44 41 19
5 73 -26 39 -65 140 -65 167 0 8 -6 15 -14 15 -9 0 -18 -16 -23 -42 -11 -55
-33 -60 -75 -16 -18 18 -57 53 -87 78 -30 25 -68 57 -85 72 -17 15 -34 28 -38
28 -3 0 -29 20 -56 46 -28 25 -72 61 -99 81 -26 20 -50 40 -53 43 -3 3 -37 32
-77 63 -39 31 -75 61 -78 67 -9 14 -41 12 -54 -3z"/>
<path d="M2768 2968 c-33 -47 -33 -140 1 -185 20 -27 32 -33 61 -33 32 0 38 5
59 43 48 88 10 207 -65 207 -25 0 -38 -7 -56 -32z m82 -37 c17 -33 12 -96 -9
-115 -19 -17 -20 -17 -30 3 -12 21 -15 90 -5 115 8 22 31 20 44 -3z"/>
<path d="M8798 1583 c-9 -2 -25 -26 -37 -53 -53 -123 -1 -343 74 -314 19 7 19
23 2 43 -22 26 -47 104 -47 148 0 43 22 107 47 135 28 31 7 53 -39 41z"/>
<path d="M9108 1581 c-9 -3 -36 -35 -59 -71 -24 -36 -49 -71 -56 -78 -7 -7
-13 -18 -13 -23 0 -5 -17 -7 -40 -3 -49 8 -90 -2 -90 -21 0 -19 2 -19 130 -20
l105 0 3 -28 c4 -34 35 -53 52 -32 6 8 9 23 5 35 -4 13 -1 22 9 26 21 8 20 31
-1 42 -14 8 -15 22 -11 90 6 83 1 96 -34 83z m-8 -140 c0 -32 -23 -47 -54 -35
-14 5 -14 9 5 35 27 38 49 38 49 0z"/>
<path d="M9203 1575 c-3 -9 1 -23 9 -33 18 -21 35 -65 43 -114 6 -40 -25 -150
-51 -179 -12 -14 -12 -18 -1 -28 21 -17 43 -4 68 37 20 32 23 51 23 137 0 83
-4 107 -22 141 -18 35 -38 54 -58 54 -3 0 -7 -7 -11 -15z"/>
<path d="M9444 1582 c-7 -4 -10 -53 -10 -124 0 -64 -3 -120 -7 -124 -4 -5 -16
-3 -25 2 -14 10 -17 28 -17 115 0 136 -16 163 -51 81 -11 -28 -12 -43 -5 -60
6 -13 11 -50 11 -83 0 -33 5 -69 10 -80 13 -23 43 -25 60 -4 10 12 16 12 26 4
30 -25 44 -3 44 70 0 60 3 72 20 81 14 8 26 8 41 -1 20 -10 21 -16 15 -78 -6
-54 -4 -70 8 -80 11 -9 20 -10 35 -1 18 9 21 20 21 69 0 104 -36 156 -103 149
-29 -3 -32 0 -32 25 -1 30 -23 51 -41 39z"/>
<path d="M10361 1581 c-19 -12 -5 -31 23 -31 29 0 39 10 25 27 -13 15 -28 16
-48 4z"/>
<path d="M10545 1580 c-11 -17 5 -30 36 -30 18 0 29 5 29 14 0 23 -53 36 -65
16z"/>
<path d="M10463 1558 c-30 -47 -33 -60 -19 -86 9 -18 12 -47 9 -83 -6 -64 8
-99 38 -99 27 0 35 27 15 49 -19 21 -21 88 -4 125 8 20 8 35 -1 66 -12 41 -24
49 -38 28z"/>
<path d="M9780 1511 l-35 -6 -3 -143 -3 -143 33 3 c28 3 33 6 30 26 -5 31 13
50 41 45 15 -3 34 4 51 19 24 20 27 31 29 90 2 58 -1 70 -22 92 -25 27 -48 30
-121 17z m106 -88 c13 -52 -52 -111 -77 -71 -11 16 -11 79 -1 94 21 32 68 19
78 -23z"/>
<path d="M9993 1498 c-60 -67 -66 -115 -20 -169 33 -40 61 -51 94 -38 60 22
82 70 69 144 -14 74 -99 111 -143 63z m72 -40 c21 -9 25 -18 25 -53 0 -22 -5
-46 -12 -53 -19 -19 -56 -14 -69 9 -13 26 -5 89 13 101 16 10 13 10 43 -4z"/>
<path d="M10185 1490 c-27 -28 -28 -32 -14 -56 7 -14 25 -30 39 -35 48 -18 70
-32 70 -47 0 -12 -11 -13 -55 -7 -51 6 -55 5 -55 -14 0 -25 28 -41 70 -41 39
0 63 12 84 44 13 21 14 29 4 46 -7 11 -18 20 -24 20 -6 0 -17 6 -24 14 -6 8
-21 16 -33 18 -12 2 -22 10 -22 18 0 14 11 16 60 8 26 -4 32 29 8 47 -31 25
-76 18 -108 -15z"/>
<path d="M10661 1496 c-25 -26 -38 -96 -27 -140 10 -39 45 -66 85 -66 41 1 59
13 84 57 29 53 18 103 -35 156 -26 25 -80 22 -107 -7z m101 -71 c15 -59 -38
-108 -76 -70 -38 39 -2 124 46 106 12 -4 25 -21 30 -36z"/>
<path d="M10890 1513 c-42 -8 -46 -18 -45 -110 0 -100 7 -118 35 -103 17 9 18
18 13 73 -5 54 -3 64 15 80 17 15 24 17 43 7 20 -11 21 -17 16 -80 -6 -75 5
-97 43 -85 17 5 20 15 20 69 0 35 -7 80 -15 99 -22 53 -49 64 -125 50z"/>
<path d="M10372 1497 c-7 -8 -10 -49 -9 -103 2 -82 4 -89 22 -89 18 0 20 7 22
91 2 67 -1 95 -11 103 -10 8 -16 8 -24 -2z"/>
<path d="M10557 1503 c-3 -5 -7 -51 -8 -103 l-4 -95 25 0 c25 0 25 1 26 90 0
84 -7 115 -27 115 -4 0 -10 -3 -12 -7z"/>
<path d="M2757 1233 c-54 -5 -60 -13 -70 -101 -7 -62 8 -75 54 -48 42 25 69 8
69 -44 0 -29 -5 -42 -20 -50 -23 -12 -54 0 -64 25 -3 8 -15 15 -26 15 -28 0
-26 -40 3 -68 32 -31 96 -30 123 1 31 35 47 73 39 96 -11 34 -50 71 -76 71
-39 0 -53 14 -40 39 9 16 21 21 51 21 21 0 42 5 45 10 8 13 -13 41 -29 38 -6
-1 -33 -3 -59 -5z"/>
<path d="M3927 1233 c-4 -3 -7 -15 -7 -25 0 -12 7 -18 24 -18 33 0 44 20 21
37 -21 15 -29 16 -38 6z"/>
<path d="M4127 1234 c-4 -4 -7 -16 -7 -26 0 -14 6 -19 23 -16 14 2 22 10 22
23 0 20 -25 32 -38 19z"/>
<path d="M2999 1223 c0 -5 -2 -60 -2 -123 -2 -108 -3 -115 -22 -115 -18 0 -20
8 -23 63 -2 34 1 70 6 79 10 16 0 52 -21 80 -11 15 -37 6 -37 -13 0 -8 -6 -23
-12 -34 -10 -15 -10 -22 0 -32 7 -7 12 -42 12 -90 0 -90 5 -95 90 -93 l55 1 3
74 c3 78 13 100 43 100 23 0 31 -28 33 -109 1 -63 2 -66 26 -66 25 0 25 1 24
85 -1 106 -16 130 -81 130 -42 0 -43 0 -43 35 0 31 -3 35 -25 35 -14 0 -25 -3
-26 -7z"/>
<path d="M4025 1206 c-12 -9 -18 -25 -17 -47 0 -19 1 -61 2 -94 1 -89 8 -114
35 -121 13 -3 33 0 46 6 21 12 21 13 3 23 -10 6 -22 15 -26 21 -13 19 -9 100
6 128 8 15 11 30 7 33 -5 2 -11 18 -14 35 -7 33 -14 36 -42 16z"/>
<path d="M5183 1190 c-33 -36 -41 -58 -42 -128 -2 -94 39 -152 106 -152 54 0
77 36 83 128 7 99 3 116 -30 152 -38 40 -79 40 -117 0z m91 -52 c19 -27 21
-116 4 -153 -16 -35 -55 -34 -70 3 -14 36 -14 110 0 145 14 33 45 36 66 5z"/>
<path d="M6407 1213 c-11 -10 -8 -41 4 -49 16 -9 41 20 33 39 -6 17 -25 22
-37 10z"/>
<path d="M6590 1196 c0 -29 11 -39 35 -30 24 10 15 48 -12 52 -19 3 -23 -1
-23 -22z"/>
<path d="M5477 1204 c-4 -4 -7 -63 -7 -131 0 -123 0 -124 -22 -121 -21 3 -23
9 -26 67 -2 47 1 68 13 81 14 15 14 18 0 30 -8 7 -15 22 -15 35 0 12 -3 25 -7
28 -10 10 -33 -13 -33 -33 0 -10 -7 -23 -15 -30 -14 -12 -14 -15 0 -30 11 -12
15 -38 15 -92 0 -50 4 -79 13 -86 8 -7 35 -9 70 -5 l57 6 0 72 c0 57 4 75 19
89 21 19 50 12 52 -13 1 -9 1 -46 -1 -82 -2 -72 11 -90 51 -69 20 11 24 42 13
122 -10 69 -33 93 -88 91 -45 -1 -45 -1 -48 35 -3 35 -24 53 -41 36z"/>
<path d="M6502 1188 c-7 -7 -12 -20 -12 -29 0 -9 -7 -22 -16 -30 -14 -12 -14
-14 2 -26 15 -11 18 -26 16 -86 -4 -88 10 -114 54 -102 16 4 43 8 59 9 l30 1
-4 95 c-3 105 -6 113 -29 108 -14 -3 -16 -16 -14 -83 3 -91 -3 -106 -35 -94
-21 7 -23 15 -23 74 0 49 4 67 15 71 17 7 21 34 5 34 -5 0 -10 11 -10 24 0 31
-22 50 -38 34z"/>
<path d="M3382 1161 c-7 -4 -24 -6 -37 -4 -31 6 -34 -6 -32 -162 2 -127 3
-130 25 -133 20 -3 22 1 22 37 0 41 0 41 38 41 60 0 102 49 102 119 0 66 -74
130 -118 102z m57 -72 c36 -59 -13 -136 -60 -93 -36 32 -16 124 28 124 7 0 22
-14 32 -31z"/>
<path d="M3580 1163 c-61 -25 -80 -148 -29 -201 30 -33 91 -30 129 7 26 24 30
36 30 79 0 44 -4 55 -35 86 -33 34 -60 42 -95 29z m70 -67 c15 -29 8 -95 -12
-108 -36 -22 -68 8 -68 64 0 63 54 92 80 44z"/>
<path d="M3770 1157 c-56 -28 -45 -107 17 -120 36 -9 67 -33 58 -46 -9 -16
-47 -13 -71 4 -25 17 -34 11 -34 -21 0 -25 17 -34 69 -34 52 0 81 23 81 65 0
29 -5 36 -43 54 -24 12 -49 21 -55 21 -7 0 -12 9 -12 20 0 15 7 20 24 20 14 0
28 -4 31 -10 8 -13 42 -13 51 1 9 16 -25 46 -61 53 -17 3 -41 0 -55 -7z"/>
<path d="M4225 1136 c-30 -32 -35 -44 -35 -84 0 -44 18 -86 44 -104 6 -4 29
-8 52 -8 62 0 89 34 89 111 0 49 -4 63 -25 84 -14 13 -40 27 -58 31 -28 6 -36
2 -67 -30z m87 -33 c11 -10 18 -30 18 -53 0 -68 -62 -92 -88 -34 -16 34 -15
50 4 79 19 29 40 32 66 8z"/>
<path d="M4455 1161 c-38 -6 -40 -8 -47 -51 -3 -25 -7 -71 -7 -102 -1 -49 2
-58 20 -63 31 -10 38 3 41 84 2 58 7 76 21 85 31 19 49 -18 45 -93 -3 -68 11
-91 47 -78 15 6 17 19 14 93 -4 79 -6 87 -32 110 -29 25 -34 25 -102 15z"/>
<path d="M4127 1153 c-4 -3 -7 -50 -7 -104 0 -98 10 -126 34 -98 16 20 9 209
-8 209 -7 0 -16 -3 -19 -7z"/>
<path d="M3927 1143 c-4 -3 -7 -48 -7 -100 l0 -93 28 0 29 0 0 100 c-1 95 -2
100 -22 100 -12 0 -25 -3 -28 -7z"/>
<path d="M5818 1133 l-38 -4 0 -144 c0 -118 3 -144 15 -149 27 -10 44 5 47 42
3 34 5 36 39 37 58 2 79 32 79 110 0 58 -3 69 -26 90 -27 25 -36 26 -116 18z
m96 -65 c23 -32 20 -63 -8 -95 -20 -23 -28 -26 -43 -17 -19 12 -29 69 -19 111
8 30 49 31 70 1z"/>
<path d="M6023 1108 c-55 -58 -56 -109 -3 -165 23 -24 40 -33 64 -33 67 0 105
58 91 138 -9 52 -37 83 -82 89 -33 4 -42 0 -70 -29z m95 -30 c7 -7 12 -30 12
-53 0 -46 -13 -65 -46 -65 -23 0 -54 38 -54 65 0 47 58 83 88 53z"/>
<path d="M6226 1116 c-15 -13 -26 -30 -26 -39 0 -25 33 -56 75 -70 42 -15 58
-43 29 -54 -9 -3 -31 2 -49 12 -51 27 -72 7 -35 -33 33 -35 93 -30 130 10 22
24 27 35 20 49 -14 26 -60 59 -82 59 -22 0 -35 27 -20 42 11 11 24 8 54 -14
30 -21 42 4 18 35 -28 35 -79 37 -114 3z"/>
<path d="M6702 1118 c-49 -53 -52 -123 -6 -178 44 -51 102 -39 147 32 27 43
21 79 -19 126 -42 50 -87 57 -122 20z m90 -42 c4 -6 8 -29 8 -51 0 -45 -7 -58
-33 -68 -27 -10 -57 26 -57 68 0 59 54 92 82 51z"/>
<path d="M6920 1131 l-35 -6 -1 -103 -1 -103 26 3 c26 3 26 4 23 71 -4 74 6
97 43 97 30 0 35 -16 28 -98 -6 -74 2 -87 46 -75 19 5 21 13 21 69 0 130 -36
165 -150 145z"/>
<path d="M8874 1128 c-11 -17 -4 -271 8 -285 7 -9 38 -13 90 -13 l79 0 -3 28
c-3 25 -6 27 -63 32 l-60 5 0 113 c0 89 -3 115 -15 122 -20 13 -27 12 -36 -2z"/>
<path d="M9112 1118 c-35 -26 -47 -49 -38 -81 8 -30 65 -67 104 -67 41 0 80
-35 65 -59 -17 -26 -91 -27 -119 0 -25 23 -54 20 -54 -6 0 -9 15 -29 32 -46
27 -24 41 -29 84 -29 46 0 55 4 78 31 32 37 35 97 8 122 -10 9 -40 23 -66 31
-26 8 -53 19 -60 26 -20 16 -8 47 20 54 25 7 64 -8 64 -23 0 -11 46 -31 54
-24 14 15 4 43 -25 67 -40 34 -101 35 -147 4z"/>
<path d="M9353 1130 c-21 -9 -22 -13 -19 -146 2 -103 7 -138 17 -145 8 -5 42
-9 76 -9 56 0 63 2 87 31 26 31 37 101 17 114 -5 3 -7 30 -4 59 5 50 3 57 -22
80 -23 21 -37 26 -79 25 -28 0 -61 -4 -73 -9z m124 -56 c25 -38 8 -59 -48 -59
-41 0 -44 2 -47 28 -5 45 4 57 42 57 27 0 40 -6 53 -26z m-32 -104 c25 0 55
-24 55 -43 0 -25 -17 -36 -62 -41 -44 -6 -48 -4 -54 19 -9 37 3 78 22 71 9 -3
26 -6 39 -6z"/>
<path d="M6407 1124 c-4 -4 -7 -52 -7 -106 0 -96 0 -98 23 -98 24 0 24 1 22
103 -2 79 -6 103 -17 105 -8 1 -17 0 -21 -4z"/>
<path d="M8763 1074 c-23 -50 -25 -65 -21 -142 5 -83 25 -146 52 -164 33 -23
76 12 45 36 -23 17 -49 96 -49 146 0 41 26 129 43 146 16 16 6 34 -19 34 -21
0 -29 -9 -51 -56z"/>
<path d="M9577 1123 c-4 -3 4 -25 17 -47 45 -77 43 -191 -5 -257 -24 -35 -24
-46 2 -54 31 -10 55 19 80 97 25 82 21 134 -18 216 -19 40 -30 52 -47 52 -12
0 -26 -3 -29 -7z"/>
</g>
</svg>
