<?xml version="1.0" standalone="no"?>
<!DOCTYPE svg PUBLIC "-//W3C//DTD SVG 20010904//EN"
 "http://www.w3.org/TR/2001/REC-SVG-20010904/DTD/svg10.dtd">
<svg version="1.0" xmlns="http://www.w3.org/2000/svg"
 width="1335.000000pt" height="489.000000pt" viewBox="0 0 1335.000000 489.000000"
 preserveAspectRatio="xMidYMid meet">
<metadata>
Created by potrace 1.10, written by Peter Selinger 2001-2011
</metadata>
<g transform="translate(0.000000,489.000000) scale(0.100000,-0.100000)"
fill="#000000" stroke="none">
<path d="M1366 4664 c-3 -9 -6 -220 -6 -469 0 -451 0 -454 21 -460 11 -4 114
-5 227 -4 130 2 207 0 206 -6 0 -10 -27 -68 -43 -95 -5 -8 -12 -22 -16 -30 -7
-17 -22 -42 -48 -82 -11 -15 -16 -32 -12 -38 8 -13 35 -13 35 0 0 6 11 15 25
20 14 5 25 14 25 20 0 5 8 10 18 10 16 0 17 -25 14 -413 -3 -351 -1 -415 11
-425 36 -30 39 2 35 427 -3 389 -2 411 15 411 10 0 20 -7 23 -15 4 -8 13 -15
20 -15 8 0 17 -7 20 -15 8 -19 44 -20 44 -1 0 7 -8 24 -17 37 -26 35 -42 62
-49 79 -3 8 -10 22 -15 30 -14 24 -43 84 -43 93 -1 5 2458 12 2639 7 13 0 -24
-34 -106 -96 -36 -28 -76 -61 -89 -74 l-23 -23 34 7 c19 4 53 9 77 13 38 5 42
4 42 -16 0 -12 -7 -24 -15 -27 -8 -4 -15 -11 -15 -16 0 -11 -29 -76 -56 -130
-8 -14 -14 -33 -14 -42 0 -9 -4 -16 -10 -16 -5 0 -10 -7 -10 -16 0 -9 -10 -38
-21 -63 -12 -25 -25 -55 -30 -66 -4 -11 -17 -41 -28 -67 -12 -26 -21 -54 -21
-62 0 -9 -4 -16 -10 -16 -5 0 -12 -16 -16 -35 -3 -19 -10 -35 -14 -35 -4 0
-11 -12 -14 -27 -4 -16 -13 -41 -20 -58 -8 -16 -19 -41 -24 -55 -34 -80 -54
-127 -62 -145 -12 -28 -43 -102 -64 -155 -10 -25 -24 -58 -32 -75 -7 -16 -20
-48 -29 -70 -9 -22 -22 -53 -30 -70 -7 -16 -18 -41 -23 -55 -6 -14 -20 -46
-31 -72 -12 -26 -21 -51 -21 -57 0 -5 -6 -22 -14 -38 -8 -15 -21 -44 -29 -63
-8 -19 -22 -51 -30 -70 -8 -19 -20 -46 -25 -60 -6 -14 -20 -46 -31 -72 -12
-26 -21 -54 -21 -62 0 -9 -4 -16 -10 -16 -5 0 -10 -6 -10 -12 -1 -7 -9 -31
-20 -53 -11 -22 -19 -45 -20 -52 0 -6 -6 -24 -14 -40 -13 -25 -22 -46 -54
-123 -6 -14 -20 -46 -31 -72 -12 -26 -21 -54 -21 -62 0 -9 -4 -16 -9 -16 -5 0
-12 -13 -16 -29 -3 -16 -13 -35 -21 -42 -17 -14 -19 -65 -3 -75 14 -8 54 34
63 67 4 13 13 38 21 54 7 17 18 41 23 55 28 66 55 128 68 157 8 17 14 37 14
45 0 7 7 22 15 32 8 11 15 28 15 38 0 10 5 18 10 18 6 0 10 7 10 16 0 13 11
41 50 129 39 88 50 116 50 129 0 9 4 16 10 16 5 0 12 16 16 35 3 19 10 35 14
35 4 0 11 12 14 28 4 15 13 41 20 57 8 17 19 41 24 55 34 80 54 127 62 145 37
83 50 115 50 124 0 5 6 22 14 38 8 15 22 46 31 68 9 22 22 54 30 70 7 17 18
41 23 55 28 66 55 128 68 157 8 17 14 38 14 47 0 9 4 16 9 16 5 0 12 12 15 28
4 15 13 41 20 57 8 17 19 41 24 55 6 14 20 48 32 75 11 28 27 62 35 77 8 14
15 36 15 47 0 12 5 21 10 21 6 0 10 6 10 13 1 6 9 30 20 52 11 22 19 45 20 52
0 6 8 26 17 45 30 59 33 68 33 80 0 7 10 33 21 58 l20 44 24 -29 c13 -17 24
-36 25 -42 0 -7 9 -13 20 -13 19 0 19 5 15 93 -3 50 -8 111 -10 135 -3 23 -1
42 3 42 218 5 867 0 866 -6 0 -9 -28 -69 -43 -94 -5 -8 -12 -22 -16 -30 -7
-17 -22 -42 -48 -82 -19 -28 -16 -48 8 -48 7 0 15 7 19 15 3 8 12 15 20 15 7
0 16 7 20 15 3 8 13 15 23 15 17 0 18 -20 15 -353 -3 -300 -2 -355 11 -365 36
-30 39 4 35 368 -3 330 -2 350 15 350 10 0 20 -7 23 -15 4 -8 13 -15 20 -15 8
0 17 -7 20 -15 8 -19 44 -20 44 -1 0 7 -8 24 -17 37 -34 46 -107 184 -108 203
0 8 863 11 872 2 3 -2 0 -62 -5 -132 -6 -70 -8 -133 -5 -141 9 -24 28 -13 49
30 25 51 54 57 68 12 5 -16 20 -55 33 -85 14 -30 31 -68 38 -85 21 -49 70
-155 109 -237 20 -42 36 -81 36 -87 0 -6 5 -11 10 -11 6 0 10 -7 10 -16 0 -9
6 -28 14 -42 8 -15 28 -57 45 -94 17 -38 44 -96 60 -130 16 -35 32 -73 36 -85
3 -13 11 -23 16 -23 5 0 9 -7 9 -16 0 -9 6 -28 14 -42 8 -15 28 -56 44 -92 73
-160 95 -209 122 -265 15 -33 42 -91 60 -130 33 -73 65 -143 119 -260 18 -38
39 -83 46 -100 7 -16 34 -75 60 -130 25 -55 59 -127 74 -160 15 -33 38 -81 49
-106 12 -25 22 -51 22 -58 0 -6 5 -11 10 -11 6 0 10 -7 10 -15 0 -8 14 -43 31
-77 17 -35 37 -76 44 -93 18 -42 72 -158 106 -231 16 -33 29 -65 29 -71 0 -19
57 -76 69 -69 16 10 14 52 -4 69 -7 8 -17 26 -21 41 -3 14 -10 26 -15 26 -5 0
-9 7 -9 16 0 9 -6 28 -14 42 -29 53 -86 181 -86 191 0 6 -4 11 -10 11 -5 0
-10 7 -10 15 0 8 -9 32 -20 52 -11 21 -20 43 -20 50 0 7 -4 13 -10 13 -5 0
-10 7 -10 15 0 8 -9 32 -20 52 -11 21 -20 43 -20 50 0 7 -4 13 -10 13 -5 0
-10 7 -10 15 0 8 -9 32 -20 52 -11 21 -20 43 -20 50 0 7 -4 13 -10 13 -5 0
-10 7 -10 16 0 9 -6 28 -14 42 -8 15 -31 63 -51 107 -20 44 -50 107 -66 141
-16 33 -29 66 -29 72 0 7 -4 12 -10 12 -5 0 -10 7 -10 16 0 9 -6 28 -14 42
-14 25 -28 56 -107 230 -17 37 -43 94 -59 127 -29 61 -63 136 -119 260 -32 69
-67 144 -109 236 -12 25 -22 51 -22 58 0 6 -4 11 -10 11 -5 0 -10 5 -10 12 0
6 -14 41 -31 77 -17 36 -43 93 -58 126 -35 75 -81 176 -109 236 -12 25 -22 51
-22 58 0 6 -4 11 -10 11 -5 0 -10 7 -10 15 0 21 -67 147 -86 161 -30 23 -15
36 39 34 28 -2 58 -2 65 -1 15 1 16 31 1 31 -12 0 -173 120 -180 133 -2 5 596
8 1328 8 1246 -1 1334 -2 1353 -18 11 -10 20 -21 20 -26 0 -5 13 -26 28 -46
16 -20 37 -54 47 -76 17 -38 41 -64 58 -65 4 0 5 27 1 60 -6 52 -4 60 10 60
17 0 78 -38 84 -52 2 -5 9 -8 15 -8 7 0 35 -15 62 -32 60 -39 121 -74 155 -91
14 -6 27 -14 30 -17 3 -3 16 -11 30 -18 14 -7 48 -26 75 -42 28 -17 61 -36 75
-43 14 -6 27 -15 30 -19 3 -4 17 -12 30 -17 14 -6 32 -15 40 -21 30 -19 146
-86 170 -98 14 -6 32 -16 40 -22 29 -19 145 -86 170 -98 14 -6 32 -16 40 -22
29 -19 145 -86 170 -98 14 -6 32 -16 40 -22 52 -34 169 -100 178 -100 5 0 12
-7 16 -15 7 -20 55 -19 62 0 6 16 -26 47 -76 74 -14 7 -45 24 -70 37 -25 14
-52 29 -60 34 -35 22 -147 87 -170 98 -14 7 -47 26 -75 42 -27 17 -61 36 -75
43 -14 6 -27 15 -30 19 -3 4 -17 12 -30 17 -14 6 -32 15 -40 21 -42 27 -151
90 -156 90 -4 0 -45 23 -92 52 -47 28 -102 60 -121 70 -20 10 -58 32 -86 49
-27 16 -61 35 -75 42 -14 6 -27 15 -30 19 -3 4 -17 12 -30 18 -14 5 -47 24
-75 40 -27 16 -88 48 -134 71 -45 22 -79 44 -75 49 5 4 31 19 57 34 39 21 61
26 120 26 44 0 78 5 85 12 9 9 12 127 12 469 0 403 -2 458 -15 463 -9 3 -1840
6 -4069 6 -3667 0 -4055 -2 -4060 -16z m895 -459 l0 -427 -422 1 c-232 0 -423
2 -426 4 -5 6 -5 836 1 845 2 4 194 6 425 5 l422 -2 0 -426z m900 0 l0 -426
-426 0 -426 0 0 426 c0 234 1 426 1 428 0 1 191 1 425 0 l426 -2 0 -426z m900
0 l0 -426 -426 0 -426 0 0 426 c0 234 1 426 1 428 0 1 191 1 425 0 l426 -2 0
-426z m900 0 l0 -426 -421 -1 c-232 0 -424 2 -426 5 -3 3 -7 794 -4 847 0 3
191 4 425 3 l426 -2 0 -426z m900 0 l0 -426 -426 0 -426 0 0 425 c0 234 1 427
1 429 0 1 191 1 425 0 l426 -2 0 -426z m900 -1 l0 -426 -426 0 -426 0 0 426
c0 234 1 427 1 429 0 1 191 1 425 0 l426 -2 0 -427z m900 1 l0 -426 -426 0
-426 0 0 426 c0 234 1 426 1 428 0 1 191 1 425 0 l426 -2 0 -426z m900 0 l0
-426 -422 0 c-232 0 -423 2 -426 4 -2 3 -6 799 -3 847 0 3 191 4 425 3 l426
-2 0 -426z m896 421 c5 -5 4 -836 -1 -845 -3 -4 -195 -6 -426 -5 l-421 3 0
425 c0 235 1 427 1 429 0 3 843 -3 847 -7z"/>
<path d="M1832 4350 c-13 -16 -35 -35 -50 -42 -29 -14 -40 -44 -23 -61 7 -7
16 -6 29 6 10 9 25 17 34 17 12 0 14 -19 14 -117 l-1 -118 25 0 25 0 0 170 c0
143 -2 170 -15 172 -8 1 -25 -11 -38 -27z"/>
<path d="M2704 4328 c-35 -41 -44 -67 -44 -123 0 -79 41 -145 90 -145 55 0 91
57 91 145 0 64 -15 104 -50 133 -23 19 -66 14 -87 -10z m80 -86 c7 -73 -4
-126 -28 -130 -28 -6 -36 15 -36 95 0 51 4 76 15 87 26 26 42 9 49 -52z"/>
<path d="M3632 4316 c-17 -19 -36 -36 -43 -38 -14 -5 -5 -38 10 -38 5 0 17 7
25 16 19 18 18 19 16 -109 -1 -64 2 -78 16 -84 9 -3 24 -2 32 3 13 8 15 32 13
139 -2 121 -7 144 -32 145 -3 0 -20 -15 -37 -34z"/>
<path d="M4504 4328 c-35 -41 -44 -67 -44 -123 0 -79 41 -145 90 -145 56 0 90
55 90 145 0 66 -14 104 -49 133 -23 19 -66 14 -87 -10z m80 -85 c8 -74 -4
-127 -28 -131 -27 -6 -36 15 -36 90 0 82 6 98 35 98 21 0 24 -6 29 -57z"/>
<path d="M5414 4095 c-9 -23 9 -37 42 -33 21 2 29 8 29 23 0 26 -62 35 -71 10z"/>
<path d="M6332 4351 c-12 -16 -34 -36 -49 -43 -30 -14 -41 -44 -24 -61 7 -7
16 -6 29 6 10 9 27 17 36 17 16 0 18 -7 12 -52 -10 -92 -10 -168 1 -179 6 -6
19 -9 29 -7 18 3 19 16 19 173 0 145 -2 170 -15 173 -9 1 -26 -11 -38 -27z"/>
<path d="M7204 4328 c-35 -41 -44 -67 -44 -123 0 -79 41 -145 90 -145 56 0 90
55 90 145 0 66 -14 104 -49 133 -23 19 -66 14 -87 -10z m80 -96 c8 -68 -4
-116 -29 -120 -27 -6 -35 16 -35 95 0 53 4 76 16 88 25 24 41 3 48 -63z"/>
<path d="M8127 4345 c-15 -19 -35 -35 -43 -35 -21 0 -41 -47 -26 -62 9 -9 16
-7 30 5 10 9 27 17 36 17 15 0 17 -7 12 -47 -13 -112 -12 -175 5 -186 9 -6 24
-7 33 -4 16 6 17 24 14 174 -4 188 -11 202 -61 138z"/>
<path d="M9038 4322 c-13 -15 -31 -31 -41 -35 -18 -7 -23 -32 -7 -42 5 -3 19
-1 30 5 24 13 23 17 20 -97 -1 -70 1 -84 16 -90 9 -3 24 -2 32 3 13 8 15 32
13 139 -2 122 -7 144 -33 145 -3 0 -17 -13 -30 -28z"/>
<path d="M277 2517 c-30 -34 -32 -70 -5 -75 10 -2 23 9 34 27 29 49 60 51 84
5 18 -33 -3 -73 -42 -81 -15 -3 -28 -12 -28 -19 0 -13 15 -19 65 -26 16 -3 20
-11 20 -43 0 -33 -4 -42 -27 -52 -33 -17 -50 -10 -72 28 -13 21 -24 29 -39 27
-33 -5 -31 -32 5 -72 29 -31 39 -36 80 -36 42 0 50 4 82 42 20 23 36 47 36 54
0 26 -23 62 -42 68 -20 5 -20 5 2 41 42 68 -3 145 -84 145 -34 0 -46 -6 -69
-33z"/>
<path d="M634 2538 c-4 -7 -7 -73 -6 -148 2 -74 -1 -141 -6 -148 -7 -10 -14
-11 -35 -1 -26 12 -27 16 -27 89 0 69 2 79 22 92 l22 15 -22 12 c-16 9 -22 21
-22 46 0 18 -4 36 -9 40 -14 8 -40 -33 -34 -54 3 -11 -2 -21 -11 -24 -20 -8
-21 -33 0 -41 12 -5 15 -22 13 -95 -2 -62 1 -95 10 -105 15 -18 48 -21 70 -7
8 5 26 5 44 -1 40 -14 45 -4 39 90 -3 68 -1 80 17 100 55 57 86 10 76 -110 -6
-76 -6 -77 19 -84 45 -11 49 1 43 106 -5 86 -9 101 -31 125 -24 25 -30 27 -76
21 l-51 -7 3 48 c3 43 1 48 -19 51 -11 2 -25 -3 -29 -10z"/>
<path d="M1724 2535 c-8 -21 4 -35 30 -35 31 0 50 22 34 38 -17 17 -58 15 -64
-3z"/>
<path d="M1953 2534 c-7 -18 14 -35 37 -31 8 1 16 12 18 25 3 18 -1 22 -23 22
-14 0 -28 -7 -32 -16z"/>
<path d="M4883 2538 c-10 -15 -10 -309 1 -326 5 -8 38 -12 93 -12 82 0 86 1
114 31 23 24 29 40 29 74 0 26 -6 47 -15 55 -19 16 -19 39 1 61 21 23 13 57
-22 98 -25 30 -28 31 -109 31 -55 0 -86 -4 -92 -12z m173 -63 c12 -47 1 -69
-37 -79 -20 -5 -48 -6 -63 -2 -24 6 -26 11 -26 55 0 56 4 58 77 52 35 -2 44
-7 49 -26z m8 -140 c32 -49 8 -88 -56 -87 -83 1 -78 -2 -78 51 0 56 4 59 71
60 39 1 49 -3 63 -24z"/>
<path d="M5174 2535 c-9 -24 10 -39 41 -31 18 5 25 12 23 24 -4 23 -56 29 -64
7z"/>
<path d="M10503 2508 c-44 -87 -53 -117 -53 -178 0 -61 9 -91 53 -177 21 -43
31 -48 61 -37 22 8 20 19 -7 48 -12 13 -31 56 -41 95 -17 67 -17 74 -1 139 10
42 26 79 42 96 28 31 24 56 -9 56 -17 0 -29 -11 -45 -42z"/>
<path d="M10880 2541 c0 -5 -6 -16 -12 -23 -7 -8 -17 -21 -23 -30 -5 -8 -29
-43 -52 -77 -24 -34 -43 -67 -43 -72 0 -6 -23 -7 -59 -3 -70 8 -111 0 -111
-21 0 -19 1 -19 160 -20 l135 0 -3 -42 c-3 -45 7 -58 39 -48 18 6 20 12 15 46
-6 35 -4 39 19 45 33 8 32 32 -1 40 l-27 7 6 98 c4 81 2 99 -10 103 -21 9 -33
7 -33 -3z m-2 -153 l-3 -53 -37 -3 c-29 -2 -38 0 -38 12 0 9 5 16 10 16 6 0
10 5 10 10 0 15 42 70 52 70 5 0 8 -24 6 -52z"/>
<path d="M10994 2538 c-4 -6 -1 -16 7 -22 76 -58 86 -262 18 -348 -33 -41 -31
-58 6 -58 41 0 95 124 95 217 0 64 -46 197 -74 215 -17 11 -44 9 -52 -4z"/>
<path d="M11284 2538 c-4 -7 -7 -73 -6 -148 2 -74 -1 -141 -6 -148 -6 -9 -15
-10 -35 -3 -26 10 -27 13 -27 90 0 70 2 80 22 93 l22 15 -22 12 c-16 9 -22 21
-22 46 0 18 -4 36 -10 40 -13 8 -42 -39 -35 -57 4 -9 -1 -18 -9 -21 -20 -8
-21 -33 -1 -41 13 -5 15 -22 14 -89 -1 -48 4 -93 10 -105 12 -23 45 -29 70
-13 9 6 24 5 39 0 41 -16 49 1 44 88 -3 69 -1 81 17 101 54 57 86 11 75 -109
-6 -78 -6 -78 19 -84 41 -11 47 1 46 78 -2 92 -8 119 -37 153 -22 24 -28 26
-73 20 l-50 -7 3 48 c3 43 1 48 -19 51 -11 2 -25 -3 -29 -10z"/>
<path d="M12374 2535 c-3 -8 -3 -19 1 -25 14 -23 78 0 69 25 -8 19 -63 20 -70
0z"/>
<path d="M12603 2534 c-7 -18 14 -35 37 -31 8 1 16 12 18 25 3 18 -1 22 -23
22 -14 0 -28 -7 -32 -16z"/>
<path d="M1847 2513 c-4 -3 -7 -16 -7 -28 0 -13 -7 -28 -15 -35 -14 -12 -14
-15 0 -30 11 -12 15 -39 15 -99 0 -45 5 -91 10 -102 13 -22 48 -25 76 -5 18
14 18 15 -8 25 -24 9 -28 16 -29 53 -1 24 -3 59 -4 79 -3 31 0 38 23 49 l27
12 -22 15 c-15 10 -23 26 -23 44 0 21 -5 29 -18 29 -10 0 -22 -3 -25 -7z"/>
<path d="M12497 2513 c-4 -3 -7 -16 -7 -28 0 -13 -7 -28 -15 -35 -14 -12 -14
-15 0 -30 11 -12 15 -40 15 -103 0 -64 4 -89 16 -101 19 -20 44 -20 70 -2 18
14 18 15 -8 25 -26 10 -28 15 -28 68 0 32 -3 68 -6 80 -5 18 -1 25 22 34 l29
11 -22 15 c-15 10 -23 26 -23 44 0 21 -5 29 -18 29 -10 0 -22 -3 -25 -7z"/>
<path d="M1009 2459 c-7 -16 -4 -341 3 -345 4 -3 17 -2 29 1 17 6 20 14 17 48
l-3 42 46 -3 c44 -3 49 0 83 39 54 64 50 136 -10 198 -20 20 -30 22 -66 17
-24 -3 -47 -6 -53 -7 -5 -1 -18 2 -27 6 -10 4 -19 6 -19 4z m154 -96 c13 -45
-7 -109 -37 -117 -33 -8 -49 0 -63 31 -26 54 -7 121 37 136 23 7 54 -17 63
-50z"/>
<path d="M1281 2425 c-27 -31 -31 -43 -31 -95 0 -52 4 -64 31 -95 27 -30 37
-35 75 -35 104 0 151 144 74 228 -24 27 -36 32 -73 32 -39 0 -49 -5 -76 -35z
m122 -35 c10 -12 17 -37 17 -60 0 -50 -24 -80 -65 -80 -23 0 -35 7 -48 29 -21
36 -22 63 -2 101 12 24 22 30 48 30 20 0 39 -8 50 -20z"/>
<path d="M1526 2439 c-28 -22 -32 -44 -14 -84 7 -16 19 -25 33 -25 13 0 28 -6
35 -14 6 -8 21 -16 33 -18 16 -2 22 -10 22 -28 0 -21 -5 -26 -31 -28 -19 -2
-38 3 -47 12 -17 18 -53 21 -62 7 -3 -5 5 -21 18 -35 20 -21 33 -26 75 -26 52
0 68 9 98 55 28 44 -15 88 -101 104 -24 5 -30 11 -30 31 0 22 4 25 33 23 18 0
41 -8 50 -16 19 -16 42 -12 42 7 0 7 -10 22 -23 34 -31 29 -95 30 -131 1z"/>
<path d="M1971 2451 c-8 -5 -11 -43 -9 -127 3 -111 4 -119 23 -119 19 0 20 7
21 122 2 122 -4 143 -35 124z"/>
<path d="M2105 2452 c-36 -25 -55 -67 -55 -122 0 -44 5 -64 22 -86 31 -40 37
-44 85 -44 36 0 46 5 77 42 30 35 36 49 36 88 0 39 -6 53 -36 88 -31 37 -41
42 -77 42 -23 0 -47 -4 -52 -8z m93 -60 c6 -9 12 -37 12 -62 0 -50 -13 -75
-47 -84 -41 -13 -82 55 -68 111 14 57 70 76 103 35z"/>
<path d="M2350 2453 l-45 -4 -1 -119 c-2 -111 0 -120 18 -126 33 -10 41 11 42
103 1 85 2 88 28 100 50 25 58 11 58 -97 0 -92 2 -99 21 -105 39 -13 48 11 42
112 -5 78 -9 95 -30 117 -25 27 -28 27 -133 19z"/>
<path d="M5185 2449 c-4 -6 -8 -63 -9 -126 -1 -86 2 -117 11 -120 31 -12 38
14 37 128 -1 90 -5 114 -17 121 -10 5 -18 4 -22 -3z"/>
<path d="M5321 2451 l-45 -6 -3 -116 c-3 -114 -3 -117 19 -122 13 -4 27 -2 32
3 5 5 8 46 7 92 -1 46 3 89 7 96 5 8 25 14 43 15 l34 2 3 -102 c2 -91 5 -103
22 -108 34 -11 40 4 40 98 0 71 -4 98 -17 117 -29 43 -39 45 -142 31z"/>
<path d="M5545 2435 c-30 -29 -31 -40 -7 -50 11 -4 22 1 31 14 19 29 75 28 95
-1 18 -25 7 -38 -29 -38 -21 0 -85 -29 -110 -50 -21 -18 -18 -46 7 -80 18 -25
29 -30 64 -30 26 0 49 6 59 16 14 15 17 15 33 1 31 -29 39 -7 34 100 -5 127
-16 143 -98 143 -45 0 -59 -4 -79 -25z m124 -114 c26 -17 -25 -81 -64 -81 -27
0 -57 41 -37 48 7 2 22 12 34 22 25 21 46 24 67 11z"/>
<path d="M5783 2447 c-9 -15 -5 -229 4 -238 5 -5 18 -7 28 -3 15 6 17 16 12
77 -6 89 12 142 46 133 12 -3 27 -6 34 -6 6 0 14 -14 18 -31 4 -17 13 -42 21
-57 8 -15 14 -34 14 -42 0 -9 5 -21 11 -27 17 -17 7 -76 -16 -88 -43 -22 -47
-26 -34 -41 6 -8 24 -14 39 -14 37 0 56 33 100 170 19 58 40 113 48 122 18 21
12 52 -11 56 -27 5 -45 -15 -52 -60 -4 -23 -14 -57 -22 -76 -11 -27 -17 -32
-24 -21 -5 8 -9 24 -9 36 0 12 -4 24 -9 27 -4 3 -11 23 -15 45 -4 26 -12 42
-25 46 -26 8 -152 2 -158 -8z"/>
<path d="M11657 2453 c-2 -5 -3 -82 -3 -173 l1 -165 25 0 c24 0 25 3 22 49
l-2 48 46 -7 c40 -6 49 -3 71 17 68 63 72 148 9 215 -24 26 -87 31 -108 10
-10 -12 -15 -12 -26 0 -15 15 -29 17 -35 6z m153 -83 c19 -71 -18 -142 -67
-126 -40 13 -56 104 -25 142 36 45 78 37 92 -16z"/>
<path d="M11931 2425 c-27 -31 -31 -43 -31 -95 0 -52 4 -64 31 -95 27 -30 37
-35 75 -35 105 0 151 144 73 228 -25 27 -37 32 -73 32 -38 0 -48 -5 -75 -35z
m123 -40 c21 -32 20 -90 -1 -115 -27 -31 -75 -27 -96 9 -21 35 -21 52 -3 96
13 30 20 35 49 35 26 0 39 -6 51 -25z"/>
<path d="M12176 2439 c-28 -22 -32 -44 -14 -84 7 -16 19 -25 33 -25 13 0 28
-6 35 -14 6 -8 21 -16 33 -18 16 -2 22 -10 22 -28 0 -21 -5 -26 -31 -28 -19
-2 -38 3 -47 12 -17 18 -67 22 -67 6 0 -6 12 -22 26 -35 21 -19 38 -25 75 -25
49 0 65 10 95 55 28 44 -15 88 -101 104 -24 5 -30 11 -30 31 0 31 24 37 67 16
58 -30 80 -10 35 32 -31 29 -95 30 -131 1z"/>
<path d="M12621 2451 c-8 -5 -11 -43 -9 -127 3 -111 4 -119 23 -119 19 0 20 7
21 122 1 122 -5 142 -35 124z"/>
<path d="M12755 2452 c-36 -25 -55 -67 -55 -122 0 -44 5 -64 22 -86 31 -40 37
-44 85 -44 36 0 46 5 77 42 30 35 36 49 36 88 0 39 -6 53 -36 88 -31 37 -41
42 -77 42 -23 0 -47 -4 -52 -8z m93 -60 c6 -9 12 -37 12 -62 0 -80 -49 -112
-95 -63 -22 24 -26 35 -22 71 8 71 67 102 105 54z"/>
<path d="M13000 2453 l-45 -4 -1 -119 c-2 -111 0 -120 18 -126 33 -10 43 11
40 81 -5 91 3 122 35 128 49 9 52 2 55 -106 3 -102 3 -102 29 -105 15 -2 28 3
31 10 2 7 2 54 -1 105 -5 76 -10 96 -28 117 -24 27 -27 27 -133 19z"/>
<path d="M1730 2331 c0 -123 3 -133 42 -123 16 4 18 17 15 121 l-3 116 -27 3
-27 3 0 -120z"/>
<path d="M12380 2332 c0 -97 3 -121 15 -126 39 -15 44 1 42 122 l-3 117 -27 3
-27 3 0 -119z"/>
<path d="M305 1973 c-14 -21 -25 -44 -25 -53 0 -8 -7 -24 -15 -34 -21 -27 -20
-147 1 -194 55 -126 65 -137 103 -113 11 7 9 15 -11 42 -14 19 -33 62 -43 97
-18 61 -18 65 0 139 9 42 26 86 36 97 23 24 24 42 3 50 -22 9 -21 10 -49 -31z"/>
<path d="M416 2002 c-2 -4 -6 -78 -7 -165 -3 -166 2 -188 38 -169 16 9 18 22
14 107 -3 90 -2 97 15 93 13 -2 20 -14 22 -38 2 -19 8 -40 12 -45 5 -6 12 -30
16 -53 12 -76 64 -92 77 -24 12 61 29 118 38 127 5 5 9 21 9 36 0 29 18 51 22
27 1 -7 2 -62 3 -123 0 -103 1 -110 20 -110 19 0 20 7 20 170 0 160 -1 170
-19 170 -11 0 -26 -14 -37 -35 -10 -19 -22 -39 -26 -45 -7 -9 -32 -82 -49
-144 l-7 -25 -18 23 c-10 12 -21 39 -25 59 -4 20 -13 46 -20 57 -8 11 -14 29
-14 40 0 38 -68 93 -84 67z"/>
<path d="M824 1987 c-38 -40 -46 -65 -34 -102 7 -22 19 -35 35 -39 14 -4 25
-11 25 -16 0 -6 19 -10 43 -10 63 0 100 -43 81 -94 -5 -12 -20 -16 -64 -16
-51 0 -60 3 -74 25 -18 27 -66 35 -66 11 0 -7 17 -30 37 -50 35 -33 42 -36 99
-36 61 0 63 1 98 42 42 49 44 63 13 109 -16 25 -31 35 -54 37 -17 2 -37 10
-43 18 -7 8 -22 14 -34 14 -12 0 -31 6 -41 14 -17 12 -18 18 -7 40 6 14 17 26
24 27 7 0 27 2 43 3 22 2 38 -6 60 -29 35 -36 70 -37 59 -2 -3 12 -18 34 -33
49 -23 24 -34 27 -86 28 -49 0 -64 -4 -81 -23z"/>
<path d="M1101 2001 c-11 -7 -14 -42 -14 -166 0 -124 3 -159 14 -166 8 -5 48
-9 90 -9 70 0 77 2 100 28 14 15 31 39 38 53 13 27 7 47 -31 100 -9 13 -8 20
5 34 26 25 21 67 -11 103 -27 31 -32 32 -103 32 -41 0 -80 -4 -88 -9z m155
-58 c18 -24 17 -43 -4 -71 -15 -20 -26 -23 -68 -20 l-49 3 -3 44 c-2 24 -1 49
2 56 7 20 105 11 122 -12z m15 -144 c13 -20 11 -53 -3 -71 -9 -11 -33 -17 -73
-20 l-60 -3 -3 44 c-5 69 -1 73 69 68 37 -3 65 -10 70 -18z"/>
<path d="M1374 1996 c-5 -14 0 -23 33 -60 7 -8 17 -44 24 -82 9 -54 9 -82 -1
-133 -13 -64 -19 -77 -52 -109 -21 -20 -7 -42 28 -42 17 0 25 7 30 25 3 14 10
25 14 25 5 0 11 14 15 31 4 17 13 42 21 57 18 35 18 130 -1 166 -8 15 -15 36
-15 46 0 10 -6 25 -13 32 -8 7 -19 23 -26 36 -13 25 -49 30 -57 8z"/>
<path d="M5363 1995 c-7 -20 14 -36 42 -33 12 2 20 11 20 23 0 26 -52 35 -62
10z"/>
<path d="M10505 1973 c-14 -21 -25 -43 -25 -49 0 -7 -7 -25 -15 -40 -20 -39
-19 -146 1 -192 55 -126 65 -137 103 -113 11 7 9 15 -12 42 -14 19 -33 64 -43
100 -16 62 -16 71 -1 133 9 37 26 80 37 96 24 34 25 46 4 54 -22 9 -21 10 -49
-31z"/>
<path d="M10614 1998 c-13 -20 -4 -322 9 -330 18 -12 195 -9 202 2 16 26 -18
40 -91 40 l-74 0 7 141 c4 114 3 143 -8 150 -20 12 -37 11 -45 -3z"/>
<path d="M10893 1980 c-18 -17 -36 -42 -39 -55 -12 -47 57 -105 124 -105 59 0
104 -64 70 -98 -7 -7 -35 -12 -63 -12 -44 0 -54 4 -77 30 -29 33 -55 39 -65
14 -4 -11 7 -29 36 -55 39 -37 46 -39 104 -39 59 0 64 2 96 37 29 32 33 41 28
76 -6 45 -35 77 -70 77 -13 0 -32 7 -43 15 -10 8 -29 15 -40 15 -33 0 -49 25
-36 54 8 18 20 25 53 28 37 3 46 0 72 -28 30 -34 57 -35 57 -4 0 10 -14 32
-31 49 -27 27 -37 31 -87 31 -50 0 -61 -4 -89 -30z"/>
<path d="M11176 2001 c-18 -7 -19 -18 -17 -166 1 -88 5 -162 7 -165 3 -3 44
-7 91 -9 82 -3 85 -2 112 25 15 16 31 41 34 55 7 29 -9 89 -24 89 -15 0 -10
32 7 51 21 23 11 66 -22 102 -23 25 -31 27 -97 26 -40 0 -81 -4 -91 -8z m145
-41 c4 0 12 -13 19 -29 10 -25 9 -33 -6 -56 -15 -23 -22 -26 -68 -23 l-51 3
-3 44 c-5 64 0 69 55 65 26 -2 51 -3 54 -4z m19 -160 c23 -23 26 -49 7 -74 -9
-12 -29 -17 -72 -19 l-60 -2 -3 44 c-5 65 0 71 58 71 37 0 55 -5 70 -20z"/>
<path d="M11446 1995 c-3 -8 1 -18 8 -22 69 -42 79 -265 15 -346 -32 -40 -31
-57 5 -57 25 0 46 17 46 38 0 7 7 20 15 28 8 9 15 26 15 39 0 13 5 27 10 30 6
3 10 42 10 85 0 43 -4 82 -10 85 -5 3 -10 14 -10 23 0 21 -38 94 -54 104 -18
13 -44 9 -50 -7z"/>
<path d="M5745 1976 c-10 -14 -15 -30 -11 -33 3 -4 -3 -16 -15 -29 l-20 -22
21 -15 c19 -13 21 -23 19 -100 -2 -59 1 -90 10 -101 17 -20 65 -21 80 -2 10
12 7 17 -15 28 -25 12 -27 18 -31 89 -3 74 -3 76 24 88 27 12 27 13 8 27 -10
8 -23 14 -27 14 -5 0 -6 10 -3 23 3 12 0 31 -8 41 -14 19 -15 19 -32 -8z"/>
<path d="M4877 1913 c-3 -5 -5 -82 -4 -173 l2 -165 25 0 c23 0 25 4 25 45 l0
45 46 -3 c44 -3 49 0 83 39 55 65 50 142 -13 197 -21 19 -33 23 -66 18 -22 -3
-44 -6 -50 -7 -5 -1 -17 2 -26 5 -10 4 -19 4 -22 -1z m156 -94 c13 -48 -6
-105 -37 -113 -33 -8 -49 0 -63 31 -17 36 -16 68 2 103 27 52 82 41 98 -21z"/>
<path d="M5151 1885 c-27 -31 -31 -43 -31 -95 0 -52 4 -64 31 -95 27 -30 37
-35 75 -35 74 0 117 67 104 162 -3 20 -17 50 -33 67 -22 26 -35 31 -71 31 -38
0 -48 -5 -75 -35z m122 -35 c10 -12 17 -37 17 -60 0 -50 -24 -80 -65 -80 -23
0 -35 7 -48 29 -21 36 -22 63 -2 101 12 24 22 30 48 30 20 0 39 -8 50 -20z"/>
<path d="M5384 1909 c-4 -7 -7 -62 -7 -122 0 -91 3 -113 16 -121 9 -6 19 -7
23 -3 9 8 8 232 -1 246 -8 14 -22 14 -31 0z"/>
<path d="M5484 1909 c-8 -13 -9 -237 -1 -245 3 -3 15 -3 27 1 21 7 21 11 15
76 -6 55 -4 77 10 105 15 33 20 36 48 30 17 -3 33 -9 36 -12 3 -3 6 -49 6
-102 0 -78 3 -97 15 -99 34 -6 39 9 31 116 -6 92 -9 105 -30 122 -28 23 -84
25 -105 3 -9 -8 -16 -11 -16 -6 0 14 -28 23 -36 11z"/>
<path d="M2205 1023 c-14 -16 -27 -37 -30 -48 -22 -109 -10 -203 30 -245 38
-40 101 -42 132 -6 36 41 45 65 48 132 3 72 -13 130 -47 169 -32 37 -97 35
-133 -2z m101 -38 c23 -23 25 -30 22 -116 -3 -85 -5 -93 -28 -111 -51 -37 -80
6 -80 119 0 68 11 108 35 125 16 12 25 9 51 -17z"/>
<path d="M2560 1040 c-12 -7 -14 -34 -12 -147 2 -76 -1 -144 -6 -151 -6 -9
-15 -10 -35 -3 -26 10 -27 13 -27 90 0 70 2 80 22 93 l22 15 -22 12 c-16 9
-22 21 -22 46 0 24 -5 35 -15 35 -18 0 -38 -36 -29 -52 4 -6 -1 -17 -11 -24
-17 -13 -17 -15 -1 -33 14 -15 16 -34 14 -103 -2 -61 1 -90 11 -101 15 -18 48
-22 70 -8 9 6 24 5 39 0 41 -16 49 1 44 88 -3 69 -1 81 17 101 29 29 59 28 71
-3 5 -14 7 -61 3 -104 -6 -80 -6 -80 20 -86 44 -12 49 -1 43 101 -4 77 -9 99
-28 125 -22 30 -25 31 -76 25 l-53 -6 3 47 c3 50 -10 64 -42 43z"/>
<path d="M3643 1034 c-8 -21 10 -36 38 -32 16 2 25 11 27 26 3 19 -1 22 -28
22 -19 0 -33 -6 -37 -16z"/>
<path d="M3873 1034 c-7 -18 14 -35 37 -31 8 1 16 12 18 25 3 18 -1 22 -23 22
-14 0 -28 -7 -32 -16z"/>
<path d="M3772 1018 c-7 -7 -12 -22 -12 -34 0 -12 -7 -27 -15 -34 -14 -12 -14
-15 0 -30 11 -12 15 -39 15 -101 0 -105 11 -125 63 -115 43 8 48 22 12 36 -23
9 -25 15 -25 67 0 32 -3 68 -6 80 -5 18 -1 25 22 33 l29 11 -22 17 c-12 9 -23
30 -25 46 -3 33 -18 42 -36 24z"/>
<path d="M2927 953 c-8 -12 -3 -330 5 -338 4 -4 16 -4 28 0 20 6 22 12 16 51
l-6 44 46 -7 c38 -5 48 -2 70 18 36 33 54 72 54 114 0 44 -13 72 -49 103 -21
19 -33 23 -66 18 -22 -3 -44 -6 -50 -7 -5 -1 -17 2 -26 5 -10 4 -19 4 -22 -1z
m148 -74 c18 -33 18 -42 5 -90 -16 -58 -73 -65 -97 -12 -18 38 -16 84 5 109
33 41 64 38 87 -7z"/>
<path d="M3201 923 c-27 -32 -31 -46 -31 -95 0 -50 4 -62 31 -93 27 -30 37
-35 75 -35 105 0 151 144 73 228 -25 27 -37 32 -74 32 -38 0 -47 -5 -74 -37z
m122 -33 c10 -12 17 -37 17 -60 0 -50 -24 -80 -65 -80 -23 0 -35 7 -48 29 -21
36 -22 63 -2 101 12 24 22 30 48 30 20 0 39 -8 50 -20z"/>
<path d="M3446 939 c-28 -22 -32 -44 -14 -84 7 -16 19 -25 34 -25 12 0 29 -6
36 -14 8 -8 23 -16 34 -18 13 -2 19 -12 19 -28 0 -21 -5 -26 -31 -28 -19 -2
-38 3 -47 12 -18 18 -53 21 -62 6 -3 -5 6 -21 21 -35 21 -19 38 -25 75 -25 49
0 65 10 95 55 28 44 -15 88 -101 104 -24 5 -30 11 -30 31 0 22 4 25 33 23 18
0 41 -8 50 -16 19 -16 42 -12 42 7 0 7 -10 22 -23 34 -31 29 -95 30 -131 1z"/>
<path d="M3891 951 c-8 -5 -11 -43 -9 -127 3 -111 4 -119 23 -119 19 0 20 7
21 122 0 122 -5 142 -35 124z"/>
<path d="M4025 952 c-36 -25 -55 -67 -55 -122 0 -44 5 -64 22 -86 31 -40 37
-44 85 -44 36 0 46 5 77 42 30 35 36 49 36 88 0 39 -6 53 -36 88 -31 37 -41
42 -77 42 -23 0 -47 -4 -52 -8z m93 -60 c6 -9 12 -37 12 -62 0 -80 -49 -112
-95 -63 -23 24 -26 34 -22 73 8 71 66 101 105 52z"/>
<path d="M4270 953 l-45 -4 -1 -119 c-1 -110 1 -120 19 -126 32 -10 40 11 41
103 1 86 2 88 29 101 51 24 57 13 57 -97 0 -100 0 -101 26 -107 32 -8 47 10
39 50 -3 16 -5 56 -5 90 0 52 -4 65 -25 89 -27 28 -29 28 -135 20z"/>
<path d="M3650 831 c0 -124 3 -133 43 -123 16 4 17 16 15 121 l-3 116 -27 3
-28 3 0 -120z"/>
<path d="M6721 403 c-13 -27 -30 -60 -38 -75 -18 -36 -17 -151 3 -196 49 -116
62 -130 98 -116 22 8 20 19 -6 47 -13 14 -32 55 -42 92 -18 64 -18 70 -2 139
11 46 26 82 42 100 29 31 25 56 -8 56 -18 0 -29 -11 -47 -47z"/>
<path d="M7215 440 c-3 -5 8 -27 25 -49 61 -75 60 -248 -2 -324 -33 -42 -28
-64 14 -54 39 10 88 127 88 212 0 65 -45 198 -74 217 -16 11 -44 10 -51 -2z"/>
<path d="M7502 441 c-11 -6 -11 -20 -5 -62 10 -54 3 -232 -8 -243 -3 -4 -18
-2 -33 3 -25 10 -26 13 -26 90 0 72 2 81 22 92 l21 11 -22 17 c-13 10 -22 24
-21 32 5 31 -1 49 -15 49 -18 0 -37 -34 -29 -53 3 -8 -2 -17 -10 -20 -20 -8
-21 -33 -1 -40 11 -5 15 -29 17 -103 3 -110 14 -127 66 -108 17 7 37 7 51 2
40 -14 48 3 43 89 -3 69 -1 81 17 101 54 57 86 11 75 -109 -6 -78 -6 -78 19
-84 45 -12 50 -1 44 101 -5 76 -10 99 -29 125 -22 30 -25 31 -76 25 l-53 -6 3
47 c3 42 0 48 -17 51 -11 1 -26 -2 -33 -7z"/>
<path d="M8593 434 c-8 -23 12 -38 41 -30 39 10 36 46 -4 46 -19 0 -33 -6 -37
-16z"/>
<path d="M8824 439 c-9 -16 21 -43 40 -36 9 4 16 16 16 27 0 15 -7 20 -24 20
-14 0 -28 -5 -32 -11z"/>
<path d="M7064 415 c-9 -14 -22 -25 -29 -25 -12 0 -55 -50 -55 -64 0 -14 58
-5 64 10 3 8 11 12 17 8 7 -4 10 -45 8 -123 l-4 -116 30 0 30 0 3 168 2 167
-25 0 c-15 0 -31 -9 -41 -25z"/>
<path d="M8722 418 c-7 -7 -12 -22 -12 -34 0 -12 -7 -27 -15 -34 -14 -12 -14
-15 0 -30 11 -12 15 -39 15 -99 0 -45 5 -91 10 -102 12 -22 48 -25 75 -5 18
13 17 14 -9 27 -26 13 -28 18 -30 93 -1 68 1 80 16 84 22 5 24 28 4 35 -8 3
-16 20 -18 38 -3 36 -17 46 -36 27z"/>
<path d="M7879 358 c-1 -2 -2 -78 -3 -170 -2 -139 0 -168 12 -173 27 -10 44
16 38 58 l-7 39 49 -7 c48 -6 50 -6 86 36 53 62 50 129 -9 197 -22 25 -86 31
-107 9 -10 -12 -15 -12 -26 0 -12 11 -30 17 -33 11z m155 -97 c13 -46 -7 -107
-38 -115 -33 -8 -49 0 -63 31 -26 54 -7 121 37 136 23 8 54 -17 64 -52z"/>
<path d="M8151 325 c-27 -31 -31 -43 -31 -95 0 -52 4 -64 31 -95 27 -30 37
-35 76 -35 37 0 49 5 73 32 53 57 52 139 -3 196 -25 26 -39 32 -73 32 -35 0
-47 -5 -73 -35z m122 -35 c10 -12 17 -37 17 -60 0 -50 -24 -80 -65 -80 -23 0
-35 7 -48 29 -21 36 -22 63 -2 101 12 24 22 30 48 30 20 0 39 -8 50 -20z"/>
<path d="M8396 339 c-14 -11 -26 -29 -26 -39 0 -32 22 -70 41 -70 10 0 37 -10
59 -21 31 -16 40 -27 38 -43 -4 -27 -58 -35 -81 -12 -17 17 -52 21 -61 8 -3
-5 6 -20 20 -35 20 -22 34 -27 73 -27 43 0 52 4 80 35 36 41 34 37 20 68 -11
24 -52 46 -104 56 -24 5 -30 11 -30 31 0 22 4 25 33 23 18 0 41 -8 50 -16 19
-16 42 -12 42 7 0 7 -10 22 -23 34 -31 29 -95 30 -131 1z"/>
<path d="M8841 351 c-8 -5 -11 -43 -9 -127 3 -111 4 -119 23 -119 19 0 20 7
21 122 0 122 -5 142 -35 124z"/>
<path d="M8975 352 c-36 -25 -55 -67 -55 -122 0 -44 5 -64 22 -86 31 -40 37
-44 85 -44 36 0 46 5 77 42 30 35 36 49 36 88 0 39 -6 53 -36 88 -31 37 -41
42 -77 42 -23 0 -47 -4 -52 -8z m93 -60 c6 -9 12 -37 12 -62 0 -50 -13 -75
-47 -84 -32 -10 -73 38 -73 86 0 70 69 109 108 60z"/>
<path d="M9220 353 l-45 -4 -1 -119 c-1 -108 1 -120 17 -125 33 -11 39 4 39
93 0 96 4 106 40 115 43 11 49 -2 52 -108 3 -93 5 -100 24 -103 34 -5 41 17
35 115 -5 76 -10 96 -28 117 -24 27 -27 27 -133 19z"/>
<path d="M8600 231 c0 -124 3 -133 43 -123 16 4 17 16 15 121 l-3 116 -27 3
-28 3 0 -120z"/>
<path d="M6813 233 c-18 -7 -16 -30 3 -37 27 -10 120 -6 132 6 22 22 -7 38
-67 37 -31 0 -62 -3 -68 -6z"/>
</g>
</svg>
