<?xml version="1.0" standalone="no"?>
<!DOCTYPE svg PUBLIC "-//W3C//DTD SVG 20010904//EN"
 "http://www.w3.org/TR/2001/REC-SVG-20010904/DTD/svg10.dtd">
<svg version="1.0" xmlns="http://www.w3.org/2000/svg"
 width="1350.000000pt" height="588.000000pt" viewBox="0 0 1350.000000 588.000000"
 preserveAspectRatio="xMidYMid meet">
<metadata>
Created by potrace 1.10, written by Peter Selinger 2001-2011
</metadata>
<g transform="translate(0.000000,588.000000) scale(0.100000,-0.100000)"
fill="#000000" stroke="none">
<path d="M4670 4430 c0 -23 5 -30 19 -30 26 0 34 15 21 40 -17 31 -40 25 -40
-10z"/>
<path d="M6991 4447 c-6 -6 -11 -19 -11 -28 0 -14 10 -19 48 -21 l47 -3 -4
-117 c-3 -111 -2 -117 18 -128 17 -9 26 -9 38 1 12 11 15 34 12 129 l-4 115
38 3 c38 3 59 25 41 41 -15 14 -210 21 -223 8z"/>
<path d="M8956 4439 c-41 -32 -56 -71 -56 -144 0 -111 54 -171 133 -148 98 28
102 249 6 298 -38 20 -51 19 -83 -6z m74 -49 c10 -6 16 -32 18 -82 3 -61 1
-77 -15 -97 -14 -17 -25 -22 -40 -17 -26 8 -33 33 -33 113 0 79 26 111 70 83z"/>
<path d="M4412 4438 c-8 -8 -12 -55 -12 -145 l0 -133 26 -10 c63 -24 173 -4
188 35 10 28 7 90 -6 103 -9 9 -9 20 0 46 16 43 7 80 -24 100 -29 19 -154 22
-172 4z m148 -58 c23 -43 -12 -77 -71 -68 -18 2 -25 10 -27 31 -5 46 4 57 47
57 30 0 43 -5 51 -20z m4 -116 c37 -36 4 -77 -58 -72 -37 3 -41 6 -44 31 -2
16 -1 35 2 43 7 19 80 18 100 -2z"/>
<path d="M7252 4433 c-4 -10 -9 -73 -11 -141 -2 -134 5 -160 41 -141 18 9 19
17 13 70 -8 66 10 109 44 109 26 0 31 -19 31 -106 l0 -75 28 3 27 3 -4 75 c-2
41 -9 89 -16 107 -12 29 -18 32 -62 35 -44 3 -48 5 -45 27 2 24 -13 51 -29 51
-5 0 -12 -8 -17 -17z"/>
<path d="M9126 4434 c-24 -24 -3 -94 29 -94 14 0 28 70 19 94 -8 20 -28 20
-48 0z"/>
<path d="M10533 4443 c-7 -2 -13 -20 -13 -39 0 -33 -1 -34 -38 -34 -59 0 -85
-34 -85 -109 0 -99 28 -123 128 -112 l50 6 0 145 c0 150 -3 160 -42 143z m-13
-144 c20 -47 3 -103 -32 -107 -50 -6 -77 70 -40 116 25 32 57 28 72 -9z"/>
<path d="M10754 4438 c-4 -7 -7 -26 -6 -43 2 -30 2 -30 -41 -27 -39 3 -47 0
-70 -28 -37 -43 -38 -121 -3 -165 23 -28 28 -30 87 -28 34 2 63 4 64 5 2 2 4
68 6 148 4 128 2 145 -13 148 -9 2 -20 -3 -24 -10z m-18 -125 c7 -10 13 -34
13 -53 0 -65 -51 -94 -83 -48 -44 62 25 160 70 101z"/>
<path d="M11183 4438 c-4 -7 -8 -24 -8 -38 0 -22 -5 -26 -45 -30 -37 -4 -48
-11 -65 -37 -11 -18 -24 -32 -28 -33 -4 0 -25 18 -47 41 -35 37 -42 40 -72 34
-116 -23 -124 -210 -10 -230 64 -10 124 27 93 58 -9 9 -16 9 -31 -1 -29 -18
-65 -15 -85 8 -26 29 -12 37 72 42 l71 5 17 -44 c23 -59 57 -76 133 -66 l57 8
0 145 c0 141 -1 145 -22 148 -11 2 -25 -3 -30 -10z m-219 -124 c9 -24 -2 -34
-39 -34 -39 0 -52 14 -35 35 17 20 66 19 74 -1z m206 -3 c24 -45 5 -121 -30
-121 -30 0 -50 28 -50 70 0 61 55 96 80 51z"/>
<path d="M8210 4411 c0 -11 -7 -27 -17 -36 -15 -16 -15 -19 2 -47 13 -23 16
-41 11 -79 -9 -64 0 -96 29 -103 51 -13 71 16 35 49 -17 16 -20 29 -18 74 3
47 6 56 22 56 20 0 38 -45 54 -130 6 -32 12 -41 31 -43 26 -4 41 12 41 45 0
23 30 83 43 83 4 0 7 -18 7 -39 0 -60 16 -93 43 -89 18 2 25 14 39 73 9 39 21
78 27 87 18 29 13 58 -8 58 -25 0 -34 -15 -41 -64 -9 -68 -35 -51 -54 37 -11
46 -41 35 -56 -20 -25 -96 -21 -89 -36 -69 -7 10 -15 35 -19 56 -7 44 -19 57
-55 62 -19 2 -25 9 -25 28 0 20 -6 26 -28 28 -21 3 -27 -1 -27 -17z"/>
<path d="M4808 4373 c-23 -3 -41 -11 -45 -21 -5 -9 -8 -57 -8 -107 0 -89 0
-90 25 -90 25 0 25 1 22 70 -3 60 -1 73 16 89 11 10 29 16 39 14 15 -3 18 -15
21 -91 l3 -88 27 3 c26 3 27 6 30 63 4 75 -20 142 -55 156 -13 5 -27 8 -31 7
-4 -1 -24 -3 -44 -5z"/>
<path d="M5011 4368 c-28 -15 -48 -44 -38 -55 4 -4 28 0 52 9 38 14 45 15 55
2 16 -18 5 -44 -18 -44 -27 0 -81 -29 -92 -49 -5 -10 -6 -31 -1 -47 l8 -29 84
0 84 0 3 60 c4 69 -3 113 -21 136 -17 23 -86 32 -116 17z m82 -125 c3 -5 1
-18 -4 -30 -6 -18 -16 -23 -44 -23 -40 0 -45 14 -13 41 21 19 53 25 61 12z"/>
<path d="M5225 4371 l-40 -6 0 -105 0 -105 25 0 c24 0 25 3 28 65 3 100 8 112
40 108 22 -2 30 -11 43 -48 9 -25 21 -58 27 -73 19 -46 12 -97 -13 -97 -7 0
-18 -7 -26 -16 -10 -13 -10 -17 2 -25 21 -13 56 -11 72 6 15 14 28 48 62 155
9 30 24 70 33 87 15 31 15 34 -1 50 -16 16 -18 16 -34 0 -10 -9 -22 -36 -28
-60 -13 -55 -36 -55 -50 0 -5 23 -14 47 -20 52 -14 14 -73 20 -120 12z"/>
<path d="M7518 4372 c-59 -25 -81 -145 -35 -197 41 -47 137 -43 152 7 10 29
-3 38 -33 22 -37 -19 -66 -18 -86 5 -27 30 -11 41 59 41 53 0 65 3 70 19 18
58 -68 129 -127 103z m70 -54 c22 -22 13 -38 -22 -38 -19 0 -42 3 -51 6 -14 6
-14 8 1 25 19 22 54 25 72 7z"/>
<path d="M7726 4373 c-22 -6 -55 -42 -56 -61 0 -20 31 -62 47 -62 25 0 73 -30
73 -46 0 -17 -34 -16 -87 1 -17 5 -25 3 -29 -10 -11 -28 20 -48 75 -49 39 -1
55 4 75 23 14 14 26 34 26 45 0 23 -47 57 -90 66 -35 7 -42 50 -8 50 13 0 29
-5 35 -11 12 -12 43 -6 43 8 -2 33 -60 58 -104 46z"/>
<path d="M7935 4373 c-29 -6 -65 -63 -64 -104 0 -53 21 -102 49 -116 54 -27
140 -4 140 38 0 27 -18 33 -45 15 -33 -22 -68 -20 -89 3 -28 30 -11 41 64 41
38 0 72 5 75 10 14 23 -7 69 -44 94 -36 25 -45 27 -86 19z m66 -59 c16 -19 -2
-34 -43 -34 -32 0 -44 15 -28 35 16 20 54 19 71 -1z"/>
<path d="M8628 4357 c-97 -90 -20 -259 94 -206 69 32 82 132 24 193 -40 43
-81 48 -118 13z m76 -43 c19 -18 22 -94 4 -112 -17 -17 -44 -15 -62 4 -21 20
-20 83 1 106 20 22 37 23 57 2z"/>
<path d="M9255 4373 c-31 -8 -55 -39 -55 -71 0 -26 7 -33 54 -55 30 -14 57
-31 61 -36 10 -18 -26 -25 -59 -12 -48 18 -51 18 -54 -10 -6 -55 110 -66 156
-14 12 14 22 31 22 37 0 18 -61 68 -84 68 -31 0 -50 16 -43 34 7 18 42 22 52
6 10 -16 55 -12 55 4 0 19 -48 56 -69 55 -9 -1 -25 -4 -36 -6z"/>
<path d="M9551 4373 c-19 -8 -51 -41 -51 -53 0 -5 13 -10 29 -10 17 0 33 5 36
10 10 15 51 12 66 -6 10 -13 10 -17 -2 -25 -8 -5 -23 -9 -33 -9 -32 0 -94 -34
-100 -54 -13 -48 37 -93 89 -80 13 3 41 7 62 7 l38 2 -3 95 c-2 54 -9 100 -15
107 -14 13 -95 25 -116 16z m84 -133 c12 -19 -15 -50 -44 -50 -39 0 -45 10
-19 37 22 24 52 30 63 13z"/>
<path d="M9770 4371 l-35 -6 -3 -99 c-3 -103 7 -137 34 -115 10 8 12 27 7 70
-7 67 10 104 52 115 23 6 36 34 16 34 -5 0 -15 2 -23 4 -7 2 -29 1 -48 -3z"/>
<path d="M9920 4373 c-41 -16 -64 -54 -68 -111 -3 -49 -1 -61 21 -86 45 -52
167 -43 167 13 0 28 -10 31 -41 16 -15 -8 -37 -15 -49 -15 -24 0 -65 39 -53
50 4 5 40 10 78 12 70 3 70 3 73 33 5 53 -77 109 -128 88z m64 -62 c15 -17 15
-19 1 -25 -26 -10 -73 -7 -80 5 -8 12 23 38 46 39 9 0 24 -8 33 -19z"/>
<path d="M10208 4358 c-44 -38 -30 -75 17 -44 31 21 71 20 79 0 8 -22 -1 -34
-26 -34 -38 0 -96 -32 -102 -56 -9 -35 12 -71 46 -78 17 -3 35 -3 41 1 6 3 31
7 56 7 43 1 46 3 44 26 -1 14 -3 53 -4 87 -4 78 -20 101 -79 109 -38 5 -49 2
-72 -18z m102 -126 c0 -26 -20 -42 -51 -42 -39 0 -44 15 -13 39 33 26 64 27
64 3z"/>
<path d="M4668 4273 c-4 -105 3 -136 27 -126 13 4 15 24 13 112 -3 90 -6 106
-20 109 -14 3 -17 -9 -20 -95z"/>
<path d="M518 4313 c-16 -4 -18 -20 -18 -148 0 -79 3 -146 8 -149 4 -2 52 -5
107 -5 189 -3 183 -3 189 17 4 11 15 27 25 36 18 16 20 15 41 -19 16 -26 28
-35 44 -33 27 4 23 32 -10 71 -31 37 -30 64 1 97 16 17 23 33 19 43 -9 24 -29
21 -52 -8 -25 -32 -30 -31 -61 6 -18 21 -31 28 -43 24 -27 -10 -22 -37 12 -68
17 -16 30 -34 30 -41 0 -10 -43 -72 -66 -95 -2 -2 -14 1 -27 7 -12 7 -51 13
-87 14 l-65 3 0 40 0 40 60 0 c64 0 85 8 85 30 0 11 -18 15 -72 17 l-73 3 -3
38 c-4 41 -8 39 83 38 66 -1 91 9 82 33 -5 13 -23 16 -99 15 -51 -1 -101 -3
-110 -6z"/>
<path d="M1549 4298 c-31 -33 -39 -61 -39 -136 0 -55 4 -74 25 -104 14 -21 34
-42 44 -48 33 -17 78 -1 105 39 22 31 26 48 26 108 0 113 -30 163 -100 163
-28 0 -46 -7 -61 -22z m100 -69 c14 -42 14 -91 -1 -126 -23 -52 -50 -57 -73
-13 -27 52 -16 156 19 182 16 11 43 -10 55 -43z"/>
<path d="M2292 4312 c-9 -6 -12 -44 -10 -153 3 -141 4 -144 26 -147 25 -4 25
-2 22 100 -2 72 6 112 21 103 5 -4 9 -17 9 -29 0 -13 7 -40 15 -59 8 -20 15
-47 15 -60 0 -30 36 -65 51 -50 12 12 38 116 39 156 0 15 4 27 10 27 13 0 19
-32 22 -115 3 -64 5 -70 26 -73 27 -4 25 -11 26 160 1 129 0 137 -19 142 -25
7 -65 -38 -65 -72 0 -13 -7 -30 -15 -38 -8 -9 -15 -28 -15 -44 0 -16 -4 -31
-9 -35 -13 -7 -51 43 -52 69 -1 29 -53 120 -70 123 -8 2 -20 -1 -27 -5z"/>
<path d="M2639 4291 c-17 -17 -29 -40 -29 -55 0 -35 56 -86 95 -86 42 -1 78
-30 73 -61 -3 -21 -9 -24 -49 -27 -35 -2 -49 2 -64 18 -22 24 -65 27 -65 4 0
-9 14 -29 31 -45 27 -25 39 -29 89 -29 53 0 61 3 84 31 34 40 35 91 1 124 -13
14 -32 25 -41 25 -21 0 -104 39 -104 48 1 41 83 51 108 14 19 -29 52 -29 52 0
0 38 -46 68 -102 68 -41 0 -54 -5 -79 -29z"/>
<path d="M2882 4312 c-9 -6 -12 -44 -10 -153 l3 -144 80 -3 c74 -2 82 -1 108
23 32 30 37 86 11 124 -12 17 -13 26 -5 34 18 18 13 76 -9 100 -17 18 -34 22
-93 25 -40 1 -78 -1 -85 -6z m107 -38 c30 -6 32 -9 29 -43 -3 -36 -4 -36 -48
-36 -44 0 -45 1 -48 34 -5 46 10 56 67 45z m33 -141 c21 -19 22 -32 3 -57 -16
-22 -72 -31 -92 -15 -13 12 -18 70 -6 82 13 13 77 7 95 -10z"/>
<path d="M2082 4287 c-21 -22 -22 -30 -16 -128 3 -57 10 -114 16 -126 12 -25
47 -37 65 -21 11 8 9 17 -7 43 -25 40 -27 111 -3 137 15 17 15 21 0 54 -9 19
-17 41 -17 49 0 21 -13 18 -38 -8z"/>
<path d="M966 4271 c-18 -34 -21 -67 -6 -76 6 -3 10 -36 10 -73 0 -95 6 -112
41 -112 35 0 48 19 24 36 -22 17 -32 103 -16 142 15 36 2 106 -21 110 -10 2
-23 -8 -32 -27z"/>
<path d="M1113 4237 c-17 -7 -34 -15 -38 -19 -4 -3 -8 -50 -10 -103 -2 -79 0
-98 13 -102 25 -10 41 24 35 76 -7 62 8 97 44 104 15 3 34 0 41 -5 9 -8 24 -8
51 1 39 11 71 7 71 -10 0 -5 -8 -12 -17 -16 -50 -16 -104 -47 -113 -63 -11
-21 -5 -46 18 -72 18 -21 98 -25 105 -5 3 9 7 9 20 -2 9 -7 23 -11 32 -8 12 5
13 22 8 104 -5 82 -10 100 -27 115 -29 24 -87 23 -120 -3 l-27 -21 -20 21
c-22 24 -22 24 -66 8z m206 -116 c17 -11 0 -45 -30 -62 -17 -9 -25 -8 -38 5
-14 15 -13 18 14 41 34 28 35 28 54 16z"/>
<path d="M1878 4235 c-19 -11 -28 -24 -28 -40 0 -29 5 -30 54 -10 27 12 41 13
57 5 24 -13 16 -30 -15 -30 -13 0 -29 -7 -36 -15 -7 -8 -21 -15 -31 -15 -24 0
-51 -42 -43 -66 15 -40 36 -54 85 -54 29 0 49 5 52 13 3 9 9 9 25 0 11 -6 23
-9 26 -6 3 4 6 44 6 89 0 72 -3 86 -23 109 -28 33 -90 42 -129 20z m98 -119
c15 -40 -45 -81 -74 -52 -16 15 -14 18 13 41 34 28 53 31 61 11z"/>
<path d="M4834 3975 c-4 -9 -2 -21 4 -27 16 -16 47 -5 47 17 0 26 -42 34 -51
10z"/>
<path d="M7003 3974 c-3 -8 1 -22 9 -30 12 -12 17 -12 33 -1 23 17 14 47 -15
47 -11 0 -23 -7 -27 -16z"/>
<path d="M7757 3978 c-15 -8 -17 -28 -17 -148 0 -162 -2 -160 104 -160 72 0
96 6 96 25 0 18 -23 25 -86 25 l-54 0 0 129 c0 134 -5 151 -43 129z"/>
<path d="M8024 3980 c-29 -11 -64 -58 -64 -84 0 -27 27 -66 44 -66 8 0 19 -7
26 -15 7 -8 27 -15 46 -15 52 0 82 -42 49 -70 -28 -24 -76 -18 -107 12 -31 30
-68 37 -68 13 0 -9 16 -31 36 -50 31 -30 42 -35 84 -35 69 0 110 35 110 94 0
45 -16 68 -55 79 -97 28 -124 50 -98 79 23 26 65 22 93 -7 13 -14 32 -25 42
-25 30 0 21 35 -17 69 -37 32 -77 39 -121 21z"/>
<path d="M8268 3983 l-38 -4 0 -149 c0 -169 -5 -160 95 -160 61 0 65 1 94 37
34 41 40 83 16 103 -11 10 -13 25 -9 67 6 50 5 56 -21 83 -30 31 -41 33 -137
23z m106 -62 c34 -37 -9 -85 -67 -74 -30 6 -39 22 -30 63 5 27 9 30 43 30 24
0 43 -7 54 -19z m11 -160 c0 -31 -4 -36 -34 -44 -49 -12 -81 4 -81 41 0 39 7
43 65 40 50 -3 50 -3 50 -37z"/>
<path d="M12071 3973 c-11 -10 -23 -31 -25 -46 -3 -16 -10 -34 -16 -42 -7 -9
-6 -16 6 -26 13 -11 15 -28 12 -91 -5 -88 5 -108 42 -88 20 11 21 17 15 78 -4
37 -8 71 -9 77 0 5 9 14 22 20 27 12 29 32 2 40 -27 9 -25 20 7 43 17 13 24
25 20 36 -8 21 -49 21 -76 -1z"/>
<path d="M12794 3975 c-8 -20 4 -35 27 -35 24 0 37 29 18 41 -21 13 -39 11
-45 -6z"/>
<path d="M9978 3973 c-3 -4 -3 -72 0 -151 4 -139 5 -143 26 -140 20 3 21 10
24 113 1 61 4 126 5 145 2 31 -1 35 -25 38 -14 2 -28 0 -30 -5z"/>
<path d="M12356 3964 c-9 -8 -16 -20 -16 -25 0 -5 -5 -15 -10 -22 -47 -55
-101 -140 -94 -147 5 -5 32 -10 59 -12 l50 -3 3 -38 c3 -36 5 -38 35 -35 28 3
32 7 33 36 1 17 7 39 14 47 10 13 10 19 -4 34 -13 15 -17 36 -16 88 1 37 1 74
1 81 -1 17 -37 15 -55 -4z m4 -129 c0 -27 -20 -41 -45 -31 -14 5 -14 8 1 31
21 33 44 32 44 0z"/>
<path d="M12577 3973 c-2 -5 -3 -71 -2 -148 l1 -140 39 -7 c71 -12 84 -9 120
28 30 30 35 43 35 83 0 38 -6 53 -29 79 -24 26 -37 32 -70 32 l-41 0 0 40 c0
36 -3 40 -24 40 -14 0 -26 -3 -29 -7z m118 -121 c6 -4 16 -20 23 -35 17 -40
-7 -97 -41 -97 -31 0 -45 16 -47 55 -3 45 -1 52 16 69 17 17 33 20 49 8z"/>
<path d="M8620 3957 c-16 -8 -26 -23 -28 -40 -2 -15 -8 -27 -13 -27 -16 0 -10
-28 7 -34 14 -5 16 -17 11 -77 -5 -61 -3 -73 14 -90 22 -22 38 -24 63 -6 17
13 17 14 -8 30 -23 16 -26 24 -26 77 0 50 3 61 21 70 19 10 19 13 6 28 -9 9
-17 32 -19 49 -3 31 -4 32 -28 20z"/>
<path d="M10303 3958 c-13 -6 -23 -20 -23 -30 0 -11 -4 -28 -10 -38 -7 -13 -6
-21 5 -30 10 -9 12 -28 8 -78 -4 -59 -2 -70 16 -89 12 -13 31 -23 42 -23 26 0
36 28 16 43 -10 7 -19 36 -23 74 -6 56 -5 62 16 73 20 11 20 13 6 29 -9 10
-16 32 -16 49 0 35 -3 36 -37 20z"/>
<path d="M12913 3957 c-14 -6 -23 -19 -23 -32 0 -13 -7 -28 -16 -36 -14 -11
-14 -13 0 -21 12 -7 16 -26 16 -81 0 -79 16 -117 51 -117 10 0 27 9 36 20 17
19 17 19 35 0 29 -31 87 -27 127 9 56 50 31 87 -82 125 -10 3 -17 12 -15 19 7
19 38 21 57 3 10 -9 25 -14 35 -10 20 8 20 14 0 42 -23 33 -92 31 -129 -4 -24
-22 -26 -28 -16 -50 7 -16 31 -34 61 -47 31 -14 50 -28 50 -39 0 -28 -19 -31
-62 -12 -38 17 -41 17 -53 1 -7 -10 -19 -15 -29 -11 -12 5 -16 20 -16 70 0 54
3 65 21 74 19 11 19 13 5 29 -9 10 -16 29 -16 44 0 32 -9 37 -37 24z"/>
<path d="M5147 3943 c-15 -51 -17 -82 -8 -88 6 -3 11 -39 11 -80 0 -54 4 -78
16 -89 19 -20 58 -21 73 -2 9 10 6 17 -12 29 -19 12 -23 24 -25 75 -2 53 0 62
19 72 18 10 19 13 6 28 -8 9 -17 28 -19 42 -4 32 -53 42 -61 13z"/>
<path d="M7323 3953 c-7 -2 -13 -14 -13 -24 0 -11 -4 -29 -10 -39 -7 -13 -5
-21 6 -31 12 -10 14 -24 8 -65 -3 -30 -3 -65 0 -79 7 -29 39 -49 66 -40 24 8
26 24 5 39 -10 7 -18 35 -22 70 -5 50 -3 61 13 73 15 11 17 17 6 33 -6 11 -12
31 -12 45 0 25 -16 31 -47 18z"/>
<path d="M4404 3891 c-9 -9 -4 -290 6 -296 24 -15 49 6 52 43 3 34 5 36 39 37
48 2 80 35 87 91 6 54 -2 83 -28 112 -18 19 -30 22 -86 20 -36 -2 -68 -5 -70
-7z m126 -51 c26 -26 26 -70 -1 -104 -24 -30 -32 -32 -53 -10 -32 32 -13 134
25 134 5 0 18 -9 29 -20z"/>
<path d="M4665 3893 c-6 -5 -23 -23 -38 -41 -40 -49 -37 -89 13 -140 53 -56
94 -58 139 -7 39 45 43 105 8 156 -19 29 -29 34 -67 37 -25 1 -50 -1 -55 -5z
m87 -56 c11 -17 10 -75 -2 -98 -7 -12 -21 -19 -39 -19 -22 0 -31 7 -41 30 -13
31 -7 74 13 98 12 15 57 8 69 -11z"/>
<path d="M4847 3894 c-4 -4 -7 -53 -7 -110 0 -82 3 -103 15 -108 23 -8 26 9
23 119 -3 91 -11 118 -31 99z"/>
<path d="M4941 3892 c-16 -5 -15 -209 2 -215 30 -10 37 5 37 82 0 79 9 101 42
101 29 0 41 -37 34 -105 -5 -50 -3 -65 9 -75 28 -23 40 4 37 83 -3 81 -16 124
-41 132 -17 5 -101 3 -120 -3z"/>
<path d="M7007 3893 c-4 -3 -7 -53 -7 -110 0 -85 3 -105 16 -110 30 -11 38 14
37 112 -1 52 -5 100 -8 105 -7 11 -28 13 -38 3z"/>
<path d="M7126 3891 l-29 -6 -1 -100 -1 -100 29 -3 29 -4 -6 64 c-7 77 7 113
43 113 24 0 25 -2 28 -87 l3 -88 31 0 31 0 -6 79 c-5 76 -18 118 -41 133 -13
9 -68 8 -110 -1z"/>
<path d="M7442 3870 c-43 -57 -41 -116 4 -169 21 -25 34 -31 64 -31 32 0 44 6
69 37 43 52 44 117 2 162 -24 26 -37 31 -73 31 -38 0 -48 -5 -66 -30z m92 -26
c19 -18 22 -94 4 -112 -18 -18 -56 -14 -68 7 -25 47 -3 121 35 121 7 0 21 -7
29 -16z"/>
<path d="M8720 3870 c-26 -26 -30 -38 -30 -83 0 -44 5 -57 31 -84 24 -26 38
-33 69 -33 33 0 44 6 74 42 49 57 47 102 -9 166 -31 35 -97 31 -135 -8z m94
-26 c41 -41 25 -116 -26 -122 -21 -3 -30 3 -43 28 -33 65 23 141 69 94z"/>
<path d="M9036 3869 c-20 -24 -26 -41 -26 -81 0 -44 4 -54 34 -84 44 -44 96
-47 132 -8 13 14 24 29 24 35 0 12 -47 12 -55 -1 -3 -5 -17 -10 -31 -10 -34 0
-58 55 -43 98 12 35 46 48 69 27 16 -15 60 -21 60 -9 0 3 -9 19 -21 35 -18 25
-27 29 -69 29 -42 0 -52 -4 -74 -31z"/>
<path d="M9231 3861 c-17 -21 -31 -48 -31 -59 0 -61 56 -132 104 -132 37 0 44
5 79 51 40 53 35 101 -16 157 -15 16 -32 22 -63 22 -37 0 -46 -5 -73 -39z
m103 -17 c17 -16 22 -90 8 -110 -15 -22 -42 -24 -62 -4 -37 37 -19 130 25 130
7 0 21 -7 29 -16z"/>
<path d="M9466 3891 l-28 -6 -1 -100 -2 -100 29 -3 29 -4 -5 72 c-5 59 -2 75
13 93 14 18 21 20 36 11 15 -10 18 -25 18 -87 0 -47 5 -81 13 -88 23 -24 36 7
37 86 0 84 11 104 47 88 21 -9 23 -16 23 -89 0 -72 2 -79 20 -79 19 0 20 7 20
93 0 81 -3 96 -19 108 -23 16 -68 18 -82 4 -8 -8 -19 -8 -38 0 -29 11 -64 11
-110 1z"/>
<path d="M9770 3890 c-1 -3 -2 -70 -3 -150 -2 -139 -1 -145 18 -145 16 0 21 8
23 44 3 42 4 43 33 37 38 -7 65 6 89 47 33 54 18 141 -28 166 -19 10 -132 11
-132 1z m119 -61 c9 -17 12 -37 7 -62 -15 -79 -86 -65 -86 16 0 71 49 99 79
46z"/>
<path d="M10089 3874 c-20 -21 -24 -36 -24 -89 0 -56 3 -66 28 -89 38 -35 94
-36 131 -1 14 13 26 29 26 35 0 15 -38 12 -66 -7 -24 -15 -27 -15 -52 4 -44
33 -35 47 33 53 33 3 66 9 73 13 21 14 14 45 -18 77 -39 40 -95 42 -131 4z
m96 -34 c0 -18 -43 -25 -65 -10 -13 9 -13 11 0 20 22 15 65 8 65 -10z"/>
<path d="M10415 3874 c-67 -72 -25 -204 64 -204 37 0 101 36 101 58 0 17 -48
15 -66 -3 -20 -20 -37 -19 -64 3 -16 13 -21 24 -16 38 5 18 14 20 74 20 66 -1
67 -1 70 27 2 20 -5 35 -27 57 -40 41 -101 42 -136 4z m98 -20 c13 -13 -7 -34
-33 -34 -30 0 -45 13 -35 30 7 11 58 14 68 4z"/>
<path d="M10729 3869 c-24 -25 -29 -40 -29 -79 0 -40 5 -52 32 -79 24 -24 41
-31 70 -31 27 0 38 -4 38 -15 0 -20 -48 -31 -71 -16 -43 26 -76 -3 -44 -39 28
-31 102 -27 138 5 27 25 27 28 27 149 0 140 2 136 -82 136 -43 0 -54 -4 -79
-31z m105 -31 c22 -30 20 -81 -3 -109 -16 -21 -22 -22 -45 -11 -23 10 -26 17
-26 66 0 42 4 57 18 65 26 16 39 13 56 -11z"/>
<path d="M10944 3889 c-10 -16 -11 -193 -1 -206 5 -6 15 -9 23 -6 10 4 14 24
14 78 0 78 13 105 51 105 24 0 25 27 2 33 -31 9 -82 6 -89 -4z"/>
<path d="M11081 3873 c-65 -75 -22 -203 69 -203 90 0 130 116 69 202 -17 24
-27 28 -67 28 -38 0 -51 -5 -71 -27z m99 -33 c39 -39 18 -120 -30 -120 -30 0
-49 27 -50 69 0 36 23 71 47 71 7 0 22 -9 33 -20z"/>
<path d="M11283 3893 c-8 -3 -13 -25 -13 -58 0 -76 9 -111 37 -141 22 -24 28
-25 76 -19 29 4 56 11 61 15 4 4 9 51 11 103 2 78 0 97 -12 102 -29 11 -42
-13 -36 -65 7 -60 -2 -96 -26 -110 -40 -21 -50 -4 -53 88 -3 88 -10 100 -45
85z"/>
<path d="M11510 3890 c-11 -7 -16 -272 -6 -288 4 -7 14 -12 22 -12 14 0 17 9
18 60 1 23 5 25 44 25 37 0 48 5 73 33 40 44 41 116 3 161 -24 29 -30 31 -86
29 -33 -2 -64 -5 -68 -8z m104 -46 c17 -16 22 -90 8 -110 -15 -22 -42 -23 -62
-2 -24 26 -26 70 -4 103 19 29 36 31 58 9z"/>
<path d="M11836 3871 c-20 -21 -30 -43 -33 -75 -5 -43 -3 -48 35 -86 31 -31
47 -40 75 -40 80 0 127 118 75 186 -31 40 -38 44 -84 44 -32 0 -46 -6 -68 -29z
m102 -27 c24 -17 30 -70 12 -105 -13 -24 -65 -26 -74 -3 -13 34 -6 103 12 113
23 14 24 14 50 -5z"/>
<path d="M12799 3888 c0 -2 -1 -48 -1 -103 -2 -100 -2 -100 23 -100 18 0 24 5
23 23 0 12 -1 58 -2 102 -2 73 -4 80 -22 80 -11 0 -20 -1 -21 -2z"/>
<path d="M1784 3846 c-10 -26 4 -48 28 -44 17 2 23 10 23 28 0 18 -6 26 -23
28 -13 2 -25 -3 -28 -12z"/>
<path d="M1244 3838 c-9 -14 -8 -263 1 -278 7 -11 124 -14 141 -2 20 12 54 76
54 100 0 57 -48 109 -105 114 -35 3 -40 6 -37 27 4 40 -36 69 -54 39z m130
-133 c20 -30 20 -48 1 -85 -28 -53 -85 -29 -85 36 0 69 51 99 84 49z"/>
<path d="M2995 3838 c-2 -7 -5 -24 -7 -38 -3 -21 -8 -25 -38 -25 -40 -1 -72
-27 -87 -71 l-10 -29 -16 32 c-22 42 -63 73 -98 73 -33 0 -86 -49 -95 -88 -3
-15 -8 -33 -10 -40 -5 -16 11 -49 39 -79 17 -19 31 -23 79 -23 54 0 59 2 69
26 13 36 6 40 -40 24 -43 -14 -76 -7 -85 17 -10 24 2 30 79 36 l70 5 25 -51
25 -52 69 -3 c38 -2 73 1 78 6 7 7 14 223 9 280 0 6 -12 12 -26 12 -14 0 -28
-6 -30 -12z m-220 -133 c0 -15 -8 -21 -34 -23 -41 -4 -60 11 -41 33 20 24 75
16 75 -10z m209 9 c10 -27 7 -99 -6 -112 -48 -48 -108 59 -61 110 20 22 59 24
67 2z"/>
<path d="M5365 3810 c-9 -15 1 -29 141 -177 72 -76 153 -163 180 -193 72 -81
177 -193 275 -292 47 -48 84 -90 81 -93 -3 -3 -591 -5 -1307 -5 -998 0 -1304
-3 -1313 -12 -9 -9 -12 -114 -12 -409 0 -330 2 -399 14 -408 9 -8 44 -11 92
-10 70 2 78 0 95 -22 l18 -24 34 33 c18 18 36 29 40 26 4 -4 7 -28 7 -52 0
-25 4 -59 9 -76 5 -17 19 -87 31 -156 12 -69 26 -141 31 -160 6 -19 14 -57 19
-85 5 -27 16 -81 25 -120 9 -38 20 -92 26 -120 5 -27 14 -59 19 -70 5 -11 11
-45 15 -75 7 -62 34 -107 59 -97 20 8 21 52 1 91 -8 15 -15 39 -15 51 0 12 -6
45 -14 71 -15 53 -29 115 -51 239 -22 123 -38 198 -85 410 -6 28 -18 64 -27
80 -22 43 -14 71 17 66 14 -3 554 -6 1200 -8 l1175 -2 -3 -51 c-2 -29 1 -50 7
-50 5 0 23 16 39 35 l29 36 15 -23 c8 -13 18 -36 22 -53 11 -49 90 -257 136
-360 5 -11 18 -42 30 -70 11 -27 25 -58 30 -67 6 -10 10 -23 10 -30 1 -7 9
-31 20 -53 11 -22 19 -48 20 -57 0 -9 5 -20 10 -23 6 -3 10 -13 10 -21 0 -8 9
-36 21 -62 11 -26 27 -63 35 -82 8 -19 19 -43 24 -52 6 -10 10 -24 10 -31 0
-7 13 -28 28 -45 22 -24 31 -29 40 -20 16 16 15 43 -1 60 -7 7 -16 22 -19 33
-8 26 -96 254 -108 280 -5 11 -18 43 -30 70 -12 28 -28 66 -36 85 -9 19 -20
46 -26 60 -5 14 -16 38 -24 53 -8 16 -14 33 -14 39 0 11 -60 170 -86 225 -7
17 -14 36 -14 42 0 6 -4 11 -10 11 -5 0 -10 6 -10 14 0 7 -9 25 -21 40 -25 31
-21 62 6 59 11 -2 29 -2 40 -1 11 0 532 2 1159 4 814 3 1142 7 1152 15 34 28
43 16 182 -256 25 -49 67 -127 94 -171 26 -45 48 -86 48 -92 0 -6 3 -12 8 -14
4 -1 25 -39 47 -83 34 -68 44 -80 68 -83 21 -3 27 1 27 17 0 22 -31 81 -42 81
-5 0 -8 5 -8 11 0 6 -15 37 -34 68 -19 31 -58 104 -88 162 -30 58 -85 156
-122 217 -37 62 -66 117 -64 123 3 8 124 11 405 10 362 -2 401 0 407 14 9 25
7 798 -3 813 -7 11 -95 13 -477 11 -278 -2 -476 1 -486 7 -8 5 -42 34 -75 64
-32 30 -96 87 -142 125 -45 39 -147 125 -226 193 -139 118 -185 144 -185 105
0 -18 91 -105 180 -173 25 -19 65 -54 90 -78 25 -23 98 -84 162 -134 64 -51
114 -96 112 -100 -6 -10 -2385 -10 -2400 0 -5 4 -48 50 -95 102 -46 52 -102
113 -124 135 -22 22 -53 56 -69 75 -15 19 -67 76 -115 125 -192 201 -248 262
-269 293 -23 32 -64 44 -77 22z m3355 -831 c0 -12 -7 -19 -20 -19 -14 0 -20 7
-20 23 0 13 3 27 7 30 10 11 33 -13 33 -34z m-3880 4 c2 -234 -1 -706 -4 -711
-2 -4 -236 -6 -520 -4 l-516 2 -55 74 c-57 75 -82 96 -90 73 -2 -6 -5 -38 -8
-70 -5 -80 -15 -87 -107 -79 l-75 7 0 355 0 355 675 5 c371 3 681 6 688 8 6 1
12 -6 12 -15z m1351 -76 c92 -88 99 -107 36 -107 -24 0 -28 -4 -25 -22 2 -16
12 -24 36 -29 18 -4 35 -9 38 -12 11 -10 9 -457 -1 -457 -6 0 -32 23 -57 50
-60 65 -73 65 -64 1 4 -30 2 -52 -4 -56 -10 -6 -1251 -8 -1257 -1 -3 2 -5 521
-3 706 0 13 73 15 606 13 l606 -2 89 -84z m83 77 c17 -16 23 -99 8 -108 -5 -3
-15 3 -23 12 -8 9 -30 34 -48 54 -18 21 -30 42 -26 48 10 16 72 12 89 -6z
m257 6 l139 0 0 -360 0 -360 -137 0 c-76 0 -154 -3 -173 -6 l-36 -6 0 231 c0
234 4 255 36 216 7 -8 17 -15 23 -15 6 0 19 -7 29 -17 30 -27 33 -6 8 60 -12
34 -28 87 -35 117 -10 44 -16 55 -31 53 -24 -2 -34 14 -34 53 0 39 8 47 44 40
16 -3 91 -6 167 -6z m1557 -360 l2 -360 -686 2 -686 3 1 353 c0 193 0 355 1
360 0 4 307 6 682 5 l683 -3 3 -360z m544 342 c20 -12 39 -29 42 -38 5 -14 -1
-18 -61 -39 -7 -2 -13 -8 -13 -13 0 -18 25 -29 78 -36 28 -4 77 -16 107 -28
67 -25 83 -17 60 30 -9 17 -20 34 -26 37 -5 4 -9 14 -9 24 0 10 -7 24 -15 31
-8 7 -15 22 -15 34 l0 21 367 -3 c202 -1 368 -4 370 -6 3 -2 5 -546 3 -704 0
-10 -75 -12 -368 -12 -270 1 -375 -2 -395 -11 -21 -9 -30 -9 -42 1 -25 21 -17
30 25 30 53 0 55 28 3 55 -20 11 -64 44 -97 73 -34 28 -65 52 -70 52 -8 0 -7
-17 14 -130 7 -41 7 -57 -3 -65 -8 -7 -85 -9 -225 -5 l-213 5 0 354 c0 214 4
357 10 360 5 3 106 6 223 5 203 0 216 -1 250 -22z"/>
<path d="M3583 2736 c-26 -23 -28 -29 -28 -104 0 -76 2 -82 29 -107 23 -21 35
-26 58 -21 51 10 67 41 68 126 0 67 -3 78 -25 103 -32 33 -65 35 -102 3z m71
-48 c14 -55 3 -138 -19 -138 -8 0 -17 10 -21 23 -9 27 -9 111 0 126 12 19 33
12 40 -11z"/>
<path d="M4324 2740 c-30 -18 -58 -51 -56 -66 0 -5 11 -11 24 -14 22 -6 23
-10 20 -77 -4 -69 -3 -70 23 -77 14 -4 30 -4 35 -1 6 4 10 59 10 125 0 131 -6
142 -56 110z"/>
<path d="M4623 2738 c-67 -73 -34 -237 48 -238 45 0 89 63 89 130 0 46 -31
114 -55 124 -32 12 -62 6 -82 -16z m72 -108 c0 -69 -2 -75 -22 -78 -18 -3 -22
3 -28 37 -4 23 -4 59 0 82 6 34 10 40 28 37 20 -3 22 -9 22 -78z"/>
<path d="M3945 2715 c-39 -36 -39 -50 0 -57 18 -3 20 -11 20 -70 0 -76 12 -97
46 -81 22 9 23 15 21 124 -1 113 -1 114 -25 117 -17 2 -36 -8 -62 -33z"/>
<path d="M5027 2749 c-59 -35 -62 -181 -5 -231 33 -28 63 -22 97 19 26 32 31
46 31 91 0 97 -61 157 -123 121z m63 -114 c0 -59 -3 -77 -16 -82 -23 -8 -36
10 -41 59 -6 55 10 98 37 98 18 0 20 -6 20 -75z"/>
<path d="M5388 2727 c-49 -37 -54 -58 -18 -67 24 -6 25 -8 22 -77 -4 -65 -2
-71 18 -76 46 -12 50 -3 50 123 0 138 -6 147 -72 97z"/>
<path d="M5724 2752 c-30 -21 -44 -59 -44 -123 0 -58 4 -72 26 -98 34 -40 67
-40 105 0 26 28 29 38 29 95 0 87 -28 134 -80 134 -14 0 -30 -4 -36 -8z m56
-122 c0 -64 -3 -80 -15 -80 -21 0 -35 32 -35 80 0 48 14 80 35 80 12 0 15 -16
15 -80z"/>
<path d="M6072 2717 c-40 -41 -41 -57 -2 -57 l31 0 -7 -74 c-6 -69 -5 -74 15
-81 11 -3 25 -3 31 0 6 4 10 56 10 126 0 118 0 119 -23 119 -13 0 -37 -14 -55
-33z"/>
<path d="M6467 2544 c-4 -4 -7 -16 -7 -26 0 -16 6 -19 33 -16 24 2 32 8 32 23
0 14 -8 21 -25 23 -14 2 -29 0 -33 -4z"/>
<path d="M6860 2724 c-49 -44 -51 -64 -9 -64 l31 0 -7 -74 c-6 -71 -6 -74 16
-81 37 -12 44 11 41 133 -4 130 -12 140 -72 86z"/>
<path d="M7544 2752 c-44 -28 -69 -135 -43 -185 48 -93 121 -87 156 13 22 60
12 109 -31 158 -19 22 -60 29 -82 14z m60 -58 c3 -9 6 -37 6 -64 0 -61 -7 -80
-30 -80 -20 0 -30 27 -30 80 0 19 3 45 6 58 7 25 39 30 48 6z"/>
<path d="M7193 2716 c-40 -38 -42 -54 -5 -58 26 -3 27 -5 28 -68 0 -73 7 -90
34 -90 30 0 35 22 32 139 l-3 111 -27 -1 c-16 -1 -41 -14 -59 -33z"/>
<path d="M7881 2710 c-23 -28 -29 -41 -20 -44 50 -15 49 -13 49 -85 0 -73 12
-91 49 -72 15 8 17 24 15 123 l-3 113 -28 2 c-22 1 -36 -7 -62 -37z"/>
<path d="M8331 2721 c-45 -41 -47 -61 -6 -61 23 0 24 -3 27 -77 3 -70 5 -78
23 -78 19 0 20 7 20 124 0 79 -4 126 -11 128 -5 2 -30 -14 -53 -36z"/>
<path d="M8911 2732 c-54 -53 -48 -175 10 -216 35 -24 58 -20 95 20 30 31 34
42 34 90 0 112 -75 170 -139 106z m74 -45 c4 -13 5 -48 3 -78 -3 -46 -6 -54
-23 -54 -18 0 -20 8 -23 64 -2 35 -1 70 2 77 9 22 35 16 41 -9z"/>
<path d="M9278 2753 c-9 -2 -27 -25 -39 -49 -39 -81 -7 -188 59 -200 29 -6 38
-2 61 22 23 26 26 36 26 105 0 68 -3 80 -24 103 -23 25 -44 29 -83 19z m46
-59 c9 -24 7 -117 -3 -133 -18 -28 -31 1 -31 68 0 37 3 71 7 74 11 11 20 8 27
-9z"/>
<path d="M8587 2712 c-39 -40 -39 -52 0 -52 22 0 23 -3 23 -75 l0 -75 30 0 31
0 -3 118 c-3 108 -4 117 -23 120 -13 2 -34 -12 -58 -36z"/>
<path d="M524 3746 c-30 -30 -34 -40 -34 -87 0 -44 5 -58 27 -81 23 -24 35
-28 79 -28 34 0 56 5 64 15 16 19 29 19 52 -2 15 -14 29 -15 95 -7 61 7 77 12
74 24 -1 8 -6 50 -10 92 -4 43 -11 82 -17 88 -5 5 -30 13 -54 16 -37 5 -50 2
-72 -16 -50 -39 -30 -65 26 -36 31 16 62 11 71 -12 6 -17 -11 -32 -38 -32 -21
0 -74 -26 -102 -49 -11 -10 -40 -24 -64 -31 -41 -13 -44 -13 -62 11 -23 30
-24 62 -3 94 17 25 48 33 59 15 7 -11 75 -14 75 -3 0 3 -14 19 -32 35 -45 40
-90 38 -134 -6z m303 -112 c6 -18 -26 -44 -52 -44 -34 0 -40 18 -13 40 24 21
59 23 65 4z"/>
<path d="M980 3771 c-8 -6 -25 -8 -37 -5 -21 6 -22 3 -25 -93 -4 -116 -2 -125
26 -121 19 3 21 8 17 67 -4 74 11 111 45 111 28 0 33 -16 36 -110 3 -65 3 -65
33 -65 33 0 31 -8 27 113 -2 39 -9 64 -22 80 -21 26 -77 38 -100 23z"/>
<path d="M1490 3753 c-30 -27 -32 -33 -32 -92 0 -87 22 -111 104 -111 51 0 60
3 74 26 25 37 5 55 -35 31 -40 -23 -63 -21 -91 8 -28 30 -21 33 70 37 64 3 65
3 68 34 4 42 -36 84 -87 91 -32 4 -43 1 -71 -24z m97 -42 c11 -17 9 -20 -17
-26 -16 -4 -39 -4 -49 0 -17 5 -19 9 -8 26 15 25 59 25 74 0z"/>
<path d="M1898 3753 c-65 -71 -69 -101 -20 -161 21 -25 38 -35 70 -39 32 -4
42 -10 40 -22 -4 -19 -55 -28 -71 -12 -13 13 -54 15 -61 3 -3 -5 6 -20 20 -35
38 -41 95 -38 140 7 l34 34 0 115 0 115 -50 11 c-70 15 -73 15 -102 -16z m88
-40 c16 -22 18 -77 4 -104 -11 -19 -35 -24 -64 -13 -20 8 -23 103 -4 122 17
17 49 15 64 -5z"/>
<path d="M2150 3770 c-8 -5 -25 -7 -37 -3 -23 5 -23 4 -23 -100 0 -106 5 -122
34 -111 13 5 15 16 10 60 -9 72 9 116 45 112 25 -3 26 -5 31 -88 5 -83 6 -85
30 -85 25 0 25 0 24 89 -1 84 -3 91 -28 113 -28 24 -61 29 -86 13z"/>
<path d="M2332 3749 c-28 -29 -32 -41 -32 -87 0 -78 28 -112 91 -112 56 0 85
23 95 77 15 78 -21 142 -84 150 -34 5 -43 1 -70 -28z m90 -36 c11 -10 18 -30
18 -54 0 -65 -52 -92 -84 -44 -21 32 -20 70 1 95 21 24 40 25 65 3z"/>
<path d="M2560 3771 l-35 -6 -5 -95 c-6 -99 0 -120 31 -120 17 0 19 8 19 78 0
85 3 92 43 109 26 12 37 33 18 33 -5 0 -15 2 -23 4 -7 2 -29 1 -48 -3z"/>
<path d="M1787 3764 c-4 -4 -7 -52 -7 -106 0 -79 3 -100 15 -104 31 -12 40 12
40 113 0 91 -1 98 -20 101 -12 2 -24 0 -28 -4z"/>
<path d="M1967 3390 c-6 -23 4 -36 63 -81 24 -19 52 -41 61 -49 24 -23 58 -51
129 -105 36 -27 83 -65 106 -85 22 -19 51 -44 65 -55 25 -21 175 -135 225
-171 l29 -21 -53 -27 c-29 -15 -50 -31 -47 -36 3 -5 31 -11 63 -15 69 -7 127
-21 165 -41 27 -13 67 -19 67 -10 0 3 -13 24 -28 48 -30 46 -49 85 -78 158
-10 25 -21 49 -25 54 -10 11 -29 -36 -29 -70 0 -35 -25 -30 -68 14 -20 20 -61
58 -91 82 -30 25 -68 57 -85 72 -17 15 -34 28 -37 28 -6 0 -18 10 -79 63 -14
12 -47 40 -75 62 -27 22 -52 42 -55 45 -3 3 -27 23 -55 45 -27 22 -70 57 -94
77 -49 43 -66 47 -74 18z"/>
<path d="M2964 2782 c-31 -21 -44 -59 -44 -128 0 -59 4 -75 23 -97 79 -93 183
71 116 183 -25 41 -37 50 -64 50 -11 0 -25 -4 -31 -8z m54 -131 c-3 -59 -5
-66 -25 -69 -19 -3 -23 3 -28 42 -12 75 11 130 43 104 9 -8 12 -32 10 -77z"/>
<path d="M10966 1321 c-21 -23 -14 -41 15 -41 26 0 36 27 17 46 -13 13 -17 12
-32 -5z"/>
<path d="M9125 1293 c-14 -21 -25 -45 -25 -55 0 -9 -4 -20 -10 -23 -12 -8 -13
-152 -1 -159 4 -3 11 -18 14 -33 4 -16 17 -41 30 -57 18 -22 28 -27 45 -22 20
7 32 36 14 36 -14 0 -42 64 -48 112 -9 66 3 131 33 174 24 36 24 39 7 51 -26
19 -31 17 -59 -24z"/>
<path d="M9400 1323 c-31 -13 -55 -59 -65 -122 l-10 -66 -60 0 c-47 0 -60 -3
-63 -16 -4 -21 32 -31 90 -23 40 5 44 4 60 -25 9 -17 33 -38 52 -47 60 -29
116 9 131 88 6 30 2 40 -25 72 -24 27 -40 36 -64 36 -18 0 -37 -5 -43 -11 -21
-21 -22 19 -2 45 25 31 49 33 72 6 20 -24 45 -26 54 -4 14 37 -80 87 -127 67z
m74 -172 c29 -55 -35 -109 -78 -65 -22 21 -20 56 4 81 24 27 56 20 74 -16z"/>
<path d="M10756 1314 c-8 -21 1 -34 25 -34 24 0 37 29 18 41 -21 13 -36 11
-43 -7z"/>
<path d="M9565 1310 c-3 -5 5 -25 19 -43 49 -64 45 -191 -8 -270 -19 -28 -22
-38 -12 -46 37 -31 86 38 101 140 8 55 -10 149 -38 197 -18 31 -49 42 -62 22z"/>
<path d="M9798 1185 c-2 -76 0 -141 3 -147 4 -5 17 -8 30 -6 22 3 24 8 29 82
4 62 9 81 23 90 31 19 48 -18 46 -95 -2 -74 3 -89 31 -89 26 0 34 36 27 116
-8 86 -29 113 -84 114 -40 0 -42 2 -45 33 -2 26 -8 33 -30 35 l-27 3 -3 -136z"/>
<path d="M9703 1280 c-3 -17 -10 -33 -14 -36 -5 -3 -4 -15 3 -27 7 -12 12 -57
12 -100 1 -58 5 -80 16 -87 42 -27 76 9 40 42 -25 24 -27 98 -3 138 15 26 15
29 0 45 -10 9 -17 25 -17 36 0 31 -30 22 -37 -11z"/>
<path d="M10854 1293 c-3 -10 -9 -27 -14 -39 -4 -11 -4 -27 1 -35 5 -8 9 -51
9 -96 0 -71 3 -84 19 -93 46 -24 76 7 43 44 -24 27 -27 87 -7 130 12 25 14 39
6 53 -5 10 -12 26 -15 36 -3 9 -12 17 -21 17 -9 0 -18 -8 -21 -17z"/>
<path d="M10195 1246 c-14 -10 -23 -11 -37 -3 -9 6 -20 9 -22 6 -10 -9 -13
-299 -4 -305 4 -3 17 -2 28 1 15 5 20 15 20 41 0 32 2 34 34 34 22 0 45 9 65
26 29 24 31 31 31 87 -1 49 -5 67 -23 88 -27 33 -67 43 -92 25z m52 -58 c13
-12 23 -33 23 -48 0 -62 -65 -95 -88 -45 -17 37 -15 59 9 89 25 32 27 32 56 4z"/>
<path d="M10375 1226 c-19 -21 -36 -47 -37 -59 -5 -75 20 -125 71 -147 26 -10
35 -10 63 7 46 27 60 58 54 122 -6 63 -32 97 -84 107 -28 6 -36 2 -67 -30z
m87 -33 c21 -19 25 -92 6 -111 -20 -20 -55 -14 -72 13 -21 33 -20 57 5 89 24
30 36 32 61 9z"/>
<path d="M10615 1253 c-22 -5 -65 -50 -65 -67 1 -17 37 -56 52 -56 23 0 79
-40 72 -51 -4 -7 -25 -9 -60 -4 -59 7 -72 -6 -36 -37 58 -50 165 -3 148 65 -5
22 -53 53 -91 59 -12 2 -20 11 -20 23 0 21 13 23 68 9 20 -5 27 -3 27 8 0 35
-49 61 -95 51z"/>
<path d="M11094 1250 c-38 -15 -64 -63 -64 -118 0 -131 150 -158 191 -34 29
87 -52 183 -127 152z m65 -61 c19 -18 22 -29 18 -62 -6 -43 -19 -57 -54 -57
-41 0 -58 74 -27 118 19 28 34 28 63 1z"/>
<path d="M11310 1253 c-19 -2 -38 -8 -42 -12 -5 -4 -9 -51 -11 -104 -4 -105 7
-133 39 -106 13 11 15 25 9 72 -5 45 -3 64 10 83 35 53 69 18 66 -67 -3 -73 5
-99 28 -99 30 0 41 22 41 82 0 119 -41 163 -140 151z"/>
<path d="M10766 1243 c-3 -3 -6 -52 -6 -108 0 -56 3 -105 6 -108 4 -3 15 -2
25 4 17 8 19 22 19 104 0 82 -2 96 -19 104 -10 6 -21 7 -25 4z"/>
<path d="M10972 1237 c-6 -7 -12 -54 -13 -105 -2 -71 0 -95 11 -102 25 -16 30
0 30 105 0 101 -7 128 -28 102z"/>
<path d="M2831 1006 c-18 -22 11 -37 68 -35 28 2 54 0 57 -4 4 -3 -8 -29 -25
-57 -30 -48 -47 -98 -58 -167 -5 -31 -3 -33 25 -33 32 0 42 17 42 73 0 15 4
35 10 45 5 9 19 40 31 67 12 28 25 52 29 55 4 3 12 15 19 27 9 19 8 24 -8 33
-30 15 -176 13 -190 -4z"/>
<path d="M4127 1013 c-24 -23 5 -45 42 -32 19 8 21 12 11 24 -13 16 -42 20
-53 8z"/>
<path d="M4320 1010 c-13 -9 -12 -12 4 -25 23 -17 26 -18 45 -6 8 5 11 16 8
25 -7 18 -34 21 -57 6z"/>
<path d="M3169 1003 c0 -5 0 -62 0 -128 2 -131 -4 -153 -34 -131 -26 19 -34
120 -11 145 13 15 15 23 7 38 -6 10 -16 31 -21 47 -9 23 -13 26 -25 16 -8 -7
-15 -21 -15 -31 0 -11 -6 -29 -12 -40 -10 -17 -10 -23 0 -26 8 -3 12 -29 12
-83 0 -88 15 -117 54 -105 12 4 39 8 61 8 l40 2 0 75 c0 82 6 100 35 100 31 0
43 -35 35 -106 -6 -61 -5 -65 17 -73 41 -16 50 3 42 93 -9 105 -23 126 -80
126 l-44 0 0 40 c0 38 -2 40 -30 40 -16 0 -30 -3 -31 -7z"/>
<path d="M4216 975 c-3 -9 -6 -25 -6 -36 0 -24 -25 -35 -45 -19 -27 23 -35 0
-35 -106 0 -104 0 -105 23 -102 21 3 22 7 19 83 -3 85 6 112 32 102 13 -5 16
-22 16 -84 0 -91 7 -106 46 -103 16 1 46 1 67 1 l37 -1 0 105 c0 105 -8 128
-35 105 -11 -9 -15 -35 -15 -96 0 -45 -4 -85 -8 -88 -5 -3 -18 2 -30 10 -18
12 -22 25 -22 71 0 35 5 62 15 73 12 13 12 21 1 55 -15 43 -48 59 -60 30z"/>
<path d="M5531 971 c-12 -11 -29 -45 -38 -75 -14 -50 -14 -64 -2 -113 15 -67
42 -99 86 -107 42 -7 75 22 97 87 19 57 20 90 3 137 -24 67 -46 90 -87 90 -22
0 -46 -8 -59 -19z m89 -50 c5 -11 10 -51 10 -90 0 -60 -3 -73 -22 -91 -22 -20
-22 -20 -42 -1 -24 25 -33 114 -16 165 9 28 17 36 35 36 14 0 29 -9 35 -19z"/>
<path d="M5832 981 c-11 -6 -12 -24 -7 -75 10 -89 -2 -196 -21 -196 -25 0 -36
50 -30 140 7 90 0 114 -29 108 -22 -4 -38 -53 -29 -88 3 -14 6 -54 5 -90 -1
-87 8 -98 87 -97 l62 0 0 76 c0 89 7 104 46 99 29 -3 29 -3 34 -88 4 -73 8
-85 24 -88 26 -5 36 15 36 73 -1 69 -15 127 -37 143 -10 7 -36 11 -58 10 -38
-3 -40 -2 -40 27 0 47 -16 64 -43 46z"/>
<path d="M6772 977 c-15 -18 -5 -27 30 -27 23 0 29 4 26 18 -4 21 -41 28 -56
9z"/>
<path d="M6973 975 c-8 -22 16 -36 40 -24 23 13 17 33 -11 37 -14 2 -25 -3
-29 -13z"/>
<path d="M6882 954 c-16 -11 -22 -25 -22 -54 0 -21 4 -41 9 -44 5 -3 7 -32 4
-64 -7 -78 7 -112 47 -112 33 0 38 14 15 44 -17 23 -21 126 -5 142 10 10 -4
81 -19 96 -4 4 -17 1 -29 -8z"/>
<path d="M3578 935 c-4 -4 -24 -8 -45 -8 l-38 -2 -1 -135 c0 -74 4 -143 9
-153 8 -18 9 -18 28 -1 11 10 18 28 17 43 -3 24 0 26 39 29 35 3 48 9 68 36
34 45 35 123 3 160 -23 25 -68 43 -80 31z m46 -70 c20 -31 20 -50 -1 -86 -20
-33 -38 -36 -65 -12 -35 32 -12 123 31 123 10 0 26 -11 35 -25z"/>
<path d="M3770 933 c-44 -16 -60 -45 -60 -107 1 -50 5 -66 25 -89 15 -16 39
-31 59 -34 27 -4 39 0 67 25 31 27 34 36 34 85 0 66 -18 103 -58 117 -32 11
-44 11 -67 3z m62 -60 c23 -20 24 -80 1 -105 -49 -55 -112 37 -67 100 18 26
41 28 66 5z"/>
<path d="M3978 933 c-14 -2 -34 -16 -43 -30 -24 -36 -5 -66 56 -93 34 -14 49
-26 49 -39 0 -26 -22 -32 -55 -15 -57 29 -87 7 -44 -32 31 -28 100 -26 133 5
47 45 23 94 -60 121 -39 13 -46 40 -10 40 14 0 28 -4 31 -10 12 -20 35 -10 35
14 0 14 -3 27 -7 29 -16 8 -59 13 -85 10z"/>
<path d="M4458 932 c-58 -24 -78 -127 -35 -189 57 -83 167 -33 167 76 0 85
-64 140 -132 113z m62 -52 c11 -6 22 -26 26 -46 5 -28 2 -40 -17 -60 -29 -31
-52 -31 -73 1 -20 31 -20 64 0 93 17 24 35 27 64 12z"/>
<path d="M4690 934 c-76 -13 -71 -4 -68 -117 3 -90 5 -102 22 -105 27 -6 34
13 29 82 -6 75 9 103 50 92 27 -6 27 -8 27 -91 l0 -85 30 0 30 0 0 75 c0 79
-19 145 -42 145 -7 0 -22 2 -33 4 -11 2 -31 2 -45 0z"/>
<path d="M6215 910 c-11 -5 -32 -9 -47 -9 l-28 -1 0 -145 0 -145 30 0 c29 0
32 3 34 45 1 16 9 21 40 23 41 4 58 17 80 65 l13 28 37 -45 c34 -42 41 -46 81
-46 38 0 47 5 74 37 50 61 36 148 -30 187 -53 31 -77 21 -144 -59 -24 -29 -24
-29 -25 -7 0 28 -51 82 -77 81 -10 0 -27 -4 -38 -9z m65 -69 c12 -23 13 -71 2
-86 -4 -5 -15 -16 -25 -24 -40 -31 -76 54 -47 110 6 11 21 19 35 19 14 0 29
-8 35 -19z m208 7 c7 -7 12 -31 12 -54 0 -52 -20 -71 -58 -58 -21 7 -28 17
-30 43 -6 58 5 81 36 81 15 0 33 -5 40 -12z"/>
<path d="M6606 895 c-27 -25 -30 -35 -20 -72 4 -15 14 -23 29 -23 12 0 28 -6
34 -14 7 -8 23 -17 38 -20 24 -7 25 -8 8 -26 -21 -23 -43 -25 -68 -5 -38 28
-64 -7 -29 -38 41 -37 136 -15 142 33 8 53 -16 76 -103 104 -38 12 -5 29 44
23 44 -5 49 -4 49 13 0 21 -46 50 -78 50 -11 0 -31 -11 -46 -25z"/>
<path d="M7090 892 c-73 -74 -35 -212 59 -212 34 0 44 6 70 39 35 44 40 85 15
133 -37 72 -96 88 -144 40z m102 -69 c10 -37 -3 -78 -30 -92 -43 -23 -80 57
-51 110 8 15 19 19 42 17 25 -2 32 -9 39 -35z"/>
<path d="M7323 907 l-42 -11 -3 -90 c-4 -110 -1 -126 23 -126 27 0 32 15 30
89 -1 76 7 94 40 89 23 -3 24 -8 29 -88 5 -83 6 -85 31 -88 32 -4 36 11 31
110 -3 58 -8 72 -32 98 -30 32 -40 33 -107 17z"/>
<path d="M6984 898 c-5 -7 -9 -58 -9 -113 0 -93 1 -100 20 -100 18 0 20 8 23
101 2 77 -1 104 -11 113 -11 9 -16 8 -23 -1z"/>
<path d="M6779 898 c-1 -2 -3 -44 -4 -95 -3 -98 8 -132 39 -120 14 6 16 21 14
109 -3 98 -4 103 -25 106 -13 2 -24 2 -24 0z"/>
<path d="M9501 862 c-8 -3 -27 -18 -43 -34 -46 -47 -34 -94 32 -128 22 -11 50
-20 64 -20 35 0 68 -37 55 -61 -17 -33 -94 -28 -121 7 -11 13 -28 24 -39 24
-31 0 -24 -43 13 -74 45 -37 123 -37 162 -1 38 35 44 82 16 118 -13 16 -31 27
-45 27 -13 0 -26 4 -30 9 -3 5 -18 12 -34 16 -36 8 -47 32 -25 56 24 27 62 24
86 -7 25 -31 65 -30 60 1 -7 34 -44 62 -92 67 -25 3 -51 3 -59 0z"/>
<path d="M9112 795 c-26 -52 -32 -77 -32 -130 0 -36 4 -73 9 -83 6 -9 20 -38
32 -64 17 -36 28 -48 44 -48 35 0 36 10 7 63 -24 45 -27 61 -27 141 0 77 4 96
23 126 28 45 28 60 -1 60 -19 0 -30 -13 -55 -65z"/>
<path d="M9227 853 c-4 -3 -7 -71 -7 -149 0 -166 -7 -157 115 -152 62 3 70 5
70 23 0 18 -8 20 -69 23 l-69 3 5 117 c3 64 4 123 1 130 -5 13 -35 17 -46 5z"/>
<path d="M9707 853 c-4 -3 -7 -70 -7 -149 0 -163 -6 -154 103 -154 53 0 61 3
88 32 33 37 37 76 13 114 -14 21 -15 29 -4 49 16 29 7 68 -22 95 -18 16 -35
20 -93 20 -40 0 -75 -3 -78 -7z m133 -53 c11 -11 20 -26 20 -34 0 -22 -40 -46
-76 -46 -28 0 -33 4 -39 29 -3 17 -1 39 5 50 14 27 63 28 90 1z m15 -160 c0
-30 -4 -35 -32 -43 -17 -5 -43 -7 -57 -3 -21 5 -26 12 -26 40 0 18 3 36 7 40
4 4 30 6 58 4 50 -3 50 -3 50 -38z"/>
<path d="M9950 851 c0 -6 12 -32 26 -58 38 -69 38 -177 0 -247 -33 -61 -33
-76 -1 -76 17 0 30 9 42 33 54 100 65 173 38 243 -21 52 -46 97 -59 106 -16
11 -46 10 -46 -1z"/>
</g>
</svg>
