<?xml version="1.0" standalone="no"?>
<!DOCTYPE svg PUBLIC "-//W3C//DTD SVG 20010904//EN"
 "http://www.w3.org/TR/2001/REC-SVG-20010904/DTD/svg10.dtd">
<svg version="1.0" xmlns="http://www.w3.org/2000/svg"
 width="1014.000000pt" height="621.000000pt" viewBox="0 0 1014.000000 621.000000"
 preserveAspectRatio="xMidYMid meet">
<metadata>
Created by potrace 1.10, written by Peter Selinger 2001-2011
</metadata>
<g transform="translate(0.000000,621.000000) scale(0.100000,-0.100000)"
fill="#000000" stroke="none">
<path d="M644 5565 c-10 -26 7 -35 62 -35 l54 0 0 -145 c0 -123 2 -147 16
-152 32 -12 38 13 35 157 l-3 140 44 0 c50 0 73 12 65 33 -8 22 -265 23 -273
2z"/>
<path d="M955 5568 c-9 -29 -12 -329 -3 -334 5 -3 20 -3 33 0 23 6 24 9 22 97
-2 79 0 92 17 105 26 18 41 18 61 -3 14 -14 16 -32 14 -107 -3 -75 -1 -91 11
-94 9 -1 23 3 32 10 15 12 15 24 7 107 -6 52 -14 102 -20 112 -13 25 -51 33
-98 22 l-38 -10 10 40 c9 34 8 42 -8 53 -23 17 -34 18 -40 2z"/>
<path d="M2903 5544 c-57 -66 -56 -215 2 -279 29 -33 36 -36 75 -33 39 3 48 8
78 48 34 45 35 45 29 127 -9 122 -41 173 -112 173 -35 0 -46 -6 -72 -36z m121
-57 c9 -23 16 -60 16 -82 0 -22 -7 -59 -16 -82 -14 -37 -21 -43 -45 -43 -18 0
-32 7 -39 21 -19 34 -23 123 -10 178 11 48 14 51 45 51 29 0 34 -4 49 -43z"/>
<path d="M3123 5573 c-14 -5 -16 -52 -4 -93 4 -16 14 -25 26 -25 16 0 21 9 27
45 10 72 -3 92 -49 73z"/>
<path d="M4737 5573 c-4 -3 -7 -26 -7 -50 l0 -44 -44 6 c-40 6 -46 4 -75 -27
-27 -29 -31 -40 -31 -92 0 -46 5 -68 23 -93 28 -42 42 -46 122 -38 l64 7 3
157 c2 86 -1 162 -6 169 -9 13 -38 16 -49 5z m-15 -146 c10 -15 10 -118 0
-133 -16 -25 -50 -25 -76 -1 -21 19 -26 34 -26 71 0 25 4 46 9 46 5 0 11 10
14 21 5 19 11 21 38 15 18 -3 37 -12 41 -19z"/>
<path d="M4994 5570 c-7 -7 -9 -30 -6 -57 5 -43 4 -45 -16 -34 -56 30 -115 -3
-143 -81 -32 -92 68 -205 140 -159 9 6 22 6 31 1 9 -5 20 -6 26 -2 5 4 9 80 9
172 0 139 -2 165 -15 168 -9 1 -20 -2 -26 -8z m-20 -145 c33 -51 10 -155 -35
-155 -36 0 -59 36 -59 93 0 55 6 71 30 80 30 11 48 6 64 -18z"/>
<path d="M5491 5571 c-9 -6 -11 -20 -6 -50 l7 -42 -49 7 c-47 6 -50 5 -81 -30
-28 -32 -32 -44 -32 -96 0 -52 4 -64 31 -95 25 -28 38 -35 68 -35 20 0 43 4
50 9 9 6 22 6 32 0 12 -6 20 -5 24 1 4 6 7 83 8 173 2 155 1 162 -18 165 -11
1 -26 -2 -34 -7z m-17 -141 c14 -13 19 -93 7 -122 -8 -23 -17 -28 -43 -28 -36
0 -51 16 -62 67 -8 33 13 87 36 96 15 6 49 -1 62 -13z"/>
<path d="M2076 5547 c-19 -16 -26 -28 -21 -37 5 -8 0 -19 -15 -30 l-23 -18 22
-11 c21 -11 22 -18 19 -102 -3 -80 -1 -92 16 -105 25 -18 72 -18 79 0 6 15
-11 36 -29 36 -18 0 -23 148 -6 163 22 18 46 -5 59 -59 34 -133 38 -144 57
-150 24 -8 46 19 47 55 1 36 23 94 37 99 8 2 12 -10 12 -37 0 -22 5 -43 10
-46 6 -3 10 -17 10 -29 0 -13 6 -29 14 -35 21 -18 56 3 56 33 0 27 39 157 51
171 18 19 9 35 -20 35 -25 0 -29 -4 -35 -38 -14 -88 -56 -143 -56 -74 0 52
-26 117 -46 117 -22 0 -43 -50 -43 -107 -2 -76 -37 -50 -55 40 l-12 57 -44 5
-45 5 3 43 c4 48 -2 51 -42 19z"/>
<path d="M1225 5454 c-32 -32 -35 -41 -35 -94 0 -53 3 -62 35 -94 30 -32 41
-36 82 -36 36 1 55 7 76 25 15 13 27 28 27 33 0 17 -32 23 -49 9 -40 -35 -85
-27 -115 18 -25 38 -11 45 88 45 l79 0 -6 38 c-9 52 -55 92 -107 92 -33 0 -47
-6 -75 -36z m117 -21 c33 -30 22 -43 -35 -43 -59 0 -69 4 -60 27 12 31 68 41
95 16z"/>
<path d="M1485 5482 c-5 -4 -18 -17 -28 -29 -17 -19 -17 -26 -6 -57 8 -23 20
-36 31 -36 13 0 86 -31 106 -46 2 -1 -1 -12 -8 -23 -14 -28 -63 -28 -89 0 -16
18 -22 19 -42 8 l-23 -12 32 -28 c44 -39 107 -40 151 -3 63 53 25 114 -84 134
-24 4 -30 10 -30 30 0 31 35 39 70 16 13 -9 31 -16 40 -16 23 0 18 37 -7 54
-23 16 -95 21 -113 8z"/>
<path d="M1702 5457 c-29 -30 -32 -39 -32 -93 0 -52 4 -64 31 -97 28 -34 34
-37 82 -37 41 1 58 6 80 26 17 14 27 31 23 39 -7 20 -22 19 -60 -4 -38 -24
-75 -18 -99 15 -32 43 -17 56 66 54 98 -4 97 -4 97 31 0 22 -10 41 -34 65 -28
28 -41 34 -78 34 -37 0 -49 -6 -76 -33z m121 -31 c9 -13 13 -26 10 -30 -10
-10 -111 -7 -118 3 -8 14 44 51 70 51 13 0 30 -10 38 -24z"/>
<path d="M2532 5463 c-41 -47 -55 -120 -32 -163 27 -50 56 -70 103 -70 41 0
49 4 81 42 30 35 36 49 36 88 0 39 -6 53 -36 88 -32 38 -40 42 -82 42 -38 0
-51 -5 -70 -27z m102 -34 c24 -19 27 -27 24 -72 -2 -41 -8 -54 -30 -70 l-28
-21 -27 21 c-23 16 -29 29 -31 70 -3 45 0 53 24 72 15 12 30 21 34 21 4 0 19
-9 34 -21z"/>
<path d="M3223 5464 c-39 -44 -21 -104 31 -104 15 0 29 -7 32 -15 4 -8 17 -15
29 -15 27 0 38 -12 29 -33 -10 -27 -52 -30 -90 -6 -33 20 -64 20 -64 0 0 -6
11 -22 25 -36 21 -20 35 -25 78 -25 44 1 56 5 81 30 24 25 27 34 22 64 -5 28
-12 36 -36 41 -16 4 -32 11 -35 16 -4 5 -17 9 -29 9 -33 0 -53 25 -36 45 17
20 39 19 74 -4 50 -33 74 -8 34 35 -34 35 -114 34 -145 -2z"/>
<path d="M3575 5460 c-23 -24 -26 -33 -17 -42 10 -10 22 -7 56 11 53 30 99 24
94 -12 -2 -17 -11 -23 -40 -25 -20 -2 -42 -10 -48 -18 -7 -8 -21 -14 -31 -14
-40 0 -51 -63 -18 -104 16 -21 29 -26 63 -26 23 0 47 5 53 11 8 8 20 9 41 1
17 -6 32 -8 35 -6 5 6 -2 167 -9 201 -8 39 -31 53 -93 53 -51 0 -61 -3 -86
-30z m133 -125 c2 -12 -8 -31 -22 -44 -19 -18 -31 -22 -55 -16 -39 8 -43 42
-7 51 14 3 27 12 30 21 9 22 50 12 54 -12z"/>
<path d="M3851 5481 l-34 -6 0 -113 c0 -116 7 -140 38 -128 14 5 16 16 10 79
-9 94 2 124 50 133 26 5 35 11 33 23 -4 18 -42 23 -97 12z"/>
<path d="M3986 5448 c-31 -35 -36 -49 -36 -90 0 -42 5 -54 37 -88 33 -37 40
-40 90 -40 38 0 55 4 59 15 3 8 14 17 25 20 25 8 24 32 -2 40 -12 4 -27 1 -38
-9 -17 -15 -39 -21 -73 -18 -20 2 -52 58 -42 74 4 6 28 9 64 5 31 -2 69 -2 84
0 26 5 27 8 21 42 -10 52 -57 91 -111 91 -37 0 -47 -5 -78 -42z m122 -21 c12
-13 19 -27 15 -30 -9 -10 -111 -9 -117 1 -6 10 15 37 34 45 29 11 47 7 68 -16z"/>
<path d="M4352 5463 c-23 -24 -24 -53 -2 -53 6 0 24 10 40 22 24 17 35 20 62
12 23 -7 33 -16 33 -29 0 -16 -8 -21 -37 -23 -20 -2 -42 -10 -48 -18 -7 -8
-23 -14 -35 -14 -39 0 -50 -75 -15 -110 24 -24 91 -27 114 -5 9 9 17 11 21 5
3 -5 20 -10 37 -10 27 0 30 2 24 25 -3 13 -8 55 -11 92 -10 130 -13 134 -110
132 -40 -1 -55 -6 -73 -26z m136 -126 c2 -10 -8 -29 -22 -43 -20 -21 -31 -24
-56 -19 -38 8 -41 41 -6 55 13 5 27 14 31 20 10 17 49 7 53 -13z"/>
<path d="M5118 5460 c-31 -29 -33 -34 -33 -101 0 -67 2 -72 33 -100 43 -39
113 -41 155 -4 15 13 27 29 27 35 0 14 -57 13 -62 -1 -2 -6 -20 -13 -39 -15
-30 -3 -39 1 -58 27 -36 49 -24 59 74 59 l85 0 0 30 c0 19 -11 41 -32 65 -28
29 -40 35 -75 35 -33 0 -49 -7 -75 -30z m112 -30 c29 -29 17 -40 -46 -40 -57
0 -64 8 -37 40 22 26 57 26 83 0z"/>
<path d="M672 5018 c3 -25 33 -34 57 -19 23 15 5 41 -29 41 -27 0 -31 -3 -28
-22z"/>
<path d="M1535 5032 c-6 -4 -10 -71 -10 -165 0 -144 2 -159 18 -169 33 -18 41
5 42 115 0 59 4 103 10 105 6 2 11 -5 13 -15 3 -22 30 -113 50 -170 8 -24 21
-43 28 -43 17 0 39 43 49 95 4 22 11 45 15 50 5 6 10 26 12 45 2 19 8 35 13
35 6 0 11 -44 13 -105 1 -58 7 -109 11 -113 5 -5 18 -6 30 -2 20 6 21 13 21
170 0 160 -1 164 -22 171 -17 5 -27 0 -45 -22 -13 -16 -23 -39 -23 -50 0 -12
-7 -27 -15 -34 -8 -7 -15 -21 -15 -32 0 -11 -6 -34 -14 -51 -8 -18 -17 -40
-20 -50 -9 -26 -26 -11 -26 23 0 16 -4 31 -9 34 -5 4 -12 24 -16 45 -4 22 -13
45 -21 52 -8 6 -14 18 -14 26 0 40 -47 76 -75 55z"/>
<path d="M1939 5012 c-24 -22 -31 -36 -31 -65 0 -40 15 -67 38 -67 7 0 17 -6
21 -14 4 -7 29 -15 54 -18 29 -3 54 -13 68 -27 25 -25 26 -39 6 -65 -12 -16
-25 -19 -67 -17 -44 2 -56 7 -77 32 -26 32 -29 33 -50 20 -17 -11 -1 -43 38
-77 21 -19 38 -23 87 -24 56 0 62 2 94 35 26 27 34 43 33 69 -1 53 -30 85 -76
86 -24 0 -40 5 -43 15 -4 8 -17 15 -29 15 -22 0 -55 23 -55 39 0 16 43 52 57
47 8 -3 27 -6 42 -6 20 0 31 -7 39 -25 8 -17 20 -25 37 -25 36 0 32 29 -9 68
-30 28 -41 32 -90 32 -47 0 -61 -4 -87 -28z"/>
<path d="M2214 5028 c-9 -14 -8 -314 1 -328 3 -6 45 -10 92 -10 82 0 86 1 113
30 41 44 48 85 20 122 -20 28 -21 34 -10 68 14 42 7 75 -24 107 -18 20 -31 23
-103 23 -52 0 -84 -4 -89 -12z m164 -55 c14 -19 16 -52 4 -71 -11 -16 -73 -27
-106 -18 -24 6 -26 11 -26 55 0 55 6 60 75 54 23 -2 45 -10 53 -20z m16 -160
c6 -24 5 -38 -6 -55 -15 -23 -27 -25 -120 -19 -15 1 -18 10 -18 50 0 57 5 61
80 58 52 -2 55 -3 64 -34z"/>
<path d="M4226 5032 c-2 -4 -4 -80 -3 -169 2 -152 3 -162 22 -167 11 -3 23 -2
27 2 9 10 13 315 4 330 -8 13 -42 16 -50 4z"/>
<path d="M6635 5026 c-11 -8 -18 -25 -17 -45 0 -22 -5 -34 -20 -42 l-21 -11
23 -18 c22 -17 23 -21 17 -113 -7 -101 -3 -113 35 -102 20 7 21 11 15 104 l-6
97 32 12 c31 12 31 13 13 27 -11 8 -26 15 -33 15 -7 0 -13 9 -13 20 0 14 7 20
23 20 31 0 51 15 44 34 -8 20 -66 22 -92 2z"/>
<path d="M6877 5007 c-30 -35 -32 -70 -4 -75 11 -2 23 8 35 27 27 49 58 51 82
5 18 -33 -3 -73 -42 -81 -50 -10 -29 -43 28 -43 45 0 44 -83 -2 -100 -32 -12
-46 -6 -68 31 -13 21 -24 29 -39 27 -33 -5 -31 -32 5 -72 29 -32 38 -36 83
-36 44 0 53 4 82 37 42 47 45 93 6 121 -25 18 -26 20 -10 43 44 63 -6 149 -86
149 -35 0 -47 -6 -70 -33z"/>
<path d="M7235 5033 c-7 -5 -12 -70 -12 -169 l-2 -162 71 -7 c61 -6 75 -4 97
13 63 46 70 148 16 217 -12 15 -28 20 -68 20 l-52 0 0 45 c0 37 -3 45 -20 48
-11 1 -25 -1 -30 -5z m144 -157 c25 -41 27 -73 4 -106 -23 -34 -35 -41 -58
-34 -31 9 -45 34 -45 83 0 32 6 51 22 68 30 32 53 29 77 -11z"/>
<path d="M7473 5024 c-3 -8 -1 -20 5 -26 16 -16 47 -5 50 20 3 18 -1 22 -23
22 -14 0 -28 -7 -32 -16z"/>
<path d="M1058 5013 c-17 -9 -28 -22 -28 -35 0 -12 -7 -29 -16 -39 -15 -16
-14 -19 4 -30 19 -12 20 -20 15 -75 -11 -116 10 -155 73 -140 31 8 31 23 -1
38 -24 11 -25 16 -25 91 0 70 2 79 20 84 11 3 20 11 20 18 0 8 -9 17 -20 20
-22 7 -25 26 -10 55 13 25 1 30 -32 13z"/>
<path d="M2648 5010 c-18 -14 -24 -26 -21 -40 3 -12 -1 -22 -11 -26 -20 -8
-21 -30 -1 -38 12 -4 15 -24 15 -94 0 -98 12 -122 63 -122 35 0 45 20 20 40
-29 23 -37 155 -10 174 21 16 22 32 2 40 -10 3 -15 19 -15 46 0 45 -4 47 -42
20z"/>
<path d="M4603 5013 c-13 -8 -23 -26 -23 -39 0 -13 -8 -27 -17 -33 -17 -9 -17
-10 0 -28 13 -15 17 -38 17 -105 0 -94 13 -118 63 -118 36 0 45 20 18 41 -19
15 -23 31 -27 93 -4 68 -3 75 16 81 23 7 27 30 5 39 -10 3 -15 19 -15 46 0 44
-4 47 -37 23z"/>
<path d="M7603 5011 c-13 -11 -23 -27 -23 -37 0 -10 -7 -25 -16 -35 -14 -16
-14 -18 6 -29 20 -11 21 -16 15 -81 -8 -82 5 -126 41 -135 47 -12 79 27 34 41
-18 6 -20 15 -20 86 0 62 3 81 15 85 8 4 15 12 15 19 0 7 -7 15 -15 19 -10 3
-15 19 -15 46 0 45 -5 48 -37 21z"/>
<path d="M677 4943 c-11 -11 -8 -241 3 -248 6 -3 18 -4 28 -1 16 5 18 18 17
120 -1 62 -5 118 -9 125 -8 12 -29 15 -39 4z"/>
<path d="M820 4943 l-45 -4 -3 -119 c-2 -113 -2 -119 19 -125 34 -11 42 8 40
97 -1 46 3 89 7 96 5 8 25 14 43 15 l34 2 3 -102 c2 -91 5 -103 22 -108 34
-11 40 4 40 90 0 123 -27 169 -95 163 -11 -1 -40 -3 -65 -5z"/>
<path d="M1178 4918 c-50 -58 -49 -140 1 -196 23 -27 35 -32 74 -32 41 0 49 4
81 42 30 35 36 49 36 88 0 39 -6 53 -36 88 -32 38 -40 42 -82 42 -40 0 -51 -5
-74 -32z m106 -29 c24 -19 27 -27 24 -72 -2 -41 -8 -54 -30 -70 l-28 -21 -27
21 c-23 16 -29 29 -31 70 -3 45 0 53 24 72 15 12 30 21 34 21 4 0 19 -9 34
-21z"/>
<path d="M2781 4918 c-34 -36 -47 -81 -37 -130 3 -18 20 -48 37 -65 25 -27 37
-33 73 -33 38 0 48 5 80 40 31 35 36 47 36 90 0 43 -5 55 -36 90 -32 35 -42
40 -80 40 -36 0 -48 -6 -73 -32z m116 -37 c16 -21 16 -102 -1 -123 -18 -24
-67 -23 -89 2 -19 22 -24 110 -7 110 6 0 10 6 10 14 0 30 64 27 87 -3z"/>
<path d="M3159 4923 c-63 -72 -67 -129 -13 -191 32 -38 40 -42 83 -42 39 0 52
5 75 28 24 26 25 30 11 42 -12 10 -19 9 -40 -4 -34 -22 -82 -21 -95 3 -11 22
-14 90 -4 116 12 31 53 38 90 14 53 -32 72 -10 30 35 -34 38 -103 37 -137 -1z"/>
<path d="M3405 4942 c-6 -4 -23 -22 -38 -40 -21 -26 -27 -44 -27 -82 0 -38 6
-56 27 -82 38 -45 42 -48 89 -48 36 0 47 5 73 35 27 31 31 43 31 93 0 49 -4
63 -31 95 -26 32 -36 37 -72 37 -23 0 -47 -4 -52 -8z m69 -42 c16 0 46 -52 46
-80 0 -12 -8 -35 -17 -51 -21 -36 -69 -40 -96 -9 -19 22 -24 110 -7 110 6 0
10 6 10 14 0 16 19 26 38 20 8 -2 19 -4 26 -4z"/>
<path d="M3642 4941 l-43 -6 -1 -115 c-1 -108 1 -115 21 -124 32 -14 39 4 33
79 -2 35 -2 75 2 89 8 31 39 50 68 40 19 -6 20 -11 16 -105 -3 -55 -1 -102 4
-105 5 -3 20 -3 32 0 23 6 23 9 22 100 -1 108 7 126 51 110 28 -9 28 -11 29
-103 2 -96 9 -116 37 -105 31 12 19 197 -15 233 -26 28 -83 28 -98 1 l-11 -21
-26 21 c-26 20 -43 22 -121 11z"/>
<path d="M3985 4940 c-9 -14 -11 -331 -3 -337 5 -2 18 -1 29 2 19 6 20 12 14
52 l-7 45 50 -7 c49 -6 50 -6 86 36 29 34 36 51 36 85 0 74 -47 134 -106 134
-18 0 -40 -7 -48 -16 -9 -8 -16 -11 -16 -6 0 14 -28 23 -35 12z m122 -45 c46
-32 37 -147 -12 -159 -32 -8 -48 0 -62 31 -20 43 -16 87 12 117 28 30 33 31
62 11z"/>
<path d="M4362 4922 c-38 -45 -42 -55 -42 -100 0 -48 9 -69 44 -107 19 -20 33
-25 75 -25 36 0 53 4 57 15 3 8 14 17 25 20 24 8 24 21 0 35 -14 7 -23 6 -33
-3 -25 -25 -64 -28 -91 -7 -30 24 -40 57 -20 64 8 3 46 6 84 6 76 0 87 8 70
52 -19 51 -55 78 -102 78 -36 0 -48 -5 -67 -28z m108 -30 c33 -26 17 -42 -40
-42 -27 0 -52 5 -56 12 -9 14 31 48 56 48 10 0 28 -8 40 -18z"/>
<path d="M4731 4916 c-29 -30 -33 -40 -34 -94 -2 -57 0 -63 32 -96 30 -31 41
-36 81 -36 32 0 54 6 69 19 13 11 28 22 34 24 17 5 -1 37 -21 37 -10 0 -29 -9
-42 -20 -37 -32 -103 -4 -112 46 -3 17 4 19 77 19 96 1 109 7 101 48 -9 45
-62 86 -112 87 -33 0 -46 -6 -73 -34z m122 -30 c15 -22 15 -25 1 -30 -26 -10
-114 -7 -114 4 0 5 8 19 17 30 25 29 76 27 96 -4z"/>
<path d="M5105 4927 c-62 -67 -61 -163 4 -212 27 -20 85 -22 108 -3 19 16 17
-17 -3 -47 -20 -31 -59 -33 -89 -5 -13 12 -28 17 -43 13 -29 -7 -28 -19 4 -48
39 -37 113 -35 154 3 29 27 30 28 36 165 7 146 2 167 -36 147 -9 -5 -22 -5
-31 1 -26 16 -83 9 -104 -14z m109 -42 c21 -32 21 -99 -1 -131 -14 -21 -22
-25 -47 -20 -39 8 -46 20 -46 82 0 50 12 77 40 87 28 10 38 7 54 -18z"/>
<path d="M5363 4943 l-33 -4 0 -119 c0 -65 4 -121 8 -124 5 -3 18 -3 30 1 20
5 21 10 16 77 -7 94 4 131 39 131 32 1 41 9 34 30 -6 15 -25 16 -94 8z"/>
<path d="M5504 4916 c-31 -31 -34 -39 -34 -96 0 -57 3 -65 34 -96 28 -28 41
-34 77 -34 37 0 48 5 76 37 29 32 33 43 33 93 0 50 -4 61 -33 93 -28 32 -39
37 -76 37 -36 0 -49 -6 -77 -34z m119 -38 c37 -43 14 -127 -40 -143 -34 -10
-63 29 -63 85 0 81 55 113 103 58z"/>
<path d="M5732 4942 c-10 -7 -11 -32 -6 -105 6 -84 10 -101 31 -123 22 -24 29
-26 76 -20 29 3 62 6 75 6 22 0 22 2 22 119 0 70 -4 122 -10 126 -6 3 -19 3
-30 0 -18 -6 -20 -15 -20 -95 0 -102 -11 -123 -57 -111 -28 7 -28 8 -29 98 -1
110 -11 130 -52 105z"/>
<path d="M5993 4942 c-16 -10 -20 -319 -5 -334 22 -22 42 0 42 46 l0 46 45 -7
c41 -5 48 -3 72 23 70 74 71 130 4 207 -28 30 -81 37 -103 13 -11 -12 -15 -12
-28 -1 -9 8 -21 11 -27 7z m124 -54 c30 -29 32 -94 2 -132 -26 -33 -52 -33
-73 -1 -32 49 -10 155 32 155 9 0 26 -10 39 -22z"/>
<path d="M6374 4916 c-31 -31 -34 -39 -34 -96 0 -57 3 -65 34 -96 28 -28 41
-34 78 -34 37 0 49 6 76 33 29 30 32 39 32 93 0 52 -4 64 -31 97 -27 33 -36
37 -76 37 -38 0 -50 -5 -79 -34z m123 -35 c22 -29 25 -69 8 -106 -15 -29 -22
-35 -50 -35 -60 0 -86 82 -44 141 17 24 25 28 47 22 15 -3 32 -13 39 -22z"/>
<path d="M7492 4941 c-9 -6 -12 -40 -10 -127 3 -111 4 -119 23 -119 19 0 20 8
23 116 3 118 -6 149 -36 130z"/>
<path d="M7716 4919 c-19 -22 -25 -38 -20 -53 10 -33 24 -46 50 -46 12 0 29
-6 36 -14 8 -8 23 -16 34 -18 30 -5 29 -36 -1 -50 -23 -10 -32 -9 -64 8 -57
33 -81 13 -38 -32 17 -19 32 -24 73 -24 42 0 54 4 78 29 37 38 34 94 -4 99
-14 2 -29 9 -35 16 -5 7 -27 16 -47 20 -28 5 -38 12 -38 26 0 26 59 39 75 16
12 -16 56 -22 68 -10 3 4 -6 20 -21 35 -22 24 -35 29 -74 29 -40 0 -50 -4 -72
-31z"/>
<path d="M1402 4697 c-13 -17 -3 -38 38 -84 19 -21 51 -58 70 -83 31 -40 127
-157 140 -170 3 -3 23 -27 45 -55 52 -66 77 -95 95 -115 8 -9 33 -38 55 -65
22 -28 47 -57 55 -65 30 -31 75 -92 72 -98 -1 -4 -69 -5 -151 -3 -82 1 -159 0
-170 -4 -21 -6 -21 -9 -21 -470 0 -402 2 -464 15 -469 19 -7 1135 -9 1143 -2
3 3 21 6 41 6 l36 0 -3 -593 c-3 -504 -1 -595 11 -605 37 -31 38 -3 35 607
l-3 591 37 0 c20 0 40 -5 44 -11 3 -6 16 -8 28 -5 27 8 4784 8 4812 0 12 -3
25 -1 28 5 4 6 24 11 44 11 l37 0 -3 -593 c-3 -503 -1 -596 11 -605 37 -31 38
-2 35 607 l-3 591 36 0 c19 0 39 -4 45 -8 5 -5 56 -6 114 -3 l105 6 3 459 c1
333 -1 462 -9 473 -10 11 -489 13 -3120 13 l-3109 -1 -48 63 c-26 35 -57 74
-69 88 -11 14 -40 48 -63 75 -23 28 -52 61 -64 75 -12 14 -42 52 -67 85 -26
33 -57 72 -70 86 -27 30 -47 54 -104 124 -21 28 -42 52 -45 55 -3 3 -19 22
-35 43 -34 46 -59 61 -73 44z m654 -819 c43 -44 40 -68 -8 -69 -46 -1 -80 -12
-76 -24 1 -5 33 -20 69 -32 61 -19 85 -30 129 -55 8 -4 26 -13 39 -18 13 -6
29 -17 35 -25 7 -10 16 -12 25 -6 11 7 10 15 -8 44 -11 19 -21 44 -21 56 0 12
-7 36 -16 52 -8 17 -14 48 -12 70 l3 40 533 0 533 0 0 -427 0 -426 -142 -1
-142 0 -33 64 c-46 92 -64 135 -64 153 0 29 -28 16 -35 -16 -4 -18 -11 -39
-16 -48 -4 -8 -10 -22 -13 -30 -3 -8 -10 -22 -15 -30 -5 -8 -12 -22 -16 -30
-3 -8 -12 -25 -19 -38 l-14 -23 -542 0 c-299 1 -545 3 -547 5 -5 5 -4 836 1
844 2 4 79 7 170 7 l166 0 36 -37z m94 13 c0 -41 -13 -46 -46 -18 -32 28 -25
47 17 47 25 0 29 -4 29 -29z m2781 -406 l0 -425 -801 0 -801 0 0 425 c0 234 1
426 1 428 0 1 360 1 800 0 l801 -3 0 -425z m1650 0 l0 -425 -801 0 -801 0 0
425 c0 234 1 426 1 428 0 1 360 1 800 0 l801 -3 0 -425z m1646 421 c5 -5 4
-838 -1 -843 -2 -2 -39 -5 -81 -6 l-77 -2 -35 70 c-19 39 -39 78 -44 87 -5 10
-9 26 -9 37 0 29 -11 51 -25 51 -14 0 -25 -22 -25 -51 0 -11 -4 -27 -9 -37 -5
-9 -12 -24 -15 -32 -3 -8 -10 -22 -15 -30 -5 -8 -12 -22 -16 -30 -3 -8 -12
-25 -19 -38 l-13 -23 -607 0 -607 1 0 425 c0 234 1 426 1 428 0 3 1593 -3
1597 -7z"/>
<path d="M2029 3608 c-30 -33 -39 -61 -39 -131 0 -50 5 -68 26 -99 23 -32 32
-38 64 -38 23 0 43 7 52 18 24 26 48 90 48 126 0 36 -29 103 -54 129 -24 24
-71 21 -97 -5z m75 -44 c3 -9 6 -46 6 -84 0 -50 -4 -73 -16 -85 -24 -24 -36
-6 -42 59 -6 78 4 126 27 126 11 0 22 -7 25 -16z"/>
<path d="M2439 3623 c-32 -8 -49 -58 -49 -141 0 -72 3 -84 26 -111 19 -23 34
-31 58 -31 63 0 96 49 96 143 0 113 -46 163 -131 140z m65 -59 c9 -24 7 -147
-3 -162 -5 -8 -17 -12 -27 -10 -16 3 -19 14 -22 82 -2 44 -1 85 2 93 7 18 43
16 50 -3z"/>
<path d="M2861 3596 c-22 -19 -46 -36 -53 -38 -7 -3 -9 -12 -5 -22 5 -14 14
-16 37 -11 l30 7 0 -90 c0 -84 1 -90 22 -96 13 -3 27 -1 32 4 10 10 11 253 1
270 -10 16 -20 12 -64 -24z"/>
<path d="M3694 3622 c-29 -20 -54 -82 -54 -133 0 -53 27 -124 54 -141 21 -14
71 -8 87 10 64 75 64 179 0 254 -16 18 -67 24 -87 10z m70 -64 c7 -30 7 -116
0 -145 -4 -15 -14 -23 -29 -23 -27 0 -35 22 -35 95 0 73 8 95 35 95 15 0 25
-8 29 -22z"/>
<path d="M4118 3602 c-13 -15 -32 -31 -41 -35 -20 -7 -20 -38 -1 -44 7 -2 19
3 28 12 19 20 20 18 16 -102 -2 -71 1 -84 15 -90 40 -15 47 6 47 141 0 97 -3
131 -13 137 -21 13 -25 11 -51 -19z"/>
<path d="M4490 3622 c0 -5 -9 -19 -20 -32 -16 -19 -20 -37 -20 -105 0 -68 4
-86 20 -105 11 -13 20 -27 20 -32 0 -4 18 -8 40 -8 35 0 43 4 66 40 24 36 26
46 22 117 -4 97 -28 133 -90 133 -21 0 -38 -4 -38 -8z m70 -61 c5 -11 10 -45
10 -76 0 -65 -13 -95 -40 -95 -19 0 -40 49 -40 95 0 11 5 37 11 58 11 42 41
51 59 18z"/>
<path d="M5376 3606 c-9 -14 -31 -33 -48 -42 -30 -16 -31 -17 -13 -30 24 -18
30 -18 50 3 16 15 17 9 14 -80 -3 -100 5 -125 36 -114 13 6 15 26 13 144 -3
117 -5 138 -19 141 -9 2 -24 -8 -33 -22z"/>
<path d="M5768 3602 c-13 -15 -31 -31 -41 -35 -18 -7 -23 -32 -7 -42 5 -3 19
-1 30 5 24 13 23 15 20 -97 -2 -71 1 -84 15 -90 40 -15 47 6 47 141 0 97 -3
131 -13 137 -21 13 -25 11 -51 -19z"/>
<path d="M6160 3595 c-23 -19 -46 -35 -51 -35 -14 0 -10 -27 5 -33 8 -3 24 -3
36 0 21 6 22 4 19 -78 -2 -47 0 -90 5 -97 10 -16 56 -16 57 1 4 50 -1 259 -6
267 -10 16 -21 12 -65 -25z"/>
<path d="M7026 3606 c-9 -14 -31 -33 -48 -42 -30 -16 -31 -17 -13 -30 24 -18
30 -18 50 3 16 15 17 10 14 -80 -4 -100 4 -126 36 -114 13 6 15 26 13 144 -3
117 -5 138 -19 141 -9 2 -24 -8 -33 -22z"/>
<path d="M7384 3608 c-35 -41 -44 -67 -44 -123 0 -79 41 -145 90 -145 56 0 90
55 90 145 0 66 -14 104 -49 133 -23 19 -66 14 -87 -10z m80 -80 c9 -62 -2
-135 -20 -142 -29 -11 -44 23 -44 99 0 53 4 78 15 89 25 24 42 8 49 -46z"/>
<path d="M7790 3622 c0 -5 -9 -19 -20 -32 -16 -19 -20 -37 -20 -105 0 -73 3
-84 26 -113 40 -48 82 -45 119 8 25 36 27 45 23 117 -4 97 -28 133 -90 133
-21 0 -38 -4 -38 -8z m70 -61 c5 -11 10 -45 10 -76 0 -65 -13 -95 -40 -95 -19
0 -40 49 -40 95 0 11 5 37 11 58 11 42 41 51 59 18z"/>
<path d="M2351 1649 c-31 -30 -33 -36 -33 -84 0 -46 2 -52 28 -81 23 -24 33
-28 80 -27 47 1 54 -1 54 -18 0 -21 -42 -69 -60 -69 -5 0 -18 10 -28 21 -33
40 -44 50 -56 46 -24 -8 -17 -47 13 -77 38 -38 96 -42 133 -7 32 30 39 48 48
139 9 84 1 114 -45 164 -34 36 -94 34 -134 -7z m117 -37 c17 -22 15 -87 -4
-106 -44 -45 -118 16 -95 78 21 55 67 68 99 28z"/>
<path d="M2702 1672 c-10 -7 -11 -21 -5 -58 8 -51 2 -238 -8 -248 -3 -4 -18
-2 -33 3 -25 10 -26 13 -26 90 0 72 2 81 22 92 l21 11 -22 17 c-13 10 -22 24
-21 32 5 31 -1 49 -15 49 -17 0 -34 -30 -27 -49 2 -8 -3 -20 -13 -27 -17 -13
-17 -15 -1 -33 14 -15 17 -35 14 -104 -2 -60 1 -89 11 -101 15 -18 48 -21 70
-7 9 6 24 5 39 0 41 -16 49 1 44 88 -3 69 -1 81 17 101 29 30 59 28 71 -4 6
-15 8 -59 4 -104 -7 -79 -7 -79 19 -85 46 -12 50 -1 44 105 -4 86 -8 100 -31
125 -24 25 -30 27 -76 21 l-51 -7 3 48 c3 42 0 48 -17 51 -11 1 -26 -2 -33 -6z"/>
<path d="M3793 1664 c-8 -23 12 -38 41 -30 39 10 36 46 -4 46 -19 0 -33 -6
-37 -16z"/>
<path d="M4023 1664 c-7 -18 14 -35 37 -31 8 1 16 12 18 25 3 18 -1 22 -23 22
-14 0 -28 -7 -32 -16z"/>
<path d="M7305 1653 c-14 -16 -27 -37 -30 -48 -22 -109 -10 -203 30 -245 23
-24 37 -30 70 -30 42 0 67 18 95 70 17 31 26 165 11 174 -6 4 -11 15 -11 25 0
9 -12 32 -26 49 -23 27 -34 32 -70 32 -34 0 -49 -6 -69 -27z m99 -34 c26 -20
27 -23 24 -116 -3 -92 -4 -97 -31 -117 l-29 -21 -24 30 c-40 49 -32 205 11
237 15 11 20 10 49 -13z"/>
<path d="M7660 1674 c-13 -4 -15 -27 -12 -147 2 -78 -1 -148 -6 -155 -6 -9
-15 -10 -35 -3 -26 10 -27 13 -27 90 0 72 2 81 22 92 l21 11 -22 17 c-13 10
-22 24 -21 32 5 31 -1 49 -15 49 -18 0 -38 -36 -29 -52 4 -6 -1 -17 -11 -24
-17 -13 -17 -15 -1 -33 14 -15 17 -35 14 -104 -2 -60 1 -89 11 -101 15 -18 48
-21 70 -7 9 6 24 5 39 0 41 -16 49 1 44 88 -3 69 -1 81 17 101 54 57 86 11 75
-109 -6 -78 -6 -78 19 -84 45 -12 50 0 44 100 -4 77 -9 98 -28 125 -23 31 -26
32 -78 26 l-54 -6 6 35 c9 57 0 70 -43 59z"/>
<path d="M8744 1665 c-3 -8 -3 -19 1 -25 14 -23 78 0 69 25 -8 19 -63 20 -70
0z"/>
<path d="M8977 1673 c-13 -13 -7 -32 13 -38 25 -8 51 11 43 31 -5 14 -44 19
-56 7z"/>
<path d="M3922 1648 c-7 -7 -12 -22 -12 -34 0 -12 -7 -27 -15 -34 -14 -12 -14
-15 0 -30 11 -12 15 -39 15 -99 0 -45 5 -91 10 -102 13 -22 48 -25 76 -5 18
14 18 15 -8 25 -26 10 -28 15 -28 68 0 32 -3 68 -6 80 -5 18 -1 25 22 33 l29
11 -22 17 c-12 9 -23 30 -25 46 -3 33 -18 42 -36 24z"/>
<path d="M8872 1648 c-7 -7 -12 -22 -12 -34 0 -12 -7 -27 -15 -34 -14 -12 -14
-15 0 -30 11 -12 15 -39 15 -99 0 -45 5 -91 10 -102 12 -22 48 -25 75 -5 18
13 17 14 -9 27 -26 13 -27 18 -30 93 -3 69 -1 79 16 84 21 5 24 28 4 35 -8 3
-16 20 -18 38 -3 36 -17 46 -36 27z"/>
<path d="M3077 1583 c-7 -13 -3 -331 5 -338 3 -4 16 -4 28 0 18 6 21 13 18 48
l-3 42 46 -3 c44 -3 49 0 83 39 55 65 50 142 -13 197 -21 19 -33 23 -66 18
-22 -3 -44 -6 -50 -7 -5 -1 -17 2 -26 5 -10 4 -19 4 -22 -1z m154 -81 c34 -89
-59 -179 -98 -95 -17 36 -16 68 2 103 25 48 76 44 96 -8z"/>
<path d="M3351 1555 c-27 -31 -31 -43 -31 -93 0 -49 4 -63 31 -95 27 -32 36
-37 74 -37 37 0 49 5 74 32 54 58 53 138 -2 196 -25 26 -39 32 -73 32 -35 0
-47 -5 -73 -35z m122 -35 c10 -12 17 -37 17 -60 0 -50 -24 -80 -65 -80 -23 0
-35 7 -48 29 -21 36 -22 63 -2 101 12 24 22 30 48 30 20 0 39 -8 50 -20z"/>
<path d="M3596 1569 c-14 -11 -26 -29 -26 -39 0 -32 22 -70 41 -70 10 0 37
-10 59 -21 31 -16 40 -27 38 -43 -4 -27 -58 -35 -81 -12 -18 18 -53 21 -62 6
-3 -5 6 -21 21 -35 21 -19 38 -25 75 -25 49 0 65 10 95 55 28 44 -15 88 -101
104 -24 5 -30 11 -30 31 0 31 24 37 67 16 58 -30 80 -10 35 32 -31 29 -95 30
-131 1z"/>
<path d="M4041 1581 c-8 -5 -11 -43 -9 -127 3 -111 4 -119 23 -119 19 0 20 7
21 122 0 122 -5 142 -35 124z"/>
<path d="M4175 1582 c-36 -25 -55 -67 -55 -122 0 -44 5 -64 22 -86 31 -40 37
-44 85 -44 36 0 46 5 77 42 30 35 36 49 36 88 0 39 -6 53 -36 88 -31 37 -41
42 -77 42 -23 0 -47 -4 -52 -8z m93 -60 c6 -9 12 -37 12 -62 0 -80 -49 -112
-95 -63 -22 24 -26 35 -22 71 8 71 67 102 105 54z"/>
<path d="M4420 1583 l-45 -4 -1 -119 c-2 -111 0 -120 18 -126 34 -10 42 11 40
99 -3 90 1 101 38 110 43 11 49 -2 52 -108 3 -93 5 -100 24 -103 34 -5 41 17
35 115 -5 76 -10 96 -28 117 -24 27 -27 27 -133 19z"/>
<path d="M8027 1583 c-8 -12 -3 -331 5 -338 3 -4 16 -4 28 0 20 6 22 12 16 52
l-6 45 49 -7 c47 -6 49 -6 85 36 53 62 50 129 -9 197 -22 25 -86 31 -107 9
-10 -12 -15 -12 -26 0 -15 15 -28 17 -35 6z m156 -94 c13 -48 -6 -105 -37
-113 -33 -8 -49 0 -63 31 -17 36 -16 68 2 103 27 52 82 41 98 -21z"/>
<path d="M8301 1555 c-27 -31 -31 -43 -31 -95 0 -52 4 -64 31 -95 27 -30 37
-35 76 -35 37 0 49 5 73 32 52 57 52 140 -1 196 -25 27 -37 32 -73 32 -38 0
-48 -5 -75 -35z m122 -35 c10 -12 17 -37 17 -60 0 -50 -24 -80 -65 -80 -23 0
-35 7 -48 29 -21 36 -22 63 -2 101 12 24 22 30 48 30 20 0 39 -8 50 -20z"/>
<path d="M8545 1565 c-28 -27 -30 -42 -13 -80 7 -16 19 -25 33 -25 13 0 28 -6
35 -14 6 -8 21 -16 33 -18 16 -2 22 -10 22 -28 0 -21 -5 -26 -31 -28 -19 -2
-38 3 -47 12 -17 17 -52 21 -61 8 -3 -5 6 -20 20 -35 20 -22 34 -27 74 -27 50
0 66 9 96 55 28 44 -15 88 -101 104 -24 5 -30 11 -30 31 0 22 4 25 33 23 18 0
41 -8 50 -16 19 -16 42 -12 42 7 0 7 -10 22 -23 34 -34 32 -100 30 -132 -3z"/>
<path d="M8991 1581 c-8 -5 -11 -43 -9 -127 3 -111 4 -119 23 -119 19 0 20 7
21 122 1 122 -5 142 -35 124z"/>
<path d="M9125 1582 c-36 -25 -55 -67 -55 -122 0 -44 5 -64 22 -86 31 -40 37
-44 85 -44 36 0 46 5 77 42 30 35 36 49 36 88 0 39 -6 53 -36 88 -31 37 -41
42 -77 42 -23 0 -47 -4 -52 -8z m93 -60 c6 -9 12 -37 12 -62 0 -80 -49 -112
-95 -63 -22 24 -26 35 -22 71 8 71 67 102 105 54z"/>
<path d="M9370 1583 l-45 -4 -1 -119 c-1 -111 0 -120 18 -126 34 -10 42 11 40
99 -3 90 1 101 38 110 43 11 49 -2 52 -108 l3 -100 30 0 c25 0 30 4 29 23 0
12 -1 57 -2 100 -2 67 -5 81 -27 105 -27 28 -29 28 -135 20z"/>
<path d="M3800 1461 c0 -123 3 -133 42 -123 15 4 17 18 15 121 l-2 116 -27 3
-28 3 0 -120z"/>
<path d="M8750 1461 c0 -66 4 -122 8 -125 5 -3 18 -2 30 1 21 5 22 10 19 122
l-2 116 -27 3 -28 3 0 -120z"/>
<path d="M2375 1103 c-14 -21 -25 -43 -25 -49 0 -7 -7 -25 -15 -40 -20 -39
-19 -146 1 -192 55 -126 65 -137 103 -113 11 7 9 15 -11 42 -25 35 -58 129
-58 168 0 38 34 145 52 165 22 24 23 42 2 50 -22 9 -21 10 -49 -31z"/>
<path d="M2486 1132 c-2 -4 -6 -78 -7 -165 -3 -166 2 -188 38 -169 16 9 18 22
14 107 -3 90 -2 97 15 93 13 -2 20 -14 22 -38 2 -19 8 -40 12 -45 5 -6 12 -30
16 -53 12 -76 64 -92 77 -24 18 87 26 115 36 125 6 6 11 23 11 38 0 28 18 51
22 27 1 -7 2 -62 3 -123 0 -103 1 -110 20 -110 19 0 20 8 25 163 4 123 2 166
-7 174 -19 16 -38 4 -57 -36 -9 -19 -20 -38 -25 -40 -5 -3 -12 -22 -16 -42 -3
-20 -10 -44 -15 -53 -5 -9 -11 -29 -15 -44 -5 -24 -8 -27 -20 -17 -8 7 -20 31
-26 54 -18 66 -64 166 -83 178 -14 10 -34 10 -40 0z"/>
<path d="M2889 1112 c-35 -37 -41 -60 -29 -98 7 -21 19 -34 35 -38 14 -4 25
-11 25 -16 0 -6 19 -10 43 -10 63 0 100 -43 81 -94 -5 -12 -20 -16 -58 -16
-43 0 -57 5 -76 25 -25 27 -70 34 -70 11 0 -7 17 -30 37 -50 35 -33 42 -36 99
-36 61 0 63 1 98 42 42 49 44 63 13 109 -16 25 -31 35 -54 37 -17 2 -37 10
-43 18 -7 8 -23 14 -36 14 -21 0 -54 23 -54 39 0 22 29 42 65 45 34 2 44 -2
70 -30 23 -25 34 -30 47 -23 21 12 14 34 -21 71 -23 24 -34 27 -86 27 -52 0
-63 -4 -86 -27z"/>
<path d="M3171 1131 c-21 -13 -20 -319 1 -332 7 -5 48 -9 91 -9 86 0 98 7 133
77 16 33 12 48 -28 104 -9 13 -8 20 5 34 26 25 21 67 -11 103 -27 31 -32 32
-103 32 -41 0 -80 -4 -88 -9z m155 -58 c18 -24 17 -43 -4 -71 -15 -20 -26 -23
-68 -20 l-49 3 -3 44 c-2 24 -1 49 2 56 7 20 105 11 122 -12z m15 -144 c13
-20 11 -52 -3 -71 -9 -11 -33 -17 -73 -20 l-60 -3 -3 44 c-5 69 -1 74 69 69
38 -3 64 -10 70 -19z"/>
<path d="M3444 1126 c-5 -14 0 -23 33 -60 24 -27 36 -141 23 -213 -13 -66 -19
-79 -52 -111 -21 -20 -7 -42 28 -42 17 0 25 7 30 25 3 14 10 25 14 25 5 0 11
14 15 31 4 17 13 42 21 57 18 34 18 129 0 163 -7 14 -16 38 -20 53 -16 63 -77
111 -92 72z"/>
<path d="M7321 1093 c-13 -27 -30 -60 -38 -75 -18 -36 -17 -152 3 -196 55
-126 65 -137 103 -113 11 7 9 15 -11 42 -14 19 -33 62 -43 97 -18 60 -18 67
-2 134 10 39 27 83 38 100 23 32 19 58 -8 58 -12 0 -27 -17 -42 -47z"/>
<path d="M7433 1128 c-12 -21 -3 -322 10 -330 19 -12 195 -9 202 2 16 25 -18
40 -90 40 l-72 0 5 141 c4 114 2 143 -9 150 -20 12 -37 11 -46 -3z"/>
<path d="M7720 1117 c-29 -27 -50 -61 -50 -79 1 -37 75 -88 127 -88 60 0 106
-63 71 -98 -7 -7 -35 -12 -63 -12 -44 0 -54 4 -77 30 -29 33 -55 39 -65 14 -4
-10 8 -29 33 -54 37 -37 42 -39 102 -40 56 0 67 3 93 27 16 16 32 42 35 59 9
50 -27 103 -72 104 -11 0 -29 7 -40 15 -10 8 -29 15 -40 15 -33 0 -49 25 -36
55 7 14 20 25 29 26 62 4 73 0 98 -29 27 -33 55 -34 55 -2 0 10 -14 32 -31 49
-27 27 -37 31 -87 31 -45 -1 -62 -5 -82 -23z"/>
<path d="M7997 1131 c-17 -6 -19 -21 -19 -166 0 -185 -7 -173 112 -174 69 -1
77 1 101 27 14 15 29 40 33 56 7 30 -9 86 -25 86 -15 0 -10 32 7 51 21 23 11
66 -22 102 -23 25 -31 27 -97 26 -40 0 -80 -4 -90 -8z m144 -41 c4 0 12 -13
19 -29 10 -24 9 -33 -5 -54 -14 -22 -23 -25 -68 -24 l-52 2 -3 44 c-5 64 0 69
55 65 26 -2 51 -3 54 -4z m19 -160 c23 -23 26 -49 7 -74 -9 -12 -29 -17 -72
-19 l-60 -2 -3 44 c-5 65 0 71 58 71 37 0 55 -5 70 -20z"/>
<path d="M8265 1130 c-3 -5 9 -28 27 -51 33 -41 33 -42 33 -148 0 -111 -8
-142 -48 -188 -22 -25 -15 -43 18 -43 17 0 30 12 49 44 14 25 26 54 26 65 0
11 5 23 10 26 6 3 10 42 10 85 0 43 -4 82 -10 85 -5 3 -10 16 -10 27 0 21 -36
87 -54 100 -16 11 -44 10 -51 -2z"/>
</g>
</svg>
