<?xml version="1.0" encoding="utf-8"?>
<svg viewBox="0 0 2379 2268" xmlns="http://www.w3.org/2000/svg">
  <g transform="matrix(0.177163, 0, 0, -0.173022, -17.171217, 3921.033447)" fill="#000000" stroke="none" style="">
    <path d="M4378 22397 c-7 -7 -21 -16 -30 -20 -9 -3 -25 -19 -35 -34 -10 -15 -22 -31 -27 -35 -6 -4 -12 -37 -14 -75 -4 -82 14 -122 79 -172 40 -30 48 -33 100 -29 49 4 62 9 92 39 24 24 41 55 52 94 16 55 16 62 0 113 -17 54 -28 69 -79 110 -33 25 -116 31 -138 9z m102 -47 c0 -5 6 -10 14 -10 34 0 65 -96 52 -164 -4 -19 -20 -49 -37 -66 -58 -57 -141 -30 -174 57 -23 61 -7 122 44 163 35 30 101 42 101 20z"/>
    <path d="M5393 22398 c-12 -17 -7 -348 5 -360 7 -7 16 -7 27 -1 15 9 17 32 18 182 2 153 0 174 -15 182 -22 12 -24 11 -35 -3z"/>
    <path d="M5644 22402 c-8 -5 -13 -67 -16 -185 -3 -177 -3 -178 19 -183 42 -11 45 1 42 134 -4 140 4 158 42 95 63 -104 151 -233 158 -233 40 0 41 7 41 190 0 173 -1 179 -21 185 -38 12 -44 -8 -40 -135 2 -76 -1 -120 -7 -120 -6 0 -21 17 -33 38 -45 74 -113 178 -133 200 -20 23 -33 27 -52 14z"/>
    <path d="M6764 22404 c-15 -6 -9 -353 6 -368 8 -8 16 -5 28 12 17 22 17 22 35 2 29 -35 79 -27 121 20 31 35 36 47 36 91 0 103 -55 155 -136 129 -19 -7 -38 -9 -42 -5 -4 4 -7 32 -7 63 0 56 -10 69 -41 56z m166 -181 c42 -53 4 -143 -59 -143 -59 0 -94 93 -55 148 23 34 86 31 114 -5z"/>
    <path d="M7939 22390 c-62 -51 -85 -94 -58 -110 16 -11 48 6 56 28 27 76 123 63 123 -15 0 -34 -22 -57 -103 -109 -53 -34 -87 -80 -87 -117 0 -35 17 -39 150 -35 97 3 105 4 105 23 0 18 -7 20 -93 21 -51 0 -96 4 -100 8 -8 8 43 56 108 100 46 31 80 79 80 112 0 22 -22 74 -31 74 -3 0 -16 9 -29 20 -30 26 -89 26 -121 0z"/>
    <path d="M8313 22391 c-10 -10 -29 -34 -43 -52 -14 -18 -33 -41 -42 -51 -10 -10 -18 -22 -18 -27 0 -4 -14 -24 -30 -42 -17 -19 -29 -43 -28 -54 4 -24 55 -37 117 -28 52 7 61 -3 54 -58 -4 -30 -2 -40 11 -45 25 -10 41 12 41 54 0 33 3 38 33 47 34 10 44 35 15 35 -10 0 -26 7 -36 15 -16 12 -18 26 -16 110 2 75 0 98 -12 106 -20 13 -27 11 -46 -10z m17 -137 c0 -67 -15 -86 -65 -82 -50 4 -57 26 -21 65 14 15 26 31 26 34 0 3 10 19 21 33 28 35 39 21 39 -50z"/>
    <path d="M8591 22403 c-32 -13 -80 -79 -92 -126 -31 -129 32 -246 131 -246 69 0 130 62 130 132 0 30 -8 46 -38 78 -34 37 -42 41 -86 41 -34 0 -51 -5 -60 -18 -14 -19 -36 -12 -36 12 0 8 16 30 36 49 44 43 84 47 108 10 10 -15 26 -25 41 -25 42 0 40 21 -4 62 -34 30 -50 38 -79 37 -21 0 -43 -3 -51 -6z m85 -189 c41 -43 42 -57 8 -101 -32 -43 -69 -44 -108 -4 -15 15 -28 37 -28 47 -3 37 46 91 86 93 5 1 24 -15 42 -35z"/>
    <path d="M8993 22389 c-18 -11 -42 -36 -54 -56 -18 -29 -20 -37 -8 -48 17 -16 59 -3 59 18 0 20 43 57 66 57 32 0 68 -44 60 -73 -6 -24 -58 -77 -106 -107 -36 -23 -80 -72 -86 -98 -12 -45 9 -53 135 -50 108 3 116 4 116 23 0 18 -7 20 -89 20 -101 0 -116 11 -73 51 15 13 30 24 35 24 5 0 18 8 30 18 11 9 32 25 45 35 35 25 59 80 51 112 -4 15 -22 42 -42 61 -42 41 -89 45 -139 13z"/>
    <path d="M9310 22403 c-23 -9 -80 -73 -80 -91 0 -8 11 -29 24 -47 l25 -32 -30 -32 c-48 -53 -36 -107 37 -151 28 -18 46 -21 88 -18 57 5 87 24 112 73 20 38 18 45 -17 88 l-31 38 21 20 c73 68 -46 190 -149 152z m98 -62 c44 -38 15 -91 -49 -91 -42 0 -69 21 -69 52 0 53 72 77 118 39z m-15 -138 c40 -22 47 -32 47 -64 0 -55 -101 -81 -147 -37 -37 35 -26 70 32 101 37 20 31 20 68 0z"/>
    <path d="M4925 22310 c-15 -34 -16 -42 -4 -56 10 -12 13 -39 11 -93 -3 -71 -1 -78 23 -104 22 -23 34 -27 63 -25 29 2 37 7 37 23 0 14 -8 21 -25 23 -38 5 -50 29 -50 99 0 59 2 64 25 73 14 5 25 15 25 23 0 15 -61 77 -76 77 -6 0 -19 -18 -29 -40z"/>
    <path d="M7416 22293 c-22 -12 -34 -13 -47 -5 -32 20 -40 -7 -37 -134 3 -111 4 -119 23 -119 18 0 21 8 25 80 6 93 18 119 61 134 23 8 30 16 27 32 -4 28 -16 31 -52 12z"/>
    <path d="M4722 22289 c-44 -17 -61 -49 -62 -114 0 -81 6 -97 44 -123 51 -35 99 -30 142 14 38 39 40 57 6 62 -13 2 -27 -6 -38 -22 -23 -36 -66 -35 -94 2 -18 21 -21 36 -17 71 3 27 12 50 23 58 26 19 68 16 89 -7 33 -37 68 -17 45 25 -21 39 -87 55 -138 34z"/>
    <path d="M5175 22293 c-26 -6 -65 -43 -65 -60 0 -24 30 -27 51 -4 36 39 122 19 105 -24 -4 -11 -20 -15 -55 -15 -40 0 -54 -5 -80 -29 -39 -36 -39 -64 -2 -102 33 -32 75 -38 107 -15 13 10 23 11 31 4 7 -5 20 -8 30 -6 15 3 17 14 14 98 -3 130 -6 138 -50 150 -38 10 -53 11 -86 3z m93 -154 c3 -18 -28 -56 -48 -59 -51 -8 -77 11 -64 44 13 33 106 45 112 15z"/>
    <path d="M6011 22286 c-8 -10 -9 -43 -5 -111 6 -84 10 -100 31 -121 28 -28 78 -32 103 -9 15 13 19 14 29 1 6 -8 20 -12 31 -9 17 5 18 15 17 125 -2 104 -5 122 -20 132 -28 18 -39 -10 -32 -89 7 -87 -7 -119 -52 -123 -49 -5 -67 29 -58 111 4 36 4 74 0 86 -7 24 -27 27 -44 7z"/>
    <path d="M6407 22293 c-4 -3 -26 -7 -49 -7 l-43 -1 -5 -115 c-6 -120 2 -149 35 -137 13 6 15 21 13 95 -3 99 6 122 51 122 48 0 52 -10 54 -116 2 -92 3 -99 22 -99 18 0 20 8 25 85 7 117 30 150 89 129 22 -9 23 -13 20 -104 -3 -102 4 -122 40 -110 19 6 21 14 21 98 0 74 -4 98 -20 124 -24 41 -73 52 -122 29 -31 -15 -38 -15 -71 -1 -40 17 -51 18 -60 8z"/>
    <path d="M7107 22290 c-48 -15 -66 -47 -66 -120 0 -47 4 -71 17 -85 54 -64 122 -73 171 -24 34 33 35 37 22 58 -7 11 -13 10 -35 -5 -14 -11 -26 -22 -26 -26 0 -5 -15 -8 -33 -8 -39 0 -83 39 -74 64 5 13 24 16 90 16 46 0 86 2 89 5 9 9 -11 86 -27 101 -30 31 -77 39 -128 24z m97 -59 c26 -29 12 -41 -47 -41 -69 0 -85 10 -61 39 24 28 84 29 108 2z"/>
    <path d="M7642 22261 c-25 -16 -9 -46 26 -49 39 -4 56 23 27 44 -22 16 -34 17 -53 5z"/>
    <path d="M7634 22086 c-11 -29 1 -51 30 -54 36 -4 50 10 42 42 -5 21 -12 26 -37 26 -17 0 -32 -6 -35 -14z"/>
    <path d="M8807 22093 c-11 -10 -8 -51 4 -58 18 -12 59 4 59 23 0 32 -43 56 -63 35z"/>
    <path d="M6770 21885 c-9 -11 -11 -106 -9 -365 3 -266 1 -350 -8 -350 -6 0 -15 5 -18 10 -9 14 -25 3 -25 -17 0 -9 11 -39 25 -68 13 -29 25 -75 27 -104 l3 -53 -1458 1 c-802 1 -1469 -2 -1483 -5 l-24 -6 0 -192 c0 -105 -4 -197 -9 -205 -5 -8 -16 -11 -27 -7 -9 4 -555 7 -1212 6 -896 0 -1199 -3 -1209 -12 -12 -10 -14 -107 -11 -625 3 -550 1 -613 -13 -613 -8 0 -24 7 -35 15 -25 19 -34 19 -34 0 0 -8 5 -15 10 -15 6 0 10 -6 10 -13 0 -7 8 -28 19 -47 10 -20 26 -68 36 -108 25 -102 40 -106 51 -15 6 50 13 72 47 139 24 49 18 68 -18 52 -14 -6 -26 -9 -28 -7 -6 11 9 1204 16 1202 4 -2 547 -3 1207 -3 l1200 0 0 -190 c0 -179 1 -190 20 -200 13 -7 258 -10 771 -9 413 0 752 -1 754 -3 2 -2 5 -98 5 -213 l2 -210 -666 -5 c-494 -4 -668 -8 -677 -17 -9 -9 -10 -61 -7 -192 4 -147 2 -181 -9 -181 -7 0 -13 5 -13 10 0 6 -9 10 -20 10 -24 0 -26 -26 -5 -57 20 -29 42 -98 50 -160 l7 -53 -496 0 -496 0 2 -477 3 -478 482 -5 c265 -3 484 -8 487 -11 3 -3 1 -22 -5 -42 -15 -56 -8 -662 9 -679 9 -9 15 -9 25 0 16 17 23 640 7 685 -5 17 -7 33 -4 36 3 3 222 8 487 11 l482 5 3 478 2 477 -481 0 -480 0 7 58 c3 31 10 65 15 74 5 9 9 25 9 34 0 10 6 25 14 33 8 9 18 28 21 44 6 22 4 27 -12 27 -10 0 -24 -5 -31 -12 -6 -6 -14 -10 -16 -7 -2 2 -1 80 3 172 l6 168 661 -1 c579 0 663 2 674 15 9 11 12 70 9 241 l-4 226 460 -1 c253 0 466 -1 473 -1 9 0 12 -81 12 -373 0 -204 4 -386 8 -402 5 -17 7 -36 5 -42 -6 -18 -38 -16 -58 3 -19 19 -47 11 -39 -11 3 -8 10 -15 15 -15 5 0 9 -6 9 -13 0 -7 9 -29 20 -50 11 -20 20 -55 20 -76 0 -30 6 -44 22 -55 27 -19 38 -7 38 44 0 19 7 48 15 64 8 15 15 34 15 41 0 7 6 18 14 24 8 6 16 21 19 32 7 26 -20 37 -36 15 -29 -39 -32 3 -27 407 l5 407 938 3 937 2 0 -241 c0 -190 3 -244 13 -253 10 -7 156 -12 481 -13 l467 -3 4 -162 c2 -90 0 -163 -4 -163 -5 0 -14 7 -21 15 -17 20 -40 19 -40 -2 0 -10 9 -31 20 -48 11 -16 20 -39 20 -50 0 -12 4 -25 9 -30 5 -6 12 -36 16 -68 l7 -58 -467 1 c-345 1 -470 -2 -481 -11 -19 -16 -21 -906 -1 -932 11 -15 56 -17 505 -19 l493 -3 0 -360 c0 -198 0 -364 0 -370 -1 -5 -6 -4 -13 3 -7 7 -21 12 -31 12 -16 0 -18 -5 -12 -27 3 -15 10 -30 15 -33 13 -8 40 -92 40 -127 0 -17 5 -44 10 -59 14 -37 31 -19 37 40 3 26 10 49 14 52 5 3 9 15 9 27 0 13 6 31 13 42 7 11 18 33 25 48 10 23 9 29 -3 34 -9 3 -25 -3 -35 -12 -11 -10 -20 -14 -21 -9 -3 33 2 738 5 741 2 2 203 4 446 3 318 0 446 3 456 11 12 9 14 94 14 475 0 295 -4 465 -10 469 -5 3 -228 6 -495 5 -387 0 -485 2 -485 12 1 29 41 163 50 166 6 2 10 9 10 15 0 7 7 25 15 41 20 37 11 45 -26 23 -17 -9 -34 -17 -38 -17 -4 0 -6 80 -3 178 4 151 2 179 -11 190 -12 10 -116 12 -481 10 l-466 -3 -2 213 c-1 116 -2 219 -2 228 -1 14 65 16 711 15 503 -1 719 1 734 9 19 11 20 19 18 198 l-2 187 1062 0 1061 0 2 -613 c2 -336 1 -612 -1 -612 -3 0 -12 7 -22 16 -37 33 -52 -7 -19 -49 11 -14 20 -32 20 -40 0 -7 6 -27 14 -43 8 -16 16 -49 18 -74 l3 -45 -469 -2 c-340 -2 -472 -5 -482 -14 -19 -16 -21 -906 -1 -932 11 -15 56 -17 505 -19 l492 -3 1 -370 c0 -203 0 -374 0 -378 -1 -4 -10 -3 -22 4 -36 19 -44 -3 -18 -52 37 -71 37 -73 45 -148 l7 -72 -496 2 c-388 1 -500 -1 -512 -11 -13 -11 -15 -72 -15 -465 0 -425 1 -453 18 -468 17 -15 63 -17 458 -17 241 1 458 5 482 9 23 5 45 5 47 1 7 -12 9 -770 2 -770 -4 0 -14 3 -23 7 -30 11 -40 -15 -16 -47 12 -16 22 -38 22 -48 0 -10 3 -22 7 -26 8 -8 33 -138 28 -144 -2 -2 -193 -3 -424 -2 -398 1 -421 0 -421 -17 0 -17 0 -920 0 -936 0 -4 392 -6 871 -5 l871 3 0 470 c-1 259 -1 474 -2 478 0 4 -196 7 -436 7 -240 -1 -437 0 -439 2 -7 6 37 151 61 205 13 28 24 54 24 57 0 12 -38 5 -50 -9 -7 -9 -15 -13 -18 -10 -6 6 -3 775 3 785 3 4 24 4 47 -1 56 -11 1019 -11 1036 0 11 6 13 101 13 475 0 258 -2 470 -5 473 -2 3 -253 4 -556 4 l-552 -2 7 53 c4 29 11 57 16 63 5 5 9 20 9 35 0 14 9 39 20 55 20 30 27 75 12 75 -4 0 -18 -7 -30 -16 -12 -8 -22 -12 -23 -7 0 4 0 177 0 383 l1 375 457 5 458 5 0 475 0 475 -492 3 -493 2 0 23 c1 12 7 33 15 47 8 14 14 39 15 56 0 17 7 37 15 44 8 7 15 18 15 24 0 6 7 23 14 38 18 34 4 46 -29 24 -13 -9 -28 -16 -32 -16 -4 0 -7 283 -5 628 3 535 1 630 -11 641 -11 9 -270 11 -1081 9 -940 -3 -1066 -1 -1072 12 -3 8 -5 97 -4 197 1 171 0 183 -19 192 -13 8 -479 11 -1483 10 l-1463 -1 3 34 c2 18 8 41 13 50 5 9 9 24 9 32 0 9 13 43 29 75 16 33 27 62 24 64 -2 3 -16 -1 -31 -9 -15 -8 -31 -14 -37 -14 -7 0 -9 124 -7 359 3 311 1 359 -12 364 -8 3 -20 -1 -26 -8z m-1985 -1373 l0 -384 -465 2 c-255 0 -466 2 -467 4 -2 2 -4 171 -4 377 l0 374 453 5 c249 3 460 5 468 5 13 0 15 -50 15 -383z m977 383 c10 -4 13 -77 11 -386 l-2 -380 -453 0 c-249 1 -461 1 -470 1 -17 0 -18 25 -18 380 l0 380 458 3 c251 1 458 3 459 5 1 1 7 0 15 -3z m993 -5 c9 0 10 -748 1 -757 -2 -3 -810 -5 -931 -3 -10 0 -11 742 -1 758 3 5 819 7 931 2z m970 0 c20 0 20 -7 20 -380 0 -247 -4 -380 -10 -380 -5 0 -217 0 -470 -1 l-460 0 -3 373 c-1 205 -1 377 2 383 2 7 159 9 452 7 247 -1 458 -2 469 -2z m1000 0 c6 0 10 -133 10 -380 0 -331 -2 -380 -15 -380 -8 0 -220 0 -470 -1 l-455 0 -3 373 c-1 205 -1 377 2 383 3 8 450 10 931 5z m550 0 l440 0 0 -380 0 -380 -447 -2 c-247 -1 -456 -2 -465 -2 -17 -1 -18 24 -21 374 -1 206 0 381 3 389 3 8 13 11 28 7 12 -3 220 -6 462 -6z m-4326 -1934 c17 -20 15 -817 -2 -840 -11 -16 -88 -17 -931 -17 -688 0 -921 3 -932 12 -12 9 -14 81 -14 429 0 229 3 420 7 423 3 4 424 7 933 7 779 0 929 -2 939 -14z m5256 -421 l0 -430 -30 -2 c-16 -1 -435 -2 -929 -3 -724 -1 -901 2 -908 12 -9 15 -11 842 -1 851 3 4 425 6 937 5 l931 -3 0 -430z m2673 6 c1 -234 -2 -429 -6 -433 -14 -14 -1831 -12 -1847 2 -7 6 -19 9 -26 8 -12 -3 -14 70 -17 419 l-2 422 27 4 c16 2 442 4 948 3 l920 -1 3 -424z m180 -1981 l-3 -431 -1021 0 c-562 0 -1028 3 -1038 7 -14 6 -16 46 -16 430 l0 424 1040 0 1040 0 -2 -430z m-1050 -1569 c18 -6 205 -11 416 -12 l384 -2 6 -30 c8 -40 8 -669 -1 -747 -5 -53 -8 -60 -18 -46 -11 14 -14 15 -25 1 -11 -13 -107 -15 -781 -15 -663 0 -770 2 -782 15 -13 13 -16 12 -23 -3 -16 -37 -23 81 -23 419 -1 364 2 417 25 398 9 -7 19 -7 32 0 12 6 145 10 353 11 184 0 348 4 364 9 40 12 36 12 73 2z"/>
    <path d="M4348 20674 c-34 -18 -68 -65 -68 -93 0 -37 44 -27 69 15 19 33 24 35 63 32 36 -3 44 -7 52 -30 13 -38 -5 -68 -62 -104 -55 -35 -118 -96 -127 -123 -3 -11 -1 -29 5 -41 10 -18 20 -20 125 -20 101 0 115 2 124 18 18 34 -5 42 -94 36 -123 -10 -122 8 1 88 87 56 114 116 78 177 -33 55 -108 75 -166 45z"/>
    <path d="M5314 20670 c-22 -22 -18 -18 -102 -126 -34 -44 -62 -90 -62 -102 0 -20 6 -21 88 -24 l87 -3 -2 -30 c-3 -50 6 -75 26 -75 30 0 43 24 35 64 -4 27 -3 36 7 37 8 1 21 3 29 4 8 1 21 3 28 4 29 3 6 36 -28 41 l-35 5 0 100 c0 55 -4 106 -8 113 -12 18 -41 15 -63 -8z m16 -140 l0 -70 -55 0 c-30 0 -55 4 -55 9 0 7 36 57 70 98 5 7 10 17 10 23 0 5 7 10 15 10 12 0 15 -14 15 -70z"/>
    <path d="M6239 20672 c-45 -27 -71 -76 -76 -146 -8 -88 2 -127 41 -171 30 -36 37 -39 89 -39 68 -1 106 23 125 79 23 69 0 125 -65 159 -44 22 -69 20 -109 -10 -33 -26 -34 -26 -34 -5 0 22 26 70 45 83 20 15 82 8 108 -12 39 -31 65 -21 52 19 -16 50 -122 76 -176 43z m114 -180 c10 -9 17 -29 17 -50 0 -60 -67 -103 -111 -69 -28 21 -41 57 -34 93 5 27 12 35 38 43 37 10 64 5 90 -17z"/>
    <path d="M7241 20368 c-8 -22 0 -51 17 -62 16 -9 51 6 57 25 16 49 -56 85 -74 37z"/>
    <path d="M8167 20664 c-41 -27 -63 -64 -53 -89 9 -25 47 -14 66 20 13 24 24 31 54 33 45 4 66 -11 66 -47 0 -33 -14 -52 -60 -83 -76 -50 -120 -92 -131 -125 -18 -57 -5 -63 132 -63 111 0 118 1 124 21 11 32 -11 39 -101 32 -115 -8 -118 9 -11 81 126 85 142 166 45 229 -38 24 -86 20 -131 -9z"/>
    <path d="M9173 20669 c-40 -25 -59 -75 -42 -113 7 -14 16 -26 21 -26 16 0 8 -24 -19 -52 -86 -89 52 -208 181 -154 72 30 98 106 51 150 -30 28 -31 35 -4 80 21 35 21 36 2 68 -37 64 -126 86 -190 47z m131 -55 c46 -46 -26 -102 -95 -74 -22 9 -29 19 -29 39 0 15 5 32 12 39 18 18 94 15 112 -4z m10 -156 c22 -31 20 -45 -9 -73 -48 -49 -135 -24 -135 39 0 44 16 56 76 56 43 0 56 -4 68 -22z"/>
    <path d="M3501 18665 c-17 -24 -37 -50 -44 -57 -59 -62 -101 -136 -88 -156 4 -6 41 -12 86 -14 l80 -3 -3 -42 c-2 -38 0 -43 22 -49 37 -9 47 2 44 49 -3 40 -2 42 27 45 51 5 57 9 45 31 -6 12 -23 21 -43 23 l-32 3 -2 95 c-1 52 -2 101 -2 108 -1 6 -14 12 -29 12 -22 0 -36 -10 -61 -45z m39 -103 c0 -67 -11 -82 -57 -82 -46 0 -51 22 -16 67 16 21 33 46 36 56 4 9 13 17 22 17 12 0 15 -13 15 -58z"/>
    <path d="M4285 18675 c-39 -40 -44 -68 -15 -105 25 -32 25 -34 -5 -66 -59 -64 -9 -154 91 -162 70 -6 96 2 133 39 41 41 41 80 0 126 l-30 35 20 20 c24 21 28 75 9 100 -27 33 -63 48 -115 48 -47 0 -56 -4 -88 -35z m152 -37 c36 -30 -2 -78 -62 -78 -48 0 -65 13 -65 52 0 50 79 66 127 26z m1 -144 c28 -20 29 -65 1 -90 -30 -27 -91 -25 -123 5 -28 27 -32 47 -13 72 24 32 98 39 135 13z"/>
    <path d="M4582 18661 c-33 -28 -33 -41 0 -41 14 0 18 -8 18 -40 0 -34 -4 -42 -26 -50 -14 -6 -23 -14 -20 -19 8 -12 71 -21 111 -14 40 6 49 33 10 33 -23 0 -24 3 -27 77 -3 90 -14 99 -66 54z"/>
    <path d="M3830 18609 c0 -22 21 -48 56 -70 l37 -22 -47 -45 c-49 -46 -54 -72 -14 -72 14 0 32 13 48 35 14 19 32 34 40 34 8 0 26 -15 40 -34 16 -22 34 -35 48 -35 39 0 36 26 -10 68 l-43 41 43 41 c49 48 54 70 15 70 -21 0 -34 -9 -51 -35 -28 -44 -53 -44 -83 0 -18 26 -31 35 -51 35 -16 0 -28 -5 -28 -11z"/>
    <path d="M8657 18678 c-41 -38 -54 -70 -33 -87 14 -12 46 -5 46 11 0 19 50 58 75 58 14 0 34 -9 46 -21 35 -35 13 -80 -61 -127 -59 -37 -100 -75 -114 -104 -33 -64 -25 -68 135 -68 110 0 119 1 119 19 0 27 -22 32 -110 25 -93 -8 -108 3 -59 47 18 16 36 29 40 29 4 0 30 18 57 40 54 42 69 76 57 130 -11 51 -51 80 -111 80 -43 0 -56 -5 -87 -32z"/>
    <path d="M9500 18682 c-27 -23 -34 -36 -34 -65 0 -20 8 -44 17 -55 17 -18 14 -52 -4 -52 -4 0 -15 -15 -24 -34 -15 -31 -15 -37 -1 -64 36 -70 160 -98 222 -50 40 31 44 37 44 85 0 32 -5 46 -20 55 -24 15 -26 50 -5 68 19 16 19 69 0 94 -22 29 -64 46 -114 46 -37 0 -54 -6 -81 -28z m119 -27 c35 -17 43 -37 31 -70 -8 -22 -15 -25 -59 -25 -39 0 -51 4 -63 23 -18 27 -7 57 25 74 31 15 34 15 66 -2z m36 -165 c20 -17 19 -64 -2 -83 -30 -26 -68 -30 -107 -12 -19 9 -38 25 -41 35 -9 27 12 68 37 73 35 8 97 0 113 -13z"/>
    <path d="M9923 18667 c-39 -27 -40 -35 -8 -47 20 -8 25 -16 25 -45 0 -29 -4 -36 -25 -41 -68 -17 9 -50 88 -37 40 6 46 26 9 31 -12 2 -22 9 -23 15 0 7 -1 41 -2 77 -2 74 -12 82 -64 47z"/>
    <path d="M9047 18623 c-18 -17 -5 -52 28 -74 19 -13 35 -30 35 -38 0 -7 -18 -30 -41 -50 -37 -33 -39 -37 -25 -56 14 -20 16 -19 58 23 24 23 48 42 53 42 6 0 19 -13 30 -29 25 -38 65 -58 76 -39 14 22 10 32 -22 53 -56 36 -57 54 -9 95 28 24 41 42 39 55 -7 34 -30 28 -73 -20 l-43 -46 -44 45 c-45 47 -51 51 -62 39z"/>
    <path d="M9770 18601 c0 -24 44 -39 69 -24 30 19 18 38 -26 41 -38 3 -43 1 -43 -17z"/>
    <path d="M12612 18711 c-17 -17 -32 -36 -32 -44 0 -26 27 -26 49 -1 22 25 37 29 60 15 18 -12 -2 -41 -56 -80 -51 -37 -56 -46 -49 -77 6 -23 10 -24 82 -24 67 0 75 2 72 18 -3 13 -14 17 -48 17 -55 0 -63 14 -24 40 66 45 73 52 79 78 6 22 1 32 -26 57 -42 38 -66 38 -107 1z"/>
    <path d="M11336 18677 c-42 -39 -48 -78 -16 -112 23 -24 18 -50 -11 -66 -29 -15 -26 -91 4 -120 31 -30 60 -39 124 -39 53 0 59 3 95 40 47 50 48 78 7 125 l-32 36 22 20 c23 22 28 74 8 99 -26 32 -67 50 -115 50 -42 0 -55 -5 -86 -33z m142 -33 c47 -30 14 -84 -53 -84 -48 0 -65 13 -65 52 0 20 8 32 28 42 29 16 52 13 90 -10z m19 -160 c34 -47 -4 -99 -73 -99 -62 0 -103 55 -71 96 18 23 37 29 86 25 28 -3 50 -11 58 -22z"/>
    <path d="M12196 18676 c-41 -38 -46 -71 -16 -109 11 -14 20 -27 20 -29 0 -3 -13 -20 -30 -38 -40 -45 -38 -71 10 -120 38 -38 42 -40 103 -40 62 0 103 17 129 55 16 21 9 93 -10 107 -29 20 -33 44 -11 64 33 30 25 77 -18 113 -31 26 -46 31 -90 31 -45 0 -56 -4 -87 -34z m124 -21 c22 -12 30 -23 30 -43 0 -39 -17 -52 -66 -52 -33 0 -45 5 -58 24 -20 32 -11 55 28 72 39 17 32 17 66 -1z m37 -171 c33 -46 -6 -99 -74 -99 -81 0 -114 91 -43 119 29 11 103 -1 117 -20z"/>
    <path d="M11747 18623 c-17 -16 -4 -44 36 -77 l42 -37 -42 -38 c-47 -42 -51 -52 -28 -71 12 -10 22 -5 56 29 23 22 45 41 49 41 3 0 23 -18 43 -41 39 -43 60 -47 65 -12 2 14 -8 30 -32 48 -45 34 -45 54 -1 84 23 15 35 31 35 47 0 42 -22 39 -67 -11 l-44 -48 -44 47 c-44 45 -55 52 -68 39z"/>
    <path d="M12472 18598 c4 -28 58 -38 77 -14 19 23 4 36 -40 36 -36 0 -40 -2 -37 -22z"/>
    <path d="M11281 16714 c-19 -9 -42 -25 -52 -37 -22 -27 -25 -90 -4 -107 21 -17 19 -43 -4 -57 -51 -32 -28 -120 40 -152 77 -38 150 -19 197 49 29 44 28 60 -9 98 l-31 32 21 33 c25 41 26 65 5 96 -17 24 -87 61 -114 60 -8 0 -30 -7 -49 -15z m101 -61 c25 -23 23 -58 -7 -77 -29 -19 -45 -20 -80 -4 -19 9 -25 19 -25 44 0 21 6 37 18 43 26 16 73 13 94 -6z m13 -158 c30 -29 31 -35 4 -69 -39 -49 -149 -27 -149 30 0 60 98 87 145 39z"/>
    <path d="M12403 16708 c-12 -13 -25 -36 -29 -52 -4 -16 -13 -41 -20 -55 -8 -14 -14 -32 -14 -39 0 -7 -4 -20 -10 -30 -15 -26 -50 -110 -50 -118 0 -4 -10 -27 -21 -52 -19 -38 -20 -46 -7 -58 8 -8 22 -12 31 -9 14 6 77 150 77 179 0 7 4 16 8 22 5 5 19 38 32 74 13 36 30 75 38 87 15 24 13 64 -4 70 -5 2 -20 -7 -31 -19z"/>
    <path d="M12570 16714 c-56 -24 -70 -42 -70 -89 0 -26 6 -48 15 -55 19 -16 19 -39 1 -46 -7 -3 -21 -20 -31 -38 -16 -30 -16 -34 -1 -64 21 -41 86 -82 129 -82 53 0 116 36 133 76 12 30 12 38 0 69 -8 19 -20 35 -25 35 -16 0 -13 46 4 60 20 17 18 70 -4 97 -17 21 -82 53 -105 53 -6 -1 -27 -8 -46 -16z m101 -65 c48 -48 -29 -113 -90 -76 -14 8 -27 25 -29 37 -8 54 76 82 119 39z m7 -148 c50 -43 13 -101 -64 -101 -34 0 -47 5 -63 26 -27 34 -26 40 4 69 30 31 89 33 123 6z"/>
    <path d="M12818 16709 c-31 -23 -37 -56 -12 -66 9 -3 21 3 30 16 16 22 39 28 49 11 12 -19 -6 -48 -45 -75 -22 -16 -43 -39 -46 -52 -10 -39 11 -53 83 -53 56 0 64 2 61 18 -3 13 -13 17 -51 15 -52 -1 -57 4 -26 33 63 58 89 87 89 101 0 22 -59 73 -84 73 -11 0 -33 -10 -48 -21z"/>
    <path d="M12116 16695 c-16 -14 -40 -25 -53 -25 -16 0 -23 -6 -23 -19 0 -23 17 -36 45 -36 19 0 20 -8 25 -135 4 -121 7 -135 24 -138 10 -2 23 1 28 6 7 7 13 255 9 360 -1 19 -23 14 -55 -13z"/>
    <path d="M11662 16628 c-21 -21 -13 -45 23 -69 44 -30 44 -48 0 -83 -22 -18 -35 -37 -35 -52 0 -37 32 -30 71 16 19 22 37 40 41 40 4 0 26 -20 49 -44 43 -47 69 -51 69 -11 0 14 -12 31 -35 46 -20 14 -35 32 -35 44 0 12 15 30 35 44 37 25 44 51 21 70 -10 9 -23 1 -58 -35 l-45 -45 -25 28 c-44 52 -63 64 -76 51z"/>
    <path d="M11486 14722 c-55 -38 -76 -83 -76 -161 0 -180 157 -256 257 -124 26 33 28 44 28 122 0 98 -13 127 -77 167 -49 31 -84 30 -132 -4z m109 -38 c21 -8 55 -85 55 -123 0 -71 -45 -141 -90 -141 -54 0 -100 66 -100 141 0 37 26 101 46 116 19 14 62 17 89 7z"/>
    <path d="M11921 14724 c-13 -16 -31 -26 -46 -26 -27 0 -50 -21 -40 -38 3 -5 22 -10 41 -10 26 0 34 -4 34 -17 1 -10 2 -69 3 -132 2 -95 5 -116 19 -125 9 -5 20 -7 23 -4 5 5 9 258 6 361 -1 24 -16 21 -40 -9z"/>
    <path d="M12089 14725 c-52 -34 -76 -105 -36 -105 7 0 25 16 40 35 21 26 36 35 58 35 47 0 69 -16 69 -51 0 -34 -18 -55 -75 -91 -84 -53 -138 -125 -119 -156 16 -24 224 -31 243 -8 23 27 2 36 -89 36 -49 0 -91 4 -94 9 -7 10 26 40 79 74 81 50 100 75 100 132 0 54 -7 66 -57 98 -37 23 -76 21 -119 -8z"/>
    <path d="M12351 14728 c-13 -33 -32 -168 -26 -179 10 -14 47 -11 59 7 7 9 28 15 55 16 35 0 48 -5 62 -23 26 -33 23 -71 -6 -103 -36 -39 -79 -35 -122 10 -53 57 -91 21 -39 -38 78 -88 236 -38 236 75 0 57 -18 87 -65 114 -47 26 -78 29 -95 8 -7 -8 -16 -12 -21 -9 -13 8 -11 72 2 80 6 3 45 7 87 8 75 1 77 2 77 26 0 25 -1 25 -98 28 -93 3 -97 2 -106 -20z"/>
    <path d="M11750 14425 c-20 -24 -3 -55 30 -55 20 0 31 6 35 20 8 25 -10 50 -35 50 -10 0 -23 -7 -30 -15z"/>
    <path d="M349 19008 c-18 -7 -19 -21 -19 -463 0 -296 4 -463 10 -476 10 -18 27 -19 505 -19 l494 0 3 -382 c2 -211 0 -387 -5 -393 -5 -6 -15 -5 -27 3 -11 6 -22 12 -25 12 -11 0 -4 -40 12 -72 9 -18 21 -42 26 -52 5 -11 12 -46 15 -78 l5 -59 -496 1 c-273 1 -501 -1 -507 -5 -7 -4 -10 -156 -10 -464 0 -436 1 -459 19 -475 17 -16 59 -17 502 -15 l484 1 5 -388 c3 -214 2 -393 -1 -397 -4 -5 -16 -3 -28 5 -18 11 -23 11 -30 -1 -6 -9 1 -33 21 -70 24 -43 31 -69 32 -115 l1 -58 -310 -2 -310 -1 -5 -240 c-5 -232 -6 -240 -25 -238 -84 8 -258 4 -268 -6 -17 -17 -23 -927 -6 -947 10 -12 474 -14 3122 -14 1731 0 3115 -4 3119 -8 5 -5 10 -105 11 -223 2 -144 7 -224 15 -243 16 -37 1 -57 -28 -38 -23 14 -60 16 -60 4 0 -5 13 -33 30 -63 16 -30 30 -70 30 -89 0 -39 31 -87 49 -76 6 4 11 22 11 41 0 38 33 131 56 156 14 16 10 49 -6 49 -4 0 -13 -7 -20 -15 -30 -36 -34 -9 -31 240 1 136 5 253 7 259 3 8 880 10 3246 8 2231 -1 3245 1 3252 8 14 14 17 897 3 924 -8 17 -20 18 -155 14 -81 -2 -153 -7 -161 -12 -28 -18 15 -26 141 -26 70 0 129 -4 133 -9 7 -13 7 -839 0 -852 -4 -5 -2401 -9 -6366 -9 -5080 0 -6359 3 -6359 13 -2 85 1 871 3 873 1 1 58 3 127 5 l125 4 3 -222 2 -223 605 0 605 0 -2 478 -3 477 -255 2 c-140 1 -263 2 -272 2 -22 1 -23 30 -3 57 8 10 15 31 15 46 0 14 11 49 25 76 30 61 32 75 5 68 -11 -3 -28 -8 -39 -11 -24 -7 -35 20 -18 48 9 16 12 114 13 375 1 194 4 355 7 358 3 3 200 5 439 4 351 -1 437 2 452 13 17 13 18 36 18 477 -1 254 -3 465 -6 467 -2 3 -209 4 -459 4 -294 -1 -457 2 -461 8 -4 6 0 27 9 47 8 20 15 46 15 57 0 11 14 48 32 83 18 35 30 66 26 69 -3 3 -19 -2 -35 -11 -35 -21 -69 -13 -58 14 24 59 34 553 14 682 -6 40 -5 56 4 62 6 4 213 8 460 8 l447 0 8 23 c4 12 6 228 4 480 l-3 457 -467 0 c-257 0 -691 2 -965 3 -274 1 -507 -1 -518 -5z m1909 -472 l-3 -434 -500 -3 c-275 -1 -695 -1 -932 0 l-433 1 0 435 0 435 935 0 935 0 -2 -434z m0 -1976 l-3 -431 -928 1 c-511 0 -933 2 -938 6 -5 3 -9 184 -9 430 l0 424 940 0 940 0 -2 -430z m-850 -1569 c10 -5 116 -11 237 -13 l220 -3 3 -385 c1 -212 0 -400 -3 -418 -5 -28 -9 -31 -21 -21 -11 9 -21 9 -40 0 -27 -12 -947 -17 -979 -5 -9 4 -21 18 -27 33 l-10 26 -12 -30 -13 -30 -6 40 c-9 50 -9 707 -1 757 7 39 24 43 24 6 0 -20 1 -19 25 6 l24 26 223 1 c123 1 237 5 253 9 43 11 84 11 103 1z"/>
    <path d="M772 18712 c-32 -5 -102 -74 -102 -101 0 -12 7 -24 15 -28 18 -6 55 23 55 43 0 8 14 20 30 29 27 14 33 14 60 0 24 -13 30 -22 30 -49 0 -35 -32 -71 -100 -113 -49 -30 -79 -64 -89 -101 -14 -48 1 -53 135 -50 111 3 119 4 119 23 0 19 -7 20 -94 20 -64 0 -95 4 -98 12 -4 11 27 37 98 83 96 63 116 133 55 193 -33 34 -68 45 -114 39z"/>
    <path d="M1550 18682 c-27 -23 -34 -36 -34 -65 0 -20 8 -44 17 -55 17 -18 14 -52 -4 -52 -4 0 -15 -15 -24 -34 -15 -31 -15 -37 -1 -64 36 -70 160 -98 222 -50 40 31 44 37 44 85 0 32 -5 46 -20 55 -24 15 -26 50 -5 68 8 7 15 27 15 45 0 26 -8 40 -37 64 -31 26 -46 31 -88 31 -41 0 -57 -5 -85 -28z m119 -27 c35 -17 43 -37 31 -70 -8 -22 -15 -25 -59 -25 -41 0 -51 4 -65 25 -19 29 -12 50 25 70 32 17 35 17 68 0z m36 -165 c20 -17 19 -64 -2 -83 -30 -26 -68 -30 -107 -12 -19 9 -38 25 -41 35 -9 27 12 68 37 73 35 8 97 0 113 -13z"/>
    <path d="M1873 18692 c-25 -4 -66 -49 -57 -63 9 -16 40 -10 59 11 14 15 21 17 31 9 19 -15 4 -39 -45 -73 -76 -53 -64 -81 36 -81 56 1 68 4 71 18 3 14 -4 17 -37 17 -30 0 -41 4 -41 15 0 8 5 15 11 15 6 0 24 9 40 21 64 46 16 124 -68 111z"/>
    <path d="M1097 18623 c-17 -16 -4 -44 34 -75 46 -38 45 -51 -6 -88 -36 -26 -40 -36 -26 -58 11 -19 51 1 76 39 11 16 24 29 30 29 5 0 28 -18 50 -40 38 -37 42 -39 60 -25 19 15 19 16 -22 54 -24 21 -43 45 -43 52 0 8 15 24 34 37 39 27 51 56 29 74 -13 10 -22 4 -60 -37 l-44 -50 -42 48 c-41 46 -56 54 -70 40z"/>
    <path d="M711 16722 c-45 -24 -80 -87 -60 -107 17 -16 59 -3 59 18 0 23 46 59 71 55 12 -2 31 -14 41 -29 26 -34 12 -68 -43 -105 -24 -16 -65 -50 -91 -75 -37 -36 -48 -53 -48 -77 0 -40 13 -44 150 -40 97 3 105 4 105 23 0 18 -8 20 -92 23 -122 4 -122 27 0 97 64 37 102 93 93 138 -15 78 -112 119 -185 79z"/>
    <path d="M1558 16722 c-62 -41 -73 -68 -73 -177 l0 -101 37 -39 c35 -37 41 -40 94 -40 52 0 58 3 91 39 33 36 35 42 31 92 -4 43 -11 61 -33 84 -25 26 -36 30 -81 30 -34 0 -56 -5 -64 -15 -7 -8 -16 -15 -21 -15 -19 0 -8 37 22 73 37 45 74 49 109 12 29 -31 70 -34 70 -5 0 22 -34 58 -68 71 -37 14 -85 10 -114 -9z m106 -177 c34 -32 34 -74 0 -109 -34 -33 -63 -33 -99 0 -24 22 -27 31 -22 65 9 69 70 91 121 44z"/>
    <path d="M1953 16732 c-6 -4 -47 -56 -92 -115 -67 -89 -79 -111 -72 -130 7 -20 16 -22 91 -25 l83 -3 -6 -39 c-5 -42 11 -67 38 -56 10 4 15 19 15 50 0 45 0 45 38 48 32 3 37 6 37 28 0 22 -5 25 -37 28 l-38 3 0 104 c0 85 -3 104 -16 109 -20 8 -26 7 -41 -2z m3 -209 c-2 -3 -22 -7 -43 -10 -67 -9 -69 12 -10 87 l52 65 3 -69 c2 -37 1 -70 -2 -73z"/>
    <path d="M1063 16633 c-5 -12 7 -28 41 -58 l48 -41 -47 -41 c-49 -43 -56 -73 -16 -73 19 0 71 46 71 62 0 21 42 4 67 -27 29 -36 47 -42 73 -25 12 9 6 18 -35 55 l-50 44 48 46 c26 25 47 50 47 55 0 5 -11 12 -25 16 -19 5 -30 0 -49 -23 -14 -15 -26 -31 -26 -34 0 -4 -9 -9 -20 -12 -14 -4 -28 5 -51 34 -32 41 -65 51 -76 22z"/>
    <path d="M1021 14719 c-19 -16 -45 -29 -58 -29 -39 0 -26 -34 15 -38 l32 -3 0 -134 c0 -125 1 -134 20 -140 11 -3 24 -3 30 0 12 7 14 361 2 369 -4 2 -23 -9 -41 -25z"/>
    <path d="M1210 14732 c-53 -36 -78 -80 -57 -101 18 -18 31 -12 52 22 17 26 27 33 62 35 36 3 44 -1 59 -23 25 -38 9 -62 -85 -131 -57 -42 -85 -70 -98 -98 -16 -37 -16 -39 2 -52 13 -10 49 -14 116 -14 111 0 129 4 129 31 0 17 -8 19 -94 19 -52 0 -97 4 -100 9 -3 5 4 16 17 25 12 9 50 37 85 61 65 47 82 74 82 128 0 40 -21 71 -62 91 -40 20 -76 20 -108 -2z"/>
    <path d="M1520 14741 c0 -5 -11 -12 -25 -15 -26 -7 -55 -51 -55 -84 0 -10 7 -27 15 -38 20 -27 19 -42 -10 -76 -34 -40 -32 -73 8 -113 57 -57 149 -59 213 -3 43 38 47 84 9 119 -28 27 -32 51 -10 69 17 14 20 62 5 91 -21 38 -150 81 -150 50z m94 -64 c12 -9 17 -23 14 -42 -2 -23 -10 -31 -35 -39 -51 -14 -97 3 -101 37 -2 16 2 35 9 43 14 18 89 19 113 1z m14 -149 c21 -21 15 -75 -10 -92 -27 -19 -88 -21 -109 -3 -37 30 -41 44 -24 76 15 29 19 31 73 31 32 0 63 -5 70 -12z"/>
    <path d="M5689 19009 c-5 -3 -8 -201 -7 -480 l3 -474 463 -5 462 -5 3 -368 c1 -202 -1 -367 -5 -367 -4 0 -10 5 -13 10 -9 14 -45 12 -45 -2 0 -7 7 -26 16 -43 23 -43 41 -103 47 -154 7 -57 23 -73 37 -37 5 15 10 40 10 56 0 16 5 32 10 35 6 3 10 18 10 33 0 15 9 41 20 57 26 39 26 65 1 65 -11 0 -23 -4 -26 -10 -3 -5 -9 -10 -13 -10 -4 0 -6 165 -5 367 l3 368 490 3 c382 2 490 5 490 15 0 6 1 221 1 477 l1 465 -24 3 c-48 5 -1920 7 -1929 1z m1909 -473 l-3 -435 -530 -2 c-291 -1 -711 -1 -932 0 l-403 1 0 435 0 435 935 0 935 0 -2 -434z"/>
    <path d="M6150 18712 c-102 -15 -164 -178 -110 -289 29 -60 63 -83 123 -83 46 0 54 4 89 40 31 34 38 48 38 81 0 50 -22 89 -62 112 -37 21 -91 22 -108 2 -19 -23 -40 -18 -40 8 0 24 28 56 67 76 24 12 59 0 76 -26 11 -18 67 -17 67 1 0 19 -66 73 -94 78 -11 2 -32 2 -46 0z m51 -183 c24 -17 29 -27 29 -64 0 -80 -74 -109 -127 -49 -24 26 -30 68 -14 93 9 13 55 38 74 40 5 1 22 -8 38 -20z"/>
    <path d="M6916 18676 c-41 -38 -47 -75 -16 -106 25 -25 25 -45 1 -62 -24 -17 -34 -51 -26 -88 16 -73 149 -107 222 -57 55 37 65 108 19 146 -20 17 -21 45 -1 61 18 15 19 69 2 90 -26 32 -67 50 -116 50 -43 0 -55 -5 -85 -34z m123 -21 c35 -17 43 -37 31 -70 -8 -22 -15 -25 -59 -25 -41 0 -52 4 -61 21 -22 40 -4 66 58 88 2 1 16 -6 31 -14z m36 -165 c21 -17 19 -63 -4 -84 -10 -9 -34 -19 -53 -23 -29 -4 -41 0 -68 24 -26 24 -32 35 -27 55 4 13 17 30 29 36 28 14 102 9 123 -8z"/>
    <path d="M7245 18693 c-35 -9 -58 -43 -63 -92 -3 -39 0 -52 19 -73 14 -15 40 -29 60 -32 69 -12 111 52 88 136 -8 31 -18 43 -44 54 -19 8 -36 13 -37 13 -2 -1 -12 -4 -23 -6z m59 -65 c16 -63 -5 -105 -47 -94 -25 6 -27 11 -27 55 0 55 4 61 41 61 19 0 28 -6 33 -22z"/>
    <path d="M6471 18621 c-21 -13 -4 -47 40 -79 l39 -29 -37 -37 c-21 -20 -41 -36 -45 -36 -12 0 -10 -24 3 -37 16 -16 50 1 74 38 11 16 24 29 30 29 5 0 29 -19 53 -42 42 -42 44 -42 58 -23 14 18 12 23 -26 58 -22 21 -40 42 -40 47 0 5 16 22 35 37 21 17 35 37 35 50 0 41 -22 37 -67 -12 l-44 -49 -43 47 c-47 51 -45 50 -65 38z"/>
    <path d="M3920 17276 c0 -14 4 -28 10 -31 15 -9 50 -95 50 -124 0 -15 7 -37 16 -50 14 -19 14 -25 3 -32 -8 -5 -197 -9 -438 -8 -401 2 -425 1 -438 -17 -10 -14 -13 -106 -13 -458 1 -420 2 -442 20 -464 l19 -23 411 2 c226 0 413 -1 416 -4 3 -3 6 -165 7 -360 2 -269 5 -359 15 -368 10 -11 14 -11 25 0 9 9 12 99 14 368 1 195 4 357 7 360 3 3 184 5 403 4 318 -2 402 1 416 11 17 13 18 41 17 478 0 255 -2 466 -5 468 -2 2 -192 5 -422 5 l-418 2 3 55 c2 30 9 64 16 75 7 11 16 32 20 48 3 15 11 27 16 27 13 0 13 47 1 54 -5 4 -11 1 -13 -6 -6 -18 -113 -21 -128 -3 -18 22 -30 18 -30 -9z m918 -713 l-3 -428 -415 -5 c-228 -3 -602 -3 -830 0 l-415 5 -5 423 c-3 233 -3 426 -1 428 2 2 379 4 838 4 l833 0 -2 -427z"/>
    <path d="M3580 16733 c-8 -2 -25 -21 -38 -41 -13 -20 -39 -55 -58 -77 -62 -72 -84 -109 -78 -133 6 -21 12 -22 90 -22 l84 0 0 -44 c0 -49 9 -61 41 -51 17 6 20 14 17 48 -3 42 -3 42 35 45 33 3 37 6 37 32 0 26 -4 29 -37 32 l-38 3 0 95 c0 117 -5 128 -55 113z m10 -150 c0 -43 -4 -54 -21 -64 -20 -11 -89 -5 -89 8 0 4 21 34 47 69 53 69 63 67 63 -13z"/>
    <path d="M4375 16730 c-51 -24 -70 -48 -70 -90 0 -29 6 -45 18 -51 21 -12 22 -33 1 -50 -8 -7 -22 -25 -30 -40 -12 -25 -12 -32 2 -61 26 -55 60 -73 134 -73 49 0 72 5 92 20 51 37 59 113 17 151 -24 22 -24 30 1 61 28 36 25 58 -13 99 -28 31 -41 37 -83 40 -27 2 -58 0 -69 -6z m103 -60 c12 -12 22 -27 22 -35 0 -25 -38 -55 -70 -55 -32 0 -70 30 -70 55 0 23 41 55 70 55 14 0 36 -9 48 -20z m3 -147 c22 -13 29 -25 29 -48 0 -23 -7 -35 -29 -48 -16 -9 -39 -17 -51 -17 -12 0 -35 8 -51 17 -40 24 -41 76 -1 97 36 20 68 20 103 -1z"/>
    <path d="M3876 16634 c-4 -11 7 -29 34 -55 22 -21 40 -42 40 -46 0 -4 -18 -24 -40 -44 -27 -25 -38 -42 -34 -53 10 -26 39 -18 73 19 17 19 38 35 46 35 8 0 26 -16 41 -35 28 -37 61 -46 71 -19 4 11 -8 29 -38 56 l-43 39 42 39 c44 41 53 66 26 77 -10 4 -29 -8 -56 -35 -45 -47 -57 -46 -97 7 -26 34 -55 40 -65 15z"/>
    <path d="M5758 17029 c-7 -5 -11 -164 -12 -470 -1 -385 1 -465 13 -477 12 -11 83 -13 433 -10 230 1 418 1 418 -2 3 -362 2 -742 -3 -747 -4 -3 -9 2 -13 11 -3 9 -15 16 -26 16 -18 0 -20 -4 -14 -32 3 -17 12 -39 20 -47 7 -9 19 -41 26 -71 23 -104 25 -112 35 -112 6 0 14 15 18 34 23 92 31 117 52 163 13 27 21 53 19 57 -9 14 -42 8 -48 -8 -4 -9 -9 -14 -12 -11 -8 7 -6 738 1 745 3 3 201 4 441 3 402 -2 437 -1 455 15 18 16 19 36 19 464 0 346 -3 450 -13 464 -12 16 -68 17 -906 19 -491 1 -898 -1 -903 -4z m1772 -463 c0 -231 -3 -422 -6 -425 -9 -10 -858 -17 -871 -7 -7 4 -21 5 -30 1 -10 -4 -200 -6 -423 -6 l-405 1 -3 430 -2 430 871 -2 870 -3 -1 -419z"/>
    <path d="M6240 16733 c-85 -31 -129 -190 -80 -290 44 -92 149 -110 216 -38 29 32 34 45 34 86 0 42 -5 53 -35 84 -31 31 -42 35 -85 35 -27 0 -52 -4 -55 -10 -11 -18 -35 -11 -35 11 0 27 56 79 85 79 12 0 34 -11 49 -25 28 -26 76 -34 76 -12 -1 18 -26 48 -57 69 -27 17 -81 23 -113 11z m87 -185 c30 -28 31 -83 1 -115 -26 -27 -50 -29 -88 -6 -47 27 -53 82 -14 118 33 31 70 32 101 3z"/>
    <path d="M7068 16723 c-7 -9 -32 -24 -55 -34 -52 -22 -59 -59 -9 -50 4 1 17 -1 28 -5 20 -6 20 -11 13 -135 l-7 -128 26 -7 c13 -3 30 -3 35 1 7 4 11 70 11 185 0 145 -3 179 -14 183 -8 3 -20 -1 -28 -10z"/>
    <path d="M6583 16633 c-4 -10 4 -25 23 -43 62 -56 62 -57 14 -99 -31 -26 -42 -42 -37 -54 10 -28 44 -19 74 18 15 19 35 35 43 35 8 0 28 -16 43 -36 20 -24 36 -34 50 -32 35 5 31 27 -12 66 -23 21 -41 42 -41 47 0 6 13 19 29 30 32 21 51 52 44 73 -8 23 -35 12 -74 -30 l-38 -43 -41 43 c-44 45 -67 52 -77 25z"/>
    <path d="M8298 17031 c-7 -2 -16 -9 -20 -15 -4 -6 -8 -214 -8 -462 0 -431 1 -452 19 -468 18 -16 56 -17 505 -14 267 2 486 1 486 -2 0 -3 1 -171 1 -373 1 -202 -1 -371 -5 -374 -3 -3 -8 2 -12 11 -7 17 -44 23 -44 6 0 -6 13 -39 29 -73 15 -34 31 -88 34 -121 3 -32 8 -61 12 -64 10 -10 27 16 36 55 22 106 48 175 70 188 14 9 0 25 -22 25 -11 0 -22 -7 -25 -15 -4 -8 -11 -15 -18 -15 -8 0 -10 99 -8 376 1 208 5 387 8 399 7 29 -19 51 -49 39 -12 -5 -223 -7 -487 -4 l-465 5 -5 420 c-3 231 -4 423 -2 428 2 4 426 7 943 7 l939 0 -2 -427 -3 -428 -422 -5 c-232 -3 -425 -8 -428 -12 -16 -15 5 -35 42 -41 21 -4 214 -7 429 -7 366 0 392 1 407 18 15 17 17 64 17 468 0 247 -4 455 -9 462 -6 11 -192 13 -969 15 -529 1 -968 0 -974 -2z"/>
    <path d="M8595 16730 c-25 -10 -58 -47 -73 -82 -10 -24 -9 -29 9 -39 22 -11 49 2 49 25 0 20 44 56 68 56 31 0 62 -30 62 -60 0 -27 -24 -54 -95 -105 -73 -52 -105 -93 -105 -133 0 -25 34 -32 154 -32 97 0 123 8 113 34 -5 13 -24 16 -102 16 -118 0 -121 10 -27 74 82 55 107 81 116 120 21 87 -80 163 -169 126z"/>
    <path d="M9699 16733 c-8 -2 -23 -29 -33 -60 -9 -32 -23 -71 -31 -88 -22 -48 -105 -260 -105 -268 0 -4 13 -7 30 -7 24 0 31 5 36 28 4 15 10 32 14 37 4 6 17 39 30 75 13 36 26 70 30 75 4 6 17 39 30 75 13 36 30 75 38 87 24 38 7 59 -39 46z"/>
    <path d="M9854 16730 c-31 -12 -64 -59 -64 -90 0 -15 8 -38 19 -51 19 -24 18 -24 -10 -59 -38 -46 -37 -79 5 -125 55 -60 155 -62 214 -4 43 43 44 91 2 134 l-30 31 25 24 c77 72 -52 184 -161 140z m101 -56 c48 -31 18 -94 -45 -94 -61 0 -93 62 -47 93 29 21 62 21 92 1z m-2 -145 c14 -6 30 -22 36 -35 9 -20 6 -28 -15 -54 -29 -34 -67 -39 -114 -15 -44 23 -41 77 5 103 26 15 58 15 88 1z"/>
    <path d="M9410 16714 c-8 -8 -28 -21 -47 -29 -35 -15 -45 -44 -15 -46 62 -4 57 9 53 -135 -3 -117 -1 -132 14 -138 10 -3 26 -4 36 -1 18 6 19 20 19 186 l0 179 -24 0 c-13 0 -29 -7 -36 -16z"/>
    <path d="M2717 16674 c-4 -4 -7 -31 -7 -60 l0 -53 -57 -3 c-50 -3 -58 -6 -58 -23 0 -18 7 -20 60 -20 l60 0 -4 -54 c-3 -55 8 -75 36 -64 10 4 14 20 13 52 -3 75 -5 71 58 69 51 -3 57 -1 57 17 0 17 -8 20 -57 23 l-57 3 -3 57 c-2 42 -7 58 -18 60 -9 1 -19 0 -23 -4z"/>
    <path d="M5341 16671 c-9 -6 -11 -20 -6 -50 9 -56 -4 -70 -58 -64 -31 4 -46 1 -56 -10 -18 -22 16 -38 71 -35 l43 3 0 -55 c0 -52 1 -55 27 -58 26 -3 27 -2 30 55 l3 58 55 0 c48 0 55 2 55 20 0 18 -7 20 -55 20 l-55 0 -1 50 c-1 28 -2 56 -3 63 -1 14 -29 16 -50 3z"/>
    <path d="M7934 16636 c-3 -7 -4 -36 -2 -62 l3 -49 -60 0 c-53 0 -60 -2 -60 -20 0 -18 7 -20 60 -20 l60 0 -3 -57 c-3 -46 0 -59 12 -64 29 -11 44 13 38 62 -6 55 4 64 59 57 46 -7 76 11 58 33 -7 9 -32 14 -66 14 l-56 0 5 50 c5 49 -4 70 -29 70 -8 0 -16 -6 -19 -14z"/>
    <path d="M8943 16643 c-21 -8 -15 -20 35 -68 l47 -45 -48 -41 c-38 -33 -45 -44 -36 -55 19 -23 42 -16 72 21 25 31 67 48 67 27 0 -16 52 -62 71 -62 33 0 35 29 3 56 -71 58 -70 54 -18 100 34 29 46 45 41 57 -11 28 -40 19 -77 -23 -40 -47 -53 -46 -90 5 -24 33 -40 40 -67 28z"/>
    <path d="M10566 16637 c-15 -11 -16 -19 -7 -52 5 -21 8 -42 5 -47 -3 -4 -29 -8 -58 -8 -32 0 -58 -5 -65 -13 -18 -23 9 -37 72 -37 65 0 61 7 42 -72 -5 -21 -2 -29 15 -38 32 -17 45 1 45 63 l0 52 48 -3 c51 -4 79 10 70 34 -4 11 -19 15 -52 14 -77 -3 -74 -5 -69 48 8 71 -5 89 -46 59z"/>
    <path d="M4074 15300 c-12 -12 -78 -15 -121 -6 -18 4 -33 4 -33 0 0 -4 14 -36 30 -71 17 -34 30 -72 30 -84 0 -11 9 -34 20 -49 19 -26 19 -28 2 -35 -9 -4 -133 -6 -274 -5 -247 1 -257 0 -267 -19 -8 -14 -10 -167 -9 -478 l3 -458 548 -3 547 -2 -2 477 -3 478 -245 2 c-135 1 -250 2 -257 2 -20 1 -4 100 28 167 16 33 29 66 29 72 0 16 -15 23 -26 12z m-8 -309 c16 -6 111 -11 211 -13 160 -3 184 -6 202 -22 20 -19 21 -28 21 -388 0 -320 -2 -368 -15 -368 -18 0 -20 -17 -3 -22 6 -2 -5 -12 -25 -21 -33 -16 -76 -17 -469 -14 -238 3 -441 5 -450 6 -13 2 -18 17 -23 64 -8 81 -2 743 7 752 4 4 107 11 228 15 122 4 224 11 227 14 9 9 56 7 89 -3z"/>
    <path d="M3842 14731 c-30 -16 -72 -68 -72 -91 0 -6 12 -10 28 -10 20 0 32 8 44 30 15 26 23 30 61 30 50 0 67 -13 67 -51 0 -33 -12 -42 -65 -49 -32 -4 -40 -9 -40 -25 0 -16 9 -21 48 -26 27 -3 53 -12 58 -20 26 -42 -8 -99 -60 -99 -45 0 -60 9 -82 51 -29 58 -68 52 -60 -9 4 -24 53 -71 88 -83 108 -35 215 69 154 151 -25 35 -26 46 -6 66 17 17 20 66 5 94 -14 26 -77 60 -108 59 -15 -1 -42 -9 -60 -18z"/>
    <path d="M4134 14729 c-39 -24 -73 -84 -57 -100 17 -17 50 -1 57 26 7 27 36 39 82 33 21 -2 31 -11 38 -30 13 -36 -3 -65 -52 -98 -62 -41 -130 -110 -135 -136 -8 -45 8 -52 133 -50 111 1 115 2 118 24 4 25 6 25 -106 22 -75 -2 -83 0 -80 16 1 10 34 38 71 64 99 67 112 83 112 133 0 46 -22 78 -70 103 -36 19 -73 16 -111 -7z"/>
    <path d="M6160 15031 c-11 -21 -15 -897 -4 -925 5 -14 57 -16 475 -16 l469 0 -2 478 -3 477 -462 2 c-447 3 -463 2 -473 -16z m842 -72 c24 -17 27 -17 34 -1 16 38 23 -75 23 -398 1 -184 -2 -352 -6 -374 -6 -38 -6 -38 -19 -15 l-12 24 -13 -28 -12 -27 -367 0 c-337 0 -368 1 -382 18 -21 25 -22 36 -23 412 0 288 2 350 15 374 l15 29 155 4 c85 3 156 6 158 8 2 2 95 1 205 -2 176 -4 205 -7 229 -24z"/>
    <path d="M6572 14727 c-64 -43 -93 -129 -78 -231 9 -56 58 -112 108 -121 45 -8 107 14 131 47 27 36 27 116 2 150 -18 23 -80 58 -103 58 -7 0 -30 -11 -52 -25 -32 -20 -40 -22 -40 -10 0 20 29 78 44 87 22 15 83 8 110 -13 29 -23 59 -19 54 8 -5 25 -78 72 -113 72 -16 0 -45 -10 -63 -22z m111 -175 c42 -37 7 -132 -49 -132 -57 0 -91 46 -79 107 5 26 12 35 38 42 37 10 64 5 90 -17z"/>
    <path d="M8450 15035 c0 -8 -1 -223 -1 -477 l0 -463 825 -3 826 -2 0 480 0 480 -825 0 c-723 0 -825 -2 -825 -15z m1242 -58 c190 -1 349 -5 352 -8 4 -3 6 -185 7 -405 0 -367 -1 -400 -17 -411 -14 -10 -173 -13 -743 -13 -663 0 -726 1 -743 17 -17 15 -19 15 -32 -2 -11 -16 -14 -12 -19 36 -8 68 -9 716 -1 756 l6 30 396 2 c218 1 398 4 400 5 1 2 12 1 25 -1 12 -2 178 -4 369 -6z"/>
    <path d="M8875 14732 c-40 -21 -61 -48 -79 -104 -20 -58 -20 -84 -2 -136 23 -64 55 -101 99 -113 103 -28 187 53 187 181 0 83 -32 141 -97 174 -39 19 -68 19 -108 -2z m115 -64 c28 -30 33 -56 28 -135 -4 -57 -8 -69 -33 -90 -53 -46 -126 -12 -141 65 -10 51 1 117 25 151 18 26 29 31 61 31 28 0 45 -7 60 -22z"/>
    <path d="M9325 14734 c-56 -28 -96 -114 -53 -114 18 0 31 11 51 43 16 25 23 28 65 25 l47 -3 3 -42 c3 -42 3 -42 -71 -97 -41 -31 -84 -67 -96 -82 -24 -30 -27 -67 -8 -81 6 -6 62 -10 122 -9 106 1 110 2 113 24 3 21 1 22 -87 22 -49 0 -92 4 -95 9 -8 12 12 32 77 76 100 66 126 119 91 182 -18 31 -73 63 -107 62 -12 0 -36 -7 -52 -15z"/>
    <path d="M9578 14738 c-12 -10 -17 -35 -20 -101 -5 -95 6 -122 36 -92 24 25 73 36 104 24 34 -13 42 -26 42 -70 0 -45 -33 -79 -78 -79 -31 0 -72 29 -72 50 0 6 -13 10 -30 10 -37 0 -38 -13 -5 -56 43 -56 143 -70 191 -26 58 52 69 115 29 168 -25 32 -75 64 -102 64 -7 0 -25 -8 -39 -17 -32 -20 -44 -6 -35 40 l7 32 84 5 c83 5 85 6 85 30 0 25 -1 25 -90 28 -62 2 -95 -1 -107 -10z"/>
    <path d="M9129 14424 c-9 -11 -10 -20 -2 -32 15 -24 44 -27 59 -7 28 38 -27 75 -57 39z"/>
    <path d="M2715 14690 c-4 -6 -5 -34 -3 -63 l3 -52 -60 0 c-53 0 -60 -2 -60 -20 0 -17 7 -20 55 -21 l55 -1 5 -59 c4 -51 8 -59 25 -59 17 0 20 8 23 57 l3 57 57 3 c49 3 57 6 57 23 0 18 -7 20 -60 20 l-59 0 -1 60 c0 47 -3 60 -17 63 -9 2 -19 -2 -23 -8z"/>
    <path d="M5335 14679 c-4 -6 -4 -30 -1 -53 8 -49 -4 -60 -53 -50 -16 3 -38 1 -50 -6 -19 -9 -20 -14 -10 -27 10 -11 25 -14 56 -10 54 6 65 -7 57 -66 -6 -44 -5 -46 20 -53 36 -9 41 -2 41 64 l0 57 51 -3 c35 -3 54 1 62 11 20 23 -10 39 -65 35 l-48 -3 -2 45 c-1 25 -2 51 -2 58 -1 15 -47 16 -56 1z"/>
    <path d="M7933 14655 c-3 -9 -3 -32 0 -51 9 -56 3 -63 -57 -57 -57 6 -77 -6 -55 -33 8 -10 27 -14 63 -12 l51 3 -3 -51 c-2 -34 1 -54 10 -62 23 -19 37 1 40 58 l3 55 55 0 c48 0 55 2 55 20 0 17 -8 21 -55 25 l-55 5 -1 45 c-1 25 -2 51 -3 58 -2 17 -40 15 -48 -3z"/>
    <path d="M10563 14658 c-4 -7 -8 -33 -8 -58 l0 -45 -53 -3 c-37 -2 -55 -8 -59 -19 -9 -22 16 -34 62 -28 55 7 67 -3 55 -44 -11 -40 2 -71 30 -71 21 0 21 3 24 75 l1 40 55 0 c50 0 55 2 58 23 3 22 1 23 -45 22 -79 -3 -75 -6 -71 58 3 52 1 57 -19 60 -11 2 -25 -3 -30 -10z"/>
    <path d="M5450 12820 c0 -5 -1 -217 -1 -470 0 -253 1 -465 1 -470 0 -7 411 -9 1228 -8 l1227 3 3 455 c1 250 0 465 -3 478 l-5 22 -1225 0 c-810 0 -1225 -3 -1225 -10z m1279 -50 c20 -6 240 -10 533 -10 435 -1 500 -3 505 -16 3 -8 11 -13 18 -10 7 2 21 -5 32 -16 17 -19 18 -45 20 -358 2 -371 2 -368 -58 -383 -15 -4 -501 -9 -1080 -12 -1172 -5 -1143 -6 -1165 55 -12 33 -13 34 -13 8 -1 -33 -21 -48 -21 -16 -4 194 0 692 5 696 3 4 10 0 15 -7 6 -11 12 -6 24 17 9 17 24 33 33 35 10 2 246 5 526 7 279 1 520 6 535 10 38 11 52 11 91 0z"/>
    <path d="M5524 12440 c0 -85 2 -120 3 -77 2 42 2 112 0 155 -1 42 -3 7 -3 -78z"/>
    <path d="M5872 12506 c-11 -15 -28 -26 -39 -26 -11 0 -28 -6 -39 -14 -18 -14 -18 -15 0 -22 10 -4 30 -7 45 -8 l26 -1 1 -128 c0 -132 7 -154 41 -143 17 6 18 18 17 183 -1 150 -4 178 -17 181 -8 2 -24 -8 -35 -22z"/>
    <path d="M6053 12498 c-48 -51 -63 -90 -63 -163 0 -104 54 -175 134 -175 125 0 176 165 71 230 -37 23 -97 26 -114 6 -6 -8 -20 -16 -30 -19 -17 -4 -18 -2 -9 27 14 41 25 54 61 73 25 13 34 13 56 1 14 -7 30 -19 34 -25 10 -17 57 -17 57 0 -1 36 -66 77 -123 77 -36 0 -48 -6 -74 -32z m118 -149 c24 -17 29 -27 29 -62 0 -32 -6 -46 -27 -64 -33 -29 -56 -29 -93 -1 -26 19 -30 28 -30 70 0 45 2 49 33 62 44 20 55 19 88 -5z"/>
    <path d="M6359 12492 l-43 -39 -4 -90 c-5 -106 8 -145 63 -182 49 -33 115 -26 158 18 27 26 31 37 31 87 1 53 -1 58 -38 90 -47 40 -93 45 -137 13 -25 -17 -30 -18 -35 -5 -9 24 28 76 64 92 36 15 68 6 85 -22 9 -16 53 -19 62 -4 4 6 -10 26 -30 45 -31 30 -43 35 -84 35 -42 0 -54 -5 -92 -38z m114 -134 c49 -25 59 -69 30 -119 -29 -49 -92 -48 -127 3 -29 41 -17 87 29 115 26 15 41 16 68 1z"/>
    <path d="M6797 12509 c-31 -24 -61 -75 -52 -89 12 -19 45 -10 55 15 5 13 24 32 41 41 31 15 35 15 66 -1 25 -14 33 -25 33 -45 0 -35 -16 -48 -65 -52 -32 -2 -40 -7 -40 -23 0 -16 9 -21 47 -26 62 -9 68 -14 68 -54 0 -38 -37 -75 -75 -75 -30 0 -73 35 -77 63 -2 16 -11 23 -30 25 -25 3 -28 0 -28 -26 0 -22 11 -39 41 -67 40 -36 44 -37 100 -33 50 4 63 9 89 36 36 38 40 87 10 125 -24 30 -25 43 -5 63 18 19 20 74 3 96 -42 51 -130 64 -181 27z"/>
    <path d="M7030 12521 c0 -36 11 -40 94 -34 54 4 85 2 90 -5 3 -6 -7 -31 -24 -55 -16 -25 -30 -51 -30 -59 0 -7 -7 -24 -15 -36 -10 -14 -17 -48 -18 -94 -2 -67 0 -73 18 -73 14 0 21 8 23 25 11 96 48 202 88 257 13 17 25 42 26 55 3 23 2 23 -124 26 -76 1 -128 -1 -128 -7z"/>
    <path d="M7353 12518 c-13 -22 -17 -198 -4 -198 6 0 29 11 51 25 47 30 67 31 100 6 52 -40 17 -151 -48 -151 -14 0 -38 14 -59 35 -36 36 -57 43 -69 24 -10 -16 13 -51 50 -77 22 -15 47 -22 79 -22 40 0 53 5 87 36 37 34 40 40 40 88 0 47 -4 56 -37 89 -30 31 -43 37 -77 37 -23 0 -48 -4 -56 -9 -24 -16 -29 -3 -16 42 l12 42 70 -3 c54 -3 73 0 83 12 7 8 10 20 6 26 -9 15 -202 13 -212 -2z"/>
    <path d="M5523 12185 c0 -44 2 -61 4 -37 2 23 2 59 0 80 -2 20 -4 1 -4 -43z"/>
    <path d="M6614 12205 c-8 -32 6 -48 37 -43 19 2 24 9 24 33 0 25 -4 31 -27 33 -22 3 -29 -2 -34 -23z"/>
    <path d="M3548 11453 c-16 -4 -18 -21 -18 -178 0 -112 4 -176 11 -180 6 -4 45 -9 87 -12 89 -5 127 10 176 70 25 32 30 47 34 114 4 69 2 81 -17 102 -12 13 -21 27 -21 31 0 4 -17 19 -38 34 -34 23 -47 26 -118 25 -43 -1 -87 -3 -96 -6z m187 -61 c36 -31 55 -70 55 -116 0 -88 -65 -150 -151 -144 l-44 3 -3 138 -3 137 63 0 c45 -1 69 -6 83 -18z"/>
    <path d="M4455 11450 c-10 -16 3 -60 18 -60 24 0 49 26 46 46 -5 21 -53 32 -64 14z"/>
    <path d="M5304 11448 c-5 -7 -8 -91 -6 -185 l3 -173 29 0 29 0 3 173 c2 94 -1 178 -6 185 -5 6 -16 12 -26 12 -10 0 -21 -6 -26 -12z"/>
    <path d="M5553 11453 c-10 -3 -13 -50 -13 -183 0 -166 1 -178 19 -183 40 -10 44 5 42 142 -1 81 2 131 8 131 5 0 26 -28 47 -62 21 -35 54 -86 74 -113 21 -28 40 -60 44 -73 5 -16 15 -22 37 -22 l29 0 0 149 c0 82 3 162 6 179 5 24 2 31 -14 36 -10 4 -27 3 -37 0 -16 -7 -17 -18 -12 -126 4 -95 2 -118 -8 -118 -8 0 -37 39 -66 88 -29 48 -57 92 -61 97 -5 6 -17 22 -29 38 -19 26 -39 32 -66 20z"/>
    <path d="M6668 11448 c-14 -11 -15 -22 -7 -73 5 -33 8 -109 7 -170 -3 -107 -2 -110 20 -113 12 -2 22 1 22 7 0 16 19 13 37 -5 25 -25 79 -11 119 30 31 32 34 40 34 95 0 68 -25 108 -81 131 -27 11 -35 11 -61 -4 -16 -10 -32 -15 -36 -11 -4 4 -7 32 -7 63 0 60 -14 75 -47 50z m177 -182 c16 -54 14 -66 -16 -101 -34 -38 -47 -42 -82 -22 -32 18 -37 27 -37 75 0 53 14 82 40 82 10 0 22 5 25 10 7 11 64 -25 70 -44z"/>
    <path d="M8017 11431 c-15 -16 -37 -31 -50 -33 -12 -2 -23 -11 -25 -20 -3 -13 6 -17 39 -20 l43 -3 0 -135 c1 -128 2 -135 21 -135 19 0 20 7 20 184 0 114 -4 186 -10 188 -6 2 -23 -10 -38 -26z"/>
    <path d="M8214 11437 c-47 -32 -64 -80 -64 -173 1 -70 4 -84 28 -119 35 -50 67 -67 115 -61 27 3 48 15 74 41 34 35 35 39 31 96 -4 52 -8 64 -34 84 -44 36 -89 42 -124 16 -30 -22 -50 -27 -50 -13 0 16 34 77 49 89 28 22 80 15 105 -12 27 -29 41 -32 50 -9 10 27 7 32 -31 59 -47 31 -105 32 -149 2z m119 -164 c15 -18 22 -48 19 -88 -1 -12 -16 -28 -37 -39 -31 -17 -38 -18 -63 -5 -37 19 -42 27 -42 78 0 30 5 48 18 57 25 19 86 17 105 -3z"/>
    <path d="M8511 11415 c-22 -24 -41 -53 -41 -64 0 -11 -4 -23 -10 -26 -25 -15 3 -155 38 -189 66 -64 105 -71 163 -32 46 32 73 86 64 132 -3 19 -10 34 -15 34 -5 0 -11 9 -15 19 -14 46 -123 64 -155 26 -7 -8 -16 -12 -21 -9 -17 10 -9 42 17 73 34 41 95 44 120 6 10 -15 26 -25 40 -25 36 0 30 32 -11 69 -29 26 -44 31 -84 31 -45 0 -52 -4 -90 -45z m135 -151 c36 -38 41 -56 22 -80 -54 -64 -77 -68 -125 -22 -38 37 -41 65 -13 101 18 22 32 29 74 36 5 0 24 -15 42 -35z"/>
    <path d="M8936 11424 c-25 -24 -36 -43 -34 -58 4 -29 36 -23 68 15 33 39 86 40 114 3 16 -22 17 -29 5 -50 -9 -19 -21 -24 -49 -24 -20 0 -41 -5 -48 -12 -18 -18 5 -38 43 -38 61 0 89 -72 43 -111 -44 -36 -95 -18 -139 50 -18 29 -49 23 -49 -8 0 -27 69 -98 103 -106 42 -11 90 2 125 34 27 25 32 37 32 74 0 31 -6 49 -20 62 -11 10 -20 22 -20 27 0 4 9 17 20 28 30 30 25 65 -16 110 -34 37 -40 40 -89 40 -46 0 -56 -4 -89 -36z"/>
    <path d="M9191 11447 c-21 -26 12 -39 93 -36 41 2 78 1 81 -3 4 -3 -5 -24 -19 -47 -36 -56 -56 -114 -69 -194 -8 -57 -8 -71 4 -78 32 -20 44 -5 50 61 8 87 40 176 86 238 44 59 33 67 -98 70 -90 2 -119 -1 -128 -11z"/>
    <path d="M9522 11448 c-17 -21 -32 -181 -19 -194 8 -9 67 16 67 27 0 5 18 9 39 9 34 0 44 -5 65 -33 15 -19 26 -41 26 -50 0 -22 -58 -77 -81 -77 -23 0 -69 27 -87 52 -20 28 -42 22 -42 -11 0 -37 55 -81 110 -88 47 -7 99 22 129 71 26 42 27 80 2 120 -30 48 -74 69 -127 61 l-44 -6 0 40 c0 26 5 41 13 42 6 0 39 0 72 0 66 -1 91 9 82 33 -5 13 -23 16 -100 16 -64 0 -98 -4 -105 -12z"/>
    <path d="M3955 11340 c-108 -70 -72 -240 55 -257 35 -5 42 -2 79 36 23 23 39 46 36 52 -11 17 -41 9 -65 -16 -13 -14 -33 -25 -44 -25 -28 1 -64 30 -68 55 -3 18 3 20 79 23 102 4 113 13 87 76 -14 33 -28 48 -55 60 -45 20 -67 19 -104 -4z m90 -40 c20 -7 26 -16 23 -33 -3 -19 -10 -22 -56 -25 -42 -2 -54 0 -59 14 -4 11 1 23 16 36 26 21 39 22 76 8z"/>
    <path d="M4250 11351 c0 -5 -11 -12 -25 -15 -27 -7 -65 -73 -65 -115 0 -67 70 -141 134 -141 28 0 96 59 96 83 0 30 -32 28 -63 -3 -35 -36 -56 -38 -85 -7 -16 17 -22 36 -22 69 0 49 14 72 51 83 21 7 69 -18 69 -35 0 -14 23 -13 37 1 17 17 -2 51 -38 72 -32 18 -89 23 -89 8z"/>
    <path d="M4461 11341 c-16 -29 -14 -248 2 -254 32 -11 37 4 37 128 0 94 -3 125 -14 134 -12 10 -17 8 -25 -8z"/>
    <path d="M4675 11349 c-4 -5 -26 -9 -48 -7 l-42 3 -3 -127 -3 -128 31 0 30 0 0 99 c0 95 1 99 26 116 25 16 27 16 56 -12 30 -28 30 -29 25 -110 -5 -64 -3 -84 9 -93 11 -10 18 -10 30 1 13 11 15 27 12 81 -3 37 -3 79 -1 92 6 30 55 51 84 35 17 -8 19 -22 19 -108 0 -81 3 -100 16 -105 9 -3 20 -4 25 0 11 6 12 214 1 229 -12 17 -60 45 -77 45 -8 0 -33 -11 -55 -25 -31 -20 -41 -22 -47 -11 -18 29 -76 46 -88 25z"/>
    <path d="M5076 11342 c-41 -25 -61 -56 -43 -70 9 -8 23 -3 56 18 41 28 44 28 67 13 16 -10 24 -24 22 -37 -3 -18 -11 -22 -52 -24 -66 -4 -106 -33 -106 -75 0 -37 6 -47 40 -70 31 -21 64 -22 85 -1 14 14 20 15 40 4 43 -23 49 -12 46 90 -3 113 -10 133 -52 154 -40 20 -66 19 -103 -2z m102 -156 c5 -23 -33 -55 -64 -56 -11 0 -29 9 -38 19 -17 18 -17 20 4 41 28 28 93 25 98 -4z"/>
    <path d="M5926 11344 c-3 -9 -6 -58 -6 -109 0 -85 2 -96 24 -119 31 -34 80 -44 105 -22 16 14 23 15 39 5 11 -7 27 -9 36 -6 14 5 16 25 16 126 0 110 -2 121 -20 131 -11 6 -25 8 -30 5 -6 -3 -10 -46 -10 -94 0 -95 -16 -131 -57 -131 -39 0 -53 31 -53 117 0 89 -5 113 -25 113 -7 0 -16 -7 -19 -16z"/>
    <path d="M6230 11341 c-6 -13 -10 -66 -8 -138 3 -110 4 -118 23 -118 18 0 20 8 25 100 5 95 6 100 31 114 24 13 29 13 54 -3 26 -17 26 -18 20 -105 -6 -75 -5 -89 10 -101 28 -23 44 9 38 78 -6 72 15 127 53 136 46 12 54 -6 54 -115 l0 -99 30 0 30 0 0 103 c0 108 -9 131 -57 156 -33 17 -58 13 -85 -12 l-25 -23 -34 22 c-41 28 -66 29 -91 7 -17 -15 -19 -15 -37 1 -19 17 -20 17 -31 -3z"/>
    <path d="M7015 11343 c-42 -20 -65 -64 -65 -125 0 -35 6 -57 21 -76 28 -36 69 -62 99 -62 35 0 100 46 100 71 0 31 -28 34 -57 5 -32 -33 -53 -33 -87 -1 -43 40 -30 50 68 53 l88 3 -6 37 c-12 63 -16 70 -52 91 -40 24 -66 25 -109 4z m96 -51 c15 -13 20 -25 16 -36 -5 -14 -17 -16 -59 -14 -46 3 -53 6 -56 26 -6 39 60 55 99 24z"/>
    <path d="M7256 11351 c-4 -5 -9 -64 -12 -129 -4 -100 -2 -121 11 -132 26 -22 39 3 36 70 -1 34 2 67 7 73 6 7 11 21 13 31 2 11 22 29 44 40 47 25 52 50 13 54 -16 2 -28 -1 -28 -6 0 -18 -44 -22 -61 -6 -11 10 -19 12 -23 5z"/>
    <path d="M7543 11325 c-11 -30 12 -36 133 -33 111 3 119 4 119 23 0 19 -8 20 -123 23 -105 2 -123 0 -129 -13z"/>
    <path d="M7543 11224 c-11 -29 14 -36 128 -36 93 0 114 3 121 16 17 30 -2 36 -123 36 -99 0 -121 -3 -126 -16z"/>
    <path d="M8780 11146 c-19 -23 -8 -61 18 -64 44 -7 67 32 36 62 -19 20 -38 20 -54 2z"/>
    <path d="M4242 10505 c-44 -50 -62 -109 -62 -199 0 -92 19 -148 67 -193 43 -41 67 -2 29 47 -52 66 -61 184 -21 260 44 82 47 93 33 102 -19 12 -22 10 -46 -17z"/>
    <path d="M4410 10503 c-43 -30 -52 -46 -48 -81 4 -33 28 -36 44 -5 18 38 46 63 68 63 34 -1 66 -34 66 -69 0 -24 -9 -37 -47 -65 -92 -69 -124 -99 -139 -135 -14 -33 -13 -37 2 -48 26 -19 228 -18 243 1 22 26 -23 39 -111 32 -69 -6 -78 -4 -78 10 0 19 11 29 85 78 61 41 83 64 94 102 12 43 -8 89 -52 119 -47 31 -82 31 -127 -2z"/>
    <path d="M5058 10512 c-27 -17 -52 -48 -75 -89 -19 -33 -16 -149 4 -195 9 -21 20 -38 23 -38 4 0 17 -9 30 -20 27 -23 101 -27 122 -7 7 8 22 19 33 24 11 6 26 31 33 55 11 38 11 48 -4 78 -26 53 -62 79 -111 80 -29 0 -45 -5 -51 -17 -6 -9 -16 -14 -25 -10 -38 14 31 107 79 107 10 0 33 -14 51 -32 30 -29 35 -31 49 -16 21 21 6 49 -41 77 -44 26 -81 27 -117 3z m94 -174 c49 -49 21 -138 -45 -138 -76 0 -106 94 -46 144 34 29 57 28 91 -6z"/>
    <path d="M5472 10500 c-48 -34 -66 -63 -57 -90 10 -31 29 -24 69 25 40 49 54 53 91 29 55 -36 40 -74 -59 -148 -41 -31 -82 -66 -91 -79 -20 -28 -19 -73 1 -81 9 -3 64 -6 124 -6 84 0 109 3 113 14 11 29 -20 39 -96 32 -87 -7 -110 2 -82 35 11 12 43 36 71 54 121 78 136 165 39 225 -45 28 -75 25 -123 -10z"/>
    <path d="M5774 10511 c-63 -39 -80 -88 -44 -134 11 -14 20 -28 20 -30 0 -3 -13 -21 -30 -39 -33 -35 -36 -51 -17 -85 25 -45 77 -73 134 -73 47 0 58 4 93 36 33 30 40 43 40 75 0 27 -5 41 -19 48 -27 15 -31 44 -10 72 10 13 19 29 19 35 0 25 -33 74 -64 93 -42 26 -82 27 -122 2z m104 -51 c24 -23 29 -59 10 -78 -20 -20 -89 -15 -114 9 -27 25 -22 49 14 71 37 22 64 22 90 -2z m-21 -131 c6 -6 22 -17 35 -23 32 -16 35 -59 7 -87 -27 -27 -84 -30 -122 -5 -36 24 -35 74 1 92 13 6 29 17 35 23 6 6 16 11 22 11 6 0 16 -5 22 -11z"/>
    <path d="M7032 10503 c-51 -75 -62 -111 -62 -203 0 -57 4 -93 13 -102 6 -7 21 -30 31 -51 26 -51 40 -61 65 -48 18 10 18 13 5 41 -9 16 -20 30 -25 30 -5 0 -9 8 -9 18 0 10 -7 27 -15 38 -9 12 -14 42 -15 81 0 56 8 82 42 143 30 55 32 61 17 71 -21 13 -26 11 -47 -18z"/>
    <path d="M7428 10516 c-8 -7 -23 -16 -34 -20 -39 -12 -62 -81 -61 -177 l2 -85 41 -42 c36 -37 46 -42 86 -42 38 0 52 6 84 34 36 32 38 38 38 90 0 52 -2 58 -38 91 -30 27 -47 35 -76 35 -21 0 -43 -7 -50 -15 -18 -22 -40 -18 -40 7 0 21 69 98 89 98 6 0 26 -13 44 -30 66 -58 101 -29 36 31 -45 42 -94 52 -121 25z m77 -177 c70 -62 30 -151 -65 -140 -18 1 -60 60 -60 83 0 18 64 88 79 88 6 0 26 -14 46 -31z"/>
    <path d="M7707 10502 c-21 -14 -40 -36 -43 -49 -4 -13 -10 -23 -15 -23 -5 0 -9 -41 -9 -90 0 -96 8 -120 59 -167 18 -17 36 -23 70 -23 38 0 52 6 84 35 37 34 42 49 37 120 -2 44 -62 95 -111 95 -20 0 -42 -7 -49 -15 -14 -17 -50 -20 -50 -5 0 19 39 73 66 90 31 21 46 17 85 -21 31 -30 59 -29 59 1 0 20 -25 50 -41 50 -6 0 -17 7 -25 15 -23 22 -74 17 -117 -13z m108 -164 c19 -16 25 -31 25 -60 0 -48 -28 -78 -73 -78 -45 0 -72 30 -72 82 0 69 69 101 120 56z"/>
    <path d="M8168 10523 c-10 -2 -18 -9 -18 -14 0 -5 -5 -9 -12 -9 -13 0 -58 -47 -58 -61 0 -16 13 -39 21 -39 5 0 28 18 50 40 23 22 50 40 62 40 22 0 67 -43 67 -64 0 -22 -35 -46 -68 -46 -25 0 -32 -4 -32 -20 0 -14 7 -20 23 -21 37 -1 82 -33 85 -62 5 -41 -30 -69 -81 -65 -36 3 -45 8 -70 45 -18 27 -33 40 -42 36 -23 -8 -18 -60 8 -83 12 -12 29 -27 38 -35 9 -9 36 -15 67 -15 46 0 57 4 92 36 33 30 40 43 40 75 0 28 -5 41 -20 49 -26 14 -25 43 0 79 28 36 15 70 -41 111 -39 28 -69 34 -111 23z"/>
    <path d="M8373 10519 c-26 -26 5 -39 93 -39 46 0 84 -2 84 -4 0 -5 -28 -67 -39 -86 -31 -56 -41 -82 -41 -107 0 -16 -4 -33 -9 -38 -5 -6 -12 -24 -15 -41 -8 -36 11 -57 46 -52 21 3 23 9 26 68 1 36 9 79 17 97 8 17 15 36 15 41 0 12 32 75 42 82 14 11 29 63 20 72 -16 16 -225 22 -239 7z"/>
    <path d="M8714 10523 c-26 -5 -34 -37 -34 -135 0 -82 15 -96 59 -54 26 25 81 36 81 17 0 -5 9 -13 20 -16 28 -9 29 -94 2 -118 -29 -26 -87 -22 -110 7 -25 33 -67 44 -76 20 -4 -12 6 -28 35 -55 38 -35 48 -39 94 -39 43 0 58 5 84 28 90 79 41 222 -76 222 -24 0 -43 -4 -43 -10 0 -5 -4 -10 -10 -10 -5 0 -10 20 -10 45 0 56 16 64 108 57 62 -4 64 -4 60 19 -3 23 -7 24 -83 25 -44 1 -90 0 -101 -3z"/>
    <path d="M8983 10514 c-6 -16 30 -98 48 -109 5 -4 9 -43 9 -87 0 -74 -3 -87 -35 -143 -30 -55 -33 -64 -20 -75 13 -10 19 -9 36 6 33 30 65 105 73 169 7 66 -6 157 -23 163 -6 2 -11 10 -11 17 0 16 -48 75 -61 75 -5 0 -12 -7 -16 -16z"/>
    <path d="M4768 10477 c-15 -23 -37 -53 -48 -67 -75 -93 -91 -120 -80 -140 9 -17 21 -20 90 -20 l79 0 3 -47 c3 -40 6 -48 23 -48 17 0 20 8 23 48 3 41 6 47 25 47 12 0 29 4 37 10 11 7 9 11 -13 19 -16 6 -33 11 -38 11 -10 0 -10 1 -12 135 l-2 90 -30 2 c-26 3 -34 -3 -57 -40z m47 -120 c-3 -29 -11 -57 -17 -64 -15 -19 -77 -17 -85 3 -7 19 23 76 61 115 26 27 31 28 39 13 5 -9 6 -39 2 -67z"/>
    <path d="M6020 10510 c0 -11 18 -46 36 -70 7 -8 19 -40 27 -70 15 -50 15 -61 1 -115 -9 -33 -21 -67 -27 -75 -19 -24 -37 -59 -37 -71 0 -20 54 -5 66 19 6 13 17 29 23 35 6 6 11 20 11 32 0 12 5 26 11 32 19 19 23 126 6 164 -8 19 -18 44 -22 57 -3 12 -10 22 -15 22 -4 0 -11 11 -14 25 -5 20 -13 25 -36 25 -17 0 -30 -5 -30 -10z"/>
    <path d="M7207 10496 c-10 -14 -28 -26 -44 -28 -20 -2 -28 -9 -28 -23 0 -16 8 -21 37 -23 l37 -3 3 -132 c3 -124 4 -132 23 -132 19 0 20 7 20 180 0 156 -3 180 -16 183 -9 2 -23 -8 -32 -22z"/>
    <path d="M6523 10395 c-11 -30 12 -36 133 -33 111 3 119 4 119 23 0 19 -8 20 -123 23 -105 2 -123 0 -129 -13z"/>
    <path d="M6533 10283 c-12 -32 3 -37 116 -38 82 -1 115 2 123 12 23 28 -8 37 -123 38 -79 0 -113 -3 -116 -12z"/>
    <path d="M 9338.545 10283 C 9301.545 10278 9263.545 10227 9263.545 10183 C 9263.545 10149 9307.874 10097.155 9331.874 10097.155 C 9371.675 10097.155 9395.76 10124 9328.545 10140 C 9285.072 10150.348 9321.545 10250 9365.545 10250 C 9386.545 10250 9411.521 10196.733 9397.521 10151.733 C 9384.384 10146.678 9324.7 10118.769 9337.63 10102.77 C 9351.755 10085.292 9417.545 10094 9436.545 10135 C 9452.545 10168 9459.368 10193.31 9449.368 10225.31 C 9439.368 10255.31 9383.545 10295 9371.545 10288 C 9369.545 10288 9354.545 10285 9338.545 10283 Z"/>
    <path d="M 9186.111 10267.618 C 9172.44 10246.353 9161.207 10235.72 9167.207 10231.72 C 9206.579 10239.655 9206.018 10229.297 9206.018 10193.297 L 9202.237 10107.795 L 9215.553 10100.771 C 9233.553 10102.771 9245 10097.241 9244 10109.241 C 9244 10118.241 9243 10164 9242 10205 C 9240 10271 9242.004 10299.135 9225.004 10299.135 C 9215.004 10299.135 9194.661 10280.918 9186.111 10267.618 Z"/>
    <path d="M5296 10201 c-24 -26 -14 -51 19 -51 29 0 43 25 28 48 -15 24 -28 25 -47 3z"/>
    <path d="M7957 10205 c-29 -21 -18 -49 21 -53 28 -3 32 0 32 20 0 22 -16 48 -29 48 -4 0 -14 -7 -24 -15z"/>
    <text style="fill-rule: evenodd; font-family: Arial, sans-serif; font-size: 26.2338px; font-weight: 700; white-space: pre;" transform="matrix(10.870087, 0, 0.000001, -8.371833, 5836.799316, 10628.513672)" dx="30.017" dy="60.39">8</text>
    <path style="stroke: rgb(0, 0, 0); fill: rgb(51, 51, 51);" d="M 6182.245 10232.911 L 6181.198 10233.983"/>
  </g>
  <path style="fill: rgb(216, 216, 216); stroke: rgb(0, 0, 0);" d="M 1093.439 2157.208 L 1093.267 2157.036"/>
</svg>