<?xml version="1.0" encoding="utf-8"?>
<svg viewBox="0 0 1524 1872" xmlns="http://www.w3.org/2000/svg">
  <g transform="matrix(0.113038, 0, 0, -0.113328, -7.561793, 2115.77417)" fill="#000000" stroke="none" style="">
    <path d="M3425 18272 c-88 -36 -165 -160 -165 -267 0 -45 24 -125 49 -165 68 -107 199 -147 314 -96 96 42 147 134 147 267 0 116 -44 198 -133 249 -43 24 -63 30 -112 29 -33 -1 -78 -8 -100 -17z m174 -64 c72 -45 99 -101 99 -208 0 -102 -30 -159 -103 -199 -50 -26 -90 -27 -148 -1 -109 48 -143 226 -67 353 42 70 150 97 219 55z"/>
    <path d="M5020 18278 c-1 -13 -1 -523 0 -546 0 -9 11 -12 33 -10 l32 3 0 280 0 280 -32 3 c-22 2 -33 -1 -33 -10z"/>
    <path d="M5388 18018 c-2 -150 -1 -279 1 -286 2 -8 16 -12 35 -10 l31 3 -4 223 c-3 191 -2 222 11 222 17 0 35 -20 62 -70 19 -35 106 -170 116 -180 16 -16 80 -118 80 -128 0 -7 4 -12 9 -12 6 0 16 -12 23 -27 14 -29 65 -45 77 -25 3 6 6 133 6 284 l0 273 -35 0 -35 0 4 -212 c2 -117 1 -213 -3 -213 -15 0 -46 21 -46 31 0 14 -83 150 -122 200 -15 20 -28 41 -28 46 0 5 -13 24 -30 43 -16 19 -29 39 -30 43 0 4 -10 21 -22 37 -17 24 -29 30 -59 30 l-38 0 -3 -272z"/>
    <path d="M7139 18283 c-6 -42 3 -549 10 -556 15 -15 46 -3 49 21 4 27 8 27 57 -3 71 -44 137 -31 205 40 32 33 35 41 38 110 6 103 -2 134 -45 180 -35 38 -39 40 -109 43 -64 4 -75 2 -90 -17 -20 -22 -39 -27 -49 -12 -3 5 -1 47 4 92 5 45 7 88 4 96 -5 14 -72 19 -74 6z m250 -241 c38 -31 51 -84 40 -161 -9 -64 -57 -104 -117 -98 -59 6 -88 36 -103 105 -14 69 1 123 45 158 43 33 92 32 135 -4z"/>
    <path d="M9000 18263 c-27 -35 -57 -52 -91 -53 -32 0 -52 -21 -43 -45 6 -14 15 -16 47 -12 80 11 80 11 77 -211 -2 -109 -2 -203 -1 -210 1 -9 12 -12 34 -10 l32 3 0 280 c0 251 -2 280 -16 283 -9 2 -27 -10 -39 -25z"/>
    <path d="M9386 18246 c-20 -24 -36 -49 -36 -55 0 -5 -6 -14 -13 -18 -7 -4 -30 -30 -50 -58 -20 -27 -41 -55 -45 -60 -44 -53 -83 -120 -80 -138 3 -21 8 -22 136 -25 94 -2 133 -6 134 -15 1 -7 2 -43 2 -82 l1 -70 33 -3 32 -3 0 85 0 86 59 0 c42 0 60 4 64 14 9 24 -19 38 -70 34 l-48 -3 -3 178 -2 177 -39 0 c-33 0 -43 -6 -75 -44z m52 -179 c2 -103 1 -117 -15 -125 -19 -9 -179 -10 -188 -1 -3 3 18 35 46 70 29 35 63 82 77 104 67 105 76 99 80 -48z"/>
    <path d="M9825 18273 c-46 -24 -75 -53 -103 -108 -23 -45 -26 -61 -26 -155 1 -75 5 -116 17 -142 54 -126 166 -178 279 -129 51 22 66 38 107 114 28 53 31 65 31 152 0 87 -3 99 -31 152 -39 74 -55 90 -103 114 -48 23 -128 24 -171 2z m171 -81 c61 -62 82 -172 53 -277 -16 -59 -37 -91 -76 -116 -60 -40 -134 -16 -179 57 -21 35 -23 51 -23 149 0 98 2 114 23 149 32 51 72 76 122 76 35 0 48 -6 80 -38z"/>
    <path d="M4313 18203 c-7 -2 -13 -20 -13 -39 0 -27 -5 -35 -24 -40 -40 -10 -40 -33 -2 -49 l33 -14 -5 -114 c-6 -150 0 -183 41 -207 45 -28 111 -27 131 2 21 30 3 51 -35 43 -15 -4 -37 -1 -49 5 -20 10 -20 18 -18 148 l3 137 41 -3 c28 -2 45 2 54 13 18 22 3 33 -50 37 -43 3 -45 4 -48 38 -5 44 -23 58 -59 43z"/>
    <path d="M5983 18123 c-22 -4 -23 -7 -23 -131 1 -155 17 -215 69 -249 46 -31 100 -30 151 2 l40 25 10 -25 c7 -18 17 -25 35 -25 14 0 25 3 25 8 1 4 2 91 2 195 2 205 -2 220 -48 198 l-26 -12 2 -117 c3 -153 5 -145 -32 -181 -37 -36 -84 -41 -116 -13 -20 16 -46 88 -37 102 2 3 5 51 6 105 2 88 0 100 -17 110 -11 6 -29 10 -41 8z"/>
    <path d="M8187 18120 c-16 -5 -35 -17 -43 -27 -13 -17 -15 -17 -32 5 -12 16 -26 23 -41 20 -23 -3 -23 -4 -24 -198 l-2 -195 35 0 35 0 1 137 c0 121 3 140 20 159 25 28 67 49 97 49 35 0 52 23 32 44 -18 17 -35 19 -78 6z"/>
    <path d="M3929 18087 c-58 -51 -69 -78 -69 -158 0 -92 20 -137 80 -178 74 -51 145 -43 226 26 29 24 37 55 21 77 -17 23 -53 14 -62 -14 -10 -30 -54 -60 -90 -60 -62 0 -115 69 -115 150 0 72 57 140 116 140 30 0 84 -35 84 -55 0 -20 37 -37 60 -30 31 10 24 42 -21 90 l-42 45 -76 0 c-72 0 -78 -2 -112 -33z"/>
    <path d="M4611 18075 c-48 -53 -50 -79 -6 -83 24 -2 33 3 47 27 35 62 92 72 143 25 19 -17 25 -32 23 -52 -3 -26 -6 -27 -63 -30 -54 -2 -75 -8 -154 -46 -14 -7 -29 -27 -37 -53 -13 -38 -13 -45 5 -73 43 -71 129 -90 201 -45 l40 25 12 -25 c9 -20 18 -25 37 -23 21 2 26 8 25 31 0 15 -1 87 -2 161 l-2 135 -34 35 c-33 35 -35 36 -113 36 l-80 0 -42 -45z m197 -167 c7 -7 12 -25 12 -40 0 -37 -68 -88 -118 -88 -63 0 -91 49 -56 98 12 18 25 22 64 22 27 0 52 5 55 10 8 14 28 13 43 -2z"/>
    <path d="M6438 18113 c-2 -5 -3 -93 -3 -198 l0 -190 33 -3 c37 -4 35 -13 32 142 -2 130 13 176 69 198 43 16 59 13 90 -17 24 -23 24 -29 25 -172 l1 -148 29 -3 c16 -2 32 2 37 9 4 8 5 57 2 110 -7 120 1 162 37 200 38 40 93 38 124 -4 19 -26 21 -42 21 -170 l0 -142 35 0 35 0 3 130 c3 143 -5 188 -44 235 -24 28 -30 30 -93 30 -59 0 -70 -3 -91 -25 -13 -14 -30 -25 -38 -25 -8 0 -25 11 -38 25 -20 21 -32 25 -84 25 -48 0 -64 -4 -82 -22 l-22 -22 -14 22 c-14 21 -57 31 -64 15z"/>
    <path d="M7649 18087 c-59 -52 -69 -77 -69 -164 1 -69 4 -83 28 -118 55 -79 151 -106 231 -65 47 24 83 67 79 94 -5 34 -34 29 -77 -13 -34 -34 -49 -41 -80 -41 -45 0 -79 24 -106 73 -33 62 -23 67 130 67 155 0 155 0 135 78 -7 30 -24 60 -48 85 -35 36 -37 37 -112 37 -70 0 -77 -2 -111 -33z m173 -39 c29 -20 45 -59 33 -77 -4 -7 -47 -11 -106 -11 -97 0 -99 1 -99 23 0 23 36 64 75 85 24 13 61 6 97 -20z"/>
    <path d="M8509 18053 c-15 -41 -7 -57 33 -67 43 -11 68 3 68 39 0 44 -10 55 -51 55 -34 0 -41 -4 -50 -27z"/>
    <path d="M8538 17813 c-29 -5 -41 -33 -31 -71 4 -18 12 -22 48 -22 45 0 55 10 55 54 0 24 -18 47 -34 45 -6 -1 -23 -4 -38 -6z"/>
    <path d="M6730 17480 c-13 -8 -15 -75 -12 -517 1 -279 5 -532 8 -560 7 -62 -2 -66 -52 -28 -56 43 -83 24 -50 -35 30 -52 56 -113 56 -129 0 -9 4 -21 10 -27 12 -12 33 -161 26 -180 -5 -12 -175 -14 -1141 -14 -625 0 -1141 -2 -1146 -5 -10 -7 -13 -1263 -3 -1290 6 -15 37 -16 313 -15 168 1 312 1 320 1 10 -1 8 -8 -9 -26 -13 -14 -28 -25 -33 -25 -6 0 -25 -11 -43 -25 -18 -14 -35 -25 -38 -25 -3 0 -38 -22 -78 -50 -40 -27 -76 -50 -81 -50 -4 0 -20 -11 -35 -25 -15 -14 -36 -28 -46 -31 -11 -4 -31 -17 -45 -30 -14 -13 -31 -24 -38 -24 -6 0 -18 -6 -25 -13 -7 -7 -44 -32 -83 -56 -38 -23 -112 -71 -163 -106 -51 -36 -97 -65 -102 -65 -5 0 -15 -6 -22 -12 -20 -19 -123 -88 -132 -88 -4 0 -19 -11 -34 -25 -15 -14 -36 -28 -46 -31 -11 -4 -31 -17 -45 -30 -14 -13 -31 -24 -36 -24 -6 0 -20 -7 -30 -15 -26 -20 -337 -225 -342 -225 -1 0 -31 -19 -65 -43 -35 -23 -92 -60 -128 -82 -36 -22 -69 -43 -75 -47 -71 -58 -148 -108 -156 -102 -6 3 -9 28 -7 58 3 46 1 51 -19 54 -17 3 -23 -2 -23 -16 0 -10 -14 -38 -30 -60 -17 -23 -30 -47 -30 -52 0 -6 -43 -53 -96 -105 l-96 -95 -1112 0 c-852 0 -1115 -3 -1124 -12 -9 -9 -12 -186 -12 -734 0 -612 2 -723 14 -733 11 -9 196 -12 753 -10 l738 3 3 -532 c2 -461 0 -532 -12 -532 -8 0 -19 6 -23 13 -11 19 -71 52 -79 44 -4 -3 3 -28 16 -54 59 -127 69 -153 84 -223 9 -41 16 -83 16 -92 0 -17 -30 -18 -480 -18 l-480 0 -2 -357 -3 -358 -241 -3 c-200 -2 -243 -5 -248 -17 -3 -8 -6 -337 -7 -732 l-1 -717 22 -18 c22 -18 144 -18 3033 -18 1655 0 3011 -1 3013 -2 2 -3 7 -791 5 -821 -1 -5 -20 5 -43 22 -23 17 -48 31 -54 31 -21 0 -27 -20 -12 -38 18 -20 58 -104 58 -119 0 -6 6 -24 14 -40 17 -32 50 -211 45 -238 -4 -17 -27 -18 -421 -16 -389 2 -417 1 -420 -15 -1 -10 -2 -343 0 -741 l2 -723 918 2 917 3 0 735 0 735 -480 1 c-543 2 -498 -7 -471 88 9 30 16 65 16 79 0 37 34 135 69 200 17 32 31 62 31 68 0 25 -33 18 -75 -16 -25 -21 -45 -33 -46 -29 -2 32 3 829 5 832 2 1 1333 3 2957 2 2373 0 2959 3 2979 13 l25 13 0 724 0 725 -225 2 c-124 1 -231 2 -237 2 -10 1 -13 82 -13 371 0 289 -3 370 -12 370 -7 0 -197 0 -422 0 l-408 -1 6 28 c4 15 11 54 16 87 4 32 13 63 19 69 6 6 11 17 11 25 0 18 40 102 58 120 16 18 15 51 -2 58 -7 3 -26 -6 -41 -20 -25 -23 -64 -43 -68 -34 -1 1 0 241 3 532 l5 529 781 -2 c516 -2 784 1 788 8 8 12 9 1459 1 1471 -4 6 -411 10 -1087 10 l-1082 0 -98 99 c-54 55 -98 105 -98 111 0 25 -51 90 -71 90 -20 0 -21 -4 -15 -54 5 -35 3 -56 -3 -61 -6 -3 -37 14 -69 38 -31 25 -101 71 -155 103 -54 33 -110 67 -125 76 -15 10 -34 21 -42 25 -8 4 -40 23 -70 44 -30 20 -67 43 -82 50 -14 8 -76 46 -138 84 -61 39 -123 77 -138 85 -27 15 -78 46 -142 87 -19 13 -46 28 -60 34 -13 5 -27 14 -30 18 -5 7 -195 126 -258 161 -15 8 -63 38 -107 65 -44 28 -89 55 -100 62 -11 6 -73 45 -139 85 -65 40 -130 79 -145 87 -14 8 -27 18 -29 23 -2 4 -9 8 -16 8 -6 0 -28 11 -47 24 -20 14 -58 37 -85 52 -110 61 -151 93 -122 95 7 0 159 1 338 2 l325 2 0 650 0 650 -1153 0 c-1094 0 -1153 1 -1158 18 -7 23 25 186 42 214 8 12 14 29 14 37 0 18 47 113 60 121 13 8 1 35 -16 35 -8 0 -32 -16 -53 -35 -24 -22 -42 -32 -46 -25 -4 6 -5 264 -4 573 3 487 1 562 -11 564 -8 2 -22 -1 -30 -7z m-780 -1540 c1 -3 1 -276 1 -608 l1 -603 -739 0 -738 0 -3 608 -2 608 740 0 c407 0 740 -2 740 -5z m1547 -3 c2 -3 5 -275 6 -605 l2 -601 -365 -3 c-201 -2 -539 -2 -752 0 l-388 3 0 604 c0 557 1 604 17 607 25 5 1475 0 1480 -5z m1543 -7 c2 -515 0 -1193 -4 -1197 -5 -6 -1467 -5 -1473 1 -8 8 -2 1200 6 1206 5 3 338 5 740 5 643 0 731 -2 731 -15z m-2302 -1808 c1 -309 -1 -562 -5 -562 -5 0 -26 14 -47 30 -68 51 -87 32 -41 -40 14 -22 32 -59 41 -82 25 -70 55 -210 52 -246 l-3 -33 -739 1 c-542 0 -742 -3 -752 -11 -21 -17 -21 -1451 0 -1468 10 -8 198 -11 710 -10 408 1 701 -2 706 -7 15 -15 14 -1048 0 -1052 -7 -3 -27 10 -45 28 -52 51 -89 23 -45 -33 11 -14 20 -34 20 -45 0 -11 7 -25 15 -32 8 -7 15 -20 15 -29 0 -9 5 -22 12 -29 6 -6 15 -33 19 -59 4 -27 11 -67 15 -90 l7 -43 -462 0 -461 0 0 -734 c0 -466 4 -737 10 -741 12 -8 1808 -8 1820 0 16 10 13 1475 -2 1475 -7 1 -203 0 -435 0 -251 0 -424 3 -427 9 -3 5 1 28 9 51 8 23 15 54 15 69 0 29 57 175 84 212 38 54 5 66 -54 19 -21 -16 -42 -30 -46 -30 -7 0 -9 716 -4 1060 0 3 345 3 766 2 421 -2 776 -1 790 2 l24 6 -2 738 -3 737 -744 2 c-410 1 -751 5 -759 8 -10 4 -12 13 -7 33 4 15 11 54 16 87 8 50 27 110 63 195 10 22 30 56 45 73 14 18 7 37 -14 37 -7 0 -27 -12 -44 -26 -38 -32 -68 -29 -62 6 2 14 5 261 7 549 2 288 5 525 7 528 2 2 335 3 739 3 798 0 752 3 833 -54 35 -25 61 -41 95 -58 14 -7 27 -15 30 -18 6 -7 269 -168 308 -189 15 -8 29 -17 32 -21 8 -10 110 -70 119 -70 5 0 16 -6 23 -13 7 -7 76 -50 153 -96 77 -46 154 -94 170 -106 17 -12 53 -34 80 -50 28 -15 73 -43 100 -60 28 -18 62 -38 77 -46 43 -23 253 -152 258 -159 3 -4 21 -15 40 -25 19 -10 64 -36 100 -59 36 -22 74 -46 85 -53 11 -6 73 -45 138 -85 127 -78 212 -128 264 -154 46 -23 60 -42 37 -50 -50 -15 -84 -35 -84 -48 0 -11 19 -16 83 -19 73 -4 157 -18 196 -32 11 -4 10 -9 -4 -25 -11 -13 -15 -24 -9 -29 18 -19 189 -23 1214 -29 l1045 -7 5 -680 c3 -374 5 -681 5 -682 -1 -2 -1359 -4 -2285 -4 l-675 1 3 677 c1 373 6 681 10 684 4 4 138 9 297 12 280 6 345 11 345 27 0 18 -51 22 -357 27 -253 5 -326 3 -338 -7 -13 -11 -15 -98 -15 -736 l0 -723 21 -12 c15 -8 215 -10 714 -7 l694 3 3 -525 c2 -289 0 -529 -4 -534 -3 -4 -24 6 -47 24 -24 20 -46 30 -56 26 -14 -5 -14 -10 4 -43 11 -21 22 -45 25 -53 3 -8 10 -22 15 -30 29 -51 41 -81 41 -104 0 -14 7 -51 15 -83 8 -31 11 -61 7 -65 -4 -4 -219 -9 -477 -10 l-470 -3 -3 -729 c-1 -402 2 -734 6 -738 12 -12 1812 -12 1824 0 5 5 8 143 6 346 -2 219 0 336 7 337 8 1 362 0 413 -1 10 0 12 -140 10 -682 l-3 -683 -5990 0 -5990 0 0 690 0 690 215 5 c138 3 218 1 222 -5 4 -5 8 -164 8 -352 0 -218 4 -344 10 -348 15 -9 1832 -7 1842 3 4 4 7 336 6 738 l-3 729 -420 5 -420 5 3 55 c2 30 10 78 19 105 24 74 19 65 51 120 17 29 30 60 34 81 5 32 -29 28 -60 -7 -20 -23 -34 -30 -47 -26 -14 6 -16 13 -10 40 5 17 9 252 11 520 1 269 5 491 9 495 3 3 335 5 738 4 403 -2 738 1 745 6 10 6 12 162 10 743 l-3 734 -350 0 c-192 0 -356 4 -363 8 -19 13 -6 24 35 32 21 4 43 10 48 14 19 15 144 41 195 41 80 0 62 34 -34 65 -18 5 -18 7 4 30 13 14 30 25 38 25 7 0 32 13 55 29 96 66 398 262 415 268 9 4 23 13 31 21 8 7 26 21 40 29 33 21 241 156 606 394 72 47 148 96 170 109 22 13 42 27 45 30 6 7 181 123 195 130 6 3 44 27 85 54 176 115 296 194 310 202 11 7 1488 24 1555 18 7 0 11 -197 13 -562z m-3433 -988 c153 -3 280 -6 282 -7 1 -2 4 -310 5 -685 l3 -681 -740 -3 c-407 -2 -1074 -2 -1483 0 l-742 3 2 682 3 682 1092 5 c600 3 1095 9 1100 13 4 5 51 6 103 2 52 -3 221 -8 375 -11z m4242 -4 l693 0 2 -682 c2 -376 3 -684 2 -686 -1 -3 -2957 -3 -2958 0 -1 2 1 309 4 683 l5 680 715 6 c393 3 744 4 780 2 36 -1 377 -3 757 -3z m-4629 -2875 c9 -4 12 -150 12 -690 l0 -685 -872 2 -873 3 0 685 0 685 435 5 c452 5 1276 2 1298 -5z m4255 5 l367 0 0 -690 0 -690 -872 2 -873 3 -2 676 c-2 553 0 679 10 688 13 10 733 22 922 14 44 -1 245 -3 448 -3z m4674 0 l343 0 0 -690 0 -690 -871 2 -870 3 0 679 c0 373 4 683 8 687 9 9 788 18 957 12 49 -2 244 -3 433 -3z m-4198 -3456 c9 -9 12 -1327 3 -1342 -11 -16 -1700 -18 -1716 -2 -15 15 -20 1240 -5 1302 l11 47 101 3 c183 5 1600 -2 1606 -8z"/>
    <path d="M5270 15570 c-28 -36 -36 -40 -76 -40 -38 0 -44 -3 -50 -24 -9 -39 3 -49 52 -42 75 10 72 19 66 -204 -5 -214 -2 -230 44 -230 14 0 25 8 29 20 7 22 5 514 -2 543 -7 28 -29 20 -63 -23z"/>
    <path d="M6798 15602 c-9 -4 -40 -38 -69 -77 -29 -38 -73 -95 -98 -126 -79 -98 -83 -103 -98 -138 -25 -58 -19 -61 131 -61 74 0 137 -3 139 -7 3 -5 1 -37 -4 -73 -11 -78 2 -101 48 -84 30 10 30 12 22 109 l-4 50 58 1 c64 0 79 9 71 41 -5 19 -14 22 -68 25 -58 3 -61 4 -59 28 4 67 5 301 2 304 -9 10 -55 14 -71 8z m4 -224 l0 -113 -96 -3 c-106 -3 -117 5 -70 49 14 13 53 64 86 112 39 57 64 85 71 78 5 -5 9 -60 9 -123z"/>
    <path d="M8260 15600 c-57 -10 -98 -41 -137 -105 -38 -60 -38 -60 -38 -175 l0 -115 40 -62 c51 -80 91 -103 178 -103 56 0 71 4 113 33 35 23 57 48 77 86 24 49 27 65 27 160 0 126 -23 188 -86 238 -57 45 -101 55 -174 43z m100 -73 c13 -7 38 -32 55 -57 29 -43 30 -50 30 -150 0 -100 -1 -107 -30 -150 -38 -56 -68 -72 -123 -67 -50 5 -84 32 -115 92 -16 31 -21 58 -21 125 1 107 29 173 89 208 26 15 84 15 115 -1z"/>
    <path d="M10592 12660 c-52 -28 -71 -49 -102 -116 -26 -53 -30 -73 -30 -147 0 -125 43 -215 126 -261 105 -59 224 -16 285 102 21 41 24 60 24 157 0 117 -15 165 -68 223 -56 60 -165 80 -235 42z m165 -68 c55 -51 67 -86 67 -197 0 -86 -3 -106 -22 -140 -66 -116 -189 -109 -245 14 -30 66 -29 187 2 258 41 93 134 123 198 65z"/>
    <path d="M11944 12662 c-57 -32 -72 -47 -84 -90 -17 -53 -1 -112 35 -136 21 -14 24 -20 15 -36 -6 -11 -15 -20 -20 -20 -15 0 -47 -36 -56 -62 -34 -109 62 -208 205 -208 98 0 200 67 202 133 3 81 -13 121 -56 137 -37 14 -41 31 -13 54 34 28 48 57 48 101 0 59 -20 87 -92 125 -47 25 -140 26 -184 2z m161 -62 c61 -38 65 -95 9 -139 -20 -16 -41 -21 -84 -21 -53 0 -61 3 -84 31 -41 48 -32 104 22 133 38 21 99 20 137 -4z m15 -241 c19 -12 38 -27 42 -33 13 -19 9 -81 -7 -102 -37 -53 -141 -70 -201 -33 -42 25 -54 47 -54 93 0 28 7 40 37 65 32 26 46 31 93 31 38 0 66 -6 90 -21z"/>
    <path d="M12410 12653 c-48 -19 -90 -92 -90 -155 2 -119 122 -195 205 -130 38 30 65 85 65 132 0 41 -29 107 -59 134 -20 19 -94 30 -121 19z m95 -77 c23 -42 17 -136 -10 -166 -48 -53 -105 -4 -105 90 0 109 72 157 115 76z"/>
    <path d="M4418 12588 c-13 -11 -15 -24 -7 -83 13 -100 14 -99 -84 -92 -92 6 -110 1 -105 -34 3 -23 6 -24 84 -25 44 0 88 -3 98 -7 18 -7 18 -21 0 -135 -4 -27 -1 -34 19 -43 17 -8 30 -8 44 -1 18 10 18 17 10 91 -6 45 -7 84 -3 88 3 4 49 5 101 4 l95 -2 0 30 c0 16 -6 31 -12 34 -7 3 -50 2 -95 -1 -98 -6 -99 -5 -86 98 9 63 8 72 -8 81 -23 12 -32 11 -51 -3z"/>
    <path d="M9091 12591 c-12 -8 -13 -23 -4 -88 5 -43 8 -82 5 -87 -3 -5 -41 -6 -86 -3 -94 6 -115 -1 -108 -38 5 -26 5 -26 93 -24 49 2 93 -1 98 -7 5 -5 5 -30 1 -59 -16 -92 -13 -114 16 -121 43 -11 53 10 44 96 -4 41 -4 79 1 84 4 5 50 9 101 10 93 1 93 1 96 28 4 33 -7 36 -114 30 -45 -3 -83 -1 -86 4 -3 5 -2 43 2 84 5 47 4 80 -2 88 -12 14 -37 15 -57 3z"/>
    <path d="M11205 12536 c-27 -19 -12 -58 33 -90 21 -14 50 -39 65 -54 l26 -27 -69 -55 c-71 -56 -82 -77 -54 -104 21 -21 41 -10 99 59 26 30 56 55 66 55 11 0 19 -3 19 -7 1 -5 22 -32 49 -60 54 -59 94 -71 107 -31 5 17 -1 28 -32 52 -21 17 -55 45 -74 63 l-35 31 44 39 c83 70 102 93 99 110 -2 11 -14 19 -32 21 -23 3 -35 -4 -59 -34 -63 -76 -84 -95 -98 -89 -8 4 -34 31 -58 61 -53 66 -72 78 -96 60z"/>
    <path d="M4374 9705 c-4 -9 -4 -50 -1 -90 5 -54 3 -75 -6 -78 -6 -2 -49 -2 -94 1 -70 4 -83 2 -89 -12 -14 -35 12 -45 102 -39 68 5 84 3 85 -8 1 -8 2 -52 3 -99 l1 -85 30 0 30 0 0 85 c1 47 5 91 9 99 7 10 26 12 84 8 78 -6 112 3 112 28 0 21 -42 29 -114 22 -86 -8 -90 -4 -91 95 l0 83 -28 3 c-18 2 -29 -2 -33 -13z"/>
    <path d="M9023 9704 c-3 -8 -3 -48 1 -89 5 -55 4 -74 -6 -78 -7 -2 -50 -2 -95 1 -70 4 -83 2 -89 -12 -14 -35 12 -45 102 -39 68 5 84 3 86 -8 1 -8 2 -52 2 -99 l1 -85 30 0 30 0 1 81 c1 119 0 118 91 111 79 -6 113 3 113 28 0 21 -42 29 -114 22 -87 -8 -91 -5 -87 97 l2 86 -31 0 c-19 0 -33 -6 -37 -16z"/>
    <path d="M1232 12668 c-7 -7 -12 -18 -12 -25 0 -17 -53 -43 -89 -43 -35 0 -45 -12 -37 -46 6 -22 10 -24 64 -22 l57 3 -4 -213 -3 -213 38 3 39 3 0 282 c0 279 0 283 -20 283 -12 0 -26 -5 -33 -12z"/>
    <path d="M2349 12655 c-84 -55 -106 -145 -49 -201 36 -35 38 -61 6 -74 -31 -11 -66 -69 -66 -108 0 -86 103 -162 219 -162 127 1 228 94 204 188 -8 35 -43 82 -60 82 -7 0 -17 9 -23 19 -8 16 -5 23 13 38 55 43 64 121 21 173 -61 71 -191 94 -265 45z m196 -65 c36 -34 35 -90 -2 -125 -37 -34 -126 -36 -167 -4 -56 44 -50 109 12 144 40 23 125 15 157 -15z m-6 -227 c38 -22 64 -73 55 -108 -10 -42 -78 -85 -133 -85 -58 0 -121 35 -134 73 -15 46 -1 93 36 116 41 27 132 28 176 4z"/>
    <path d="M2791 12636 c-42 -31 -51 -44 -51 -74 0 -49 61 -31 74 23 11 42 71 42 82 -1 9 -36 1 -49 -60 -89 -68 -45 -96 -79 -96 -115 l0 -27 106 -7 c114 -7 147 1 122 31 -10 12 -26 14 -79 9 -74 -8 -93 2 -63 35 9 10 21 19 27 19 24 0 106 72 112 99 13 59 -29 108 -102 118 -30 3 -45 -1 -72 -21z"/>
    <path d="M1628 12539 c-32 -18 -19 -46 47 -104 36 -32 65 -63 65 -69 0 -6 -29 -34 -65 -61 -70 -54 -82 -85 -43 -106 20 -11 27 -6 82 55 60 65 87 79 103 52 11 -19 86 -101 100 -109 18 -11 53 10 53 32 0 10 -17 31 -37 46 -48 35 -103 87 -103 96 0 4 32 33 70 64 53 43 70 63 68 79 -2 15 -11 22 -33 24 -26 2 -37 -6 -79 -58 -28 -33 -53 -61 -58 -61 -4 -1 -12 -2 -16 -3 -5 -1 -34 29 -66 67 -31 37 -60 67 -64 67 -4 0 -15 -5 -24 -11z"/>
    <path d="M5973 12618 c-27 -35 -78 -101 -113 -148 -35 -47 -66 -87 -70 -90 -18 -16 -41 -64 -38 -83 3 -21 7 -22 138 -22 l135 -1 0 -79 0 -80 40 0 40 0 0 80 0 80 51 -3 c54 -4 82 13 70 43 -4 11 -21 15 -67 15 l-61 0 3 173 3 172 -41 3 c-39 3 -42 1 -90 -60z m58 -160 c-1 -68 -4 -124 -6 -126 -2 -2 -43 -4 -91 -4 -104 -2 -113 8 -64 63 17 19 54 69 83 112 74 111 83 106 78 -45z"/>
    <path d="M7239 12655 c-58 -38 -79 -71 -79 -125 0 -39 5 -52 30 -76 36 -35 38 -61 6 -74 -31 -11 -66 -69 -66 -108 0 -86 101 -162 214 -162 131 1 233 93 209 188 -8 34 -43 82 -59 82 -6 0 -18 7 -25 16 -11 14 -10 19 13 39 81 70 60 174 -45 225 -59 29 -150 26 -198 -5z m182 -58 c28 -19 35 -30 37 -64 3 -34 -2 -45 -25 -67 -23 -22 -37 -26 -84 -26 -91 0 -146 58 -114 120 31 61 124 79 186 37z m10 -234 c42 -25 64 -76 48 -114 -30 -74 -135 -101 -213 -56 -68 38 -75 126 -13 166 41 27 136 29 178 4z"/>
    <path d="M7694 12626 c-9 -14 -26 -26 -38 -26 -11 0 -28 -5 -36 -10 -21 -13 -3 -28 40 -32 l35 -3 3 -82 c2 -62 0 -83 -10 -84 -7 -1 -20 -2 -28 -3 -8 -2 -23 -3 -32 -4 -20 -2 -25 -31 -5 -33 45 -4 194 -5 205 -1 17 6 15 29 -4 36 -9 3 -27 6 -41 6 l-24 0 2 128 2 127 -26 3 c-19 2 -30 -4 -43 -22z"/>
    <path d="M6502 12538 c-25 -25 -12 -53 53 -107 36 -29 65 -59 64 -65 0 -6 -29 -33 -65 -61 -66 -51 -80 -80 -49 -105 18 -15 28 -8 94 62 29 32 59 58 66 58 8 0 37 -27 65 -59 29 -33 58 -62 66 -65 22 -9 42 3 47 30 3 18 -3 28 -23 41 -39 25 -110 91 -110 102 0 5 27 31 60 58 33 26 62 58 66 71 6 22 -10 52 -28 52 -6 0 -41 -33 -79 -72 l-69 -73 -26 30 c-106 121 -110 125 -132 103z"/>
    <path d="M1758 9811 c-79 -51 -118 -140 -118 -271 0 -67 5 -100 21 -137 66 -156 231 -190 337 -69 77 88 47 243 -58 296 -61 31 -117 27 -175 -15 -63 -44 -75 -34 -45 40 31 76 79 115 141 115 41 0 51 -5 85 -40 41 -42 80 -52 91 -23 9 24 -17 63 -62 95 -35 24 -49 27 -115 27 -54 0 -83 -5 -102 -18z m173 -260 c34 -34 39 -44 39 -85 0 -58 -21 -101 -60 -121 -99 -51 -204 32 -185 146 9 53 68 99 128 99 32 0 46 -7 78 -39z"/>
    <path d="M2265 9705 c-164 -212 -187 -254 -149 -269 9 -3 72 -6 141 -6 l126 0 -7 -72 c-7 -84 0 -101 40 -96 l29 3 0 80 0 80 63 3 c61 3 62 3 62 32 0 29 -1 29 -62 32 l-63 3 4 168 3 167 -45 0 -46 0 -96 -125z m116 23 c2 -48 -3 -233 -6 -237 -6 -6 -157 -9 -172 -3 -21 7 -15 22 28 76 22 28 60 79 85 114 43 60 63 76 65 50z"/>
    <path d="M6326 9802 c-72 -50 -98 -134 -43 -140 22 -3 30 3 45 29 31 60 60 79 114 79 43 0 54 -4 84 -34 43 -43 43 -69 -1 -113 -31 -31 -40 -35 -70 -30 -54 9 -77 -1 -73 -32 3 -24 7 -26 63 -29 85 -4 118 -31 119 -96 1 -43 -3 -51 -34 -77 -28 -24 -44 -29 -86 -29 -46 0 -57 4 -88 34 -23 21 -36 43 -36 58 0 33 -22 50 -57 46 -42 -5 -41 -41 5 -108 66 -97 166 -125 268 -76 27 13 60 38 73 56 45 62 38 162 -14 190 -38 20 -39 40 -5 69 43 36 49 85 20 146 -30 63 -76 85 -172 85 -63 -1 -78 -4 -112 -28z"/>
    <path d="M6809 9805 c-39 -25 -72 -73 -83 -117 -5 -21 -2 -30 13 -38 29 -15 50 -2 68 41 21 55 56 79 110 79 62 0 103 -40 103 -100 0 -49 -32 -85 -127 -145 -116 -74 -187 -163 -181 -228 l3 -32 195 0 195 0 0 30 0 30 -150 0 -150 0 0 25 c0 19 15 35 62 70 34 25 92 67 128 93 100 73 127 145 85 227 -31 62 -85 90 -167 89 -54 0 -75 -5 -104 -24z"/>
    <path d="M11321 9832 c-224 -18 -277 -414 -73 -542 148 -93 322 47 322 260 0 112 -44 207 -118 254 -43 27 -70 33 -131 28z m102 -92 c57 -50 81 -135 66 -237 -16 -112 -67 -173 -146 -173 -43 0 -84 28 -115 78 -20 33 -23 50 -23 142 0 92 3 109 23 142 35 56 68 78 118 78 34 0 51 -7 77 -30z"/>
    <path d="M6496 6395 c-11 -8 -26 -15 -33 -15 -18 0 -72 -57 -84 -88 -12 -30 -12 -124 0 -155 21 -55 110 -117 167 -117 37 0 85 24 119 58 17 17 33 32 38 32 27 1 -19 -125 -64 -172 -33 -35 -40 -38 -90 -38 -57 1 -85 16 -108 59 -16 30 -65 26 -69 -5 -7 -49 91 -114 172 -114 96 0 175 61 205 159 51 169 0 339 -118 391 -51 23 -108 25 -135 5z m132 -74 c52 -38 52 -39 53 -109 1 -63 -6 -77 -61 -115 -84 -59 -205 33 -185 141 9 46 27 72 68 94 46 25 79 22 125 -11z"/>
    <path d="M6990 6391 c-42 -22 -87 -66 -105 -101 -38 -74 -44 -243 -11 -321 34 -81 103 -129 186 -129 110 0 190 80 190 190 0 66 -29 122 -80 156 -34 23 -51 27 -106 26 -61 -1 -69 -4 -105 -37 -32 -29 -59 -44 -59 -32 1 13 32 102 44 126 20 38 82 81 118 81 41 0 91 -28 110 -61 13 -22 24 -29 48 -29 35 0 39 17 13 58 -52 80 -165 114 -243 73z m136 -251 c23 -15 37 -35 49 -69 15 -45 14 -50 -5 -94 -27 -60 -52 -77 -115 -77 -45 0 -55 4 -83 33 -31 32 -52 81 -52 120 0 10 20 38 45 62 38 39 50 45 86 45 24 0 55 -8 75 -20z"/>
    <path d="M4460 4695 c-9 -11 -10 -25 -4 -48 8 -25 16 -33 37 -35 16 -2 35 2 43 9 19 16 18 75 -2 83 -28 11 -61 6 -74 -9z"/>
    <path d="M5805 4704 c-10 -4 -11 -534 -1 -560 7 -17 38 -18 54 -2 9 9 12 86 12 284 l0 272 -22 6 c-25 6 -28 6 -43 0z"/>
    <path d="M6553 4698 c-6 -8 -7 -93 -3 -218 4 -113 4 -208 1 -212 -7 -8 -81 85 -81 101 0 5 -28 52 -62 103 -34 51 -81 123 -106 161 -44 66 -45 67 -88 67 l-44 0 0 -247 c0 -137 -3 -257 -6 -269 -6 -22 18 -54 39 -54 41 1 41 4 33 419 -1 24 4 46 10 48 5 2 21 -15 35 -38 13 -23 32 -53 41 -68 10 -14 21 -33 25 -42 5 -8 51 -79 103 -157 93 -141 116 -163 155 -148 13 5 15 45 15 280 0 240 -2 275 -16 280 -24 9 -41 7 -51 -6z"/>
    <path d="M7930 4704 c-14 -4 -15 -40 -13 -275 1 -149 5 -274 8 -280 10 -15 37 -10 61 12 l22 20 33 -20 c40 -24 107 -27 147 -7 168 87 116 386 -67 386 -42 0 -91 -17 -91 -32 0 -4 -9 -8 -20 -8 -27 0 -32 30 -21 115 8 59 6 72 -7 83 -16 12 -24 13 -52 6z m245 -249 c26 -19 35 -35 41 -70 11 -77 -3 -131 -40 -160 -52 -40 -84 -41 -132 -7 -80 58 -83 172 -6 240 30 27 43 32 70 28 19 -3 49 -17 67 -31z"/>
    <path d="M9792 4688 c-35 -43 -52 -58 -74 -62 -76 -15 -79 -17 -76 -34 3 -14 15 -17 63 -17 l60 0 2 -205 c1 -112 4 -212 6 -222 6 -21 40 -24 55 -5 12 14 19 538 7 556 -10 17 -23 13 -43 -11z"/>
    <path d="M3052 4423 l3 -278 120 -3 c138 -3 187 7 240 50 67 56 87 101 93 203 2 51 -1 108 -7 132 -14 52 -91 139 -131 148 -16 4 -32 11 -35 16 -4 5 -69 9 -146 9 l-139 0 2 -277z m288 197 c23 -12 52 -39 67 -63 23 -35 28 -55 31 -126 6 -117 -22 -172 -108 -216 -44 -22 -194 -33 -205 -15 -5 9 -11 386 -6 433 1 4 42 7 91 7 71 0 99 -4 130 -20z"/>
    <path d="M10183 4677 c-6 -13 -29 -45 -52 -71 -23 -26 -41 -50 -41 -54 0 -4 -10 -18 -23 -32 -56 -61 -127 -165 -127 -186 0 -31 22 -36 148 -33 59 2 113 -1 121 -5 10 -7 12 -23 7 -68 -7 -66 4 -98 34 -98 28 0 35 18 35 95 l0 70 57 3 c55 3 74 16 59 40 -3 6 -31 12 -61 14 l-55 3 -1 170 0 170 -45 3 c-39 3 -47 0 -56 -21z m35 -194 l-3 -128 -92 -3 c-111 -3 -117 5 -52 83 23 28 53 68 67 90 29 47 62 85 74 85 5 0 7 -57 6 -127z"/>
    <path d="M10593 4677 c-207 -140 -133 -537 100 -537 86 0 154 46 196 133 30 62 30 234 1 292 -24 46 -65 93 -102 118 -41 26 -153 23 -195 -6z m174 -57 c53 -32 78 -98 77 -205 -1 -110 -26 -165 -89 -201 -50 -29 -58 -29 -112 -2 -68 34 -93 90 -93 210 1 106 23 164 75 198 39 26 101 25 142 0z"/>
    <path d="M4483 4539 c-23 -8 -23 -11 -23 -197 0 -193 4 -212 41 -212 9 0 20 7 23 16 3 9 6 98 6 199 0 195 -4 211 -47 194z"/>
    <path d="M4676 4542 c-8 -13 -10 -388 -2 -401 10 -15 32 -14 50 4 12 13 14 36 9 140 l-6 124 42 42 c36 37 45 41 74 35 65 -13 70 -28 71 -192 1 -124 4 -148 17 -157 9 -6 24 -7 33 -4 13 5 16 24 16 117 0 60 5 130 12 155 11 39 19 49 56 67 40 21 45 21 70 6 48 -29 54 -51 48 -187 -5 -129 1 -161 32 -161 37 0 42 20 42 166 0 128 -2 147 -21 179 -12 20 -34 42 -50 50 -52 28 -139 14 -166 -25 -19 -27 -29 -25 -70 10 -42 37 -101 41 -151 10 l-34 -21 -23 26 c-25 26 -40 31 -49 17z"/>
    <path d="M6758 4539 c-16 -9 -18 -26 -18 -132 0 -139 10 -186 48 -228 44 -48 150 -52 192 -7 l19 21 10 -26 c8 -20 18 -27 36 -27 14 0 25 3 25 8 7 104 5 380 -2 390 -13 15 -44 16 -54 1 -4 -7 -6 -67 -5 -135 2 -137 -7 -166 -59 -198 -37 -21 -62 -20 -92 3 -38 30 -48 81 -41 205 6 99 4 110 -12 122 -22 16 -25 17 -47 3z"/>
    <path d="M7226 4542 c-8 -13 -9 -389 -2 -401 4 -6 15 -11 25 -11 37 0 42 22 35 154 l-7 126 42 40 c48 47 78 51 118 16 l28 -24 -3 -146 -3 -146 26 -12 c43 -19 54 5 47 107 -3 53 0 106 9 145 12 54 17 62 51 80 51 27 64 25 100 -10 l30 -31 -2 -132 c-3 -162 -4 -154 20 -162 43 -14 50 7 50 161 0 128 -2 147 -21 179 -12 20 -34 42 -50 50 -52 28 -139 14 -166 -25 -19 -27 -29 -25 -70 10 -42 37 -101 41 -151 10 l-34 -21 -23 26 c-25 26 -40 31 -49 17z"/>
    <path d="M8841 4540 c-9 -5 -14 -60 -16 -198 -3 -159 -2 -192 11 -203 11 -9 21 -9 39 -1 24 11 24 12 23 143 l-2 132 39 34 c26 23 48 33 70 33 42 0 61 21 45 49 -6 12 -20 21 -31 21 -25 0 -71 -23 -88 -44 -17 -21 -28 -20 -35 2 -8 23 -40 42 -55 32z"/>
    <path d="M3700 4529 c-70 -28 -110 -100 -110 -196 1 -57 5 -74 28 -107 15 -22 39 -48 53 -59 30 -22 101 -33 153 -23 56 11 126 87 112 122 -10 26 -40 14 -84 -31 -50 -52 -74 -56 -132 -23 -36 21 -70 71 -70 103 0 17 -9 16 145 15 133 -1 155 3 155 31 0 29 -31 101 -54 128 -41 46 -133 65 -196 40z m133 -64 c33 -21 54 -62 39 -77 -10 -10 -173 -19 -199 -10 -32 10 -1 67 52 96 33 18 73 15 108 -9z"/>
    <path d="M4135 4526 c-16 -8 -46 -30 -65 -50 l-35 -37 0 -99 0 -99 35 -37 c19 -20 49 -43 67 -50 42 -18 116 -18 151 0 40 21 82 72 82 101 0 42 -42 33 -91 -20 -50 -54 -72 -56 -131 -12 -42 32 -43 34 -46 97 -4 88 2 106 50 140 56 41 78 38 127 -15 48 -53 91 -62 91 -21 0 26 -50 86 -87 105 -29 15 -111 13 -148 -3z"/>
    <path d="M5441 4529 c-38 -15 -81 -69 -81 -101 0 -23 4 -28 25 -28 17 0 29 8 37 25 13 29 66 65 96 65 11 0 35 -12 52 -26 25 -21 30 -33 28 -58 -3 -31 -3 -31 -68 -34 -96 -4 -160 -38 -185 -97 -11 -25 -10 -35 6 -67 23 -44 63 -68 117 -68 44 0 102 18 102 31 0 17 25 9 38 -12 8 -13 21 -19 35 -17 22 3 22 4 18 168 -4 182 -6 189 -70 216 -38 16 -114 17 -150 3z m157 -226 c4 -44 -12 -69 -58 -93 -50 -25 -71 -25 -104 1 -51 40 -20 99 54 99 19 0 44 7 55 16 29 22 50 13 53 -23z"/>
    <path d="M8459 4511 c-59 -37 -83 -85 -83 -171 -1 -85 23 -133 83 -171 51 -33 119 -39 174 -15 43 18 89 72 85 99 -5 37 -35 31 -84 -17 -55 -55 -84 -59 -142 -16 -30 22 -43 39 -48 65 -3 20 -4 39 0 42 3 3 62 5 132 4 83 -2 130 2 139 9 24 20 -4 119 -46 161 -49 49 -142 53 -210 10z m159 -51 c30 -21 42 -37 42 -55 0 -14 -3 -25 -7 -26 -48 -3 -181 -4 -190 -1 -7 2 -13 15 -13 28 0 28 70 84 105 84 12 0 41 -14 63 -30z"/>
    <path d="M9312 4493 c-20 -4 -23 -9 -20 -46 l3 -42 45 0 45 0 3 41 c3 36 0 42 -20 48 -13 3 -25 5 -28 5 -3 -1 -15 -4 -28 -6z"/>
    <path d="M9302 4221 c-8 -5 -12 -22 -10 -42 2 -26 9 -36 31 -43 38 -14 61 2 65 44 4 36 -9 50 -48 50 -14 0 -31 -4 -38 -9z"/>
    <path d="M4360 3323 c-14 -3 -72 -95 -97 -153 -21 -48 -43 -137 -43 -171 1 -48 34 -168 59 -209 11 -19 30 -52 41 -72 18 -33 25 -38 55 -38 28 0 35 4 35 20 0 10 -6 23 -14 27 -8 4 -26 30 -40 57 -14 27 -30 54 -35 60 -30 38 -27 250 4 301 7 11 16 31 20 45 4 14 23 43 41 64 38 44 42 61 18 70 -16 6 -20 6 -44 -1z"/>
    <path d="M5834 3316 c-3 -7 12 -41 34 -74 38 -58 47 -78 71 -153 13 -43 15 -149 2 -181 -5 -13 -12 -35 -15 -49 -3 -14 -26 -56 -51 -93 -25 -37 -43 -72 -39 -77 9 -15 60 -10 76 9 24 28 65 105 87 163 41 107 17 292 -48 375 -11 15 -21 33 -21 40 0 17 -48 54 -72 54 -10 0 -21 -6 -24 -14z"/>
    <path d="M7418 3311 c-22 -18 -59 -83 -102 -180 -6 -13 -11 -76 -11 -140 0 -116 0 -117 40 -194 49 -97 68 -117 105 -117 42 0 46 16 12 54 -16 19 -42 60 -58 92 -23 50 -29 75 -32 159 -4 98 -3 102 33 179 20 43 48 90 61 105 13 14 23 33 22 41 -5 23 -41 23 -70 1z"/>
    <path d="M8562 3317 c-8 -10 -2 -27 26 -68 109 -160 109 -349 0 -504 -34 -48 -31 -65 12 -65 22 0 34 9 58 48 17 26 34 59 37 75 4 15 11 29 15 32 4 3 16 39 25 81 16 67 17 83 5 142 -7 37 -21 84 -31 104 -11 21 -19 42 -19 48 0 13 -59 100 -75 112 -16 12 -42 9 -53 -5z"/>
    <path d="M4605 3301 c-8 -27 -57 -61 -87 -61 -13 0 -33 -7 -44 -15 -18 -14 -18 -16 -1 -29 11 -9 33 -12 60 -9 33 4 44 1 52 -14 6 -11 8 -86 4 -203 -3 -102 -2 -193 3 -202 10 -20 53 -24 63 -7 4 5 7 133 7 282 l0 272 -25 3 c-18 2 -27 -2 -32 -17z"/>
    <path d="M5005 3278 c-16 -24 -44 -59 -61 -78 -17 -19 -48 -60 -69 -90 -21 -30 -49 -66 -62 -80 -26 -27 -37 -58 -31 -87 3 -16 17 -19 133 -23 l130 -5 0 -72 c0 -78 9 -97 46 -91 23 3 24 7 27 86 l3 82 55 0 c41 0 56 4 61 16 8 23 -14 34 -69 34 -39 0 -48 3 -49 18 0 9 -1 87 -2 172 l-2 155 -40 3 c-37 2 -42 -1 -70 -40z m46 -70 c3 -25 -3 -233 -7 -237 -2 -3 -150 -4 -186 -2 -16 2 -7 20 28 63 20 23 59 76 86 116 45 66 76 90 79 60z"/>
    <path d="M5419 3300 c-42 -22 -81 -71 -106 -131 -25 -62 -25 -196 2 -267 71 -193 310 -200 391 -12 27 63 27 237 0 295 -54 117 -185 169 -287 115z m174 -66 c14 -11 35 -41 47 -69 19 -43 22 -63 18 -145 -3 -81 -8 -101 -30 -136 -50 -78 -129 -92 -198 -35 -78 64 -88 273 -17 363 39 50 128 60 180 22z"/>
    <path d="M7676 3302 c-43 -25 -58 -42 -85 -96 -41 -84 -16 -178 63 -231 69 -47 190 -30 229 32 13 20 27 5 27 -28 0 -63 -84 -169 -134 -169 -45 0 -91 21 -119 55 -54 67 -104 27 -51 -42 51 -68 150 -91 229 -54 95 44 129 112 133 266 3 94 0 117 -17 156 -23 52 -60 92 -104 114 -41 20 -134 19 -171 -3z m156 -59 c35 -21 68 -80 67 -120 -1 -65 -62 -121 -132 -122 -45 -1 -79 19 -107 64 -25 41 -25 75 0 125 34 66 109 89 172 53z"/>
    <path d="M8199 3300 c-20 -11 -54 -43 -75 -72 l-38 -52 -4 -126 c-4 -111 -2 -132 16 -171 81 -177 311 -167 366 16 14 44 14 55 0 101 -37 128 -181 175 -283 93 -23 -18 -44 -30 -47 -27 -9 10 23 106 46 138 27 38 69 60 112 60 35 0 62 -15 104 -57 30 -30 58 -27 62 8 3 29 -27 64 -77 92 -44 23 -135 22 -182 -3z m140 -242 c20 -12 37 -22 39 -24 2 -1 9 -22 16 -46 11 -36 11 -51 0 -90 -12 -40 -20 -49 -58 -68 -61 -29 -105 -20 -151 31 -29 33 -35 46 -35 85 0 55 24 90 78 116 49 23 68 22 111 -4z"/>
    <path d="M6618 3123 c-5 -7 -8 -20 -6 -30 3 -16 20 -18 196 -21 172 -2 193 -1 199 14 3 9 2 24 -3 32 -8 13 -40 15 -193 16 -131 1 -186 -2 -193 -11z"/>
    <path d="M6617 2963 c-4 -3 -7 -15 -7 -25 0 -17 13 -18 199 -18 203 0 216 3 203 38 -3 9 -52 12 -196 12 -106 0 -196 -3 -199 -7z"/>
    <path d="M6200 2943 c-63 -12 -93 -89 -50 -128 l21 -19 -31 -24 c-38 -30 -38 -46 3 -87 32 -32 39 -34 98 -34 81 1 119 24 119 74 0 22 -8 41 -21 54 l-21 20 20 33 c42 69 -35 131 -138 111z m50 -11 c0 -5 9 -19 20 -32 24 -28 26 -53 4 -74 -24 -25 -63 -20 -76 9 -9 20 -8 32 8 65 17 35 44 55 44 32z m34 -168 c45 -44 -25 -105 -80 -69 -28 18 -32 59 -6 74 26 15 69 13 86 -5z"/>
    <path d="M9174 2940 c-41 -13 -59 -36 -73 -92 -15 -65 2 -141 42 -174 38 -32 122 -34 159 -4 34 27 58 80 58 129 0 47 -31 115 -59 130 -29 16 -93 21 -127 11z m91 -55 c21 -20 25 -34 25 -80 0 -79 -21 -115 -67 -115 -75 0 -97 158 -29 205 29 21 43 19 71 -10z"/>
    <path d="M8924 2926 c-4 -9 -23 -19 -45 -22 -51 -8 -52 -32 -1 -36 l37 -3 0 -85 0 -85 -34 -5 c-19 -3 -36 -10 -38 -17 -6 -18 32 -24 122 -21 63 2 80 6 80 18 0 8 -9 16 -20 18 -44 9 -47 20 -44 137 l4 110 -28 3 c-18 2 -29 -2 -33 -12z"/>
  </g>
</svg>