<?xml version="1.0" standalone="no"?>
<!DOCTYPE svg PUBLIC "-//W3C//DTD SVG 20010904//EN"
 "http://www.w3.org/TR/2001/REC-SVG-20010904/DTD/svg10.dtd">
<svg version="1.0" xmlns="http://www.w3.org/2000/svg"
 width="954.000000pt" height="363.000000pt" viewBox="0 0 954.000000 363.000000"
 preserveAspectRatio="xMidYMid meet">
<metadata>
Created by potrace 1.10, written by Peter Selinger 2001-2011
</metadata>
<g transform="translate(0.000000,363.000000) scale(0.100000,-0.100000)"
fill="#000000" stroke="none">
<path d="M232 3378 c-14 -14 -17 -904 -3 -927 7 -10 51 -12 226 -10 220 4 247
0 210 -31 -8 -7 -15 -20 -15 -30 0 -10 -7 -23 -15 -30 -8 -7 -15 -20 -15 -30
0 -10 -7 -23 -15 -30 -8 -7 -15 -17 -15 -22 0 -5 -10 -22 -21 -37 -12 -16 -18
-34 -15 -40 9 -14 36 -14 36 -1 0 6 11 15 25 20 14 5 25 14 25 20 0 5 8 10 18
10 16 0 17 -25 14 -413 -3 -352 -2 -415 11 -425 36 -30 39 2 35 427 -3 389 -2
411 15 411 10 0 20 -7 23 -15 4 -8 13 -15 20 -15 8 0 17 -7 20 -15 8 -19 44
-20 44 -1 0 7 -8 24 -17 37 -33 45 -107 184 -108 202 0 4 1408 7 3130 7 l3130
0 3 -42 c2 -23 -3 -60 -12 -82 -8 -23 -17 -60 -21 -83 -4 -24 -11 -43 -16 -43
-5 0 -9 -9 -9 -20 0 -11 5 -20 11 -20 11 0 79 70 79 83 0 4 6 7 13 7 15 0 31
-46 42 -120 4 -24 11 -51 16 -60 7 -15 20 -59 41 -150 6 -25 14 -49 18 -55 4
-5 11 -31 14 -57 4 -26 11 -50 17 -53 5 -4 9 -18 9 -33 0 -15 6 -38 13 -52 8
-15 17 -48 20 -74 9 -60 43 -112 63 -95 18 15 18 59 0 84 -7 11 -16 41 -20 67
-4 26 -11 50 -17 53 -5 4 -9 18 -9 33 0 15 -6 39 -13 53 -8 14 -17 44 -21 68
-3 23 -10 50 -15 59 -9 17 -22 66 -43 152 -6 25 -14 50 -18 55 -5 6 -11 27
-15 47 -4 21 -13 42 -21 49 -17 14 -18 45 -3 54 5 4 18 0 27 -8 23 -20 78 -31
87 -17 4 6 -32 50 -85 102 -50 50 -88 93 -85 97 4 3 104 6 223 6 l217 0 3 459
c1 328 -1 463 -9 472 -16 19 -7208 21 -7227 2z m889 -463 l0 -427 -422 1
c-232 0 -423 2 -426 4 -5 6 -5 836 1 845 2 4 194 6 425 5 l422 -2 0 -426z
m899 425 c3 0 4 -191 3 -425 l-2 -425 -426 -1 -426 0 0 425 c0 235 1 427 1
429 0 1 767 -1 850 -3z m901 -425 l0 -426 -426 0 -426 0 0 426 c0 234 1 426 1
428 0 1 191 1 425 0 l426 -2 0 -426z m900 0 l0 -426 -426 0 -426 0 0 428 c1
235 1 428 1 428 0 0 191 -1 425 -2 l426 -2 0 -426z m900 0 l0 -426 -426 0
-426 0 0 426 c0 234 1 426 1 428 0 1 191 1 425 0 l426 -2 0 -426z m899 425 c3
0 4 -191 3 -425 l-2 -425 -426 -1 -426 0 0 425 c0 235 1 427 1 429 0 1 767 -1
850 -3z m901 -425 l0 -426 -426 0 -426 0 0 426 c0 234 1 426 1 428 0 1 191 1
425 0 l426 -2 0 -426z m896 421 c5 -5 4 -838 -1 -843 -2 -2 -194 -4 -425 -5
l-422 0 0 429 c1 235 1 428 1 428 250 0 844 -6 847 -9z"/>
<path d="M696 3066 c-9 -14 -29 -32 -45 -41 -33 -16 -49 -51 -32 -68 7 -7 16
-6 29 6 10 9 26 17 35 17 16 0 17 -10 11 -97 -4 -54 -8 -104 -8 -112 -1 -19
28 -36 48 -28 15 6 17 24 14 174 -3 144 -5 168 -19 171 -9 2 -24 -8 -33 -22z"/>
<path d="M1592 3061 c-12 -16 -34 -36 -49 -43 -30 -14 -41 -44 -24 -61 7 -7
16 -6 29 6 10 9 27 17 36 17 16 0 17 -7 12 -57 -13 -129 -12 -165 5 -176 9 -6
24 -7 33 -4 15 6 17 24 14 174 -3 141 -5 168 -18 171 -9 1 -26 -11 -38 -27z"/>
<path d="M2464 3038 c-35 -41 -44 -67 -44 -123 0 -104 64 -170 131 -135 67 36
68 212 0 268 -23 19 -66 14 -87 -10z m80 -87 c8 -61 -2 -128 -20 -135 -29 -11
-44 23 -44 99 0 116 50 144 64 36z"/>
<path d="M3364 3038 c-35 -41 -44 -67 -44 -123 0 -79 41 -145 90 -145 56 0 90
55 90 145 0 66 -14 104 -49 133 -23 19 -66 14 -87 -10z m78 -61 c9 -55 1 -139
-15 -154 -12 -13 -16 -12 -31 2 -22 23 -23 157 -1 179 22 22 42 10 47 -27z"/>
<path d="M4296 3066 c-9 -14 -29 -32 -45 -41 -33 -16 -49 -51 -32 -68 7 -7 16
-6 29 6 10 9 26 17 35 17 16 0 17 -10 11 -97 -4 -54 -8 -104 -8 -112 -1 -19
28 -36 48 -28 15 6 17 24 14 174 -3 144 -5 168 -19 171 -9 2 -24 -8 -33 -22z"/>
<path d="M5164 3038 c-35 -41 -44 -67 -44 -123 0 -79 41 -145 90 -145 56 0 90
55 90 145 0 66 -14 104 -49 133 -23 19 -66 14 -87 -10z m80 -79 c9 -54 -3
-136 -20 -143 -7 -3 -20 2 -29 10 -22 22 -21 156 1 179 22 22 40 5 48 -46z"/>
<path d="M6087 3055 c-15 -19 -35 -35 -43 -35 -21 0 -41 -47 -26 -62 9 -9 16
-7 30 5 10 9 26 17 35 17 16 0 17 -10 11 -97 -4 -54 -8 -104 -8 -112 -1 -19
28 -36 48 -28 15 6 17 24 14 174 -4 188 -10 202 -61 138z"/>
<path d="M6964 3038 c-35 -41 -44 -67 -44 -123 0 -79 41 -145 90 -145 56 0 90
55 90 145 0 66 -14 104 -49 133 -23 19 -66 14 -87 -10z m78 -61 c9 -55 1 -139
-15 -154 -12 -13 -16 -12 -31 2 -22 23 -23 157 -1 179 22 22 42 10 47 -27z"/>
<path d="M303 1254 c-22 -9 -14 -33 13 -40 14 -4 47 -4 72 -1 69 7 77 1 49
-37 -27 -34 -67 -117 -67 -138 0 -7 -7 -33 -15 -57 -17 -47 -8 -71 25 -71 20
0 44 25 37 37 -9 15 12 105 38 159 14 29 25 55 25 59 0 3 11 18 25 33 45 48
32 57 -85 59 -58 1 -111 -1 -117 -3z"/>
<path d="M700 1254 c-13 -4 -15 -27 -12 -147 2 -78 -1 -148 -6 -155 -7 -10
-14 -11 -35 -1 -26 12 -27 16 -27 89 0 69 2 79 22 92 l22 15 -22 12 c-16 9
-22 21 -22 46 0 22 -5 35 -13 35 -16 0 -40 -38 -32 -51 4 -5 -4 -18 -16 -28
l-22 -18 23 -16 c21 -14 22 -20 15 -84 -10 -105 15 -149 75 -126 15 6 36 6 49
1 40 -14 48 3 43 89 -3 69 -1 81 17 101 29 30 59 28 71 -4 6 -15 8 -59 4 -104
-7 -79 -7 -79 19 -85 45 -12 49 -1 43 105 -5 87 -8 102 -31 126 -23 24 -29 26
-75 20 l-51 -7 3 48 c3 49 -5 57 -42 47z"/>
<path d="M1784 1245 c-9 -24 10 -39 41 -31 18 5 25 12 23 24 -4 23 -56 29 -64
7z"/>
<path d="M2013 1244 c-7 -18 14 -35 37 -31 8 1 16 12 18 25 3 18 -1 22 -23 22
-14 0 -28 -7 -32 -16z"/>
<path d="M7105 1244 c-40 -40 -47 -63 -47 -151 0 -129 23 -172 97 -181 41 -4
50 -1 70 20 37 40 47 66 50 134 3 72 -13 130 -47 169 -26 30 -96 35 -123 9z
m89 -45 c26 -20 27 -23 24 -116 -3 -92 -4 -97 -31 -117 l-29 -21 -24 30 c-40
49 -32 205 11 237 15 11 20 10 49 -13z"/>
<path d="M7447 1253 c-15 -4 -17 -12 -11 -56 4 -29 6 -54 6 -57 -2 -201 -3
-207 -45 -191 -26 10 -27 13 -27 90 0 72 2 81 22 92 l21 11 -23 18 c-13 10
-21 24 -18 31 3 8 1 25 -4 39 l-9 25 -19 -23 c-11 -13 -16 -30 -13 -39 4 -9
-1 -21 -12 -29 -17 -13 -17 -15 -1 -33 14 -15 17 -35 14 -104 -2 -60 1 -89 11
-101 15 -18 44 -21 72 -6 13 8 25 7 40 0 36 -20 46 1 41 87 -3 69 -1 81 17
101 29 30 59 28 71 -4 6 -15 8 -61 4 -105 -6 -77 -5 -78 20 -85 44 -11 49 1
43 106 -4 86 -8 100 -31 125 -24 26 -29 27 -77 21 l-52 -7 6 36 c10 58 0 70
-46 58z"/>
<path d="M8534 1245 c-9 -22 9 -37 37 -33 16 2 24 10 24 23 0 26 -52 35 -61
10z"/>
<path d="M8767 1253 c-13 -13 -7 -32 13 -38 25 -8 51 11 43 31 -5 14 -44 19
-56 7z"/>
<path d="M1912 1228 c-7 -7 -12 -22 -12 -35 0 -12 -8 -26 -17 -32 -17 -9 -17
-10 0 -28 13 -15 17 -38 17 -104 0 -105 11 -125 63 -115 44 8 47 20 11 38 -25
12 -27 17 -28 92 -1 68 1 80 16 84 22 5 24 28 4 35 -8 3 -16 20 -18 38 -3 36
-17 46 -36 27z"/>
<path d="M8662 1228 c-7 -7 -12 -22 -12 -34 0 -12 -7 -27 -15 -34 -14 -12 -14
-15 0 -30 11 -12 15 -39 15 -99 0 -45 5 -91 10 -102 13 -22 48 -25 76 -5 18
14 18 15 -8 25 -26 10 -28 15 -28 68 0 32 -3 68 -6 80 -4 16 0 23 15 28 24 7
28 30 7 38 -8 3 -16 20 -18 38 -3 36 -17 46 -36 27z"/>
<path d="M1067 1163 c-7 -13 -3 -331 5 -338 3 -4 16 -4 28 0 20 6 22 12 16 51
l-6 45 48 -7 c48 -6 49 -5 85 37 54 63 51 133 -10 198 -18 20 -28 22 -65 17
-24 -3 -47 -6 -53 -7 -5 -1 -17 2 -26 5 -10 4 -19 4 -22 -1z m155 -89 c18 -65
-23 -135 -69 -120 -21 7 -43 50 -43 83 0 33 26 81 47 86 27 6 56 -16 65 -49z"/>
<path d="M1341 1135 c-27 -31 -31 -43 -31 -95 0 -52 4 -64 31 -95 27 -30 37
-35 75 -35 105 0 151 144 73 228 -25 27 -37 32 -73 32 -38 0 -48 -5 -75 -35z
m122 -35 c10 -12 17 -37 17 -60 0 -50 -24 -80 -65 -80 -23 0 -35 7 -48 29 -21
36 -22 63 -2 101 12 24 22 30 48 30 20 0 39 -8 50 -20z"/>
<path d="M1586 1149 c-14 -11 -26 -29 -26 -39 0 -32 22 -70 41 -70 10 0 37
-10 59 -21 31 -16 40 -27 38 -43 -4 -27 -58 -35 -81 -12 -16 16 -48 21 -60 10
-3 -4 4 -19 15 -35 19 -26 28 -29 74 -29 54 0 70 9 100 55 28 44 -15 88 -101
104 -24 5 -30 11 -30 31 0 22 4 25 33 23 18 0 41 -8 50 -16 19 -16 42 -12 42
7 0 7 -10 22 -23 34 -31 29 -95 30 -131 1z"/>
<path d="M2031 1161 c-8 -5 -11 -43 -9 -127 3 -111 4 -119 23 -119 19 0 20 7
21 122 0 122 -5 142 -35 124z"/>
<path d="M2165 1162 c-36 -25 -55 -67 -55 -122 0 -44 5 -64 22 -86 31 -40 37
-44 85 -44 36 0 46 5 77 42 54 62 50 124 -12 191 -20 21 -35 27 -66 27 -23 0
-46 -4 -51 -8z m93 -60 c6 -9 12 -37 12 -62 0 -80 -49 -112 -95 -63 -22 24
-26 35 -22 71 8 71 67 102 105 54z"/>
<path d="M2410 1163 l-45 -4 -1 -119 c-1 -110 0 -120 18 -126 33 -10 43 12 40
81 -5 91 3 122 35 128 49 9 52 2 55 -106 3 -102 3 -102 29 -105 15 -2 28 3 31
10 3 7 3 54 0 104 -4 80 -8 95 -29 118 -25 27 -28 27 -133 19z"/>
<path d="M7819 1168 c-6 -12 -3 -340 3 -344 5 -3 17 -2 29 1 17 6 20 14 17 48
l-3 42 46 -3 c44 -3 49 0 83 39 53 63 50 134 -8 196 -24 26 -87 31 -108 10
-10 -12 -15 -12 -26 0 -12 11 -30 17 -33 11z m152 -91 c20 -77 -19 -142 -73
-122 -15 6 -38 60 -38 89 0 27 28 74 47 78 36 8 53 -4 64 -45z"/>
<path d="M8091 1135 c-27 -31 -31 -43 -31 -95 0 -52 4 -64 31 -95 27 -30 37
-35 76 -35 37 0 49 5 73 32 52 56 51 140 0 196 -24 27 -36 32 -73 32 -39 0
-49 -5 -76 -35z m122 -35 c10 -12 17 -37 17 -60 0 -50 -24 -80 -65 -80 -50 0
-79 74 -50 129 12 25 22 31 48 31 20 0 39 -8 50 -20z"/>
<path d="M8336 1149 c-14 -11 -26 -29 -26 -39 0 -32 22 -70 41 -70 10 0 37
-10 59 -21 31 -16 40 -27 38 -43 -4 -27 -58 -35 -81 -12 -17 18 -53 21 -62 7
-3 -5 5 -21 18 -35 20 -21 33 -26 75 -26 45 0 53 4 81 35 36 41 34 37 20 68
-11 24 -52 46 -104 56 -24 5 -30 11 -30 31 0 31 24 37 67 16 58 -30 80 -10 35
32 -31 29 -95 30 -131 1z"/>
<path d="M8781 1161 c-8 -5 -11 -43 -9 -127 3 -111 4 -119 23 -119 19 0 20 7
21 122 0 122 -5 142 -35 124z"/>
<path d="M8915 1162 c-36 -25 -55 -67 -55 -122 0 -44 5 -64 22 -86 31 -40 37
-44 85 -44 36 0 46 5 77 42 30 35 36 49 36 88 0 39 -6 53 -36 88 -31 37 -41
42 -77 42 -23 0 -47 -4 -52 -8z m93 -60 c6 -9 12 -37 12 -62 0 -53 -14 -76
-50 -85 -21 -5 -30 0 -49 26 -57 77 27 196 87 121z"/>
<path d="M9160 1163 l-45 -4 -1 -119 c-2 -111 0 -120 18 -126 33 -10 41 11 42
103 1 85 2 88 28 100 49 24 57 11 60 -100 3 -102 3 -102 29 -105 15 -2 28 3
31 10 3 7 3 54 0 104 -4 80 -8 95 -29 118 -25 27 -28 27 -133 19z"/>
<path d="M1790 1041 c0 -123 4 -133 42 -123 14 3 16 19 15 120 l-2 117 -27 3
-28 3 0 -120z"/>
<path d="M8540 1041 c0 -66 4 -122 8 -125 5 -3 18 -2 30 1 21 5 22 10 20 122
l-3 116 -27 3 -28 3 0 -120z"/>
<path d="M365 683 c-14 -21 -25 -44 -25 -53 0 -8 -7 -24 -15 -34 -21 -27 -20
-147 1 -194 55 -126 65 -137 103 -113 12 8 10 15 -10 43 -14 18 -34 61 -44 96
-18 60 -18 66 -2 134 10 39 27 83 38 100 22 30 20 58 -5 58 -9 0 -27 -17 -41
-37z"/>
<path d="M477 713 c-3 -5 -6 -79 -8 -165 -4 -167 2 -190 38 -170 16 9 18 22
14 107 -3 90 -2 97 15 93 13 -2 20 -13 22 -33 1 -17 7 -39 12 -50 5 -11 14
-39 20 -61 18 -73 60 -82 73 -16 18 87 26 115 36 125 6 6 11 26 11 45 0 23 4
32 13 29 9 -3 12 -37 12 -123 0 -112 1 -119 20 -119 19 0 20 7 20 170 0 160
-1 170 -19 170 -11 0 -26 -14 -36 -32 -10 -18 -22 -38 -28 -45 -5 -7 -13 -29
-17 -48 -4 -19 -11 -41 -16 -50 -4 -8 -10 -28 -14 -43 -5 -24 -8 -27 -20 -17
-8 7 -20 31 -26 54 -18 66 -64 166 -83 178 -14 10 -34 10 -39 1z"/>
<path d="M879 692 c-48 -50 -44 -123 7 -136 13 -4 24 -11 24 -16 0 -6 19 -10
43 -10 63 0 100 -43 81 -94 -5 -12 -20 -16 -64 -16 -51 0 -60 3 -74 25 -18 27
-66 35 -66 11 0 -7 17 -30 37 -50 35 -33 42 -36 99 -36 61 0 63 1 98 42 42 49
44 63 13 109 -16 25 -31 35 -54 37 -17 2 -37 10 -43 18 -7 8 -23 14 -36 14
-21 0 -54 23 -54 39 0 22 29 40 69 43 37 2 47 -2 70 -28 31 -36 66 -36 55 -1
-3 12 -18 34 -33 49 -23 24 -34 27 -86 27 -52 0 -63 -3 -86 -27z"/>
<path d="M1161 711 c-20 -13 -21 -319 0 -332 8 -5 48 -9 90 -9 70 0 77 2 100
28 14 15 31 39 38 53 13 27 7 47 -31 100 -9 14 -8 21 6 35 24 23 16 72 -17
108 -22 24 -31 26 -98 26 -41 0 -80 -4 -88 -9z m154 -57 c20 -26 18 -51 -4
-75 -15 -16 -29 -20 -67 -17 l-49 3 -3 44 c-5 65 -1 69 58 66 36 -2 55 -8 65
-21z m16 -145 c13 -20 11 -52 -3 -71 -9 -11 -33 -17 -73 -20 l-60 -3 -3 44
c-5 69 -1 74 69 69 38 -3 64 -10 70 -19z"/>
<path d="M1434 706 c-5 -14 0 -23 33 -60 7 -8 17 -44 24 -82 9 -54 9 -82 -1
-133 -13 -64 -19 -77 -52 -109 -21 -20 -7 -42 28 -42 17 0 25 7 30 25 3 14 10
25 14 25 5 0 11 14 15 31 4 17 13 42 21 57 18 34 18 129 0 163 -7 14 -16 38
-20 53 -16 63 -77 111 -92 72z"/>
<path d="M7111 673 c-13 -27 -30 -60 -38 -75 -18 -36 -17 -152 3 -196 55 -126
65 -137 103 -113 11 7 9 15 -12 42 -14 19 -33 64 -43 102 -17 64 -17 70 0 134
10 37 27 80 38 95 22 32 18 58 -9 58 -12 0 -27 -17 -42 -47z"/>
<path d="M7223 708 c-5 -8 -7 -82 -3 -173 l5 -160 99 -3 c103 -3 129 5 106 33
-9 11 -32 15 -86 15 l-74 0 7 141 c5 115 4 142 -8 150 -20 12 -35 11 -46 -3z"/>
<path d="M7510 697 c-42 -38 -56 -73 -40 -102 19 -35 74 -65 119 -65 60 0 104
-63 69 -98 -7 -7 -35 -12 -63 -12 -44 0 -54 4 -77 30 -29 33 -55 39 -65 14 -4
-11 7 -29 36 -55 39 -36 46 -39 102 -39 54 0 64 3 90 30 43 43 48 88 14 128
-15 18 -36 32 -49 32 -12 0 -31 7 -42 15 -10 8 -29 15 -40 15 -33 0 -49 25
-36 55 7 14 20 25 29 26 62 4 73 0 98 -29 27 -33 55 -34 55 -2 0 10 -14 32
-31 49 -27 27 -37 31 -87 31 -45 -1 -62 -6 -82 -23z"/>
<path d="M7786 711 c-17 -7 -18 -20 -18 -166 1 -185 -7 -173 113 -174 69 -1
77 1 98 25 35 40 45 79 31 114 -7 17 -16 30 -21 30 -14 0 -11 28 6 54 20 29
12 63 -21 99 -23 25 -31 27 -97 26 -40 0 -80 -4 -91 -8z m159 -57 c19 -25 18
-44 -3 -72 -15 -20 -26 -23 -68 -20 l-49 3 -3 44 c-5 65 -1 69 58 66 36 -2 55
-8 65 -21z m5 -144 c23 -23 26 -49 7 -74 -9 -12 -29 -17 -72 -19 l-60 -2 -3
44 c-5 65 0 71 58 71 37 0 55 -5 70 -20z"/>
<path d="M8054 708 c-4 -6 -1 -16 7 -22 49 -38 70 -138 55 -260 -6 -42 -15
-63 -37 -87 -34 -36 -32 -59 5 -59 18 0 31 11 50 44 14 25 26 53 26 63 0 11 5
24 10 29 15 15 16 152 2 166 -7 7 -12 19 -12 28 0 19 -38 92 -54 102 -17 11
-44 9 -52 -4z"/>
</g>
</svg>
