<?xml version="1.0" standalone="no"?>
<!DOCTYPE svg PUBLIC "-//W3C//DTD SVG 20010904//EN"
 "http://www.w3.org/TR/2001/REC-SVG-20010904/DTD/svg10.dtd">
<svg version="1.0" xmlns="http://www.w3.org/2000/svg"
 width="1958.000000pt" height="672.000000pt" viewBox="0 0 1958.000000 672.000000"
 preserveAspectRatio="xMidYMid meet">

<g transform="translate(0.000000,672.000000) scale(0.100000,-0.100000)"
fill="#000000" stroke="none">
<path d="M10887 6100 c-34 -27 -56 -69 -65 -123 -6 -36 -11 -42 -35 -45 -21
-3 -27 -9 -27 -27 0 -25 26 -46 47 -38 8 3 12 -38 12 -159 1 -89 5 -166 10
-171 5 -5 21 -7 37 -5 l29 3 0 168 0 167 48 0 c46 0 47 1 47 30 0 29 -1 30
-50 30 l-49 0 5 33 c13 66 26 82 74 87 42 5 45 7 45 35 0 29 -2 30 -51 33 -39
2 -56 -2 -77 -18z"/>
<path d="M10628 6033 c-33 -64 -49 -124 -63 -238 -15 -126 66 -356 128 -363
34 -4 34 5 -2 76 -50 100 -64 162 -58 271 8 140 40 256 82 291 24 20 18 30
-19 30 -31 0 -36 -4 -68 -67z"/>
<path d="M12395 6050 c-8 -37 8 -60 40 -60 30 0 47 23 43 57 -3 24 -8 28 -40
31 -33 3 -37 1 -43 -28z"/>
<path d="M13480 6075 c0 -3 13 -29 30 -58 87 -154 84 -383 -6 -546 -26 -48
-21 -68 15 -56 13 4 35 33 56 76 83 164 82 360 -3 529 -24 48 -32 55 -60 58
-18 2 -32 1 -32 -3z"/>
<path d="M15748 6027 c-62 -100 -93 -275 -69 -402 6 -33 29 -97 51 -142 34
-72 43 -83 65 -83 30 0 31 9 6 58 -84 166 -88 365 -10 527 22 43 39 80 39 82
0 2 -12 3 -27 3 -22 0 -34 -9 -55 -43z"/>
<path d="M18420 6066 c0 -3 16 -36 35 -74 44 -85 67 -200 59 -290 -9 -109 -47
-236 -80 -269 -33 -33 1 -60 38 -30 24 18 74 115 88 172 18 72 23 211 10 278
-12 63 -61 176 -86 201 -14 14 -64 23 -64 12z"/>
<path d="M15918 6034 c-11 -23 -10 -29 11 -45 30 -24 43 -24 66 1 15 17 16 24
7 45 -17 36 -68 35 -84 -1z"/>
<path d="M12165 5999 c-26 -7 -30 -13 -30 -41 0 -28 -4 -33 -30 -38 -24 -4
-30 -10 -30 -30 0 -20 6 -26 30 -30 l30 -5 1 -110 c2 -169 2 -172 28 -199 31
-34 105 -46 130 -21 26 27 16 49 -24 53 -58 6 -60 12 -60 153 l0 129 50 0 c49
0 50 1 50 30 0 29 -1 30 -50 30 l-50 0 0 45 c0 25 -3 45 -7 44 -5 0 -22 -5
-38 -10z"/>
<path d="M16612 5968 c-7 -7 -12 -24 -12 -39 0 -23 -5 -28 -27 -31 -22 -2 -29
-9 -31 -29 -3 -22 2 -27 27 -32 l31 -6 0 -133 c0 -182 20 -215 126 -206 36 3
39 5 39 33 0 25 -4 30 -25 31 -14 1 -30 2 -37 3 -21 2 -32 64 -30 167 l2 101
50 9 c44 8 50 12 53 37 3 26 2 27 -47 27 l-51 0 0 40 c0 37 -2 40 -28 40 -15
0 -33 -5 -40 -12z"/>
<path d="M11060 5737 c0 -118 4 -197 10 -203 6 -6 24 -9 40 -6 l30 4 0 127 c0
142 15 185 67 197 50 11 53 13 53 44 0 28 -3 30 -34 30 -25 0 -43 -8 -64 -30
l-30 -29 -6 29 c-5 25 -10 30 -36 30 l-30 0 0 -193z"/>
<path d="M11363 5915 c-36 -16 -39 -23 -20 -49 11 -15 17 -16 35 -7 11 6 44
11 71 11 47 0 53 -3 71 -32 11 -18 19 -37 17 -42 -2 -6 -35 -15 -74 -22 -81
-13 -104 -24 -132 -60 -63 -80 -11 -194 88 -194 17 0 51 7 77 16 42 14 47 14
58 -1 7 -10 22 -15 37 -13 l24 3 -3 145 c-1 80 -5 157 -8 172 -3 16 -22 41
-44 58 -33 26 -45 30 -101 30 -35 -1 -79 -7 -96 -15z m175 -233 c3 -36 -1 -47
-27 -72 -52 -52 -131 -33 -131 32 0 46 31 69 110 81 40 7 45 3 48 -41z"/>
<path d="M11835 5915 c-42 -15 -100 -72 -117 -115 -16 -41 -12 -132 7 -170 47
-93 118 -128 225 -111 60 10 71 18 63 49 -5 21 -9 22 -63 16 -64 -7 -119 12
-145 50 -24 34 -20 136 8 177 30 45 86 64 145 51 37 -8 44 -7 52 9 16 28 12
36 -21 48 -43 15 -105 13 -154 -4z"/>
<path d="M12727 5918 c-52 -9 -107 -43 -107 -65 0 -7 -3 -13 -8 -13 -8 0 -28
-42 -37 -80 -3 -14 -2 -54 4 -89 12 -71 31 -98 99 -138 37 -22 52 -25 100 -20
116 10 176 79 177 202 0 86 -24 138 -81 176 -48 32 -84 39 -147 27z m107 -77
c43 -36 60 -145 31 -201 -44 -85 -157 -93 -194 -13 -56 121 11 256 116 233 18
-5 40 -13 47 -19z"/>
<path d="M12400 5720 l0 -201 36 3 37 3 1 195 1 195 -37 3 -38 3 0 -201z"/>
<path d="M13193 5913 c-13 -2 -31 -15 -42 -29 -24 -30 -31 -30 -31 1 0 22 -4
25 -33 25 l-33 0 1 -197 c0 -209 0 -211 50 -199 23 6 24 8 27 145 3 130 5 141
26 164 26 28 85 41 113 26 35 -18 42 -51 45 -194 l3 -140 36 -3 35 -3 0 149
c0 171 -8 200 -63 237 -35 24 -75 29 -134 18z"/>
<path d="M16267 5896 c-21 -8 -46 -21 -56 -31 -17 -15 -19 -14 -25 10 -5 20
-13 25 -36 25 l-30 0 0 -201 0 -200 38 3 37 3 2 126 c1 137 12 174 55 198 38
20 88 10 111 -21 19 -25 21 -43 21 -165 l1 -138 38 -3 37 -3 0 146 c0 166 -12
206 -73 244 -39 24 -67 26 -120 7z"/>
<path d="M16976 5899 c-83 -14 -136 -90 -138 -199 -3 -152 72 -219 230 -207
82 6 97 14 87 47 -6 20 -11 21 -73 15 -37 -3 -80 -2 -97 3 -34 10 -75 63 -75
98 l0 24 134 0 c129 0 134 1 139 22 12 45 -14 121 -53 159 -41 39 -83 50 -154
38z m93 -70 c21 -20 41 -59 41 -80 0 -5 -45 -9 -100 -9 -61 0 -100 4 -100 10
0 16 47 87 62 93 31 12 75 6 97 -14z"/>
<path d="M17860 5898 c-43 -12 -97 -62 -116 -108 -8 -19 -17 -59 -21 -90 -5
-47 -1 -65 21 -111 21 -44 34 -59 68 -76 60 -29 107 -35 169 -22 64 13 70 18
63 46 -6 21 -10 22 -78 17 -41 -4 -82 -2 -98 5 -32 12 -68 65 -68 99 0 22 2
22 134 22 131 0 134 1 139 23 8 34 -7 101 -31 134 -43 60 -108 82 -182 61z
m97 -66 c20 -11 51 -78 40 -89 -7 -6 -187 -6 -194 0 -8 9 26 65 53 86 28 22
64 23 101 3z"/>
<path d="M15920 5699 l0 -200 37 3 37 3 3 198 3 197 -40 0 -40 0 0 -201z"/>
<path d="M17341 5873 c-57 -37 -85 -96 -85 -184 -1 -95 38 -156 120 -186 36
-13 103 -2 141 22 26 17 34 4 26 -41 -14 -75 -87 -117 -165 -95 -24 7 -51 14
-60 17 -23 7 -44 -32 -28 -51 17 -20 117 -34 179 -24 66 10 96 29 119 77 29
57 31 75 37 286 5 192 5 196 -15 198 -11 0 -25 1 -32 2 -7 1 -15 -9 -18 -22
l-5 -23 -34 26 c-50 36 -121 35 -180 -2z m172 -58 c30 -30 36 -57 32 -139 -3
-53 -7 -64 -34 -88 -36 -32 -93 -38 -129 -12 -68 47 -70 168 -4 237 35 37 98
38 135 2z"/>
<path d="M18176 5891 c-2 -3 -4 -95 -5 -204 l-1 -198 38 3 37 3 5 138 5 139
33 29 c20 18 43 29 62 29 28 0 30 3 30 36 l0 37 -42 -6 c-29 -4 -50 -14 -65
-31 -28 -33 -33 -33 -33 3 0 27 -3 30 -30 29 -17 -1 -32 -4 -34 -7z"/>
<path d="M670 4659 c-19 -20 -40 -43 -46 -50 -22 -30 -50 -229 -31 -229 4 0 7
-20 7 -45 0 -27 5 -45 11 -45 8 0 8 -4 1 -13 -8 -9 0 -25 31 -60 38 -44 47
-49 99 -56 65 -9 100 2 140 42 40 40 68 137 68 232 0 176 -68 270 -192 263
-46 -2 -57 -7 -88 -39z m144 -40 c14 -11 26 -28 26 -38 0 -9 5 -22 11 -28 15
-15 14 -187 -1 -242 -17 -63 -60 -98 -106 -87 -81 21 -93 312 -16 399 20 23
53 22 86 -4z"/>
<path d="M1253 4682 c-47 -18 -58 -34 -43 -63 13 -22 35 -24 70 -4 31 18 91
19 113 2 10 -7 24 -29 31 -50 16 -47 3 -97 -36 -139 -16 -17 -28 -32 -28 -34
0 -6 -52 -65 -78 -88 -79 -70 -102 -97 -102 -119 l0 -24 168 -6 c92 -3 171 -2
175 2 4 5 5 20 2 33 -8 31 -35 38 -144 38 l-76 0 65 65 c89 89 100 103 100
120 0 8 4 15 9 15 11 0 28 43 36 93 7 44 -19 110 -57 145 -34 31 -143 39 -205
14z"/>
<path d="M1717 4662 c-53 -25 -57 -29 -55 -57 3 -32 3 -31 71 -18 23 4 27 2
27 -16 0 -11 -4 -21 -10 -21 -6 0 -6 -10 1 -27 12 -33 9 -151 -5 -175 -7 -12
-7 -21 -1 -27 6 -6 8 -40 4 -83 -3 -40 -5 -74 -4 -75 5 -8 62 -12 72 -5 9 5
13 77 15 260 3 216 1 254 -12 262 -23 15 -41 12 -103 -18z"/>
<path d="M2114 4676 c-52 -29 -74 -69 -74 -133 0 -43 4 -53 35 -83 l35 -34
-30 -12 c-17 -7 -30 -17 -30 -23 0 -5 -7 -16 -15 -24 -24 -25 -23 -121 1 -154
57 -78 201 -93 284 -30 36 27 49 56 50 108 0 59 -22 103 -60 119 -17 7 -30 14
-30 17 0 2 15 19 34 37 69 69 51 167 -37 211 -35 18 -132 18 -163 1z m141 -68
c24 -18 26 -26 21 -60 -8 -51 -33 -78 -72 -78 -48 0 -84 34 -84 79 0 74 74
107 135 59z m-2 -240 c15 -11 27 -28 27 -38 0 -10 5 -20 11 -22 13 -4 -10 -67
-32 -84 -48 -40 -142 -18 -154 35 -8 39 1 80 24 107 31 38 72 38 124 2z"/>
<path d="M2469 4683 c-10 -2 -19 -13 -22 -24 -10 -37 14 -46 133 -46 61 0 113
-3 116 -6 3 -2 -9 -28 -25 -56 -17 -28 -34 -64 -37 -79 -4 -15 -12 -34 -19
-42 -6 -8 -24 -42 -39 -75 -57 -122 -81 -170 -88 -173 -5 -2 -8 -10 -8 -18 0
-21 80 -15 91 6 29 58 149 310 149 315 0 3 11 23 25 45 31 49 53 126 40 139
-10 9 -285 21 -316 14z"/>
<path d="M2926 4668 c-12 -39 -18 -69 -22 -118 -3 -30 -8 -62 -11 -70 -19 -48
-8 -57 84 -62 98 -5 123 -27 123 -108 0 -56 -1 -58 -40 -85 -40 -27 -41 -28
-110 -16 -92 15 -90 15 -90 -17 0 -23 6 -30 33 -40 45 -16 147 -15 188 2 96
40 139 169 84 250 -26 39 -92 76 -153 85 -52 7 -54 14 -31 89 l11 32 94 0 94
0 0 29 c0 17 -6 31 -16 35 -9 3 -65 6 -125 6 -79 0 -111 -3 -113 -12z"/>
<path d="M4312 4669 c-13 -5 -39 -25 -58 -44 -30 -31 -34 -41 -34 -89 0 -47 4
-58 30 -83 17 -15 30 -32 30 -37 0 -5 -16 -23 -36 -40 -22 -19 -38 -44 -43
-66 -22 -104 52 -180 174 -180 95 0 154 40 175 121 14 50 -9 108 -56 144 l-34
26 34 33 c19 17 38 45 42 60 8 35 -10 97 -35 120 -43 39 -137 56 -189 35z
m122 -70 c37 -29 36 -81 -3 -120 -37 -36 -58 -36 -104 -1 -40 30 -44 49 -22
92 27 53 82 66 129 29z m-9 -241 c46 -31 58 -60 45 -108 -12 -46 -50 -65 -111
-57 -68 9 -102 69 -72 128 30 61 80 74 138 37z"/>
<path d="M5658 4630 c-47 -25 -58 -35 -58 -55 0 -35 21 -40 64 -15 20 12 36
18 37 13 0 -4 0 -106 -1 -225 l-1 -217 25 -7 c56 -14 56 -18 53 268 l-2 263
-30 2 c-18 2 -54 -10 -87 -27z"/>
<path d="M6164 4645 c-3 -8 -4 -22 -2 -32 3 -16 17 -18 127 -21 101 -2 122 -5
118 -17 -3 -7 -11 -31 -16 -53 -6 -22 -19 -50 -29 -63 -26 -34 -170 -327 -164
-334 3 -3 20 -5 39 -5 l33 0 90 188 c50 103 100 204 111 226 29 52 39 90 28
107 -12 20 -328 24 -335 4z"/>
<path d="M7130 4646 c-44 -16 -95 -81 -115 -148 -20 -67 -19 -175 1 -245 31
-107 119 -166 211 -141 35 9 93 57 93 75 0 6 6 16 14 22 31 26 39 229 12 312
-20 62 -46 93 -98 120 -42 22 -68 23 -118 5z m84 -60 c50 -21 68 -76 68 -206
1 -82 -3 -114 -17 -140 -27 -54 -45 -70 -80 -70 -73 0 -112 93 -102 247 6 104
40 169 95 182 1 1 18 -5 36 -13z"/>
<path d="M6631 4563 c-7 -49 -14 -105 -17 -125 l-6 -38 50 0 c76 0 111 -10
143 -42 50 -50 37 -140 -24 -168 -36 -16 -126 -17 -155 -1 -15 8 -23 7 -32 -4
-21 -25 -7 -47 40 -62 175 -54 333 87 263 235 -32 68 -91 102 -176 102 -37 0
-38 1 -33 30 3 17 9 44 12 60 6 34 0 33 117 30 l87 -2 0 36 0 36 -128 0 -129
0 -12 -87z"/>
<path d="M7538 4630 c-87 -46 -127 -177 -105 -341 22 -159 160 -233 277 -148
48 35 70 97 77 220 13 215 -106 344 -249 269z m127 -64 c35 -35 48 -97 43
-211 -5 -118 -18 -153 -71 -179 -38 -18 -39 -18 -65 1 -48 36 -66 87 -65 188
0 104 22 186 56 210 32 22 74 19 102 -9z"/>
<path d="M7984 4636 c-87 -39 -127 -127 -126 -273 1 -100 20 -160 65 -208 48
-49 78 -60 143 -50 63 9 117 64 140 141 26 89 16 222 -22 299 -16 32 -40 67
-54 77 -34 25 -107 32 -146 14z m106 -71 c29 -26 50 -107 50 -192 0 -97 -15
-155 -50 -188 -24 -23 -34 -26 -64 -21 -44 8 -70 44 -85 117 -22 107 0 232 51
286 25 27 67 26 98 -2z"/>
<path d="M10522 4587 l3 -32 120 -3 c65 -1 121 -5 123 -7 3 -2 -45 -105 -106
-227 -60 -123 -107 -226 -103 -231 4 -4 21 -4 39 -1 28 6 37 17 81 108 188
388 196 408 166 420 -9 3 -86 6 -171 5 l-155 0 3 -32z"/>
<path d="M11023 4612 c-15 -2 -24 -11 -25 -25 0 -12 -2 -26 -3 -32 -1 -5 -5
-35 -9 -65 -4 -30 -9 -72 -12 -92 l-6 -38 70 0 c55 0 76 -5 102 -22 63 -43 65
-136 5 -177 -33 -22 -42 -23 -119 -17 -78 6 -84 5 -89 -14 -6 -25 14 -37 83
-50 139 -26 263 70 245 189 -9 61 -29 93 -78 125 -39 25 -59 30 -119 29 -32
-1 -32 -4 -17 70 l12 57 98 0 99 0 0 30 c0 29 -2 30 -47 31 -27 0 -75 1 -108
2 -33 1 -70 1 -82 -1z"/>
<path d="M11475 4601 c-81 -48 -110 -119 -110 -261 0 -118 16 -173 64 -221 84
-84 213 -54 263 61 29 65 36 218 14 292 -36 124 -143 183 -231 129z m118 -67
c34 -37 48 -91 48 -190 0 -123 -23 -184 -79 -205 -84 -32 -143 89 -123 251 9
69 42 155 63 163 33 13 68 6 91 -19z"/>
<path d="M11902 4598 c-111 -54 -155 -291 -80 -436 35 -68 67 -87 147 -87 62
0 69 2 98 32 77 78 104 229 64 358 -25 84 -33 94 -92 128 -54 32 -80 33 -137
5z m134 -89 c8 -16 20 -65 26 -109 25 -168 -32 -290 -124 -267 -77 20 -104
289 -39 377 41 57 107 56 137 -1z"/>
<path d="M12361 4608 c-18 -5 -44 -16 -57 -25 -37 -24 -73 -100 -85 -176 -21
-132 8 -246 77 -307 30 -26 42 -30 93 -30 107 0 166 68 179 209 14 153 -16
260 -85 304 -49 31 -80 37 -122 25z m81 -75 c44 -51 62 -148 48 -262 -11 -86
-28 -117 -76 -137 -30 -13 -37 -13 -60 2 -47 32 -58 68 -59 199 0 105 3 125
22 162 13 23 31 44 40 46 39 10 71 6 85 -10z"/>
<path d="M16364 4603 c-25 -25 -76 -143 -90 -205 -27 -127 -12 -255 45 -373
22 -46 40 -69 58 -76 38 -14 50 3 26 38 -22 31 -56 123 -72 195 -23 98 23 336
76 399 7 8 13 20 13 25 0 14 -41 12 -56 -3z"/>
<path d="M17031 4598 c-24 -4 -58 -17 -75 -29 -31 -21 -62 -69 -45 -69 5 0 9
-5 9 -11 0 -5 -4 -8 -9 -5 -12 8 -22 -34 -14 -64 9 -40 63 -89 133 -121 73
-34 110 -76 110 -126 0 -61 -88 -89 -196 -62 -50 13 -49 13 -58 -18 -10 -30
39 -54 119 -60 77 -5 160 27 185 72 56 100 12 206 -100 244 -19 6 -53 24 -75
39 -46 32 -55 64 -31 111 20 38 63 48 138 32 45 -10 54 -10 64 4 7 9 10 24 7
34 -6 23 -99 40 -162 29z"/>
<path d="M17740 4605 c0 -3 14 -32 30 -65 57 -114 74 -231 51 -376 -9 -64 -43
-154 -73 -196 -18 -26 1 -40 32 -25 68 34 127 223 117 377 -9 136 -79 290
-132 290 -14 0 -25 -2 -25 -5z"/>
<path d="M16515 4588 c-3 -7 -4 -132 -3 -278 l3 -265 153 -3 152 -3 0 30 c0
38 -11 41 -131 41 l-99 0 -2 243 -3 242 -33 3 c-20 2 -34 -2 -37 -10z"/>
<path d="M17385 4594 c-11 -3 -29 -7 -41 -9 -20 -4 -21 -10 -23 -269 -1 -186
1 -266 9 -271 23 -14 123 -17 183 -5 112 21 157 66 157 155 0 66 -22 102 -77
125 -25 10 -31 30 -9 30 7 0 25 12 40 26 22 22 26 36 26 81 0 47 -4 57 -31 84
-17 17 -41 34 -54 39 -28 11 -153 20 -180 14z m134 -65 c32 -11 61 -52 61 -86
0 -10 -11 -31 -24 -47 -21 -27 -31 -30 -90 -34 l-66 -4 0 81 c0 75 2 82 23 91
31 12 58 12 96 -1z m40 -258 c27 -20 31 -28 31 -69 0 -62 -32 -98 -93 -107
-92 -14 -92 -14 -95 104 l-3 104 65 -5 c44 -4 74 -13 95 -27z"/>
<path d="M15698 4548 c-49 -32 -60 -56 -33 -78 9 -7 15 -8 15 -2 0 10 60 35
67 28 2 -2 4 -103 4 -225 l0 -221 34 0 35 0 1 168 c2 184 2 318 0 345 -2 28
-68 21 -123 -15z"/>
<path d="M3513 4553 c-24 -9 -12 -28 68 -112 l80 -84 -33 -35 c-18 -19 -56
-57 -85 -84 -44 -42 -51 -53 -42 -69 5 -11 16 -19 24 -19 7 0 51 36 96 80 l83
80 81 -85 c44 -47 85 -85 90 -85 6 0 16 10 23 21 15 23 21 15 -105 144 -24 24
-43 47 -43 50 0 4 35 43 78 86 42 44 77 87 77 97 0 20 -44 30 -55 12 -16 -25
-134 -140 -144 -140 -6 0 -45 34 -86 75 -73 73 -82 79 -107 68z"/>
<path d="M4842 4433 l3 -28 205 0 205 0 0 25 0 25 -208 3 -208 2 3 -27z"/>
<path d="M4837 4281 c-10 -38 12 -42 219 -39 l199 3 0 25 0 25 -206 3 c-199 2
-207 2 -212 -17z"/>
<path d="M1033 4252 c-7 -4 -15 -22 -19 -39 -5 -25 -2 -34 17 -47 46 -32 89
-15 89 35 0 47 -49 75 -87 51z"/>
<path d="M5990 4201 c-26 -49 -2 -84 52 -79 29 3 33 7 36 34 4 37 -19 64 -53
64 -14 0 -29 -8 -35 -19z"/>
<path d="M10346 4164 c-17 -44 7 -84 49 -84 31 0 52 49 33 79 -16 26 -73 29
-82 5z"/>
<path d="M16820 3772 c0 -4 5 -13 11 -19 7 -7 8 -17 2 -28 -5 -9 -6 -38 -2
-63 4 -26 4 -51 0 -57 -4 -5 -6 -28 -4 -50 2 -22 3 -60 2 -85 0 -25 -1 -163
-2 -307 -1 -144 -5 -264 -9 -268 -4 -4 -2 -16 5 -26 9 -14 9 -21 0 -30 -9 -9
-9 -16 0 -30 9 -14 9 -21 0 -30 -7 -7 -8 -20 -4 -33 10 -28 8 -127 -3 -144 -5
-8 -4 -18 2 -24 12 -12 4 -76 -13 -101 -11 -15 -14 -16 -25 -2 -6 8 -28 17
-49 21 -20 4 -39 11 -42 17 -4 5 -15 7 -24 3 -16 -6 -16 -8 -3 -24 8 -9 20
-35 26 -57 10 -40 28 -92 43 -130 8 -20 33 -88 48 -135 5 -14 15 -38 21 -55 7
-16 14 -34 14 -40 4 -33 40 -115 51 -115 7 0 17 17 23 38 6 20 27 80 47 132
33 86 57 157 59 170 1 3 9 22 19 43 10 21 20 45 22 55 2 9 11 36 20 60 8 24
13 48 10 53 -10 15 -47 10 -61 -8 -11 -15 -15 -16 -23 -4 -5 8 -14 10 -21 6
-9 -6 -4 -13 16 -24 l29 -16 -25 -3 c-13 -2 -26 1 -28 7 -2 6 -12 11 -23 11
-17 0 -19 8 -19 93 -1 146 3 795 5 987 1 96 -2 185 -6 198 -9 24 -34 30 -43
10 -5 -10 -7 -10 -12 0 -6 13 -34 17 -34 4z"/>
<path d="M6850 3348 c0 -7 -12 -24 -25 -37 -14 -13 -22 -28 -18 -35 11 -17 12
-80 1 -93 -7 -9 -6 -18 2 -28 10 -12 10 -19 2 -27 -8 -8 -7 -16 1 -28 8 -14 8
-22 -3 -35 -11 -13 -11 -18 -1 -24 10 -7 10 -13 2 -29 -6 -11 -7 -23 -3 -26 9
-5 8 -138 -1 -152 -3 -6 -2 -16 3 -24 5 -8 4 -22 -1 -33 -7 -13 -7 -23 2 -33
9 -11 9 -17 -1 -29 -10 -12 -10 -18 0 -30 10 -12 10 -15 -4 -15 -9 0 -16 5
-16 10 0 14 -27 12 -34 -2 -5 -10 -7 -10 -12 0 -3 6 -17 12 -30 12 -14 0 -22
-4 -19 -10 3 -5 1 -10 -4 -10 -6 0 -11 5 -11 10 0 14 -37 12 -43 -2 -4 -10 -8
-10 -15 1 -12 16 -94 19 -100 3 -2 -8 -9 -8 -22 0 -14 9 -22 9 -33 -1 -10 -8
-17 -9 -22 -1 -8 14 -45 13 -45 -1 0 -8 -4 -8 -12 -2 -24 19 -64 22 -91 8 -15
-7 -27 -10 -27 -6 0 5 -9 11 -20 14 -13 3 -18 1 -13 -6 4 -7 0 -8 -13 -3 -37
15 -54 18 -54 9 0 -5 -15 -9 -34 -9 -19 0 -32 4 -30 8 3 4 -11 8 -32 8 -33 0
-35 -2 -23 -17 13 -17 12 -17 -6 -2 -25 19 -95 25 -105 9 -6 -9 -13 -9 -30 2
-18 10 -24 10 -27 1 -3 -7 -9 -13 -14 -13 -6 0 -7 5 -4 10 4 6 -5 10 -19 10
-18 0 -26 -5 -26 -17 -1 -17 -1 -17 -14 0 -16 20 -92 24 -99 5 -3 -10 -7 -10
-20 1 -9 7 -33 13 -53 13 -20 0 -41 -6 -46 -13 -7 -11 -11 -11 -15 -1 -2 6
-13 12 -23 12 -10 0 -21 -6 -24 -12 -5 -10 -7 -10 -12 0 -3 6 -17 12 -30 12
-16 0 -23 -4 -19 -11 4 -6 -3 -5 -14 3 -18 11 -23 11 -30 0 -7 -11 -12 -12
-29 -1 -17 11 -23 10 -38 -2 -11 -9 -15 -9 -10 -1 5 8 -1 12 -18 12 -14 0 -26
-4 -26 -10 0 -5 -5 -10 -11 -10 -5 0 -7 5 -4 10 6 10 -7 12 -73 15 -23 0 -31
-3 -28 -12 3 -7 1 -13 -4 -13 -6 0 -10 4 -10 9 0 5 -11 11 -25 13 -18 4 -25 1
-25 -11 0 -13 -2 -14 -9 -2 -13 20 -127 30 -116 10 7 -11 6 -12 -6 -2 -8 6
-36 11 -63 11 -32 0 -45 -3 -36 -8 8 -5 11 -13 6 -17 -4 -4 -14 1 -22 11 -11
16 -16 17 -29 6 -8 -7 -15 -8 -15 -3 0 5 -38 10 -85 12 -54 1 -85 -2 -85 -9 0
-5 -5 -10 -11 -10 -5 0 -7 5 -4 10 3 6 -5 10 -19 10 -13 0 -27 -6 -29 -12 -4
-10 -6 -10 -6 0 -1 8 -25 12 -85 12 -58 0 -86 -4 -89 -12 -4 -10 -6 -10 -6 0
-1 16 -151 17 -151 1 0 -8 -5 -8 -15 1 -19 15 -314 23 -332 8 -8 -6 -19 -6
-32 1 -26 14 -445 15 -436 1 3 -5 2 -10 -4 -10 -5 0 -11 5 -13 12 -2 6 -24 11
-51 11 -54 -1 -59 10 -32 74 20 47 19 52 -7 62 -17 7 -27 5 -37 -7 -12 -15
-12 -15 -6 6 6 21 5 21 -19 11 -14 -7 -26 -16 -26 -21 0 -4 -9 -8 -20 -8 -14
0 -18 -5 -13 -17 5 -15 3 -16 -8 -5 -16 14 -49 16 -49 2 0 -5 -7 -10 -15 -10
-8 0 -15 -7 -15 -17 0 -15 -1 -15 -19 1 -16 15 -19 15 -24 1 -4 -8 -13 -15
-21 -15 -7 0 -17 -8 -20 -17 -6 -14 -9 -15 -16 -4 -7 12 -13 12 -39 1 -17 -7
-31 -16 -31 -20 0 -5 -9 -6 -19 -3 -10 3 -32 -3 -47 -14 -15 -10 -36 -17 -46
-15 -9 2 -27 -2 -39 -9 -21 -11 -21 -13 -6 -24 9 -6 14 -14 12 -17 -6 -6 52
-30 250 -105 22 -8 56 -22 75 -30 49 -21 197 -73 208 -73 10 0 4 49 -9 65 -4
6 -11 30 -15 53 l-7 42 399 -4 c405 -5 2620 -20 2949 -20 l180 0 28 26 29 27
3 296 c3 162 7 301 11 307 5 8 204 9 713 4 783 -7 1598 -13 2631 -21 377 -3
1033 -8 1458 -11 l772 -6 0 39 c0 40 -29 99 -30 61 0 -10 -6 -18 -14 -18 -8 0
-17 8 -21 18 -6 16 -8 16 -21 -3 l-15 -20 -15 20 -15 20 -15 -20 c-15 -20 -16
-20 -29 -1 -12 16 -17 17 -30 6 -12 -10 -18 -10 -31 1 -13 10 -17 10 -24 -2
-8 -12 -13 -12 -31 -1 -18 12 -23 11 -34 -5 -13 -17 -14 -17 -20 0 -9 22 -34
22 -42 1 -6 -15 -7 -15 -19 1 -11 15 -16 16 -29 5 -12 -10 -18 -10 -30 0 -13
10 -19 10 -34 -4 -18 -17 -20 -16 -30 1 -9 16 -12 16 -21 3 -8 -13 -12 -13
-32 -1 -16 10 -23 10 -26 2 -5 -15 -29 -14 -35 2 -3 9 -9 9 -28 -2 -16 -10
-24 -10 -27 -2 -5 14 -32 15 -32 1 0 -5 -7 -10 -15 -10 -8 0 -15 5 -15 10 0
14 -27 12 -33 -2 -4 -10 -8 -9 -16 2 -9 13 -14 13 -31 2 -17 -10 -25 -10 -36
-1 -11 9 -18 8 -30 -2 -13 -10 -17 -10 -24 2 -8 12 -13 12 -31 1 -18 -12 -23
-12 -30 0 -7 11 -12 11 -31 -1 -16 -10 -23 -10 -26 -2 -5 14 -32 15 -32 1 0
-5 -7 -10 -15 -10 -8 0 -15 5 -15 10 0 14 -27 13 -32 -1 -3 -8 -10 -8 -26 2
-20 12 -24 12 -32 -1 -9 -13 -12 -13 -23 2 -13 16 -15 16 -31 0 -14 -13 -20
-14 -23 -4 -3 6 -13 12 -23 12 -10 0 -21 -6 -23 -12 -4 -10 -8 -9 -16 2 -8 12
-14 12 -28 4 -14 -9 -21 -8 -30 5 -12 15 -14 14 -27 -1 -17 -22 -32 -23 -40
-2 -6 15 -8 15 -25 0 -17 -16 -19 -16 -25 0 -6 15 -8 15 -26 -1 -20 -18 -21
-18 -35 1 -15 19 -15 19 -30 0 -15 -19 -15 -19 -29 -1 -12 16 -16 17 -30 6
-13 -11 -19 -11 -31 -1 -11 9 -19 10 -28 1 -10 -8 -17 -7 -25 1 -8 8 -15 8
-27 -2 -12 -10 -18 -10 -31 0 -12 11 -18 10 -31 -3 -15 -15 -17 -15 -30 1 -12
16 -14 16 -28 -2 -15 -20 -15 -20 -29 0 -14 18 -16 18 -32 2 -16 -16 -18 -16
-30 0 -12 16 -14 16 -28 -3 -13 -19 -15 -19 -21 -2 -8 18 -35 24 -35 7 0 -5
-7 -10 -15 -10 -8 0 -15 5 -15 10 0 6 -7 10 -15 10 -8 0 -15 -4 -15 -10 0 -5
-7 -10 -15 -10 -8 0 -15 5 -15 10 0 14 -27 13 -32 -1 -3 -8 -10 -8 -26 2 -19
12 -24 12 -31 1 -7 -12 -12 -12 -30 0 -18 11 -23 11 -31 -1 -7 -12 -11 -12
-24 -2 -13 11 -19 11 -32 0 -13 -10 -17 -10 -24 2 -8 11 -13 12 -29 2 -16 -10
-22 -9 -32 3 -10 13 -14 13 -29 -1 -13 -11 -19 -12 -28 -3 -10 10 -17 10 -31
1 -14 -9 -21 -9 -30 0 -8 8 -16 9 -29 1 -13 -9 -21 -8 -31 3 -11 12 -16 12
-32 -3 -13 -12 -19 -13 -19 -4 0 8 -9 11 -29 7 -15 -3 -33 -1 -38 4 -7 7 -16
5 -28 -7 -16 -16 -18 -16 -26 -1 -8 14 -13 15 -29 5 -15 -10 -22 -10 -31 -1
-9 9 -16 9 -29 0 -14 -8 -22 -8 -33 2 -9 7 -18 8 -21 2 -7 -11 -75 -9 -94 3
-7 4 -19 2 -27 -4 -12 -10 -18 -10 -30 0 -12 10 -18 10 -31 -1 -13 -10 -17
-10 -24 2 -8 12 -13 12 -30 1 -17 -10 -25 -10 -36 -1 -11 9 -18 8 -31 -2 -13
-11 -17 -11 -20 -1 -3 6 -11 12 -18 12 -7 0 -15 -6 -18 -12 -3 -10 -7 -10 -20
1 -14 11 -20 11 -32 1 -12 -10 -18 -10 -30 0 -12 10 -18 10 -29 1 -11 -9 -19
-9 -36 1 -17 11 -22 11 -30 -1 -7 -12 -11 -13 -25 -1 -11 9 -19 10 -27 2 -8
-8 -16 -7 -28 1 -14 8 -22 8 -35 -3 -14 -12 -18 -12 -25 1 -8 11 -13 12 -28 2
-15 -9 -22 -9 -31 0 -9 9 -17 8 -33 -2 -16 -10 -23 -10 -26 -2 -5 15 -29 14
-36 -1 -5 -10 -7 -10 -12 0 -3 6 -14 12 -24 12 -10 0 -20 -6 -23 -12 -3 -10
-7 -10 -20 1 -9 7 -24 10 -33 7 -9 -4 -23 -1 -31 5 -11 9 -17 8 -27 -6 -13
-18 -14 -18 -24 1 -10 18 -11 18 -30 1 -19 -17 -21 -17 -30 -2 -8 15 -12 15
-30 4 -16 -10 -23 -10 -35 0 -13 10 -17 9 -26 -6 -9 -17 -11 -17 -25 2 -14 19
-16 19 -32 3 -16 -16 -18 -16 -30 0 -10 14 -14 14 -28 3 -13 -11 -19 -11 -32
-1 -12 11 -18 10 -31 -3 -15 -15 -18 -15 -30 1 -11 12 -16 14 -19 5 -7 -15
-34 -17 -34 -3 0 16 -27 12 -34 -5 -3 -8 -10 -15 -16 -15 -5 0 -10 7 -10 15 0
8 -7 15 -15 15 -8 0 -15 -4 -15 -10 0 -5 -7 -10 -15 -10 -8 0 -15 5 -15 10 0
14 -27 12 -33 -2 -4 -10 -8 -9 -16 2 -9 13 -14 13 -31 2 -17 -10 -25 -10 -36
-1 -11 9 -18 8 -31 -2 -13 -11 -17 -11 -20 -1 -3 6 -13 12 -23 12 -10 0 -21
-6 -23 -12 -4 -10 -8 -9 -16 2 -9 13 -14 13 -32 2 -18 -12 -23 -11 -35 5 -13
17 -15 17 -24 1 -9 -15 -14 -16 -30 -6 -15 10 -22 10 -31 1 -9 -9 -16 -9 -29
0 -14 8 -22 8 -33 -2 -10 -7 -17 -8 -21 -2 -7 11 -85 9 -103 -2 -6 -4 -14 0
-17 9 -5 13 -9 14 -20 5 -8 -7 -25 -9 -39 -6 -14 4 -28 2 -32 -5 -5 -8 -10 -8
-21 1 -7 6 -21 9 -30 5 -8 -3 -25 -1 -36 5 -16 8 -22 8 -29 -2 -6 -10 -11 -10
-24 1 -15 12 -19 12 -30 -3 -12 -17 -14 -17 -29 -1 -13 13 -19 14 -31 4 -12
-10 -18 -10 -31 1 -14 11 -18 11 -29 -5 -13 -17 -14 -17 -24 1 -9 16 -12 16
-32 4 -17 -10 -24 -10 -27 -2 -5 15 -29 14 -35 -1 -4 -10 -7 -10 -18 0 -7 6
-19 12 -26 12 -7 0 -13 -6 -13 -12z m-2070 -652 c0 -3 -4 -8 -10 -11 -5 -3
-10 -1 -10 4 0 6 5 11 10 11 6 0 10 -2 10 -4z m285 -6 c3 -5 1 -10 -4 -10 -6
0 -11 5 -11 10 0 6 2 10 4 10 3 0 8 -4 11 -10z m175 0 c0 -5 -5 -10 -11 -10
-5 0 -7 5 -4 10 3 6 8 10 11 10 2 0 4 -4 4 -10z m1335 -10 c3 -5 1 -10 -4 -10
-6 0 -11 5 -11 10 0 6 2 10 4 10 3 0 8 -4 11 -10z"/>
<path d="M688 1948 c-16 -5 -28 -13 -28 -18 0 -5 -9 -12 -20 -15 -11 -3 -20
-13 -20 -21 0 -8 -3 -14 -7 -14 -17 0 -43 -90 -49 -171 -12 -149 44 -273 132
-295 52 -13 114 2 151 37 42 41 53 64 69 149 22 117 -13 278 -70 320 -49 36
-108 47 -158 28z m106 -80 c21 -19 28 -37 36 -98 14 -107 8 -177 -21 -235 -22
-47 -27 -50 -64 -53 -36 -2 -43 1 -67 36 -23 33 -27 51 -31 128 -10 190 62
297 147 222z"/>
<path d="M1179 1943 c-11 -3 -14 -12 -11 -33 l4 -30 117 0 c65 0 120 -3 124
-6 3 -3 -15 -47 -40 -97 -25 -51 -57 -117 -72 -147 -14 -30 -29 -56 -33 -58
-5 -2 -8 -12 -8 -22 0 -10 -3 -20 -7 -22 -5 -1 -18 -25 -31 -52 -26 -56 -20
-69 28 -64 25 2 36 11 51 38 32 60 156 324 164 348 3 12 11 22 16 22 5 0 9 9
9 19 0 11 5 23 10 26 6 3 10 22 10 41 l0 34 -82 1 c-46 0 -117 2 -158 3 -41 2
-82 2 -91 -1z"/>
<path d="M1635 1913 c-4 -16 -9 -55 -11 -88 -3 -33 -10 -75 -15 -92 -6 -18 -8
-37 -4 -43 3 -5 34 -10 67 -10 112 0 148 -27 148 -112 0 -34 -6 -46 -32 -70
-17 -15 -43 -29 -57 -29 -47 -3 -96 3 -106 12 -13 13 -21 11 -39 -7 -39 -38 5
-69 102 -73 100 -4 167 35 203 116 16 35 18 49 9 89 -6 25 -15 55 -20 65 -18
32 -73 63 -134 74 l-61 11 3 34 c8 77 11 79 114 82 89 3 93 4 96 27 2 13 -2
28 -10 32 -7 5 -65 9 -129 9 l-117 0 -7 -27z"/>
<path d="M2080 1912 c-42 -36 -78 -102 -83 -154 -2 -21 -6 -40 -8 -43 -3 -2
-1 -43 3 -91 11 -134 57 -209 136 -224 60 -11 97 -1 140 36 111 94 107 398 -5
479 -18 13 -48 21 -88 23 -55 3 -63 1 -95 -26z m115 -44 c52 -23 67 -67 68
-194 1 -76 -3 -118 -11 -126 -7 -7 -12 -20 -12 -30 0 -30 -37 -58 -74 -58 -28
0 -40 7 -62 36 -27 35 -28 41 -28 158 0 102 3 127 19 156 39 70 54 79 100 58z"/>
<path d="M2525 1919 c-45 -23 -69 -49 -89 -94 -20 -46 -28 -102 -16 -110 8 -5
7 -11 -1 -21 -25 -31 -7 -168 31 -229 61 -98 187 -102 265 -7 69 83 70 321 2
414 -26 36 -85 68 -124 68 -16 0 -46 -9 -68 -21z m130 -95 c26 -53 27 -54 27
-164 0 -147 -43 -224 -115 -206 -32 8 -67 63 -72 113 -2 21 -4 40 -5 43 -6 22
4 140 15 176 18 59 49 86 94 82 31 -3 39 -9 56 -44z"/>
<path d="M2934 1913 c-36 -18 -79 -80 -96 -138 -12 -41 -16 -191 -6 -235 32
-140 180 -201 278 -114 116 104 93 450 -32 493 -43 15 -107 13 -144 -6z m120
-64 c15 -12 25 -24 22 -27 -3 -3 -1 -12 6 -19 15 -19 17 -37 19 -156 0 -82 -3
-104 -21 -140 -26 -50 -35 -57 -76 -57 -34 0 -53 13 -77 52 -18 29 -25 180
-12 253 7 38 37 91 60 107 19 14 52 8 79 -13z"/>
<path d="M4271 1903 c-55 -29 -76 -66 -75 -130 0 -51 3 -59 35 -86 22 -19 30
-31 21 -34 -20 -8 -62 -55 -73 -81 -15 -38 -10 -95 10 -128 55 -90 235 -98
301 -14 60 77 48 158 -32 214 l-22 16 33 34 c58 60 53 149 -12 197 -43 32
-137 38 -186 12z m124 -49 c19 -7 45 -55 45 -81 -1 -21 -38 -66 -63 -76 -19
-7 -61 8 -89 31 -18 15 -25 77 -10 98 19 28 78 43 117 28z m17 -264 c21 -15
35 -30 31 -33 -3 -4 -1 -12 5 -19 7 -9 5 -23 -6 -48 -31 -64 -107 -80 -162
-33 -29 24 -32 31 -27 70 7 64 53 107 102 95 11 -3 37 -17 57 -32z"/>
<path d="M5755 1899 c-98 -19 -151 -59 -200 -152 -38 -73 -47 -212 -17 -279
61 -139 257 -144 328 -7 19 37 18 123 -2 169 -34 76 -148 114 -217 71 -19 -11
-37 -21 -40 -21 -15 0 18 62 50 95 42 43 88 65 138 65 33 0 35 2 35 35 0 38 2
38 -75 24z m-17 -250 c104 -36 79 -229 -30 -229 -117 0 -160 180 -55 225 39
17 46 18 85 4z"/>
<path d="M6224 1872 c-59 -43 -93 -118 -98 -216 -9 -182 61 -304 174 -299 77
3 118 30 157 106 24 47 27 63 27 162 1 129 -15 183 -69 235 -30 29 -43 34 -92
38 -52 3 -62 1 -99 -26z m134 -55 c33 -26 44 -71 46 -176 2 -161 -27 -220
-106 -221 -29 0 -41 6 -57 29 -66 92 -43 351 33 381 23 9 64 3 84 -13z"/>
<path d="M6673 1886 c-95 -52 -141 -195 -114 -354 20 -123 90 -188 191 -177
89 9 136 65 158 191 17 101 2 213 -40 282 -37 60 -137 90 -195 58z m104 -67
c38 -26 55 -84 55 -183 0 -141 -25 -208 -82 -221 -44 -10 -82 18 -103 73 -22
63 -18 232 8 282 32 65 76 82 122 49z"/>
<path d="M7134 1890 c-53 -12 -95 -50 -123 -109 -23 -50 -26 -67 -26 -171 1
-132 13 -167 76 -225 35 -32 45 -35 99 -35 52 0 64 4 95 32 59 51 78 99 83
214 8 180 -39 274 -148 296 -14 3 -39 2 -56 -2z m77 -81 c37 -37 49 -83 49
-188 0 -146 -32 -211 -105 -211 -35 0 -71 38 -85 90 -14 54 -14 174 0 233 22
86 93 124 141 76z"/>
<path d="M7540 1882 c-69 -32 -113 -95 -129 -187 -27 -156 21 -304 111 -340
89 -35 189 15 223 113 39 113 27 278 -25 350 -42 59 -126 88 -180 64z m68 -58
c23 -5 35 -17 53 -51 21 -40 24 -60 23 -157 0 -128 -20 -184 -73 -205 -37 -16
-62 -8 -88 28 -32 42 -43 96 -39 191 4 93 24 155 59 182 25 20 25 20 65 12z"/>
<path d="M10579 1837 c-56 -37 -90 -119 -97 -226 -5 -104 7 -164 45 -222 33
-50 69 -69 128 -69 121 0 188 106 183 290 -4 166 -65 250 -181 250 -29 0 -55
-8 -78 -23z m134 -55 c50 -55 65 -210 32 -317 -28 -88 -93 -115 -148 -61 -28
28 -49 123 -42 190 15 150 45 206 108 206 20 0 41 -7 50 -18z"/>
<path d="M11022 1840 c-70 -43 -94 -85 -106 -180 -4 -29 -8 -55 -10 -59 -9
-15 17 -157 34 -191 39 -77 109 -108 189 -84 105 31 163 188 132 355 -28 144
-140 219 -239 159z m113 -56 c42 -42 50 -76 50 -199 0 -107 -3 -124 -23 -156
-31 -50 -70 -66 -111 -45 -49 26 -65 74 -64 196 1 113 22 187 60 209 27 15 69
13 88 -5z"/>
<path d="M11463 1845 c-98 -42 -146 -174 -123 -335 12 -81 45 -150 86 -177 36
-23 114 -29 150 -10 79 42 114 120 115 262 2 139 -31 219 -105 254 -49 24 -78
26 -123 6z m117 -85 c11 -15 24 -60 31 -99 20 -132 -9 -259 -64 -282 -60 -25
-109 18 -131 113 -25 108 12 277 65 296 36 14 78 2 99 -28z"/>
<path d="M11881 1837 c-74 -38 -108 -102 -118 -224 -12 -147 41 -278 121 -296
104 -25 190 29 221 138 21 70 16 229 -8 285 -43 100 -133 140 -216 97z m109
-65 c36 -37 51 -92 51 -193 0 -93 -22 -171 -54 -192 -45 -29 -64 -29 -97 0
-42 38 -58 111 -49 224 8 102 28 150 72 172 43 21 44 21 77 -11z"/>
<path d="M12283 1820 c-59 -43 -92 -123 -94 -226 -2 -100 7 -148 37 -201 38
-66 66 -83 140 -83 59 0 67 3 102 34 44 40 70 104 79 198 6 69 -9 173 -30 212
-54 97 -153 126 -234 66z m138 -47 c37 -45 44 -76 44 -192 -1 -136 -17 -183
-71 -209 -42 -20 -74 -6 -106 47 -19 31 -21 51 -21 146 0 99 2 115 26 162 15
28 32 53 39 56 29 12 76 6 89 -10z"/>
<path d="M16543 1808 c-61 -108 -83 -187 -83 -301 0 -112 13 -171 59 -260 36
-70 54 -86 87 -73 13 5 12 10 -6 36 -33 47 -70 168 -77 251 -9 125 18 243 76
334 26 41 26 45 -8 45 -22 0 -33 -8 -48 -32z"/>
<path d="M16735 1805 c-4 -20 -21 -242 -32 -431 -6 -108 -1 -120 43 -104 19 7
21 21 32 186 6 99 10 200 8 226 -3 30 0 50 7 54 7 4 9 4 5 -1 -4 -4 -4 -13 1
-19 4 -6 13 -33 20 -61 17 -74 85 -279 94 -283 4 -2 7 -12 7 -21 0 -10 5 -32
11 -50 10 -28 15 -32 41 -29 29 3 32 9 77 128 25 69 60 164 76 213 16 48 32
87 36 87 3 0 9 -91 13 -202 4 -112 9 -211 12 -220 6 -21 74 -26 74 -5 -1 76
-31 530 -35 537 -9 14 -82 12 -92 -2 -4 -7 -18 -40 -30 -73 -12 -33 -33 -91
-48 -130 -15 -38 -36 -99 -47 -135 -35 -111 -33 -110 -52 -29 -10 41 -38 130
-63 199 -69 195 -59 178 -109 182 -38 3 -45 0 -49 -17z"/>
<path d="M15773 1806 c-147 -47 -227 -192 -200 -366 23 -155 182 -221 297
-123 66 55 81 167 33 241 -15 23 -31 42 -36 42 -5 0 -15 7 -23 15 -24 23 -119
20 -160 -6 -41 -25 -44 -12 -9 47 30 52 93 91 153 97 49 5 49 4 54 37 3 22 -1
25 -32 27 -19 1 -54 -4 -77 -11z m42 -259 c29 -24 43 -92 31 -141 -9 -35 -56
-76 -87 -76 -57 0 -84 18 -102 68 -22 59 -21 91 0 122 27 39 45 49 90 50 30 0
50 -7 68 -23z"/>
<path d="M17450 1802 c-19 -9 -47 -36 -63 -59 -26 -37 -29 -46 -22 -89 8 -58
51 -102 137 -141 31 -14 65 -35 76 -47 39 -42 36 -100 -7 -133 -20 -16 -112
-16 -162 -1 -45 13 -49 11 -52 -27 -2 -26 2 -29 48 -42 59 -16 151 -10 199 12
92 44 111 173 36 243 -13 12 -52 36 -89 53 -84 41 -111 65 -111 99 0 69 77
106 157 77 41 -15 43 -15 53 3 18 34 11 49 -27 59 -56 16 -133 12 -173 -7z"/>
<path d="M18210 1812 c0 -5 8 -20 19 -33 10 -13 22 -35 26 -49 4 -14 11 -29
15 -35 12 -17 28 -96 35 -175 9 -99 -15 -214 -61 -298 -19 -34 -34 -65 -34
-68 0 -3 14 -4 32 -2 29 3 35 10 76 91 42 85 43 90 49 210 5 109 3 131 -16
193 -12 38 -34 92 -50 119 -23 42 -33 51 -59 53 -18 2 -32 -1 -32 -6z"/>
<path d="M3481 1792 c-8 -15 4 -33 69 -102 61 -64 77 -87 70 -99 -5 -9 -43
-49 -84 -90 -72 -70 -75 -75 -60 -92 21 -23 33 -17 109 61 91 92 82 93 174 -2
67 -70 83 -81 97 -72 29 17 27 28 -14 70 -21 21 -58 60 -82 87 l-43 47 79 80
c43 44 82 86 86 94 11 20 -21 38 -44 25 -26 -15 -138 -126 -138 -138 0 -28
-36 -5 -106 69 -42 44 -83 80 -90 80 -7 0 -18 -8 -23 -18z"/>
<path d="M17810 1800 c-13 -8 -16 -52 -18 -274 l-4 -264 29 -6 c119 -24 253 5
302 65 48 60 23 172 -46 209 l-32 17 42 34 c38 33 41 38 41 87 0 45 -4 57 -33
86 -18 18 -49 38 -70 45 -46 13 -190 14 -211 1z m175 -60 c62 -24 81 -80 42
-125 -19 -23 -35 -30 -83 -35 -32 -4 -62 -5 -66 -3 -10 5 -11 157 -1 166 10
10 78 8 108 -3z m27 -246 c34 -17 50 -54 46 -102 -4 -51 -42 -75 -123 -80
l-65 -4 0 99 c0 55 3 103 7 107 11 10 102 -3 135 -20z"/>
<path d="M4838 1702 c-20 -2 -28 -9 -28 -22 0 -10 4 -21 8 -24 5 -3 97 -8 205
-11 193 -6 196 -6 207 15 7 12 8 26 3 31 -8 8 -340 17 -395 11z"/>
<path d="M4810 1515 c0 -28 -18 -26 247 -30 160 -2 193 5 180 39 -6 14 -31 16
-217 16 l-210 0 0 -25z"/>
<path d="M1002 1498 c-15 -15 -15 -61 0 -76 7 -7 26 -12 44 -12 26 0 34 5 42
29 8 22 7 34 -4 50 -17 23 -63 28 -82 9z"/>
<path d="M5967 1446 c-16 -16 -11 -66 7 -78 6 -4 23 -8 39 -8 34 0 52 36 37
75 -7 19 -17 25 -39 25 -16 0 -36 -6 -44 -14z"/>
<path d="M10344 1404 c4 -11 -1 -18 -14 -21 -33 -9 -9 -62 28 -63 44 0 64 39
42 81 -13 24 -65 27 -56 3z"/>
</g>
</svg>
