<?xml version="1.0" standalone="no"?>
<!DOCTYPE svg PUBLIC "-//W3C//DTD SVG 20010904//EN"
 "http://www.w3.org/TR/2001/REC-SVG-20010904/DTD/svg10.dtd">
<svg version="1.0" xmlns="http://www.w3.org/2000/svg"
 width="494.000000pt" height="406.000000pt" viewBox="0 0 494.000000 406.000000"
 preserveAspectRatio="xMidYMid meet">

<g transform="translate(0.000000,406.000000) scale(0.100000,-0.100000)"
fill="#000000" stroke="none">
<path d="M982 3851 c-10 -6 -10 -10 3 -21 13 -11 15 -9 15 9 0 24 0 24 -18 12z"/>
<path d="M1960 3835 c0 -8 4 -15 9 -15 5 0 11 7 15 15 3 9 0 15 -9 15 -8 0
-15 -7 -15 -15z"/>
<path d="M1965 3780 c2 -27 15 -38 15 -12 0 11 -4 23 -8 26 -5 3 -8 -4 -7 -14z"/>
<path d="M2130 3676 c0 -57 4 -96 10 -96 6 0 10 18 10 41 0 38 1 40 28 37 22
-2 29 -10 36 -40 5 -21 15 -38 23 -38 17 0 16 12 -2 57 -14 33 -14 38 2 55 16
18 16 22 2 46 -12 22 -23 28 -62 30 l-47 3 0 -95z m87 58 c9 -24 -10 -49 -41
-52 -24 -3 -26 0 -26 32 0 33 2 36 30 36 19 0 33 -6 37 -16z"/>
<path d="M2810 3756 c0 -9 7 -16 16 -16 9 0 14 5 12 12 -6 18 -28 21 -28 4z"/>
<path d="M3132 3736 c4 -33 3 -34 -28 -29 -45 7 -76 -25 -71 -72 7 -59 40 -80
88 -55 13 7 19 7 19 0 0 -5 5 -10 10 -10 6 0 10 40 10 100 0 85 -2 100 -16
100 -13 0 -15 -8 -12 -34z m2 -61 c11 -8 14 -15 8 -15 -7 0 -12 -13 -12 -29 0
-34 -31 -51 -55 -31 -15 13 -21 71 -8 83 11 12 47 7 67 -8z"/>
<path d="M1962 3715 c-1 -14 2 -25 7 -25 5 0 9 11 9 25 0 14 -3 25 -7 25 -4 0
-8 -11 -9 -25z"/>
<path d="M980 3703 c-10 -12 -11 -18 -3 -20 9 -3 9 -12 2 -29 -13 -35 -11 -42
5 -19 7 11 13 35 13 53 0 17 -1 32 -1 32 -1 -1 -8 -8 -16 -17z"/>
<path d="M2302 3703 c-20 -18 -25 -35 -23 -81 1 -27 55 -54 89 -45 36 9 25 22
-20 25 -31 2 -44 8 -46 21 -3 14 4 17 47 17 58 0 64 11 30 54 -24 30 -48 33
-77 9z m66 -25 c3 -15 -4 -18 -32 -18 -38 0 -44 8 -24 28 17 17 52 11 56 -10z"/>
<path d="M2432 3649 c2 -41 7 -74 13 -74 5 0 8 19 7 42 -3 32 2 47 18 63 21
21 22 21 39 3 13 -14 16 -30 13 -65 -3 -31 -1 -48 6 -48 6 0 12 25 14 57 2 47
6 58 22 61 27 6 35 -7 37 -66 3 -56 21 -68 27 -17 10 79 -27 131 -71 102 -19
-12 -25 -12 -45 1 -18 12 -25 12 -37 2 -12 -10 -18 -10 -30 0 -14 12 -16 5
-13 -61z"/>
<path d="M2688 3713 c-10 -2 -18 -9 -18 -14 0 -6 8 -9 18 -8 36 3 52 -1 52
-16 0 -9 -9 -15 -24 -15 -45 0 -74 -53 -43 -78 6 -5 31 -9 53 -9 l42 2 0 47
c0 27 -4 51 -9 54 -5 3 -7 10 -4 15 5 7 -40 33 -48 28 -1 -1 -10 -3 -19 -6z
m52 -87 c0 -26 -34 -46 -51 -29 -14 14 0 41 24 46 12 2 23 5 25 6 1 0 2 -10 2
-23z"/>
<path d="M580 3700 c-17 -11 -10 -13 38 -10 30 1 32 0 32 -33 0 -28 -8 -44
-42 -76 -23 -23 -39 -43 -37 -45 11 -11 113 -9 117 2 2 8 -10 12 -39 12 l-43
0 31 33 c58 60 53 127 -10 127 -18 0 -39 -5 -47 -10z"/>
<path d="M1153 3698 c-28 -14 -30 -32 -3 -23 19 6 20 2 20 -74 0 -61 3 -81 14
-81 10 0 13 20 11 92 -1 51 -6 93 -11 94 -5 2 -19 -2 -31 -8z"/>
<path d="M1304 3702 c-35 -23 -46 -120 -18 -160 24 -35 69 -30 90 10 39 75
-15 188 -72 150z m46 -27 c13 -16 17 -105 6 -124 -11 -18 -44 -13 -56 8 -15
30 -12 97 6 115 19 20 28 20 44 1z"/>
<path d="M2810 3640 c0 -49 4 -70 13 -70 8 0 12 21 12 70 0 50 -3 70 -12 70
-9 0 -13 -20 -13 -70z"/>
<path d="M2880 3693 c0 -7 5 -13 12 -13 9 0 9 -3 0 -12 -14 -14 -16 -98 -3
-98 6 0 11 23 13 51 3 55 21 78 52 66 12 -5 16 -20 16 -62 0 -44 3 -55 16 -55
14 0 16 10 12 61 -3 38 -10 64 -19 69 -21 14 -99 8 -99 -7z"/>
<path d="M3216 3694 c-32 -32 -28 -92 8 -116 17 -11 86 -9 86 2 0 6 -15 10
-33 10 -34 0 -57 15 -57 37 0 9 15 13 45 13 40 0 45 2 45 23 0 13 -5 28 -12
35 -17 17 -64 15 -82 -4z m72 -26 c3 -15 -4 -18 -32 -18 -34 0 -47 15 -29 34
13 13 58 1 61 -16z"/>
<path d="M3349 3706 c-2 -2 -2 -34 -1 -70 4 -72 22 -92 22 -23 0 47 7 60 33
70 9 3 17 11 17 17 0 13 -27 13 -35 0 -5 -8 -11 -8 -19 -1 -7 6 -15 9 -17 7z"/>
<path d="M1436 3669 c-9 -46 -8 -49 17 -49 35 0 49 -15 45 -46 -3 -26 -7 -29
-41 -29 -23 0 -37 -5 -37 -12 0 -8 15 -13 40 -13 31 0 43 5 56 26 24 36 9 76
-34 89 -45 13 -39 39 11 43 52 4 47 22 -7 22 -41 0 -44 -2 -50 -31z"/>
<path d="M1962 3630 c-1 -16 1 -30 6 -30 4 0 9 14 10 30 1 17 -1 30 -6 30 -4
0 -9 -13 -10 -30z"/>
<path d="M975 3580 c-4 -6 -2 -17 4 -24 7 -9 7 -16 0 -23 -8 -8 -8 -20 -1 -40
8 -24 11 -26 17 -9 5 11 3 21 -5 26 -8 5 -9 9 -1 14 14 9 14 46 0 46 -5 0 -7
5 -4 10 3 6 4 10 1 10 -3 0 -8 -5 -11 -10z"/>
<path d="M1960 3580 c0 -5 5 -10 10 -10 6 0 10 5 10 10 0 6 -4 10 -10 10 -5 0
-10 -4 -10 -10z"/>
<path d="M1964 3509 c0 -27 3 -49 7 -49 9 0 10 88 1 94 -4 2 -7 -18 -8 -45z"/>
<path d="M993 3425 c12 -24 18 -25 66 -7 8 3 12 1 8 -4 -3 -6 12 -10 36 -11
33 0 37 1 17 7 -24 7 -23 7 10 12 19 2 -1 4 -44 4 -54 0 -81 3 -84 12 -2 7 -7
12 -12 12 -4 0 -3 -11 3 -25z"/>
<path d="M1960 3437 c0 -12 -8 -17 -27 -17 -16 1 -63 -1 -105 -3 -43 -2 -75 0
-72 4 3 5 0 9 -5 9 -6 0 -11 -4 -11 -10 0 -5 -12 -10 -26 -10 -14 0 -23 4 -19
10 3 6 2 10 -4 10 -5 0 -13 -4 -16 -10 -3 -5 -16 -10 -28 -9 -21 0 -21 1 -2 9
14 6 7 8 -25 6 -25 -1 -52 -5 -60 -9 -8 -3 -28 -8 -45 -10 -16 -2 75 -5 203
-6 200 -1 236 1 249 15 12 11 13 18 4 27 -8 8 -11 7 -11 -6z m-363 -23 c-3 -3
-12 -4 -19 -1 -8 3 -5 6 6 6 11 1 17 -2 13 -5z"/>
<path d="M418 3435 c-2 -3 -37 -6 -76 -7 -40 -1 -69 -5 -65 -9 10 -10 403 -18
403 -9 0 3 9 6 20 6 11 0 20 -3 20 -6 0 -3 40 -5 89 -5 52 0 87 3 84 9 -4 5 0
6 8 1 7 -5 25 -10 38 -11 20 -3 23 -1 11 7 -12 8 -10 9 8 4 12 -4 22 -2 22 4
0 6 -96 10 -271 11 -150 0 -275 2 -279 5 -4 2 -9 2 -12 0z"/>
<path d="M1172 3415 c-10 -12 -10 -15 1 -15 8 0 20 7 27 15 17 21 -10 20 -28
0z"/>
<path d="M1238 3423 c6 -2 18 -2 25 0 6 3 1 5 -13 5 -14 0 -19 -2 -12 -5z"/>
<path d="M1293 3423 c9 -2 17 -9 17 -14 0 -5 12 -8 28 -8 23 2 24 2 4 6 -12 2
-20 9 -17 14 4 5 -6 8 -22 8 -17 -1 -21 -3 -10 -6z"/>
<path d="M1408 3423 c7 -3 16 -2 19 1 4 3 -2 6 -13 5 -11 0 -14 -3 -6 -6z"/>
<path d="M2013 3422 c-13 -2 -23 -8 -23 -13 0 -6 86 -9 219 -8 120 1 223 -1
230 -5 6 -4 11 -3 11 3 0 6 11 7 28 2 25 -8 72 1 72 14 0 3 -100 5 -222 5
-123 0 -239 1 -258 3 -19 1 -45 1 -57 -1z"/>
<path d="M2560 3416 c0 -2 7 -6 15 -10 8 -3 15 -1 15 4 0 6 -7 10 -15 10 -8 0
-15 -2 -15 -4z"/>
<path d="M2628 3413 c18 -2 45 -2 60 0 15 2 0 4 -33 4 -33 0 -45 -2 -27 -4z"/>
<path d="M2754 3405 c16 -9 34 -14 40 -11 6 2 3 5 -6 5 -10 1 -18 6 -18 11 0
6 -10 10 -22 10 -21 0 -20 -2 6 -15z"/>
<path d="M2810 3405 c33 -19 45 -19 26 0 -8 8 -23 15 -33 15 -14 -1 -13 -4 7
-15z"/>
<path d="M2848 3413 c6 -2 18 -2 25 0 6 3 1 5 -13 5 -14 0 -19 -2 -12 -5z"/>
<path d="M2924 3404 c18 -17 26 -18 26 -1 0 7 -9 13 -20 14 -18 2 -18 0 -6
-13z"/>
<path d="M1218 3403 c6 -2 18 -2 25 0 6 3 1 5 -13 5 -14 0 -19 -2 -12 -5z"/>
<path d="M1278 3403 c7 -3 16 -2 19 1 4 3 -2 6 -13 5 -11 0 -14 -3 -6 -6z"/>
<path d="M1388 3403 c6 -2 18 -2 25 0 6 3 1 5 -13 5 -14 0 -19 -2 -12 -5z"/>
<path d="M1438 3403 c6 -2 18 -2 25 0 6 3 1 5 -13 5 -14 0 -19 -2 -12 -5z"/>
<path d="M977 3389 c9 -9 10 -16 2 -25 -8 -10 -7 -17 4 -28 13 -14 15 -12 14
19 -1 21 -7 37 -16 40 -13 5 -13 4 -4 -6z"/>
<path d="M2608 3393 c7 -3 16 -2 19 1 4 3 -2 6 -13 5 -11 0 -14 -3 -6 -6z"/>
<path d="M2718 3393 c7 -3 16 -2 19 1 4 3 -2 6 -13 5 -11 0 -14 -3 -6 -6z"/>
<path d="M2888 3393 c7 -3 16 -2 19 1 4 3 -2 6 -13 5 -11 0 -14 -3 -6 -6z"/>
<path d="M1960 3370 c0 -5 5 -10 10 -10 6 0 10 5 10 10 0 6 -4 10 -10 10 -5 0
-10 -4 -10 -10z"/>
<path d="M1966 3323 c-4 -9 -2 -21 4 -27 7 -7 10 -2 10 17 0 31 -5 34 -14 10z"/>
<path d="M970 3294 c0 -8 5 -12 10 -9 12 7 14 -18 3 -29 -12 -11 -10 -140 1
-148 6 -4 6 -11 -1 -20 -14 -19 -15 -94 0 -79 14 14 17 153 3 163 -6 4 -6 11
1 20 18 21 12 118 -7 118 -6 0 -10 -7 -10 -16z"/>
<path d="M1960 3270 c0 -8 5 -22 10 -30 9 -13 10 -13 10 0 0 8 -5 22 -10 30
-9 13 -10 13 -10 0z"/>
<path d="M577 3263 c-16 -15 -4 -21 33 -16 39 6 40 5 40 -26 0 -23 -11 -44
-41 -76 -23 -25 -40 -47 -38 -49 9 -9 109 -9 106 0 -1 5 -17 9 -35 10 -29 1
-61 14 -34 14 16 0 72 79 72 101 0 27 -28 49 -64 49 -18 0 -36 -3 -39 -7z"/>
<path d="M1286 3248 c-13 -48 -7 -68 18 -68 23 0 56 -23 56 -39 0 -24 -29 -43
-58 -39 -22 3 -32 0 -32 -9 0 -8 13 -13 35 -13 39 0 75 28 75 60 0 11 -9 29
-20 40 -11 11 -29 20 -40 20 -13 0 -20 7 -20 19 0 16 8 20 37 23 55 5 55 28 0
28 -38 0 -46 -3 -51 -22z"/>
<path d="M1438 3263 c-31 -8 -20 -26 12 -20 35 7 61 -13 53 -42 -3 -10 -25
-39 -49 -64 -24 -25 -44 -48 -44 -51 0 -3 27 -6 60 -6 33 0 60 4 60 10 0 6
-16 10 -35 10 -19 0 -35 3 -35 7 0 4 13 21 29 38 41 42 48 78 22 104 -20 20
-37 24 -73 14z"/>
<path d="M4270 3256 c0 -7 -13 -46 -30 -86 -16 -40 -30 -77 -30 -82 0 -5 12
-7 26 -6 l25 3 -1 -985 c0 -542 -2 -1130 -4 -1307 -4 -275 -2 -323 10 -323 11
0 14 23 15 118 1 64 3 243 4 397 2 154 4 691 4 1192 1 864 2 913 19 910 9 -1
23 -6 31 -11 8 -6 12 -5 10 1 -2 6 -17 52 -34 102 -27 82 -45 113 -45 77z"/>
<path d="M2128 3249 c-25 -14 -23 -32 2 -19 19 10 20 8 20 -70 0 -47 4 -80 10
-80 6 0 10 37 10 90 0 93 -4 101 -42 79z"/>
<path d="M1957 3200 c3 -11 9 -20 14 -20 5 0 9 9 9 20 0 11 -6 20 -14 20 -9 0
-12 -7 -9 -20z"/>
<path d="M1959 3151 c7 -5 10 -14 7 -20 -4 -6 -2 -11 3 -11 6 0 11 9 11 20 0
12 -7 20 -17 20 -14 0 -15 -2 -4 -9z"/>
<path d="M1950 3101 c0 -6 4 -11 9 -11 5 0 12 -8 15 -17 3 -11 4 -8 3 6 -2 24
-27 44 -27 22z"/>
<path d="M276 2984 c-5 -14 8 -15 124 -12 71 1 130 1 130 -2 0 -7 147 -3 166
4 8 3 13 2 10 -2 -2 -4 34 -7 80 -7 46 0 84 3 84 7 0 4 12 3 26 -3 15 -5 35
-7 45 -4 23 8 41 -30 32 -65 -5 -18 -3 -21 7 -15 10 6 12 4 7 -8 -3 -10 -2
-17 3 -17 5 0 8 16 7 35 -1 19 -5 35 -9 35 -4 0 -8 12 -10 28 l-3 27 -185 3
c-102 1 -243 4 -315 6 -72 1 -140 -1 -152 -6 -14 -4 -23 -4 -23 2 0 16 -17 11
-24 -6z"/>
<path d="M990 2990 c0 -12 26 -31 33 -23 12 11 7 21 -13 26 -11 3 -20 2 -20
-3z"/>
<path d="M1037 2977 c-4 -11 26 -13 151 -13 87 0 144 2 127 5 -29 5 -29 5 10
11 l40 7 -50 2 c-29 0 -57 -4 -64 -11 -11 -10 -13 -10 -7 0 5 8 0 12 -14 12
-12 0 -18 -4 -15 -10 3 -5 -1 -10 -9 -10 -8 0 -18 5 -21 10 -3 6 -16 10 -28 9
-21 0 -21 -1 -2 -9 19 -8 19 -9 -2 -9 -13 -1 -23 4 -23 9 0 6 -12 10 -27 10
-22 0 -25 -2 -13 -10 9 -6 10 -10 3 -10 -6 0 -15 5 -18 10 -9 14 -32 12 -38
-3z"/>
<path d="M1388 2983 c7 -3 16 -2 19 1 4 3 -2 6 -13 5 -11 0 -14 -3 -6 -6z"/>
<path d="M1420 2975 c-10 -12 -9 -15 4 -15 10 0 15 4 11 9 -3 5 3 12 12 14 15
4 15 5 2 6 -9 0 -22 -6 -29 -14z"/>
<path d="M1498 2983 c7 -3 16 -2 19 1 4 3 -2 6 -13 5 -11 0 -14 -3 -6 -6z"/>
<path d="M1548 2983 c7 -3 16 -2 19 1 4 3 -2 6 -13 5 -11 0 -14 -3 -6 -6z"/>
<path d="M1608 2983 c7 -3 16 -2 19 1 4 3 -2 6 -13 5 -11 0 -14 -3 -6 -6z"/>
<path d="M1674 2975 c11 -12 42 -15 146 -15 93 0 129 3 124 11 -4 6 -19 9 -36
5 -21 -4 -27 -2 -22 7 6 9 3 8 -8 -1 -11 -8 -18 -9 -22 -3 -4 6 -15 7 -30 1
-15 -5 -27 -5 -35 3 -8 8 -11 8 -11 -1 0 -8 -7 -9 -26 -2 -32 12 -37 12 -29 1
3 -6 -7 -6 -27 0 -42 12 -42 12 -24 -6z"/>
<path d="M1635 2970 c-4 -6 3 -10 14 -10 25 0 27 6 6 13 -8 4 -17 2 -20 -3z"/>
<path d="M1980 2970 c0 -6 7 -10 15 -10 8 0 15 2 15 4 0 2 -7 6 -15 10 -8 3
-15 1 -15 -4z"/>
<path d="M2020 2970 c0 -5 12 -10 26 -10 14 0 23 4 19 10 -3 6 -15 10 -26 10
-10 0 -19 -4 -19 -10z"/>
<path d="M2080 2969 c0 -5 69 -8 153 -8 83 -1 174 -3 202 -6 45 -5 48 -4 29 9
-15 11 -60 14 -202 14 -100 -1 -182 -5 -182 -9z"/>
<path d="M2493 2966 c10 -8 39 -14 65 -13 26 0 39 3 30 5 -10 2 -18 8 -18 13
0 5 -10 9 -22 9 -19 0 -20 -2 -8 -10 12 -8 11 -10 -7 -10 -13 0 -23 5 -23 10
0 6 -8 10 -17 10 -17 -1 -17 -2 0 -14z"/>
<path d="M2610 2965 c33 -19 45 -19 26 0 -8 8 -23 15 -33 15 -14 -1 -13 -4 7
-15z"/>
<path d="M2663 2965 c16 -8 39 -14 53 -13 29 3 33 28 4 28 -11 0 -20 -5 -20
-12 0 -9 -3 -9 -12 0 -7 7 -21 12 -32 12 -18 0 -16 -3 7 -15z"/>
<path d="M2753 2965 c0 -8 2 -15 4 -15 3 0 11 7 19 15 14 13 13 15 -4 15 -10
0 -19 -7 -19 -15z"/>
<path d="M2818 2973 c6 -2 18 -2 25 0 6 3 1 5 -13 5 -14 0 -19 -2 -12 -5z"/>
<path d="M2878 2973 c6 -2 18 -2 25 0 6 3 1 5 -13 5 -14 0 -19 -2 -12 -5z"/>
<path d="M2935 2971 c3 -5 -3 -12 -12 -15 -11 -3 -9 -4 6 -3 27 2 42 27 16 27
-9 0 -14 -4 -10 -9z"/>
<path d="M1368 2963 c7 -3 16 -2 19 1 4 3 -2 6 -13 5 -11 0 -14 -3 -6 -6z"/>
<path d="M1468 2963 c6 -2 18 -2 25 0 6 3 1 5 -13 5 -14 0 -19 -2 -12 -5z"/>
<path d="M1543 2963 c15 -2 39 -2 55 0 15 2 2 4 -28 4 -30 0 -43 -2 -27 -4z"/>
<path d="M2808 2953 c7 -3 16 -2 19 1 4 3 -2 6 -13 5 -11 0 -14 -3 -6 -6z"/>
<path d="M2858 2953 c6 -2 18 -2 25 0 6 3 1 5 -13 5 -14 0 -19 -2 -12 -5z"/>
<path d="M1965 2920 c-3 -5 -1 -10 4 -10 6 0 11 5 11 10 0 6 -2 10 -4 10 -3 0
-8 -4 -11 -10z"/>
<path d="M1971 2864 c0 -11 3 -14 6 -6 3 7 2 16 -1 19 -3 4 -6 -2 -5 -13z"/>
<path d="M970 2842 c0 -5 7 -13 16 -16 10 -4 14 -1 12 6 -5 15 -28 23 -28 10z"/>
<path d="M575 2822 c-13 -13 -2 -19 33 -18 33 1 37 -2 40 -26 3 -21 -7 -39
-44 -78 l-47 -50 57 0 c31 0 58 0 61 0 3 0 5 3 5 8 0 4 -16 7 -35 7 -41 0 -44
10 -11 36 33 26 51 81 36 108 -8 16 -20 20 -50 19 -22 -1 -42 -4 -45 -6z"/>
<path d="M1283 2823 c-26 -10 -12 -22 25 -20 35 2 37 0 40 -29 2 -25 -5 -38
-42 -75 -26 -24 -46 -47 -46 -51 0 -5 27 -8 60 -8 33 0 60 4 60 10 0 6 -16 10
-35 10 -19 0 -35 3 -35 6 0 4 13 22 30 40 39 45 47 79 25 104 -17 19 -54 25
-82 13z"/>
<path d="M1475 2821 c-39 -16 -59 -49 -59 -100 -1 -59 15 -81 60 -81 26 0 36
6 47 28 27 52 3 96 -50 90 -18 -2 -33 -1 -33 3 0 12 51 49 66 49 8 0 14 5 14
10 0 12 -17 12 -45 1z m31 -106 c10 -39 -2 -57 -33 -53 -47 5 -45 78 1 78 19
0 27 -7 32 -25z"/>
<path d="M1950 2823 c0 -5 5 -14 12 -21 8 -8 8 -15 -1 -25 -9 -12 -8 -16 3
-20 11 -4 14 3 12 30 0 20 -7 38 -13 41 -7 2 -13 0 -13 -5z"/>
<path d="M2134 2818 c-39 -18 -56 -86 -34 -142 18 -47 73 -56 98 -15 14 22 18
94 8 126 -9 27 -45 43 -72 31z m56 -89 c0 -45 -17 -79 -40 -79 -5 0 -17 14
-25 30 -18 35 -12 92 12 116 14 13 17 13 34 -2 14 -12 19 -31 19 -65z"/>
<path d="M975 2796 c-5 -11 -3 -21 6 -26 19 -12 21 -7 10 21 -8 22 -10 22 -16
5z"/>
<path d="M970 2732 c0 -13 4 -21 9 -18 5 4 12 0 14 -6 3 -7 6 -8 6 -2 1 5 -6
19 -14 30 -14 18 -14 18 -15 -4z"/>
<path d="M1965 2727 c-14 -16 -15 -91 -1 -77 7 7 19 91 12 90 0 -1 -5 -6 -11
-13z"/>
<path d="M972 2625 c1 -37 5 -65 11 -65 6 0 7 3 4 7 -4 3 -2 13 5 20 9 11 9
16 -1 22 -15 10 -16 22 -2 30 6 4 8 17 4 29 -11 43 -22 21 -21 -43z"/>
<path d="M1962 2619 c-12 -18 -11 -24 0 -35 12 -12 14 -9 14 21 0 19 0 35 -1
35 0 0 -6 -10 -13 -21z"/>
<path d="M291 2549 c-11 -5 -21 -11 -21 -14 0 -3 62 -6 138 -6 75 0 221 -1
325 -3 103 -2 187 0 187 4 0 18 49 -17 55 -37 3 -13 10 -23 15 -23 15 0 12 15
-10 43 -15 18 -17 27 -8 30 7 3 -117 6 -277 7 -159 0 -311 2 -336 4 -25 1 -56
-1 -68 -5z"/>
<path d="M993 2536 c2 -7 40 -11 108 -11 57 -1 94 1 81 3 -12 2 -20 8 -16 13
4 6 -28 9 -85 8 -63 -1 -91 -5 -88 -13z m144 -2 c-3 -3 -12 -4 -19 -1 -8 3 -5
6 6 6 11 1 17 -2 13 -5z"/>
<path d="M1198 2542 c12 -2 22 -8 22 -13 0 -5 14 -9 30 -9 19 0 30 5 30 14 0
11 -13 15 -52 14 -29 -1 -43 -3 -30 -6z m59 -8 c-3 -3 -12 -4 -19 -1 -8 3 -5
6 6 6 11 1 17 -2 13 -5z"/>
<path d="M1313 2543 c9 -2 17 -9 17 -14 0 -15 43 -7 48 9 2 6 -4 12 -15 12
-15 0 -16 -2 -3 -10 9 -6 10 -10 3 -10 -6 0 -15 5 -18 10 -3 6 -16 9 -28 9
-17 -1 -18 -2 -4 -6z"/>
<path d="M1397 2543 c-18 -17 -1 -23 64 -23 44 0 68 4 64 10 -3 6 -2 10 4 10
5 0 13 -4 16 -10 8 -12 384 -13 403 -1 10 6 9 10 -7 14 -12 3 -24 1 -27 -4 -3
-5 -10 -6 -16 -3 -17 10 -88 13 -88 3 0 -5 -12 -4 -26 1 -34 13 -47 13 -38 -2
5 -7 3 -8 -7 -3 -20 13 -160 15 -153 3 4 -7 0 -7 -12 0 -24 12 -112 13 -120 1
-3 -5 -10 -9 -15 -9 -6 0 -7 5 -4 10 7 11 -28 14 -38 3z"/>
<path d="M2063 2542 c-61 -2 -83 -6 -87 -18 -3 -8 -1 -12 4 -9 11 7 263 8 328
2 24 -2 60 2 80 9 l37 13 -43 1 c-26 0 -41 -4 -37 -10 3 -5 1 -10 -4 -10 -6 0
-11 5 -11 11 0 7 -31 9 -90 7 -50 -2 -91 -1 -93 2 -1 3 -39 4 -84 2z"/>
<path d="M2473 2533 c9 -2 17 -9 17 -14 0 -5 10 -9 23 -9 20 0 20 1 -7 15 -15
8 -33 14 -40 14 -6 -1 -3 -3 7 -6z"/>
<path d="M2518 2533 c7 -3 16 -2 19 1 4 3 -2 6 -13 5 -11 0 -14 -3 -6 -6z"/>
<path d="M2569 2531 c11 -7 9 -10 -10 -14 -23 -4 -23 -4 2 -6 16 0 29 5 33 14
4 11 -1 15 -17 15 -17 0 -19 -2 -8 -9z"/>
<path d="M2628 2533 c7 -3 16 -2 19 1 4 3 -2 6 -13 5 -11 0 -14 -3 -6 -6z"/>
<path d="M2688 2533 c7 -3 16 -2 19 1 4 3 -2 6 -13 5 -11 0 -14 -3 -6 -6z"/>
<path d="M2858 2533 c7 -3 16 -2 19 1 4 3 -2 6 -13 5 -11 0 -14 -3 -6 -6z"/>
<path d="M2919 2532 c9 -7 -31 -11 -119 -11 -74 -1 -136 -4 -139 -6 -2 -3 62
-5 143 -5 114 0 147 3 144 13 -3 6 -13 13 -24 15 -15 2 -16 1 -5 -6z"/>
<path d="M1298 2523 c7 -3 16 -2 19 1 4 3 -2 6 -13 5 -11 0 -14 -3 -6 -6z"/>
<path d="M2448 2513 c7 -3 16 -2 19 1 4 3 -2 6 -13 5 -11 0 -14 -3 -6 -6z"/>
<path d="M2613 2513 c9 -2 23 -2 30 0 6 3 -1 5 -18 5 -16 0 -22 -2 -12 -5z"/>
<path d="M970 2439 c0 -11 5 -17 10 -14 6 3 10 13 10 21 0 8 -4 14 -10 14 -5
0 -10 -9 -10 -21z"/>
<path d="M1971 2404 c0 -11 3 -14 6 -6 3 7 2 16 -1 19 -3 4 -6 -2 -5 -13z"/>
<path d="M970 2390 c0 -5 5 -10 10 -10 6 0 10 5 10 10 0 6 -4 10 -10 10 -5 0
-10 -4 -10 -10z"/>
<path d="M583 2383 c-26 -10 -12 -20 25 -19 33 1 37 -2 40 -26 3 -21 -7 -39
-44 -78 -26 -27 -45 -50 -43 -51 2 0 30 -2 62 -5 48 -4 57 -2 57 11 0 12 -9
16 -32 15 -51 -3 -51 -2 -13 35 28 29 35 43 35 74 0 26 -5 41 -16 45 -18 7
-53 7 -71 -1z"/>
<path d="M1438 2383 c-28 -7 -21 -26 8 -20 32 6 60 -19 43 -39 -6 -8 -20 -14
-30 -14 -11 0 -19 -4 -19 -10 0 -5 8 -10 19 -10 24 0 44 -24 39 -47 -3 -14
-13 -18 -43 -19 -22 0 -40 -5 -40 -10 0 -14 74 -17 91 -3 20 16 18 66 -3 79
-17 10 -17 10 0 20 24 15 21 46 -5 64 -23 16 -29 17 -60 9z"/>
<path d="M1950 2380 c0 -5 5 -10 11 -10 5 0 7 5 4 10 -3 6 -8 10 -11 10 -2 0
-4 -4 -4 -10z"/>
<path d="M1293 2373 c-21 -8 -14 -25 7 -18 19 6 20 2 20 -74 0 -47 4 -81 10
-81 6 0 10 37 10 90 0 94 -4 101 -47 83z"/>
<path d="M2105 2349 c-17 -32 -17 -118 0 -109 6 3 9 18 7 34 -8 65 42 114 68
67 27 -51 -8 -152 -42 -123 -14 11 -28 7 -28 -9 0 -10 37 -18 59 -12 39 10 56
117 25 161 -24 34 -69 30 -89 -9z"/>
<path d="M1965 2350 c-3 -5 -1 -10 4 -10 6 0 11 5 11 10 0 6 -2 10 -4 10 -3 0
-8 -4 -11 -10z"/>
<path d="M972 2326 c1 -14 7 -22 14 -19 13 5 7 43 -7 43 -5 0 -8 -11 -7 -24z"/>
<path d="M1950 2326 c0 -4 5 -16 10 -26 7 -13 7 -21 0 -25 -14 -8 -13 -22 3
-28 8 -3 12 6 12 29 0 18 -6 39 -12 45 -7 7 -13 10 -13 5z"/>
<path d="M970 2276 c0 -8 5 -18 10 -21 6 -3 10 1 10 9 0 8 -4 18 -10 21 -5 3
-10 -1 -10 -9z"/>
<path d="M972 2187 c0 -28 0 -58 -1 -64 -1 -8 -17 -13 -45 -13 -30 0 -46 -5
-50 -15 -3 -8 -1 -15 4 -15 6 0 10 3 10 8 0 4 18 6 40 6 23 -1 40 3 40 9 0 7
4 7 12 -1 15 -15 38 -16 38 -2 0 6 -8 10 -18 10 -16 0 -18 8 -17 60 2 33 -1
62 -5 65 -4 3 -8 -19 -8 -48z"/>
<path d="M1957 2216 c-4 -11 -3 -24 3 -30 14 -14 18 -5 10 24 -5 23 -7 23 -13
6z"/>
<path d="M1953 2154 c-6 -16 16 -38 27 -27 3 3 0 8 -7 10 -7 2 -9 11 -6 19 3
8 2 14 -1 14 -4 0 -9 -7 -13 -16z"/>
<path d="M270 2101 c0 -12 265 -19 298 -9 12 4 22 3 22 -2 0 -6 5 -10 11 -10
5 0 7 5 3 11 -4 7 0 9 14 5 11 -4 23 -3 26 2 3 6 -73 10 -184 11 -115 1 -190
-3 -190 -8z"/>
<path d="M666 2099 c3 -6 17 -8 31 -4 14 3 22 2 20 -2 -3 -4 8 -8 23 -8 15 0
26 4 23 9 -5 7 17 3 56 -12 9 -3 12 -1 8 5 -5 7 0 9 13 6 11 -3 20 0 20 6 0 7
-33 11 -101 11 -69 0 -98 -3 -93 -11z"/>
<path d="M1043 2095 c0 -18 18 -19 36 -2 11 10 13 10 7 0 -10 -19 29 -16 44 2
11 13 6 15 -37 15 -37 0 -50 -4 -50 -15z"/>
<path d="M1165 2100 c3 -5 12 -7 20 -3 21 7 19 13 -6 13 -11 0 -18 -4 -14 -10z"/>
<path d="M1234 2095 c8 -8 23 -15 33 -15 13 0 10 4 -11 15 -36 19 -41 19 -22
0z"/>
<path d="M1316 2095 c-18 -14 -15 -15 35 -14 37 0 48 3 34 8 -11 5 -23 7 -27
4 -5 -2 -8 1 -8 6 0 15 -11 13 -34 -4z"/>
<path d="M1388 2103 c6 -2 18 -2 25 0 6 3 1 5 -13 5 -14 0 -19 -2 -12 -5z"/>
<path d="M1448 2103 c7 -3 16 -2 19 1 4 3 -2 6 -13 5 -11 0 -14 -3 -6 -6z"/>
<path d="M1490 2102 c-26 -9 -5 -21 35 -20 24 0 42 4 39 9 -3 5 0 9 5 9 6 0
11 -4 11 -9 0 -6 22 -10 50 -9 27 0 48 4 45 8 -3 5 -1 10 5 12 5 1 -33 3 -85
3 -52 0 -99 -1 -105 -3z"/>
<path d="M1714 2095 c-18 -14 -18 -14 4 -15 13 0 20 4 17 10 -3 6 -1 10 4 10
6 0 11 -4 11 -10 0 -6 42 -10 106 -10 61 0 103 4 100 9 -4 5 -2 11 4 13 5 1
-30 3 -79 3 -49 0 -87 -3 -84 -7 2 -5 -5 -8 -16 -8 -11 0 -23 5 -26 10 -8 14
-18 13 -41 -5z"/>
<path d="M1975 2092 c-3 -3 -5 -12 -5 -21 0 -13 2 -13 9 -3 5 9 27 14 60 14
28 -1 51 3 51 9 0 9 -105 11 -115 1z"/>
<path d="M2100 2090 c0 -16 188 -16 205 1 5 5 -32 9 -98 9 -65 0 -107 -4 -107
-10z"/>
<path d="M2320 2083 c0 -11 4 -11 21 -3 20 11 44 9 86 -7 17 -6 17 -6 1 10
-21 22 -108 21 -108 0z"/>
<path d="M2454 2083 c25 -13 32 -13 59 1 l32 16 -59 -2 c-58 -1 -59 -1 -32
-15z"/>
<path d="M2564 2085 c11 -8 27 -14 35 -14 13 1 12 2 -1 6 -10 2 -18 9 -18 14
0 5 -8 9 -17 9 -16 -1 -16 -2 1 -15z"/>
<path d="M2608 2093 c6 -2 18 -2 25 0 6 3 1 5 -13 5 -14 0 -19 -2 -12 -5z"/>
<path d="M2668 2093 c6 -2 18 -2 25 0 6 3 1 5 -13 5 -14 0 -19 -2 -12 -5z"/>
<path d="M2778 2093 c7 -3 16 -2 19 1 4 3 -2 6 -13 5 -11 0 -14 -3 -6 -6z"/>
<path d="M2838 2093 c7 -3 16 -2 19 1 4 3 -2 6 -13 5 -11 0 -14 -3 -6 -6z"/>
<path d="M2904 2085 c37 -19 46 -19 46 3 0 14 -2 15 -10 2 -7 -12 -12 -12 -22
-2 -6 6 -19 12 -27 12 -9 0 -3 -7 13 -15z"/>
<path d="M1198 2083 c7 -3 16 -2 19 1 4 3 -2 6 -13 5 -11 0 -14 -3 -6 -6z"/>
<path d="M1433 2083 c9 -2 23 -2 30 0 6 3 -1 5 -18 5 -16 0 -22 -2 -12 -5z"/>
<path d="M971 2071 c-10 -6 -10 -10 -1 -16 13 -8 24 -1 19 14 -3 6 -10 7 -18
2z"/>
<path d="M2698 2073 c7 -3 16 -2 19 1 4 3 -2 6 -13 5 -11 0 -14 -3 -6 -6z"/>
<path d="M2748 2073 c6 -2 18 -2 25 0 6 3 1 5 -13 5 -14 0 -19 -2 -12 -5z"/>
<path d="M2808 2073 c6 -2 18 -2 25 0 6 3 1 5 -13 5 -14 0 -19 -2 -12 -5z"/>
<path d="M1950 2034 c0 -8 5 -12 10 -9 6 3 10 10 10 16 0 5 -4 9 -10 9 -5 0
-10 -7 -10 -16z"/>
<path d="M975 2030 c3 -5 8 -10 11 -10 2 0 4 5 4 10 0 6 -5 10 -11 10 -5 0 -7
-4 -4 -10z"/>
<path d="M977 1993 c-4 -3 -7 -11 -7 -17 0 -6 5 -5 12 2 6 6 9 14 7 17 -3 3
-9 2 -12 -2z"/>
<path d="M1950 1978 c0 -18 5 -28 15 -28 19 0 19 11 0 36 -14 18 -14 18 -15
-8z"/>
<path d="M577 1943 c-15 -14 -5 -20 31 -19 31 1 38 -3 40 -21 2 -12 -4 -33
-14 -48 -22 -34 -8 -47 16 -15 22 28 26 80 8 98 -13 13 -70 17 -81 5z"/>
<path d="M974 1931 c0 -11 4 -17 8 -15 10 7 10 34 0 34 -4 0 -8 -9 -8 -19z"/>
<path d="M1474 1939 c-56 -16 -87 -125 -46 -162 41 -37 102 -11 102 43 0 40
-26 63 -62 56 -43 -9 -35 19 12 40 22 10 40 21 40 26 0 9 -5 9 -46 -3z m26
-94 c15 -18 6 -61 -14 -68 -19 -7 -56 20 -56 42 0 37 46 55 70 26z"/>
<path d="M1959 1938 c-7 -24 -5 -38 6 -38 8 0 11 7 8 20 -5 17 -11 26 -14 18z"/>
<path d="M2122 1928 c-17 -17 -15 -27 6 -22 15 5 17 -3 14 -70 -3 -64 -1 -76
12 -76 13 0 16 15 16 90 0 80 -2 90 -18 90 -10 0 -23 -5 -30 -12z"/>
<path d="M974 1889 c-3 -6 -1 -16 5 -22 8 -8 11 -5 11 11 0 24 -5 28 -16 11z"/>
<path d="M1950 1857 c0 -27 13 -36 26 -16 3 6 -1 18 -10 27 -15 15 -16 14 -16
-11z"/>
<path d="M970 1831 c0 -12 5 -21 10 -21 6 0 10 6 10 14 0 8 -4 18 -10 21 -5 3
-10 -3 -10 -14z"/>
<path d="M1950 1806 c0 -9 5 -16 10 -16 6 0 10 4 10 9 0 6 -4 13 -10 16 -5 3
-10 -1 -10 -9z"/>
<path d="M577 1792 c-10 -10 -17 -20 -17 -23 0 -8 120 -7 120 2 0 9 -39 22
-56 18 -21 -4 -28 2 -14 11 13 8 13 10 -1 10 -9 0 -23 -8 -32 -18z"/>
<path d="M970 1771 c0 -11 5 -23 10 -26 6 -3 10 3 10 14 0 11 -4 23 -10 26 -5
3 -10 -3 -10 -14z"/>
<path d="M1950 1758 c0 -8 7 -21 15 -28 19 -16 19 -1 0 24 -12 16 -15 17 -15
4z"/>
<path d="M968 1714 c2 -13 8 -24 13 -24 14 0 10 37 -4 43 -10 4 -13 -2 -9 -19z"/>
<path d="M1950 1704 c0 -8 7 -22 15 -31 8 -8 13 -19 10 -24 -4 -5 57 -9 149
-9 97 0 156 4 156 10 0 8 -102 16 -134 11 -12 -2 -105 -4 -138 -2 -19 1 -29 8
-37 31 -11 33 -21 39 -21 14z"/>
<path d="M270 1661 c0 -14 1 -14 10 -1 6 9 10 10 10 3 0 -11 35 -13 403 -16
82 -1 131 3 138 10 9 9 -4 12 -47 13 -33 0 -98 2 -146 3 -49 1 -88 -1 -88 -5
0 -4 -9 -6 -20 -5 -11 1 -20 4 -20 7 0 3 -54 6 -120 6 -102 0 -120 -2 -120
-15z"/>
<path d="M1044 1668 c-3 -4 -11 -5 -19 -2 -17 7 -55 -13 -55 -29 0 -9 2 -9 8
0 9 14 31 16 115 9 36 -3 57 -1 57 6 0 7 4 7 13 1 6 -5 57 -10 112 -11 92 -1
98 0 75 13 -29 17 -66 21 -40 5 12 -8 9 -10 -13 -10 -16 0 -26 4 -22 9 3 6
-42 11 -111 13 -64 2 -118 0 -120 -4z m209 -15 c-7 -2 -19 -2 -25 0 -7 3 -2 5
12 5 14 0 19 -2 13 -5z"/>
<path d="M850 1656 c0 -7 19 -11 51 -9 75 3 83 20 10 20 -38 0 -61 -4 -61 -11z"/>
<path d="M1368 1663 c7 -3 16 -2 19 1 4 3 -2 6 -13 5 -11 0 -14 -3 -6 -6z"/>
<path d="M1418 1663 c7 -3 16 -2 19 1 4 3 -2 6 -13 5 -11 0 -14 -3 -6 -6z"/>
<path d="M1478 1663 c7 -3 16 -2 19 1 4 3 -2 6 -13 5 -11 0 -14 -3 -6 -6z"/>
<path d="M1550 1661 c8 -3 -28 -9 -80 -12 -56 -3 22 -6 191 -7 212 -2 288 -5
298 -14 10 -11 11 -10 6 5 -4 10 -18 17 -34 18 -23 0 -24 1 -6 8 12 5 -6 8
-47 7 -36 -1 -61 -4 -55 -8 6 -4 -5 -6 -25 -5 -20 1 -34 4 -33 8 2 3 -13 5
-33 6 -30 0 -33 -1 -17 -8 16 -8 14 -8 -10 -5 -16 3 -39 8 -49 12 -15 6 -17 4
-11 -6 6 -10 4 -12 -8 -7 -10 4 -25 10 -34 13 -16 5 -16 4 -3 -6 13 -10 12
-11 -5 -7 -38 10 -60 14 -45 8z"/>
<path d="M2303 1649 c10 -6 25 -8 33 -5 8 3 14 2 14 -2 0 -14 183 -10 197 4
11 11 -10 13 -124 13 -101 0 -133 -3 -120 -10z m224 -5 c-3 -3 -12 -4 -19 -1
-8 3 -5 6 6 6 11 1 17 -2 13 -5z"/>
<path d="M2585 1651 c11 -5 26 -6 34 -3 9 3 12 1 7 -6 -4 -7 -2 -12 3 -12 6 0
11 5 11 10 0 7 7 7 21 0 11 -6 25 -9 32 -6 7 2 3 6 -8 7 -11 1 7 5 40 9 51 6
43 7 -50 8 -63 0 -101 -3 -90 -7z"/>
<path d="M2798 1653 c6 -2 18 -2 25 0 6 3 1 5 -13 5 -14 0 -19 -2 -12 -5z"/>
<path d="M2858 1653 c6 -2 18 -2 25 0 6 3 1 5 -13 5 -14 0 -19 -2 -12 -5z"/>
<path d="M2924 1645 c8 -8 17 -15 20 -15 3 0 6 7 6 15 0 9 -9 15 -21 15 -18 0
-19 -2 -5 -15z"/>
<path d="M2568 1633 c7 -3 16 -2 19 1 4 3 -2 6 -13 5 -11 0 -14 -3 -6 -6z"/>
<path d="M2728 1633 c7 -3 16 -2 19 1 4 3 -2 6 -13 5 -11 0 -14 -3 -6 -6z"/>
<path d="M2788 1633 c7 -3 16 -2 19 1 4 3 -2 6 -13 5 -11 0 -14 -3 -6 -6z"/>
<path d="M2848 1633 c7 -3 16 -2 19 1 4 3 -2 6 -13 5 -11 0 -14 -3 -6 -6z"/>
<path d="M2898 1633 c7 -3 16 -2 19 1 4 3 -2 6 -13 5 -11 0 -14 -3 -6 -6z"/>
<path d="M970 1600 c13 -23 20 -26 20 -6 0 8 -7 16 -15 20 -13 4 -14 2 -5 -14z"/>
<path d="M1950 1578 c0 -19 2 -20 10 -8 13 19 13 30 0 30 -5 0 -10 -10 -10
-22z"/>
<path d="M970 1534 c0 -8 5 -12 10 -9 6 3 10 10 10 16 0 5 -4 9 -10 9 -5 0
-10 -7 -10 -16z"/>
<path d="M1954 1524 c3 -9 6 -18 6 -20 0 -3 4 -3 10 1 11 7 2 35 -12 35 -6 0
-7 -7 -4 -16z"/>
<path d="M577 1503 c-16 -15 -5 -21 27 -16 28 4 35 2 40 -15 10 -29 -9 -67
-48 -99 -53 -41 -47 -53 25 -53 44 0 59 3 56 13 -2 7 -19 11 -41 10 -20 -1
-36 0 -36 4 0 3 16 23 35 44 37 41 43 72 21 102 -13 17 -66 24 -79 10z"/>
<path d="M1433 1503 c-21 -8 -15 -26 7 -20 26 7 55 -16 47 -37 -4 -9 -17 -16
-32 -16 -14 0 -25 -4 -25 -10 0 -5 8 -10 18 -10 32 0 55 -24 47 -49 -6 -20
-13 -22 -46 -19 -27 2 -39 0 -39 -9 0 -17 82 -17 98 -1 17 17 15 59 -5 73 -16
12 -16 14 0 29 22 22 21 32 -3 56 -19 19 -42 24 -67 13z"/>
<path d="M970 1486 c0 -8 -3 -22 -7 -32 -5 -12 -3 -15 6 -9 10 6 11 2 6 -15
-4 -14 -3 -20 3 -17 12 8 13 87 1 87 -5 0 -9 -6 -9 -14z"/>
<path d="M2110 1480 c-11 -11 -20 -27 -21 -35 -3 -40 -2 -52 4 -82 12 -60 84
-69 107 -14 9 23 10 86 1 118 -1 1 -8 9 -17 17 -21 22 -50 20 -74 -4z m70 -41
c13 -46 3 -87 -24 -103 -24 -15 -46 16 -46 67 0 82 51 109 70 36z"/>
<path d="M1950 1436 c0 -31 4 -55 9 -52 10 7 9 91 -1 102 -5 4 -8 -18 -8 -50z"/>
<path d="M969 1394 c6 -3 8 -11 5 -19 -3 -7 0 -16 6 -20 8 -5 11 0 8 16 -1 12
-9 24 -16 25 -7 1 -8 0 -3 -2z"/>
<path d="M1950 1356 c0 -9 5 -16 10 -16 6 0 10 4 10 9 0 6 -4 13 -10 16 -5 3
-10 -1 -10 -9z"/>
<path d="M960 1330 c0 -5 7 -10 16 -10 8 0 12 5 9 10 -3 6 -10 10 -16 10 -5 0
-9 -4 -9 -10z"/>
<path d="M1954 1305 c-1 -14 2 -25 7 -25 5 0 9 11 9 25 0 33 -15 33 -16 0z"/>
<path d="M969 1298 c-1 -7 -2 -24 -3 -38 -1 -25 -2 -25 -99 -28 -59 -2 -95 -7
-92 -12 4 -6 1 -10 -4 -10 -6 0 -11 4 -11 10 0 6 -91 9 -245 9 -154 0 -245 -4
-245 -11 0 -6 32 -8 80 -6 44 2 80 0 80 -4 0 -4 6 -5 13 -2 22 8 98 10 103 3
2 -4 17 -4 32 0 15 4 38 5 52 2 34 -8 149 -6 179 3 17 6 22 5 16 -4 -7 -12 7
-10 54 8 10 4 12 1 6 -8 -6 -10 -4 -11 6 -4 21 13 51 16 44 4 -3 -5 1 -10 9
-10 8 0 18 5 21 10 3 6 12 10 18 10 9 0 9 -2 1 -8 -19 -12 -28 -54 -13 -63 10
-6 11 -11 3 -16 -6 -5 -10 -25 -10 -45 0 -31 2 -34 13 -20 15 20 17 46 3 37
-14 -9 -13 8 2 23 9 9 9 15 0 24 -7 7 -12 15 -12 20 0 13 50 41 88 49 32 6 28
7 -27 8 -49 1 -61 4 -53 14 11 13 11 67 0 67 -5 0 -9 -6 -9 -12z"/>
<path d="M1950 1247 c0 -27 35 -45 93 -49 31 -1 57 1 57 5 0 5 5 5 11 1 13 -8
109 -11 104 -3 -2 3 12 6 32 6 20 1 31 -2 25 -6 -6 -4 8 -7 31 -8 l42 -2 -32
14 c-23 10 -75 14 -177 13 -148 0 -166 3 -166 28 0 8 -4 14 -10 14 -5 0 -10
-6 -10 -13z"/>
<path d="M1115 1221 l20 -8 -20 -5 c-14 -4 -15 -6 -4 -7 9 0 22 6 29 14 11 13
8 15 -16 14 -25 0 -26 -2 -9 -8z"/>
<path d="M1160 1216 c-8 -11 4 -14 66 -15 49 -1 73 2 69 9 -3 5 -1 10 4 10 6
0 11 -4 11 -10 0 -6 62 -10 165 -10 151 0 165 2 165 18 0 12 -2 14 -8 4 -7
-10 -15 -10 -36 -2 -16 6 -25 6 -21 0 3 -5 -7 -8 -24 -7 -16 1 -27 5 -24 10 2
4 0 7 -6 7 -5 0 -13 -5 -16 -10 -4 -7 -12 -7 -25 0 -24 13 -40 13 -20 0 13 -8
13 -10 -1 -10 -9 0 -19 3 -23 8 -11 10 -206 10 -206 0 0 -5 -4 -6 -10 -3 -21
13 -49 13 -60 1z"/>
<path d="M1663 1223 c-40 -16 3 -23 137 -23 143 0 150 -1 150 -20 0 -11 5 -20
10 -20 14 0 12 21 -3 41 -9 12 -33 16 -102 18 -49 1 -99 4 -110 7 -17 4 -18 3
-5 -6 12 -9 10 -10 -12 -6 -14 3 -32 8 -40 10 -7 3 -19 2 -25 -1z"/>
<path d="M2344 1205 c18 -18 38 -19 54 -3 9 9 12 9 12 0 0 -7 10 -12 23 -12
19 0 17 3 -11 17 -29 14 -35 14 -44 2 -7 -11 -11 -11 -15 -1 -2 6 -11 12 -20
12 -13 0 -13 -2 1 -15z"/>
<path d="M2448 1213 c7 -3 16 -2 19 1 4 3 -2 6 -13 5 -11 0 -14 -3 -6 -6z"/>
<path d="M2508 1213 c12 -2 22 -9 22 -14 0 -16 80 -10 98 8 16 15 15 16 -10
10 -14 -4 -34 -10 -44 -14 -12 -4 -15 -3 -10 5 4 7 2 12 -3 12 -6 0 -11 -5
-11 -12 0 -9 -3 -9 -12 0 -7 7 -21 11 -32 11 -19 -2 -19 -2 2 -6z"/>
<path d="M2668 1213 c7 -3 16 -2 19 1 4 3 -2 6 -13 5 -11 0 -14 -3 -6 -6z"/>
<path d="M2704 1205 c-18 -14 -18 -14 11 -15 21 0 26 3 16 9 -11 7 -10 10 5
14 13 3 14 5 3 6 -8 0 -24 -6 -35 -14z"/>
<path d="M2762 1204 c-11 -12 -6 -14 30 -12 24 0 47 6 51 12 6 8 10 7 14 -1 6
-16 93 -18 93 -2 0 7 -12 8 -32 4 -20 -4 -28 -3 -20 3 8 5 -10 8 -47 8 -33 0
-58 -3 -55 -8 3 -4 1 -8 -5 -8 -5 0 -11 4 -13 9 -1 5 -9 3 -16 -5z"/>
<path d="M2478 1193 c6 -2 18 -2 25 0 6 3 1 5 -13 5 -14 0 -19 -2 -12 -5z"/>
<path d="M2643 1193 c9 -2 23 -2 30 0 6 3 -1 5 -18 5 -16 0 -22 -2 -12 -5z"/>
<path d="M1953 1134 c-3 -8 -2 -19 3 -24 5 -5 10 1 10 16 2 27 -4 31 -13 8z"/>
<path d="M1950 1065 c0 -15 4 -24 10 -20 6 3 10 12 10 20 0 8 -4 17 -10 20 -6
4 -10 -5 -10 -20z"/>
<path d="M583 1063 c-25 -9 -13 -22 15 -17 33 7 57 -15 48 -44 -4 -11 -24 -39
-46 -62 -22 -24 -40 -46 -40 -49 0 -3 27 -6 60 -7 33 -1 60 3 60 7 0 9 -20 12
-57 9 -31 -2 -29 6 12 51 40 45 47 92 16 109 -21 10 -47 12 -68 3z"/>
<path d="M1437 1049 c-9 -6 -15 -15 -11 -20 4 -6 11 -6 20 2 12 10 14 -1 14
-70 0 -47 4 -81 10 -81 6 0 10 37 10 90 0 94 -4 101 -43 79z"/>
<path d="M2122 1047 c-24 -14 -21 -30 4 -20 11 4 14 -11 14 -77 0 -60 3 -81
12 -78 15 5 18 180 3 184 -5 2 -20 -2 -33 -9z"/>
<path d="M975 1030 c-3 -5 -1 -10 4 -10 6 0 11 5 11 10 0 6 -2 10 -4 10 -3 0
-8 -4 -11 -10z"/>
<path d="M1959 1023 c-1 -5 -1 -11 0 -15 0 -5 -3 -8 -8 -8 -13 0 -8 -43 7 -48
6 -2 12 1 12 7 0 6 -6 11 -12 11 -8 0 -9 3 -3 8 11 8 20 52 11 52 -3 0 -7 -3
-7 -7z"/>
<path d="M981 924 c0 -11 3 -14 6 -6 3 7 2 16 -1 19 -3 4 -6 -2 -5 -13z"/>
<path d="M1950 930 c-9 -6 -11 -10 -3 -10 7 0 10 -7 7 -15 -4 -8 -1 -15 5 -15
6 0 11 11 11 25 0 28 0 28 -20 15z"/>
<path d="M1957 850 c-3 -11 -1 -20 4 -20 5 0 9 9 9 20 0 11 -2 20 -4 20 -2 0
-6 -9 -9 -20z"/>
<path d="M1950 805 c7 -8 9 -15 6 -15 -4 0 -1 -7 7 -15 12 -11 48 -15 166 -16
82 0 154 2 159 5 5 3 23 1 41 -4 17 -5 31 -5 31 0 0 5 12 5 28 1 31 -8 62 -4
62 10 0 7 -263 16 -295 9 -5 -1 -48 -3 -94 -3 -78 -2 -84 -1 -92 20 -5 13 -14
23 -20 23 -8 0 -8 -4 1 -15z"/>
<path d="M270 784 c0 -11 26 -14 120 -14 66 0 120 4 120 8 0 5 -6 9 -12 10
-17 1 -68 2 -93 0 -11 0 -46 2 -77 4 -45 4 -58 2 -58 -8z"/>
<path d="M520 780 c0 -5 41 -10 90 -12 50 -2 90 0 90 4 0 4 7 5 15 2 8 -4 15
-1 15 5 0 8 -32 11 -105 10 -58 -1 -105 -5 -105 -9z"/>
<path d="M748 778 c-4 -10 14 -13 81 -12 131 2 141 3 141 13 0 5 -49 9 -109
10 -81 1 -110 -1 -113 -11z"/>
<path d="M980 781 c0 -11 36 -18 68 -13 39 7 24 22 -23 22 -25 0 -45 -4 -45
-9z"/>
<path d="M1080 778 c0 -18 121 -19 138 -1 11 11 0 13 -62 13 -54 0 -76 -4 -76
-12z"/>
<path d="M1253 783 c9 -2 23 -2 30 0 6 3 -1 5 -18 5 -16 0 -22 -2 -12 -5z"/>
<path d="M1318 783 c7 -3 16 -2 19 1 4 3 -2 6 -13 5 -11 0 -14 -3 -6 -6z"/>
<path d="M1375 779 c3 -4 0 -9 -6 -11 -6 -2 9 -4 32 -5 28 -1 39 1 30 6 -11 7
-10 10 5 13 10 2 0 5 -23 5 -23 0 -40 -3 -38 -8z"/>
<path d="M1488 783 c7 -3 16 -2 19 1 4 3 -2 6 -13 5 -11 0 -14 -3 -6 -6z"/>
<path d="M1556 775 c10 -8 26 -14 34 -14 9 0 4 6 -10 14 -33 19 -49 19 -24 0z"/>
<path d="M1603 782 c9 -2 17 -8 17 -13 0 -5 24 -9 53 -9 37 0 48 3 37 10 -13
8 -12 10 3 10 9 0 17 -4 17 -10 0 -5 9 -10 21 -10 11 0 17 5 14 10 -3 6 1 10
10 10 9 0 13 -4 10 -10 -4 -6 16 -9 52 -9 98 2 105 0 110 -21 3 -11 9 -20 14
-20 14 0 11 20 -5 36 -19 18 -66 36 -66 25 0 -5 -16 -5 -35 -1 -20 5 -33 4
-29 -1 6 -11 -20 -12 -30 -1 -4 4 -53 7 -109 7 -56 1 -94 -1 -84 -3z m74 -8
c-3 -3 -12 -4 -19 -1 -8 3 -5 6 6 6 11 1 17 -2 13 -5z"/>
<path d="M2476 771 c5 -5 20 -12 34 -16 22 -7 23 -6 8 9 -9 9 -25 16 -34 16
-11 0 -14 -3 -8 -9z"/>
<path d="M2520 776 c0 -2 9 -6 20 -9 11 -3 20 -1 20 4 0 5 -9 9 -20 9 -11 0
-20 -2 -20 -4z"/>
<path d="M2594 765 c25 -19 43 -19 62 0 14 13 14 15 0 15 -9 0 -16 -4 -16 -10
0 -5 -5 -10 -11 -10 -5 0 -8 4 -5 8 2 4 -7 9 -22 10 -26 1 -26 1 -8 -13z"/>
<path d="M2705 771 c3 -5 -5 -12 -17 -14 -22 -4 -22 -4 -2 -6 12 0 27 6 34 14
10 12 9 15 -4 15 -10 0 -15 -4 -11 -9z"/>
<path d="M2736 764 c-4 -10 6 -13 40 -12 30 0 41 4 33 9 -11 7 -10 9 3 9 9 0
18 -5 20 -12 3 -8 7 -6 11 4 5 14 -3 16 -48 16 -35 0 -56 -5 -59 -14z m41 0
c-3 -3 -12 -4 -19 -1 -8 3 -5 6 6 6 11 1 17 -2 13 -5z"/>
<path d="M2868 773 c6 -2 18 -2 25 0 6 3 1 5 -13 5 -14 0 -19 -2 -12 -5z"/>
<path d="M2916 765 c-4 -11 1 -15 17 -14 12 0 16 3 9 6 -6 2 -10 9 -6 14 3 5
1 9 -4 9 -6 0 -12 -7 -16 -15z"/>
<path d="M1243 763 c9 -2 23 -2 30 0 6 3 -1 5 -18 5 -16 0 -22 -2 -12 -5z"/>
<path d="M1298 763 c7 -3 16 -2 19 1 4 3 -2 6 -13 5 -11 0 -14 -3 -6 -6z"/>
<path d="M1518 763 c6 -2 18 -2 25 0 6 3 1 5 -13 5 -14 0 -19 -2 -12 -5z"/>
<path d="M2863 753 c9 -2 23 -2 30 0 6 3 -1 5 -18 5 -16 0 -22 -2 -12 -5z"/>
<path d="M961 724 c0 -11 3 -14 6 -6 3 7 2 16 -1 19 -3 4 -6 -2 -5 -13z"/>
<path d="M1947 675 c3 -14 9 -25 13 -25 12 0 6 43 -6 47 -7 2 -10 -6 -7 -22z"/>
<path d="M1945 589 c0 -28 4 -48 9 -46 15 5 18 84 3 90 -8 3 -12 -10 -12 -44z"/>
<path d="M1441 614 c-31 -22 -44 -75 -31 -123 14 -53 32 -54 24 -1 -13 79 16
139 53 109 10 -9 13 -30 11 -73 -3 -53 -6 -62 -28 -73 l-25 -13 26 0 c34 0 46
16 55 66 12 78 -37 141 -85 108z"/>
<path d="M960 608 c0 -8 7 -21 15 -28 19 -16 19 -1 0 24 -12 16 -15 17 -15 4z"/>
<path d="M2122 607 c-24 -14 -21 -30 4 -20 11 4 14 -11 14 -77 0 -54 4 -80 11
-78 6 2 10 7 10 11 -1 4 -1 45 -1 92 0 47 -3 85 -7 85 -5 -1 -18 -6 -31 -13z"/>
<path d="M1951 521 c-10 -6 -10 -10 -1 -16 9 -6 9 -10 -1 -16 -11 -7 -12 -11
-1 -17 10 -7 10 -15 2 -37 -9 -24 -8 -26 4 -16 8 7 14 31 14 61 0 28 -1 50 -2
50 0 0 -7 -4 -15 -9z"/>
<path d="M965 459 c-4 -6 -5 -12 -2 -15 2 -3 7 2 10 11 7 17 1 20 -8 4z"/>
<path d="M964 405 c-4 -14 -4 -29 0 -32 3 -4 6 3 6 15 0 12 5 22 10 22 6 0 10
5 10 10 0 21 -20 9 -26 -15z"/>
<path d="M1950 381 c-6 -17 -9 -35 -5 -40 13 -22 22 -10 22 29 0 22 -1 40 -2
40 -1 0 -8 -13 -15 -29z"/>
<path d="M973 363 c-18 -7 -16 -23 2 -23 8 0 15 7 15 15 0 8 -1 15 -2 14 -2 0
-9 -3 -15 -6z"/>
</g>
</svg>
