<?xml version="1.0" standalone="no"?>
<!DOCTYPE svg PUBLIC "-//W3C//DTD SVG 20010904//EN"
 "http://www.w3.org/TR/2001/REC-SVG-20010904/DTD/svg10.dtd">
<svg version="1.0" xmlns="http://www.w3.org/2000/svg"
 width="638.000000pt" height="359.000000pt" viewBox="0 0 638.000000 359.000000"
 preserveAspectRatio="xMidYMid meet">

<g transform="translate(0.000000,359.000000) scale(0.100000,-0.100000)"
fill="#000000" stroke="none">
<path d="M6058 3173 c-1 -70 -3 -261 -3 -423 -3 -1196 -10 -2012 -17 -2016 -4
-3 -17 0 -29 7 -20 10 -21 9 -15 -7 4 -11 19 -54 34 -96 15 -43 30 -78 33 -78
4 0 10 12 14 27 3 15 15 46 26 70 29 63 29 87 1 88 l-23 0 1 260 c6 1905 4
2288 -7 2292 -10 4 -14 -26 -15 -124z"/>
<path d="M808 3188 c14 -14 17 -189 3 -203 -6 -6 1 -10 20 -11 21 -1 27 2 20
9 -6 6 -11 55 -11 114 0 99 -1 103 -22 103 -17 0 -19 -3 -10 -12z"/>
<path d="M1285 3190 c-3 -5 -1 -10 4 -10 7 0 11 -36 11 -100 0 -64 -4 -100
-11 -100 -5 0 -7 -4 -4 -10 7 -12 55 -14 55 -2 0 4 -5 13 -11 19 -7 7 -10 46
-7 107 2 73 0 97 -10 101 -18 7 -20 7 -27 -5z"/>
<path d="M365 3085 c0 -87 3 -105 15 -105 12 0 14 14 12 80 -2 52 0 80 7 80 6
0 11 -6 11 -14 0 -20 41 -126 49 -126 3 0 20 33 36 73 l30 72 3 -73 c2 -46 -2
-79 -9 -88 -9 -12 -6 -14 20 -14 31 0 38 8 23 26 -4 5 -6 51 -3 102 5 83 4 92
-12 92 -16 0 -33 -28 -66 -112 -11 -28 -31 -38 -31 -17 0 7 -10 38 -21 70 -17
47 -26 59 -43 59 -20 0 -21 -5 -21 -105z"/>
<path d="M2340 3180 c0 -5 5 -10 10 -10 6 0 10 -41 10 -104 l0 -104 27 -5 c61
-12 93 18 93 89 0 48 -20 68 -64 61 l-36 -6 0 45 c0 37 -3 44 -20 44 -11 0
-20 -4 -20 -10z m111 -117 c6 -17 7 -40 2 -58 -7 -25 -14 -30 -38 -30 -28 0
-30 3 -33 44 -4 57 2 71 33 71 19 0 28 -7 36 -27z"/>
<path d="M1022 3168 c6 -18 28 -21 28 -4 0 9 -7 16 -16 16 -9 0 -14 -5 -12
-12z"/>
<path d="M1674 3172 c-22 -14 -34 -51 -34 -102 0 -71 22 -109 62 -110 61 0 92
155 41 205 -15 16 -51 20 -69 7z m54 -14 c7 -7 12 -41 12 -83 0 -60 -4 -75
-20 -90 -20 -18 -22 -18 -38 -1 -13 12 -17 34 -17 85 0 86 27 125 63 89z"/>
<path d="M1938 3159 c-44 -23 -49 -32 -13 -23 l25 6 0 -81 c0 -64 -3 -81 -14
-81 -8 0 -18 -4 -21 -10 -4 -6 16 -10 52 -10 53 0 56 1 33 13 -24 12 -25 15
-21 110 2 53 2 97 0 97 -2 -1 -21 -10 -41 -21z"/>
<path d="M2090 3123 l0 -52 36 -3 c46 -4 62 -26 48 -65 -12 -34 -51 -44 -71
-17 -15 20 -28 13 -20 -11 9 -22 79 -20 100 3 21 23 22 75 2 92 -9 7 -29 13
-45 12 -28 -1 -30 2 -30 34 0 34 0 34 45 34 29 0 45 4 45 13 0 8 -18 12 -55
12 l-55 0 0 -52z"/>
<path d="M2803 3163 c-13 -5 -18 -33 -7 -33 4 0 12 7 19 16 8 12 20 15 38 10
21 -5 27 -12 27 -35 0 -23 -26 -70 -50 -91 -3 -3 -16 -19 -28 -37 l-22 -32 54
-6 c62 -8 76 -3 76 28 0 16 -3 18 -12 9 -15 -15 -78 -16 -78 -2 0 6 14 25 31
43 47 49 63 85 50 113 -8 19 -18 24 -48 23 -21 0 -44 -3 -50 -6z"/>
<path d="M910 3141 c0 -11 -6 -22 -12 -24 -10 -4 -10 -6 0 -6 8 -1 12 -20 12
-59 0 -32 5 -63 12 -70 15 -15 45 -15 54 0 4 7 3 8 -5 4 -23 -15 -41 15 -41
70 0 52 0 53 33 57 l32 4 -32 1 c-26 2 -33 6 -33 22 0 11 -4 20 -10 20 -5 0
-10 -9 -10 -19z"/>
<path d="M4571 3131 c-29 -41 -30 -142 -1 -171 26 -26 62 -25 86 1 15 17 19
36 19 91 0 61 -3 72 -24 89 -33 27 -56 24 -80 -10z m69 0 c17 -32 15 -150 -3
-168 -20 -20 -45 -10 -57 22 -32 84 22 216 60 146z"/>
<path d="M4828 3153 c-10 -2 -18 -14 -18 -25 0 -20 1 -20 18 -5 21 19 57 22
67 6 13 -20 -5 -59 -30 -65 -29 -7 -34 -24 -7 -24 26 0 42 -20 42 -52 0 -26
-3 -28 -39 -28 -22 0 -41 5 -44 13 -2 6 -8 9 -12 5 -4 -4 -5 -14 -2 -23 9 -22
89 -20 110 3 23 25 21 57 -4 80 -17 17 -18 21 -6 34 52 51 5 102 -75 81z"/>
<path d="M5015 3135 c-21 -20 -25 -34 -25 -87 0 -76 18 -108 59 -108 47 0 66
32 66 112 0 61 -3 72 -24 89 -31 25 -47 24 -76 -6z m64 -9 c19 -23 10 -156
-11 -170 -27 -17 -50 14 -56 73 -8 84 31 140 67 97z"/>
<path d="M620 3123 c0 -5 4 -13 9 -18 6 -6 11 -37 13 -70 3 -54 5 -60 26 -63
13 -2 30 2 38 9 11 9 18 9 26 1 7 -7 19 -12 27 -12 12 0 12 3 3 12 -7 7 -12
39 -12 74 0 53 -3 62 -20 67 -21 5 -28 -7 -10 -18 16 -10 12 -82 -6 -100 -32
-32 -49 -15 -54 55 -4 51 -9 66 -22 68 -10 2 -18 0 -18 -5z"/>
<path d="M1100 3120 c0 -5 5 -10 10 -10 6 0 10 -38 10 -95 0 -57 -4 -95 -10
-95 -5 0 -10 -4 -10 -10 0 -5 14 -10 32 -10 25 0 29 3 20 12 -7 7 -12 22 -12
35 0 19 4 22 28 17 52 -10 78 28 74 108 -3 39 -42 64 -72 46 -18 -10 -24 -10
-27 0 -6 14 -43 16 -43 2z m108 -29 c20 -12 12 -91 -10 -105 -28 -17 -52 5
-56 48 -5 55 27 82 66 57z"/>
<path d="M1020 3101 c13 -25 13 -72 0 -105 -9 -24 -7 -26 16 -26 20 0 25 4 20
16 -3 9 -6 42 -6 75 0 53 -2 59 -20 59 -17 0 -19 -3 -10 -19z"/>
<path d="M1375 3097 c8 -13 24 -49 35 -81 16 -47 17 -61 7 -77 -8 -14 -19 -18
-34 -14 -16 4 -23 1 -23 -10 0 -18 14 -19 42 -4 14 8 108 183 108 203 0 1 -9
2 -20 2 -14 0 -18 -5 -15 -17 3 -9 -3 -36 -14 -60 l-20 -44 -16 39 c-9 22 -15
50 -12 63 4 20 0 23 -25 23 -27 0 -28 -1 -13 -23z"/>
<path d="M2529 3073 c34 -67 45 -117 31 -142 -8 -16 -18 -21 -31 -18 -12 3
-19 0 -19 -10 0 -9 8 -13 23 -11 17 2 32 24 67 94 25 51 51 99 59 108 12 14
10 16 -18 16 -28 0 -31 -3 -26 -20 8 -24 -14 -90 -30 -90 -16 0 -36 82 -23 97
8 10 3 13 -21 13 l-31 0 19 -37z"/>
<path d="M1820 2980 c0 -19 11 -26 23 -14 8 8 -3 34 -14 34 -5 0 -9 -9 -9 -20z"/>
<path d="M4722 2958 c7 -19 38 -22 38 -4 0 10 -9 16 -21 16 -12 0 -19 -5 -17
-12z"/>
<path d="M805 2636 c13 -19 15 -42 11 -105 -2 -44 -7 -85 -10 -90 -3 -5 4 -8
17 -7 22 1 22 3 19 113 -3 113 -3 113 -28 113 -24 0 -24 -1 -9 -24z"/>
<path d="M360 2636 c7 -10 10 -45 8 -105 -2 -76 0 -91 12 -91 12 0 14 13 12
75 -2 45 0 75 6 75 6 0 19 -28 29 -62 10 -34 23 -63 28 -65 6 -1 18 18 28 45
34 86 37 92 44 92 5 0 7 -34 5 -75 -2 -41 -8 -75 -13 -75 -5 0 -9 -4 -9 -8 0
-5 14 -9 30 -9 30 0 39 10 20 22 -13 8 -1 178 14 187 6 4 -3 8 -19 8 -25 0
-33 -6 -43 -32 -8 -18 -17 -42 -22 -53 -4 -11 -11 -28 -14 -37 -11 -34 -26
-17 -47 52 -20 67 -22 70 -51 70 -25 0 -28 -2 -18 -14z"/>
<path d="M1288 2638 c15 -15 17 -198 2 -198 -5 0 -10 -4 -10 -8 0 -9 47 -8 57
1 3 4 1 7 -6 7 -10 0 -12 26 -9 105 l3 105 -24 0 c-20 0 -22 -3 -13 -12z"/>
<path d="M2345 2633 c5 -10 8 -62 7 -115 l-1 -98 49 0 c39 0 52 4 64 22 21 29
20 77 0 107 -14 19 -23 22 -50 18 l-34 -6 0 45 c0 38 -3 44 -21 44 -16 0 -19
-4 -14 -17z m105 -102 c24 -46 -4 -107 -47 -99 -13 2 -19 14 -21 47 -2 24 -1
50 2 57 8 21 54 17 66 -5z"/>
<path d="M1022 2629 c2 -6 8 -10 13 -10 5 0 11 4 13 10 2 6 -4 11 -13 11 -9 0
-15 -5 -13 -11z"/>
<path d="M1666 2627 c-37 -27 -37 -167 0 -194 47 -34 89 0 99 80 9 73 -14 127
-54 127 -15 0 -35 -6 -45 -13z m54 -7 c9 -6 16 -31 18 -77 3 -55 1 -73 -15
-91 -17 -21 -19 -22 -40 -7 -19 14 -23 25 -23 75 0 89 21 125 60 100z"/>
<path d="M1906 2627 c-12 -9 -16 -19 -11 -27 6 -10 10 -9 17 4 10 18 63 22 73
6 12 -19 -7 -52 -38 -65 -29 -12 -30 -14 -12 -20 39 -13 50 -22 53 -48 5 -37
-30 -54 -63 -33 -30 20 -35 20 -35 2 0 -31 66 -35 104 -5 32 25 33 52 2 76
l-23 19 24 28 c22 25 23 30 10 50 -17 26 -74 33 -101 13z"/>
<path d="M2100 2620 c-29 -29 -32 -135 -4 -177 20 -31 68 -31 88 0 61 97 -11
250 -84 177z m64 -12 c20 -28 21 -136 2 -160 -18 -24 -43 -23 -57 3 -16 30 -8
157 11 169 22 14 27 12 44 -12z"/>
<path d="M2803 2623 c-15 -5 -18 -33 -4 -33 5 0 11 7 15 15 7 18 37 20 54 3
21 -21 13 -52 -22 -93 -19 -21 -41 -52 -51 -67 -16 -28 -16 -28 12 -30 94 -5
98 -4 101 22 3 19 1 22 -10 13 -18 -14 -78 -22 -85 -10 -3 5 8 23 24 40 44 48
73 88 73 103 0 34 -63 56 -107 37z"/>
<path d="M903 2595 c-6 -14 -7 -27 -2 -31 5 -3 9 -29 9 -58 0 -63 17 -86 53
-68 12 7 15 11 7 11 -39 -3 -41 0 -38 58 3 51 6 58 28 64 l25 7 -27 1 c-21 1
-28 6 -28 21 0 27 -13 25 -27 -5z"/>
<path d="M4584 2612 c-34 -22 -49 -136 -24 -181 13 -26 52 -36 79 -22 46 25
52 165 8 196 -23 16 -46 19 -63 7z m50 -24 c32 -45 15 -183 -21 -176 -31 6
-44 48 -39 117 7 80 30 102 60 59z"/>
<path d="M4864 2601 c-56 -34 -82 -130 -48 -179 11 -16 25 -22 53 -22 46 0 65
19 65 65 0 49 -20 68 -66 62 -27 -4 -38 -1 -38 8 0 19 50 65 71 65 11 0 19 5
19 10 0 15 -22 12 -56 -9z m30 -97 c24 -9 21 -71 -4 -84 -36 -19 -60 -4 -60
39 0 21 3 41 7 44 8 9 36 9 57 1z"/>
<path d="M5011 2594 c-19 -24 -23 -39 -25 -94 -2 -77 43 -126 89 -96 68 45 49
216 -24 216 -11 0 -29 -12 -40 -26z m69 -13 c5 -11 10 -45 10 -76 0 -65 -13
-95 -41 -95 -25 0 -39 36 -39 101 0 59 13 89 40 89 11 0 24 -9 30 -19z"/>
<path d="M628 2523 c5 -83 19 -102 62 -86 18 7 32 7 36 2 3 -5 11 -9 17 -9 9
0 11 21 7 77 -4 64 -8 78 -22 81 -19 4 -25 -13 -9 -23 14 -8 5 -96 -10 -106
-8 -5 -22 -9 -31 -9 -19 0 -22 11 -22 90 -1 32 -5 45 -16 48 -14 2 -15 -8 -12
-65z"/>
<path d="M1100 2580 c0 -5 5 -12 10 -15 6 -3 10 -44 10 -90 0 -46 -4 -87 -10
-90 -20 -12 -9 -25 22 -25 25 0 29 3 20 12 -7 7 -12 23 -12 36 0 18 4 22 19
17 26 -8 69 14 78 39 9 28 5 73 -8 98 -9 16 -18 19 -46 15 -19 -3 -45 -2 -59
3 -14 6 -24 6 -24 0z m116 -56 c10 -52 -9 -86 -44 -82 -24 3 -27 7 -30 47 -4
59 2 71 37 71 27 0 31 -4 37 -36z"/>
<path d="M1008 2573 c8 -3 12 -27 12 -68 0 -41 -4 -65 -12 -68 -7 -3 2 -6 21
-6 28 -1 32 1 21 14 -7 9 -10 37 -8 75 4 59 3 60 -22 59 -14 0 -19 -3 -12 -6z"/>
<path d="M1360 2571 c0 -6 4 -12 9 -15 4 -3 18 -33 31 -67 18 -50 20 -66 11
-86 -8 -18 -17 -24 -31 -20 -13 3 -20 0 -20 -10 0 -9 8 -13 23 -11 17 2 33 26
73 105 50 100 50 101 27 106 -18 3 -21 1 -13 -8 13 -16 -17 -98 -34 -92 -17 6
-35 80 -23 95 7 9 2 12 -22 12 -17 0 -31 -4 -31 -9z"/>
<path d="M2510 2561 c0 -6 4 -12 9 -16 5 -3 19 -34 31 -70 17 -51 19 -68 10
-85 -9 -17 -17 -20 -37 -15 -20 5 -24 2 -21 -11 9 -51 59 -8 97 83 14 32 33
70 43 85 24 35 23 38 -13 38 -26 0 -29 -3 -20 -14 14 -17 -7 -96 -25 -96 -18
0 -37 79 -23 96 9 12 6 14 -20 14 -17 0 -31 -4 -31 -9z"/>
<path d="M1814 2449 c-10 -17 13 -36 27 -22 12 12 4 33 -11 33 -5 0 -12 -5
-16 -11z"/>
<path d="M4730 2415 c0 -8 5 -15 10 -15 6 0 10 7 10 15 0 8 -4 15 -10 15 -5 0
-10 -7 -10 -15z"/>
<path d="M799 2106 c18 -22 22 -184 4 -202 -13 -12 -11 -14 14 -14 l28 0 -3
115 -3 115 -26 0 c-20 0 -23 -3 -14 -14z"/>
<path d="M358 2098 c17 -17 16 -180 0 -197 -11 -11 -10 -13 5 -7 10 3 23 6 29
6 7 0 7 4 0 13 -12 15 -15 147 -3 147 4 0 19 -32 32 -70 13 -39 28 -69 33 -67
5 2 20 31 34 65 14 34 29 62 34 62 4 0 8 -31 8 -70 0 -40 -4 -70 -10 -70 -5 0
-10 -4 -10 -10 0 -5 14 -10 30 -10 17 0 30 5 30 10 0 6 -4 10 -10 10 -14 0
-13 156 1 181 9 18 8 20 -17 17 -27 -3 -38 -21 -71 -121 -10 -31 -26 -13 -46
56 -19 64 -21 67 -50 67 -24 0 -28 -3 -19 -12z"/>
<path d="M1288 2098 c15 -15 17 -198 2 -198 -5 0 -10 -4 -10 -10 0 -5 11 -10
24 -10 14 0 28 5 31 10 3 6 1 10 -4 10 -7 0 -11 38 -11 105 0 102 -1 105 -22
105 -17 0 -19 -3 -10 -12z"/>
<path d="M2341 2101 c-11 -7 -11 -9 0 -13 11 -4 14 -28 12 -105 l-2 -101 37
-6 c49 -7 79 13 88 61 10 56 -12 89 -59 86 -35 -2 -36 -2 -39 39 -3 43 -13 54
-37 39z m106 -118 c18 -52 -12 -105 -51 -90 -20 8 -23 102 -3 110 29 12 45 6
54 -20z"/>
<path d="M1013 2088 c2 -7 10 -13 17 -13 7 0 15 6 18 13 2 7 -5 12 -18 12 -13
0 -20 -5 -17 -12z"/>
<path d="M1672 2093 c-35 -14 -54 -110 -32 -167 19 -50 81 -59 109 -15 19 31
17 134 -3 164 -16 24 -43 31 -74 18z m55 -34 c32 -63 4 -180 -40 -164 -23 9
-30 43 -25 116 6 80 37 103 65 48z"/>
<path d="M1965 2090 c-43 -17 -68 -58 -73 -115 -5 -67 13 -95 62 -95 39 0 52
9 65 43 21 54 -23 100 -78 82 -12 -3 -21 -2 -21 4 0 25 16 43 51 62 22 11 39
22 39 24 0 7 -22 5 -45 -5z m29 -116 c18 -46 -1 -84 -41 -84 -29 0 -48 38 -39
74 5 22 12 26 40 26 22 0 36 -6 40 -16z"/>
<path d="M2107 2088 c-35 -27 -49 -121 -25 -173 13 -30 50 -42 83 -27 53 24
51 183 -2 203 -31 12 -36 11 -56 -3z m51 -11 c35 -41 20 -187 -18 -187 -27 0
-40 30 -40 94 0 88 27 131 58 93z"/>
<path d="M2794 2076 c-10 -8 -16 -18 -12 -22 5 -4 16 0 26 9 25 22 49 21 62
-2 15 -29 14 -32 -40 -102 -27 -35 -50 -68 -50 -74 0 -5 27 -11 59 -12 54 -3
59 -1 63 20 4 23 3 23 -22 11 -23 -12 -70 -9 -70 4 0 3 20 27 45 53 50 54 60
100 26 119 -27 14 -64 13 -87 -4z"/>
<path d="M898 2051 c-13 -24 -14 -30 -3 -35 10 -3 13 -18 11 -43 -5 -55 8 -83
38 -83 14 0 28 4 31 10 4 6 -4 9 -17 7 -22 -2 -23 2 -26 62 l-3 63 25 -6 c15
-4 26 -2 26 4 0 5 -11 10 -25 10 -18 0 -25 5 -25 20 0 28 -12 25 -32 -9z"/>
<path d="M4823 2068 c-23 -11 -32 -38 -13 -38 6 0 10 4 10 10 0 16 49 23 65
10 25 -20 18 -42 -35 -107 -27 -34 -50 -67 -50 -72 0 -7 25 -11 60 -11 55 0
60 2 60 22 0 17 -3 19 -12 10 -14 -14 -78 -16 -78 -3 0 5 6 16 13 23 56 59 77
92 77 118 0 45 -46 63 -97 38z"/>
<path d="M5016 2064 c-53 -52 -44 -191 14 -209 28 -9 68 18 75 50 3 14 7 36
10 49 6 30 -3 76 -19 98 -19 26 -60 32 -80 12z m64 -30 c13 -33 13 -120 0
-145 -12 -21 -40 -25 -58 -7 -15 15 -16 132 -2 159 15 28 49 24 60 -7z"/>
<path d="M4575 2050 l-30 -19 30 2 c26 2 30 -2 33 -28 2 -16 1 -53 -3 -82 -5
-43 -10 -53 -28 -56 -12 -2 5 -4 38 -4 33 0 50 2 38 4 -22 4 -23 9 -23 104 0
109 -3 113 -55 79z"/>
<path d="M618 2027 c6 -7 12 -40 14 -72 l3 -60 63 -1 c52 -1 61 1 51 12 -7 9
-10 37 -7 74 4 50 2 60 -12 60 -12 0 -15 -9 -12 -40 2 -22 1 -52 -2 -66 -5
-20 -12 -25 -34 -22 -26 3 -27 6 -30 66 -3 55 -5 62 -24 62 -15 0 -18 -3 -10
-13z"/>
<path d="M1008 2028 c16 -16 16 -110 0 -126 -9 -9 -4 -12 22 -12 26 0 31 3 22
12 -7 7 -12 39 -12 75 0 58 -2 63 -22 63 -17 0 -19 -3 -10 -12z"/>
<path d="M1104 2024 c8 -21 10 -180 1 -193 -4 -7 4 -11 19 -11 23 0 25 2 15
19 -17 26 -5 51 21 44 53 -14 91 44 75 116 -8 35 -46 52 -76 33 -12 -8 -20 -8
-24 -2 -10 17 -38 12 -31 -6z m110 -36 c15 -41 -3 -82 -36 -86 -18 -2 -30 3
-37 17 -12 22 -4 82 13 94 21 14 51 2 60 -25z"/>
<path d="M1360 2030 c0 -4 4 -10 9 -15 5 -6 19 -38 31 -71 25 -70 18 -100 -25
-106 -18 -2 -22 -7 -16 -17 18 -28 51 9 99 109 46 97 47 99 25 103 -19 3 -22
1 -17 -17 6 -25 -24 -103 -35 -90 -18 23 -32 85 -22 98 9 10 5 13 -19 12 -16
-1 -30 -3 -30 -6z"/>
<path d="M2508 2018 c6 -7 22 -44 37 -81 27 -66 27 -68 9 -88 -10 -11 -26 -18
-36 -16 -19 6 -25 -17 -8 -28 12 -8 60 21 60 35 0 5 19 50 43 100 41 85 42 90
22 90 -17 0 -22 -6 -22 -28 0 -28 -23 -92 -33 -92 -3 0 -12 20 -19 45 -11 36
-11 48 -1 60 11 13 7 15 -25 15 -29 0 -35 -3 -27 -12z"/>
<path d="M1815 1910 c-7 -12 2 -30 16 -30 5 0 9 9 9 20 0 21 -15 27 -25 10z"/>
<path d="M4720 1875 c0 -8 7 -15 15 -15 8 0 15 7 15 15 0 8 -7 15 -15 15 -8 0
-15 -7 -15 -15z"/>
<path d="M790 1570 c0 -6 5 -10 10 -10 15 0 13 -183 -2 -198 -9 -9 -5 -12 21
-12 28 0 32 2 21 15 -8 10 -11 45 -8 111 3 94 2 97 -19 100 -13 2 -23 -1 -23
-6z"/>
<path d="M347 1563 c13 -9 21 -169 9 -194 -6 -13 -2 -16 19 -16 19 0 23 2 15
12 -6 8 -10 45 -8 86 3 79 7 77 44 -23 9 -27 20 -48 24 -48 4 0 17 24 29 53
41 97 41 97 38 4 l-2 -87 30 0 c22 0 26 3 17 12 -16 16 -16 180 0 196 9 9 6
12 -16 12 -23 0 -30 -8 -52 -55 -13 -31 -24 -63 -24 -71 0 -35 -25 -4 -46 57
-21 60 -24 64 -56 67 -18 1 -28 -1 -21 -5z"/>
<path d="M1278 1561 c11 -6 13 -34 10 -115 -3 -106 -3 -106 21 -106 17 0 22 4
17 16 -3 9 -6 60 -6 115 l0 99 -27 0 c-20 0 -24 -3 -15 -9z"/>
<path d="M2345 1559 c-11 -4 -14 -8 -7 -8 9 -1 12 -29 12 -105 l0 -104 36 -6
c64 -12 101 34 87 106 -9 48 -30 56 -87 32 -18 -7 -19 -4 -13 39 7 50 2 59
-28 46z m94 -103 c7 -8 11 -31 9 -52 -6 -73 -70 -72 -76 2 -5 53 38 85 67 50z"/>
<path d="M1010 1545 c0 -10 7 -15 18 -13 21 4 19 22 -2 26 -10 2 -16 -3 -16
-13z"/>
<path d="M1673 1549 c-40 -15 -56 -78 -38 -157 12 -56 70 -70 104 -26 16 21
21 41 21 88 0 86 -29 117 -87 95z m52 -28 c3 -10 6 -45 7 -79 2 -72 -18 -106
-50 -86 -25 16 -30 163 -6 181 19 14 41 7 49 -16z"/>
<path d="M1908 1549 c-10 -5 -18 -17 -18 -24 0 -20 16 -19 24 0 7 20 52 19 60
-1 11 -29 6 -41 -45 -110 l-51 -69 44 -5 c69 -8 88 -2 88 29 -1 22 -2 24 -11
9 -11 -20 -79 -26 -79 -7 0 6 20 34 45 61 26 29 45 60 45 74 0 41 -61 67 -102
43z"/>
<path d="M2110 1547 c-36 -18 -53 -75 -39 -135 13 -58 24 -72 58 -72 43 1 63
24 69 79 7 75 -4 116 -34 129 -30 14 -24 14 -54 -1z m55 -37 c21 -97 -1 -180
-43 -154 -24 16 -30 154 -7 177 21 21 42 12 50 -23z"/>
<path d="M2794 1536 c-28 -21 -10 -31 20 -11 21 14 29 15 41 5 26 -22 17 -59
-30 -117 -61 -74 -59 -83 14 -83 51 0 59 3 64 21 4 16 2 19 -11 13 -33 -14
-82 -17 -82 -4 0 6 20 35 45 63 46 53 57 91 33 115 -16 16 -70 15 -94 -2z"/>
<path d="M904 1528 c-9 -13 -7 -132 2 -160 6 -20 58 -25 69 -8 4 6 -4 9 -17 7
-22 -2 -23 2 -26 60 -3 58 -2 61 18 56 11 -3 20 0 20 6 0 6 -9 11 -20 11 -13
0 -20 7 -20 20 0 22 -15 27 -26 8z"/>
<path d="M4830 1463 l-52 -78 47 -3 47 -3 -5 -33 c-5 -30 -3 -32 17 -29 18 4
22 10 18 32 -3 22 1 29 17 34 12 3 21 10 21 16 0 7 -9 9 -22 6 -22 -6 -23 -4
-20 65 2 44 0 70 -7 70 -6 0 -33 -35 -61 -77z m45 -31 c0 -19 -7 -27 -27 -33
-36 -9 -45 6 -21 34 11 12 23 31 28 42 7 19 8 19 14 2 4 -11 7 -30 6 -45z"/>
<path d="M5011 1521 c-40 -40 -40 -161 -1 -193 28 -23 42 -23 71 1 19 16 24
30 27 89 4 65 2 73 -21 96 -31 31 -50 33 -76 7z m69 -43 c11 -37 8 -81 -6
-130 -6 -22 -37 -23 -54 -3 -15 18 -15 142 1 161 23 28 48 16 59 -28z"/>
<path d="M4555 1500 c-18 -35 -19 -116 -2 -150 14 -29 50 -37 83 -19 17 9 26
27 34 66 10 46 9 58 -7 91 -10 21 -27 38 -38 40 -19 4 -19 3 -1 -10 26 -20 29
-149 3 -175 -13 -14 -21 -15 -35 -7 -25 16 -30 155 -7 178 15 14 15 16 1 16
-9 0 -22 -13 -31 -30z"/>
<path d="M615 1490 c3 -6 7 -29 7 -53 1 -77 8 -85 80 -84 35 0 57 2 51 4 -9 3
-13 27 -13 74 0 62 -2 69 -20 69 -17 0 -18 -3 -10 -26 23 -59 7 -104 -37 -104
-22 0 -23 4 -23 65 0 59 -2 65 -21 65 -11 0 -17 -5 -14 -10z"/>
<path d="M1009 1478 c12 -33 12 -100 1 -114 -8 -8 -3 -13 15 -17 20 -3 25 -1
21 10 -3 8 -6 44 -6 79 0 57 -2 64 -20 64 -16 0 -18 -4 -11 -22z"/>
<path d="M1100 1486 c15 -15 13 -193 -2 -199 -7 -3 2 -6 21 -6 28 -1 32 1 21
14 -19 23 -4 53 25 48 56 -11 97 81 60 134 -12 17 -25 21 -75 20 -42 0 -58 -3
-50 -11z m104 -22 c9 -23 7 -77 -3 -92 -4 -8 -19 -12 -32 -10 -21 3 -24 9 -27
52 -3 50 6 66 39 66 9 0 20 -7 23 -16z"/>
<path d="M1365 1483 c44 -113 52 -140 44 -161 -6 -15 -16 -22 -36 -22 -19 0
-24 -3 -16 -11 25 -25 48 -2 98 99 49 98 50 102 28 102 -14 0 -21 -5 -17 -13
6 -16 -23 -87 -36 -87 -8 0 -30 61 -30 86 0 7 -7 15 -16 18 -24 9 -27 8 -19
-11z"/>
<path d="M2500 1488 c0 -2 11 -25 25 -52 45 -88 42 -155 -7 -143 -13 4 -18 0
-18 -14 0 -22 19 -25 42 -6 20 14 110 207 98 207 -5 0 -16 3 -25 7 -14 5 -16
3 -7 -13 7 -14 4 -31 -11 -64 l-20 -45 -13 45 c-8 24 -11 52 -8 62 4 15 0 18
-25 18 -17 0 -31 -1 -31 -2z"/>
<path d="M1810 1360 c0 -11 7 -20 15 -20 8 0 15 9 15 20 0 11 -7 20 -15 20 -8
0 -15 -9 -15 -20z"/>
<path d="M4720 1335 c0 -8 7 -15 15 -15 8 0 15 7 15 15 0 8 -7 15 -15 15 -8 0
-15 -7 -15 -15z"/>
<path d="M790 1028 c0 -4 5 -10 11 -13 10 -7 3 -179 -8 -197 -2 -5 10 -8 28
-8 26 0 29 2 19 14 -6 8 -11 32 -10 53 1 21 2 66 1 100 -1 55 -3 62 -21 60
-11 -1 -20 -5 -20 -9z"/>
<path d="M348 1023 c16 -6 17 -184 0 -201 -9 -9 -4 -12 22 -12 26 0 31 3 22
12 -7 7 -12 42 -11 93 l0 80 27 -74 c15 -41 32 -76 38 -78 7 -2 24 28 40 69
l29 73 3 -73 c2 -46 -2 -79 -9 -88 -9 -11 -6 -14 17 -14 l29 0 0 110 c0 105
-1 110 -21 110 -17 0 -27 -15 -51 -77 -18 -45 -33 -72 -36 -63 -3 8 -16 43
-28 78 -20 58 -23 62 -53 61 -17 0 -25 -3 -18 -6z"/>
<path d="M1278 1021 c11 -6 13 -34 10 -115 -3 -104 -3 -106 20 -106 21 0 29
10 16 23 -4 3 -6 51 -5 107 l2 100 -28 0 c-19 0 -24 -3 -15 -9z"/>
<path d="M1010 1005 c0 -8 7 -15 15 -15 8 0 15 7 15 15 0 8 -7 15 -15 15 -8 0
-15 -7 -15 -15z"/>
<path d="M1655 995 c-17 -16 -25 -36 -26 -62 -3 -100 12 -133 61 -133 43 0 64
32 68 105 4 58 2 66 -21 89 -32 32 -51 33 -82 1z m75 -89 c0 -73 -18 -108 -46
-90 -10 6 -22 24 -26 40 -11 39 1 122 20 141 14 14 18 13 34 -7 13 -16 18 -39
18 -84z"/>
<path d="M1947 988 c-39 -53 -77 -112 -77 -120 0 -5 20 -8 45 -8 41 0 45 -2
45 -24 0 -13 -6 -27 -12 -29 -7 -3 3 -6 22 -6 26 -1 31 2 22 11 -19 19 -14 46
10 50 30 4 36 29 6 26 -22 -3 -23 0 -23 59 0 34 -3 64 -6 68 -4 3 -18 -9 -32
-27z m13 -63 c0 -43 -1 -45 -30 -45 -16 0 -30 2 -30 5 0 7 52 85 56 85 2 0 4
-20 4 -45z"/>
<path d="M2339 998 c4 -13 7 -53 6 -90 -4 -103 0 -113 44 -116 45 -3 68 13 79
53 20 69 -25 124 -77 95 -20 -10 -21 -8 -21 35 0 38 -3 45 -20 45 -16 0 -18
-4 -11 -22z m96 -128 c0 -50 -2 -55 -24 -58 -28 -4 -41 12 -41 51 0 42 18 69
43 65 20 -3 22 -9 22 -58z"/>
<path d="M2084 984 c-26 -38 -25 -138 1 -163 56 -54 106 -19 113 79 6 78 -13
110 -63 110 -26 0 -39 -6 -51 -26z m76 -3 c14 -27 13 -144 -2 -159 -50 -50
-83 53 -52 161 7 23 41 22 54 -2z"/>
<path d="M2804 1000 c-12 -5 -25 -13 -29 -19 -9 -16 17 -13 39 4 24 19 56 3
56 -28 0 -12 -23 -51 -49 -87 -27 -35 -47 -68 -45 -72 3 -5 32 -8 65 -8 57 0
59 1 59 27 0 25 -1 25 -18 10 -21 -19 -72 -23 -72 -6 0 6 20 34 45 61 31 35
45 59 45 79 0 43 -44 60 -96 39z"/>
<path d="M897 970 c-9 -16 -11 -30 -6 -30 5 0 9 -27 9 -60 0 -44 4 -61 16 -68
19 -10 54 -4 54 9 0 5 -7 6 -16 2 -26 -10 -34 17 -29 94 5 79 -5 99 -28 53z"/>
<path d="M4590 992 c-33 -10 -50 -46 -50 -107 0 -72 18 -105 58 -105 51 0 72
33 72 112 0 74 -32 115 -80 100z m40 -31 c16 -30 13 -146 -5 -161 -50 -42 -79
54 -49 163 7 23 41 22 54 -2z"/>
<path d="M4816 979 c-30 -23 -33 -50 -10 -74 15 -15 15 -17 0 -34 -46 -51 23
-124 86 -90 42 22 51 59 22 90 -15 17 -15 19 0 34 22 22 20 51 -4 75 -26 26
-60 25 -94 -1z m80 -24 c10 -40 -2 -57 -38 -53 -26 2 -34 8 -36 26 -7 51 62
76 74 27z m-7 -89 c7 -8 11 -27 9 -43 -2 -23 -8 -29 -35 -31 -25 -2 -33 1 -38
18 -12 36 2 70 29 70 13 0 29 -6 35 -14z"/>
<path d="M5005 975 c-38 -37 -38 -146 0 -184 50 -52 105 2 105 104 0 46 -4 60
-25 80 -13 14 -31 25 -40 25 -9 0 -27 -11 -40 -25z m65 -14 c5 -11 10 -45 10
-76 0 -31 -5 -65 -10 -76 -15 -26 -47 -24 -56 4 -12 37 -8 135 6 151 17 22 37
20 50 -3z"/>
<path d="M608 948 c7 -7 12 -35 12 -64 0 -29 5 -56 13 -62 6 -5 39 -9 72 -9
33 0 54 2 48 4 -9 3 -13 27 -13 74 0 59 -3 69 -17 69 -15 0 -18 -10 -18 -62 0
-61 -1 -63 -27 -66 l-28 -3 0 65 c0 65 0 66 -27 66 -21 0 -24 -3 -15 -12z"/>
<path d="M940 950 c0 -5 7 -10 16 -10 8 0 12 5 9 10 -3 6 -10 10 -16 10 -5 0
-9 -4 -9 -10z"/>
<path d="M1005 886 c0 -60 3 -72 19 -79 10 -4 19 -6 20 -5 1 2 0 35 -2 75 -3
56 -7 72 -20 75 -15 4 -17 -5 -17 -66z"/>
<path d="M1110 959 c-1 -2 -2 -52 -3 -112 l-2 -107 25 1 c14 0 19 3 13 6 -7 2
-13 16 -13 29 0 21 5 24 33 24 41 0 66 25 74 74 10 63 -46 113 -85 74 -8 -8
-15 -8 -27 2 -8 7 -15 11 -15 9z m94 -35 c11 -29 6 -81 -8 -94 -8 -6 -25 -10
-38 -8 -47 6 -31 118 18 118 12 0 25 -7 28 -16z"/>
<path d="M1365 933 c42 -104 48 -133 37 -158 -9 -20 -17 -25 -32 -20 -15 5
-20 2 -20 -10 0 -12 5 -15 16 -11 9 3 20 6 25 6 9 0 61 98 92 173 15 35 15 37
-4 37 -11 0 -19 -7 -19 -16 0 -25 -22 -94 -30 -94 -11 0 -33 87 -25 99 4 7 -4
11 -20 11 -22 0 -26 -3 -20 -17z"/>
<path d="M2502 933 c8 -10 25 -46 37 -80 27 -73 22 -107 -15 -100 -18 3 -24 0
-24 -14 0 -11 6 -19 14 -19 15 0 66 55 66 71 0 4 15 40 34 79 l34 70 -23 0
c-17 0 -22 -5 -19 -18 3 -9 -3 -35 -12 -57 l-17 -40 -12 30 c-23 54 -27 75
-16 75 6 0 11 5 11 10 0 6 -16 10 -37 10 -33 0 -35 -1 -21 -17z"/>
<path d="M1810 821 c0 -12 6 -21 16 -21 9 0 14 7 12 17 -5 25 -28 28 -28 4z"/>
<path d="M4720 795 c0 -8 7 -15 15 -15 8 0 15 7 15 15 0 8 -7 15 -15 15 -8 0
-15 -7 -15 -15z"/>
<path d="M348 479 c16 -17 17 -180 0 -197 -9 -9 -4 -12 23 -12 21 0 29 3 21 9
-9 5 -12 30 -10 87 l3 79 24 -72 c13 -40 30 -73 37 -73 7 0 25 33 41 73 l28
72 3 -73 c2 -46 -2 -79 -9 -88 -9 -11 -6 -14 17 -14 l29 0 0 110 c0 97 -2 110
-17 110 -21 0 -26 -8 -59 -90 -30 -73 -26 -75 -65 33 -9 26 -22 47 -30 47 -7
0 -21 3 -31 6 -15 6 -16 4 -5 -7z"/>
<path d="M795 377 c0 -108 1 -113 20 -109 19 3 20 10 17 113 -3 94 -6 109 -20
109 -15 0 -17 -14 -17 -113z"/>
<path d="M1279 471 c15 -27 14 -184 -1 -199 -9 -9 -5 -12 20 -12 24 0 30 4 26
15 -4 8 -7 59 -8 112 -1 94 -2 98 -24 101 -21 3 -22 1 -13 -17z"/>
<path d="M2336 465 c4 -9 7 -59 8 -112 l1 -96 42 -4 c33 -3 47 1 63 17 27 27
28 100 2 123 -21 19 -48 22 -57 7 -14 -23 -25 -7 -25 35 0 38 -3 45 -20 45
-13 0 -18 -5 -14 -15z m100 -99 c3 -13 4 -38 2 -57 -3 -30 -6 -34 -33 -34 -28
0 -30 3 -33 43 -2 24 2 50 9 58 18 22 48 17 55 -10z"/>
<path d="M1010 460 c0 -5 7 -10 15 -10 8 0 15 5 15 10 0 6 -7 10 -15 10 -8 0
-15 -4 -15 -10z"/>
<path d="M1645 450 c-22 -25 -31 -98 -16 -142 21 -63 88 -68 118 -8 24 48 13
140 -21 162 -21 14 -63 8 -81 -12z m75 -16 c13 -33 13 -105 0 -139 -7 -19 -16
-26 -32 -23 -17 2 -24 13 -31 43 -7 36 -2 119 10 138 10 17 44 6 53 -19z"/>
<path d="M1896 454 c-20 -19 -21 -58 -2 -73 13 -11 12 -15 -5 -32 -26 -26 -24
-54 7 -78 35 -28 69 -26 99 4 29 28 31 42 10 73 -14 19 -14 24 0 45 16 24 12
55 -9 69 -20 14 -84 8 -100 -8z m84 -8 c6 -8 10 -25 8 -38 -2 -19 -9 -23 -38
-23 -31 0 -35 3 -38 29 -5 42 41 64 68 32z m-2 -98 c7 -7 12 -22 12 -34 0 -51
-72 -61 -78 -11 -2 16 -1 35 2 43 7 17 48 18 64 2z"/>
<path d="M2084 449 c-26 -29 -27 -150 -2 -175 22 -22 66 -21 90 4 22 21 35 94
24 136 -14 56 -75 75 -112 35z m76 -25 c12 -35 8 -122 -5 -144 -12 -20 -45
-10 -55 16 -15 39 -12 117 6 142 22 32 41 27 54 -14z"/>
<path d="M2781 446 c-8 -10 -9 -16 -1 -21 5 -3 13 1 16 9 4 10 18 16 35 16 22
0 30 -6 35 -25 6 -25 -6 -51 -43 -90 -25 -26 -53 -67 -53 -77 0 -5 29 -8 65
-8 58 0 65 2 65 20 0 11 -4 20 -10 20 -5 0 -10 -4 -10 -10 0 -11 -63 -14 -73
-4 -3 3 16 33 44 66 50 60 58 85 37 106 -17 17 -93 15 -107 -2z"/>
<path d="M895 430 c-3 -11 -12 -20 -18 -20 -7 0 -5 -5 5 -10 12 -8 15 -19 11
-49 -7 -54 10 -81 50 -80 23 1 26 3 10 6 -19 4 -23 12 -25 44 -1 21 -2 47 -2
56 -1 10 9 20 24 24 25 7 25 7 2 8 -15 1 -26 9 -29 21 -3 11 -9 20 -13 20 -5
0 -12 -9 -15 -20z"/>
<path d="M4570 429 c-31 -18 -32 -19 -9 -15 27 6 27 6 31 -67 5 -85 3 -95 -25
-100 -12 -2 7 -4 43 -5 41 0 56 3 40 7 -24 7 -25 9 -25 104 0 58 -4 97 -10 97
-5 -1 -26 -10 -45 -21z"/>
<path d="M4835 423 c-52 -53 -61 -127 -20 -168 30 -30 54 -31 89 -4 32 25 35
70 6 99 -17 17 -28 19 -56 14 l-36 -7 16 32 c9 17 31 38 49 45 31 14 31 14 6
15 -16 1 -37 -10 -54 -26z m54 -87 c7 -8 11 -30 9 -48 -3 -28 -7 -33 -32 -36
-34 -4 -46 10 -46 55 0 22 5 33 18 36 31 8 39 7 51 -7z"/>
<path d="M4996 428 c-36 -57 -27 -166 16 -189 30 -16 66 -3 83 31 27 52 16
149 -19 172 -23 16 -66 8 -80 -14z m63 3 c19 -12 28 -130 12 -160 -16 -29 -49
-27 -61 5 -6 14 -7 30 -4 36 4 6 0 14 -7 19 -10 6 -11 9 -1 9 7 0 12 14 12 34
0 61 15 78 49 57z"/>
<path d="M608 409 c7 -7 12 -38 12 -71 0 -66 18 -86 64 -68 15 5 28 6 31 0 3
-5 11 -7 18 -4 8 3 11 27 9 79 -4 73 -4 75 -30 75 -20 0 -23 -3 -14 -12 7 -7
12 -33 12 -60 0 -35 -5 -50 -18 -57 -32 -17 -47 3 -47 66 0 54 -2 58 -25 61
-20 3 -23 1 -12 -9z"/>
<path d="M1105 412 c-6 -4 -10 -54 -10 -112 l0 -105 28 -1 c15 -1 27 3 27 7 0
5 -4 9 -10 9 -5 0 -10 11 -10 25 0 21 5 25 28 25 60 0 93 52 72 116 -13 38
-45 53 -78 35 -11 -6 -23 -6 -28 -1 -5 5 -14 6 -19 2z m83 -21 c16 -9 19 -88
4 -103 -5 -5 -20 -8 -33 -6 -21 3 -24 9 -27 48 -3 33 1 47 14 57 21 15 25 16
42 4z"/>
<path d="M1008 350 c2 -35 -1 -66 -7 -74 -9 -10 -5 -13 16 -12 l28 1 -3 73
c-3 59 -7 72 -20 72 -14 0 -16 -9 -14 -60z"/>
<path d="M1358 398 c5 -7 20 -42 32 -77 19 -54 20 -67 9 -87 -9 -17 -18 -22
-31 -18 -18 5 -25 -10 -9 -20 23 -14 47 14 89 103 24 53 49 99 56 103 6 4 -4
8 -23 8 -25 0 -31 -3 -23 -12 6 -9 3 -27 -10 -58 l-20 -45 -15 34 c-8 19 -13
45 -10 58 4 20 0 23 -26 23 -22 0 -27 -3 -19 -12z"/>
<path d="M2505 391 c53 -129 56 -143 40 -168 -13 -19 -19 -22 -30 -13 -17 14
-33 -6 -17 -22 20 -20 51 3 78 60 14 31 36 78 49 105 l22 47 -23 0 c-16 0 -21
-5 -18 -18 6 -23 -25 -97 -36 -86 -11 12 -30 85 -25 94 3 4 -7 10 -21 13 -20
3 -24 1 -19 -12z"/>
<path d="M1800 275 c0 -8 9 -15 20 -15 11 0 20 7 20 15 0 8 -9 15 -20 15 -11
0 -20 -7 -20 -15z"/>
<path d="M4710 255 c0 -8 9 -15 20 -15 11 0 20 7 20 15 0 8 -9 15 -20 15 -11
0 -20 -7 -20 -15z"/>
</g>
</svg>
