<?xml version="1.0" standalone="no"?>
<!DOCTYPE svg PUBLIC "-//W3C//DTD SVG 20010904//EN"
 "http://www.w3.org/TR/2001/REC-SVG-20010904/DTD/svg10.dtd">
<svg version="1.0" xmlns="http://www.w3.org/2000/svg"
 width="2024.000000pt" height="637.000000pt" viewBox="0 0 2024.000000 637.000000"
 preserveAspectRatio="xMidYMid meet">

<g transform="translate(0.000000,637.000000) scale(0.100000,-0.100000)"
fill="#000000" stroke="none">
<path d="M2827 5886 c-20 -8 -44 -19 -52 -26 -17 -14 -37 -72 -39 -114 -1 -26
-6 -32 -29 -34 -25 -3 -28 -7 -25 -35 2 -22 10 -35 26 -42 22 -10 23 -15 22
-115 -1 -58 -1 -131 -1 -162 l1 -58 40 0 40 0 1 103 c0 56 1 131 2 167 l2 65
48 3 c42 3 47 6 47 27 0 27 -25 45 -64 45 -35 0 -41 15 -22 65 17 44 46 62 81
49 18 -7 35 10 35 37 0 15 -39 39 -63 39 -7 -1 -29 -7 -50 -14z"/>
<path d="M4346 5844 c-21 -21 -20 -47 2 -67 22 -20 41 -21 65 -3 22 17 22 49
-1 69 -23 21 -46 22 -66 1z"/>
<path d="M1092 5834 c-27 -19 -28 -55 -3 -78 17 -16 23 -16 48 -4 35 16 41 50
14 77 -25 25 -30 26 -59 5z"/>
<path d="M15182 5842 l-22 -3 2 -272 3 -272 38 -3 38 -3 -1 253 c-1 139 -4
263 -7 275 -5 24 -18 31 -51 25z"/>
<path d="M805 5831 c-27 -3 -68 -17 -90 -31 -52 -31 -105 -87 -105 -109 0 -10
-3 -21 -7 -25 -12 -11 -32 -98 -33 -137 0 -55 37 -165 66 -194 65 -65 177 -89
276 -60 32 9 61 22 65 28 4 7 8 69 9 140 l1 127 -26 1 c-14 0 -46 1 -71 3 -57
2 -80 -8 -80 -39 0 -30 6 -34 59 -37 l41 -3 -2 -60 c-2 -78 -16 -95 -79 -95
-117 0 -191 94 -175 222 4 29 8 62 9 72 1 11 22 40 48 67 41 42 52 48 103 54
32 4 74 3 97 -3 38 -10 41 -9 50 15 12 33 12 36 -9 49 -25 16 -89 23 -147 15z"/>
<path d="M6435 5830 c-3 -5 -14 -10 -24 -10 -10 0 -34 -16 -53 -36 -61 -61
-86 -174 -67 -304 8 -60 18 -85 45 -123 39 -54 65 -67 134 -67 42 0 54 5 90
37 66 59 83 108 84 238 1 100 -1 115 -26 165 -15 31 -40 65 -55 76 -33 24
-118 40 -128 24z m81 -82 c34 -39 46 -80 49 -168 3 -112 -8 -160 -46 -198 -36
-36 -54 -39 -89 -15 -51 35 -60 62 -66 190 -3 71 0 91 20 137 13 30 32 59 42
65 31 17 69 13 90 -11z"/>
<path d="M6810 5833 c-42 -7 -73 -36 -65 -62 6 -19 12 -22 33 -16 15 4 50 9
78 12 47 4 53 2 77 -26 23 -28 25 -35 15 -62 -12 -35 -79 -72 -115 -63 -20 6
-35 -7 -39 -33 -3 -19 17 -30 65 -36 107 -14 147 -112 69 -170 -29 -22 -105
-25 -154 -7 -25 10 -31 8 -47 -11 -23 -29 -10 -44 55 -59 61 -15 157 -8 190
14 42 27 71 77 76 128 4 41 1 53 -23 84 -15 19 -38 40 -51 46 -30 14 -30 22
-1 35 28 13 57 69 57 108 0 40 -30 84 -72 106 -35 18 -86 22 -148 12z"/>
<path d="M7642 5819 c-49 -25 -61 -44 -40 -65 12 -12 20 -11 57 7 83 40 161
-1 161 -84 0 -58 -34 -109 -153 -229 -71 -72 -97 -104 -97 -123 l0 -25 171 0
170 0 -3 33 -3 32 -97 3 c-63 2 -98 7 -98 14 0 6 19 30 43 54 23 23 47 49 52
57 6 8 25 35 43 61 45 63 61 149 37 200 -25 53 -63 76 -137 82 -52 4 -70 2
-106 -17z"/>
<path d="M8082 5832 c-13 -4 -24 -10 -24 -14 -1 -4 -5 -34 -10 -65 -5 -32 -11
-84 -14 -115 l-6 -58 67 0 c104 0 159 -44 150 -120 -4 -33 -30 -70 -47 -70 -5
0 -16 -7 -24 -15 -17 -17 -48 -18 -112 -6 -32 6 -47 5 -57 -6 -35 -35 17 -63
117 -63 60 0 78 4 114 27 80 51 111 172 61 241 -39 53 -68 69 -135 77 l-64 7
7 52 c4 28 9 54 11 57 2 4 45 7 95 8 50 1 95 4 100 7 15 9 10 52 -7 58 -20 8
-192 6 -222 -2z"/>
<path d="M7253 5800 c-50 -24 -61 -33 -56 -47 13 -37 24 -44 46 -28 12 8 29
15 39 15 16 0 18 -18 20 -217 l3 -218 33 -3 32 -3 1 103 c0 57 1 175 2 263 l2
160 -30 3 c-18 1 -56 -10 -92 -28z"/>
<path d="M4075 5756 c-9 -13 -13 -31 -9 -41 5 -13 3 -16 -7 -13 -23 8 -49 -11
-49 -36 0 -17 9 -27 30 -36 l30 -12 -1 -129 c0 -103 3 -133 16 -153 24 -36
118 -59 152 -38 22 14 3 51 -33 62 -19 7 -39 21 -45 32 -11 20 -14 227 -3 237
3 3 19 4 37 3 18 -2 40 3 50 10 16 12 16 15 2 36 -12 15 -26 22 -50 22 -33 0
-35 2 -41 40 -6 36 -10 40 -35 40 -19 0 -34 -8 -44 -24z"/>
<path d="M15852 5748 c-7 -7 -12 -25 -12 -40 0 -24 -4 -28 -30 -28 -27 0 -30
-3 -30 -29 0 -25 4 -30 28 -33 l27 -3 5 -130 c6 -156 18 -188 81 -206 49 -15
94 -3 94 25 0 21 -16 32 -57 41 -34 7 -37 17 -41 158 l-3 107 26 2 c14 0 30 2
35 3 6 2 18 3 28 4 14 1 18 8 15 29 -3 25 -7 27 -53 32 -50 5 -50 5 -53 43 -3
31 -7 37 -26 37 -12 0 -27 -5 -34 -12z"/>
<path d="M3350 5710 c-67 -8 -100 -24 -100 -50 0 -29 14 -32 80 -18 55 11 62
10 87 -8 15 -11 30 -32 34 -47 7 -27 -4 -37 -16 -17 -5 8 -11 7 -21 -1 -8 -7
-38 -16 -66 -20 -91 -15 -144 -89 -126 -176 8 -36 15 -45 52 -62 51 -25 71
-26 133 -5 36 12 51 14 65 5 10 -6 29 -11 44 -11 l26 0 -4 158 c-4 183 -10
198 -86 235 -39 19 -56 22 -102 17z m108 -251 c2 -30 -3 -42 -28 -68 -52 -52
-130 -35 -130 29 0 45 58 81 125 77 27 -2 30 -6 33 -38z"/>
<path d="M1732 5695 c-6 -5 -26 -21 -46 -35 -80 -57 -92 -246 -20 -321 35 -36
112 -63 162 -55 82 12 97 20 97 52 0 27 -3 29 -37 29 -21 0 -38 -4 -38 -9 0
-12 -80 2 -106 19 -19 12 -60 83 -52 90 1 1 58 5 125 8 67 3 127 8 134 12 8 5
10 27 6 67 -5 61 -36 116 -77 138 -26 14 -134 18 -148 5z m104 -63 c17 -12 44
-55 44 -72 0 -12 -16 -15 -85 -16 -81 -1 -85 0 -85 20 0 34 46 76 83 76 18 0
37 -4 43 -8z"/>
<path d="M2168 5686 c-34 -22 -35 -23 -47 -5 -11 19 -36 24 -63 14 -10 -4 -12
-44 -10 -193 1 -103 4 -193 7 -199 6 -16 47 -17 63 -1 8 8 12 52 12 131 0 132
13 176 56 196 31 14 47 14 78 0 33 -15 37 -33 42 -189 3 -82 9 -137 15 -141 6
-4 23 -3 38 0 26 7 26 8 28 117 5 194 -5 230 -75 276 -39 26 -102 23 -144 -6z"/>
<path d="M3088 5685 c-33 -30 -34 -30 -41 -5 -7 27 -62 28 -76 1 -6 -10 -7
-21 -4 -25 4 -3 6 -85 5 -181 l-2 -175 40 0 c39 0 40 0 40 38 2 204 3 205 29
249 14 24 34 44 43 44 10 1 23 3 28 4 6 1 15 3 21 4 5 0 9 16 7 34 -3 27 -7
32 -33 35 -21 2 -38 -5 -57 -23z"/>
<path d="M3765 5699 c-50 -15 -111 -78 -124 -129 -19 -72 -17 -121 7 -170 38
-79 127 -119 232 -105 59 8 76 24 60 55 -10 18 -18 21 -48 17 -67 -9 -129 11
-159 49 -23 31 -25 41 -20 94 4 48 11 65 36 92 30 32 33 33 110 33 77 -1 80 0
86 24 5 18 1 29 -11 38 -20 15 -123 16 -169 2z"/>
<path d="M4675 5700 c-3 -5 -15 -10 -27 -10 -18 0 -102 -63 -104 -78 0 -4 -7
-20 -14 -37 -17 -37 -17 -119 0 -169 28 -85 137 -140 227 -113 21 6 45 17 54
24 8 7 19 13 23 13 4 0 18 12 31 28 34 39 52 145 35 206 -14 49 -66 111 -109
128 -38 15 -109 20 -116 8z m103 -87 c28 -21 50 -72 51 -118 1 -42 -39 -112
-73 -130 -85 -44 -156 18 -156 135 0 57 11 84 48 119 21 19 33 22 65 18 22 -3
52 -14 65 -24z"/>
<path d="M1247 5688 c-19 -10 -23 -43 -7 -53 6 -3 10 -17 10 -31 0 -13 5 -24
10 -24 6 0 10 -9 10 -20 0 -11 4 -28 10 -38 5 -9 18 -44 29 -77 56 -162 54
-160 89 -163 31 -3 33 -1 62 63 17 37 30 71 30 77 0 5 6 24 14 41 53 123 82
215 70 227 -18 18 -68 -4 -78 -36 -5 -16 -15 -44 -23 -62 -18 -42 -45 -131
-48 -156 -2 -29 -23 -31 -34 -4 -5 13 -21 64 -35 113 -15 50 -33 101 -41 114
-16 30 -45 42 -68 29z"/>
<path d="M4346 5685 c-6 -16 -10 -374 -4 -380 4 -4 38 -8 59 -6 14 1 16 25 18
195 l2 193 -23 7 c-35 9 -45 7 -52 -9z"/>
<path d="M5014 5688 c-6 -9 -9 -241 -5 -364 1 -23 28 -35 59 -27 17 4 18 17
18 139 l0 134 31 32 c41 41 96 42 131 3 20 -24 22 -36 22 -155 0 -70 3 -135 6
-144 4 -10 18 -16 40 -16 l34 0 1 83 c0 45 1 100 2 122 3 69 -22 147 -55 174
-38 30 -100 37 -158 17 -24 -8 -49 -11 -55 -7 -20 16 -64 21 -71 9z"/>
<path d="M1092 5678 c-5 -7 -9 -63 -8 -126 0 -63 -1 -116 -3 -118 -8 -8 1
-139 10 -150 8 -10 55 -11 65 -1 3 2 5 88 5 191 0 193 -4 216 -41 216 -10 0
-22 -6 -28 -12z"/>
<path d="M15365 5677 c-3 -7 -3 -25 -1 -42 3 -16 5 -101 5 -187 l1 -158 38 0
37 0 -3 112 c-6 164 16 216 97 224 34 3 43 -1 65 -27 28 -33 29 -40 28 -202 0
-94 1 -99 23 -109 13 -6 31 -8 40 -4 15 5 16 22 12 149 -3 78 -10 155 -16 171
-15 37 -57 73 -93 82 -41 8 -102 -4 -126 -27 -27 -25 -40 -24 -44 2 -2 16 -11
23 -31 25 -15 1 -30 -3 -32 -9z"/>
<path d="M16185 5668 c-70 -24 -110 -100 -109 -203 2 -121 79 -195 203 -195
53 0 121 17 121 30 0 34 -12 39 -79 33 -53 -4 -76 -2 -105 12 -38 18 -66 58
-66 95 0 21 4 22 83 20 45 -1 106 -2 136 -1 l54 1 -6 54 c-13 132 -111 196
-232 154z m124 -62 c11 -7 41 -64 41 -78 0 -4 -45 -8 -100 -8 -55 0 -100 2
-100 5 0 3 6 20 14 38 23 55 92 75 145 43z"/>
<path d="M16589 5657 c-31 -14 -74 -63 -89 -101 -5 -15 -10 -55 -10 -89 0 -98
52 -169 137 -187 55 -11 67 -10 109 13 36 19 44 14 44 -22 0 -38 -33 -86 -69
-101 -30 -12 -100 -5 -153 15 -13 5 -19 0 -24 -19 -3 -13 -3 -29 0 -35 10 -16
97 -30 156 -25 72 7 113 33 141 92 21 44 23 59 23 252 l-1 205 -31 3 c-24 2
-32 -1 -32 -12 0 -20 -2 -20 -47 4 -42 22 -112 25 -154 7z m143 -67 c38 -29
52 -72 45 -142 -7 -79 -33 -109 -99 -111 -60 -2 -92 29 -108 107 -9 45 -8 61
5 93 9 21 26 46 38 55 30 24 88 23 119 -2z"/>
<path d="M17085 5662 c-43 -10 -72 -31 -103 -76 -24 -35 -27 -48 -26 -121 0
-66 4 -88 23 -118 46 -75 119 -102 227 -85 58 10 64 13 64 34 0 27 -1 27 -87
24 -95 -3 -142 26 -157 97 l-7 31 105 -3 c138 -3 170 3 173 35 1 14 -8 50 -19
80 -32 84 -104 122 -193 102z m112 -91 c42 -62 36 -68 -72 -68 -104 -1 -110 3
-84 61 15 32 45 46 94 43 33 -2 43 -8 62 -36z"/>
<path d="M17489 5629 l-29 -31 -10 26 c-7 20 -16 26 -41 26 -30 0 -31 -2 -25
-31 3 -17 6 -105 6 -195 l0 -164 35 0 35 0 0 120 c0 90 4 128 16 154 17 35 49
56 84 56 16 0 20 7 20 35 0 32 -2 35 -31 35 -22 0 -40 -9 -60 -31z"/>
<path d="M6133 5371 c-38 -36 -1 -90 52 -77 30 8 38 32 22 64 -15 34 -46 39
-74 13z"/>
<path d="M15526 5233 c-3 -16 -4 -63 -2 -105 2 -44 -1 -78 -6 -78 -5 0 -24 11
-42 25 -29 22 -76 34 -76 20 0 -3 9 -24 21 -46 11 -23 18 -43 15 -46 -2 -3 6
-24 20 -48 13 -24 24 -52 24 -62 0 -10 7 -27 15 -37 8 -11 15 -28 15 -38 0
-11 9 -36 20 -56 10 -20 22 -49 25 -64 6 -29 25 -39 25 -13 0 8 4 23 10 33 10
17 63 169 80 227 7 26 31 91 55 149 7 16 5 17 -16 11 -13 -4 -26 -11 -29 -14
-10 -13 -62 -42 -66 -38 -3 3 -5 45 -6 93 -1 49 -3 95 -6 102 -2 6 -19 12 -37
12 -28 0 -34 -4 -39 -27z"/>
<path d="M2783 4613 c-10 -3 -13 -71 -13 -288 0 -304 1 -308 52 -298 l27 5 0
288 1 288 -22 6 c-26 6 -28 6 -45 -1z"/>
<path d="M1658 4603 c-9 -2 -19 -12 -21 -21 -11 -39 -2 -541 9 -552 6 -6 24
-10 39 -8 l27 3 -1 284 c0 221 -3 286 -13 292 -7 5 -15 8 -18 8 -3 -1 -13 -3
-22 -6z"/>
<path d="M10672 4584 c-74 -20 -105 -38 -146 -85 -74 -87 -101 -244 -59 -340
29 -65 86 -107 149 -110 84 -3 141 32 175 106 36 79 15 172 -49 222 -30 23
-47 28 -93 28 -37 0 -65 -6 -83 -18 -35 -23 -42 -16 -26 22 26 63 90 108 169
120 40 6 46 9 46 31 1 22 -11 41 -25 39 -3 0 -29 -7 -58 -15z m17 -255 c51
-33 60 -128 16 -185 -27 -35 -54 -44 -98 -32 -70 18 -109 124 -70 190 27 46
100 59 152 27z"/>
<path d="M2127 4583 c-10 -3 -23 -17 -28 -31 -9 -23 -7 -30 12 -45 34 -28 78
-7 79 37 0 17 -27 47 -40 45 -3 -1 -13 -3 -23 -6z"/>
<path d="M6512 4571 c-59 -10 -92 -37 -125 -103 -58 -114 -44 -322 26 -392 32
-31 87 -56 128 -56 29 0 78 31 111 70 70 85 77 309 13 407 -16 23 -93 84 -104
82 -3 -1 -25 -5 -49 -8z m93 -122 c23 -44 25 -58 22 -166 -3 -130 -14 -158
-71 -186 -34 -18 -58 -12 -89 19 -30 30 -41 85 -40 194 2 105 19 158 62 187
46 32 84 16 116 -48z"/>
<path d="M7110 4572 c-40 -6 -88 -49 -118 -105 -25 -49 -27 -60 -27 -177 0
-119 1 -127 28 -173 40 -67 78 -89 147 -85 95 6 147 63 169 188 13 73 7 195
-11 223 -8 12 -18 34 -21 48 -12 48 -102 92 -167 81z m77 -81 c35 -25 50 -78
52 -176 3 -176 -68 -271 -152 -205 -36 29 -51 81 -51 185 -1 117 17 181 58
206 33 20 55 17 93 -10z"/>
<path d="M7453 4563 c-33 -11 -43 -20 -43 -36 0 -44 13 -49 61 -29 58 25 102
18 134 -20 14 -16 25 -38 25 -48 0 -28 -62 -69 -110 -72 -75 -5 -79 -68 -4
-68 71 0 113 -31 121 -89 4 -32 1 -43 -23 -70 -26 -28 -35 -32 -84 -32 -30 -1
-72 3 -92 9 -35 9 -37 8 -47 -20 -11 -32 -14 -30 54 -47 99 -26 222 7 248 67
6 15 16 30 20 33 5 4 6 30 2 58 -7 51 -35 91 -79 116 -17 10 -15 13 18 45 27
27 37 47 42 81 6 41 3 49 -26 82 -49 56 -128 71 -217 40z"/>
<path d="M8321 4562 c-53 -20 -71 -43 -52 -66 15 -17 41 -22 41 -7 0 16 67 32
104 26 62 -12 94 -70 76 -136 -10 -34 -126 -185 -156 -202 -32 -18 -94 -93
-94 -114 0 -23 0 -23 169 -23 l169 0 4 24 c3 14 2 29 -1 35 -4 6 -47 9 -104 8
-66 -1 -97 2 -97 9 0 6 24 38 53 70 115 131 137 171 137 257 0 105 -127 166
-249 119z"/>
<path d="M8741 4571 c-8 -5 -18 -49 -27 -112 -20 -152 -25 -139 51 -139 77 0
118 -18 140 -60 33 -64 8 -124 -64 -153 -36 -15 -45 -15 -97 -1 -61 15 -73 11
-74 -27 0 -26 75 -46 147 -39 73 7 146 55 164 109 16 47 6 147 -18 173 -26 29
-122 70 -149 64 -37 -10 -44 11 -36 104 2 18 11 20 104 22 98 3 101 4 103 26
1 13 -5 27 -14 32 -21 11 -212 12 -230 1z m69 -211 c0 -5 -4 -10 -10 -10 -5 0
-10 5 -10 10 0 6 5 10 10 10 6 0 10 -4 10 -10z"/>
<path d="M10128 4553 c-36 -19 -48 -31 -48 -48 0 -33 15 -39 50 -18 21 12 33
14 40 7 7 -7 12 -89 13 -219 2 -179 4 -209 18 -218 9 -6 24 -7 33 -4 14 6 16
35 16 267 l0 260 -37 -1 c-21 0 -59 -12 -85 -26z"/>
<path d="M989 4560 c-8 -5 -21 -28 -28 -52 -7 -24 -17 -52 -22 -63 -5 -11 -10
-30 -12 -42 -2 -11 -8 -27 -14 -35 -5 -7 -20 -55 -33 -106 -21 -88 -34 -105
-51 -71 -9 18 -22 51 -24 64 0 6 -4 17 -8 25 -6 15 -30 99 -31 112 -1 3 -4 10
-8 14 -5 4 -8 13 -8 20 0 7 -9 38 -21 69 -22 59 -49 76 -87 56 -17 -9 -20 -25
-26 -128 -4 -65 -9 -134 -11 -153 -2 -19 -7 -88 -10 -152 l-7 -118 36 0 36 0
1 63 c0 34 2 80 4 102 2 22 7 79 10 128 4 48 10 87 15 87 7 0 31 -74 35 -110
1 -8 16 -55 34 -105 17 -49 31 -96 31 -105 0 -9 6 -24 13 -33 15 -20 68 -31
66 -14 -1 7 3 25 9 40 7 16 12 33 12 38 0 5 4 17 9 27 11 20 40 109 45 137 2
11 11 37 20 57 9 21 16 46 16 56 0 11 8 26 17 33 15 12 16 12 10 -4 -4 -11 -5
-23 -2 -27 3 -5 7 -80 10 -167 2 -87 7 -166 10 -175 6 -15 53 -31 67 -22 4 3
5 42 3 87 -17 292 -23 421 -19 431 10 26 -57 54 -87 36z"/>
<path d="M7923 4542 c-41 -20 -53 -31 -53 -49 0 -31 20 -37 56 -18 16 8 34 15
39 15 6 0 9 -80 7 -225 l-3 -225 36 0 35 0 0 265 0 265 -32 -1 c-18 0 -57 -12
-85 -27z"/>
<path d="M15484 4550 c-31 -12 -84 -78 -100 -125 -16 -46 -18 -180 -4 -242 14
-60 60 -131 96 -148 18 -8 56 -15 85 -15 49 0 55 3 94 44 34 35 45 57 59 112
18 75 16 218 -3 237 -6 6 -11 18 -11 27 0 23 -44 80 -80 101 -32 20 -99 24
-136 9z m120 -76 c31 -35 43 -81 45 -187 2 -105 -11 -159 -46 -186 -60 -48
-129 -8 -151 89 -25 109 -12 214 35 287 22 34 84 32 117 -3z"/>
<path d="M16035 4536 c-2 -6 -6 -37 -9 -68 -3 -32 -9 -82 -12 -111 l-6 -54 77
-6 c70 -5 81 -9 111 -38 27 -26 34 -41 34 -70 0 -53 -16 -82 -55 -103 -33 -18
-68 -18 -152 -1 -21 5 -33 3 -33 -3 0 -6 -3 -17 -6 -25 -7 -19 72 -47 131 -47
47 0 105 17 105 31 0 5 6 9 13 9 29 0 61 63 65 128 4 54 1 68 -21 101 -29 44
-83 73 -149 79 -45 4 -48 7 -48 32 0 15 3 42 6 59 l7 31 99 0 99 0 -3 33 -3
32 -123 1 c-81 0 -125 -3 -127 -10z"/>
<path d="M16493 4521 c-52 -38 -73 -76 -88 -166 -24 -133 23 -288 99 -329 53
-28 136 -19 177 20 41 39 57 76 71 156 8 51 8 86 -1 138 -22 134 -72 195 -167
206 -44 5 -54 2 -91 -25z m118 -41 c74 -40 93 -301 27 -385 -15 -19 -29 -25
-56 -25 -53 1 -76 25 -97 103 -19 72 -16 171 7 247 18 57 72 84 119 60z"/>
<path d="M16963 4535 c-82 -24 -128 -97 -139 -223 -7 -77 13 -179 46 -235 24
-40 90 -77 136 -77 76 2 146 74 164 169 43 229 -59 410 -207 366z m105 -98
c25 -38 27 -46 27 -166 0 -109 -3 -131 -21 -161 -39 -68 -105 -63 -148 10 -25
43 -35 201 -16 269 27 102 106 126 158 48z"/>
<path d="M17350 4519 c-69 -42 -99 -106 -104 -219 -4 -88 5 -140 34 -206 27
-59 70 -87 142 -92 58 -4 59 -4 102 39 50 50 64 90 73 199 7 91 -15 187 -54
238 -47 62 -130 79 -193 41z m120 -67 c41 -42 53 -99 47 -224 -5 -99 -8 -109
-33 -138 -24 -26 -34 -31 -68 -28 -37 3 -43 8 -66 48 -23 41 -25 55 -25 165 0
123 5 141 49 192 20 22 66 15 96 -15z"/>
<path d="M17785 4522 c-46 -22 -65 -42 -93 -97 -22 -44 -25 -62 -24 -150 0
-110 15 -166 58 -222 53 -70 147 -80 213 -24 41 35 57 67 72 141 29 148 -13
300 -94 341 -51 27 -93 30 -132 11z m112 -77 c31 -36 44 -92 44 -196 0 -74 -4
-98 -24 -136 -41 -84 -110 -80 -155 8 -26 51 -30 218 -7 274 26 62 54 88 90
81 16 -3 40 -17 52 -31z"/>
<path d="M1859 4489 c-13 -13 -19 -29 -16 -40 4 -16 -1 -21 -24 -26 -24 -4
-29 -11 -29 -33 0 -22 5 -29 29 -33 l29 -6 1 -123 c1 -150 2 -158 21 -181 33
-39 141 -42 148 -3 5 22 -17 48 -34 42 -7 -3 -24 4 -39 16 -25 20 -26 22 -24
134 0 63 4 116 8 119 4 2 26 5 49 6 86 6 56 71 -33 73 -16 1 -21 9 -23 39 -4
44 -29 50 -63 16z"/>
<path d="M9326 4459 c-17 -17 -15 -21 63 -100 45 -46 81 -89 81 -96 0 -7 -34
-48 -75 -91 -41 -42 -75 -82 -75 -88 0 -6 6 -17 14 -23 11 -9 31 7 100 76 l87
88 80 -83 c45 -45 87 -82 94 -82 7 0 18 7 25 15 11 13 2 27 -61 89 -113 111
-108 98 -50 152 28 26 51 51 51 56 0 5 16 22 35 39 37 33 38 43 5 52 -15 4
-36 -12 -86 -62 -36 -37 -69 -73 -74 -80 -11 -19 -27 -8 -118 80 -74 72 -78
74 -96 58z"/>
<path d="M2445 4430 c-11 -4 -29 -17 -40 -27 -20 -19 -20 -19 -30 1 -12 23
-52 33 -68 17 -8 -8 -10 -264 -2 -491 3 -68 3 -68 38 -67 l32 2 3 98 3 97 39
-20 c83 -42 171 -16 225 68 26 41 30 55 29 122 0 77 -11 111 -52 157 -38 44
-125 65 -177 43z m95 -76 c40 -24 56 -61 54 -125 -4 -115 -73 -176 -153 -135
-50 27 -64 60 -59 143 4 64 9 78 33 103 33 35 80 40 125 14z"/>
<path d="M3223 4428 c-6 -7 -16 -31 -22 -53 -7 -22 -16 -49 -21 -60 -8 -17
-47 -139 -54 -169 -2 -11 -77 157 -97 219 -19 57 -27 65 -65 65 -36 0 -43 -14
-24 -48 13 -23 60 -143 60 -154 0 -5 16 -41 35 -81 19 -39 35 -80 35 -90 0
-32 -28 -74 -75 -112 -48 -40 -53 -51 -31 -80 13 -18 15 -17 59 10 25 16 56
46 69 67 13 21 26 38 31 38 4 0 7 6 7 14 0 8 13 40 29 72 16 33 41 95 56 139
15 44 32 85 37 91 5 7 8 16 7 20 -1 5 7 29 19 54 12 25 18 48 14 52 -16 15
-59 19 -69 6z"/>
<path d="M1206 4414 c-3 -9 -6 -78 -6 -154 0 -165 17 -221 72 -245 36 -14 130
-4 136 15 2 6 10 10 17 10 7 0 15 6 18 13 3 7 9 1 15 -14 14 -34 54 -35 62 -1
3 12 3 102 0 200 l-5 177 -35 0 -35 0 -2 -130 c-3 -154 -7 -175 -32 -175 -10
0 -21 -7 -25 -15 -7 -20 -46 -19 -72 3 -32 25 -43 76 -39 177 5 110 0 129 -31
144 -31 14 -31 14 -38 -5z"/>
<path d="M2105 4420 c-3 -5 -5 -96 -4 -200 3 -190 3 -191 26 -196 51 -13 53
-6 54 158 1 148 1 225 0 241 -1 11 -69 9 -76 -3z"/>
<path d="M12210 4382 c-6 -2 -10 -15 -10 -28 l0 -24 200 -1 c110 -1 206 -2
213 -3 17 -1 22 43 5 49 -15 5 -393 12 -408 7z"/>
<path d="M12207 4213 c-4 -3 -7 -14 -7 -24 0 -17 15 -18 178 -21 241 -4 252
-3 252 28 l0 24 -208 0 c-115 0 -212 -3 -215 -7z"/>
<path d="M6807 4112 c-25 -27 -21 -59 9 -78 25 -17 26 -16 52 10 26 25 26 28
12 54 -19 33 -50 39 -73 14z"/>
<path d="M15822 4098 c-16 -16 -15 -39 4 -66 31 -45 90 -9 75 46 -6 20 -14 28
-37 30 -16 2 -35 -3 -42 -10z"/>
<path d="M19546 4033 c-4 -4 -15 -8 -24 -8 -16 0 -17 -41 -14 -560 4 -725 9
-1137 12 -1150 1 -5 2 -14 1 -20 -2 -11 -1 -383 2 -822 1 -155 -2 -285 -6
-289 -4 -4 -30 7 -58 24 -50 32 -83 40 -93 23 -3 -5 1 -14 9 -21 8 -7 15 -20
15 -29 1 -9 9 -34 20 -56 11 -22 19 -45 20 -52 0 -7 9 -29 20 -48 11 -20 18
-40 15 -45 -3 -5 4 -24 16 -44 11 -19 18 -39 15 -44 -3 -5 3 -22 13 -38 10
-16 21 -46 25 -67 4 -20 11 -37 16 -37 6 0 10 -9 10 -20 0 -41 18 -17 40 53
40 128 62 192 71 201 5 6 9 17 9 25 0 15 33 108 51 143 5 9 12 35 15 58 6 37
5 40 -12 34 -11 -4 -33 -18 -51 -30 -17 -13 -42 -25 -55 -26 -23 -3 -23 -2
-24 107 -1 61 -5 583 -8 1160 -7 1041 -14 1563 -23 1578 -5 9 -18 9 -27 0z"/>
<path d="M12359 3609 c-9 -23 -3 -86 9 -100 14 -16 16 -77 18 -449 1 -245 -2
-433 -7 -436 -5 -3 -203 -5 -439 -5 -336 1 -430 -2 -430 -12 0 -9 -2 -9 -9 1
-6 11 -165 12 -862 8 -470 -3 -1517 -8 -2326 -12 l-1473 -7 0 31 c0 17 9 47
19 65 28 50 16 59 -49 35 -30 -11 -73 -25 -95 -32 -41 -13 -84 -29 -120 -46
-11 -5 -38 -14 -60 -20 -22 -6 -58 -18 -80 -27 -22 -8 -49 -19 -60 -23 -81
-31 -81 -31 -60 -46 10 -8 30 -14 44 -14 14 0 35 -7 45 -15 11 -8 30 -15 42
-15 12 0 35 -7 51 -15 15 -8 40 -17 55 -20 15 -3 33 -12 42 -20 8 -8 23 -15
33 -15 10 0 31 -7 47 -15 15 -8 38 -15 51 -15 12 0 34 -9 48 -20 26 -21 87
-28 87 -10 0 6 -9 27 -20 47 -21 40 -26 88 -10 98 9 6 663 10 685 5 6 -1 12
-1 15 0 3 1 161 3 351 4 190 2 351 6 357 10 6 3 13 3 16 -2 3 -6 214 -8 224
-2 3 2 70 2 80 0 4 -1 25 -1 47 0 62 2 243 2 315 0 36 -1 67 -1 70 0 3 1 322
3 710 4 388 1 710 5 717 9 6 4 14 4 16 0 6 -10 490 -9 506 1 6 4 18 3 25 -3 8
-7 23 -8 37 -3 13 4 38 6 54 5 31 -2 418 -4 538 -3 37 1 76 -1 86 -5 11 -3 22
-2 24 2 5 8 198 9 213 1 5 -2 45 -2 89 2 44 3 99 3 122 -1 23 -3 46 -2 52 4 5
5 16 5 28 -1 11 -6 25 -7 33 -2 8 5 21 5 30 0 9 -5 22 -5 30 0 8 5 22 4 32 -1
10 -6 24 -6 31 -2 6 4 20 6 29 5 9 -2 26 5 36 14 20 17 20 28 16 494 -4 449
-3 478 13 482 10 2 196 3 413 1 217 -2 415 -2 440 -2 25 1 54 1 65 0 65 -3
148 -1 165 4 11 4 20 3 20 -2 0 -10 201 -10 216 0 6 3 14 3 18 -1 4 -4 166 -8
359 -9 194 -1 450 -4 570 -5 120 -2 223 0 230 4 6 4 16 4 22 0 5 -4 138 -8
295 -8 157 -1 292 -5 301 -8 10 -4 20 -3 24 3 4 8 12 8 27 0 14 -8 23 -8 31 0
7 7 16 7 30 0 13 -8 22 -8 30 0 7 7 16 7 29 0 13 -7 23 -7 32 0 7 6 16 8 20 4
3 -4 116 -7 250 -8 l244 -2 5 24 c2 14 2 34 0 44 -5 17 -16 19 -137 20 -72 0
-255 2 -407 4 -840 13 -1851 17 -1845 7 3 -5 -1 -12 -9 -16 -8 -3 -17 -1 -20
4 -4 6 -1 10 6 10 7 0 10 3 7 6 -6 6 -1547 19 -1549 13z m81 -815 c0 -8 -4
-12 -10 -9 -5 3 -10 10 -10 16 0 5 5 9 10 9 6 0 10 -7 10 -16z"/>
<path d="M5065 1628 c-2 -7 -3 -139 -2 -293 l2 -280 24 -3 c13 -2 28 1 34 7 7
7 11 107 11 291 1 224 -2 281 -12 285 -24 9 -53 5 -57 -7z"/>
<path d="M3897 1623 c-3 -5 -4 -135 -4 -290 l1 -282 22 -5 c54 -14 54 -18 54
295 l0 289 -35 0 c-18 0 -36 -3 -38 -7z"/>
<path d="M10660 1610 c-8 -4 -31 -15 -50 -24 -95 -41 -160 -159 -160 -291 0
-69 14 -114 51 -158 120 -146 341 -32 313 161 -15 105 -150 168 -241 112 -38
-23 -46 -16 -28 25 27 65 119 125 191 125 24 0 37 21 28 45 -7 17 -78 20 -104
5z m49 -266 c28 -23 31 -32 31 -81 0 -73 -27 -120 -75 -129 -72 -13 -128 35
-141 122 -6 42 -4 48 27 80 28 29 39 34 80 34 36 0 55 -6 78 -26z"/>
<path d="M15269 1599 c-43 -25 -69 -74 -69 -129 0 -32 7 -46 35 -75 l36 -35
-40 -38 c-53 -51 -67 -101 -40 -153 30 -59 84 -91 156 -90 69 0 98 9 141 46
31 26 49 77 43 120 -5 33 -55 105 -73 105 -22 0 -24 26 -3 34 41 16 67 104 46
159 -24 64 -161 96 -232 56z m138 -51 c28 -14 45 -61 34 -91 -5 -12 -21 -33
-35 -46 -24 -23 -28 -24 -67 -11 -43 15 -67 41 -75 83 -3 19 4 33 26 56 32 32
64 34 117 9z m16 -252 c46 -42 50 -89 13 -133 -20 -23 -32 -28 -69 -28 -96 0
-145 70 -100 146 34 57 103 64 156 15z"/>
<path d="M15917 1605 c-21 -7 -48 -21 -59 -32 -101 -91 -92 -387 14 -466 39
-29 127 -35 164 -11 70 45 94 99 101 221 12 211 -83 335 -220 288z m97 -70
c34 -34 49 -93 50 -195 1 -106 -21 -173 -65 -196 -53 -27 -100 3 -125 80 -19
57 -16 225 6 266 37 73 89 90 134 45z m-144 -35 c0 -5 -2 -10 -4 -10 -3 0 -8
5 -11 10 -3 6 -1 10 4 10 6 0 11 -4 11 -10z"/>
<path d="M16340 1607 c-72 -34 -104 -78 -124 -171 -15 -71 -1 -208 27 -261 39
-73 103 -106 180 -91 37 7 97 51 97 72 0 8 4 14 8 14 15 0 35 104 34 184 0
143 -51 234 -142 255 -53 12 -48 12 -80 -2z m108 -82 c27 -30 37 -86 36 -200
-1 -123 -24 -174 -86 -189 -37 -8 -82 31 -102 91 -19 55 -20 192 -2 242 6 18
25 48 40 66 26 29 32 32 60 24 16 -5 41 -20 54 -34z"/>
<path d="M16767 1605 c-69 -24 -105 -73 -126 -173 -14 -66 -14 -159 -1 -167 6
-3 10 -19 10 -34 0 -29 44 -106 75 -131 24 -20 124 -23 160 -4 77 40 120 181
96 321 -10 61 -35 128 -56 148 -44 43 -105 59 -158 40z m77 -51 c30 -12 56
-70 64 -145 15 -148 -16 -260 -76 -272 -31 -6 -92 19 -92 38 0 6 -8 27 -17 46
-26 52 -21 223 8 278 29 56 65 73 113 55z"/>
<path d="M17590 1598 c-90 -42 -137 -190 -105 -338 29 -139 94 -194 206 -176
39 6 88 46 89 73 0 6 5 13 11 15 17 6 39 106 38 173 0 73 -27 173 -54 206 -32
38 -49 49 -98 58 -36 6 -53 4 -87 -11z m87 -44 c44 -12 65 -68 71 -191 6 -143
-8 -188 -68 -217 -37 -18 -41 -18 -65 -2 -14 10 -29 25 -32 34 -4 9 -11 20
-16 23 -5 4 -12 56 -15 117 -4 91 -2 119 14 162 23 65 58 88 111 74z"/>
<path d="M4385 1595 c-3 -8 -7 -22 -10 -31 -8 -24 13 -44 46 -44 35 0 56 38
39 71 -13 23 -68 27 -75 4z"/>
<path d="M7495 1600 c-34 -14 -82 -65 -106 -111 -32 -62 -38 -211 -12 -291 31
-94 83 -139 165 -140 60 -1 107 36 150 117 30 57 35 230 9 304 -31 82 -54 108
-112 120 -58 13 -67 13 -94 1z m78 -63 c30 -13 41 -27 65 -87 12 -32 9 -181
-6 -234 -17 -61 -43 -91 -85 -94 -46 -4 -80 27 -99 89 -17 59 -14 208 5 251 8
18 17 41 21 51 5 15 36 35 59 36 4 1 22 -5 40 -12z"/>
<path d="M7915 1590 c-50 -23 -69 -43 -95 -103 -42 -94 -32 -288 18 -355 68
-92 188 -96 256 -8 57 75 75 249 37 359 -21 61 -45 89 -98 113 -42 19 -69 17
-118 -6z m111 -61 c31 -25 45 -82 47 -189 2 -84 -2 -114 -16 -146 -19 -43 -60
-74 -97 -74 -23 0 -67 42 -81 77 -17 44 -21 136 -9 201 21 110 50 151 106 146
19 -1 42 -8 50 -15z"/>
<path d="M8306 1566 c-48 -50 -72 -105 -81 -187 -13 -118 29 -255 88 -294 35
-23 116 -25 157 -4 83 42 112 115 111 281 -1 162 -68 250 -187 245 -42 -2 -54
-7 -88 -41z m154 -46 c64 -68 68 -272 8 -362 -35 -52 -107 -46 -141 11 -36 61
-38 239 -5 324 24 63 92 76 138 27z"/>
<path d="M8783 1603 c-31 -6 -95 -76 -111 -121 -20 -57 -26 -173 -12 -244 6
-35 15 -65 18 -68 4 -3 14 -18 24 -35 24 -44 70 -68 129 -66 115 2 170 81 177
256 5 117 -17 196 -67 247 -26 26 -39 32 -83 34 -29 1 -63 0 -75 -3z m93 -68
c41 -28 57 -81 58 -194 0 -84 -3 -115 -19 -148 -41 -91 -135 -89 -170 3 -35
93 -20 279 28 332 24 26 72 29 103 7z"/>
<path d="M10138 1583 c-44 -21 -58 -33 -58 -50 0 -32 17 -38 55 -17 19 10 37
15 41 11 4 -4 7 -105 8 -224 l1 -218 31 -3 c29 -3 32 -1 36 35 3 21 4 139 3
263 l-3 225 -28 3 c-16 1 -55 -10 -86 -25z"/>
<path d="M17168 1599 c-14 -6 -42 -34 -62 -62 -44 -64 -61 -163 -44 -261 24
-138 73 -191 176 -191 59 0 64 2 102 40 109 110 86 412 -37 470 -35 17 -94 18
-135 4z m106 -60 c50 -39 59 -72 59 -208 -1 -68 -5 -126 -10 -130 -6 -3 -15
-16 -21 -28 -7 -12 -28 -27 -47 -33 -43 -14 -75 2 -101 52 -26 50 -31 222 -9
284 30 81 77 104 129 63z"/>
<path d="M1882 1588 c-34 -34 6 -101 47 -79 32 18 39 51 15 75 -18 19 -45 21
-62 4z"/>
<path d="M6450 1589 c-84 -34 -134 -158 -123 -308 3 -36 9 -74 14 -83 5 -9 9
-24 9 -33 0 -9 14 -34 32 -56 80 -100 238 -59 277 72 64 214 -6 420 -143 418
-23 0 -52 -5 -66 -10z m113 -77 c50 -52 62 -230 22 -330 -17 -41 -55 -72 -88
-72 -24 0 -67 40 -83 78 -22 51 -20 230 2 275 42 82 97 101 147 49z"/>
<path d="M7006 1588 c-4 -14 -21 -122 -32 -199 l-6 -47 65 0 c67 -1 120 -19
144 -51 7 -9 13 -37 13 -62 0 -38 -5 -50 -31 -75 -29 -28 -34 -29 -122 -29
-87 0 -92 -1 -95 -22 -5 -32 31 -46 113 -47 130 0 205 65 205 179 -1 70 -11
92 -63 133 -28 23 -53 32 -97 37 -59 7 -60 7 -59 38 3 80 4 81 114 87 l100 5
0 30 0 30 -123 3 c-93 2 -123 0 -126 -10z"/>
<path d="M751 1576 c-7 -10 -42 -115 -70 -211 -6 -22 -25 -87 -42 -145 -49
-168 -52 -182 -37 -191 7 -5 23 -9 35 -9 18 0 24 9 33 43 6 23 17 62 23 87
l13 45 77 1 c52 1 80 -2 87 -11 6 -8 21 -44 33 -82 18 -56 27 -69 50 -77 44
-16 51 2 29 70 -11 32 -25 80 -32 107 -7 26 -17 50 -21 53 -5 3 -9 16 -9 29 0
13 -5 37 -11 52 -6 15 -15 37 -20 48 -16 42 -53 161 -53 175 -1 18 -72 32 -85
16z m54 -153 c1 -10 5 -25 8 -33 16 -37 37 -104 37 -115 0 -14 -116 -21 -123
-8 -2 5 9 50 25 102 21 66 33 90 41 82 5 -5 11 -18 12 -28z"/>
<path d="M4119 1502 c-5 -14 -7 -27 -4 -30 3 -3 -8 -11 -25 -18 -52 -22 -51
-65 2 -69 22 -2 23 -4 23 -116 1 -139 10 -183 42 -209 42 -33 133 -25 133 10
0 21 -15 33 -42 35 -10 1 -27 10 -38 20 -18 16 -20 31 -20 142 l0 123 50 0
c36 0 52 4 56 15 10 25 -16 45 -57 45 -41 0 -59 18 -56 55 3 32 -52 29 -64 -3z"/>
<path d="M9320 1485 c-14 -17 -12 -21 93 -127 31 -32 57 -62 57 -67 0 -5 -36
-47 -80 -92 -44 -46 -80 -86 -80 -90 0 -4 7 -13 16 -20 14 -12 26 -3 98 73 67
71 84 85 98 77 10 -5 51 -44 92 -87 73 -75 75 -76 94 -58 20 17 19 19 -61 103
-45 46 -83 88 -85 91 -1 4 36 48 82 97 71 75 83 92 72 103 -19 19 -42 4 -124
-80 -36 -38 -70 -68 -76 -68 -7 0 -38 27 -71 61 -33 33 -72 69 -86 80 -24 17
-28 17 -39 4z"/>
<path d="M4755 1453 c-16 -3 -44 -15 -61 -28 l-31 -24 -12 25 c-9 20 -17 25
-38 22 l-27 -3 1 -275 2 -275 31 -6 c35 -7 42 0 40 39 -1 15 -2 55 -1 90 l1
63 33 -18 c49 -26 133 -23 178 8 67 44 84 81 84 179 0 78 -3 91 -28 128 -27
42 -91 83 -124 81 -10 -1 -31 -4 -48 -6z m68 -74 c39 -18 60 -64 59 -130 -1
-68 -20 -107 -64 -132 -26 -15 -36 -15 -71 -5 -72 20 -82 36 -82 134 0 84 1
86 33 115 35 31 81 38 125 18z"/>
<path d="M5523 1449 c-21 -8 -72 -124 -95 -218 -6 -25 -17 -53 -25 -61 -8 -8
-13 -10 -12 -5 2 10 -5 32 -24 75 -6 14 -25 66 -42 115 l-32 90 -41 2 c-46 3
-45 11 -11 -72 4 -11 19 -51 34 -90 14 -38 32 -83 39 -100 37 -81 46 -116 35
-136 -18 -34 -80 -99 -95 -99 -19 0 -27 -18 -20 -46 11 -41 47 -31 108 30 35
35 61 74 77 112 13 33 32 78 42 102 11 23 21 51 22 63 2 11 8 24 13 27 6 4 21
39 33 77 13 39 30 82 37 97 8 15 14 29 14 31 0 10 -37 14 -57 6z"/>
<path d="M1570 1440 c-41 -7 -80 -30 -80 -46 0 -22 27 -36 49 -25 37 20 100
13 127 -14 35 -35 28 -59 -16 -63 -74 -5 -98 -13 -132 -45 -60 -54 -69 -146
-18 -192 29 -26 118 -32 158 -11 39 20 52 20 52 1 0 -10 10 -15 29 -15 l29 0
-3 154 c-3 161 -10 191 -54 230 -25 22 -91 34 -141 26z m120 -251 c0 -22 -6
-47 -12 -54 -7 -8 -19 -21 -26 -30 -17 -20 -71 -19 -94 2 -24 22 -23 57 5 86
24 27 44 34 95 36 31 1 32 0 32 -40z"/>
<path d="M2191 1429 c-40 -19 -45 -20 -53 -5 -5 9 -22 16 -39 16 l-31 0 4
-195 c3 -209 5 -217 53 -207 24 4 24 5 24 133 -1 151 12 187 70 202 74 19 114
-29 111 -130 -1 -27 -1 -83 -1 -125 l1 -78 38 0 38 0 -4 151 c-3 161 -9 184
-55 228 -36 32 -99 37 -156 10z"/>
<path d="M2868 1433 c-21 -8 -38 -20 -38 -26 0 -6 -9 -1 -21 12 -28 30 -74 26
-73 -6 0 -13 1 -102 2 -199 l2 -175 38 3 37 3 -3 121 c-1 67 2 134 8 149 14
38 49 64 85 64 69 0 85 -42 83 -213 l-2 -121 28 -3 c16 -2 33 1 38 6 5 5 10
72 11 149 2 166 10 183 82 183 71 0 79 -17 85 -189 l5 -146 34 0 35 0 -2 130
c-1 72 -2 142 -3 157 -1 34 -37 89 -69 105 -44 22 -103 16 -147 -16 l-39 -29
-39 29 c-44 33 -81 36 -137 12z"/>
<path d="M3695 1441 c-3 -2 -5 -61 -5 -130 0 -127 -9 -167 -40 -181 -8 -4 -25
-12 -37 -18 -26 -14 -60 -4 -86 26 -24 26 -25 35 -26 180 l-1 122 -35 0 -35 0
0 -144 c0 -158 10 -199 57 -236 21 -17 39 -20 85 -19 33 1 61 6 64 11 3 4 20
15 37 24 18 9 29 13 25 9 -14 -15 11 -41 40 -43 l30 -2 -1 202 -2 203 -33 0
c-18 1 -35 -1 -37 -4z"/>
<path d="M4387 1444 c-3 -4 -7 -94 -7 -200 l0 -194 39 0 38 0 -1 198 -1 197
-30 3 c-17 2 -34 0 -38 -4z"/>
<path d="M1106 1397 c-24 -24 -49 -61 -56 -82 -14 -42 -7 -162 10 -179 5 -5
10 -18 10 -27 0 -26 67 -71 114 -76 31 -4 54 1 84 16 l42 21 0 -30 c0 -38 -38
-99 -67 -106 -20 -5 -39 -4 -132 8 -30 4 -48 -34 -26 -56 18 -18 110 -30 162
-22 53 10 102 55 119 113 19 63 22 442 3 454 -14 8 -40 1 -51 -14 -4 -6 -22
-4 -47 7 -23 9 -59 16 -81 16 -34 0 -47 -7 -84 -43z m169 -49 c22 -20 27 -33
31 -95 3 -44 1 -74 -6 -78 -5 -3 -10 -14 -10 -24 0 -24 -42 -51 -79 -51 -49 0
-81 36 -90 101 -8 58 2 105 29 147 21 31 89 31 125 0z"/>
<path d="M1880 1241 c0 -191 1 -200 20 -206 11 -3 28 -4 38 -1 15 5 17 23 15
197 -1 203 -2 209 -50 209 l-23 0 0 -199z"/>
<path d="M12227 1403 c-4 -3 -7 -15 -7 -25 0 -17 13 -18 216 -18 193 0 215 2
210 16 -3 9 -6 20 -6 25 0 10 -403 13 -413 2z"/>
<path d="M12227 1244 c-4 -4 -7 -16 -7 -26 0 -17 13 -18 216 -18 l215 0 -3 23
c-3 22 -4 22 -209 25 -113 1 -208 -1 -212 -4z"/>
<path d="M15644 1172 c-36 -23 -21 -92 21 -92 54 0 68 72 18 91 -29 11 -25 11
-39 1z"/>
<path d="M6787 1146 c-13 -10 -17 -24 -15 -47 2 -26 9 -34 31 -40 50 -13 79
48 39 84 -22 20 -31 21 -55 3z"/>
</g>
</svg>
