<?xml version="1.0" standalone="no"?>
<!DOCTYPE svg PUBLIC "-//W3C//DTD SVG 20010904//EN"
 "http://www.w3.org/TR/2001/REC-SVG-20010904/DTD/svg10.dtd">
<svg version="1.0" xmlns="http://www.w3.org/2000/svg"
 width="1778.000000pt" height="824.000000pt" viewBox="0 0 1778.000000 824.000000"
 preserveAspectRatio="xMidYMid meet">

<g transform="translate(0.000000,824.000000) scale(0.100000,-0.100000)"
fill="#000000" stroke="none">
<path d="M15812 7565 c-7 -8 -23 -15 -35 -15 -39 0 -103 -53 -132 -109 -13
-25 -16 -49 -12 -91 5 -63 23 -97 70 -133 31 -23 154 -87 169 -87 4 0 21 -13
39 -29 25 -23 33 -39 36 -78 6 -57 -11 -82 -72 -107 -49 -21 -152 -15 -196 11
-25 15 -31 16 -44 3 -8 -8 -16 -31 -17 -49 -3 -31 0 -36 27 -44 17 -6 37 -12
45 -15 77 -26 209 -13 274 28 106 67 133 227 52 305 -17 16 -30 33 -28 37 1 5
-5 9 -13 9 -32 3 -36 4 -44 18 -5 7 -14 10 -20 7 -6 -4 -11 -3 -11 1 0 5 -17
15 -37 22 -20 8 -41 18 -47 23 -6 5 -26 18 -45 29 -32 19 -33 22 -29 70 5 53
32 89 72 95 11 2 33 6 48 8 15 2 49 -2 74 -10 64 -19 71 -18 88 14 15 30 6 71
-16 73 -7 1 -24 3 -38 5 -14 3 -46 5 -72 7 -25 1 -50 5 -54 10 -10 10 -17 8
-32 -8z"/>
<path d="M16370 7570 c-7 -5 -42 -9 -77 -9 -40 0 -69 -5 -78 -14 -11 -11 -14
-78 -15 -343 -2 -181 -2 -339 -1 -351 1 -18 10 -24 55 -33 61 -12 79 -13 116
-7 14 3 54 10 89 16 89 15 151 49 179 98 43 77 37 179 -14 230 -13 13 -24 28
-24 34 0 6 -4 8 -9 4 -5 -3 -17 2 -26 11 -15 16 -14 19 19 45 43 36 69 101 63
157 -6 50 -47 107 -88 121 -16 5 -29 15 -29 20 0 6 -21 11 -49 11 -27 0 -60 4
-74 9 -13 5 -30 6 -37 1z m122 -118 c32 -19 50 -76 34 -112 -23 -54 -82 -89
-131 -80 -16 4 -41 3 -54 -2 -13 -5 -26 -7 -28 -4 -5 5 -7 50 -5 143 2 70 3
72 30 75 46 7 125 -4 154 -20z m-49 -296 c79 -12 124 -79 105 -154 -6 -23 -15
-42 -21 -42 -5 0 -17 -8 -26 -19 -17 -19 -42 -26 -128 -36 -35 -4 -53 -2 -59
6 -5 9 -10 253 -5 254 7 2 102 -4 134 -9z"/>
<path d="M15132 7537 c-8 -10 -19 -605 -13 -709 1 -15 19 -17 197 -16 217 1
224 3 224 64 0 34 0 34 -47 35 -27 1 -52 1 -58 -1 -29 -5 -107 -7 -153 -2
l-52 5 0 308 c1 170 -2 314 -5 319 -9 14 -81 12 -93 -3z"/>
<path d="M7063 7140 c-17 -25 -20 -66 -15 -205 1 -33 0 -80 -2 -105 -1 -25 0
-49 3 -55 8 -15 8 -69 -1 -81 -7 -10 -5 -85 6 -179 2 -16 -1 -35 -6 -42 -8 -9
-7 -80 2 -168 1 -5 -1 -32 -5 -60 -3 -27 -3 -75 2 -105 5 -31 4 -79 -1 -112
-6 -36 -6 -76 0 -112 7 -34 7 -59 1 -65 -10 -10 -11 -96 -3 -178 3 -30 2 -53
-3 -53 -6 0 -11 -12 -13 -27 -2 -20 -9 -29 -25 -31 -13 -2 -23 -8 -23 -13 0
-7 -6 -7 -17 0 -13 7 -23 5 -36 -7 -17 -15 -18 -14 -23 5 -5 17 -12 20 -42 17
-63 -6 -81 -10 -88 -17 -14 -13 -42 -7 -49 11 -6 14 -9 12 -20 -13 -13 -29
-14 -29 -20 -7 -7 21 -25 29 -38 16 -4 -4 -28 -9 -54 -11 -27 -2 -49 -8 -51
-13 -6 -16 -32 -11 -32 5 0 8 -4 15 -10 15 -5 0 -10 -7 -10 -15 0 -8 -7 -15
-15 -15 -8 0 -14 6 -13 13 4 18 -79 18 -87 -1 -5 -12 -9 -12 -26 4 -19 17 -20
17 -26 -4 -7 -28 -23 -28 -30 -2 -7 27 -25 21 -34 -11 l-7 -24 -7 23 c-4 12
-15 22 -26 22 -21 0 -25 -15 -8 -25 6 -4 8 -13 5 -20 -7 -19 20 -38 44 -30 14
5 20 2 20 -9 0 -9 4 -16 8 -16 15 0 30 22 25 36 -3 8 0 14 6 14 6 0 11 -9 11
-20 0 -13 7 -20 20 -20 11 0 20 4 20 8 0 13 77 7 95 -8 9 -7 15 -9 14 -4 -6
31 2 37 22 15 15 -15 24 -19 33 -12 7 6 23 7 36 4 21 -6 23 -4 17 25 -8 41 5
41 21 0 11 -30 12 -31 30 -14 17 15 20 15 32 1 17 -21 30 -19 30 5 0 23 15 27
23 6 3 -8 1 -17 -6 -20 -7 -3 -1 -4 13 -3 18 1 25 8 26 25 2 29 14 42 14 14 0
-30 15 -35 45 -16 23 15 25 15 25 0 0 -23 17 -20 23 5 5 20 7 20 21 6 9 -9 16
-20 16 -26 0 -6 5 -11 10 -11 6 0 9 3 9 8 -4 24 3 43 14 39 6 -2 11 -11 9 -19
-1 -11 6 -15 23 -15 14 0 25 3 25 8 0 4 12 7 28 6 23 -2 27 -7 28 -32 1 -17
-1 -34 -4 -39 -8 -14 -10 -295 -1 -340 4 -25 3 -46 -3 -53 -9 -11 -7 -95 4
-153 1 -8 -1 -45 -6 -83 -6 -45 -4 -83 3 -114 9 -32 9 -49 2 -56 -17 -17 -13
-27 7 -21 16 5 16 5 0 -9 -20 -16 -23 -68 -8 -132 5 -21 5 -44 1 -50 -17 -22
-20 -61 -9 -136 6 -43 15 -76 20 -73 4 3 8 -1 8 -9 0 -8 -8 -14 -17 -13 -16 1
-17 -7 -14 -64 3 -36 5 -77 5 -92 1 -16 4 -28 9 -28 13 0 7 -28 -8 -34 -9 -3
-15 -18 -15 -35 0 -38 -18 -49 -26 -16 -6 26 -18 32 -29 15 -5 -8 -11 -7 -21
1 -11 9 -17 9 -29 -1 -8 -7 -22 -9 -31 -6 -10 4 -22 -1 -30 -11 -12 -17 -14
-17 -28 2 -16 20 -16 20 -22 -2 -8 -30 -20 -29 -28 3 -5 20 -10 23 -20 14 -8
-6 -25 -8 -39 -5 -14 4 -28 2 -32 -5 -4 -6 -15 -8 -24 -5 -12 4 -21 -2 -28
-17 l-11 -23 -11 28 c-13 32 -31 27 -31 -8 0 -16 -5 -23 -13 -19 -8 3 -13 15
-13 27 1 13 -5 22 -14 22 -11 0 -14 -10 -12 -40 2 -22 8 -42 13 -43 5 -2 9
-10 9 -18 0 -8 5 -14 12 -14 6 0 8 3 5 6 -9 10 12 46 24 39 5 -4 9 -15 9 -25
0 -14 5 -18 16 -13 11 4 14 13 9 30 -4 18 -2 24 7 21 7 -3 13 -13 13 -24 0
-16 6 -18 40 -16 22 2 42 8 43 13 6 14 32 10 38 -6 9 -22 24 -18 24 5 0 26 20
26 27 1 4 -16 11 -18 41 -14 43 7 54 20 41 45 -7 13 -6 18 4 18 7 0 13 -10 14
-22 1 -11 8 -25 14 -29 16 -10 41 22 28 36 -12 12 -12 35 1 35 6 0 10 -9 10
-19 0 -11 5 -23 10 -26 6 -3 10 -15 10 -26 0 -10 5 -19 10 -19 6 0 10 6 9 13
-3 24 1 37 12 37 6 0 8 -9 4 -20 -3 -11 -2 -20 3 -20 20 0 23 -34 5 -44 -16
-9 -16 -10 6 -16 24 -5 24 -6 5 -25 -19 -19 -27 -71 -13 -90 11 -15 8 -78 -3
-92 -7 -9 -6 -47 3 -114 8 -70 9 -103 2 -107 -14 -9 -9 -122 6 -151 11 -19 10
-25 -6 -37 -17 -12 -17 -13 0 -14 21 0 23 -30 2 -30 -18 0 -19 -33 -4 -114 8
-43 7 -61 -2 -72 -10 -12 -9 -13 3 -9 10 4 17 -1 21 -15 4 -17 2 -20 -15 -14
-19 6 -20 3 -14 -62 4 -38 10 -77 13 -88 3 -10 0 -22 -6 -26 -22 -13 -11 -177
12 -192 8 -4 5 -14 -8 -28 -23 -25 -25 -60 -10 -123 11 -41 10 -49 -4 -57 -16
-9 -14 -11 12 -14 6 0 13 -10 15 -21 2 -17 -3 -20 -40 -20 -24 0 -54 -7 -68
-15 -13 -8 -21 -10 -17 -4 8 13 -16 38 -26 27 -4 -3 -4 -17 0 -31 4 -18 2 -23
-8 -20 -8 2 -15 17 -17 31 -3 28 -16 35 -28 16 -3 -6 -15 -9 -25 -6 -10 3 -22
1 -25 -5 -3 -5 -16 -7 -29 -4 -14 4 -28 0 -36 -10 -12 -14 -14 -14 -26 2 -15
20 -71 28 -89 13 -6 -5 -19 -7 -28 -3 -20 8 -32 -21 -16 -41 13 -15 4 -39 -11
-30 -5 4 -9 14 -9 24 0 10 -7 24 -15 31 -8 7 -12 16 -9 21 3 5 3 9 -1 9 -3 0
-10 -12 -15 -26 -11 -27 -30 -24 -30 5 0 15 -8 18 -40 17 -24 0 -42 -6 -45
-14 -4 -10 -9 -11 -18 -4 -8 7 -18 7 -27 2 -11 -7 -12 -14 -2 -34 6 -14 9 -33
6 -41 -4 -10 0 -15 15 -15 12 0 21 5 21 10 0 6 11 8 25 4 29 -7 45 17 25 41
-6 8 -9 19 -5 25 8 13 26 3 24 -13 -3 -19 19 -67 31 -67 6 0 8 10 4 26 -6 22
-4 25 12 22 12 -2 19 -12 18 -25 0 -21 3 -22 45 -16 25 4 51 13 57 21 9 13 12
13 17 -2 4 -10 11 -15 16 -11 10 5 7 36 -4 54 -3 5 -1 12 5 16 6 3 13 -2 16
-12 17 -51 30 -73 43 -73 11 0 11 3 1 15 -9 11 -10 19 -2 27 14 14 33 1 30
-20 -2 -10 4 -17 12 -17 10 0 15 10 15 27 0 38 13 45 25 14 8 -21 14 -26 30
-21 12 4 27 1 35 -5 12 -10 15 -9 15 3 0 28 20 29 32 2 9 -19 17 -25 32 -22
88 21 82 23 93 -35 5 -29 12 -60 14 -68 3 -11 -3 -14 -19 -12 -20 3 -22 0 -19
-36 2 -21 7 -43 10 -49 3 -5 9 -33 13 -61 4 -29 11 -55 15 -58 11 -6 2 -24
-12 -24 -5 0 -9 6 -8 12 3 24 -1 38 -11 38 -13 0 -12 -39 5 -134 12 -71 12
-81 -2 -91 -12 -9 -14 -23 -8 -73 4 -34 11 -65 17 -68 5 -3 3 -15 -6 -29 -13
-20 -13 -22 2 -21 9 0 17 -6 17 -14 0 -8 -7 -15 -15 -15 -17 0 -23 -62 -7 -82
5 -7 7 -19 4 -27 -3 -7 -2 -17 3 -22 5 -5 10 -29 12 -54 2 -37 0 -45 -14 -44
-19 2 -18 -30 2 -116 10 -38 9 -46 -6 -57 -14 -10 -16 -23 -11 -75 3 -34 10
-64 16 -66 8 -3 8 -9 0 -23 -5 -11 -14 -17 -20 -14 -5 4 -9 2 -9 -3 0 -5 9
-12 20 -15 23 -6 27 -27 5 -27 -18 0 -20 -52 -4 -119 7 -31 6 -47 -2 -57 -9
-11 -8 -14 4 -14 16 0 30 -26 22 -40 -7 -11 27 -23 34 -12 3 5 14 11 24 15 24
9 22 30 -3 22 -15 -5 -20 -2 -20 10 0 11 5 15 15 12 8 -4 17 -2 20 2 6 11 -14
123 -25 135 -10 11 -1 37 18 52 12 8 13 23 8 63 -4 29 -12 61 -18 71 -9 14 -9
22 3 36 8 10 9 15 3 11 -13 -7 -27 19 -19 33 3 5 13 6 21 3 14 -5 15 1 10 43
-3 27 -6 56 -7 64 -1 8 -6 20 -11 27 -5 7 -7 21 -3 33 4 11 2 20 -4 20 -6 0
-11 9 -11 19 0 14 5 18 19 14 18 -5 19 -1 14 44 -3 26 -6 58 -7 71 0 12 -4 22
-8 22 -5 0 -8 9 -8 20 0 12 7 20 16 20 14 0 15 9 10 63 -3 34 -7 76 -9 92 -1
17 -8 35 -16 41 -16 13 -7 34 15 34 17 0 19 52 3 116 -9 34 -9 47 1 60 8 8 9
14 4 13 -31 -6 -38 3 -15 22 22 18 23 24 17 76 -4 31 -11 62 -16 69 -11 13 -3
44 11 44 5 0 9 4 9 9 0 5 -7 8 -16 7 -9 0 -19 5 -22 13 -3 10 1 12 17 8 22 -5
23 -3 25 48 1 27 6 31 43 40 50 12 59 20 44 38 -6 8 -9 21 -6 29 8 21 -21 30
-36 12 -10 -12 -9 -17 4 -27 12 -9 14 -16 7 -27 -9 -13 -11 -13 -20 0 -5 8
-10 25 -10 37 0 12 -4 24 -9 27 -4 3 -11 27 -14 53 -9 66 -11 76 -20 90 -5 7
-4 21 2 30 6 12 5 20 -6 29 -16 11 -9 39 7 29 19 -12 21 36 4 110 -9 43 -7 67
8 78 10 6 8 7 -4 3 -26 -8 -32 11 -7 24 18 10 20 18 15 53 -3 23 -6 51 -6 62
-1 10 -6 25 -11 31 -7 9 -5 20 6 38 13 19 15 40 11 100 -3 42 -10 85 -16 96
-8 15 -6 21 6 28 13 7 15 20 11 68 -3 32 -10 77 -16 99 -14 52 -14 55 3 55 11
0 13 14 10 63 -2 34 -6 74 -9 89 -4 14 -1 29 4 33 14 8 14 90 0 155 -8 38 -8
55 0 63 6 6 11 35 11 63 0 49 18 85 28 55 3 -8 8 -7 16 5 14 19 36 11 36 -12
0 -8 7 -14 16 -14 10 0 13 6 10 18 -3 9 -1 24 4 32 8 12 10 9 10 -12 0 -31 17
-45 33 -29 6 6 24 11 40 11 27 0 29 2 24 30 -4 17 -2 30 3 30 6 0 11 -4 11
-10 1 -5 2 -14 3 -19 0 -6 7 -16 15 -23 11 -10 14 -10 18 0 7 17 33 15 33 -3
0 -17 28 -19 95 -7 32 6 40 12 41 30 1 26 14 43 14 19 0 -18 29 -57 42 -57 5
0 8 10 8 23 1 20 2 19 17 -8 9 -17 18 -25 20 -17 3 6 15 12 28 12 13 0 30 6
38 14 9 9 19 11 28 5 26 -16 31 -9 24 34 -9 52 -12 57 -30 51 -10 -4 -12 -15
-8 -35 3 -18 1 -29 -6 -29 -6 0 -11 11 -11 25 0 27 -26 35 -47 14 -8 -8 -15
-5 -26 11 l-15 21 -6 -26 c-7 -26 -26 -35 -26 -11 0 20 -26 40 -35 26 -4 -7
-18 -9 -30 -6 -13 3 -27 1 -30 -4 -5 -8 -11 -7 -21 1 -12 10 -18 8 -29 -7 -14
-18 -16 -18 -26 -1 -16 27 -41 22 -33 -8 8 -32 -4 -33 -16 -1 -8 22 -13 24
-47 19 -21 -3 -41 -10 -44 -15 -3 -6 -15 -8 -25 -7 -11 2 -25 0 -33 -5 -9 -6
-17 -3 -23 8 -5 9 -16 16 -24 16 -11 0 -13 -7 -8 -26 5 -19 4 -25 -5 -20 -6 4
-11 16 -11 27 0 22 -29 26 -48 7 -9 -9 -12 -7 -12 10 0 12 4 22 9 22 12 0 24
67 14 83 -4 6 -6 22 -4 35 1 12 -1 22 -6 22 -4 0 -8 10 -9 23 0 12 -4 29 -8
38 -5 12 -1 18 15 22 18 5 21 11 16 44 -3 21 -8 58 -11 82 -3 24 -2 49 2 55
10 16 12 722 2 776 -5 27 -5 49 1 54 10 11 10 125 0 171 -4 17 -4 39 0 50 4
11 10 33 14 48 4 20 11 27 24 25 10 -2 25 3 34 11 11 9 17 10 17 2 0 -16 30
-14 36 3 7 19 34 9 34 -12 0 -21 17 -4 22 23 4 18 6 17 16 -6 9 -22 17 -26 41
-24 17 1 37 8 46 15 8 7 24 10 35 7 12 -3 24 1 30 11 9 15 10 14 16 -5 4 -13
14 -23 25 -23 12 0 16 5 13 15 -4 8 -1 15 5 15 6 0 11 -7 11 -15 0 -8 9 -15
20 -15 11 0 20 5 20 11 0 6 9 8 20 4 11 -3 25 -3 32 2 20 12 32 10 40 -7 5
-12 8 -10 14 8 7 24 22 29 29 10 5 -13 51 -14 113 -2 31 6 33 9 26 36 -4 21
-3 28 5 24 6 -4 9 -11 7 -15 -6 -10 22 -51 35 -51 5 0 9 7 9 16 0 14 3 14 15
4 8 -7 15 -19 15 -26 0 -8 7 -14 16 -14 8 0 12 5 9 10 -4 6 6 10 23 10 16 0
50 6 75 14 40 12 47 12 47 0 0 -8 7 -14 15 -14 8 0 12 6 9 14 -3 8 -1 17 5 21
6 3 16 -6 21 -20 8 -22 13 -25 24 -16 8 7 12 22 10 34 -3 15 -1 14 7 -5 11
-29 33 -37 45 -17 3 6 17 9 31 6 15 -3 27 1 30 9 8 21 23 17 23 -6 0 -11 7
-20 15 -20 8 0 15 9 15 20 0 19 1 19 22 -2 l22 -22 7 32 c4 18 9 36 13 39 6 6
10 -20 7 -44 -2 -13 24 -8 47 10 8 6 12 6 12 -2 0 -17 28 -13 38 5 7 13 11 12
26 -11 20 -30 39 -24 30 11 -4 15 -2 24 6 24 6 0 10 -6 8 -12 -3 -7 1 -19 8
-26 11 -11 18 -10 39 4 15 10 25 12 25 5 0 -8 5 -8 19 1 15 9 23 9 34 -1 13
-10 18 -8 28 10 l12 23 8 -22 c10 -27 39 -30 32 -3 -3 10 0 22 6 25 6 4 12 2
12 -3 1 -6 2 -17 3 -23 2 -17 28 -11 43 8 10 14 12 14 21 -1 8 -15 10 -15 25
-1 21 21 26 20 36 -6 9 -23 9 -23 20 5 9 24 13 26 30 15 10 -6 17 -18 14 -25
-3 -7 0 -13 6 -13 6 0 10 5 9 12 -2 7 8 13 23 13 20 1 25 -3 21 -15 -4 -11 0
-10 17 5 19 16 24 17 31 5 7 -12 10 -12 16 3 9 24 34 21 34 -3 0 -12 7 -20 16
-20 9 0 14 6 11 13 -3 7 1 21 9 32 14 18 14 18 16 -1 0 -10 1 -25 1 -31 -1 -7
8 -13 18 -13 15 0 18 5 13 24 -3 13 -1 27 4 30 5 3 13 -6 16 -20 9 -34 42 -29
39 6 -2 15 0 19 4 10 12 -28 36 -40 49 -22 13 18 44 10 44 -13 0 -8 5 -15 11
-15 5 0 9 8 7 18 -1 9 2 19 7 22 6 3 11 -5 13 -17 2 -13 10 -23 18 -23 14 0
17 7 16 50 -1 19 1 21 5 6 3 -11 12 -26 19 -34 12 -12 17 -12 31 0 9 7 24 12
35 10 10 -2 18 2 18 7 0 6 7 11 15 11 8 0 15 -9 15 -19 0 -28 20 -37 27 -12 3
12 10 21 15 21 5 0 7 -4 4 -9 -3 -5 4 -11 16 -15 14 -3 26 0 31 9 7 13 10 13
24 -1 15 -15 17 -14 27 5 7 13 16 17 24 12 8 -5 13 -12 12 -17 -1 -5 4 -10 11
-13 8 -2 10 2 6 13 -5 11 -1 16 13 16 11 0 19 -6 18 -12 -2 -7 4 -13 12 -13
10 0 14 8 13 23 -2 14 3 22 12 22 9 0 12 -6 9 -15 -8 -19 25 -33 36 -15 6 9
12 9 30 0 15 -8 20 -8 16 -1 -4 6 -2 11 4 11 8 0 9 7 5 18 -4 9 -8 22 -9 27
-1 6 -5 16 -10 23 -13 21 -34 -4 -28 -33 3 -16 0 -25 -8 -25 -7 0 -10 8 -7 20
3 10 -1 24 -8 30 -14 12 -48 3 -39 -11 7 -12 -29 2 -38 15 -5 7 -8 4 -8 -6 0
-28 -19 -31 -30 -4 -6 17 -14 24 -25 20 -8 -3 -12 -11 -8 -18 4 -6 -1 -5 -10
3 -11 9 -26 11 -44 5 -16 -4 -35 -8 -44 -9 -9 -1 -21 -5 -28 -9 -6 -4 -11 -1
-11 8 0 9 -7 16 -15 16 -8 0 -15 -9 -15 -20 0 -26 -17 -26 -25 1 -7 20 -12 21
-69 15 -41 -4 -65 -12 -74 -23 -11 -16 -14 -16 -22 -3 -5 8 -10 19 -10 23 0 5
-6 7 -12 4 -7 -2 -12 -11 -10 -21 2 -9 -2 -16 -9 -16 -6 0 -9 8 -6 20 5 19 -5
26 -28 20 -22 -5 -71 -12 -95 -14 -14 0 -29 -7 -33 -13 -12 -20 -27 -15 -27 8
0 17 -5 20 -24 17 -14 -3 -30 -1 -38 3 -7 4 -18 3 -26 -3 -16 -14 -73 -17 -89
-6 -7 6 -14 2 -18 -11 -8 -27 -21 -27 -28 -1 -3 14 -14 20 -34 21 -40 2 -58
-1 -61 -11 -2 -5 -9 -7 -17 -4 -7 3 -23 1 -34 -5 -16 -9 -22 -8 -29 5 -12 22
-35 8 -27 -17 4 -11 2 -19 -4 -19 -6 0 -11 9 -11 19 0 26 -17 36 -35 21 -10
-8 -19 -8 -33 -1 -11 6 -23 6 -28 1 -5 -4 -20 -10 -34 -12 -18 -2 -24 -8 -22
-22 3 -15 1 -16 -11 -5 -8 8 -13 17 -11 21 10 15 -30 25 -63 16 -19 -5 -37 -7
-40 -4 -3 3 -18 -1 -34 -9 -18 -10 -30 -11 -34 -5 -11 19 -35 10 -36 -12 l0
-23 -11 21 c-12 26 -58 37 -93 24 -14 -5 -25 -7 -25 -5 0 2 -12 0 -27 -6 -20
-7 -28 -6 -35 3 -6 10 -13 7 -28 -12 -15 -20 -20 -21 -20 -8 0 22 -19 33 -32
20 -7 -7 -18 -7 -34 1 -18 8 -28 7 -36 -1 -7 -7 -23 -12 -36 -12 -15 0 -21 -4
-16 -12 4 -6 -3 -4 -17 5 -29 21 -43 22 -36 2 4 -8 2 -17 -3 -20 -8 -5 -14 13
-12 36 1 3 -26 2 -60 -3 -33 -4 -64 -6 -68 -3 -5 3 -14 -5 -21 -17 l-12 -22
-8 21 c-7 19 -14 21 -75 17 -39 -2 -71 -9 -76 -16 -6 -10 -10 -10 -20 0 -16
16 -28 15 -28 -3 0 -22 -18 -18 -31 7 -7 13 -14 18 -16 11 -3 -7 -13 -9 -31
-4 -19 6 -31 4 -40 -5 -7 -7 -18 -11 -26 -8 -8 3 -17 0 -21 -6 -5 -8 -13 -6
-26 6 -16 14 -21 15 -35 3 -13 -11 -17 -11 -25 3 -8 15 -13 15 -59 -2 -30 -11
-52 -14 -56 -9 -3 6 -11 5 -20 -2 -7 -6 -11 -16 -7 -22 4 -6 1 -7 -6 -2 -8 4
-10 17 -6 32 4 17 2 23 -6 18 -8 -6 -8 -2 0 14 20 36 12 189 -10 217 -6 8 -2
13 12 17 19 5 20 10 15 54 -4 26 -7 57 -7 68 0 10 -5 25 -11 32 -8 10 -6 18 7
33 14 15 15 20 4 20 -11 0 -11 2 -1 9 14 9 15 65 0 124 -6 26 -5 48 3 71 8 23
9 51 2 99 -5 38 -6 73 -1 82 6 10 5 15 -4 15 -9 0 -9 3 0 12 14 14 15 67 3
118 -4 20 -4 46 1 59 6 18 4 27 -9 37 -14 11 -14 14 -3 12 17 -3 27 61 14 91
-3 9 -5 34 -4 56 1 22 4 96 6 165 1 69 4 136 6 150 3 23 0 25 -35 25 -29 0
-42 -6 -54 -25z m17 -42 c0 -5 -4 -8 -10 -8 -5 0 -10 10 -10 23 0 18 2 19 10
7 5 -8 10 -18 10 -22z m4 -44 c3 -8 2 -12 -4 -9 -6 3 -10 10 -10 16 0 14 7 11
14 -7z m41 -153 c3 -5 1 -12 -5 -16 -5 -3 -10 1 -10 9 0 18 6 21 15 7z m-25
-301 c0 -5 -5 -10 -11 -10 -5 0 -7 5 -4 10 3 6 8 10 11 10 2 0 4 -4 4 -10z
m10 -44 c0 -3 -4 -8 -10 -11 -5 -3 -10 -1 -10 4 0 6 5 11 10 11 6 0 10 -2 10
-4z m10 -676 c0 -5 -4 -10 -10 -10 -5 0 -10 5 -10 10 0 6 5 10 10 10 6 0 10
-4 10 -10z m-23 -172 c-3 -8 -6 -5 -6 6 -1 11 2 17 5 13 3 -3 4 -12 1 -19z
m1830 -130 c-3 -8 -6 -5 -6 6 -1 11 2 17 5 13 3 -3 4 -12 1 -19z m233 1 c0 -5
-4 -9 -10 -9 -5 0 -10 7 -10 16 0 8 5 12 10 9 6 -3 10 -10 10 -16z m-623 -11
c-3 -8 -6 -5 -6 6 -1 11 2 17 5 13 3 -3 4 -12 1 -19z m1193 1 c0 -5 -4 -9 -8
-9 -5 0 -9 7 -9 15 0 8 4 12 9 9 4 -3 8 -9 8 -15z m60 17 c0 -3 -4 -8 -10 -11
-5 -3 -10 -1 -10 4 0 6 5 11 10 11 6 0 10 -2 10 -4z m-1079 -19 c-1 -12 -15
-9 -19 4 -3 6 1 10 8 8 6 -3 11 -8 11 -12z m-1014 -19 c-3 -8 -6 -5 -6 6 -1
11 2 17 5 13 3 -3 4 -12 1 -19z m960 0 c-3 -8 -6 -5 -6 6 -1 11 2 17 5 13 3
-3 4 -12 1 -19z m-387 -8 c0 -5 -2 -10 -4 -10 -3 0 -8 5 -11 10 -3 6 -1 10 4
10 6 0 11 -4 11 -10z m-1230 -21 c0 -11 -4 -17 -10 -14 -5 3 -10 13 -10 21 0
8 5 14 10 14 6 0 10 -9 10 -21z m780 11 c0 -5 -5 -10 -11 -10 -5 0 -7 5 -4 10
3 6 8 10 11 10 2 0 4 -4 4 -10z m-1170 -22 c0 -19 -2 -20 -10 -8 -13 19 -13
30 0 30 6 0 10 -10 10 -22z m164 7 c3 -8 1 -15 -4 -15 -6 0 -10 7 -10 15 0 8
2 15 4 15 2 0 6 -7 10 -15z m56 5 c0 -5 -2 -10 -4 -10 -3 0 -8 5 -11 10 -3 6
-1 10 4 10 6 0 11 -4 11 -10z m727 -12 c-3 -8 -6 -5 -6 6 -1 11 2 17 5 13 3
-3 4 -12 1 -19z m393 6 c0 -8 -4 -12 -10 -9 -5 3 -10 10 -10 16 0 5 5 9 10 9
6 0 10 -7 10 -16z m-220 -4 c0 -5 -4 -10 -10 -10 -5 0 -10 5 -10 10 0 6 5 10
10 10 6 0 10 -4 10 -10z m-780 -10 c0 -5 -2 -10 -4 -10 -3 0 -8 5 -11 10 -3 6
-1 10 4 10 6 0 11 -4 11 -10z m-440 -20 c0 -5 -4 -10 -10 -10 -5 0 -10 5 -10
10 0 6 5 10 10 10 6 0 10 -4 10 -10z m554 -6 c3 -8 2 -12 -4 -9 -6 3 -10 10
-10 16 0 14 7 11 14 -7z m-27 -116 c-3 -8 -6 -5 -6 6 -1 11 2 17 5 13 3 -3 4
-12 1 -19z m33 -98 c0 -5 -2 -10 -4 -10 -3 0 -8 5 -11 10 -3 6 -1 10 4 10 6 0
11 -4 11 -10z m-10 -170 c0 -5 -4 -10 -10 -10 -5 0 -10 5 -10 10 0 6 5 10 10
10 6 0 10 -4 10 -10z m24 -116 c3 -8 2 -12 -4 -9 -6 3 -10 10 -10 16 0 14 7
11 14 -7z m-59 -4 c3 -5 1 -10 -4 -10 -6 0 -11 5 -11 10 0 6 2 10 4 10 3 0 8
-4 11 -10z m35 -105 c0 -8 -2 -15 -4 -15 -2 0 -6 7 -10 15 -3 8 -1 15 4 15 6
0 10 -7 10 -15z m-10 -169 c0 -3 -4 -8 -10 -11 -5 -3 -10 -1 -10 4 0 6 5 11
10 11 6 0 10 -2 10 -4z m-23 -178 c-3 -8 -6 -5 -6 6 -1 11 2 17 5 13 3 -3 4
-12 1 -19z m30 -110 c-3 -7 -5 -2 -5 12 0 14 2 19 5 13 2 -7 2 -19 0 -25z
m-17 -113 c0 -8 -2 -15 -4 -15 -2 0 -6 7 -10 15 -3 8 -1 15 4 15 6 0 10 -7 10
-15z m30 -100 c0 -8 -4 -15 -10 -15 -5 0 -10 7 -10 15 0 8 5 15 10 15 6 0 10
-7 10 -15z m-47 -65 c3 -11 1 -18 -4 -14 -5 3 -9 12 -9 20 0 20 7 17 13 -6z
m37 -99 c0 -6 -4 -13 -10 -16 -5 -3 -10 1 -10 9 0 9 5 16 10 16 6 0 10 -4 10
-9z m-39 -124 c-10 -9 -11 -8 -5 6 3 10 9 15 12 12 3 -3 0 -11 -7 -18z m66
-49 c-3 -7 -5 -2 -5 12 0 14 2 19 5 13 2 -7 2 -19 0 -25z m390 10 c-3 -8 -6
-5 -6 6 -1 11 2 17 5 13 3 -3 4 -12 1 -19z m-776 -1 c-1 -12 -15 -9 -19 4 -3
6 1 10 8 8 6 -3 11 -8 11 -12z m-46 -27 c-6 -9 -9 -9 -16 1 -10 17 0 34 13 21
6 -6 7 -16 3 -22z m385 14 c0 -8 -5 -12 -10 -9 -6 4 -8 11 -5 16 9 14 15 11
15 -7z m620 0 c0 -8 -4 -12 -10 -9 -5 3 -10 10 -10 16 0 5 5 9 10 9 6 0 10 -7
10 -16z m-600 -59 c0 -8 -2 -15 -4 -15 -2 0 -6 7 -10 15 -3 8 -1 15 4 15 6 0
10 -7 10 -15z m7 -47 c-3 -8 -6 -5 -6 6 -1 11 2 17 5 13 3 -3 4 -12 1 -19z
m-37 -68 c0 -5 -2 -10 -4 -10 -3 0 -8 5 -11 10 -3 6 -1 10 4 10 6 0 11 -4 11
-10z m30 -110 c0 -5 -2 -10 -4 -10 -3 0 -8 5 -11 10 -3 6 -1 10 4 10 6 0 11
-4 11 -10z m10 -46 c0 -8 -5 -12 -10 -9 -6 4 -8 11 -5 16 9 14 15 11 15 -7z
m-50 -19 c0 -8 -4 -15 -10 -15 -5 0 -10 7 -10 15 0 8 5 15 10 15 6 0 10 -7 10
-15z m20 -50 c0 -8 -4 -15 -10 -15 -5 0 -10 7 -10 15 0 8 5 15 10 15 6 0 10
-7 10 -15z m10 -60 c0 -8 -2 -15 -4 -15 -2 0 -6 7 -10 15 -3 8 -1 15 4 15 6 0
10 -7 10 -15z m10 -41 c0 -8 -5 -12 -10 -9 -6 4 -8 11 -5 16 9 14 15 11 15 -7z
m-36 -79 c5 -22 4 -26 -4 -15 -5 8 -10 24 -10 34 0 26 6 18 14 -19z m16 -57
c0 -19 -2 -20 -10 -8 -13 19 -13 30 0 30 6 0 10 -10 10 -22z m30 -93 c0 -8 -4
-15 -10 -15 -5 0 -10 7 -10 15 0 8 5 15 10 15 6 0 10 -7 10 -15z m-40 -76 c0
-5 -4 -9 -10 -9 -5 0 -10 7 -10 16 0 8 5 12 10 9 6 -3 10 -10 10 -16z m5 -39
c3 -5 1 -10 -4 -10 -6 0 -11 5 -11 10 0 6 2 10 4 10 3 0 8 -4 11 -10z m25 -60
c0 -5 -4 -10 -10 -10 -5 0 -10 5 -10 10 0 6 5 10 10 10 6 0 10 -4 10 -10z m15
-50 c-3 -5 -10 -10 -16 -10 -5 0 -9 5 -9 10 0 6 7 10 16 10 8 0 12 -4 9 -10z
m-45 -76 c0 -8 -5 -12 -10 -9 -6 4 -8 11 -5 16 9 14 15 11 15 -7z m18 -53 c3
-8 -1 -12 -9 -9 -7 2 -15 10 -17 17 -3 8 1 12 9 9 7 -2 15 -10 17 -17z m7 -40
c3 -5 1 -12 -5 -16 -5 -3 -10 1 -10 9 0 18 6 21 15 7z m-35 -77 c0 -8 -4 -14
-10 -14 -5 0 -10 9 -10 21 0 11 5 17 10 14 6 -3 10 -13 10 -21z m8 -46 c-2 -6
-10 -14 -16 -16 -7 -2 -10 2 -6 12 7 18 28 22 22 4z m12 -54 c0 -8 -5 -12 -10
-9 -6 4 -8 11 -5 16 9 14 15 11 15 -7z m16 -71 c-10 -10 -19 5 -10 18 6 11 8
11 12 0 2 -7 1 -15 -2 -18z m-36 -53 c0 -5 -4 -10 -10 -10 -5 0 -10 5 -10 10
0 6 5 10 10 10 6 0 10 -4 10 -10z m26 -109 c-12 -19 -24 -12 -19 10 4 13 9 17
15 11 6 -6 7 -15 4 -21z m14 -52 c0 -11 -4 -17 -10 -14 -5 3 -10 13 -10 21 0
8 5 14 10 14 6 0 10 -9 10 -21z m19 -58 c-3 -6 -10 -7 -18 -2 -7 5 -10 14 -6
21 9 14 29 -2 24 -19z m-269 -17 c0 -8 -7 -14 -15 -14 -15 0 -21 21 -9 33 10
9 24 -2 24 -19z m210 10 c0 -8 -5 -12 -10 -9 -6 4 -8 11 -5 16 9 14 15 11 15
-7z m-440 -28 c-14 -14 -24 0 -16 21 6 15 8 15 16 3 6 -9 5 -19 0 -24z m-215
3 c0 -7 -8 -15 -17 -17 -18 -3 -25 18 -11 32 10 10 28 1 28 -15z m559 -10
c-10 -16 -24 -9 -24 12 0 18 2 19 15 9 8 -7 12 -16 9 -21z m46 15 c0 -8 -4
-12 -10 -9 -5 3 -10 10 -10 16 0 5 5 9 10 9 6 0 10 -7 10 -16z m120 -19 c0 -8
-4 -15 -10 -15 -5 0 -10 7 -10 15 0 8 5 15 10 15 6 0 10 -7 10 -15z m-57 -10
c4 -8 2 -17 -3 -20 -6 -4 -10 3 -10 14 0 25 6 27 13 6z m20 -41 c8 -8 -3 -34
-14 -34 -5 0 -9 9 -9 20 0 19 11 26 23 14z m-25 -135 c-2 -6 -8 -10 -13 -10
-5 0 -11 4 -13 10 -2 6 4 11 13 11 9 0 15 -5 13 -11z m14 -59 c-1 -7 3 -19 9
-26 9 -11 9 -18 1 -26 -15 -15 -18 -11 -26 36 -6 29 -4 37 6 33 7 -2 12 -10
10 -17z m-12 -171 c0 -11 -4 -17 -10 -14 -5 3 -10 13 -10 21 0 8 5 14 10 14 6
0 10 -9 10 -21z m12 -44 c0 -5 -5 -11 -11 -13 -6 -2 -11 4 -11 13 0 9 5 15 11
13 6 -2 11 -8 11 -13z m18 -53 c0 -13 -12 -22 -22 -16 -10 6 -1 24 13 24 5 0
9 -4 9 -8z m-53 -74 c-3 -8 -6 -5 -6 6 -1 11 2 17 5 13 3 -3 4 -12 1 -19z m23
-48 c0 -5 -5 -10 -11 -10 -5 0 -7 5 -4 10 3 6 8 10 11 10 2 0 4 -4 4 -10z m15
-59 c-9 -16 -25 -3 -18 15 4 10 9 12 15 6 6 -6 7 -15 3 -21z m15 -52 c0 -5 -4
-9 -10 -9 -5 0 -10 7 -10 16 0 8 5 12 10 9 6 -3 10 -10 10 -16z m-40 -64 c0
-8 -4 -15 -10 -15 -5 0 -10 7 -10 15 0 8 5 15 10 15 6 0 10 -7 10 -15z m26
-82 c0 -24 -3 -43 -8 -43 -4 0 -8 10 -8 21 0 12 -7 27 -17 34 -19 14 -10 34
15 32 13 -1 17 -11 18 -44z m-26 -148 c0 -8 -4 -15 -10 -15 -5 0 -10 7 -10 15
0 8 5 15 10 15 6 0 10 -7 10 -15z m15 -55 c-5 -8 -11 -8 -17 -2 -6 6 -7 16 -3
22 5 8 11 8 17 2 6 -6 7 -16 3 -22z m15 -45 c0 -8 -4 -15 -10 -15 -5 0 -10 7
-10 15 0 8 5 15 10 15 6 0 10 -7 10 -15z m-30 -72 c0 -17 -15 -16 -30 1 -9 12
-8 15 9 13 12 -1 21 -7 21 -14z m10 -42 c0 -5 -7 -11 -15 -15 -9 -3 -15 0 -15
9 0 8 7 15 15 15 8 0 15 -4 15 -9z m10 -67 c0 -8 -4 -14 -10 -14 -5 0 -10 9
-10 21 0 11 5 17 10 14 6 -3 10 -13 10 -21z m13 -45 c3 -13 1 -19 -6 -16 -15
5 -22 37 -9 37 5 0 12 -9 15 -21z m-33 -70 c0 -5 -10 -9 -21 -9 -18 0 -19 2
-9 15 12 15 30 12 30 -6z m0 -55 c0 -8 -4 -12 -10 -9 -5 3 -10 10 -10 16 0 5
5 9 10 9 6 0 10 -7 10 -16z m21 -47 c-1 -12 -15 -9 -19 4 -3 6 1 10 8 8 6 -3
11 -8 11 -12z"/>
<path d="M3404 7040 c-20 -8 -21 -13 -13 -67 5 -32 11 -68 14 -80 4 -17 1 -23
-10 -23 -14 0 -15 -9 -10 -57 3 -32 11 -71 17 -86 9 -22 8 -31 -1 -37 -9 -5
-8 -9 5 -14 17 -7 11 -21 -9 -21 -15 0 -18 -57 -5 -119 8 -36 7 -50 -1 -56
-16 -9 -12 -111 6 -163 12 -35 12 -42 -4 -59 -15 -17 -16 -27 -5 -103 7 -47
15 -92 18 -100 4 -10 0 -15 -11 -15 -19 0 -19 -1 1 -178 3 -26 1 -41 -5 -38
-5 3 -11 0 -13 -7 -7 -19 23 -181 34 -188 6 -4 7 -13 3 -20 -6 -9 -11 -6 -18
12 -10 23 -10 22 -18 -16 -4 -22 -3 -58 2 -80 12 -55 12 -57 -10 -45 -14 7
-22 7 -27 -1 -3 -6 -15 -9 -25 -6 -22 6 -33 -20 -23 -57 4 -19 13 -26 37 -28
31 -3 32 -5 49 -83 21 -100 21 -95 2 -95 -12 0 -14 -9 -10 -52 7 -75 16 -120
28 -145 14 -28 4 -41 -17 -23 -13 11 -15 7 -15 -31 1 -24 5 -63 9 -87 5 -24 5
-45 -1 -48 -11 -7 -3 -191 9 -207 15 -18 25 -67 14 -67 -5 0 -11 10 -13 22 -2
12 -8 23 -14 25 -15 5 -9 -94 9 -164 12 -45 12 -50 -1 -45 -13 5 -14 -6 -7
-79 4 -46 8 -92 8 -101 1 -10 5 -18 9 -18 4 0 8 -10 8 -21 0 -18 -2 -19 -15
-9 -8 7 -16 9 -16 4 -4 -30 -3 -45 8 -99 16 -77 16 -85 0 -79 -11 4 -13 -9
-10 -61 2 -36 8 -87 14 -113 22 -99 22 -105 10 -97 -7 4 -10 13 -7 20 6 16
-14 77 -29 87 -17 13 -23 9 -27 -14 -3 -22 -4 -21 -18 6 -22 43 -42 46 -37 4
8 -65 47 -118 47 -63 0 72 38 -18 60 -139 5 -33 10 -61 10 -63 0 -2 -7 -3 -16
-3 -13 0 -15 -9 -10 -52 11 -101 19 -143 29 -156 14 -18 0 -27 -18 -12 -14 12
-16 8 -14 -31 1 -41 13 -102 26 -135 3 -8 -1 -14 -11 -14 -9 0 -16 -8 -16 -17
0 -14 2 -15 9 -4 12 19 31 5 31 -24 0 -13 4 -26 10 -30 5 -3 6 -13 3 -21 -8
-21 -23 1 -23 34 0 17 -5 22 -17 20 -21 -4 -19 -34 6 -133 14 -53 14 -55 -5
-48 -13 5 -15 -4 -13 -53 1 -33 5 -66 9 -74 4 -8 10 -31 14 -51 5 -31 3 -37
-13 -42 -20 -5 -20 -5 -6 -125 4 -34 12 -65 16 -68 16 -10 9 -24 -11 -24 -16
0 -20 -7 -20 -31 0 -17 4 -38 9 -47 4 -9 11 -36 15 -59 5 -35 3 -43 -9 -43 -8
0 -15 -5 -15 -11 0 -6 9 -8 20 -4 16 5 20 2 20 -16 0 -18 -3 -20 -12 -11 -21
21 -28 13 -28 -28 0 -33 -3 -40 -17 -38 -14 2 -18 -5 -19 -35 -1 -21 5 -41 12
-45 7 -4 15 -36 19 -76 3 -37 10 -77 16 -87 5 -11 7 -24 4 -29 -3 -5 -1 -11 5
-15 18 -11 12 -46 -7 -43 -12 2 -18 -3 -17 -14 6 -77 15 -122 29 -152 9 -19
14 -40 10 -46 -4 -6 -2 -16 3 -23 5 -7 13 -29 16 -51 6 -29 4 -37 -6 -34 -7 3
-12 14 -10 26 2 11 -2 23 -8 27 -5 3 -10 17 -10 31 0 14 -6 24 -14 24 -11 0
-14 -11 -11 -41 1 -22 5 -43 9 -46 3 -4 6 -17 6 -29 0 -13 4 -25 10 -29 13 -8
1 -35 -16 -35 -16 0 -19 -16 -5 -24 5 -4 11 0 14 6 3 10 7 10 17 1 15 -14 4
-34 -15 -26 -9 3 -15 -1 -16 -8 -2 -26 3 -74 9 -83 14 -23 10 -76 -6 -85 -14
-8 -15 -16 -4 -73 7 -34 13 -72 13 -83 0 -10 5 -25 11 -33 12 -14 19 -40 20
-79 0 -13 4 -23 8 -23 4 0 5 -11 2 -25 -2 -15 0 -25 7 -25 6 0 11 -7 11 -15 0
-8 -6 -15 -14 -15 -13 0 -35 72 -39 129 -1 13 -8 26 -16 29 -12 4 -13 -7 -8
-63 4 -37 11 -73 17 -80 8 -9 6 -17 -5 -28 -19 -20 -19 -28 1 -20 16 6 37 -15
28 -29 -3 -4 -14 -8 -24 -8 -15 0 -18 -6 -16 -32 2 -18 6 -41 10 -50 4 -9 5
-21 2 -27 -4 -5 -2 -12 4 -16 16 -10 12 -45 -5 -45 -8 0 -15 -5 -15 -10 0 -6
8 -10 17 -8 10 2 19 -5 21 -15 3 -15 0 -18 -16 -13 -25 8 -38 -10 -22 -29 6
-8 9 -23 6 -33 -4 -13 -1 -22 9 -26 8 -3 15 -1 15 4 0 5 12 10 28 12 23 3 27
7 24 32 -2 16 3 33 10 37 10 7 9 9 -4 9 -12 0 -18 8 -18 23 0 13 -4 27 -9 32
-5 6 -12 27 -15 49 -6 29 -4 37 6 34 7 -3 13 -12 13 -21 0 -8 4 -19 8 -23 4
-4 7 -18 7 -31 0 -13 6 -23 15 -23 15 0 15 46 0 82 -4 9 -4 21 -1 27 4 5 2 12
-4 16 -5 3 -10 16 -10 29 0 12 -5 27 -11 33 -14 14 -1 36 17 29 11 -4 14 5 14
39 0 24 -4 46 -9 49 -5 3 -7 15 -4 26 3 11 0 26 -6 33 -6 8 -8 17 -4 20 3 4 0
13 -6 21 -7 8 -10 20 -6 26 11 17 25 11 25 -11 0 -11 4 -18 8 -15 10 6 5 86
-9 141 -6 22 -10 50 -10 63 0 12 -4 22 -9 22 -6 0 -10 7 -10 15 0 8 7 15 15
15 9 0 15 -9 15 -25 0 -14 5 -25 11 -25 13 0 2 134 -11 138 -6 2 -7 14 -4 27
3 12 1 26 -5 29 -5 4 -8 13 -4 21 3 9 0 22 -7 30 -7 9 -10 18 -7 21 8 8 28 -6
22 -16 -3 -4 2 -13 11 -20 13 -12 14 -6 10 44 -3 31 -10 65 -15 75 -6 10 -10
26 -9 37 0 10 -3 27 -7 37 -5 13 -2 17 15 17 20 0 22 3 16 48 -3 26 -6 57 -6
70 0 12 -5 22 -10 22 -6 0 -10 9 -10 20 0 11 7 20 15 20 8 0 15 5 15 10 0 6
-7 10 -16 8 -12 -2 -21 13 -34 56 -19 59 -18 82 1 70 5 -3 7 -14 4 -24 -3 -10
-1 -21 5 -25 5 -3 10 -17 10 -31 0 -15 6 -24 15 -24 12 0 14 9 10 42 -7 65
-12 91 -19 109 -7 17 17 30 77 43 26 6 27 7 12 30 -11 16 -13 26 -5 31 5 3 12
-1 15 -9 3 -9 7 -23 10 -32 7 -23 30 -11 30 17 0 13 5 24 10 24 6 0 9 -7 8
-15 -1 -8 4 -18 10 -22 7 -4 12 -12 12 -18 0 -5 5 -9 10 -7 6 1 9 10 8 20 -2
9 4 17 12 17 9 0 15 -10 15 -25 0 -15 6 -25 14 -25 21 0 30 18 17 34 -6 7 -8
16 -4 19 12 13 22 7 25 -16 2 -12 10 -22 18 -22 11 0 14 9 12 34 -4 49 -20 66
-42 46 -21 -19 -30 -19 -30 0 0 8 -4 15 -10 15 -5 0 -10 -9 -10 -20 0 -23 -15
-27 -27 -6 -9 16 -90 28 -99 15 -3 -5 -10 -7 -15 -3 -5 3 -16 0 -24 -6 -16
-13 -39 -4 -29 11 3 5 1 15 -4 22 -16 19 -20 93 -4 90 16 -4 15 54 -3 137 -17
78 -18 93 -5 85 6 -3 10 -15 10 -26 0 -11 4 -18 8 -15 4 3 7 35 5 73 -2 37 -4
76 -4 85 0 10 -4 20 -10 23 -16 10 -10 32 10 38 17 4 19 11 14 48 -3 24 -12
69 -19 99 -18 68 -18 67 4 72 14 4 18 14 17 39 -1 19 -5 41 -8 49 -3 8 -8 31
-11 51 -3 20 -8 43 -12 52 -3 10 -1 17 5 17 6 0 11 -4 11 -10 0 -5 4 -10 9
-10 14 0 -9 184 -27 215 -14 22 -12 44 3 39 8 -4 15 -17 15 -31 0 -15 4 -22
11 -17 12 7 5 106 -8 127 -3 6 -8 30 -10 54 -3 34 0 43 12 43 19 0 19 30 -1
126 -15 74 -13 110 4 64 8 -22 9 -21 25 11 16 32 17 33 23 12 4 -13 14 -23 24
-23 15 0 17 5 10 33 -17 65 -23 77 -36 77 -8 0 -11 -6 -8 -15 4 -8 3 -23 -1
-33 -5 -12 -12 -1 -27 43 -11 33 -21 69 -23 80 -1 11 -6 28 -10 38 -8 20 20
25 29 5 3 -7 4 20 2 60 -3 40 -9 78 -14 85 -13 16 -21 77 -10 83 4 3 8 -4 8
-15 0 -22 19 -40 21 -19 4 46 -14 168 -27 189 -2 4 3 12 12 17 17 9 16 62 -1
176 -4 29 -1 41 12 51 16 12 16 18 2 84 -12 54 -13 75 -5 87 14 19 11 126 -5
177 -11 32 -10 40 2 47 19 12 20 48 4 132 -12 64 -12 73 2 83 13 10 15 24 10
72 -4 33 -9 67 -12 76 -5 11 3 21 24 32 18 9 36 13 41 10 5 -3 18 -1 29 4 15
8 20 7 26 -7 6 -15 8 -15 25 6 11 13 21 18 25 12 3 -5 3 -10 -2 -10 -4 0 0 -5
10 -11 14 -8 22 -8 30 0 8 8 8 11 -1 11 -7 0 -12 7 -12 15 0 22 18 18 25 -5 3
-11 10 -20 15 -20 5 0 14 9 20 20 6 11 7 20 2 20 -5 0 -8 11 -7 25 4 28 -21
35 -44 13 -10 -11 -15 -10 -25 5 -17 22 -26 22 -26 -2 0 -11 -4 -23 -10 -26
-5 -3 -10 3 -10 14 0 12 -3 21 -7 22 -52 5 -71 4 -85 -8 -9 -8 -18 -11 -21 -6
-12 19 -26 127 -18 132 20 13 13 147 -10 207 -6 18 -5 21 11 17 18 -5 19 0 15
43 -2 27 -9 76 -14 109 -6 33 -11 61 -11 63 0 1 7 2 15 2 12 0 14 10 10 48 -7
76 -17 126 -27 146 -7 12 -7 16 0 12 28 -17 35 37 17 133 -3 20 -1 39 6 47 14
17 5 172 -11 188 -15 15 -12 36 5 36 14 0 15 15 13 94 -2 52 -7 93 -12 93 -6
-1 -12 7 -14 18 -4 17 -2 18 12 6 18 -15 20 -9 16 63 -2 52 -7 76 -19 90 -5 6
-9 16 -8 21 3 13 -33 16 -59 5z m36 -46 c0 -8 -4 -12 -10 -9 -5 3 -10 10 -10
16 0 5 5 9 10 9 6 0 10 -7 10 -16z m10 -50 c0 -8 -5 -12 -10 -9 -6 4 -8 11 -5
16 9 14 15 11 15 -7z m14 -39 c3 -8 1 -15 -4 -15 -6 0 -10 7 -10 15 0 8 2 15
4 15 2 0 6 -7 10 -15z m-47 -77 c-3 -8 -6 -5 -6 6 -1 11 2 17 5 13 3 -3 4 -12
1 -19z m22 -260 c1 -10 -3 -18 -9 -18 -5 0 -7 7 -4 15 4 8 1 21 -5 29 -6 7 -8
16 -4 20 8 8 21 -20 22 -46z m21 -69 c0 -6 -4 -7 -10 -4 -5 3 -10 11 -10 16 0
6 5 7 10 4 6 -3 10 -11 10 -16z m14 -44 c-4 -8 -10 -12 -15 -9 -14 8 -10 24 6
24 9 0 12 -6 9 -15z m-59 -5 c3 -5 1 -10 -4 -10 -6 0 -11 5 -11 10 0 6 2 10 4
10 3 0 8 -4 11 -10z m16 -63 c-1 -12 -15 -9 -19 4 -3 6 1 10 8 8 6 -3 11 -8
11 -12z m14 -36 c3 -5 1 -12 -5 -16 -5 -3 -10 1 -10 9 0 18 6 21 15 7z m11
-68 c-10 -10 -19 5 -10 18 6 11 8 11 12 0 2 -7 1 -15 -2 -18z m-36 -65 c0 -5
-4 -8 -10 -8 -5 0 -10 10 -10 23 0 18 2 19 10 7 5 -8 10 -18 10 -22z m20 -54
c0 -8 -4 -12 -10 -9 -5 3 -10 10 -10 16 0 5 5 9 10 9 6 0 10 -7 10 -16z m5
-62 c-8 -9 -25 20 -18 31 3 5 10 2 15 -7 6 -10 7 -20 3 -24z m20 -32 c3 -5 -1
-10 -10 -10 -9 0 -13 5 -10 10 3 6 8 10 10 10 2 0 7 -4 10 -10z m-25 -131 c0
-5 -4 -9 -10 -9 -5 0 -10 7 -10 16 0 8 5 12 10 9 6 -3 10 -10 10 -16z m10 -50
c0 -6 -4 -7 -10 -4 -5 3 -10 11 -10 16 0 6 5 7 10 4 6 -3 10 -11 10 -16z m15
-39 c3 -5 1 -10 -4 -10 -6 0 -11 5 -11 10 0 6 2 10 4 10 3 0 8 -4 11 -10z
m-29 -105 c4 -20 3 -27 -3 -20 -6 6 -14 24 -17 40 -5 20 -4 27 3 20 5 -5 13
-23 17 -40z m28 -110 c3 -8 1 -15 -3 -15 -5 0 -11 7 -15 15 -3 8 -1 15 3 15 5
0 11 -7 15 -15z m-40 -70 c3 -8 1 -15 -4 -15 -6 0 -10 7 -10 15 0 8 2 15 4 15
2 0 6 -7 10 -15z m16 -51 c0 -8 -4 -12 -10 -9 -5 3 -10 10 -10 16 0 5 5 9 10
9 6 0 10 -7 10 -16z m7 -66 c-3 -7 -5 -2 -5 12 0 14 2 19 5 13 2 -7 2 -19 0
-25z m-97 -19 c0 -11 -4 -17 -10 -14 -5 3 -10 13 -10 21 0 8 5 14 10 14 6 0
10 -9 10 -21z m164 -11 c-9 -14 -23 2 -17 18 4 12 8 13 14 3 4 -7 5 -17 3 -21z
m56 11 c0 -5 -4 -9 -8 -9 -5 0 -9 7 -9 15 0 8 4 12 9 9 4 -3 8 -9 8 -15z
m-100 -13 c0 -3 -4 -8 -10 -11 -5 -3 -10 -1 -10 4 0 6 5 11 10 11 6 0 10 -2
10 -4z m-55 -26 c3 -5 1 -10 -4 -10 -6 0 -11 5 -11 10 0 6 2 10 4 10 3 0 8 -4
11 -10z m20 -86 c3 -26 9 -53 13 -62 3 -9 1 -13 -5 -9 -6 4 -14 28 -18 53 -3
26 -9 53 -13 62 -3 9 -1 13 5 9 6 -4 14 -28 18 -53z m-11 -161 c4 -27 10 -56
13 -67 3 -11 1 -16 -5 -12 -6 3 -13 25 -17 49 -3 23 -9 50 -11 60 -3 9 -1 17
4 17 5 0 13 -21 16 -47z m36 -131 c0 -7 -4 -10 -10 -7 -5 3 -10 16 -10 28 0
18 2 19 10 7 5 -8 10 -21 10 -28z m-23 -176 c-2 -6 -11 19 -20 54 -8 35 -13
69 -9 74 7 12 35 -111 29 -128z m18 -26 c3 -5 1 -10 -4 -10 -6 0 -11 5 -11 10
0 6 2 10 4 10 3 0 8 -4 11 -10z m-51 -36 c3 -8 2 -12 -4 -9 -6 3 -10 10 -10
16 0 14 7 11 14 -7z m16 -45 c0 -5 -4 -9 -10 -9 -5 0 -10 7 -10 16 0 8 5 12
10 9 6 -3 10 -10 10 -16z m20 -50 c0 -5 -4 -9 -10 -9 -5 0 -10 7 -10 16 0 8 5
12 10 9 6 -3 10 -10 10 -16z m6 -66 c-10 -11 -25 18 -18 35 4 13 8 11 15 -6 6
-12 7 -25 3 -29z m-26 -104 c0 -11 -4 -17 -10 -14 -5 3 -10 15 -10 26 0 11 5
17 10 14 6 -3 10 -15 10 -26z m20 -55 c0 -8 -4 -12 -10 -9 -5 3 -10 13 -10 21
0 8 5 12 10 9 6 -3 10 -13 10 -21z m10 -50 c0 -8 -5 -12 -10 -9 -6 4 -8 11 -5
16 9 14 15 11 15 -7z m-37 -64 c3 -11 1 -20 -4 -20 -5 0 -9 4 -9 9 0 5 -3 17
-7 27 -4 11 -3 15 4 11 6 -4 13 -16 16 -27z m15 -71 c7 -23 11 -44 8 -47 -3
-3 -8 4 -12 14 -3 10 -10 29 -15 42 -11 28 -11 32 -1 32 4 0 13 -19 20 -41z
m-7 -175 c3 -21 9 -51 14 -66 4 -16 3 -28 -2 -28 -5 0 -14 24 -20 53 -6 28
-14 60 -18 71 -6 14 -5 18 6 14 8 -3 17 -22 20 -44z m-20 -147 c-13 -13 -26
-3 -16 12 3 6 11 8 17 5 6 -4 6 -10 -1 -17z m16 -42 c8 -22 -6 -33 -17 -15
-13 20 -12 30 0 30 6 0 13 -7 17 -15z m13 -61 c0 -8 -4 -12 -10 -9 -5 3 -10
13 -10 21 0 8 5 12 10 9 6 -3 10 -13 10 -21z m10 -50 c0 -8 -5 -12 -10 -9 -6
4 -8 11 -5 16 9 14 15 11 15 -7z m-14 -152 c3 -26 11 -52 16 -59 5 -7 5 -14
-2 -18 -12 -7 -19 7 -23 53 -2 17 -7 35 -10 39 -11 10 -8 45 2 38 6 -3 13 -27
17 -53z m-12 -164 c4 -24 10 -54 13 -68 4 -16 2 -21 -4 -15 -9 9 -33 102 -33
126 0 27 18 -6 24 -43z m-4 -194 c0 -8 -4 -14 -10 -14 -5 0 -10 9 -10 21 0 11
5 17 10 14 6 -3 10 -13 10 -21z m10 -50 c0 -8 -4 -12 -10 -9 -5 3 -10 10 -10
16 0 5 5 9 10 9 6 0 10 -7 10 -16z m20 -54 c6 -11 7 -20 2 -20 -10 0 -32 21
-32 32 0 16 19 8 30 -12z m-10 -176 c0 -8 -4 -14 -9 -14 -11 0 -22 26 -14 34
9 9 23 -3 23 -20z m-3 -46 c-3 -8 -6 -5 -6 6 -1 11 2 17 5 13 3 -3 4 -12 1
-19z m-27 -72 c0 -14 5 -28 10 -31 15 -9 12 -25 -5 -25 -8 0 -15 8 -15 18 0 9
-3 27 -6 40 -4 13 -2 22 5 22 6 0 11 -11 11 -24z m40 -150 c0 -37 -22 1 -25
41 l-3 38 14 -30 c7 -16 13 -39 14 -49z m-40 -67 c0 -11 -4 -17 -10 -14 -5 3
-10 13 -10 21 0 8 5 14 10 14 6 0 10 -9 10 -21z m18 -48 c3 -8 -1 -12 -9 -9
-7 2 -15 10 -17 17 -3 8 1 12 9 9 7 -2 15 -10 17 -17z m12 -59 c0 -7 -4 -10
-10 -7 -5 3 -10 16 -10 28 0 18 2 19 10 7 5 -8 10 -21 10 -28z m-26 -129 c3
-21 12 -50 20 -65 15 -29 9 -42 -13 -28 -8 4 -10 13 -6 20 4 7 3 15 -2 19 -13
8 -26 91 -14 91 4 0 11 -17 15 -37z m6 -203 c0 -5 -7 -10 -15 -10 -8 0 -15 5
-15 10 0 6 7 10 15 10 8 0 15 -4 15 -10z m10 -51 c0 -5 -4 -9 -10 -9 -5 0 -10
7 -10 16 0 8 5 12 10 9 6 -3 10 -10 10 -16z m-60 -20 c0 -11 -4 -17 -10 -14
-5 3 -10 13 -10 21 0 8 5 14 10 14 6 0 10 -9 10 -21z m120 -20 c0 -11 -4 -17
-10 -14 -5 3 -10 13 -10 21 0 8 5 14 10 14 6 0 10 -9 10 -21z m-50 -10 c0 -11
-4 -17 -10 -14 -5 3 -10 13 -10 21 0 8 5 14 10 14 6 0 10 -9 10 -21z m-50 -25
c0 -8 -4 -12 -10 -9 -5 3 -10 10 -10 16 0 5 5 9 10 9 6 0 10 -7 10 -16z m10
-45 c0 -11 -4 -17 -10 -14 -5 3 -10 13 -10 21 0 8 5 14 10 14 6 0 10 -9 10
-21z m6 -210 c3 -6 1 -16 -5 -22 -9 -9 -14 -8 -21 3 -9 15 -4 30 10 30 5 0 12
-5 16 -11z m9 -68 c-9 -16 -25 -3 -18 15 4 10 9 12 15 6 6 -6 7 -15 3 -21z
m15 -47 c0 -8 -4 -12 -10 -9 -5 3 -10 13 -10 21 0 8 5 12 10 9 6 -3 10 -13 10
-21z m-17 -349 c1 -11 6 -26 11 -34 5 -8 3 -16 -5 -22 -14 -8 -37 17 -25 28 3
3 1 14 -5 25 -11 20 -2 45 12 31 5 -5 10 -17 12 -28z m-8 -177 c4 -18 7 -38 6
-45 -1 -6 3 -14 9 -18 15 -10 12 -35 -5 -35 -8 0 -15 8 -15 19 0 10 -7 35 -15
54 -19 45 -19 57 -1 57 7 0 17 -15 21 -32z m-5 -418 c0 -19 -11 -26 -23 -14
-8 8 3 34 14 34 5 0 9 -9 9 -20z m8 -227 c-4 -22 -22 -20 -26 1 -2 10 3 16 13
16 10 0 15 -7 13 -17z"/>
<path d="M11455 7033 c-4 -10 -9 -73 -10 -141 -1 -67 -4 -125 -7 -127 -2 -3
-13 4 -24 14 -11 10 -45 23 -75 28 -176 30 -304 -117 -283 -327 7 -75 51 -152
106 -185 37 -23 178 -37 196 -20 5 6 22 19 37 30 16 11 34 26 42 33 11 11 13
8 13 -22 0 -42 6 -47 53 -39 26 4 37 11 41 28 3 12 6 181 6 375 1 278 -2 355
-12 362 -24 15 -75 9 -83 -9z m-85 -317 c14 -4 35 -22 48 -40 18 -27 22 -46
22 -114 0 -155 -46 -210 -165 -202 -101 7 -147 151 -89 280 23 52 29 58 71 71
49 15 72 16 113 5z"/>
<path d="M10216 6965 c-19 -35 -19 -36 1 -63 26 -35 65 -40 92 -11 41 44 15
109 -42 109 -27 0 -36 -6 -51 -35z"/>
<path d="M7715 6950 c-4 -7 -16 -10 -26 -7 -45 12 -47 -2 -48 -373 l-2 -350
33 -1 c39 -2 61 1 68 8 5 4 7 53 9 231 l1 72 41 0 c22 0 60 -5 84 -11 55 -14
61 -26 118 -234 l14 -50 52 -3 c48 -3 51 -2 51 21 0 21 -19 92 -50 193 -6 17
-10 38 -10 46 0 9 -16 32 -35 51 -38 38 -42 47 -22 47 14 0 53 40 82 84 23 35
30 149 10 166 -8 7 -15 18 -15 25 0 7 -7 16 -16 19 -9 4 -14 9 -11 12 3 4 -18
19 -47 34 -47 24 -66 27 -164 29 -74 1 -113 -2 -117 -9z m220 -95 c43 -13 69
-100 45 -145 -21 -39 -58 -70 -83 -70 -14 0 -28 -6 -31 -12 -5 -10 -7 -10 -12
-1 -4 10 -12 9 -35 -3 -17 -8 -39 -12 -49 -9 -20 6 -23 18 -22 80 1 151 2 164
20 168 22 6 141 1 167 -8z"/>
<path d="M12450 6819 c-14 -6 -43 -27 -64 -47 -24 -23 -36 -30 -32 -19 3 10 3
29 0 43 -5 19 -13 24 -38 24 -17 0 -36 -4 -42 -8 -8 -5 -12 -84 -13 -264 -1
-247 0 -258 18 -258 11 0 26 -3 34 -6 9 -3 24 3 34 13 17 17 19 37 21 159 1
77 7 155 12 173 21 73 83 122 124 99 12 -7 17 0 26 33 17 63 -13 84 -80 58z"/>
<path d="M10735 6810 c-3 -5 -19 -10 -35 -10 -35 0 -96 -35 -112 -64 -12 -20
-13 -19 -18 14 -5 33 -7 35 -47 38 -24 2 -43 0 -43 -5 -1 -16 -2 -498 -1 -510
1 -17 75 -17 89 0 7 8 12 77 13 178 l2 164 30 42 c31 44 49 53 112 53 32 0 44
-6 66 -31 32 -38 39 -94 35 -269 -2 -63 0 -122 4 -130 9 -17 75 -19 91 -3 14
14 12 346 -2 391 -6 20 -13 42 -15 49 -5 21 -106 94 -122 88 -8 -3 -20 -1 -27
5 -9 8 -15 8 -20 0z"/>
<path d="M11850 6813 c-51 -10 -110 -64 -142 -132 -27 -56 -31 -77 -31 -146
-1 -79 13 -135 39 -162 7 -7 21 -23 31 -35 10 -13 28 -28 40 -35 24 -13 140
-36 151 -29 4 2 33 7 66 10 81 9 98 20 94 59 -3 28 -6 32 -28 29 -14 -2 -64
-5 -112 -7 -71 -3 -89 0 -105 14 -10 9 -26 20 -35 23 -19 8 -44 79 -35 102 7
17 22 18 229 20 58 1 110 5 115 9 4 5 8 39 7 75 -1 57 -5 75 -33 120 -50 81
-129 107 -251 85z m157 -107 c29 -34 32 -96 6 -97 -136 -7 -233 -5 -232 5 1
27 46 102 69 114 15 8 46 11 79 9 44 -3 59 -9 78 -31z"/>
<path d="M9298 6786 c-54 -20 -72 -33 -93 -64 l-22 -32 -24 34 c-23 34 -44 47
-84 51 -11 2 -33 5 -49 8 -33 7 -85 -12 -118 -42 -27 -26 -38 -27 -38 -3 0 10
-5 23 -12 30 -15 15 -65 16 -74 1 -3 -6 -7 -122 -8 -257 -1 -262 1 -272 48
-272 51 0 55 12 58 195 3 148 6 174 23 202 11 18 25 33 32 33 6 0 13 5 15 11
2 5 23 10 46 11 47 0 82 -22 82 -53 0 -10 5 -21 10 -24 6 -4 10 -76 10 -185 0
-133 3 -179 13 -183 19 -7 78 4 82 17 2 6 5 85 7 176 3 143 6 170 24 205 19
36 26 41 69 47 56 8 105 -11 105 -41 0 -11 5 -21 11 -23 7 -2 11 -63 11 -183
1 -119 5 -183 12 -187 14 -10 86 -10 87 0 0 4 2 83 5 177 5 142 3 178 -12 224
-18 57 -72 121 -103 121 -10 0 -21 3 -25 8 -10 10 -60 9 -88 -2z"/>
<path d="M9790 6790 c0 -6 -8 -10 -18 -10 -16 0 -76 -24 -91 -36 -7 -6 21 -64
31 -64 5 0 17 4 27 10 10 5 45 11 77 13 82 5 120 -16 126 -69 3 -27 1 -29 -37
-31 -22 -1 -48 -2 -58 -2 -11 -1 -15 -6 -11 -12 4 -7 0 -9 -13 -5 -12 4 -25 1
-33 -9 -7 -8 -23 -15 -35 -15 -27 0 -82 -53 -101 -97 -21 -49 -18 -118 7 -156
30 -46 104 -69 179 -57 30 5 56 14 58 20 2 5 9 10 15 10 6 0 19 7 29 17 17 15
18 15 18 -9 0 -27 16 -38 56 -38 36 0 42 28 42 191 1 172 -5 235 -24 254 -8 7
-14 16 -14 20 0 17 -59 62 -90 69 -57 13 -140 16 -140 6z m160 -320 c0 -69
-28 -111 -85 -132 -40 -14 -53 -15 -74 -5 -36 17 -54 73 -35 110 8 15 18 27
22 27 5 0 18 9 30 21 12 11 26 17 31 14 5 -3 12 -1 15 3 3 5 26 8 51 8 l45 -1
0 -45z"/>
<path d="M8378 6773 c-6 -7 -20 -13 -33 -13 -12 0 -30 -9 -40 -20 -10 -11 -23
-20 -29 -20 -12 0 -17 -8 -56 -85 -21 -43 -24 -63 -23 -140 1 -49 4 -99 6
-110 3 -11 6 -23 6 -26 2 -17 70 -83 103 -100 56 -28 170 -36 241 -15 31 9 58
21 58 26 1 6 2 17 2 25 0 29 -3 34 -21 44 -13 7 -27 6 -45 -4 -37 -19 -145
-13 -184 10 -36 21 -63 63 -63 99 0 30 -6 28 95 31 44 2 115 4 157 5 42 2 82
6 89 11 9 5 13 28 12 69 -2 47 -9 74 -34 120 -17 33 -38 60 -45 60 -8 0 -14 4
-14 9 0 12 -85 34 -132 35 -22 1 -44 -5 -50 -11z m82 -84 c0 -6 6 -9 14 -6 24
9 76 -63 76 -106 0 -9 -36 -13 -125 -15 -69 -2 -125 0 -125 3 0 25 45 96 72
114 35 22 88 28 88 10z"/>
<path d="M10221 6776 c-9 -11 -12 -480 -4 -503 3 -8 22 -13 48 -13 41 0 43 1
48 38 5 28 10 386 7 480 0 15 -86 14 -99 -2z"/>
<path d="M5375 6642 c-3 -3 -25 -5 -48 -3 -115 7 -218 -101 -243 -254 -9 -55
-6 -225 5 -265 22 -77 69 -149 120 -181 39 -25 53 -29 96 -25 114 10 160 45
207 154 32 75 33 80 33 217 0 198 -13 229 -139 341 -14 12 -27 19 -31 16z m9
-126 c46 -48 60 -116 54 -262 -2 -66 -8 -126 -13 -134 -6 -8 -15 -31 -20 -50
-6 -20 -20 -39 -33 -45 -12 -5 -22 -13 -22 -17 0 -5 -17 -8 -39 -8 -32 0 -44
6 -70 37 -46 54 -56 100 -55 248 1 124 3 133 31 185 47 88 111 106 167 46z"/>
<path d="M4735 6620 c-49 -11 -75 -22 -75 -31 0 -5 -6 -9 -14 -9 -8 0 -23 -13
-32 -29 -10 -17 -22 -27 -27 -24 -6 3 -7 2 -4 -4 4 -6 -5 -34 -19 -63 -28 -59
-38 -112 -38 -215 0 -102 11 -152 48 -225 40 -78 88 -110 169 -115 103 -7 182
56 224 176 22 63 26 91 26 189 0 118 -20 217 -49 251 -8 8 -14 19 -14 23 0 13
-63 65 -73 59 -5 -3 -12 -1 -16 4 -8 14 -70 21 -106 13z m93 -110 c37 -36 52
-86 59 -196 11 -170 -34 -312 -99 -314 -9 0 -18 -4 -20 -9 -2 -6 -18 -5 -41 2
-32 10 -42 21 -65 67 -24 49 -27 68 -30 180 -3 109 -1 132 18 183 12 31 28 63
36 71 8 8 14 19 14 25 0 11 22 17 68 18 23 1 41 -7 60 -27z"/>
<path d="M4158 6595 c-3 -3 -19 -7 -37 -10 -17 -2 -47 -9 -67 -15 -33 -11 -35
-14 -32 -53 3 -47 27 -60 57 -33 11 10 42 17 82 20 56 4 68 1 91 -19 42 -36
45 -68 13 -115 -32 -46 -66 -60 -147 -61 -21 0 -28 -6 -33 -30 -8 -37 9 -59
44 -58 56 1 116 -15 143 -39 22 -20 28 -34 28 -67 0 -55 -22 -108 -52 -122
-13 -7 -50 -16 -83 -21 -50 -7 -66 -5 -90 9 -38 22 -71 24 -79 3 -25 -66 23
-98 155 -98 49 -1 92 4 100 10 8 6 25 14 39 18 67 17 120 104 120 195 0 33 -5
63 -11 66 -5 4 -15 18 -20 32 -5 14 -18 27 -29 30 -11 3 -20 11 -20 18 0 8 -8
11 -20 8 -29 -8 -25 2 19 48 48 49 65 96 57 154 -9 56 -38 92 -93 116 -41 18
-123 26 -135 14z"/>
<path d="M2390 6537 c0 -5 -7 -6 -16 -3 -8 3 -12 2 -9 -4 3 -6 1 -10 -5 -10
-6 0 -29 -12 -53 -27 -23 -16 -46 -29 -52 -29 -5 -1 -14 -2 -20 -3 -5 -1 -3
-6 5 -11 11 -7 12 -10 2 -10 -18 0 -42 -25 -42 -44 0 -9 -4 -16 -9 -16 -5 0
-14 -13 -21 -30 -7 -16 -16 -30 -21 -30 -5 0 -8 -3 -7 -7 2 -8 -10 -83 -19
-118 -10 -39 -4 -135 12 -194 12 -42 29 -71 57 -101 48 -50 70 -59 162 -67 59
-4 74 -3 85 11 7 9 19 16 25 16 23 0 87 77 106 128 31 81 21 193 -22 240 -34
38 -81 72 -99 72 -10 0 -19 6 -19 13 0 8 -3 9 -8 1 -4 -6 -21 -10 -38 -9 -46
4 -80 -5 -103 -26 -25 -24 -43 -25 -34 -1 22 56 114 159 133 147 5 -3 11 -1
15 5 4 6 11 7 17 4 6 -4 14 0 19 7 8 14 11 15 67 17 33 2 33 3 30 45 l-3 42
-67 1 c-38 0 -68 -4 -68 -9z m26 -332 c36 -8 53 -36 64 -104 15 -89 -36 -170
-112 -178 -85 -10 -127 37 -144 158 -6 43 -4 48 35 90 37 40 46 44 84 42 23
-1 56 -4 73 -8z"/>
<path d="M1751 6508 c-8 -12 -19 -18 -31 -15 -14 3 -17 1 -13 -11 4 -10 2 -13
-5 -8 -6 3 -20 -1 -32 -11 -38 -33 -16 -108 28 -96 12 3 22 9 22 13 0 4 8 10
18 14 9 3 23 9 30 12 10 5 12 -52 12 -275 -1 -155 2 -286 5 -291 10 -16 82
-12 89 5 3 8 6 138 6 287 1 150 2 297 4 326 1 29 -3 56 -9 60 -5 4 -33 8 -61
8 -41 2 -53 -2 -63 -18z"/>
<path d="M15851 6336 c-29 -16 -54 -79 -37 -96 8 -8 5 -16 -10 -28 -29 -22
-46 -58 -42 -85 1 -13 -8 -37 -20 -55 -18 -24 -22 -40 -17 -62 5 -23 3 -30 -9
-30 -9 0 -16 -7 -16 -16 0 -9 -8 -23 -17 -30 -15 -11 -16 -16 -5 -33 15 -26
16 -44 0 -39 -19 7 -66 -96 -59 -126 1 -5 -7 -19 -19 -31 -11 -12 -17 -24 -13
-28 3 -4 -2 -16 -12 -27 -11 -12 -13 -20 -6 -20 6 0 14 7 17 15 8 21 24 19 24
-3 0 -10 3 -21 6 -24 3 -4 41 7 85 23 44 16 82 29 84 29 3 0 5 -9 5 -20 0 -11
5 -20 10 -20 14 0 12 -34 -2 -48 -10 -10 -10 -17 1 -33 9 -15 10 -24 2 -32
-17 -17 -13 -47 7 -47 14 0 15 -2 2 -10 -13 -8 -13 -10 0 -10 10 0 7 -5 -8
-16 -28 -19 -28 -28 -1 -40 20 -9 20 -11 5 -26 -19 -20 -20 -32 -4 -57 9 -15
8 -22 -6 -37 -18 -17 -17 -18 0 -31 15 -11 16 -17 6 -33 -15 -25 -15 -47 1
-54 10 -5 10 -7 0 -12 -7 -3 -13 -18 -13 -34 0 -16 6 -30 13 -33 9 -3 7 -9 -5
-24 -22 -24 -23 -53 -3 -53 8 0 15 -4 15 -9 0 -5 -7 -14 -15 -21 -8 -7 -15
-19 -15 -26 0 -8 7 -14 15 -14 8 0 15 -7 15 -15 0 -9 -7 -18 -15 -21 -17 -7
-21 -34 -5 -34 6 0 10 -9 10 -19 0 -11 -4 -23 -10 -26 -15 -9 -12 -34 5 -52
14 -14 14 -17 0 -32 -19 -22 -19 -31 0 -31 8 0 15 -6 15 -14 0 -7 -7 -19 -15
-26 -20 -16 -19 -30 2 -45 17 -12 17 -14 -2 -35 -17 -19 -18 -23 -5 -33 16
-12 15 -47 -1 -47 -5 0 -9 -7 -9 -15 0 -8 7 -15 16 -15 9 0 14 -3 12 -7 -2 -5
-10 -21 -18 -36 -12 -24 -12 -30 0 -37 11 -7 11 -13 0 -40 -11 -27 -11 -33 1
-41 11 -7 12 -12 2 -29 -15 -23 -17 -54 -4 -45 17 10 21 -11 6 -31 -18 -24
-19 -51 -2 -57 9 -3 9 -9 -2 -30 -12 -22 -12 -29 -1 -42 10 -12 10 -19 2 -27
-16 -16 -15 -45 1 -51 10 -3 10 -9 0 -26 -7 -11 -13 -27 -13 -35 0 -8 6 -16
13 -19 10 -3 10 -9 0 -26 -16 -25 -17 -51 -3 -51 15 0 12 -26 -5 -40 -11 -9
-12 -16 -3 -30 9 -14 9 -25 1 -43 -8 -18 -8 -28 0 -36 7 -7 7 -18 -1 -36 -9
-18 -9 -32 -2 -45 8 -14 7 -25 -2 -40 -11 -18 -10 -23 5 -34 22 -17 22 -32 0
-45 -15 -8 -16 -12 -4 -34 11 -20 11 -28 -1 -46 -11 -19 -11 -24 5 -36 16 -11
16 -14 2 -28 -19 -20 -19 -34 1 -45 15 -9 15 -12 -2 -41 -16 -28 -17 -33 -4
-41 13 -9 13 -13 -1 -38 -15 -26 -15 -30 0 -39 14 -9 14 -12 -1 -35 -14 -21
-15 -28 -4 -37 7 -6 15 -8 19 -5 3 3 3 -3 0 -15 -3 -11 -11 -26 -19 -32 -18
-15 -18 -29 1 -29 19 0 19 -20 0 -47 -14 -20 -14 -23 1 -31 15 -8 15 -11 0
-40 -20 -38 -20 -42 -1 -42 19 0 19 -5 -1 -35 -13 -20 -14 -28 -4 -39 8 -11 8
-20 1 -35 -15 -27 -14 -41 3 -41 18 0 9 -39 -10 -47 -11 -4 -11 -11 4 -35 16
-28 16 -30 -1 -39 -13 -8 -15 -14 -7 -30 6 -11 8 -35 4 -56 -6 -31 -4 -35 10
-30 22 9 20 -5 -4 -36 -18 -22 -18 -27 -6 -40 13 -12 13 -20 3 -46 -8 -23 -9
-34 -1 -39 6 -4 16 -17 23 -30 10 -19 19 -22 52 -20 22 1 44 7 49 13 16 20 39
1511 42 2790 0 187 3 361 7 386 4 25 5 53 2 62 -3 9 -4 51 -1 94 l5 78 45 6
c25 3 47 3 50 0 8 -10 80 -41 94 -41 18 0 11 32 -34 160 -55 156 -65 184 -73
197 -4 6 -22 58 -41 116 -19 57 -38 112 -44 123 -6 10 -16 39 -22 64 -12 44
-26 70 -39 70 -3 -1 -17 -7 -30 -14z m-205 -583 c-10 -10 -19 5 -10 18 6 11 8
11 12 0 2 -7 1 -15 -2 -18z"/>
<path d="M10371 5631 c0 -8 -4 -11 -8 -8 -3 4 -12 2 -19 -4 -8 -6 -20 -9 -29
-6 -8 4 -18 -1 -23 -10 -8 -14 -12 -13 -31 6 -26 26 -29 26 -33 -1 -2 -12 -10
-23 -18 -25 -11 -4 -12 -2 -2 5 19 13 4 44 -16 33 -10 -5 -26 -5 -37 0 -30 12
-35 11 -35 -7 0 -12 -6 -15 -25 -10 -18 5 -27 2 -31 -9 -9 -22 -21 -18 -28 10
-4 16 -11 22 -21 19 -21 -9 -19 -52 4 -66 10 -6 17 -18 14 -25 -3 -7 0 -13 7
-13 8 0 11 9 8 25 -3 14 -2 25 1 25 14 0 31 -25 31 -44 0 -18 1 -18 25 4 23
22 23 24 7 37 -15 13 -15 13 5 4 12 -6 23 -16 25 -23 2 -6 10 -8 16 -4 8 5 9
13 2 26 -7 13 -6 19 5 24 11 4 15 -2 15 -22 0 -21 2 -24 10 -12 8 12 10 10 10
-9 l0 -23 19 23 19 24 13 -28 c14 -31 34 -37 24 -7 -3 11 -3 25 0 30 10 16 35
-8 35 -31 0 -23 7 -24 26 -4 19 18 44 20 45 3 0 -7 4 -4 8 7 5 11 5 25 1 30
-5 6 -10 24 -13 40 -2 17 -5 24 -6 16z m-21 -56 c0 -8 -7 -15 -15 -15 -9 0
-12 6 -9 15 4 8 10 15 15 15 5 0 9 -7 9 -15z"/>
<path d="M10634 5632 c-12 -8 -13 -52 -2 -52 5 0 14 -11 20 -25 19 -43 27 -27
13 26 -16 58 -17 60 -31 51z"/>
<path d="M10796 5633 c-3 -3 -14 -7 -24 -8 -9 -1 -24 -5 -32 -8 -8 -4 -28 -11
-45 -17 l-30 -12 25 -13 c14 -7 24 -16 23 -19 -7 -14 -2 -27 7 -21 6 3 10 17
10 31 0 15 4 23 10 19 6 -4 8 -10 6 -14 -9 -13 12 -34 28 -28 12 5 15 14 10
32 -5 21 -3 25 15 25 12 0 21 6 21 14 0 17 -14 28 -24 19z"/>
<path d="M10403 5596 c24 -69 50 -96 42 -43 -4 24 17 16 30 -11 11 -24 29 -24
31 -1 6 56 5 55 16 27 12 -35 36 -37 33 -3 -2 17 2 25 12 25 12 0 13 -3 5 -13
-8 -10 -6 -16 10 -26 17 -11 22 -10 29 1 11 17 11 28 0 28 -5 0 -8 11 -5 25 5
30 -4 31 -76 8 -44 -14 -53 -15 -61 -2 -7 11 -9 11 -9 -3 0 -10 -7 -18 -15
-18 -8 0 -15 9 -15 19 0 13 -6 19 -19 18 -16 -1 -17 -5 -8 -31z"/>
<path d="M6156 5526 l-6 -26 -21 21 c-20 20 -21 20 -34 2 -13 -17 -14 -17 -20
0 -4 9 -15 17 -26 17 -16 0 -17 -4 -7 -32 6 -18 15 -38 19 -44 5 -6 6 -14 2
-17 -3 -4 -1 -7 5 -7 21 0 27 5 24 22 -2 9 2 19 8 23 5 3 10 0 10 -8 0 -18 29
-45 31 -28 1 6 3 16 4 21 1 6 3 13 4 18 1 4 6 -3 11 -15 9 -23 34 -31 44 -15
7 11 -19 85 -32 90 -5 1 -12 -9 -16 -22z"/>
<path d="M5607 5528 c-12 -6 -16 -17 -13 -31 3 -14 1 -12 -6 5 -11 26 -15 27
-52 21 -23 -3 -46 -13 -52 -22 -10 -13 -12 -12 -18 7 -8 23 -36 31 -36 10 0
-9 -3 -9 -12 0 -15 15 -48 16 -48 1 0 -8 -5 -7 -16 2 -13 11 -17 10 -26 -4 -7
-14 -13 -15 -30 -6 -18 10 -24 8 -35 -7 -13 -18 -14 -18 -19 4 -7 25 -19 29
-28 7 -6 -16 -1 -35 17 -72 13 -29 27 -29 27 -1 l0 22 20 -22 c26 -27 41 -28
37 -3 -1 11 1 20 6 20 4 1 7 -2 8 -6 0 -5 6 -14 12 -21 9 -11 13 -11 24 4 10
14 15 15 28 4 13 -11 18 -10 30 6 14 18 15 18 21 -4 9 -30 28 -23 32 11 4 33
22 26 22 -9 0 -26 7 -29 29 -15 8 5 11 16 8 25 -3 8 -2 18 3 21 6 4 15 -6 20
-20 9 -24 11 -25 26 -10 13 12 19 13 30 4 12 -9 17 -8 27 6 12 16 15 15 30 -9
22 -32 36 -34 30 -2 -3 13 0 27 6 30 7 5 11 -2 11 -17 0 -13 3 -27 7 -30 10
-11 33 14 33 37 0 19 2 19 23 -8 19 -24 25 -26 30 -13 3 9 1 18 -6 21 -7 2 -4
5 6 5 10 1 22 -9 27 -21 5 -13 9 -18 10 -13 0 6 5 3 10 -5 8 -12 10 -9 10 13
0 34 16 36 24 2 9 -36 34 -22 28 17 -3 21 -1 29 7 24 6 -4 11 -16 11 -26 0
-16 7 -19 45 -16 24 1 47 5 50 8 3 3 2 23 -3 44 -8 37 -10 39 -46 39 -21 0
-42 -6 -48 -13 -9 -10 -15 -9 -34 3 -23 15 -42 6 -29 -14 3 -5 1 -12 -5 -16
-5 -3 -10 3 -10 15 0 22 -31 41 -38 22 -2 -8 -9 -8 -23 1 -16 10 -21 9 -28 -2
-5 -7 -13 -11 -18 -8 -5 3 -21 0 -35 -7 -22 -12 -26 -11 -37 6 -14 23 -34 14
-26 -13 4 -11 2 -19 -4 -19 -6 0 -11 9 -11 19 0 26 -11 32 -33 19z m223 -39
c0 -5 -4 -9 -10 -9 -5 0 -10 7 -10 16 0 8 5 12 10 9 6 -3 10 -10 10 -16z
m-453 -21 c-3 -8 -6 -5 -6 6 -1 11 2 17 5 13 3 -3 4 -12 1 -19z"/>
<path d="M5048 5525 c-4 -4 -4 -13 -2 -20 3 -7 1 -16 -5 -20 -7 -3 -11 2 -11
14 0 16 -7 19 -45 19 -25 0 -45 -4 -45 -10 0 -5 -9 -6 -21 -3 -13 4 -27 1 -39
-10 -17 -15 -19 -15 -25 4 -8 27 -25 27 -25 1 0 -11 -4 -20 -10 -20 -5 0 -10
6 -10 14 0 20 -19 31 -32 18 -8 -8 -17 -8 -31 0 -16 8 -23 7 -32 -5 -7 -11
-16 -12 -27 -6 -12 7 -19 5 -26 -7 -9 -16 -11 -15 -21 4 -7 12 -19 22 -28 22
-12 0 -14 -7 -9 -30 3 -17 1 -30 -4 -30 -6 0 -11 7 -11 15 -1 8 -2 20 -3 27
-1 14 -26 24 -26 11 0 -12 -32 -13 -46 -1 -8 5 -14 3 -18 -7 -4 -12 -10 -14
-25 -5 -27 14 -31 13 -31 -10 0 -11 -4 -20 -10 -20 -5 0 -10 10 -10 21 0 18
-4 21 -29 16 -15 -3 -33 -1 -38 4 -8 8 -13 7 -17 0 -4 -6 -18 -11 -31 -11 -13
0 -28 -7 -33 -16 -8 -14 -11 -14 -25 7 -12 17 -17 19 -21 8 -14 -43 -15 -44
-21 -21 -4 12 -10 22 -14 23 -48 5 -82 2 -86 -9 -3 -10 -10 -10 -25 -2 -17 9
-20 8 -20 -8 0 -29 -12 -34 -24 -9 -10 19 -19 22 -76 22 -64 0 -65 0 -71 -30
-4 -16 -7 -24 -8 -17 -1 16 -30 46 -37 39 -3 -2 -6 -14 -7 -26 -2 -29 -13 -26
-21 5 -5 19 -12 25 -25 21 -10 -2 -25 0 -34 5 -13 7 -18 3 -21 -14 -9 -38 -2
-76 12 -71 7 3 12 -3 13 -13 0 -16 2 -15 9 4 12 28 26 28 33 1 7 -27 33 -19
29 9 -2 12 2 22 7 22 6 0 11 -9 11 -19 0 -10 7 -22 16 -25 24 -9 25 -8 18 19
-4 16 -2 25 6 25 7 0 10 -7 6 -16 -4 -12 -2 -15 9 -10 8 3 15 0 15 -7 0 -7 7
-3 15 7 14 18 16 18 33 3 24 -22 31 -21 25 3 -3 12 0 20 7 20 6 0 14 -9 17
-20 8 -29 33 -25 33 5 0 14 5 25 10 25 6 0 10 -8 10 -18 0 -16 6 -18 43 -12
38 5 42 8 40 33 -2 36 4 34 21 -8 15 -36 36 -47 36 -20 0 21 17 19 30 -5 16
-29 28 -24 26 10 -2 34 9 40 19 10 7 -21 30 -27 40 -10 5 8 11 7 21 -1 11 -9
18 -9 26 -1 18 18 35 14 41 -9 3 -12 10 -18 16 -14 6 3 8 17 5 31 -4 14 -2 24
5 24 10 0 15 -14 12 -32 0 -5 8 -8 19 -8 20 0 23 7 21 45 -1 14 4 11 16 -12
13 -23 22 -30 32 -24 10 7 11 13 2 29 -6 12 -7 23 -2 26 5 3 14 -8 20 -24 9
-28 41 -43 41 -20 0 19 22 10 27 -10 7 -27 29 -20 25 8 -4 30 16 37 24 7 3
-14 10 -25 14 -25 10 0 22 33 18 46 -2 5 2 10 7 11 6 1 10 -7 9 -17 0 -15 6
-20 24 -20 21 0 23 3 18 25 -4 14 -2 25 4 25 5 0 11 -7 11 -15 1 -8 2 -21 3
-27 2 -24 34 -20 38 4 4 23 4 23 18 -4 15 -32 45 -39 35 -9 -3 11 -1 22 5 26
7 4 14 -2 17 -14 8 -30 27 -21 33 15 l6 29 7 -27 c8 -29 21 -34 47 -18 12 8
12 10 -3 16 -19 7 -23 24 -6 24 6 0 16 -13 22 -30 12 -32 37 -41 37 -14 0 9 6
14 13 11 6 -2 11 -9 10 -15 -4 -20 27 -21 40 -1 13 17 15 18 21 4 9 -24 29 -6
23 21 -2 14 0 27 4 30 8 5 13 -10 10 -30 -1 -4 6 -14 16 -21 15 -11 19 -11 24
3 18 48 -22 116 -44 77 -6 -12 -12 -13 -22 -5 -10 8 -19 8 -34 -2 -17 -11 -22
-10 -34 5 -7 10 -15 15 -19 12z m-1052 -72 c-11 -11 -17 4 -9 23 7 18 8 18 11
1 2 -10 1 -21 -2 -24z m394 11 c0 -8 -4 -14 -10 -14 -5 0 -10 9 -10 21 0 11 5
17 10 14 6 -3 10 -13 10 -21z m-600 -20 c0 -8 -4 -12 -10 -9 -5 3 -10 13 -10
21 0 8 5 12 10 9 6 -3 10 -13 10 -21z m160 5 c0 -11 -4 -18 -10 -14 -5 3 -7
12 -3 20 7 21 13 19 13 -6z m165 2 c3 -5 1 -12 -5 -16 -5 -3 -10 1 -10 9 0 18
6 21 15 7z"/>
<path d="M3135 5470 c-4 -7 -16 -10 -26 -7 -10 3 -26 -1 -36 -8 -13 -10 -21
-10 -31 -2 -10 8 -16 7 -22 -3 -7 -11 -11 -10 -25 4 -10 9 -22 15 -29 13 -12
-5 -12 -11 -1 -39 4 -11 3 -18 -4 -18 -6 0 -13 11 -17 24 -7 29 -32 42 -41 21
-4 -12 -8 -13 -19 -4 -12 9 -17 8 -28 -6 -13 -18 -14 -18 -27 3 -18 29 -27 28
-32 -5 -4 -27 -4 -27 -12 -5 -4 13 -16 22 -27 22 -18 0 -19 -4 -13 -37 4 -21
11 -46 17 -56 11 -22 34 -17 32 7 -1 9 3 15 10 13 6 -2 11 -9 11 -15 0 -7 3
-12 8 -12 4 0 12 0 18 0 7 0 8 11 4 30 -4 19 -3 30 4 30 6 0 11 -11 11 -24 0
-20 16 -36 37 -36 3 0 3 14 1 30 -3 17 -1 33 4 36 4 3 9 0 9 -5 1 -6 2 -16 3
-21 2 -21 29 -29 42 -12 10 14 13 13 23 -6 14 -26 31 -20 31 9 0 26 13 24 25
-3 11 -26 29 -26 31 0 1 9 3 24 3 32 1 8 8 0 16 -17 18 -43 40 -44 31 -2 -4
22 -2 29 7 26 6 -2 12 -10 12 -18 0 -8 7 -19 15 -26 12 -9 17 -8 23 3 11 18
27 18 27 -1 0 -8 7 -15 16 -15 11 0 15 6 11 19 -2 10 -1 25 4 32 7 12 9 11 10
-1 1 -8 3 -19 4 -25 2 -5 3 -15 4 -22 0 -6 10 -9 21 -6 17 5 19 11 14 42 -4
20 -9 39 -11 44 -6 11 -33 9 -33 -3 0 -19 -28 -10 -33 12 -5 18 -8 19 -21 8
-12 -9 -19 -10 -30 -1 -11 9 -16 9 -21 1z m42 -42 c-3 -8 -6 -5 -6 6 -1 11 2
17 5 13 3 -3 4 -12 1 -19z"/>
<path d="M2088 5447 c-42 -7 -58 -15 -59 -26 0 -12 -4 -10 -16 7 -19 27 -33
28 -33 2 0 -26 -16 -26 -23 1 -5 17 -10 19 -42 13 -20 -3 -49 -7 -66 -8 -16
-1 -34 -8 -38 -15 -7 -11 -11 -9 -20 7 -12 23 -43 20 -34 -4 3 -8 0 -14 -7
-14 -6 0 -9 4 -6 9 7 11 -18 33 -27 24 -4 -3 -23 -6 -42 -5 -21 1 -35 -3 -35
-10 0 -9 -3 -9 -12 0 -17 17 -39 15 -32 -3 4 -9 0 -15 -9 -15 -9 0 -17 8 -19
17 -4 22 -88 27 -88 5 0 -12 -3 -12 -15 -2 -12 10 -18 10 -30 0 -12 -10 -18
-10 -30 0 -18 15 -35 5 -36 -23 -1 -20 -2 -20 -8 3 -6 22 -13 25 -54 27 -28 2
-47 -2 -47 -8 0 -7 -10 -9 -25 -5 -16 4 -25 2 -25 -5 0 -8 -6 -7 -17 3 -23 20
-42 13 -36 -12 3 -11 1 -20 -5 -20 -6 0 -12 10 -14 23 -3 20 -8 22 -48 19 -87
-6 -93 -7 -98 -19 -6 -20 -22 -15 -22 6 0 19 0 19 -121 13 -33 -2 -45 -29 -24
-52 17 -18 11 -32 -11 -23 -9 3 -14 -2 -14 -16 0 -17 4 -19 23 -12 12 4 28 6
35 4 7 -3 19 1 28 7 12 10 18 9 36 -6 12 -11 18 -13 14 -6 -15 25 6 35 24 12
12 -16 22 -20 31 -14 8 4 33 9 57 9 24 1 47 8 52 15 6 10 11 8 21 -9 17 -26
29 -27 29 -1 0 11 5 20 10 20 6 0 10 -7 10 -15 0 -10 12 -14 45 -13 31 0 45 5
45 14 0 12 6 11 27 -3 15 -10 24 -13 20 -7 -12 20 23 25 41 7 16 -16 17 -15
20 5 4 30 18 28 26 -3 7 -29 21 -32 35 -8 7 14 12 15 24 5 21 -18 30 0 22 39
-5 22 -4 29 4 25 6 -4 11 -15 11 -25 0 -19 33 -55 42 -46 3 4 2 23 -3 43 -17
72 -2 68 21 -6 9 -30 18 -42 29 -39 10 2 15 11 13 27 -2 24 -2 24 16 4 11 -10
18 -22 15 -26 -6 -11 15 -10 21 1 11 17 70 19 89 3 16 -14 17 -13 18 9 1 13 1
28 0 33 -1 5 5 4 13 -4 9 -7 16 -18 16 -26 0 -9 13 -12 43 -11 40 2 42 3 39
30 -2 18 1 26 7 22 6 -3 11 -12 11 -19 0 -8 7 -19 15 -26 12 -10 16 -9 21 4 8
20 34 21 34 1 0 -8 5 -15 10 -15 6 0 10 11 10 25 0 14 5 25 10 25 10 0 14 -14
11 -37 -1 -7 5 -13 14 -13 9 0 15 9 15 24 0 14 5 28 10 31 6 3 10 1 10 -6 0
-7 7 -21 16 -31 16 -17 18 -17 30 0 8 10 13 12 14 5 0 -7 7 -13 15 -13 16 0
18 9 15 48 -1 12 3 22 9 22 6 0 11 -9 11 -21 0 -28 19 -61 31 -54 5 4 9 15 9
26 0 12 4 17 11 13 6 -3 8 -15 6 -26 -4 -15 -1 -19 16 -16 17 2 21 9 19 31 -2
15 2 27 9 27 6 0 9 -7 5 -15 -6 -18 29 -41 39 -25 3 6 3 19 0 30 -4 11 -2 20
4 20 6 0 11 -8 11 -18 0 -9 9 -23 20 -30 17 -10 20 -10 20 3 0 22 27 18 33 -5
6 -22 29 -28 26 -7 -3 23 1 37 11 37 6 0 10 -9 10 -19 0 -11 4 -22 9 -26 14
-8 26 16 22 44 -2 14 1 21 8 17 5 -4 8 -13 5 -21 -8 -19 22 -31 40 -16 11 10
19 7 35 -10 l21 -23 0 26 c0 14 -3 39 -6 56 -5 27 -11 31 -48 34 -26 3 -44 0
-48 -8 -5 -7 -17 -10 -28 -7 -11 3 -20 0 -20 -6 0 -17 -27 -13 -34 5 -5 13
-18 15 -68 11 -35 -3 -65 -6 -68 -7 -3 -1 -15 -1 -27 0 -15 1 -22 -5 -25 -22
-3 -22 -4 -21 -23 10 -10 17 -22 31 -25 31 -3 -1 -31 -6 -62 -12z m-158 -57
c0 -12 -3 -12 -16 2 -9 9 -13 21 -9 28 9 14 25 -5 25 -30z m430 24 c0 -8 -4
-12 -10 -9 -5 3 -10 10 -10 16 0 5 5 9 10 9 6 0 10 -7 10 -16z m170 -5 c0 -5
-4 -9 -10 -9 -5 0 -10 7 -10 16 0 8 5 12 10 9 6 -3 10 -10 10 -16z m-820 -20
c0 -11 -4 -17 -10 -14 -5 3 -10 15 -10 26 0 11 5 17 10 14 6 -3 10 -15 10 -26z
m384 0 c-9 -16 -20 -10 -21 12 -2 17 1 18 12 9 8 -7 12 -16 9 -21z m-1154 5
c0 -8 -5 -12 -10 -9 -6 4 -8 11 -5 16 9 14 15 11 15 -7z m330 -10 c0 -8 -4
-14 -10 -14 -5 0 -10 9 -10 21 0 11 5 17 10 14 6 -3 10 -13 10 -21z m54 5 c-3
-5 -10 -7 -15 -3 -5 3 -7 10 -3 15 3 5 10 7 15 3 5 -3 7 -10 3 -15z m-224 -5
c0 -8 -5 -12 -10 -9 -6 4 -8 11 -5 16 9 14 15 11 15 -7z m554 -5 c-3 -5 -10
-7 -15 -3 -5 3 -7 10 -3 15 3 5 10 7 15 3 5 -3 7 -10 3 -15z m166 -7 c0 -15
-2 -15 -10 -2 -13 20 -13 33 0 25 6 -3 10 -14 10 -23z m-930 8 c0 -5 -4 -10
-10 -10 -5 0 -10 5 -10 10 0 6 5 10 10 10 6 0 10 -4 10 -10z m170 -5 c0 -8 -4
-15 -10 -15 -5 0 -10 7 -10 15 0 8 5 15 10 15 6 0 10 -7 10 -15z m382 0 c0 -5
-5 -11 -11 -13 -6 -2 -11 4 -11 13 0 9 5 15 11 13 6 -2 11 -8 11 -13z m-227
-5 c3 -5 1 -10 -4 -10 -6 0 -11 5 -11 10 0 6 2 10 4 10 3 0 8 -4 11 -10z"/>
<path d="M2580 5431 c0 -35 19 -91 31 -91 5 0 12 14 16 30 6 33 23 41 23 11 0
-11 4 -22 9 -26 14 -8 26 16 22 45 -3 29 15 16 21 -14 4 -24 24 -32 31 -13 9
25 -8 82 -26 85 -9 2 -17 -1 -17 -7 0 -7 -10 -9 -25 -5 -18 4 -27 1 -31 -10
-6 -15 -8 -15 -21 4 -20 28 -33 25 -33 -9z"/>
<path d="M9098 5063 c-51 -88 -75 -150 -92 -240 -17 -88 -22 -206 -12 -263 3
-19 8 -47 10 -62 6 -37 47 -147 57 -154 5 -3 9 -13 9 -23 0 -10 7 -25 16 -32
9 -7 20 -23 25 -36 7 -18 16 -23 43 -23 19 0 37 4 40 8 3 5 -12 44 -34 88 -49
100 -78 213 -81 314 -3 101 37 307 59 303 6 -2 9 4 6 12 -3 8 8 40 25 71 35
65 38 79 15 88 -38 15 -53 5 -86 -51z"/>
<path d="M9914 5107 c-2 -7 13 -49 34 -93 57 -117 63 -134 72 -220 19 -190
-14 -365 -92 -483 -16 -24 -28 -51 -26 -60 5 -25 59 -15 85 17 35 42 92 168
110 241 19 82 25 239 12 306 -5 28 -12 62 -14 76 -3 15 -16 51 -30 80 -14 30
-25 59 -25 66 0 7 -6 16 -13 20 -7 4 -20 20 -30 36 -13 20 -26 27 -48 27 -16
0 -32 -6 -35 -13z"/>
<path d="M9573 5103 c-18 -2 -33 -8 -33 -14 0 -5 -9 -9 -20 -9 -12 0 -32 -7
-45 -16 -13 -9 -28 -13 -33 -10 -4 3 -16 -8 -26 -25 -9 -16 -23 -29 -29 -29
-11 0 -26 -21 -65 -90 -24 -42 -43 -132 -44 -200 -2 -148 73 -278 192 -331 44
-20 199 -33 235 -21 17 7 46 12 63 12 34 0 52 21 52 64 0 34 -12 39 -62 26
-81 -22 -192 -17 -222 11 -6 5 -16 9 -24 9 -8 0 -33 19 -56 43 -33 34 -44 54
-54 103 -37 184 23 322 166 373 45 16 93 16 221 -1 19 -2 26 4 36 33 7 20 10
41 6 47 -3 6 -41 15 -84 21 -78 11 -111 12 -174 4z"/>
<path d="M8210 5049 c0 -6 -4 -8 -9 -4 -12 7 -81 -30 -98 -53 -17 -22 -16 -36
5 -62 l18 -22 49 29 c62 35 139 42 171 15 32 -28 44 -56 44 -109 -1 -90 -27
-129 -206 -310 -56 -56 -100 -104 -98 -106 3 -2 -2 -10 -11 -17 -8 -7 -15 -25
-15 -41 0 -34 -9 -32 165 -29 66 2 157 3 203 4 89 1 82 -5 86 66 l1 25 -130 2
c-71 1 -136 2 -142 2 -7 1 8 22 32 48 25 26 45 50 45 55 0 4 7 8 15 8 8 0 15
4 15 9 0 5 6 16 13 23 37 39 87 109 108 153 25 53 32 156 14 220 -9 32 -40 65
-60 65 -7 0 -15 6 -18 14 -3 8 -14 15 -24 15 -10 1 -53 3 -95 5 -48 3 -78 1
-78 -5z"/>
<path d="M7703 5026 c-13 -6 -23 -14 -23 -18 0 -5 -6 -8 -14 -8 -8 0 -16 -3
-18 -7 -1 -5 -16 -16 -33 -25 -23 -13 -31 -25 -33 -51 -4 -42 18 -65 41 -43 8
8 17 13 19 10 3 -2 17 7 32 21 18 17 28 21 31 12 3 -6 6 -140 7 -297 l3 -285
42 -3 c37 -3 43 0 47 20 3 13 7 172 8 353 l3 330 -45 1 c-25 1 -55 -4 -67 -10z"/>
<path d="M5271 4987 c-5 -5 -18 -10 -28 -11 -39 -3 -96 -41 -121 -80 -22 -34
-26 -51 -24 -101 3 -64 38 -135 68 -135 10 0 14 -7 12 -22 -2 -13 -10 -23 -18
-23 -8 0 -18 -8 -22 -17 -4 -10 -14 -18 -22 -18 -18 0 -46 -85 -46 -137 0 -38
28 -99 57 -125 37 -34 96 -51 180 -52 70 -1 86 2 112 22 16 12 34 22 39 22 12
0 45 39 61 72 22 42 19 138 -4 181 -11 20 -24 37 -30 37 -5 0 -23 12 -40 27
l-29 26 24 19 c51 41 70 79 70 138 0 65 -16 120 -34 120 -7 0 -21 9 -30 19
-25 27 -157 56 -175 38z m111 -109 c24 -17 28 -26 28 -69 0 -42 -5 -54 -37
-89 -32 -36 -40 -40 -66 -34 -31 6 -41 13 -83 51 -42 39 -28 118 28 153 39 24
86 20 130 -12z m6 -325 c42 -34 47 -47 43 -113 -3 -38 -75 -100 -118 -100 -39
0 -92 20 -110 42 -20 23 -27 103 -13 137 7 17 31 41 54 55 51 32 85 27 144
-21z"/>
<path d="M4693 4943 c-15 -13 -36 -23 -45 -23 -10 0 -18 -4 -18 -10 0 -5 -9
-10 -20 -10 -13 0 -20 -7 -20 -20 0 -26 21 -70 33 -70 14 0 81 42 87 55 3 5 7
-127 10 -295 l5 -304 42 -3 c23 -1 45 2 48 7 8 13 12 559 5 637 l-5 58 -47 0
c-33 0 -54 -6 -75 -22z"/>
<path d="M2408 4922 c-16 -2 -28 -8 -28 -14 0 -6 -9 -8 -20 -5 -11 3 -20 1
-20 -4 0 -5 -6 -9 -14 -9 -7 0 -25 -9 -38 -20 -14 -10 -28 -16 -32 -13 -9 9
-61 -52 -81 -93 -9 -19 -20 -34 -25 -34 -5 0 -12 -17 -16 -37 -4 -21 -11 -46
-16 -56 -5 -9 -11 -59 -14 -110 -8 -121 15 -190 88 -259 44 -42 54 -47 112
-53 76 -8 124 5 179 48 52 41 78 95 84 181 5 61 2 79 -20 131 -15 36 -32 61
-43 64 -10 2 -25 12 -33 23 -14 16 -29 19 -95 19 -43 0 -84 -5 -89 -10 -6 -6
-19 -11 -29 -11 -15 0 -17 5 -12 28 4 15 13 31 21 35 7 4 13 15 13 23 0 8 8
18 18 22 9 4 37 18 62 31 45 25 71 31 123 34 27 1 28 2 25 46 -3 45 -4 46 -38
46 -19 0 -47 -1 -62 -3z m4 -343 c31 -13 58 -71 58 -126 0 -52 -21 -115 -36
-109 -8 3 -11 0 -7 -10 3 -9 -1 -14 -15 -14 -11 0 -25 -6 -32 -14 -25 -31
-150 13 -150 52 0 5 -7 24 -16 41 -33 66 -10 131 65 183 23 16 90 14 133 -3z"/>
<path d="M1795 4912 c-16 -2 -35 -8 -42 -14 -7 -5 -16 -7 -22 -4 -5 4 -12 -2
-15 -11 -3 -10 -25 -26 -47 -35 -39 -17 -41 -19 -35 -50 11 -54 26 -62 68 -33
20 14 42 25 47 25 13 0 12 23 11 -312 l-1 -268 46 0 c28 0 47 5 50 13 7 22 15
598 8 642 -6 46 -16 53 -68 47z"/>
<path d="M8613 4676 c-10 -31 -10 -39 0 -60 7 -15 16 -17 45 -12 21 3 44 1 52
-4 8 -5 19 -5 25 0 6 5 42 10 80 12 l70 3 3 38 c2 20 0 37 -5 38 -4 0 -65 1
-135 3 -122 3 -128 2 -135 -18z"/>
<path d="M50 4291 c0 -6 5 -13 10 -16 6 -3 10 1 10 9 0 9 -4 16 -10 16 -5 0
-10 -4 -10 -9z"/>
<path d="M10031 3958 c-10 -16 -15 -18 -21 -8 -17 27 -28 0 -16 -39 14 -50 25
-61 37 -38 7 12 17 15 35 11 18 -5 24 -2 24 9 0 9 -4 18 -10 22 -13 8 -1 35
17 35 11 0 13 -7 9 -25 -4 -14 -2 -25 4 -25 5 0 10 -7 10 -15 0 -25 17 -17 22
10 3 14 2 25 -3 25 -4 0 -9 10 -11 23 -2 18 -8 21 -31 19 -16 -2 -34 1 -41 7
-8 7 -16 4 -25 -11z m19 -38 c0 -5 -2 -10 -4 -10 -3 0 -8 5 -11 10 -3 6 -1 10
4 10 6 0 11 -4 11 -10z"/>
<path d="M10503 3947 c2 -18 10 -43 17 -57 13 -22 15 -23 18 -6 2 10 -2 29 -8
42 -7 12 -10 30 -7 38 4 10 1 16 -9 16 -10 0 -14 -9 -11 -33z"/>
<path d="M10740 3976 c-3 -3 -33 -8 -65 -12 -33 -3 -65 -10 -72 -16 -7 -5 -17
-7 -23 -3 -6 4 -17 1 -25 -5 -13 -11 -12 -15 6 -31 11 -9 20 -20 20 -23 -3
-20 1 -24 19 -19 20 5 28 23 10 23 -5 0 -10 9 -10 20 0 31 20 24 27 -10 6 -31
17 -38 29 -19 3 6 2 14 -4 18 -15 9 -11 51 5 51 13 0 17 -12 14 -38 -2 -15 24
-26 39 -17 8 5 6 13 -5 25 -9 10 -14 23 -11 29 10 15 36 1 36 -19 0 -24 20
-37 30 -20 4 7 17 10 29 7 23 -6 24 -3 15 31 -8 28 -20 28 -28 0 -6 -25 -22
-16 -28 15 -1 11 -5 16 -8 13z"/>
<path d="M9025 3960 c-4 -7 -16 -10 -26 -7 -10 3 -22 1 -25 -4 -3 -5 -16 -9
-29 -9 -32 0 -39 -15 -20 -44 19 -29 85 -42 98 -19 7 12 12 12 33 -1 19 -13
22 -13 18 -2 -9 23 14 28 28 6 15 -23 33 -27 25 -6 -3 8 0 20 8 26 11 9 15 7
21 -14 9 -38 38 -35 29 3 -3 17 -2 32 4 36 11 6 15 -7 12 -32 -1 -7 7 -17 18
-22 14 -8 20 -7 25 4 8 22 31 18 44 -7 10 -22 11 -22 11 5 1 19 5 27 14 24 6
-2 11 -14 10 -26 -3 -22 20 -30 32 -11 3 6 16 10 27 10 11 0 27 8 34 18 12 16
13 16 19 0 6 -16 9 -16 30 -2 22 14 24 14 35 -5 6 -12 15 -21 21 -21 6 0 8 4
5 9 -7 11 3 41 14 41 4 0 11 -11 14 -25 10 -39 24 -30 23 14 -1 25 -8 43 -19
50 -14 9 -18 8 -18 -3 0 -27 -20 -28 -30 -2 -5 14 -15 26 -21 26 -6 0 -9 -6
-6 -14 3 -8 -1 -22 -9 -33 -14 -17 -15 -16 -11 9 5 30 -21 48 -38 26 -12 -16
-87 -20 -96 -6 -4 6 -10 1 -14 -11 -8 -27 -29 -22 -33 8 -5 34 -27 18 -24 -17
2 -20 -1 -32 -9 -32 -6 0 -9 8 -6 20 3 13 -1 24 -13 30 -24 13 -33 13 -25 0 3
-5 -7 -10 -22 -10 -78 -2 -93 -4 -93 -11 0 -19 -29 -7 -32 13 -3 24 -23 35
-33 18z m396 -53 c-13 -13 -26 -3 -16 12 3 6 11 8 17 5 6 -4 6 -10 -1 -17z
m-41 -1 c0 -11 -19 -15 -25 -6 -3 5 1 10 9 10 9 0 16 -2 16 -4z"/>
<path d="M9632 3963 c-36 -5 -51 -25 -33 -47 6 -7 8 -21 5 -31 -5 -13 -2 -16
12 -13 14 3 18 11 17 35 -2 19 3 33 11 36 10 4 13 -2 12 -21 0 -15 3 -28 9
-29 5 -1 12 -10 16 -20 6 -15 8 -15 8 -2 1 20 30 47 32 30 1 -6 2 -16 3 -23 0
-6 7 -12 14 -14 7 -1 8 0 3 2 -6 3 -7 14 -1 29 6 17 5 27 -5 35 -8 7 -13 17
-12 22 1 6 -4 13 -12 15 -9 4 -11 0 -7 -15 10 -30 -12 -37 -24 -8 -5 14 -11
25 -12 24 -2 0 -18 -3 -36 -5z"/>
<path d="M9827 3963 c-3 -4 -4 -24 -3 -43 2 -36 17 -43 59 -25 12 5 17 3 17
-9 0 -9 5 -16 11 -16 5 0 8 4 4 9 -3 5 -1 12 4 15 5 3 1 21 -8 41 -19 41 -46
48 -39 10 3 -14 0 -29 -7 -35 -9 -8 -12 -2 -11 22 1 29 -16 49 -27 31z"/>
<path d="M10274 3958 c1 -7 6 -19 11 -27 5 -10 4 -16 -3 -19 -7 -2 -10 -8 -6
-13 7 -12 44 -12 44 1 0 15 30 12 31 -2 0 -7 4 -4 9 7 11 27 -3 39 -28 24 -24
-15 -32 -10 -35 20 -1 11 -7 21 -13 21 -7 0 -11 -6 -10 -12z"/>
<path d="M10330 3960 c0 -5 5 -10 10 -10 6 0 10 5 10 10 0 6 -4 10 -10 10 -5
0 -10 -4 -10 -10z"/>
<path d="M10446 3935 c5 -43 -11 -46 -28 -5 -10 24 -16 27 -28 19 -11 -8 -12
-12 -2 -16 6 -2 12 -18 12 -34 0 -19 5 -29 15 -29 8 0 15 5 15 11 0 7 10 9 24
5 30 -7 46 13 22 26 -13 7 -14 13 -6 23 9 10 7 16 -9 24 -18 10 -19 8 -15 -24z"/>
<path d="M8585 3950 c-4 -6 -19 -10 -36 -10 -16 0 -29 -4 -29 -9 0 -5 -8 -7
-19 -4 -10 3 -22 0 -25 -6 -11 -17 -24 -13 -31 9 -5 15 -13 19 -38 16 -18 -3
-38 -5 -45 -5 -7 -1 -10 -6 -6 -12 4 -7 -2 -6 -17 1 -17 10 -24 10 -27 1 -2
-6 -15 -11 -28 -11 -14 0 -22 4 -19 10 3 6 2 10 -4 10 -5 0 -13 -10 -17 -22
-7 -22 -7 -22 -17 5 -8 25 -13 27 -41 22 -17 -3 -41 -11 -54 -17 -17 -9 -25
-9 -34 0 -8 8 -14 7 -24 -6 -12 -16 -13 -16 -19 1 -4 9 -13 17 -19 17 -17 0
-16 -61 1 -78 7 -8 11 -18 8 -23 -4 -5 1 -9 10 -9 12 0 15 6 10 20 -5 14 -2
20 9 20 10 0 16 -9 16 -21 0 -15 4 -19 16 -15 9 3 18 6 20 6 2 0 4 7 4 15 0
18 12 19 28 3 10 -10 15 -10 21 1 7 10 13 10 29 2 27 -15 32 -14 32 4 0 22 17
18 23 -5 8 -30 35 -26 29 5 -2 15 0 25 7 25 6 0 11 -9 11 -20 0 -15 7 -20 25
-20 27 0 32 9 14 27 -13 13 -3 36 12 27 5 -3 7 -10 4 -15 -3 -5 0 -15 7 -23
11 -11 16 -11 34 1 19 12 22 12 27 -2 8 -19 27 -20 27 0 0 8 5 15 10 15 6 0
10 -9 10 -20 0 -15 5 -19 23 -16 20 3 23 9 15 34 -2 4 2 8 7 9 6 0 9 -4 7 -10
-5 -16 21 -27 35 -16 6 6 22 8 34 4 14 -5 25 -2 30 6 7 11 13 9 28 -10 19 -25
36 -16 25 13 -10 26 12 18 24 -9 20 -43 45 -30 32 16 -7 22 -5 29 6 29 8 0 14
-10 14 -24 0 -27 25 -42 34 -20 4 11 10 12 25 4 16 -8 22 -7 30 9 8 14 7 22
-3 30 -8 7 -12 21 -9 31 3 12 0 20 -6 20 -7 0 -9 -5 -5 -12 5 -9 2 -9 -9 1
-11 9 -17 10 -17 2 0 -7 -9 -9 -25 -5 -18 4 -27 1 -31 -10 -9 -24 -32 -20 -37
7 l-4 22 -2 -22 c-1 -29 -27 -30 -42 -2 -12 23 -24 16 -32 -16 -4 -19 -5 -19
-6 1 -1 23 -26 39 -36 24z m225 -46 c0 -8 -4 -14 -10 -14 -5 0 -10 9 -10 21 0
11 5 17 10 14 6 -3 10 -13 10 -21z m-395 7 c3 -5 1 -12 -5 -16 -5 -3 -10 1
-10 9 0 18 6 21 15 7z m162 -23 c-3 -7 -5 -2 -5 12 0 14 2 19 5 13 2 -7 2 -19
0 -25z m-390 0 c-3 -8 -6 -5 -6 6 -1 11 2 17 5 13 3 -3 4 -12 1 -19z m-47 2
c0 -5 -4 -10 -10 -10 -5 0 -10 5 -10 10 0 6 5 10 10 10 6 0 10 -4 10 -10z
m-20 -34 c0 -3 -4 -8 -10 -11 -5 -3 -10 -1 -10 4 0 6 5 11 10 11 6 0 10 -2 10
-4z"/>
<path d="M8863 3938 c11 -57 20 -88 28 -88 16 0 20 41 8 75 -15 39 -42 49 -36
13z"/>
<path d="M9770 3945 c-10 -12 -10 -19 -2 -27 7 -7 12 -23 12 -36 0 -14 5 -22
13 -19 15 5 16 75 1 88 -7 6 -16 4 -24 -6z"/>
<path d="M10215 3950 c-3 -6 -17 -7 -31 -4 -27 7 -31 -7 -14 -50 13 -34 39
-35 32 -1 -6 34 16 32 29 -2 7 -20 12 -24 22 -14 9 9 9 16 -1 31 -7 12 -8 21
-2 25 6 3 10 10 10 16 0 12 -37 12 -45 -1z"/>
<path d="M7974 3939 c-3 -6 -17 -8 -30 -5 -17 5 -26 2 -30 -9 -6 -14 -9 -14
-29 -1 -21 14 -23 13 -28 -4 -6 -24 -27 -27 -27 -4 0 9 -6 14 -12 11 -23 -7
-7 -97 17 -97 8 0 11 8 8 20 -3 12 0 20 7 20 6 0 14 -8 17 -18 2 -10 13 -18
24 -19 20 -2 26 12 9 22 -11 7 -2 35 12 35 6 0 8 -9 5 -20 -3 -13 1 -24 13
-30 24 -13 34 2 26 35 -3 13 -2 27 4 30 6 3 10 -4 10 -18 0 -13 9 -32 20 -42
19 -18 20 -17 20 6 0 41 -12 99 -21 99 -4 0 -11 -5 -15 -11z"/>
<path d="M9933 3933 c-4 -9 -1 -19 5 -21 7 -2 12 -12 12 -23 0 -10 6 -19 13
-19 9 0 12 11 9 34 -4 38 -29 56 -39 29z"/>
<path d="M6080 3886 c0 -8 -8 -14 -17 -14 -10 1 -28 -2 -41 -6 -16 -5 -24 -3
-28 8 -9 25 -24 19 -24 -9 0 -14 -4 -25 -10 -25 -5 0 -10 9 -10 19 0 21 -26
36 -35 21 -4 -6 -13 -6 -26 0 -15 8 -21 7 -25 -3 -9 -25 11 -82 31 -86 16 -3
17 2 12 34 -4 26 -3 35 6 32 7 -2 12 -12 12 -23 0 -10 8 -27 18 -36 22 -23 26
-23 20 1 -3 10 0 22 6 25 6 4 13 -4 17 -19 5 -21 11 -25 38 -22 17 2 37 6 43
10 20 12 93 18 93 7 0 -5 5 -10 11 -10 5 0 8 4 5 9 -3 5 1 14 9 21 12 10 16 8
25 -15 12 -32 30 -24 31 13 0 26 1 26 9 5 10 -25 17 -27 40 -13 9 6 19 5 29
-3 11 -9 15 -9 18 1 6 17 43 15 43 -3 0 -25 17 -17 24 11 6 22 21 26 21 6 0
-12 16 -32 25 -32 5 0 10 17 13 38 l3 37 14 -32 c20 -46 30 -41 28 12 -1 50
-11 63 -33 45 -8 -7 -22 -9 -31 -6 -10 4 -25 0 -34 -9 -16 -14 -18 -14 -23 6
-8 30 -33 18 -29 -15 4 -36 -14 -33 -21 4 -6 30 -29 40 -42 20 -5 -8 -11 -8
-20 0 -9 8 -14 7 -18 -4 -6 -16 -47 -10 -47 7 0 6 -3 7 -7 3 -8 -7 -9 -11 -12
-37 -2 -18 -21 1 -21 22 0 21 -20 25 -37 8 -8 -8 -13 -8 -17 0 -10 16 -36 13
-36 -3z m220 -31 c0 -8 -4 -15 -10 -15 -5 0 -7 7 -4 15 4 8 8 15 10 15 2 0 4
-7 4 -15z m-160 -5 c0 -5 -4 -10 -10 -10 -5 0 -10 5 -10 10 0 6 5 10 10 10 6
0 10 -4 10 -10z m-60 -16 c0 -8 -5 -12 -10 -9 -6 4 -8 11 -5 16 9 14 15 11 15
-7z m-45 -23 c-9 -16 -25 -3 -18 15 4 10 9 12 15 6 6 -6 7 -15 3 -21z"/>
<path d="M5487 3884 c-4 -4 -7 -25 -7 -46 0 -46 -17 -51 -22 -5 -2 20 -8 32
-18 32 -10 0 -14 -8 -12 -25 1 -14 3 -33 3 -42 0 -15 8 -17 42 -14 l42 4 -3
44 c-4 44 -13 64 -25 52z"/>
<path d="M5530 3873 c0 -26 19 -91 28 -97 12 -7 13 45 1 81 -11 35 -29 45 -29
16z"/>
<path d="M5036 3864 c-3 -9 -2 -23 3 -32 4 -9 6 -23 4 -29 -3 -7 3 -16 12 -19
20 -8 42 10 26 20 -14 9 -14 46 -1 46 6 0 13 -13 16 -30 4 -16 13 -35 22 -42
9 -7 13 -8 10 -3 -4 6 -2 17 3 25 8 13 12 12 27 -6 10 -11 22 -19 28 -17 14 5
6 53 -12 74 -8 9 -11 19 -7 22 3 4 1 7 -5 7 -7 0 -12 -11 -12 -25 0 -16 -6
-25 -15 -25 -8 0 -15 8 -15 18 0 26 -11 34 -27 20 -11 -9 -19 -9 -33 0 -14 9
-19 8 -24 -4z"/>
<path d="M5258 3868 c-9 -27 5 -76 24 -81 18 -5 19 -2 14 36 -3 23 -5 43 -5
43 -3 9 -31 10 -33 2z"/>
<path d="M5316 3872 c-9 -16 16 -102 30 -102 8 0 13 3 13 8 -1 4 -1 15 0 25 1
24 21 11 21 -13 0 -13 5 -17 15 -14 18 7 20 65 3 82 -18 18 -28 15 -28 -8 0
-28 -18 -25 -26 5 -6 25 -18 32 -28 17z"/>
<path d="M5596 3830 c7 -64 8 -65 30 -56 13 5 14 9 4 21 -7 8 -9 22 -6 31 5
13 9 14 21 4 8 -6 13 -17 12 -23 -1 -7 4 -12 12 -12 9 0 14 12 15 33 1 33 0
34 -33 28 -25 -4 -38 -1 -48 12 -12 15 -13 10 -7 -38z"/>
<path d="M5695 3863 c4 -10 7 -25 7 -35 0 -9 8 -24 18 -33 19 -17 19 -16 18
34 -2 47 -4 51 -26 51 -19 0 -23 -4 -17 -17z"/>
<path d="M5759 3874 c-3 -21 4 -60 11 -69 5 -5 8 -14 8 -20 0 -5 5 -11 11 -13
6 -2 11 10 11 28 0 18 4 29 10 25 6 -3 10 -17 10 -31 0 -27 12 -31 29 -10 8
10 8 23 -1 51 -15 45 -33 55 -42 23 l-6 -23 -20 24 c-11 13 -20 19 -21 15z"/>
<path d="M4484 3855 c-3 -8 -3 -18 -1 -22 3 -5 2 -15 -2 -22 -6 -9 -12 -4 -19
18 -11 32 -27 41 -34 19 -3 -7 1 -24 8 -37 7 -14 11 -28 8 -33 -7 -11 18 -10
36 2 11 7 20 4 33 -13 17 -20 18 -20 13 -2 -3 11 -2 26 2 33 6 9 12 5 22 -13
8 -14 18 -24 24 -22 14 5 8 56 -10 82 -14 20 -15 20 -21 -3 -7 -28 -27 -24
-31 6 -4 25 -20 29 -28 7z"/>
<path d="M4652 3855 c-12 -22 -4 -56 16 -72 12 -10 17 -9 27 4 13 18 35 10 35
-13 0 -8 5 -14 10 -14 6 0 10 11 10 25 0 33 18 32 26 0 8 -33 30 -26 26 9 -3
31 9 34 23 5 15 -33 30 -22 27 19 -4 45 -8 49 -32 34 -15 -9 -22 -9 -34 3 -20
20 -26 19 -26 -5 0 -11 -5 -20 -11 -20 -6 0 -13 9 -16 20 -10 39 -28 21 -23
-24 1 -11 -3 -17 -12 -14 -7 3 -13 12 -13 21 0 28 -21 42 -33 22z"/>
<path d="M4875 3833 c3 -21 13 -45 21 -53 13 -13 14 -8 13 38 -2 44 -5 52 -22
52 -17 0 -18 -5 -12 -37z"/>
<path d="M4930 3870 c-9 -48 -7 -66 10 -82 26 -24 30 -23 30 10 1 26 1 26 15
8 8 -10 12 -23 9 -27 -3 -5 4 -9 16 -9 19 0 20 4 14 38 -4 20 -9 40 -11 45 -8
13 -31 7 -38 -10 -6 -16 -8 -15 -25 7 -11 14 -20 23 -20 20z"/>
<path d="M3879 3848 c-3 -33 19 -98 33 -98 9 0 9 45 -1 79 -7 27 -30 41 -32
19z"/>
<path d="M4047 3853 c-3 -5 -4 -24 -2 -43 2 -28 7 -36 25 -38 14 -2 20 0 16 7
-4 6 0 11 9 11 9 0 19 -9 22 -20 8 -32 23 -23 23 13 0 35 -26 81 -41 72 -5 -4
-6 -17 -3 -31 3 -13 2 -24 -4 -24 -5 0 -12 14 -15 30 -6 28 -20 39 -30 23z"/>
<path d="M4260 3844 c0 -9 8 -32 17 -51 16 -34 17 -35 25 -14 4 13 4 30 -1 39
-4 9 -6 23 -4 30 3 7 -4 12 -16 12 -13 0 -21 -6 -21 -16z"/>
<path d="M4320 3833 c0 -42 16 -83 33 -83 9 0 12 9 9 30 -3 18 0 30 7 30 6 0
11 -7 11 -15 0 -8 10 -19 21 -26 21 -11 22 -10 15 21 -3 18 -6 39 -6 46 0 20
-38 17 -42 -3 -3 -15 -6 -14 -26 7 l-22 24 0 -31z"/>
<path d="M4594 3849 c-3 -6 -2 -21 4 -32 6 -12 13 -30 16 -39 3 -10 11 -18 17
-18 11 0 6 71 -7 92 -7 11 -22 10 -30 -3z"/>
<path d="M5205 3828 c3 -17 11 -39 20 -47 13 -14 15 -10 15 32 0 40 -3 47 -19
47 -16 0 -19 -6 -16 -32z"/>
<path d="M3605 3840 c-4 -6 -15 -8 -25 -5 -23 7 -45 -26 -29 -42 6 -6 12 -19
13 -29 2 -11 10 -20 18 -22 13 -2 15 4 11 35 -5 33 -4 36 11 24 9 -7 14 -16
12 -20 -2 -3 2 -12 10 -18 18 -18 23 -5 15 41 -6 40 -23 57 -36 36z"/>
<path d="M3657 3844 c-9 -9 3 -54 21 -82 l15 -24 12 29 12 28 13 -27 c16 -34
29 -36 28 -5 -1 52 -38 107 -38 56 0 -27 -24 -19 -28 9 -3 21 -22 29 -35 16z"/>
<path d="M3776 3842 c-9 -15 -3 -86 9 -94 16 -12 35 13 29 38 -4 15 -2 24 5
24 6 0 11 -6 11 -14 0 -7 7 -19 15 -26 20 -17 28 4 17 45 -9 32 -42 48 -42 21
0 -21 -10 -20 -25 1 -8 10 -14 12 -19 5z"/>
<path d="M3935 3841 c-9 -15 18 -91 33 -91 7 0 12 8 11 18 -3 29 1 42 10 42 5
0 11 -10 13 -22 2 -13 10 -23 18 -23 19 0 15 54 -6 75 -14 13 -17 13 -29 -4
-13 -17 -15 -17 -21 -3 -7 19 -20 22 -29 8z"/>
<path d="M4157 3831 c-7 -28 14 -71 34 -71 15 0 15 4 5 35 -17 48 -32 62 -39
36z"/>
<path d="M4204 3818 c9 -46 23 -60 46 -45 18 10 18 13 4 29 -9 9 -13 21 -10
26 3 6 -1 13 -10 16 -30 12 -37 7 -30 -26z"/>
<path d="M2615 3829 c-5 -14 -73 -17 -94 -5 -5 4 -11 -4 -13 -16 -4 -30 -21
-33 -33 -6 -11 24 -68 37 -80 18 -4 -7 -13 -6 -26 1 -28 15 -32 7 -24 -41 7
-41 31 -63 44 -41 10 15 62 11 84 -7 9 -8 17 -11 18 -6 1 5 2 17 3 26 0 10 4
18 9 18 4 0 6 -1 5 -2 -1 -2 4 -13 11 -26 16 -30 34 -18 29 19 -5 35 14 34 22
-1 7 -30 23 -35 43 -15 14 13 17 13 30 0 13 -13 16 -13 21 2 6 14 8 14 26 -2
19 -17 26 -12 21 18 0 4 6 7 14 7 8 0 15 -7 15 -15 0 -8 4 -15 9 -15 19 0 21
20 5 57 l-16 38 -10 -25 -10 -25 -11 23 c-12 26 -43 25 -41 -1 1 -9 -2 -17 -7
-17 -5 0 -9 6 -9 14 0 7 -7 19 -15 26 -12 10 -16 10 -20 -1z m-165 -45 c0 -8
-4 -12 -10 -9 -5 3 -10 10 -10 16 0 5 5 9 10 9 6 0 10 -7 10 -16z m170 -5 c0
-6 -4 -7 -10 -4 -5 3 -10 11 -10 16 0 6 5 7 10 4 6 -3 10 -11 10 -16z m-220
-4 c0 -8 -4 -15 -10 -15 -5 0 -10 7 -10 15 0 8 5 15 10 15 6 0 10 -7 10 -15z"/>
<path d="M2780 3812 c0 -31 27 -75 40 -67 5 3 5 18 0 34 -4 16 -7 31 -5 33 2
2 -5 9 -15 16 -18 11 -20 9 -20 -16z"/>
<path d="M2890 3815 c0 -36 27 -98 40 -90 5 3 7 18 4 33 -16 73 -44 109 -44
57z"/>
<path d="M2996 3824 c-3 -9 -3 -21 1 -27 4 -7 8 -18 9 -25 3 -20 11 -25 29
-18 11 4 14 13 9 33 -12 49 -36 68 -48 37z"/>
<path d="M3056 3803 c4 -21 11 -39 15 -41 5 -2 9 -10 9 -18 0 -8 5 -14 10 -14
6 0 10 9 10 20 0 26 17 26 25 -1 9 -28 30 -17 28 15 -2 33 13 34 21 0 5 -17
12 -24 24 -22 9 2 15 11 13 19 -2 8 -6 22 -8 32 -3 9 0 17 6 17 6 0 11 -8 11
-18 0 -11 8 -27 19 -36 23 -21 30 -7 23 47 -3 28 -9 37 -23 37 -10 0 -20 -4
-23 -9 -3 -4 -17 -6 -31 -3 -18 3 -25 0 -25 -12 0 -23 -17 -20 -23 5 -8 28
-27 15 -27 -19 l0 -27 -20 33 c-27 44 -43 42 -34 -5z"/>
<path d="M1015 3821 c-3 -5 -14 -7 -26 -4 -12 3 -25 0 -29 -7 -6 -9 -13 -9
-28 -1 -28 15 -33 2 -18 -44 15 -42 33 -56 46 -34 7 10 11 10 25 -1 13 -11 18
-10 28 4 12 16 14 16 31 -3 22 -25 39 -18 30 12 -6 19 -5 20 10 8 9 -7 16 -20
16 -27 0 -8 6 -11 15 -8 10 4 13 14 9 30 -4 15 -2 24 5 24 6 0 11 -9 11 -20 0
-21 35 -29 42 -10 2 6 13 2 26 -10 22 -21 22 -21 22 0 0 26 26 26 33 0 5 -21
27 -28 27 -10 0 7 7 7 20 0 29 -15 42 -3 35 31 -4 18 -3 29 4 29 6 0 11 -11
11 -25 0 -19 5 -25 21 -25 11 0 17 5 14 10 -4 6 5 5 19 -2 14 -6 26 -15 26
-20 0 -20 20 5 21 25 1 20 2 19 12 -5 15 -39 37 -36 38 5 1 20 3 25 6 13 8
-32 29 -48 41 -33 6 7 7 18 2 26 -4 8 -6 21 -3 29 4 9 10 4 19 -17 17 -39 34
-40 34 -1 0 17 5 30 10 30 6 0 10 -6 8 -13 -3 -13 35 -67 47 -67 4 0 5 9 2 20
-3 11 -1 20 3 20 5 0 12 -9 15 -20 6 -20 35 -28 35 -10 0 6 11 10 25 10 21 0
25 5 26 33 0 32 0 32 12 7 12 -26 32 -50 41 -50 3 0 6 10 6 23 l1 22 18 -22
c26 -31 39 -29 33 3 -4 20 -1 25 9 22 8 -3 15 -15 17 -27 5 -31 27 -19 25 13
-1 17 2 26 10 23 7 -2 12 -12 12 -23 0 -10 7 -20 15 -22 11 -2 15 8 16 38 0
31 -4 41 -19 46 -11 3 -23 1 -27 -6 -4 -7 -13 -9 -20 -5 -8 5 -18 1 -26 -9
-12 -17 -13 -17 -26 3 -18 30 -40 27 -32 -4 4 -15 2 -25 -5 -25 -6 0 -11 11
-11 24 0 24 -28 44 -39 28 -9 -13 -80 -22 -86 -11 -9 14 -25 11 -25 -6 0 -22
-17 -18 -23 5 -5 21 -31 27 -42 10 -4 -7 -12 -7 -25 0 -13 7 -19 6 -24 -6 -4
-10 -12 -14 -22 -10 -9 4 -22 2 -29 -4 -9 -7 -16 -6 -25 5 -17 21 -30 19 -30
-5 0 -27 -18 -25 -22 3 -2 16 -9 21 -23 19 -11 -2 -30 -3 -42 -3 -13 1 -23 -4
-23 -10 0 -7 -11 -8 -30 -4 -25 5 -30 3 -31 -12 0 -16 -2 -15 -16 5 -19 27
-37 29 -30 2 3 -11 1 -22 -4 -25 -4 -3 -11 6 -15 20 -5 22 -15 28 -41 24 -5
-1 -7 -6 -5 -12 2 -6 -4 -5 -12 3 -13 10 -19 10 -31 0 -12 -10 -19 -10 -27 -2
-16 16 -28 15 -28 -3 0 -8 -7 -15 -15 -15 -8 0 -15 6 -15 14 0 16 -27 29 -35
17z m5 -47 c0 -8 -4 -12 -10 -9 -5 3 -10 10 -10 16 0 5 5 9 10 9 6 0 10 -7 10
-16z m170 -5 c0 -5 -4 -9 -10 -9 -5 0 -10 7 -10 16 0 8 5 12 10 9 6 -3 10 -10
10 -16z m220 0 c0 -5 -4 -9 -10 -9 -5 0 -10 7 -10 16 0 8 5 12 10 9 6 -3 10
-10 10 -16z m-440 1 c0 -5 -5 -10 -11 -10 -5 0 -7 5 -4 10 3 6 8 10 11 10 2 0
4 -4 4 -10z m775 -9 c3 -5 1 -12 -5 -16 -5 -3 -10 1 -10 9 0 18 6 21 15 7z"/>
<path d="M2008 3825 c-5 -5 6 -41 30 -95 12 -27 12 -27 17 10 1 14 -2 31 -7
38 -6 6 -7 12 -4 12 4 0 2 9 -4 20 -11 20 -22 25 -32 15z"/>
<path d="M2058 3824 c-5 -5 25 -101 35 -110 8 -9 69 10 74 22 4 10 10 11 25 3
26 -14 43 8 25 30 -7 8 -11 16 -9 18 8 12 -1 31 -18 36 -11 3 -20 1 -20 -5 0
-6 -11 -8 -25 -6 -13 3 -26 0 -28 -6 -3 -7 -11 -5 -24 7 -21 18 -27 20 -35 11z
m122 -50 c0 -8 -4 -14 -10 -14 -5 0 -10 9 -10 21 0 11 5 17 10 14 6 -3 10 -13
10 -21z m-50 -27 c0 -10 -4 -15 -10 -12 -5 3 -10 18 -10 33 0 21 2 24 10 12 5
-8 10 -23 10 -33z"/>
<path d="M2226 3822 c-3 -5 -1 -14 5 -22 5 -8 9 -23 9 -33 0 -18 22 -47 35
-47 3 0 4 9 0 19 -9 30 14 36 25 7 5 -14 17 -26 26 -26 13 0 15 6 11 30 -4 16
-14 42 -23 56 l-17 26 -13 -29 c-12 -27 -13 -27 -19 -6 -7 23 -31 38 -39 25z"/>
<path d="M2835 3798 c4 -18 11 -35 14 -38 4 -3 10 -13 14 -22 11 -31 27 -20
20 15 -10 54 -22 77 -39 77 -12 0 -14 -6 -9 -32z"/>
<path d="M800 3790 c0 -16 -4 -30 -10 -30 -5 0 -10 -5 -10 -11 0 -5 5 -7 11
-4 6 4 21 -3 35 -16 13 -12 27 -19 31 -16 3 4 13 2 20 -5 20 -16 34 8 26 42
-17 69 -33 86 -51 54 -8 -15 -10 -15 -15 0 -11 29 -37 19 -37 -14z"/>
<path d="M2945 3810 c-9 -15 17 -80 32 -80 15 0 17 29 3 64 -10 27 -24 33 -35
16z"/>
<path d="M8175 3386 c-63 -17 -115 -54 -115 -81 0 -12 7 -28 16 -36 13 -11 23
-9 58 10 58 30 145 39 177 18 30 -20 54 -94 46 -143 -14 -82 -54 -139 -224
-311 -83 -84 -103 -109 -103 -133 0 -19 6 -31 18 -34 33 -11 404 3 418 15 8 6
14 27 14 46 l0 36 -127 -5 c-71 -3 -134 -3 -141 -1 -7 3 18 39 64 91 154 176
177 215 190 328 10 84 -49 182 -121 199 -53 12 -129 13 -170 1z"/>
<path d="M5255 3312 c-17 -10 -32 -19 -35 -23 -3 -3 -21 -13 -41 -22 -42 -19
-50 -33 -38 -65 11 -29 35 -38 57 -21 20 16 59 39 67 39 3 0 5 -127 5 -282 0
-156 -1 -291 0 -300 0 -14 8 -17 45 -16 43 2 45 4 45 33 0 16 3 173 6 348 5
300 4 317 -13 318 -10 0 -29 2 -43 4 -14 2 -39 -4 -55 -13z"/>
<path d="M2400 3289 c0 -3 -13 -6 -28 -6 -83 0 -196 -98 -251 -218 -35 -76
-45 -226 -21 -316 13 -48 94 -130 145 -148 91 -32 209 4 264 79 71 98 61 256
-20 324 -35 30 -85 53 -121 57 -32 3 -107 -12 -114 -22 -9 -16 -34 -9 -34 9 1
26 51 93 85 112 32 18 113 46 156 55 20 3 28 13 33 36 3 17 3 35 0 40 -6 10
-94 8 -94 -2z m-13 -330 c39 -14 63 -67 62 -134 0 -67 -4 -79 -37 -120 -19
-24 -29 -28 -81 -29 -46 -1 -64 3 -81 19 -44 40 -66 106 -61 187 1 23 66 82
99 89 28 6 60 2 99 -12z"/>
<path d="M1730 3270 c0 -5 -9 -10 -20 -10 -12 0 -30 -9 -42 -20 -12 -11 -28
-20 -35 -20 -20 0 -20 -54 -1 -78 11 -12 48 -7 58 8 3 4 15 10 26 14 18 6 22
2 26 -26 3 -18 4 -142 1 -276 -5 -267 -4 -272 53 -272 30 0 34 3 39 33 3 17 6
172 8 342 l2 310 -57 3 c-36 2 -58 -1 -58 -8z"/>
<path d="M10175 2303 c-16 -2 -39 -8 -50 -12 -11 -5 -28 -12 -37 -15 -10 -3
-18 -10 -18 -15 0 -14 32 -23 44 -11 20 20 39 11 34 -15 -4 -16 -1 -25 8 -25
19 0 27 19 15 34 -12 14 -5 46 9 46 5 0 12 -4 15 -10 9 -15 25 -12 25 4 0 19
-8 22 -45 19z"/>
<path d="M10380 2298 c-19 -5 -43 -9 -52 -9 -9 0 -22 -7 -29 -16 -12 -13 -8
-15 26 -12 32 3 40 1 40 -13 0 -10 6 -23 12 -29 10 -10 17 -9 32 5 10 9 24 16
31 14 7 -2 15 3 17 10 3 6 0 12 -6 12 -6 0 -11 11 -11 25 0 27 -6 28 -60 13z
m40 -33 c0 -27 -9 -32 -27 -14 -14 14 -6 39 13 39 8 0 14 -10 14 -25z"/>
<path d="M10750 2300 c-8 -5 -23 -11 -32 -14 -21 -6 -24 -36 -4 -36 8 0 16 5
18 11 5 15 39 -1 36 -16 -2 -8 2 -14 7 -14 11 -1 16 35 9 62 -6 19 -12 20 -34
7z"/>
<path d="M9346 2292 c-10 -17 6 -73 22 -80 9 -3 17 -1 20 6 5 17 32 2 32 -18
0 -13 5 -17 20 -13 16 4 18 9 9 19 -6 7 -8 18 -4 24 11 18 25 11 25 -15 0 -25
23 -35 35 -15 3 6 17 7 30 4 16 -4 26 0 33 12 9 15 11 14 27 -10 10 -15 20
-24 23 -22 3 3 0 11 -6 19 -15 18 2 42 23 33 11 -4 15 -12 11 -22 -9 -22 3
-37 18 -24 8 6 11 22 8 36 -4 20 -1 25 9 22 8 -2 15 -17 17 -31 2 -15 9 -27
17 -27 20 0 24 23 8 42 -17 19 -10 38 14 38 10 0 14 -6 10 -20 -3 -12 2 -27
11 -37 16 -15 17 -15 20 0 5 24 33 21 39 -3 4 -16 12 -20 42 -17 33 3 36 5 33
30 -2 19 2 27 13 27 8 0 15 -8 15 -18 0 -26 11 -34 26 -21 10 8 11 15 1 30
-10 16 -9 21 3 29 8 5 21 8 28 5 6 -2 12 0 12 4 0 15 -22 18 -75 8 -61 -11
-70 -19 -53 -46 11 -18 11 -23 -2 -31 -21 -13 -36 5 -20 25 11 14 10 17 -7 21
-14 4 -19 12 -16 25 4 13 0 19 -10 19 -11 0 -15 -8 -14 -24 1 -14 -2 -25 -8
-25 -5 0 -9 9 -8 20 3 18 -15 26 -42 19 -5 -2 -20 -3 -32 -4 -12 -1 -25 -4
-29 -8 -13 -14 -32 -9 -37 10 -4 13 -5 12 -6 -5 -2 -33 -20 -38 -31 -9 -9 26
-30 36 -30 16 0 -7 -6 -8 -17 -2 -17 10 -59 1 -97 -20 -15 -8 -22 -7 -32 6
-10 15 -12 14 -18 -8 -8 -31 -37 -25 -33 6 2 22 -17 36 -27 20z m229 -33 c10
-15 -1 -23 -20 -15 -9 3 -13 10 -10 16 8 13 22 13 30 -1z m-52 -5 c9 -9 -4
-35 -14 -28 -5 3 -9 12 -9 20 0 14 12 19 23 8z"/>
<path d="M10530 2290 c-8 -5 -25 -10 -37 -10 -23 0 -32 -23 -13 -35 6 -3 10
-15 10 -26 0 -10 6 -19 14 -19 23 0 28 18 9 29 -14 7 -15 12 -6 22 14 14 45 5
42 -13 -3 -25 1 -39 10 -34 12 8 9 88 -4 93 -5 1 -17 -2 -25 -7z"/>
<path d="M10580 2291 c0 -6 5 -13 11 -16 5 -4 8 -12 6 -18 -2 -7 0 -20 5 -30
9 -17 10 -16 27 5 16 19 21 20 35 9 18 -15 21 -5 10 37 -8 29 -31 29 -30 0 1
-14 -6 -24 -18 -26 -15 -3 -18 1 -14 22 4 20 1 26 -13 26 -11 0 -19 -4 -19 -9z"/>
<path d="M8789 2285 c-1 -6 -1 -18 0 -27 1 -10 -4 -18 -13 -18 -9 0 -16 9 -16
20 0 17 -7 20 -45 20 -25 0 -45 -4 -45 -9 0 -5 -12 -8 -26 -8 -15 0 -30 -6
-34 -13 -5 -9 -11 -6 -22 9 -16 23 -28 18 -28 -11 0 -11 -7 -18 -19 -18 -11 0
-23 -5 -26 -11 -8 -12 22 -49 39 -49 6 0 4 5 -4 10 -12 8 -13 11 -1 22 11 11
16 9 28 -9 9 -13 20 -23 25 -23 5 0 7 10 6 23 -2 12 2 22 7 22 6 0 9 -8 8 -17
-2 -12 4 -18 18 -18 17 0 20 5 17 25 -3 15 1 30 10 37 13 11 14 9 8 -14 -3
-16 -2 -28 3 -28 5 0 17 -3 26 -7 15 -5 16 -1 10 37 -6 34 -4 41 6 38 8 -3 13
-15 12 -27 -2 -12 5 -34 15 -48 l17 -27 5 29 c7 41 30 45 30 5 0 -27 3 -31 18
-25 34 14 87 24 103 19 18 -5 34 22 19 31 -6 4 -10 18 -10 31 0 25 -2 25 -42
19 -24 -4 -48 -11 -55 -17 -7 -6 -16 -2 -27 14 -9 12 -17 18 -17 13z m111 -50
c0 -8 -4 -15 -10 -15 -5 0 -10 7 -10 15 0 8 5 15 10 15 6 0 10 -7 10 -15z
m-45 -16 c0 -7 -8 -15 -17 -17 -18 -3 -25 18 -11 32 10 10 28 1 28 -15z"/>
<path d="M8955 2281 c-9 -15 18 -101 31 -101 18 0 27 17 12 23 -10 3 -10 7 0
20 12 13 11 18 -6 28 -11 7 -18 19 -15 26 6 15 -13 18 -22 4z"/>
<path d="M9014 2266 c1 -14 6 -29 9 -33 4 -3 7 -17 7 -29 0 -21 4 -23 33 -18
57 10 59 11 46 32 -13 21 -5 57 11 47 5 -3 10 -17 10 -31 0 -13 5 -24 10 -24
6 0 10 -8 11 -17 1 -12 3 -10 8 6 9 34 29 37 41 7 13 -35 20 -33 20 7 0 17
-10 43 -21 57 -12 14 -19 18 -16 9 3 -9 2 -22 -3 -29 -11 -18 -32 -2 -25 20 6
18 -3 19 -89 11 -4 -1 -5 -8 -2 -17 6 -16 -6 -12 -36 14 -15 13 -17 12 -14
-12z m64 -37 c-2 -6 -8 -10 -13 -10 -5 0 -11 4 -13 10 -2 6 4 11 13 11 9 0 15
-5 13 -11z"/>
<path d="M9286 2281 c-3 -5 -14 -7 -25 -4 -22 6 -30 -12 -23 -55 4 -27 8 -33
26 -30 18 3 20 9 18 38 -3 33 -3 34 11 15 8 -10 13 -24 10 -31 -2 -6 2 -14 10
-17 17 -6 31 29 15 39 -5 3 -7 17 -4 30 5 19 2 24 -13 24 -11 0 -22 -4 -25 -9z"/>
<path d="M10247 2270 c-3 -11 -1 -20 4 -20 5 0 9 -11 9 -24 0 -30 17 -43 33
-26 9 10 9 14 0 17 -7 3 -13 15 -13 28 0 12 -6 28 -14 34 -11 9 -15 7 -19 -9z"/>
<path d="M8117 2273 c-4 -3 -4 -17 -1 -29 5 -18 2 -24 -11 -24 -13 0 -16 6
-12 21 7 25 -17 37 -38 19 -9 -7 -18 -10 -22 -7 -3 4 -14 2 -25 -4 -15 -8 -24
-7 -38 6 -17 16 -19 15 -22 -7 -4 -30 -22 -30 -26 0 -3 20 -7 22 -40 16 -20
-3 -41 -10 -46 -14 -5 -5 -14 -6 -21 -3 -8 2 -23 -1 -34 -7 -17 -9 -22 -8 -27
4 -3 8 -12 17 -20 20 -11 4 -14 1 -9 -13 9 -30 -14 -36 -25 -7 -10 26 -30 36
-30 15 0 -7 -10 -9 -25 -5 -14 4 -25 2 -25 -4 0 -5 -13 -10 -29 -10 -16 0 -32
-6 -35 -12 -4 -9 -10 -6 -22 10 -21 28 -37 29 -29 1 5 -14 2 -25 -6 -30 -22
-14 -26 -11 -21 21 3 22 0 30 -11 30 -9 0 -19 -5 -22 -10 -4 -6 -11 -7 -17 -4
-5 4 -21 0 -35 -7 -22 -12 -27 -11 -39 6 -13 18 -14 17 -14 -8 0 -32 -15 -35
-30 -7 -14 26 -30 26 -27 -1 1 -12 -4 -24 -10 -26 -8 -3 -13 4 -13 16 0 24
-18 37 -32 23 -8 -8 -7 -16 2 -26 7 -9 10 -22 7 -30 -7 -18 22 -31 37 -16 15
15 23 12 29 -11 7 -27 33 -19 29 9 -2 12 2 22 7 22 6 0 11 -9 11 -19 0 -34 48
-35 97 -3 12 7 27 11 33 7 5 -3 10 1 10 9 0 25 18 19 32 -10 16 -34 33 -28 29
9 -2 26 -1 27 18 16 15 -10 17 -16 9 -26 -16 -19 -1 -29 22 -15 11 7 29 12 40
12 18 0 20 4 14 35 -5 30 -4 34 10 29 9 -3 16 -11 15 -18 -1 -6 3 -24 10 -41
l13 -30 15 23 c18 25 33 29 33 7 0 -8 7 -15 15 -15 12 0 13 4 6 19 -10 18 -6
31 10 31 4 0 10 -11 13 -24 5 -22 10 -24 44 -19 20 3 39 10 40 15 6 14 32 9
38 -7 4 -8 10 -15 15 -15 4 0 6 6 3 14 -7 19 16 32 26 15 5 -7 6 -17 4 -21 -3
-4 4 -8 15 -8 12 0 21 5 21 10 0 6 7 10 15 10 8 0 15 -5 15 -12 0 -6 8 -4 19
6 11 10 24 15 29 12 14 -9 43 4 36 16 -3 5 3 4 14 -3 11 -7 18 -19 15 -26 -3
-7 0 -13 6 -13 6 0 11 14 11 31 0 27 2 30 15 19 8 -7 14 -20 13 -29 -2 -9 4
-16 12 -16 9 0 15 9 15 24 0 14 6 26 13 29 7 2 12 -5 12 -17 0 -14 6 -19 20
-18 23 1 25 8 9 24 -14 14 -4 47 11 38 5 -3 10 -17 10 -30 0 -26 26 -41 34
-19 9 25 36 16 36 -12 0 -16 5 -24 13 -21 7 2 11 15 9 30 -3 20 1 27 13 27 9
0 15 -6 14 -12 -3 -27 2 -38 16 -38 8 0 15 5 15 11 0 6 9 9 20 6 21 -5 48 17
31 27 -11 7 -3 46 10 46 5 0 9 -5 9 -12 0 -8 6 -6 17 5 25 25 11 30 -52 18
-32 -6 -61 -9 -65 -6 -4 3 -10 -2 -14 -10 -8 -22 -33 -18 -39 5 -7 27 -23 25
-22 -2 0 -13 -4 -23 -10 -23 -5 0 -9 8 -8 18 2 15 -4 17 -43 14 -25 -1 -49 -9
-54 -17 -7 -11 -12 -11 -23 -2 -12 10 -16 9 -20 -3 -7 -17 -37 -9 -37 10 0 16
-15 27 -23 18z m-217 -55 c0 -5 -7 -8 -15 -8 -15 0 -20 21 -8 33 7 7 23 -11
23 -25z m170 2 c0 -13 -19 -22 -30 -15 -14 9 0 34 16 28 8 -3 14 -9 14 -13z
m383 -1 c3 -13 1 -19 -6 -16 -15 5 -22 37 -9 37 5 0 12 -9 15 -21z m-995 -11
c-6 -18 -28 -21 -28 -4 0 9 7 16 16 16 9 0 14 -5 12 -12z m162 -8 c0 -11 -4
-20 -10 -20 -5 0 -10 9 -10 20 0 11 5 20 10 20 6 0 10 -9 10 -20z m228 9 c-2
-6 -8 -10 -13 -10 -5 0 -11 4 -13 10 -2 6 4 11 13 11 9 0 15 -5 13 -11z m172
-10 c0 -5 -7 -9 -15 -9 -15 0 -20 12 -9 23 8 8 24 -1 24 -14z m-620 -10 c0
-11 -4 -17 -10 -14 -5 3 -10 13 -10 21 0 8 5 14 10 14 6 0 10 -9 10 -21z"/>
<path d="M10030 2258 c0 -8 3 -18 7 -22 4 -4 8 -15 8 -23 0 -9 6 -18 14 -21
11 -4 12 0 6 14 -4 11 -8 28 -10 38 -2 23 -25 35 -25 14z"/>
<path d="M9980 2243 c0 -10 5 -25 10 -33 8 -12 10 -11 10 8 0 12 0 25 1 29 0
4 -4 9 -10 11 -6 2 -11 -5 -11 -15z"/>
<path d="M10195 2251 c-3 -6 -2 -11 4 -11 5 0 14 -12 19 -27 10 -28 10 -28 9
6 -2 34 -19 51 -32 32z"/>
<path d="M10325 2241 c3 -5 1 -12 -5 -16 -13 -8 -3 -25 16 -25 19 0 18 36 -2
44 -8 3 -12 2 -9 -3z"/>
<path d="M6231 2231 c-7 -5 -22 -6 -34 -3 -18 5 -19 2 -13 -31 6 -32 4 -37
-12 -37 -15 0 -18 5 -15 24 6 29 -16 45 -31 24 -13 -17 -36 -12 -36 8 0 8 -4
14 -10 14 -5 0 -10 -12 -10 -26 0 -16 -5 -24 -12 -21 -7 2 -13 12 -13 23 0 15
-7 19 -38 19 -22 0 -41 -3 -44 -7 -2 -5 -15 -8 -29 -8 -14 0 -27 -7 -30 -15
-9 -22 -19 -18 -32 10 -6 14 -17 25 -23 25 -7 0 -9 -9 -5 -25 5 -18 2 -25 -9
-25 -9 0 -15 9 -15 25 0 28 -27 35 -36 10 -5 -13 -9 -13 -21 -3 -12 10 -18 9
-29 -6 -15 -21 -44 -15 -44 9 0 8 -4 15 -9 15 -8 0 -4 -28 14 -87 10 -33 25
-28 25 7 0 21 5 30 16 30 12 0 15 -6 10 -24 -4 -18 -2 -25 11 -28 10 -2 23 3
29 11 10 13 14 13 28 2 16 -13 21 -6 17 21 -2 16 29 -5 34 -23 4 -10 10 -19
15 -19 14 0 21 18 10 25 -13 8 -3 25 15 25 8 0 11 -7 8 -20 -5 -18 -1 -20 33
-16 22 2 47 7 57 11 9 4 23 2 31 -4 11 -9 15 -7 19 11 5 18 9 20 19 10 7 -7
13 -18 13 -25 0 -7 7 -12 15 -12 10 0 14 8 12 28 -3 19 1 27 12 27 10 0 16 -9
16 -24 0 -29 18 -44 26 -22 4 11 14 14 29 10 28 -7 40 9 20 26 -11 9 -12 16
-3 30 14 22 28 17 28 -11 0 -11 5 -30 11 -42 l12 -21 9 23 c6 17 4 29 -5 40
-8 9 -12 21 -10 28 6 15 -10 24 -26 14z m-211 -51 c0 -11 -7 -20 -15 -20 -8 0
-15 9 -15 20 0 11 7 20 15 20 8 0 15 -9 15 -20z m-220 -3 c0 -8 -3 -17 -7 -20
-9 -9 -34 13 -27 24 8 14 34 11 34 -4z m160 -7 c0 -11 -4 -20 -10 -20 -5 0
-10 9 -10 20 0 11 5 20 10 20 6 0 10 -9 10 -20z"/>
<path d="M6290 2212 c0 -39 19 -82 36 -82 18 0 7 57 -18 89 l-18 24 0 -31z"/>
<path d="M10097 2225 c-14 -10 -15 -14 -3 -24 10 -8 16 -8 24 2 17 20 1 38
-21 22z"/>
<path d="M10695 2219 c-27 -17 -28 -19 -8 -19 12 0 24 4 28 10 3 5 12 7 20 3
8 -3 15 -1 15 5 0 19 -25 19 -55 1z"/>
<path d="M5075 2219 c4 -10 2 -20 -4 -23 -10 -7 1 -45 22 -73 14 -20 38 -4 27
17 -6 10 -10 26 -10 35 0 9 -9 26 -21 38 -13 15 -18 17 -14 6z"/>
<path d="M5185 2220 c-7 -12 5 -60 20 -83 18 -27 31 -1 15 29 -10 18 -10 27
-1 37 9 12 7 16 -9 20 -11 3 -22 1 -25 -3z"/>
<path d="M5406 2222 c-8 -13 17 -95 30 -99 11 -4 12 43 1 54 -4 3 -7 14 -7 24
0 20 -16 34 -24 21z"/>
<path d="M5460 2198 c0 -20 5 -40 10 -43 6 -3 10 -15 10 -26 0 -11 5 -17 10
-14 6 3 10 19 10 35 0 22 4 28 15 24 8 -4 15 -17 15 -30 0 -15 6 -24 15 -24 8
0 15 9 15 20 0 11 -4 20 -10 20 -5 0 -7 7 -4 15 10 24 34 18 34 -9 0 -29 17
-43 33 -27 9 9 9 16 0 30 -7 11 -8 23 -2 32 13 21 28 0 31 -44 2 -20 8 -37 14
-37 11 0 2 79 -11 100 -7 11 -64 2 -82 -13 -9 -6 -18 -6 -27 2 -11 10 -17 8
-25 -6 -10 -17 -12 -16 -31 7 l-20 25 0 -37z"/>
<path d="M3803 2193 c2 -18 0 -33 -4 -33 -9 0 -24 21 -24 35 0 6 -7 10 -15 10
-21 0 -14 -61 11 -86 19 -19 19 -19 19 6 0 18 4 23 15 19 8 -4 15 -15 15 -25
0 -11 7 -19 16 -19 11 0 14 5 10 16 -3 9 -6 25 -6 37 0 12 -10 33 -21 47 l-20
25 4 -32z"/>
<path d="M4025 2199 c4 -16 2 -30 -5 -34 -15 -9 -30 13 -23 32 4 10 -5 12 -38
10 -37 -3 -44 -7 -42 -23 5 -41 10 -55 20 -65 16 -16 25 5 14 34 -10 27 -6 37
16 37 7 0 13 -11 13 -24 0 -27 15 -42 25 -26 12 20 35 10 35 -16 0 -19 4 -25
18 -22 9 2 15 11 13 19 -2 8 -3 22 -3 33 1 10 -10 30 -24 45 l-25 26 6 -26z"/>
<path d="M4355 2210 c-4 -7 -18 -9 -31 -6 -23 6 -30 -3 -24 -29 2 -5 3 -17 4
-25 2 -20 15 -40 26 -40 13 0 21 33 10 44 -14 14 -13 26 3 26 6 0 19 -17 28
-38 13 -30 18 -34 24 -19 4 9 4 25 -1 35 -4 9 -8 26 -8 36 -1 22 -21 32 -31
16z"/>
<path d="M4411 2211 c-10 -6 -10 -10 -1 -16 6 -4 9 -13 6 -21 -3 -8 1 -17 9
-21 9 -3 14 -12 13 -21 -2 -8 2 -17 8 -19 8 -3 9 9 3 44 -10 54 -19 66 -38 54z"/>
<path d="M4576 2211 c-3 -5 1 -26 10 -47 12 -27 18 -34 24 -24 5 8 5 21 1 28
-5 8 -6 23 -4 33 6 20 -21 28 -31 10z"/>
<path d="M4629 2198 c4 -13 6 -29 4 -35 -3 -7 0 -13 6 -13 6 0 11 -9 11 -20 0
-11 6 -20 14 -20 11 0 13 9 9 38 -3 20 -10 39 -15 40 -4 2 -8 10 -8 18 0 8 -7
14 -15 14 -11 0 -12 -6 -6 -22z"/>
<path d="M4737 2206 c-3 -7 -2 -17 3 -22 5 -5 10 -20 12 -34 2 -14 10 -25 18
-25 15 0 15 6 3 68 -6 28 -27 37 -36 13z"/>
<path d="M4795 2203 c4 -10 8 -25 9 -33 2 -18 28 -60 37 -60 3 0 4 12 1 26 -4
20 -1 25 9 22 8 -3 15 -14 17 -26 2 -12 10 -22 18 -22 15 0 19 16 5 24 -4 3
-6 17 -3 31 2 15 0 25 -7 25 -6 0 -11 7 -11 16 0 8 -5 12 -10 9 -6 -4 -8 -16
-4 -27 8 -28 -18 -19 -31 10 -12 27 -41 31 -30 5z"/>
<path d="M4960 2210 c0 -6 -10 -8 -24 -4 -27 6 -44 -12 -27 -29 6 -6 11 -22
11 -35 0 -15 5 -22 13 -19 7 2 11 18 9 36 -3 38 19 39 28 1 3 -13 10 -25 17
-27 15 -5 26 29 12 37 -6 5 -8 17 -4 29 5 17 2 21 -14 21 -12 0 -21 -5 -21
-10z"/>
<path d="M5022 2190 c0 -16 4 -32 9 -35 5 -4 9 -15 9 -26 0 -10 5 -19 10 -19
14 0 12 51 -2 83 -17 35 -25 34 -26 -3z"/>
<path d="M5124 2206 c-3 -8 -2 -21 2 -28 5 -7 7 -20 6 -29 -3 -20 27 -34 33
-16 7 19 -9 80 -23 85 -6 2 -15 -3 -18 -12z"/>
<path d="M5240 2185 c0 -19 5 -35 10 -35 6 0 10 -9 10 -21 0 -12 5 -19 13 -16
7 2 11 15 9 30 -2 19 1 27 12 27 9 0 15 -3 15 -7 -4 -25 3 -43 16 -43 13 0 15
7 9 35 -5 30 -4 34 10 29 11 -4 14 -13 10 -30 -5 -19 -2 -24 14 -24 21 0 37
26 22 35 -6 4 -10 17 -10 31 0 24 -23 34 -35 14 -4 -6 -16 -8 -27 -4 -12 4
-24 1 -29 -7 -8 -11 -12 -11 -23 4 -20 25 -26 21 -26 -18z"/>
<path d="M829 2197 c-7 -7 -24 -11 -37 -9 -24 5 -24 3 -17 -34 9 -52 13 -56
36 -43 11 5 28 7 39 4 10 -3 21 -1 25 5 5 8 13 6 26 -6 18 -16 19 -16 19 4 0
26 18 29 27 5 6 -18 22 -33 34 -33 9 0 -11 92 -24 108 -10 12 -21 8 -23 -9 -1
-5 -2 -13 -3 -19 0 -5 -6 -10 -12 -10 -6 0 -8 8 -4 19 3 12 0 21 -11 25 -24 9
-35 -2 -28 -31 5 -18 3 -24 -5 -19 -6 4 -11 16 -11 26 0 25 -16 34 -31 17z m1
-53 c0 -8 -4 -14 -10 -14 -5 0 -10 9 -10 21 0 11 5 17 10 14 6 -3 10 -13 10
-21z"/>
<path d="M1035 2200 c-3 -5 -12 -7 -19 -4 -19 7 -42 -24 -28 -38 7 -7 12 -23
12 -35 0 -22 3 -23 38 -17 20 4 42 9 47 13 19 11 34 9 40 -6 4 -13 17 -15 67
-9 34 3 65 11 68 17 5 7 12 5 23 -5 20 -20 28 -7 25 39 -3 45 -25 67 -42 43
-8 -11 -17 -13 -28 -7 -12 7 -19 5 -25 -6 -8 -13 -12 -13 -31 5 -22 21 -37 27
-28 11 4 -5 3 -17 0 -26 -6 -15 -8 -15 -19 5 -9 16 -23 23 -53 25 -23 2 -44
-1 -47 -5z m65 -31 c0 -11 -4 -17 -10 -14 -5 3 -10 13 -10 21 0 8 5 14 10 14
6 0 10 -9 10 -21z m170 -8 c0 -6 -4 -13 -10 -16 -5 -3 -10 1 -10 9 0 9 5 16
10 16 6 0 10 -4 10 -9z m-225 -11 c3 -5 1 -10 -4 -10 -6 0 -11 5 -11 10 0 6 2
10 4 10 3 0 8 -4 11 -10z m172 -16 c-9 -9 -28 6 -21 18 4 6 10 6 17 -1 6 -6 8
-13 4 -17z m-55 -16 c-9 -9 -12 -7 -12 12 0 19 3 21 12 12 9 -9 9 -15 0 -24z"/>
<path d="M1315 2201 c-3 -5 -1 -13 5 -16 6 -4 8 -15 5 -26 -4 -11 0 -25 8 -34
9 -8 18 -20 20 -27 4 -10 8 -10 16 2 6 9 7 18 0 26 -6 7 -6 15 -1 18 13 8 22
-4 22 -26 0 -16 6 -17 43 -12 23 4 46 11 52 16 6 5 17 0 28 -14 19 -23 19 -23
13 31 -6 64 -16 77 -44 62 -15 -8 -23 -8 -27 0 -5 7 -13 4 -26 -7 -14 -13 -22
-14 -33 -5 -11 9 -15 8 -20 -4 -8 -21 -23 -19 -29 5 -5 21 -22 27 -32 11z
m175 -52 c0 -5 -4 -9 -10 -9 -5 0 -10 7 -10 16 0 8 5 12 10 9 6 -3 10 -10 10
-16z m-50 -10 c0 -11 -4 -17 -10 -14 -5 3 -10 13 -10 21 0 8 5 14 10 14 6 0
10 -9 10 -21z"/>
<path d="M1536 2198 c5 -7 7 -21 6 -30 -6 -33 25 -62 68 -65 34 -2 40 0 40 17
0 11 -5 20 -11 20 -5 0 -7 5 -4 10 10 16 25 11 25 -9 0 -21 25 -46 34 -33 3 5
3 26 -1 46 -6 38 -29 58 -42 37 -4 -6 -15 -9 -25 -5 -23 9 -38 -14 -25 -37 6
-11 5 -20 -1 -24 -6 -3 -12 0 -14 7 -3 7 -9 27 -14 43 -5 17 -17 32 -27 33
-12 3 -15 0 -9 -10z"/>
<path d="M1713 2204 c-24 -10 10 -104 38 -104 4 0 5 9 2 20 -7 26 13 26 27 0
13 -25 33 -16 25 11 -4 13 -2 19 9 19 9 0 16 -8 16 -19 0 -11 4 -22 9 -26 14
-8 26 16 22 44 -2 16 2 22 10 19 8 -3 14 -15 14 -29 0 -29 35 -41 35 -12 1 15
5 13 23 -10 26 -31 40 -26 31 9 -4 14 -2 24 5 24 6 0 13 -11 17 -25 8 -33 30
-26 27 9 -1 16 3 26 12 26 18 0 26 -25 12 -39 -8 -8 -4 -11 17 -11 24 0 28 3
22 23 -3 12 -6 30 -6 40 0 19 -30 23 -47 6 -8 -8 -15 -4 -27 12 -9 13 -17 20
-17 16 -1 -4 -2 -12 -3 -19 -2 -18 -26 -22 -26 -4 0 15 -10 20 -27 14 -4 -2
-6 -13 -5 -25 2 -13 -1 -23 -7 -23 -6 0 -11 11 -11 24 0 29 -20 39 -36 18 -8
-11 -15 -12 -31 -3 -17 8 -22 8 -27 -4 -7 -19 -26 -19 -26 0 0 24 -28 17 -33
-7 -3 -22 -4 -22 -15 5 -6 15 -13 27 -14 26 -2 0 -8 -3 -15 -5z"/>
<path d="M2117 2203 c-24 -4 -28 -8 -22 -26 3 -12 7 -31 8 -41 2 -20 27 -36
27 -17 0 18 24 12 38 -9 20 -33 34 -24 26 18 -7 39 -29 83 -42 81 -4 -1 -20
-4 -35 -6z m33 -38 c0 -8 -4 -15 -10 -15 -5 0 -10 7 -10 15 0 8 5 15 10 15 6
0 10 -7 10 -15z"/>
<path d="M2369 2205 c-1 -5 -1 -21 0 -35 2 -24 1 -24 -13 -6 -9 10 -13 23 -10
27 3 5 -16 9 -42 9 l-46 0 6 -35 c4 -19 3 -35 -2 -35 -5 0 -12 14 -15 30 -4
18 -13 30 -22 30 -20 0 -31 -28 -16 -43 6 -6 11 -19 11 -29 0 -19 25 -25 34
-9 3 5 15 7 25 4 24 -6 35 11 21 36 -5 11 -6 22 -2 25 13 8 35 -11 28 -22 -7
-12 14 -52 26 -52 5 0 8 9 8 20 0 28 14 25 28 -5 15 -32 37 -34 28 -2 -3 12
-6 29 -6 37 -1 18 -39 70 -41 55z"/>
<path d="M2515 2203 c-16 -3 -35 -9 -41 -14 -6 -5 -18 -7 -27 -3 -20 7 -32
-13 -17 -31 7 -8 10 -22 6 -30 -7 -18 17 -31 36 -19 7 5 21 7 30 6 22 -4 28
27 10 56 -12 19 -12 22 0 22 15 0 42 -46 30 -52 -4 -2 3 -14 16 -27 l22 -24 0
31 c0 24 4 30 15 26 8 -4 15 -17 15 -31 0 -15 5 -23 13 -20 6 2 12 17 12 32 0
16 6 30 13 32 7 3 12 -5 12 -21 0 -20 5 -26 21 -26 16 0 19 4 14 18 -4 9 -7
25 -7 35 1 22 -25 34 -40 19 -13 -13 -38 -4 -38 14 0 8 -4 14 -10 14 -5 0 -10
-12 -10 -26 0 -16 -5 -24 -12 -21 -7 2 -13 12 -13 22 0 21 -8 24 -50 18z m-31
-64 c-3 -5 -10 -7 -15 -3 -5 3 -7 10 -3 15 3 5 10 7 15 3 5 -3 7 -10 3 -15z"/>
<path d="M2756 2173 c7 -35 6 -37 -9 -24 -10 7 -17 22 -17 32 0 11 -7 19 -16
19 -13 0 -15 -7 -9 -37 7 -42 25 -66 32 -45 7 19 51 15 49 -4 0 -9 4 -19 10
-21 7 -2 10 5 7 22 -3 15 -1 25 6 25 6 0 11 -11 11 -25 0 -22 2 -24 27 -14 14
5 33 7 41 4 8 -3 21 0 29 6 10 9 17 9 25 1 8 -8 15 -7 25 6 12 16 14 16 27 0
7 -10 16 -18 19 -18 7 0 3 48 -7 83 -10 35 -32 29 -29 -7 1 -18 -2 -26 -10
-23 -7 2 -11 14 -10 25 2 19 -3 21 -45 20 -40 0 -48 -3 -49 -19 -1 -10 2 -21
8 -24 14 -9 11 -25 -6 -25 -8 0 -15 7 -15 15 0 8 -5 24 -12 35 -12 18 -13 18
-24 -8 l-11 -27 -17 33 c-23 44 -39 41 -30 -5z m169 -12 c3 -5 1 -12 -5 -16
-5 -3 -10 1 -10 9 0 18 6 21 15 7z"/>
<path d="M3147 2203 c-10 -16 -1 -71 13 -88 14 -17 15 -16 20 11 3 16 -1 41
-8 57 -14 29 -18 32 -25 20z"/>
<path d="M4136 2201 c-3 -4 -18 -6 -32 -3 -26 5 -27 4 -20 -34 8 -43 25 -67
33 -47 3 8 14 11 28 7 25 -6 41 9 28 29 -4 6 -6 22 -4 35 2 22 -22 32 -33 13z
m4 -46 c0 -8 -4 -15 -10 -15 -5 0 -10 7 -10 15 0 8 5 15 10 15 6 0 10 -7 10
-15z"/>
<path d="M4190 2191 c0 -31 21 -81 35 -81 14 0 9 47 -7 67 -5 7 -7 17 -3 23 3
5 -1 10 -9 10 -9 0 -16 -8 -16 -19z"/>
<path d="M4246 2203 c-10 -11 -7 -39 10 -72 13 -26 19 -30 30 -20 10 8 12 15
4 23 -5 5 -10 18 -10 29 0 21 -24 49 -34 40z"/>
<path d="M4520 2197 c0 -7 3 -17 7 -21 4 -4 8 -17 8 -29 0 -13 6 -22 15 -22 9
0 14 8 12 20 -2 11 -4 29 -5 40 -2 22 -37 34 -37 12z"/>
<path d="M3031 2183 c-5 -9 -5 -24 -1 -32 5 -9 11 -24 14 -33 3 -10 13 -18 22
-18 13 0 15 6 10 28 -4 15 -7 35 -7 44 0 23 -27 31 -38 11z"/>
<path d="M3094 2163 c4 -21 14 -44 21 -52 12 -13 14 -7 11 35 -2 38 -7 50 -21
52 -15 4 -17 -1 -11 -35z"/>
<path d="M3202 2178 c-1 -26 19 -78 31 -78 4 0 5 15 3 33 -8 61 -30 91 -34 45z"/>
<path d="M3254 2186 c-3 -8 0 -24 6 -35 6 -12 8 -26 5 -31 -4 -6 1 -13 10 -17
19 -7 38 16 26 32 -5 5 -11 22 -15 38 -7 29 -23 36 -32 13z"/>
<path d="M4468 2188 c-6 -18 16 -78 29 -78 15 0 13 71 -2 82 -14 11 -23 10
-27 -4z"/>
<path d="M4687 2193 c-3 -5 -2 -15 4 -23 5 -8 9 -25 9 -37 0 -13 6 -23 13 -23
20 0 28 12 18 24 -5 6 -11 22 -13 35 -3 25 -22 39 -31 24z"/>
<path d="M3866 2153 c9 -50 13 -56 30 -42 11 9 11 15 3 25 -6 8 -9 23 -6 34 4
15 0 20 -14 20 -17 0 -19 -5 -13 -37z"/>
<path d="M7010 2049 c0 -5 5 -7 10 -4 6 3 10 8 10 11 0 2 -4 4 -10 4 -5 0 -10
-5 -10 -11z"/>
<path d="M15897 2016 c-93 -34 -154 -127 -142 -217 6 -42 15 -57 55 -98 27
-26 75 -60 107 -75 32 -16 79 -42 106 -58 47 -30 47 -30 47 -85 0 -47 -4 -59
-28 -83 -16 -15 -44 -32 -63 -38 -43 -11 -135 0 -179 23 -36 18 -44 14 -56
-32 -10 -37 1 -49 59 -67 115 -36 241 -19 305 42 49 47 80 114 76 168 -3 45
-33 124 -47 124 -5 0 -18 11 -29 25 -11 14 -25 25 -31 25 -7 0 -29 9 -50 20
-20 11 -37 17 -37 14 0 -4 -7 -1 -15 6 -8 7 -30 20 -47 29 -18 9 -40 31 -50
49 -32 58 -8 114 60 142 32 13 125 13 139 -1 19 -19 57 -6 72 25 13 27 12 30
-10 47 -41 31 -173 39 -242 15z"/>
<path d="M16539 2025 c-3 -2 -45 -6 -93 -6 -56 -1 -92 -7 -101 -15 -18 -19
-25 -123 -27 -436 -1 -190 1 -281 9 -289 13 -13 215 -6 288 10 67 15 123 56
153 111 41 77 18 193 -48 240 -15 11 -35 20 -44 20 -25 0 -19 10 23 47 45 38
71 83 71 123 0 39 -19 91 -44 119 -32 36 -171 93 -187 76z m88 -118 c11 -9 20
-23 21 -30 1 -6 4 -30 7 -52 6 -37 3 -43 -30 -74 -33 -30 -44 -33 -115 -38
-77 -6 -78 -5 -82 18 -4 33 8 175 17 189 12 19 158 9 182 -13z m-55 -293 c61
-10 110 -84 100 -152 -9 -64 -100 -111 -203 -104 l-46 3 0 129 c0 154 -5 149
149 124z"/>
<path d="M14934 2002 c-8 -7 -14 -26 -13 -40 0 -15 -4 -67 -10 -117 -6 -49
-13 -119 -15 -155 -11 -146 -26 -318 -31 -361 l-6 -47 41 -4 c52 -5 62 7 65
80 1 31 6 77 9 102 4 25 9 88 12 140 7 145 13 233 17 237 4 4 54 -134 68 -187
20 -80 118 -353 129 -360 20 -12 61 2 77 27 9 13 26 52 39 86 12 34 33 87 44
117 12 30 35 93 51 140 17 47 34 94 39 105 5 11 11 33 15 48 3 16 11 27 18 24
8 -2 12 -29 13 -78 1 -125 15 -443 20 -461 4 -14 16 -18 50 -18 47 0 49 2 45
80 0 14 -3 79 -5 145 -3 66 -7 163 -11 215 -3 52 -8 137 -10 189 -3 51 -8 97
-11 102 -7 11 -95 11 -112 0 -19 -11 -178 -424 -188 -485 -4 -32 -32 -81 -41
-72 -3 3 -7 20 -9 37 -2 18 -8 37 -12 43 -4 6 -9 25 -11 41 -2 17 -7 32 -11
35 -4 3 -11 24 -15 47 -4 24 -11 45 -15 48 -5 3 -25 58 -45 123 -20 64 -40
126 -45 137 -4 11 -11 28 -14 38 -5 15 -15 18 -57 16 -28 -2 -58 -9 -65 -17z"/>
<path d="M8195 1694 c-22 -13 -55 -31 -73 -40 -42 -21 -45 -27 -30 -61 19 -42
27 -44 71 -12 22 16 44 29 48 29 5 0 10 -136 11 -302 l3 -303 35 -1 c49 -2 61
11 60 65 -1 25 -1 113 0 196 1 100 -3 151 -10 153 -7 3 -8 8 -1 16 12 14 19
256 8 274 -13 20 -79 13 -122 -14z"/>
<path d="M7010 1195 c0 -8 2 -15 4 -15 2 0 6 7 10 15 3 8 1 15 -4 15 -6 0 -10
-7 -10 -15z"/>
<path d="M7010 540 c0 -5 5 -10 11 -10 5 0 7 5 4 10 -3 6 -8 10 -11 10 -2 0
-4 -4 -4 -10z"/>
</g>
</svg>
