<?xml version="1.0" encoding="utf-8"?>
<svg viewBox="219.235 227.818 50.141 59.277" xmlns="http://www.w3.org/2000/svg">
  <g version="1.0" fill="#000000" stroke="none">
    <path d="M 261.018 284.707 C 257.803 287.828 254.255 287.341 250.874 285.87 C 247.279 284.369 243.993 284.274 240.196 285.87 C 235.468 287.911 232.959 287.318 230.111 284.707 C 214.036 268.157 215.963 242.723 234.679 241.996 C 239.198 242.102 242.213 244.446 244.823 244.63 C 248.703 243.841 252.416 241.581 256.569 241.878 C 261.558 242.281 265.289 244.251 267.78 247.792 C 257.518 253.961 259.95 267.486 269.376 271.283 C 267.49 276.237 265.069 281.13 261.012 284.749 L 261.018 284.707 Z M 244.467 241.819 C 243.987 234.463 249.949 228.412 256.806 227.818 C 257.75 236.302 249.094 242.649 244.467 241.819 Z" id="path2" style="stroke-width: 0.118661; mix-blend-mode: multiply; filter: none;"/>
  </g>
</svg>