<?xml version="1.0" standalone="no"?>
<!DOCTYPE svg PUBLIC "-//W3C//DTD SVG 20010904//EN"
 "http://www.w3.org/TR/2001/REC-SVG-20010904/DTD/svg10.dtd">
<svg version="1.0" xmlns="http://www.w3.org/2000/svg"
 width="648.000000pt" height="639.000000pt" viewBox="0 0 648.000000 639.000000"
 preserveAspectRatio="xMidYMid meet">
<metadata>
Created by potrace 1.10, written by Peter Selinger 2001-2011
</metadata>
<g transform="translate(0.000000,639.000000) scale(0.100000,-0.100000)"
fill="#000000" stroke="none">
<path d="M3027 5054 c-5 -6 -99 -42 -142 -55 -16 -5 -39 -13 -50 -18 -11 -5
-47 -19 -80 -30 -33 -11 -85 -30 -115 -41 -30 -12 -68 -26 -85 -31 -16 -5 -39
-13 -50 -18 -105 -48 -184 -54 -369 -31 -105 13 -357 13 -465 -1 -147 -18
-316 -56 -374 -85 -16 -8 -33 -14 -38 -14 -10 0 -143 -63 -174 -83 -54 -34
-175 -130 -211 -168 -68 -71 -131 -165 -179 -264 -25 -52 -45 -99 -45 -105 0
-7 -6 -33 -14 -59 -37 -118 -44 -268 -21 -421 22 -143 39 -189 121 -343 25
-46 177 -190 255 -243 99 -65 90 -61 284 -159 188 -95 191 -97 253 -142 82
-60 112 -116 112 -208 0 -109 -52 -180 -161 -219 -69 -25 -320 -25 -418 -1
-101 25 -172 46 -211 63 -19 8 -51 21 -70 29 -19 9 -42 19 -50 24 -8 4 -37 20
-65 34 -58 31 -70 38 -148 88 -61 40 -77 41 -77 1 0 -13 -6 -50 -14 -82 -8
-31 -22 -93 -31 -137 -10 -44 -23 -107 -30 -140 -7 -33 -21 -96 -30 -140 -9
-44 -21 -100 -27 -125 -25 -103 -25 -103 34 -132 119 -58 249 -105 393 -141
162 -41 220 -49 444 -66 148 -11 454 9 576 39 289 69 458 151 602 291 70 68
153 170 153 188 0 17 27 13 34 -5 4 -10 13 -67 21 -128 14 -106 18 -136 46
-319 7 -44 17 -81 24 -83 12 -5 113 26 215 66 30 12 66 25 80 30 14 5 70 26
125 47 l100 38 320 5 320 5 65 128 c63 123 99 167 138 167 8 0 28 6 45 14 18
8 59 23 92 35 33 11 85 30 115 41 30 12 71 26 90 32 19 6 40 13 45 16 6 4 37
16 70 27 60 21 60 21 63 63 3 34 8 43 25 47 12 3 126 4 252 3 l230 -3 3 -45
c1 -25 7 -83 13 -130 5 -47 14 -151 19 -232 4 -81 11 -152 15 -158 7 -12 933
-14 952 -2 9 5 9 19 3 47 -5 22 -10 60 -10 85 0 25 -6 92 -14 150 -18 129 -36
277 -46 390 -4 47 -12 123 -18 170 -6 47 -18 146 -26 220 -9 74 -20 176 -26
225 -7 50 -14 113 -16 140 -2 28 -11 106 -19 175 -8 69 -21 188 -30 265 -8 77
-20 176 -26 220 -6 44 -14 127 -19 185 -5 58 -14 129 -20 159 -5 29 -10 72
-10 95 0 22 -6 88 -15 146 -20 145 -38 301 -44 390 l-6 75 -591 3 -592 2 -28
-52 c-15 -29 -34 -64 -42 -78 -29 -51 -78 -140 -103 -187 -15 -26 -36 -64 -47
-83 -12 -19 -33 -57 -47 -85 -14 -27 -35 -66 -47 -85 -11 -19 -32 -57 -47 -83
-14 -26 -39 -72 -56 -102 -16 -29 -42 -75 -56 -102 -15 -26 -36 -64 -47 -83
-12 -19 -33 -57 -47 -85 -14 -27 -35 -66 -47 -85 -11 -19 -32 -57 -47 -83 -14
-26 -39 -72 -56 -102 -16 -29 -42 -75 -56 -102 -15 -26 -36 -64 -47 -83 -12
-19 -33 -57 -47 -85 -14 -27 -35 -66 -47 -85 -11 -19 -32 -57 -47 -83 -14 -26
-40 -74 -58 -105 -17 -31 -44 -80 -59 -109 -24 -44 -50 -71 -59 -61 -2 2 -10
62 -20 133 -9 72 -24 173 -31 225 -8 52 -19 127 -24 165 -5 39 -19 133 -30
210 -12 77 -25 174 -30 215 -4 41 -11 86 -14 100 -7 28 -33 216 -46 325 -5 39
-18 133 -30 210 -12 77 -25 172 -30 210 -9 71 -48 349 -49 351 -3 6 -30 12
-34 8z m1913 -1107 c0 -128 7 -313 15 -412 8 -99 15 -242 15 -318 l0 -137
-272 2 c-318 3 -293 -12 -222 135 24 51 64 135 88 185 43 91 93 196 180 380
59 124 89 192 116 258 12 30 28 69 35 85 8 17 16 38 19 48 3 10 10 15 16 12 6
-4 10 -93 10 -238z m-2742 164 l67 -17 12 -80 c7 -43 16 -113 22 -154 5 -41
19 -140 31 -220 11 -80 25 -177 30 -215 5 -39 12 -83 15 -98 10 -39 -21 -36
-71 6 -44 37 -132 100 -154 110 -8 4 -28 16 -45 26 -16 11 -50 31 -75 44 -25
14 -61 34 -80 46 -19 11 -44 25 -55 30 -11 5 -37 21 -58 35 -21 14 -40 26 -43
26 -3 0 -28 18 -57 40 -90 68 -127 131 -127 220 0 46 5 69 24 98 42 67 116
111 206 123 81 10 282 -1 358 -20z"/>
</g>
</svg>
